<svg xmlns="http://www.w3.org/2000/svg" viewBox="0 0 72 72"><title>aeroplane</title><path d="M70.12,41.85a.41.41,0,0,0,0-.09c-.55.41-.8.45-.9.43v0h0l-7.33-1.75a1.25,1.25,0,0,0-2.33-.61h-.05l0,0-8-1.91,0-.08h0a1.25,1.25,0,0,0-2.09-.43c-4.57-1.08-8.19-1.94-8.49-2-.81-.15-.84-.33-.84-.34h0C40.17,26,38.5,24.56,38.5,24.56a3.17,3.17,0,0,0-1.77-1,3,3,0,0,0-.6-.06,3.15,3.15,0,0,0-1.91.59,2.39,2.39,0,0,0-.48.44c-1.83,1.86-1.58,10.47-1.58,10.47s-.09.15-.09.15,0,.19-.84.34c-.29.05-3.86.89-8.38,2a1.25,1.25,0,0,0-2.08.4h0l0,.11L12.6,39.84a1.25,1.25,0,0,0-2.34.56L2.79,42.18s-.19.15-1-.42a.41.41,0,0,0,0,.08s0,.06,0,.06l0,0a2.29,2.29,0,0,0,.86,1.16s0,.15.72.15L5.69,43h0L11,42.59a1.26,1.26,0,0,0,1,.16,1.75,1.75,0,0,0,.64-.3l7.43-.65a11.43,11.43,0,0,1,3,.11c1,.15,1.91.27,2.76.37,1.59.21,3.11.39,3.11.39h.12v.87a.23.23,0,0,0,.23.23h.06a.23.23,0,0,0,.23-.23v-.38H31v.44a.23.23,0,0,0,.23.23h.06a.23.23,0,0,0,.23-.23V41.69a.23.23,0,0,0-.23-.23h0l.15-.77h.23l.08,1.18.45,0s.43.11.49.49v0l0,.24a.23.23,0,0,0-.12.2v1.91a.23.23,0,0,0,.23.23h.06a.23.23,0,0,0,.21-.15,2.87,2.87,0,0,0,.33.85l0,.05-8,1.33v.49h.49v-.15l6.28-.17v.17h2.65a6.38,6.38,0,0,0,1,1,.33.33,0,0,0,.5,0l0,0a7,7,0,0,0,1.06-1h2.51v-.2l6.34.2v.14h.51v-.43l-8-1.43a2.68,2.68,0,0,0,.33-.78.23.23,0,0,0,.16.06h.06a.23.23,0,0,0,.23-.23V42.86a.23.23,0,0,0-.07-.16c0-.11,0-.23,0-.35a.55.55,0,0,1,.49-.43c.4,0,.4,0,.4,0l.11-1.23h.2l.16.74a.23.23,0,0,0-.22.23v1.91a.23.23,0,0,0,.23.23h.06a.23.23,0,0,0,.23-.23v-.4h1.43v.37a.23.23,0,0,0,.23.23h.06a.23.23,0,0,0,.23-.23v-.88c.37,0,2.09-.25,3.67-.46L49,41.89a8.45,8.45,0,0,1,1-.13,10.48,10.48,0,0,1,1.89,0l7.64.66a1.79,1.79,0,0,0,.58.26,1.27,1.27,0,0,0,.93-.13l7.47.65c.72,0,.72-.15.72-.15h0a2.54,2.54,0,0,0,.9-1.19S70.21,41.8,70.12,41.85ZM31,43H29.61v-.25l1.34.08Zm10.16,0v-.2h0l.63,0,.8,0V43Z" style="fill:#fff"/><path d="M33.31,23.62a5.57,5.57,0,0,0-.85,1.25,8.05,8.05,0,0,0-.56,1.39,14.16,14.16,0,0,0-.53,3,8.78,8.78,0,0,1,0-1.53,8.52,8.52,0,0,1,.3-1.51A5.23,5.23,0,0,1,33.31,23.62Z" style="fill:#fff"/></svg>