<svg id="Layer_1" data-name="Layer 1" xmlns="http://www.w3.org/2000/svg" viewBox="0 0 300 150"><defs><style>.cls-1{fill:#e2cfc1;}.cls-2{fill:#e5c333;}.cls-3{fill:#dda533;}.cls-4{fill:#e0634f;}.cls-5{fill:#f8d646;}.cls-6{fill:#f4be4a;}.cls-7{fill:#f57b61;}.cls-8{fill:#ffecb4;}.cls-9{fill:#91cfba;}.cls-10{fill:#e65895;}.cls-11{fill:#19164f;}.cls-12{fill:#f7a66f;}.cls-13{fill:#754984;}.cls-14{fill:#81236d;}.cls-15{fill:#282e76;}.cls-16{fill:#2e3b57;}.cls-17{fill:#b5cce2;}.cls-18{fill:#eaeaea;}</style></defs><title>assured-results</title><ellipse class="cls-1" cx="150" cy="144.56" rx="73.75" ry="4.61"/><rect class="cls-2" x="92.78" y="29.93" width="14.59" height="115.32"/><rect class="cls-3" x="92.78" y="74.81" width="14.59" height="70.43"/><rect class="cls-4" x="92.78" y="87.59" width="14.59" height="57.66"/><rect class="cls-2" x="112.08" y="60.39" width="16.07" height="84.86"/><rect class="cls-3" x="112.08" y="96.29" width="16.07" height="48.95"/><rect class="cls-4" x="112.08" y="107.59" width="16.07" height="37.66"/><rect class="cls-2" x="132.73" y="47.34" width="14.59" height="97.9"/><rect class="cls-3" x="132.73" y="67.47" width="14.59" height="77.78"/><rect class="cls-4" x="132.73" y="77.64" width="14.59" height="67.6"/><rect class="cls-2" x="152.03" y="80.67" width="16.07" height="64.57"/><rect class="cls-3" x="152.03" y="110.03" width="16.07" height="35.22"/><rect class="cls-4" x="152.03" y="120.36" width="16.07" height="24.89"/><rect class="cls-2" x="172.95" y="29.93" width="14.59" height="115.32"/><rect class="cls-3" x="172.95" y="80.84" width="14.59" height="64.41"/><rect class="cls-4" x="172.95" y="90.74" width="14.59" height="54.51"/><rect class="cls-2" x="192.25" y="60.39" width="16.07" height="84.86"/><rect class="cls-3" x="192.25" y="87.59" width="16.07" height="57.66"/><rect class="cls-4" x="192.25" y="96.29" width="16.07" height="48.95"/><rect class="cls-5" x="89.53" y="29.93" width="14.59" height="115.32"/><rect class="cls-6" x="89.53" y="74.81" width="14.59" height="70.43"/><rect class="cls-7" x="89.53" y="87.59" width="14.59" height="57.66"/><rect class="cls-5" x="108.83" y="60.39" width="16.07" height="84.86"/><rect class="cls-6" x="108.83" y="96.29" width="16.07" height="48.95"/><rect class="cls-7" x="108.83" y="107.59" width="16.07" height="37.66"/><rect class="cls-5" x="129.48" y="47.34" width="14.59" height="97.9"/><rect class="cls-6" x="129.48" y="67.47" width="14.59" height="77.78"/><rect class="cls-7" x="129.48" y="77.64" width="14.59" height="67.6"/><rect class="cls-5" x="148.78" y="80.67" width="16.07" height="64.57"/><rect class="cls-6" x="148.78" y="110.03" width="16.07" height="35.22"/><rect class="cls-7" x="148.78" y="120.36" width="16.07" height="24.89"/><rect class="cls-5" x="169.7" y="29.93" width="14.59" height="115.32"/><rect class="cls-6" x="169.7" y="80.84" width="14.59" height="64.41"/><rect class="cls-7" x="169.7" y="90.74" width="14.59" height="54.51"/><rect class="cls-5" x="189" y="60.39" width="16.07" height="84.86"/><rect class="cls-6" x="189" y="87.59" width="16.07" height="57.66"/><rect class="cls-7" x="189" y="96.29" width="16.07" height="48.95"/><polygon class="cls-8" points="92.77 120.14 79.28 103 80.45 102.08 92.6 117.52 107.91 91.87 117.97 113.29 136.64 100.46 146.63 114.8 164.63 90.26 173.51 108.99 185.94 101.83 199.47 124.98 213.37 118.04 213.37 118.04 214.15 119.31 214.15 119.31 198.89 126.94 185.4 103.86 172.86 111.08 164.35 93.15 146.6 117.35 136.26 102.52 117.37 115.51 107.75 95.04 92.77 120.14"/><circle class="cls-9" cx="92.53" cy="117.97" r="2.22" transform="translate(-34.59 197.46) rotate(-83.91)"/><circle class="cls-9" cx="79.89" cy="102.29" r="2.22" transform="translate(-30.32 170.85) rotate(-83.89)"/><circle class="cls-9" cx="107.67" cy="93.28" r="2.22" transform="translate(3.42 190.36) rotate(-83.86)"/><circle class="cls-9" cx="117.6" cy="114.23" r="2.22" transform="translate(-8.48 219.02) rotate(-83.9)"/><circle class="cls-9" cx="136.45" cy="101.49" r="2.22" transform="translate(21 226.35) rotate(-83.88)"/><circle class="cls-9" cx="146.61" cy="116.08" r="2.22" transform="translate(15.65 249.55) rotate(-83.91)"/><path class="cls-9" d="M166.88,92a2.22,2.22,0,1,1-2-2.44A2.23,2.23,0,0,1,166.88,92Z"/><circle class="cls-9" cx="173.19" cy="110.04" r="2.22" transform="translate(45.29 270.48) rotate(-83.87)"/><circle class="cls-9" cx="185.82" cy="103.13" r="2.22" transform="translate(63.54 276.95) rotate(-83.9)"/><path class="cls-9" d="M201.53,125.77a2.22,2.22,0,1,1-2-2.45A2.22,2.22,0,0,1,201.53,125.77Z"/><circle class="cls-9" cx="213.98" cy="118.81" r="2.22" transform="translate(73.11 318.95) rotate(-83.9)"/><polygon class="cls-10" points="166.09 65.22 167.64 64.88 168.61 67.13 169.47 67.99 174.72 70.14 166.39 69.97 166.09 65.22"/><path class="cls-11" d="M129.44,38.14s5.79,7.26,10.73,9c0,0,12.61.34,22.17-4,0,0,1,8,2.26,18.3l.93,5.11,3-.54s3.34-23.95,2.14-28.13-11.69-2.49-13.43-2.39c-.77,0-3.24-.3-7.93-.63C143.67,34.43,129.44,38.14,129.44,38.14Z"/><polygon class="cls-10" points="154.47 68.41 156.02 68.08 156.99 70.32 157.85 71.18 163.09 73.32 154.76 73.16 154.47 68.41"/><path class="cls-12" d="M176,13.72s2.42-2.47,3.2-2.3,2.69,1.72-2.46,3.49Z"/><path class="cls-13" d="M148.94,15.68l11,11.07L177.2,14.91l-.93-1.49-14.67,7-10.33-9.31s-4.55-4.12-5.33-1.08C145.55,11.61,146.71,13.36,148.94,15.68Z"/><path class="cls-14" d="M131.83,13.44s14-4.68,15.64-4.49,2.8,6.14,3.06,8.13c.38,2.93-1.46,5.78-2.19,9.21s.93,8.53.93,8.53L127.85,40l3.73-10.95Z"/><path class="cls-15" d="M127.85,40s-2.46,8.56,2.78,8.59c5.53,0,10.82.06,21.83-2.79,0,0,.55,10.29,1,18.41L154,69.4l3-.33s5-23.65,4.12-27.91-11.77-4.08-13.51-4.11a47.07,47.07,0,0,0-8.47.39A98.85,98.85,0,0,0,127.85,40Z"/><path class="cls-12" d="M138.88,7.71l-.6,3.94s5.1,2.87,4.42,1a43.56,43.56,0,0,1-1.27-5.23Z"/><path class="cls-12" d="M138.39,3.31c-.22.82-.67,2.41-.12,3.39s1.42,2.75,2.65,3.06a1.65,1.65,0,0,0,1.94-1.3c.22-.79,0-5.09-2-5.92C139.34,1.91,138.57,2.69,138.39,3.31Z"/><path class="cls-16" d="M144.2,1.54S141,4.16,139.61,4s-1,1.1-1,1.24.44,2,0,2-1.31-2.15-.82-3.77S143.2-.31,144.2,1.54Z"/><path class="cls-16" d="M139,7.9a4,4,0,0,0,2.82.82c.85-.2,1.13-1.76,1.09-2.08s.74,2.82-1.16,3.15S139,7.9,139,7.9Z"/><polygon class="cls-17" points="162.58 24.13 158.69 37.01 177.51 37.01 181.4 24.13 162.58 24.13"/><circle class="cls-18" cx="170.61" cy="30.57" r="1.65"/><rect class="cls-18" x="146.72" y="36.07" width="12.34" height="0.94"/><path class="cls-12" d="M157.72,29.22s3.23-1.23,3.87-.74,1.72,2.69-3.7,2.13Z"/><path class="cls-13" d="M132.33,19.64,136.11,30l1.59,4.35,20.6-3.52-.22-1.74-16.26.23L136.35,16.5s-2.4-5.65-4.38-3.21C131,14.52,131.28,16.61,132.33,19.64Z"/></svg>