<svg xmlns="http://www.w3.org/2000/svg" xmlns:xlink="http://www.w3.org/1999/xlink" viewBox="0 0 300 150"><defs><style>.cls-1{isolation:isolate;}.cls-2{fill:#0202bc;}.cls-3{fill:#0400a4;}.cls-4{fill:#2828c6;}.cls-5{fill:#eee;}.cls-6{fill:#777c99;}.cls-7{fill:#1a2a49;}.cls-8{fill:#111b34;}.cls-9{fill:#7f7060;}.cls-104,.cls-9{opacity:0.3;}.cls-100,.cls-102,.cls-104,.cls-105,.cls-106,.cls-28,.cls-29,.cls-30,.cls-32,.cls-49,.cls-50,.cls-51,.cls-54,.cls-56,.cls-58,.cls-62,.cls-65,.cls-67,.cls-68,.cls-70,.cls-73,.cls-80,.cls-81,.cls-83,.cls-84,.cls-87,.cls-9,.cls-91,.cls-92,.cls-98{mix-blend-mode:multiply;}.cls-10{fill:#184689;}.cls-11{fill:#9f1c3b;}.cls-12{fill:#ff3d60;}.cls-13{fill:#0caaba;}.cls-14{fill:#d63c3c;}.cls-15{fill:#99adc6;}.cls-16{fill:#7f90a5;}.cls-17{fill:#8b9bb1;}.cls-18{fill:#114c63;}.cls-19{fill:#77d6e5;}.cls-20{fill:#07008f;}.cls-21{fill:#0d0dc9;}.cls-22{fill:#bc7800;}.cls-23{fill:#0606c4;}.cls-24{fill:#13133d;}.cls-25{fill:url(#linear-gradient);}.cls-26{fill:url(#linear-gradient-2);}.cls-27{fill:url(#linear-gradient-3);}.cls-28{opacity:0.5;}.cls-29{fill:#9b6524;}.cls-105,.cls-106,.cls-29,.cls-87,.cls-91{opacity:0.4;}.cls-30,.cls-51,.cls-84{opacity:0.2;}.cls-30{fill:url(#linear-gradient-4);}.cls-31{fill:url(#linear-gradient-5);}.cls-100,.cls-102,.cls-32,.cls-50,.cls-56,.cls-58,.cls-65,.cls-67,.cls-68,.cls-81,.cls-83,.cls-98{opacity:0.28;}.cls-32{fill:url(#linear-gradient-6);}.cls-33{fill:#ace0f9;}.cls-34{fill:#d2f4ff;}.cls-35{fill:#e6f7ff;}.cls-36{fill:#b9e2ef;}.cls-37{fill:#d4edfc;}.cls-38{fill:#d4f7ff;}.cls-39{fill:#a3d6e2;}.cls-40{fill:#e9f8ff;}.cls-41{fill:#c3e1ea;}.cls-42{fill:#7c1419;}.cls-43{fill:#b31d24;}.cls-44{fill:#c82029;}.cls-45{fill:#a8dae2;}.cls-46{fill:url(#linear-gradient-7);}.cls-47{fill:url(#linear-gradient-8);}.cls-48{fill:url(#linear-gradient-9);}.cls-49{fill:#d5d8db;}.cls-50{fill:url(#linear-gradient-10);}.cls-51{fill:url(#linear-gradient-11);}.cls-52{fill:url(#linear-gradient-12);}.cls-53{fill:#662d14;}.cls-54,.cls-57,.cls-58{fill:#6f3417;}.cls-54{opacity:0.27;}.cls-55{fill:url(#linear-gradient-13);}.cls-56{fill:url(#linear-gradient-14);}.cls-59{fill:#0b1d38;}.cls-60{fill:url(#linear-gradient-15);}.cls-61,.cls-70{fill:#0f2242;}.cls-62{fill:#735ab6;opacity:0.21;}.cls-63{fill:url(#linear-gradient-16);}.cls-64{fill:url(#linear-gradient-17);}.cls-65{fill:#5a479e;}.cls-66{fill:url(#linear-gradient-18);}.cls-67{fill:url(#linear-gradient-19);}.cls-68{fill:url(#linear-gradient-20);}.cls-69{fill:url(#linear-gradient-21);}.cls-70{opacity:0.22;}.cls-71,.cls-73{fill:#606977;}.cls-72{fill:#818c9f;}.cls-73,.cls-92{opacity:0.1;}.cls-74{fill:url(#linear-gradient-22);}.cls-75{fill:url(#linear-gradient-23);}.cls-76{fill:url(#linear-gradient-24);}.cls-77{fill:url(#linear-gradient-25);}.cls-78,.cls-80{fill:#5a2641;}.cls-79{fill:url(#linear-gradient-26);}.cls-80{opacity:0.25;}.cls-81{fill:url(#linear-gradient-27);}.cls-82{fill:url(#linear-gradient-28);}.cls-83{fill:url(#linear-gradient-29);}.cls-84{fill:#08637f;}.cls-85{fill:url(#linear-gradient-30);}.cls-86,.cls-87{fill:#b3b2da;}.cls-88{fill:url(#linear-gradient-31);}.cls-89{fill:#dadae8;}.cls-90{fill:url(#linear-gradient-32);}.cls-91{fill:#84849b;}.cls-92{fill:#61617a;}.cls-93{fill:url(#linear-gradient-33);}.cls-94{fill:url(#linear-gradient-34);}.cls-95{fill:url(#linear-gradient-35);}.cls-96{fill:url(#linear-gradient-36);}.cls-97{fill:url(#linear-gradient-37);}.cls-98{fill:url(#linear-gradient-38);}.cls-99{fill:url(#linear-gradient-39);}.cls-100{fill:url(#linear-gradient-40);}.cls-101{fill:url(#linear-gradient-41);}.cls-102{fill:url(#linear-gradient-42);}.cls-103,.cls-104{fill:#2b1520;}.cls-105{fill:url(#linear-gradient-43);}.cls-106{fill:url(#linear-gradient-44);}.cls-107{fill:#d84545;}</style><linearGradient id="linear-gradient" x1="12.22" y1="80.53" x2="17.59" y2="52.55" gradientTransform="translate(142)" gradientUnits="userSpaceOnUse"><stop offset="0.01" stop-color="#dea595"/><stop offset="0.99" stop-color="#e2837a"/></linearGradient><linearGradient id="linear-gradient-2" x1="26.93" y1="89.16" x2="14.08" y2="60.62" gradientTransform="translate(142)" gradientUnits="userSpaceOnUse"><stop offset="0.01" stop-color="#55cbe6"/><stop offset="0.99" stop-color="#78cbe6"/></linearGradient><linearGradient id="linear-gradient-3" x1="14.17" y1="80.89" x2="19.53" y2="52.93" xlink:href="#linear-gradient"/><linearGradient id="linear-gradient-4" x1="26.2" y1="77.15" x2="30.26" y2="77.15" xlink:href="#linear-gradient-2"/><linearGradient id="linear-gradient-5" x1="190.49" y1="77.49" x2="196.95" y2="70.15" gradientTransform="matrix(-1, 0, 0, 1, 347.86, 0)" xlink:href="#linear-gradient"/><linearGradient id="linear-gradient-6" x1="8.88" y1="73.71" x2="16.62" y2="73.71" xlink:href="#linear-gradient"/><linearGradient id="linear-gradient-7" x1="10.72" y1="121.6" x2="11.24" y2="118.92" xlink:href="#linear-gradient"/><linearGradient id="linear-gradient-8" x1="0.68" y1="98.59" x2="1.16" y2="96.06" xlink:href="#linear-gradient"/><linearGradient id="linear-gradient-9" x1="179.11" y1="86.28" x2="185.09" y2="55.07" gradientTransform="matrix(-1, 0, 0, 1, 347.86, 0)" xlink:href="#linear-gradient"/><linearGradient id="linear-gradient-10" x1="173.75" y1="76.46" x2="187.04" y2="76.46" gradientTransform="matrix(-1, 0, 0, 1, 347.86, 0)" xlink:href="#linear-gradient"/><linearGradient id="linear-gradient-11" x1="28.95" y1="66.72" x2="31.8" y2="66.72" xlink:href="#linear-gradient-2"/><linearGradient id="linear-gradient-12" x1="19.19" y1="66.76" x2="41.56" y2="-28.47" xlink:href="#linear-gradient"/><linearGradient id="linear-gradient-13" x1="22.34" y1="64.86" x2="26.28" y2="48.12" xlink:href="#linear-gradient"/><linearGradient id="linear-gradient-14" x1="20.89" y1="61.03" x2="25.06" y2="61.03" xlink:href="#linear-gradient"/><linearGradient id="linear-gradient-15" x1="104.12" y1="83.71" x2="119.98" y2="83.71" gradientTransform="matrix(-1, 0, 0, 1, 347.86, 0)" xlink:href="#linear-gradient"/><linearGradient id="linear-gradient-16" x1="118.25" y1="138.83" x2="121.41" y2="138.83" gradientTransform="matrix(-1, 0, 0, 1, 347.86, 0)" xlink:href="#linear-gradient"/><linearGradient id="linear-gradient-17" x1="125.12" y1="137.43" x2="127.84" y2="137.43" gradientTransform="matrix(-1, 0, 0, 1, 347.86, 0)" xlink:href="#linear-gradient"/><linearGradient id="linear-gradient-18" x1="125.77" y1="75.68" x2="129.37" y2="69.81" gradientTransform="matrix(-1, 0, 0, 1, 347.86, 0)" xlink:href="#linear-gradient"/><linearGradient id="linear-gradient-19" x1="126.5" y1="74.33" x2="129.1" y2="70.09" gradientTransform="matrix(-1, 0, 0, 1, 347.86, 0)" xlink:href="#linear-gradient"/><linearGradient id="linear-gradient-20" x1="108.54" y1="89.16" x2="117.46" y2="74.61" gradientTransform="matrix(-1, 0, 0, 1, 347.86, 0)" xlink:href="#linear-gradient"/><linearGradient id="linear-gradient-21" x1="103.64" y1="81.31" x2="104.33" y2="81.31" gradientTransform="matrix(-1, 0, 0, 1, 347.86, 0)" xlink:href="#linear-gradient"/><linearGradient id="linear-gradient-22" x1="103.92" y1="79.23" x2="105.62" y2="79.23" gradientTransform="matrix(-1, 0, 0, 1, 347.86, 0)" xlink:href="#linear-gradient"/><linearGradient id="linear-gradient-23" x1="103.93" y1="80.23" x2="105.85" y2="80.23" gradientTransform="matrix(-1, 0, 0, 1, 347.86, 0)" xlink:href="#linear-gradient"/><linearGradient id="linear-gradient-24" x1="103.76" y1="81" x2="105.78" y2="81" gradientTransform="matrix(-1, 0, 0, 1, 347.86, 0)" xlink:href="#linear-gradient"/><linearGradient id="linear-gradient-25" x1="103.87" y1="81.88" x2="105.32" y2="81.88" gradientTransform="matrix(-1, 0, 0, 1, 347.86, 0)" xlink:href="#linear-gradient"/><linearGradient id="linear-gradient-26" x1="132.31" y1="61.83" x2="135.43" y2="51.9" gradientTransform="matrix(-0.99, 0.13, 0.13, 0.99, 345.4, -5.78)" xlink:href="#linear-gradient"/><linearGradient id="linear-gradient-27" x1="133.74" y1="61.24" x2="138.78" y2="53.02" gradientTransform="matrix(-0.99, 0.13, 0.13, 0.99, 345.4, -5.78)" xlink:href="#linear-gradient"/><linearGradient id="linear-gradient-28" x1="109.48" y1="122.12" x2="125.64" y2="122.12" gradientTransform="matrix(-0.95, -0.31, -0.31, 0.95, 365.39, 16.72)" xlink:href="#linear-gradient"/><linearGradient id="linear-gradient-29" x1="110.3" y1="137.53" x2="129.73" y2="105.85" gradientTransform="matrix(-0.95, -0.31, -0.31, 0.95, 365.39, 16.72)" xlink:href="#linear-gradient"/><linearGradient id="linear-gradient-30" x1="262.51" y1="86.43" x2="261" y2="87.49" gradientTransform="matrix(-1, 0, 0, 1, 347.86, 0)" xlink:href="#linear-gradient"/><linearGradient id="linear-gradient-31" x1="235.79" y1="114.1" x2="287.66" y2="114.1" gradientTransform="matrix(-1, 0, 0, 1, 347.86, 0)" gradientUnits="userSpaceOnUse"><stop offset="0" stop-color="#34239b"/><stop offset="0.99" stop-color="#3d2386"/></linearGradient><linearGradient id="linear-gradient-32" x1="325.12" y1="-51.8" x2="332.3" y2="-51.8" gradientTransform="matrix(0.5, -0.87, -0.87, -0.5, -118.16, 346.79)" gradientUnits="userSpaceOnUse"><stop offset="0" stop-color="#dadae8"/><stop offset="0.54" stop-color="#bdbdd1"/><stop offset="1" stop-color="#84849b"/></linearGradient><linearGradient id="linear-gradient-33" x1="261.97" y1="85.61" x2="260.46" y2="86.66" gradientTransform="matrix(-1, 0, 0, 1, 347.86, 0)" xlink:href="#linear-gradient"/><linearGradient id="linear-gradient-34" x1="262.01" y1="86.19" x2="260.43" y2="87.3" gradientTransform="matrix(-1, 0, 0, 1, 347.86, 0)" xlink:href="#linear-gradient"/><linearGradient id="linear-gradient-35" x1="261.96" y1="86.87" x2="260.77" y2="87.71" gradientTransform="matrix(-1, 0, 0, 1, 347.86, 0)" xlink:href="#linear-gradient"/><linearGradient id="linear-gradient-36" x1="261.93" y1="87.38" x2="261.1" y2="87.96" gradientTransform="matrix(-1, 0, 0, 1, 347.86, 0)" xlink:href="#linear-gradient"/><linearGradient id="linear-gradient-37" x1="254.58" y1="90.77" x2="248.35" y2="95.13" gradientTransform="matrix(-1, 0, 0, 1, 347.86, 0)" xlink:href="#linear-gradient"/><linearGradient id="linear-gradient-38" x1="250.33" y1="93.93" x2="253.94" y2="93.93" gradientTransform="matrix(-1, 0, 0, 1, 347.86, 0)" xlink:href="#linear-gradient"/><linearGradient id="linear-gradient-39" x1="235.63" y1="75.58" x2="247.75" y2="75.58" gradientTransform="matrix(-1, -0.03, -0.03, 1, 348.85, 8.47)" xlink:href="#linear-gradient"/><linearGradient id="linear-gradient-40" x1="238.03" y1="75.71" x2="240.74" y2="75.71" gradientTransform="matrix(-1, -0.03, -0.03, 1, 348.85, 8.47)" xlink:href="#linear-gradient"/><linearGradient id="linear-gradient-41" x1="242.95" y1="85.54" x2="240.68" y2="77.88" gradientTransform="matrix(-1, -0.03, -0.03, 1, 348.85, 8.47)" xlink:href="#linear-gradient"/><linearGradient id="linear-gradient-42" x1="239.47" y1="79.72" x2="243.06" y2="79.72" gradientTransform="matrix(-1, -0.03, -0.03, 1, 348.85, 8.47)" xlink:href="#linear-gradient"/><linearGradient id="linear-gradient-43" x1="235.79" y1="117.2" x2="267.27" y2="117.2" xlink:href="#linear-gradient-31"/><linearGradient id="linear-gradient-44" x1="246.3" y1="111.68" x2="285.3" y2="111.68" xlink:href="#linear-gradient-31"/></defs><title>basic-building</title><g class="cls-1"><g id="Layer_1" data-name="Layer 1"><g class="cls-1"><polygon class="cls-2" points="101.46 24.35 101.23 103.96 110 109.02 110.22 29.41 101.46 24.35"/><polygon class="cls-3" points="110 109.02 150.78 85.39 150.78 6.06 110.22 29.41 110 109.02"/><polygon class="cls-4" points="110.22 29.41 150.78 6.06 149.86 5.4 148.88 6.06 141.91 2.05 141.89 1.04 101.46 24.35 110.22 29.41"/><polygon class="cls-5" points="103.67 24.34 110.64 28.34 148.88 6.06 141.91 2.05 103.67 24.34"/></g><polygon class="cls-3" points="103.46 100.74 107.99 103.35 107.99 35.59 103.46 32.98 103.46 100.74"/><polygon class="cls-6" points="115.24 57.21 115.38 109.28 145.88 91.68 145.72 39.6 115.24 57.21"/><polygon class="cls-7" points="113.12 57.35 113.26 109.43 126.15 116.92 126.01 64.84 113.12 57.35"/><g class="cls-1"><path class="cls-5" d="M145.67,40.64l-29.72,17.1,10.47,6.08,29.7-17.1a19.12,19.12,0,0,1-6-2.51C146.41,42,145.67,40.64,145.67,40.64Z"/></g><polygon class="cls-8" points="157.68 46.55 156.67 45.97 126.19 63.57 115.24 57.21 145.72 39.6 144.79 39.06 113.12 57.35 126.01 64.84 157.68 46.55"/><polygon class="cls-8" points="126.01 64.84 126.15 116.92 157.83 98.63 157.68 46.55 126.01 64.84"/><polygon class="cls-7" points="127.69 114.24 156.28 97.74 156.15 49.23 127.55 65.73 127.69 114.24"/><polygon class="cls-8" points="129.74 110.68 154.22 96.55 154.09 52.79 129.62 66.92 129.74 110.68"/><path class="cls-9" d="M220.73,136.39c-3.16,1.83-3.16,4.79,0,6.61a12.64,12.64,0,0,0,11.45,0c3.16-1.82,3.16-4.78,0-6.61A12.66,12.66,0,0,0,220.73,136.39Z"/><path class="cls-10" d="M219.32,138.47c.24.73,5.36,4.32,6,3.48.27-.37-.13-1.47-.88-2.62a14.9,14.9,0,0,0-4.07-3.46,3.29,3.29,0,0,0-1,1.78A1.68,1.68,0,0,0,219.32,138.47Z"/><path class="cls-10" d="M226.88,140.63c4.55,2.78,5.4,2.45,6,1.87a1.35,1.35,0,0,0-.37-1.88c-.86-.84-3-2.51-3-2.51-1.82-1.46-3-.79-3.66-.17l-.16.17C225.12,138.77,225.76,140,226.88,140.63Z"/><polygon class="cls-11" points="185.74 146.8 130.49 114.69 167.9 93.09 223.15 125.2 185.74 146.8"/><polygon class="cls-12" points="184.29 148.96 129.04 116.85 128.98 98.56 184.23 130.67 184.29 148.96"/><g class="cls-1"><path class="cls-5" d="M222,124.63l-36.4,21.09,0-14.85L222,109.78a23.55,23.55,0,0,0-1,7.94C221,123,222,124.63,222,124.63Z"/></g><polygon class="cls-12" points="223.11 108.23 223.11 109.67 185.69 131.26 185.74 146.8 223.15 125.2 223.16 126.52 184.29 148.96 184.23 130.67 223.11 108.23"/><polygon class="cls-11" points="184.23 130.67 128.98 98.56 167.85 76.12 223.11 108.23 184.23 130.67"/><polygon class="cls-13" points="132.77 98.57 167.85 78.31 219.32 108.22 184.24 128.48 132.77 98.57"/><polygon class="cls-14" points="137.81 98.57 167.85 81.23 214.28 108.22 184.24 125.56 137.81 98.57"/><g class="cls-1"><polygon class="cls-15" points="185.72 129.59 126.22 95.47 126.22 86.75 185.72 120.87 185.72 129.59"/><polygon class="cls-16" points="126.22 86.75 168.23 62.99 227.42 97.17 185.72 120.87 126.22 86.75"/><polygon class="cls-17" points="185.72 120.87 227.42 97.15 227.42 98.17 226.44 98.75 226.45 105.27 227.42 104.79 227.42 105.87 185.72 129.59 185.72 120.87"/><polygon class="cls-18" points="186.68 127.94 186.68 126.44 186.67 121.42 226.44 98.75 226.45 105.27 186.68 127.94"/><polygon class="cls-5" points="186.68 127.94 186.67 121.42 226.44 98.75 226.45 105.27 186.68 127.94"/></g><polygon class="cls-18" points="227.42 104.79 226.45 104.19 226.45 105.27 227.42 104.79"/><polygon class="cls-19" points="136.66 88.56 146.5 94.32 179.64 75.15 169.58 69.33 136.66 88.56"/><path class="cls-19" d="M186,109.94a.29.29,0,0,1-.14,0L155.83,92.45a.28.28,0,0,1,0-.48l20.23-11.7a.29.29,0,0,1,.28,0l30,17.44a.28.28,0,0,1,0,.49L186.18,109.9A.29.29,0,0,1,186,109.94ZM156.53,92.21,186,109.33,205.62,98,176.2,80.84Z"/><g class="cls-1"><polygon class="cls-20" points="192.22 121.27 135.47 88.72 135.55 78.48 192.3 111.03 192.22 121.27"/><polygon class="cls-3" points="135.55 78.48 174.74 55.41 231.49 87.96 192.3 111.03 135.55 78.48"/><polygon class="cls-21" points="192.23 121.27 192.29 111.02 231.52 87.95 231.51 89.34 230.68 89.8 230.63 97.92 231.46 97.49 231.45 98.64 192.23 121.27"/><polygon class="cls-22" points="193.15 119.68 193.16 117.98 193.21 111.55 230.68 89.8 230.63 97.92 193.15 119.68"/><polygon class="cls-5" points="193.15 119.63 193.21 111.5 230.68 89.75 230.63 97.87 193.15 119.63"/></g><polygon class="cls-23" points="187.13 118.04 187.2 108.59 190.8 110.67 190.73 120.12 187.13 118.04"/><polygon class="cls-23" points="180.93 114.46 181 105.02 184.6 107.09 184.53 116.54 180.93 114.46"/><polygon class="cls-23" points="174.74 110.89 174.8 101.44 178.4 103.51 178.33 112.96 174.74 110.89"/><polygon class="cls-23" points="168.54 107.31 168.61 97.86 172.2 99.94 172.14 109.38 168.54 107.31"/><polygon class="cls-23" points="162.34 103.73 162.41 94.28 166.01 96.36 165.94 105.81 162.34 103.73"/><polygon class="cls-23" points="156.15 100.15 156.21 90.7 159.81 92.78 159.74 102.23 156.15 100.15"/><polygon class="cls-23" points="167.04 93.94 170.5 96 206.19 75.44 202.66 73.38 167.04 93.94"/><polygon class="cls-23" points="174.31 98.06 177.76 100.11 213.45 79.55 209.93 77.49 174.31 98.06"/><polygon class="cls-23" points="181.49 102.09 184.94 104.14 220.64 83.58 217.11 81.52 181.49 102.09"/><polygon class="cls-23" points="189.05 106.76 192.51 108.82 228.2 88.26 224.67 86.2 189.05 106.76"/><path class="cls-9" d="M212.16,94.63c-1.3.88-2.75,2.55-.52,5l0,1.18-.48.28.41,7.85,1,.6s.28,2,.53,3.35l1,.55.17,1.4s.78,3.6,1.85,6.75,2,5.31,2,5.31l.67.84-.14,1.41.67,9s-.18-.69.75-1.81l.94-3.71,1.06-1.94-1.37-8.1-3.7-15.4-3-9.89Z"/><path class="cls-24" d="M151.71,119.83c-.43.24-4.23,2.7-3.37,3.94s5.31-1.1,6.17-1.87C156.16,120.41,154.26,118.39,151.71,119.83Z"/><path class="cls-24" d="M144.8,98.06c-.22.82-4,2.64-4.37,2.86s-3,.76-3.31-.23,1.44-2.61,2.94-3.54a6.05,6.05,0,0,1,3.3-1.18C143.82,96.1,145.24,96.35,144.8,98.06Z"/><path class="cls-25" d="M158,61.52a7.11,7.11,0,0,0-.45,1.16,9.82,9.82,0,0,1,.46-1.15Z"/><path class="cls-26" d="M157.16,64.19a15.42,15.42,0,0,1,.37-1.51A9,9,0,0,0,157.16,64.19Z"/><path class="cls-27" d="M158,61.53a9.82,9.82,0,0,0-.46,1.15,15.42,15.42,0,0,0-.37,1.51,8,8,0,0,0,.65,4.6c1,2.17.83,1.77.73,5.28,0,.12,0,.24,0,.37a9.86,9.86,0,0,0,2.06-5.24C160.93,65.54,158.07,61.65,158,61.53Z"/><g class="cls-28"><path class="cls-29" d="M150.38,87l-2.21-1.26-1-.44s5.67-2.8,10.62-2.13,12.56,6.91,12.56,6.91c.64.52,1.32,1.3.15,2.11s-5.59,3.16-5.59,3.16l-10.31-5.92,1.1-1.17A23,23,0,0,0,150.52,87Z"/><path class="cls-29" d="M157.26,120.5,157.2,115l1.53-.81v-8.81l2.71-1.72V93.39l3.48,1.95v10.29l-3,1.58v8.55l-1.54,1a43.91,43.91,0,0,1-.53,4.49,4.41,4.41,0,0,1-1.58,2c-1.31,1-3.18.61-3.27,0S157.26,120.5,157.26,120.5Z"/><path class="cls-29" d="M146,94.72l1.18-9.44L150.38,87s.89,2.44-1.78,9.26L145.76,98l-2.26-1.41Z"/></g><path class="cls-12" d="M172.26,69.79a5.84,5.84,0,0,0,.54-2.4,5.38,5.38,0,0,0-.95-3.16l-4.27-2.39s-6.13-3.23-6.37-3.4a1.33,1.33,0,0,0-1.11.2h0l0,0-.29.19a10.6,10.6,0,0,1-.91,3.24,10.36,10.36,0,0,0-1.31,2.77,6.57,6.57,0,0,0,.28,3.92c1,2.17.83,1.77.73,5.28,0,.12,0,.24,0,.37a16.68,16.68,0,0,1-1.47,5.93l.13.18c3.18,4.49,9.63,6.16,11.8,6.61.46.1.73.14.73.14l1.21-.46.23-.09s-2.12-9.89-1.36-11.93C170.31,73.44,171.54,71.56,172.26,69.79Z"/><path class="cls-30" d="M171.17,86.74l-.23.09-1.21.46s-.27,0-.73-.14a16.27,16.27,0,0,0,.38-3.14c0-1.47-.68-7.24-1-10.42a11.32,11.32,0,0,1-.09-3.37c.15-.85.69-3.12,1.48-3.23.6-.09,1.52,1,2.48,2.8-.72,1.76-1.94,3.65-2.45,5C169.05,76.85,171.17,86.74,171.17,86.74Z"/><path class="cls-5" d="M169.83,91.27c-1.6,1-14.72,7.46-14.91,8.55-.09.58.49,2.21,1,6.29.42,3.55-.19,8.73-1.63,14.82l-.79-.43-1.75-.94s-2.59-15.71-2.7-19.31,1.18-5.08,2.68-6.24c.56-.44,4.65-4.55,5.67-5.57l.23-.22s-3-1.62-4.2-2.16c-3.5-1.54-8.27-4.16-8.9-3.84-.28.14.85,1.49.86,3.71,0,4.63-.76,11.91-.76,11.91l-.76-.3-2.51-1s-3.21-17.59-2.36-20.33,5.61-1.23,7.93,0c.94.49,9.49,4,9.49,4l.83.38c3.48,4.91,10.85,6.45,12.29,6.71l.24,0,1.21-.46.16-.09S171.44,90.27,169.83,91.27Z"/><path class="cls-31" d="M148.27,77.34c.06-.13-.61.26-.7.07s1.08-1,1.08-1h0s5.78-2.9,6.95-4.1c.88-.9.94-5,1.55-8.14a8,8,0,0,0,.65,4.59c.18.4.33.71.44,1,.5,1.18.37,1.44.29,4.31,0,.12,0,.24,0,.37a8.32,8.32,0,0,1-2.12,1.9c-1.75,1.05-5.26,1.33-5.26,1.33a7.88,7.88,0,0,0-.67.9c-.2.35-.42.48-.52.43-.26-.12.08-.7,0-.86s-.44.11-.71.53-.68.94-.89.85.46-1.26.46-1.37-.89,1.65-1.19,1.37.64-1.42.73-1.64-.63.82-.91.66S148.21,77.48,148.27,77.34Z"/><path class="cls-32" d="M158.54,74.07c0,.12,0,.24,0,.37a8.32,8.32,0,0,1-2.12,1.9c-1.75,1.05-5.26,1.33-5.26,1.33l-.27-.13c5-1.08,6.73-3.73,7.1-4.43a12.54,12.54,0,0,0,.27-3.34C158.75,70.94,158.62,71.2,158.54,74.07Z"/><g class="cls-1"><polygon class="cls-33" points="157.27 84.33 157.27 85.16 162.74 81.97 162.79 81.16 157.27 84.33"/></g><path class="cls-34" d="M154.59,82.39a2.73,2.73,0,0,0-.63-.19,2.12,2.12,0,0,0-1.13,0l5.34-3.08a6.84,6.84,0,0,1,2.78.48,5.51,5.51,0,0,1,1.84,1.52l-5.52,3.17A10.23,10.23,0,0,0,154.59,82.39Z"/><path class="cls-35" d="M152.87,82.61l0-.37a2.58,2.58,0,0,1,1.13,0,2.73,2.73,0,0,1,.63.19,10.23,10.23,0,0,1,2.68,1.94v.83Z"/><path class="cls-36" d="M162.53,80.61a13.34,13.34,0,0,0-2.16-1.36,2.94,2.94,0,0,0-2.2-.09l-5.34,3.08a3.55,3.55,0,0,1,2.29.32,5.71,5.71,0,0,1,1.94,1.21Z"/><path class="cls-37" d="M152.83,82.24a10.37,10.37,0,0,0-2.25-2.51,2.9,2.9,0,0,0-1.84-.71l5.49-3.17A5.36,5.36,0,0,1,156.18,77,20.19,20.19,0,0,1,158,79.26Z"/><path class="cls-38" d="M156.41,82.85l5.29-3.06s-1.79-1.52-3.52-.64l-5.36,3.09A4.43,4.43,0,0,1,156.41,82.85Z"/><path class="cls-39" d="M148.6,79.39l.4-.23a3.35,3.35,0,0,1,2,1,11.28,11.28,0,0,1,1.86,2.09,17.37,17.37,0,0,0-2.69-2.42A2.22,2.22,0,0,0,148.6,79.39Z"/><path class="cls-40" d="M148.6,80.15v-.76a2.22,2.22,0,0,1,1.54.43,17.37,17.37,0,0,1,2.69,2.42l0,.37Z"/><path class="cls-41" d="M151,80.15a3.35,3.35,0,0,0-2-1h-.25l.2-.11s.76-.18,2.15,1a7.28,7.28,0,0,1,1.35,1.48,5.43,5.43,0,0,1,.39.72A11.28,11.28,0,0,0,151,80.15Z"/><path class="cls-35" d="M152.44,81.52a6.67,6.67,0,0,0-3.1-2.7l5.44-3.14s3.19,2,3.21,3.58l-5.16,3A3.55,3.55,0,0,0,152.44,81.52Z"/><path class="cls-35" d="M152.44,81.52a3.55,3.55,0,0,1,.39.72A5.43,5.43,0,0,0,152.44,81.52Z"/><g class="cls-1"><polygon class="cls-42" points="157.27 85.28 157.38 85.22 148.48 80.08 148.37 80.15 157.27 85.28"/><polygon class="cls-43" points="157.27 85.28 157.27 85.39 157.38 85.33 157.38 85.22 157.27 85.28"/><polygon class="cls-44" points="148.37 80.15 148.37 80.26 157.27 85.39 157.27 85.28 148.37 80.15"/></g><polygon class="cls-42" points="157.38 85.22 157.38 85.22 162.91 82.03 162.75 81.93 162.74 81.97 157.27 85.16 157.38 85.22"/><path class="cls-43" d="M157.35,85.24,162.91,82v.1l-.75.44-4.79,2.76Z"/><polygon class="cls-42" points="148.45 80.1 148.6 80.02 148.6 80.16 148.45 80.1"/><polygon class="cls-40" points="152.33 82.28 152.34 82.38 153.11 82.83 153.13 82.73 152.33 82.28"/><polygon class="cls-42" points="152.34 82.44 152.34 82.5 153.1 82.94 153.11 82.88 152.34 82.44"/><polygon class="cls-44" points="152.35 82.54 152.35 82.61 153.11 83.05 153.12 82.99 152.35 82.54"/><path class="cls-45" d="M152.79,81.06a6,6,0,0,0-1.38-1.59,5.84,5.84,0,0,0-1.3-.84h0a6.2,6.2,0,0,1,3,3.17h0A4.06,4.06,0,0,0,152.79,81.06Z"/><path class="cls-45" d="M153,80.93a6,6,0,0,0-1.38-1.59,5.85,5.85,0,0,0-1.3-.84h0a6.23,6.23,0,0,1,3,3.17h0A4.32,4.32,0,0,0,153,80.93Z"/><path class="cls-45" d="M153.27,80.78a6,6,0,0,0-1.38-1.59,5.81,5.81,0,0,0-1.3-.84h0a6.19,6.19,0,0,1,3,3.17h0A4.2,4.2,0,0,0,153.27,80.78Z"/><path class="cls-45" d="M153.52,80.63A6,6,0,0,0,152.13,79a5.68,5.68,0,0,0-1.3-.84h0a6.2,6.2,0,0,1,3,3.17h0A4.07,4.07,0,0,0,153.52,80.63Z"/><path class="cls-45" d="M153.77,80.48a6.66,6.66,0,0,0-2.68-2.43h0a6.22,6.22,0,0,1,3,3.17h0s0,0,0,0A4.17,4.17,0,0,0,153.77,80.48Z"/><path class="cls-45" d="M154,80.33a6.58,6.58,0,0,0-2.68-2.43h0a6.23,6.23,0,0,1,3,3.17h0A3.87,3.87,0,0,0,154,80.33Z"/><path class="cls-45" d="M154.27,80.18a6,6,0,0,0-1.38-1.59,5.72,5.72,0,0,0-1.3-.84h0a6.21,6.21,0,0,1,3,3.17h0s0,0,0,0A3.86,3.86,0,0,0,154.27,80.18Z"/><path class="cls-45" d="M154.53,80a6,6,0,0,0-1.38-1.59,5.87,5.87,0,0,0-1.3-.84h0s0,0,0,0a6.23,6.23,0,0,1,3,3.17h0A4.46,4.46,0,0,0,154.53,80Z"/><path class="cls-45" d="M154.78,79.87a6.06,6.06,0,0,0-1.39-1.59,5.84,5.84,0,0,0-1.3-.84h0s0,0,0,0a6.24,6.24,0,0,1,3,3.17h0a0,0,0,0,0,0,0A4.26,4.26,0,0,0,154.78,79.87Z"/><path class="cls-45" d="M155,79.72a6,6,0,0,0-1.39-1.59,5.59,5.59,0,0,0-1.3-.84h0a6.24,6.24,0,0,1,3,3.17h0A4.17,4.17,0,0,0,155,79.72Z"/><path class="cls-45" d="M155.29,79.57A6.17,6.17,0,0,0,153.9,78a5.72,5.72,0,0,0-1.3-.84h0a0,0,0,0,0,0,0,6.18,6.18,0,0,1,3,3.17h0A4.33,4.33,0,0,0,155.29,79.57Z"/><path class="cls-45" d="M155.54,79.42a6.06,6.06,0,0,0-1.38-1.59,5.67,5.67,0,0,0-1.3-.84h0a6.22,6.22,0,0,1,3,3.17h0A4.32,4.32,0,0,0,155.54,79.42Z"/><path class="cls-45" d="M155.79,79.27a5.94,5.94,0,0,0-1.38-1.59,5.64,5.64,0,0,0-1.3-.84h0a6.21,6.21,0,0,1,3,3.18h0A4,4,0,0,0,155.79,79.27Z"/><path class="cls-45" d="M156,79.12a6.05,6.05,0,0,0-1.38-1.58,6,6,0,0,0-1.3-.84h0a6.22,6.22,0,0,1,3,3.18h0A4.23,4.23,0,0,0,156,79.12Z"/><path class="cls-45" d="M156.29,79a6,6,0,0,0-1.38-1.58,5.8,5.8,0,0,0-1.3-.84h0a6.25,6.25,0,0,1,3,3.17h0a0,0,0,0,0,0,0A4.05,4.05,0,0,0,156.29,79Z"/><path class="cls-45" d="M156.55,78.82a6,6,0,0,0-1.38-1.59,5.64,5.64,0,0,0-1.3-.84h0s0,0,0,0a6.22,6.22,0,0,1,3,3.17h0A4.41,4.41,0,0,0,156.55,78.82Z"/><path class="cls-45" d="M156.8,78.67a6,6,0,0,0-1.38-1.59,5.69,5.69,0,0,0-1.3-.84h0a6.21,6.21,0,0,1,3,3.17h0A3.84,3.84,0,0,0,156.8,78.67Z"/><path class="cls-45" d="M157.05,78.52a6,6,0,0,0-1.38-1.59,5.66,5.66,0,0,0-1.3-.84h0a0,0,0,0,0,0,0,6.21,6.21,0,0,1,3,3.17h0A3.82,3.82,0,0,0,157.05,78.52Z"/><path class="cls-45" d="M156.46,82.44h0a3.23,3.23,0,0,0-2-.72,4.7,4.7,0,0,0-.77,0l0,0a4.66,4.66,0,0,1,.81,0,3.2,3.2,0,0,1,2,.71Z"/><path class="cls-45" d="M156.73,82.31h0a2.89,2.89,0,0,0-1.92-.8,4,4,0,0,0-.75,0l0,0a4.05,4.05,0,0,1,.79,0,2.89,2.89,0,0,1,1.9.8Z"/><path class="cls-45" d="M157.07,82.12h0a2.87,2.87,0,0,0-1.92-.8,4,4,0,0,0-.75,0l0,0a4.61,4.61,0,0,1,.79,0,2.89,2.89,0,0,1,1.9.8Z"/><path class="cls-45" d="M157.4,81.93h0a2.9,2.9,0,0,0-1.92-.8,4.07,4.07,0,0,0-.76,0l0,0a3.79,3.79,0,0,1,.79,0,2.86,2.86,0,0,1,1.9.8Z"/><path class="cls-45" d="M157.74,81.74s0,0,0,0h0a2.92,2.92,0,0,0-1.92-.81,4.43,4.43,0,0,0-.75,0l0,0a4.48,4.48,0,0,1,.79,0,2.89,2.89,0,0,1,1.9.8Z"/><path class="cls-45" d="M158.07,81.54h0a2.88,2.88,0,0,0-1.92-.8,4,4,0,0,0-.75,0l0,0a4.48,4.48,0,0,1,.79,0,2.86,2.86,0,0,1,1.9.8Z"/><path class="cls-45" d="M158.4,81.35h0a2.9,2.9,0,0,0-1.92-.8,4.07,4.07,0,0,0-.75,0l0,0a4.31,4.31,0,0,1,.79,0,2.89,2.89,0,0,1,1.91.8Z"/><path class="cls-45" d="M158.74,81.16h0a2.92,2.92,0,0,0-1.92-.8,4.54,4.54,0,0,0-.76,0l0,0a4.18,4.18,0,0,1,.79,0,2.86,2.86,0,0,1,1.9.8Z"/><path class="cls-45" d="M159.07,81h0a2.88,2.88,0,0,0-1.92-.81,4,4,0,0,0-.76,0l0,0a4.47,4.47,0,0,1,.8,0,2.9,2.9,0,0,1,1.9.8Z"/><path class="cls-45" d="M159.41,80.77h0a2.88,2.88,0,0,0-1.92-.8,4,4,0,0,0-.75,0l0,0a4.08,4.08,0,0,1,.79,0,2.83,2.83,0,0,1,1.9.8Z"/><path class="cls-45" d="M159.74,80.57h0a2.9,2.9,0,0,0-1.92-.8,4.19,4.19,0,0,0-.75,0l0,0a4.13,4.13,0,0,1,.79,0,2.92,2.92,0,0,1,1.91.79Z"/><path class="cls-45" d="M160.08,80.38h0a2.91,2.91,0,0,0-1.92-.8,4.36,4.36,0,0,0-.76,0l0,0a4,4,0,0,1,.79,0,2.87,2.87,0,0,1,1.91.8Z"/><path class="cls-45" d="M160.41,80.19h0a2.89,2.89,0,0,0-1.92-.8,4.23,4.23,0,0,0-.75,0l0,0a4.18,4.18,0,0,1,.79,0,2.87,2.87,0,0,1,1.91.79Z"/><path class="cls-45" d="M160.73,80h0a2.89,2.89,0,0,0-1.92-.8,4.41,4.41,0,0,0-.72,0l0,0a4.37,4.37,0,0,1,.75,0,2.87,2.87,0,0,1,1.9.8Z"/><path class="cls-46" d="M151.71,119.52a2.52,2.52,0,0,0,1,1.82c.78.45,1.51-.41,1.51-.41Z"/><path class="cls-47" d="M141.31,96.54a1.63,1.63,0,0,0,1.19,1.81,2.11,2.11,0,0,0,2.08-.51Z"/><path class="cls-48" d="M159.92,83.86a1.72,1.72,0,0,0,.9.65,5.1,5.1,0,0,0,.53.18,3.45,3.45,0,0,0,2.3-.3,11.52,11.52,0,0,0,5.79-1.16l.47-.22a6.78,6.78,0,0,0,4-5.72,38,38,0,0,0-.17-8.22h0c0-.32-.1-.63-.15-.93-.34-1.73-.89-3.21-1.79-3.89-2-1.52-3,1.93-2.89,6.25,0,.33,0,.64,0,1a22.52,22.52,0,0,0,.93,5.85,13.07,13.07,0,0,1-8.15,5.2c-.59-.26-1.52-.73-1.64-.49s.23.41.55.63h-.07l.7.41h0Z"/><path class="cls-49" d="M158.23,87.84a5.2,5.2,0,0,1-.86.59l.23-.22s-3-1.62-4.2-2.16c-3.5-1.54-8.27-4.16-8.9-3.84-.28.14.85,1.49.86,3.71,0,4.63-.76,11.91-.76,11.91l-.76-.3a37.56,37.56,0,0,0,.52-6.24,66.64,66.64,0,0,0-.58-9.57c-.4-1.7,2.7-.31,4.09.23S158.36,87.66,158.23,87.84Z"/><path class="cls-49" d="M169.83,91.27c-1.6,1-14.72,7.46-14.91,8.55-.09.58.49,2.21,1,6.29.42,3.55-.19,8.73-1.63,14.82l-.79-.43c.06-.64.17-1.16.17-1.16a123.5,123.5,0,0,0,1-13.23,62.42,62.42,0,0,0-1-7.31c.09-.5,1.72-1.32,1.72-1.32,12.27-7,12.3-6.92,13.6-7.94a2.42,2.42,0,0,0,.51-2.29l.24,0,1.21-.46.16-.09S171.44,90.27,169.83,91.27Z"/><path class="cls-50" d="M160.82,84.51a5.1,5.1,0,0,0,.53.18,3.45,3.45,0,0,0,2.3-.3,11.52,11.52,0,0,0,5.79-1.16l.47-.22a6.78,6.78,0,0,0,4-5.72,38,38,0,0,0-.17-8.22h0c0-.32-.1-.63-.15-.93l-.66.75s.71,5.61.41,7.22S173.12,80,171.75,81A20.63,20.63,0,0,1,160.82,84.51Z"/><path class="cls-12" d="M173.79,69.05h0a9.58,9.58,0,0,1-.83.51,40.07,40.07,0,0,1-4,1.86c0-.3,0-.62,0-.95-.07-3.64.58-6.64,2-6.62a1.58,1.58,0,0,1,.9.37C172.9,65,173.48,66.93,173.79,69.05Z"/><path class="cls-51" d="M173.79,69.05h0a9.58,9.58,0,0,1-.83.51,6.69,6.69,0,0,0-.4-3c-.57-1.46-1.45-2-1.62-2.72a1.58,1.58,0,0,1,.9.37C172.9,65,173.48,66.93,173.79,69.05Z"/><path class="cls-52" d="M167.36,56.1c-.23-1.63-1.12-.43-1.12-.43a7.66,7.66,0,0,1-3.68-.13c-1.77-.74-2.26-1.42-2.38-1.67a8.53,8.53,0,0,0,0,1.3c.14,2.56.51,5.06,2.23,6a1.5,1.5,0,0,0,.57.17,4.4,4.4,0,0,0,3.57-1.6,3.72,3.72,0,0,0,.59-1l-.36-1.15A1.9,1.9,0,0,0,167.36,56.1Z"/><path class="cls-53" d="M168.24,51.68a2.09,2.09,0,0,1-1.63-.14A3.25,3.25,0,0,1,164.87,50a1.43,1.43,0,0,1,.53-1.2,1.94,1.94,0,0,1,2.17-.31,3.93,3.93,0,0,1,.46.24A1.93,1.93,0,0,1,168.24,51.68Z"/><path class="cls-54" d="M168.24,51.68a2.09,2.09,0,0,1-1.63-.14c.51-.35,1.31-1,1.3-1.83a2.18,2.18,0,0,0-.34-1.17,3.93,3.93,0,0,1,.46.24A1.93,1.93,0,0,1,168.24,51.68Z"/><path class="cls-55" d="M166.74,63.37c-1,1-3.46.6-3.79-.57a2.71,2.71,0,0,1-.07-1.12,2.82,2.82,0,0,1,.06-.32,4.4,4.4,0,0,0,3.57-1.6,9.21,9.21,0,0,1,.54,2A1.91,1.91,0,0,1,166.74,63.37Z"/><path class="cls-56" d="M167.05,61.75a5.29,5.29,0,0,1-2.08.55,5.17,5.17,0,0,1-2.09-.62,2.82,2.82,0,0,1,.06-.32,4.4,4.4,0,0,0,3.57-1.6A9.21,9.21,0,0,1,167.05,61.75Z"/><path class="cls-57" d="M168.72,56.93a3.47,3.47,0,0,1-1.61,1.86l-.36-1.15a1.91,1.91,0,0,0,.62-1.54,1.82,1.82,0,0,0-.18-.63c-.35-.61-.94.2-.94.2a7.63,7.63,0,0,1-3.68-.13c-1.78-.74-2.26-1.42-2.39-1.67a.61.61,0,0,1,0-.11,2.65,2.65,0,0,1,.66-2.85c1.32-1.55,4.91-1.55,6.75-.32a2.81,2.81,0,0,1,.73.67C169.6,53,168.92,56,168.72,56.93Z"/><path class="cls-58" d="M168.72,56.93a3.47,3.47,0,0,1-1.61,1.86l-.36-1.15a1.91,1.91,0,0,0,.62-1.54,1.82,1.82,0,0,0-.18-.63,4.42,4.42,0,0,0,1.35-1.5c.37-.55.05-1.82-.25-2.7C169.6,53,168.92,56,168.72,56.93Z"/><path class="cls-59" d="M225.55,124.38a20.75,20.75,0,0,0-3.17,4.1c-1,2-2.36,7.83-2.36,7.83l2.72,1.81,4.41-8.52Z"/><path class="cls-60" d="M229.39,79.22V85.9c.77,1.42,1.74,2.8,2.72,3.07,4,1.11,11.63-5.58,11.63-5.58l-.37-.28-1.64-1.27s-5.19,2.92-6.62,2.92a2.31,2.31,0,0,1-2.14-.87,57.06,57.06,0,0,1-1.87-5.56,5.79,5.79,0,0,1-1.68.9Z"/><path class="cls-11" d="M229.4,72.82a41.93,41.93,0,0,1,1.69,5.49h0a5.69,5.69,0,0,1-1.7.91v-.75s-.07-1-.17-2.2-.22-2.52-.33-3.21a4.57,4.57,0,0,0-2.66-2.76A4.09,4.09,0,0,1,229.4,72.82Z"/><path class="cls-61" d="M225.13,122.72l0-.14c0,.19.06.37.09.52.17.95.94,3.76,1.77,6.65l-.1.17Z"/><path class="cls-61" d="M213.8,101.66c.27,2.36,4.58,17.36,5.52,19.61s.77,6.72,1.74,9.84,5.38,8.59,5.38,8.59l.55-.38,2.34-1.63c0-.07-1.2-4.08-2.3-7.94l-.1.17-1.81-7.2,0-.14c0-.17-.06-.36-.1-.56-.85-5-2.95-19-2.7-20.15,0-.14.11-.09.22.12v0c.87,1.66,3.79,12.33,3.8,14.06a27.61,27.61,0,0,1-1.22,6.47l0,.05c0,.19.07.37.09.52.06.34.19.89.38,1.6.34,1.32.86,3.17,1.4,5.05.67-1.13,4.68-7.95,5.25-11.67.62-4.06-.33-10.18-1.61-15.78a50.79,50.79,0,0,1-1.32-10.38c-.2.1-1.66.82-5.78,3.34a29.82,29.82,0,0,1-8.07,3.26c-1,.24-1.57.35-1.57.35l0-.05A11,11,0,0,0,213.8,101.66Z"/><path class="cls-11" d="M213,83c.47,2.08.16,14.88.89,15.85l0,.05a3.68,3.68,0,0,0,1.84.24,34.63,34.63,0,0,0,7.32-1.95c5.49-1.83,6.06-3.5,6.25-3.6,0-1.08,0-3.8,0-3.8V78.48s-.07-1-.17-2.2-.22-2.52-.33-3.21a4.58,4.58,0,0,0-2.65-2.76,1.34,1.34,0,0,0-1.12,0l-1.5.86-5.89,3.36-1.28.73-2.35,1.33-.6.34C212.7,77.33,212.52,80.84,213,83Z"/><path class="cls-62" d="M213,83c.47,2.08.16,14.88.89,15.85l0,.05s.68-.12,1.76-.39c0-.41,0-1.11.06-2.27.14-2.57-.3-12.77-.65-15.52l-.35-2.75-.67-1.37-.6.34C212.7,77.33,212.52,80.84,213,83Z"/><path class="cls-63" d="M229.34,137.69s.76,1.37-.27,2a3.43,3.43,0,0,1-2.61,0Z"/><path class="cls-64" d="M222.74,138.12a1.12,1.12,0,0,1-1.25.37,2.56,2.56,0,0,1-1.48-2.18Z"/><path class="cls-65" d="M216.44,75.23c1.15.11,4,.28,5.48-.47s1.68-2.82,1.69-3.63l-5.89,3.36Z"/><path class="cls-66" d="M218.53,71.4V74a2.53,2.53,0,0,0,3.18.86c.61-.3.76-1.2.77-2a7.37,7.37,0,0,0,0-.83l-.12.08A3.73,3.73,0,0,1,218.53,71.4Z"/><path class="cls-67" d="M218.53,71.4v2.34a5.49,5.49,0,0,0,4-.83,7.37,7.37,0,0,0,0-.83l-.12.08A3.73,3.73,0,0,1,218.53,71.4Z"/><path class="cls-68" d="M229.39,79.22V85.9c.77,1.42,1.74,2.8,2.72,3.07,4,1.11,11.63-5.58,11.63-5.58l-.37-.28a31.14,31.14,0,0,1-4.72,3.1c-1.77.77-3.5,1.95-5.36,1.75s-2.86-2.2-3.38-4.25a23.32,23.32,0,0,1-.5-4.49Z"/><path class="cls-69" d="M243.66,79.23c.23.55,1.1,2.57.08,4.15h-.14s.06-1.32.06-2.27Z"/><path class="cls-70" d="M213.8,101.66c.27,2.36,4.58,17.36,5.52,19.61s.77,6.72,1.74,9.84,5.38,8.59,5.38,8.59l.55-.38a23.94,23.94,0,0,1-3-4.74c-.91-2.21-2.39-4.72-2.65-7.71a48.38,48.38,0,0,0-1.12-7.83c-.61-2.38-3.85-9.65-4.24-12.07a26.34,26.34,0,0,1-.52-5.67c0-1.23,0-2.18,0-2.78-1,.24-1.57.35-1.57.35l0-.05A11,11,0,0,0,213.8,101.66Z"/><path class="cls-70" d="M222.36,101.1l.25.89v0c.87,1.66,3.79,12.33,3.8,14.06a27.61,27.61,0,0,1-1.22,6.47l.45,2.17s1.76-6,1.78-8.43-1.28-7.92-2.29-10.73A12.12,12.12,0,0,0,222.36,101.1Z"/><g class="cls-1"><path class="cls-71" d="M240.29,78.23v6.91a.09.09,0,0,0,.15.09l3.05-1.77a.32.32,0,0,0,.14-.25V76.29c0-.09-.06-.13-.15-.08L240.44,78A.33.33,0,0,0,240.29,78.23Z"/><path class="cls-72" d="M240.14,78.13h0v0h.08l3.05-1.76h.1l.15.09h0l-.06,0L240.44,78a.26.26,0,0,0-.1.11h0l0,.07h0a.21.21,0,0,0,0,.07l0,6.91a.16.16,0,0,0,0,.06h0l0,0-.15-.08,0,0h0l0-6.91h0Z"/></g><path class="cls-72" d="M242.54,78.41c0-.27-.19-.38-.43-.25a1,1,0,0,0-.42.73c0,.27.19.38.42.25A.93.93,0,0,0,242.54,78.41Z"/><path class="cls-71" d="M241.92,79.07a.25.25,0,0,0,.12,0,.78.78,0,0,0,.35-.61c0-.06,0-.16-.09-.16a.24.24,0,0,0-.12,0,.79.79,0,0,0-.35.61C241.83,79,241.85,79.07,241.92,79.07Z"/><path class="cls-73" d="M240.3,82.7v2.44a.09.09,0,0,0,.15.09l3.05-1.77a.32.32,0,0,0,.14-.25V78.78Z"/><path class="cls-74" d="M243.78,78.45c-.37,0-1.4,1.18-1.38,1.48s1-.3,1.26-.59S244.07,78.44,243.78,78.45Z"/><path class="cls-75" d="M243.77,79.4c.23-.06.23.39-.11.75s-1.3,1-1.45.87S242.82,79.66,243.77,79.4Z"/><path class="cls-76" d="M242.29,81.84c-.17-.21.9-1.23,1.37-1.61s.66.19.07.81S242.43,82,242.29,81.84Z"/><path class="cls-77" d="M242.69,82.46c-.15-.21.55-.94,1-1.17s.43.34.07.72S242.82,82.64,242.69,82.46Z"/><path class="cls-78" d="M215.93,66.91a.36.36,0,0,1,.27,0c.31.1.52.55.52.55l.27,1.7c.13.12.25.17.34.11.64-.46.23-2,.59-3.39l.09-.29c.37-1.06,1-1.17,2.46-.93,1.25.2,2.44,0,2.87-.65a.88.88,0,0,0,.16-.59c-.09-1.26-1.27-1.83-3.32-2a4.54,4.54,0,0,0-3.67,1.27,3.81,3.81,0,0,0-.74,1.08A5.34,5.34,0,0,0,215.93,66.91Z"/><path class="cls-78" d="M216.2,66.9a12.39,12.39,0,0,0,.48,1.84,8.14,8.14,0,0,1-.75-1.84A.36.36,0,0,1,216.2,66.9Z"/><path class="cls-78" d="M216.73,67.45l.27,1.7a2,2,0,0,1-.31-.41,12.39,12.39,0,0,1-.48-1.84C216.51,67,216.73,67.45,216.73,67.45Z"/><path class="cls-79" d="M217.12,69.91A4.39,4.39,0,0,0,218.84,72a3.83,3.83,0,0,0,.68.34,3.47,3.47,0,0,0,3.19-.1l.11-.09c1.77-1.48,1.21-3.84,1-6.13a5.93,5.93,0,0,0-.5-2c-.43.62-1.62.85-2.87.65-1.57-.25-2.16-.11-2.53,1.15a.33.33,0,0,1,0,.07c-.36,1.34,0,2.93-.59,3.39-.09.06-.22,0-.34-.11l-.27-1.7s-.22-.45-.52-.55a.36.36,0,0,0-.27,0,.8.8,0,0,0-.39.36A1.7,1.7,0,0,0,217.12,69.91Z"/><path class="cls-80" d="M215.93,66.91a.36.36,0,0,1,.27,0c.31.1.52.55.52.55l.27,1.7c.13.12.25.17.34.11.64-.46.23-2,.59-3.39l.09-.29a3.66,3.66,0,0,1-1.57-1.64,1.57,1.57,0,0,1,.06-1.23,3.81,3.81,0,0,0-.74,1.08A5.34,5.34,0,0,0,215.93,66.91Z"/><path class="cls-81" d="M217.12,69.91A4.39,4.39,0,0,0,218.84,72a3.83,3.83,0,0,0,.68.34,10.75,10.75,0,0,1-1.11-2.47A16.43,16.43,0,0,1,218,65.8a.33.33,0,0,1,0,.07c-.36,1.34,0,2.93-.59,3.39-.09.06-.22,0-.34-.11l-.27-1.7s-.22-.45-.52-.55a.36.36,0,0,0-.27,0,.8.8,0,0,0-.39.36A1.7,1.7,0,0,0,217.12,69.91Z"/><path class="cls-82" d="M211.06,83.93a28.4,28.4,0,0,0,.28,9.43c.12.48.28,1,.46,1.53l.14.38c.23.67.5,1.37.79,2.08l.18.42c.46,1.12,1,2.22,1.4,3.19l.17.36c.16.35.32.68.46,1,.43.9.77,1.56.89,1.81a33.5,33.5,0,0,0,1.3,4c.17.21.25.2.29.08a1.43,1.43,0,0,0,0-.43c0-.36-.1-1.12.12-.84s1.08,1.92,1.32,1.75-.71-1.72-.82-2,.11-.4.39.09c.18.33,1.26,1.92,1.62,1.69s-1.33-2.17-1.26-2.38.29.06.73.62.77,1,.93.55c0-.12-1.61-2.06-1.34-2.42,0-.05,1,.54,1.21.22s-2-1.59-2-1.59c-.32-1.05-1.65-5.51-2.08-8a54.29,54.29,0,0,1-.51-11l-3.27.51Z"/><path class="cls-83" d="M211.06,83.93a28.4,28.4,0,0,0,.28,9.43c.12.48.28,1,.46,1.53l.14.38c.23.67.5,1.37.79,2.08l.18.42c.46,1.12,1,2.22,1.4,3.19l.17.36c.16.35.32.68.46,1,.43.9.77,1.56.89,1.81a33.5,33.5,0,0,0,1.3,4c.17.21.25.2.29.08-.13-.25-.3-.6-.47-1a14.8,14.8,0,0,1-.47-3.1c-1.4-2.39-3.7-10.74-4.31-13.2-.52-2.14.13-5.59.39-6.8Z"/><path class="cls-11" d="M210.89,84.58a1.88,1.88,0,0,0,1.85.73,10.13,10.13,0,0,0,3.37-1c.36-3.31-.05-6.65-1.69-7.23a1.23,1.23,0,0,0-.47-.07C211.48,77,210.89,84.58,210.89,84.58Z"/><path class="cls-65" d="M210.89,84.58a1.88,1.88,0,0,0,1.85.73,18.61,18.61,0,0,1,.27-5.65,8,8,0,0,1,.93-2.65C211.48,77,210.89,84.58,210.89,84.58Z"/><path class="cls-84" d="M113.12,57.21c0,.14-3,2.74-3,2.74v49l3.13-1.74Z"/><path class="cls-12" d="M158.41,62.81a2.83,2.83,0,0,1-.59-.88,7.58,7.58,0,0,1,2-3.14,18.3,18.3,0,0,1-.64,2.39C158.71,62.73,158.41,62.81,158.41,62.81Z"/><path class="cls-85" d="M86.25,85.62c-.07,0-.42.16-.43,1.06A8.16,8.16,0,0,0,86,88.31l.26-.19Z"/><path class="cls-86" d="M87.71,91.45a21.37,21.37,0,0,0,4.43,3,1.08,1.08,0,0,0,.36.17c2.88.93,5.78-4.86,5.78-4.86s0-1.78,0-3.79c0-1.42,0-2.94,0-4.07,0-2.82.91-3.55.91-3.55-1.54.73-3.25,5-4.81,8.26-.45.94-1,1.94-1.44,2.91a50.15,50.15,0,0,1-4.72-2.81L86,88.27l-.06,0S85.73,89.84,87.71,91.45Z"/><path class="cls-87" d="M87.71,91.45a21.37,21.37,0,0,0,4.43,3,1.08,1.08,0,0,0,.36.17c2.88.93,5.78-4.86,5.78-4.86s0-1.78,0-3.79c-.94,2.86-2.92,6.66-4.09,7.24s-4.15-.93-5.7-2.16A12.15,12.15,0,0,1,86,88.27l-.06,0S85.73,89.84,87.71,91.45Z"/><path class="cls-86" d="M98.18,98.29s2.45,5,11.65,6.62c.39.07.78.13,1.19.19,0,0,.84.06,1-.6a.66.66,0,0,0,0-.15,61.4,61.4,0,0,1,0-9.73c.07-.63.16-1.23.27-1.8.65-3.49,1.82-5.85,1.21-6.73-1.25-1.81-12.59-8.57-14.35-7.68-1.4.7-1,4.87-.91,9.28S98.18,98.29,98.18,98.29Z"/><path class="cls-88" d="M60.2,115.7l2.36,1.62.93.64s3.82-1,8.52-2,5.83-3.29,12-4.86,13.59-4.68,14.74-4.66a6.42,6.42,0,0,1,2.84.82c0,.12-3.38,4.34-10,9.88C87,121,79.53,127.77,79.53,127.77L80.59,129l.85.94s9.52-4.64,13.27-7.78c5.23-4.39,12.18-9.08,15.05-11.7a6.68,6.68,0,0,0,2.29-5.93c-.14.67-1,.6-1,.6-.44-.06-.86-.13-1.28-.2-9.13-1.62-11.56-6.6-11.56-6.6S83,105.24,74.79,109,60.2,115.7,60.2,115.7Z"/><path class="cls-89" d="M86.23,81.59v7.75a.23.23,0,0,0,.11.19l5,2.9,4.06,2.33c.06,0,.12,0,.12-.06V86.94a.25.25,0,0,0-.12-.19L89.07,83.1l-2.73-1.56C86.27,81.49,86.23,81.52,86.23,81.59Z"/><path class="cls-90" d="M95.73,86.59h0l-3.55-2-5.55-3.19h-.08l-.29.16h.08l5.44,3.12,3.66,2.1,0,0h0l0,0h0l0,0h0s0,0,0,0h0a0,0,0,0,1,0,0h0a.11.11,0,0,1,0,0h0s0,0,0,0v7.79h0s0,0,0,0h0l.29-.16h0V86.78h-.11Z"/><path class="cls-91" d="M86.78,86.27c.15.09.27,0,.27-.15a.6.6,0,0,0-.27-.46c-.15-.08-.27,0-.27.15A.59.59,0,0,0,86.78,86.27Z"/><path class="cls-92" d="M86.23,81.59v7.75a.23.23,0,0,0,.11.19l5,2.9L89.07,83.1l-2.73-1.56C86.27,81.49,86.23,81.52,86.23,81.59Z"/><path class="cls-93" d="M87.28,86.58c-.14.15-.69-.19-1-.45s-.24-.55,0-.51S87.39,86.47,87.28,86.58Z"/><path class="cls-94" d="M87.34,87.15c-.09.12-.81-.13-1.09-.38s-.31-.67,0-.56S87.45,87,87.34,87.15Z"/><path class="cls-95" d="M87,87.63a1.15,1.15,0,0,1-.94-.49c-.08-.23,0-.4.39-.15S87.11,87.59,87,87.63Z"/><path class="cls-96" d="M86.69,87.89c0,.18-.57-.06-.65-.4S86.64,87.63,86.69,87.89Z"/><path class="cls-97" d="M95.05,92.42s-1.42-.09-1.41.12,1.13.45,1.13.45-.78,0-.85.14,0,.07.25.12a5.56,5.56,0,0,0,1.39.17c.21.62,1.25,1.31,1.25,1.31l.73-.29,2.34-.92-2.4-1.43a5.76,5.76,0,0,0-.66-.31h0c0-.09-.51-1-1-1.12v.28s.12.31.22.55l-.51-.17s-1.72-.16-1.72,0,1.15.54,1.3.58c-.19,0-1.64-.25-1.64,0S95.05,92.42,95.05,92.42Z"/><path class="cls-98" d="M94.17,93.26a5.56,5.56,0,0,0,1.39.17c.21.62,1.25,1.31,1.25,1.31l.73-.29a7.53,7.53,0,0,1-1.82-1.19c-.3-.26-1.29-.09-1.78-.12C93.9,93.17,94,93.21,94.17,93.26Z"/><path class="cls-99" d="M101.19,74c0,3.36,1.3,5.4,2.48,6.25a2.36,2.36,0,0,0,1,.45,2.45,2.45,0,0,0,1.21-.07,2.37,2.37,0,0,0,.91-.53,4.26,4.26,0,0,0,1.06-1.6s0-.31,0-.76c.13-.18.29-.4.44-.65a2.21,2.21,0,0,0,.42-1.71.89.89,0,0,0-.22-.35c-.29-.24-.69-.11-1,.22a4.37,4.37,0,0,0-.78-1.82h0a1.09,1.09,0,0,0-1.07-.39c-.91.18-2.8,1.26-4.38.56C101.21,73.68,101.19,73.81,101.19,74Z"/><path class="cls-100" d="M105.84,80.58a2.37,2.37,0,0,0,.91-.53,4.26,4.26,0,0,0,1.06-1.6s0-.31,0-.76c.13-.18.29-.4.44-.65a2.21,2.21,0,0,0,.42-1.71.89.89,0,0,0-.22-.35c-.29-.24-.69-.11-1,.22a4.37,4.37,0,0,0-.78-1.82,6.71,6.71,0,0,1,.67,4.67A4.62,4.62,0,0,1,105.84,80.58Z"/><path class="cls-101" d="M103.14,81.51s.32,2.34.88,2.69,2.7-1.93,3-2.25l0,0a7.69,7.69,0,0,0-.31-1.88,2.41,2.41,0,0,1-2.12.59,2.36,2.36,0,0,1-1-.45l-.14.37Z"/><path class="cls-102" d="M103.52,80.56A4.78,4.78,0,0,0,107,82l0,0a7.69,7.69,0,0,0-.31-1.88,2.41,2.41,0,0,1-2.12.59,2.36,2.36,0,0,1-1-.45Z"/><path class="cls-103" d="M100.58,73.09a1,1,0,0,0,.29.27,2.44,2.44,0,0,0,.35.19c1.58.71,3.47-.38,4.38-.56s1.56.94,1.86,2.22c.28-.34.68-.47,1-.22a.89.89,0,0,1,.22.35,2.21,2.21,0,0,1-.42,1.71c-.15.25-.3.47-.44.65,0,.45,0,.74,0,.76a5.77,5.77,0,0,0,.07-7.61,4,4,0,0,0-.82-.71c-1.88-1.22-4.15-.37-5.15.14S100,72.26,100.58,73.09Z"/><path class="cls-104" d="M100.58,73.09a1,1,0,0,0,.29.27,2.44,2.44,0,0,0,.35.19c1.58.71,3.47-.38,4.38-.56s1.56.94,1.86,2.22c.28-.34.68-.47,1-.22a.89.89,0,0,1,.22.35,2.21,2.21,0,0,1-.42,1.71c-.15.25-.3.47-.44.65,0,.45,0,.74,0,.76a5.77,5.77,0,0,0,.07-7.61,4,4,0,0,0-.82-.71c.13,1.49-.48,2.12-2.66,2.91A5.82,5.82,0,0,1,100.58,73.09Z"/><path class="cls-87" d="M109.83,104.91c.39.07.78.13,1.19.19,0,0,.84.06,1-.6a.66.66,0,0,0,0-.15,61.4,61.4,0,0,1,0-9.73c.07-.63.16-1.23.27-1.8-.3-1.67-.54-2.83-.54-2.83a64.76,64.76,0,0,0-1.5,9.36C110.07,102.52,109.93,103.28,109.83,104.91Z"/><path class="cls-86" d="M96.8,94.74s9,8.47,13.45,6.87c4.16-1.48,4.36-14.55,3.26-15.54a3.84,3.84,0,0,0-.45-.34c-2.11-1.36-3.47,1.59-3.82,4.07-.51,3.68-1,8.18-1.74,7.87a74.22,74.22,0,0,1-7.64-4.19l-2.38,1Z"/><path class="cls-87" d="M96.8,94.74s9,8.47,13.45,6.87c4.16-1.48,4.36-14.55,3.26-15.54a3.84,3.84,0,0,0-.45-.34c.48,2,.26,5.67.07,7.86-.23,2.76-1.3,5.6-2.59,6.5s-3.63,0-6.35-1.22-5.36-3.49-6.7-4.43Z"/><path class="cls-105" d="M80.59,129l.85.94s9.52-4.64,13.27-7.78c5.23-4.39,12.18-9.08,15.05-11.7a6.68,6.68,0,0,0,2.29-5.93c-.14.67-1,.6-1,.6-.44-.06-.86-.13-1.28-.2a8.55,8.55,0,0,1-2.44,5.23c-1.87,1.82-6.27,5.26-9.26,7.61s-4.86,4.26-8.88,6.8A69.49,69.49,0,0,1,80.59,129Z"/><path class="cls-106" d="M62.56,117.32l.93.64s3.82-1,8.52-2,5.83-3.29,12-4.86,13.59-4.68,14.74-4.66a6.42,6.42,0,0,1,2.84.82,4.15,4.15,0,0,0-2.6-1.8c-1.72-.53-6.12,1.42-11.05,2.76A49.31,49.31,0,0,0,77,112.33a32.89,32.89,0,0,1-9.57,3.74C65.07,116.61,63.5,117,62.56,117.32Z"/><path class="cls-12" d="M79.07,130.77c1.09.65,2.37-.87,2.37-.87l.43-.38c.4-.33,1-.86,1.81-1.41,1.27-.93,2.29-2.54,1.72-3.74-.74-1.54-2.46-.81-3.47.38a24.16,24.16,0,0,0-2.39,3l0,.06C78.67,129.11,78,130.13,79.07,130.77Z"/><path class="cls-107" d="M79.07,130.77c1.09.65,2.37-.87,2.37-.87l.43-.38c-.46-.26-1.7-1.19-2.37-1.69C78.67,129.11,78,130.13,79.07,130.77Z"/><path class="cls-12" d="M58.49,117.73c2.45,2.12,2.87,2.26,3.66,2.15a1.07,1.07,0,0,0,.67-.51,5.44,5.44,0,0,0,.68-1.42c-1-.6-6.57-4.83-7.3-4.32a.9.9,0,0,0-.4.57C55.64,115,56.6,116.08,58.49,117.73Z"/><path class="cls-107" d="M58.49,117.73c2.45,2.12,2.87,2.26,3.66,2.15a1.07,1.07,0,0,0,.67-.51,43.46,43.46,0,0,1-4.3-2.62,9.42,9.42,0,0,1-2.73-2.54C55.64,115,56.6,116.08,58.49,117.73Z"/></g></g></svg>