<svg xmlns="http://www.w3.org/2000/svg" xmlns:xlink="http://www.w3.org/1999/xlink" viewBox="0 0 300 150"><defs><style>.cls-1{isolation:isolate;}.cls-2{fill:#272c66;}.cls-3{fill:#060d42;}.cls-4{fill:url(#linear-gradient);}.cls-5{fill:url(#radial-gradient);}.cls-6{fill:#ffd451;}.cls-7{fill:#fff;}.cls-8{fill:#fe3da6;}.cls-9{fill:#9c48d1;}.cls-10{fill:#1e88f5;}.cls-11{fill:#110239;}.cls-12{fill:#36c;}.cls-13{fill:#2135ad;}.cls-14{fill:#fee08d;}.cls-15{fill:#f88667;}.cls-16{fill:#e45940;}.cls-17{fill:#330045;opacity:0.32;mix-blend-mode:multiply;}.cls-18{fill:#6cd3fe;}</style><linearGradient id="linear-gradient" x1="121.03" y1="-0.06" x2="121.03" y2="104.23" gradientUnits="userSpaceOnUse"><stop offset="0" stop-color="#36c"/><stop offset="0.06" stop-color="#3869ce"/><stop offset="0.44" stop-color="#5578d9"/><stop offset="0.76" stop-color="#6781e0"/><stop offset="1" stop-color="#6d84e2"/></linearGradient><radialGradient id="radial-gradient" cx="123.89" cy="38.79" r="46.98" gradientUnits="userSpaceOnUse"><stop offset="0" stop-color="#59c7ef"/><stop offset="0.3" stop-color="#50c6ee"/><stop offset="0.79" stop-color="#38c4ed"/><stop offset="1" stop-color="#2cc3ec"/></radialGradient></defs><title>best-educational-website</title><g class="cls-1"><g id="Layer_1" data-name="Layer 1"><polygon class="cls-2" points="135.98 136.25 106.07 136.25 108.53 100.2 133.52 100.2 135.98 136.25"/><path class="cls-3" d="M111.18,127.29c7.48-2.48,16.32-4.27,23.65-7.89l-1.31-19.2h-25l-1.95,28.59C108.12,128.29,109.66,127.79,111.18,127.29Z"/><path class="cls-2" d="M139.9,130.48a2,2,0,0,0-1.62-.87h-34.5a2,2,0,0,0-1.62.87l-4.52,6.74a2,2,0,0,0,1.62,3H142.8a2,2,0,0,0,1.62-3Z"/><rect class="cls-2" x="39.38" y="0.31" width="163.3" height="109.47" rx="8.42" ry="8.42"/><rect class="cls-4" x="46.89" y="7.57" width="148.27" height="93.83"/><path class="cls-5" d="M154.48,58.77v-.06c0-.84,0-1.67-.1-2.5l0-.26A33.81,33.81,0,0,0,87,56l0,.26c-.06.82-.1,1.65-.1,2.5v.06c0,.84,0,1.67.1,2.5l0,.25a33.81,33.81,0,0,0,67.4,0l0-.26C154.44,60.44,154.48,59.61,154.48,58.77Z"/><path class="cls-6" d="M91.35,47.68c2.15.06.93,1.09,1,2.8.11,2.18,1.87,1.81,3,3.24.38.46.39,1,.72,1.5a5.51,5.51,0,0,0,2,1.39c1.2.71,2.13,2.23,3.39,2.69,3.21,1.18-.17-3.87,0-4.9.12-.7.64-.7.36-1.38a1.32,1.32,0,0,0-1.41-.73c-.37,0-.83.82-1.3.48-.62-.46.39-1,.49-1.37.36-1.25-1.45-2.13-2.12-1.08-.29.46.19,1.71-.67,1.43-.57-.19-1-2.15-1-2.68.24-2.23,1.87-2.64,3.84-2.66,1.37,0,2.08.22,2.37,1.71s-.35,1.89.9,2.69,2.33.27,1.64-1.42c-.35-.84-1.4-2-1-3,.15-.39.75-.66,1-1,.47-.6,0-.52.73-1s1.37-.32,1.64-1.39-.11-1,.58-1.65c1.39-1.39,2.45.34,3.73-.35a5.8,5.8,0,0,1-.67-1.45c.31-.38,3.46-.13,1.63-1.65,1.13-.67.92,1.25,1.86,1.05,1.27-.26-.88-1.41-.92-1.63-.19-.89,1.22-.9,1.74-.56.74.49.44,1.94,1.62,1.73.13,1,1.43.68,1.43-.13s-.91-.59-.92-1.51.76-.93.2-1.83c-.37-.6-1.21-.24-1.06-1.28-.46,0-.88.77-1,.33-.41-1.15-.91-3.52-2.46-1.84-.64-.51-.9-1.41-1.76-1.4-1.13,0-1,1.33-1.64,2.09-.29.34-.8.55-1.09.91s.1.91-.67,1.05c-1.27.23-.89-1.47-.72-2.07-1.9-.21-1.24-1.83.25-1.87.56,0,1.38.42,2,0s.37-1.24,1.15-1.23c.18,2,1.63.26,2.57.11-.08.23,0,.66-.08.89,3,.47,0-3.71,2.09-4.47,1.34-.5,1.58.7,1.53,1.74a2.85,2.85,0,0,0,.72,2.52c.76.86,1.5,1.8,2.23.23.14-.29.06-1.17.22-1.37s1.2-.26,1.62-.57c1.45-1.07.57-2.89-.71-4A33.73,33.73,0,0,0,108.79,27a1.77,1.77,0,0,0-.41.74,1.65,1.65,0,0,1-1.12-.12A33.94,33.94,0,0,0,91.41,41.74a4.17,4.17,0,0,0,0,.53,1.42,1.42,0,0,0,.09.26A6.56,6.56,0,0,1,92,44.66C92,45.74,91.16,46.67,91.35,47.68Z"/><path class="cls-6" d="M154.48,58.71c0-.84,0-1.67-.1-2.5l0-.26a33.64,33.64,0,0,0-2.7-10.77h0q-.3-.69-.63-1.36L151,43.7q-.31-.62-.64-1.23l-.1-.18q-.32-.57-.65-1.12l-.14-.23q-.33-.53-.67-1l-.17-.25c-.23-.33-.46-.66-.71-1l-.18-.25c-.24-.33-.5-.64-.75-1l-.19-.23-.14-.16a1.93,1.93,0,0,0-1.95,1.36c-.27.64-.19,2.72-1.08,2.9s-1.74-5.1-3.63-2.17c-.25.39-.11.91-.32,1.28-.28.52-.51.51-.89.71.59-1.16-1-3.82.64-3.74.38-.82-.22-1.68,0-2.53.46-1.66.81-.17,1.18.57.21.43,1.1,2.09,1.87,1.52.56-.42-.14-2.21-.11-2.77.69.12.88,1.08,1.62,1.25a3.18,3.18,0,0,0,1.29.08l-.09-.09c-.55-.58-1.12-1.14-1.71-1.68h0q-.92-.84-1.9-1.61l0,0q-1-.75-2-1.43l-.17-.11a33.75,33.75,0,0,0-4.25-2.41l-.13-.06q-1.09-.51-2.23-.95l-.2-.07a33.5,33.5,0,0,0-4.74-1.4l-.12,0a2.15,2.15,0,0,1,0,.9c-.12.71-.48.58,0,1.27s1.41.67,1.88,1.15c.3.31.38.69.69,1s1,.53,1.32,1.07a6.41,6.41,0,0,1,.43.68c-.72.15-1.81-1-2.22-.33s.78,1.46,1,2-.4,1.66.7,1.74.66-1.1.6-1.72c1.15-.14,1.29.82,1.77,1.46.64.85,1.54.65,2.19,1.3,1.35,1.34-.22,1-.81,1s-.82-.14-1.27.38-.22.31.06.95a13.62,13.62,0,0,0,1.19,2.61,8.34,8.34,0,0,0,2.91.51,15.64,15.64,0,0,0-1.38,1.72c-1.1,1.32-.54.94-.35,2.43.17,1.29-.87,1.69-1.21,2.78-.39,1.25.58,2.72.73,3.85s.67,1.21,1.09,2a15.07,15.07,0,0,0,.76,2c.67,1,2.36,2.83,3.77,2.66,1-.12.59-1,1.19-1.4s1.58.27,1.52-1c.37,0,1.32.7,1.62.58.56-.22.34-1.25.37-1.73,1.49-.25,1.23,1.78.89,2.53-.16.36-.65.9-.67,1.28,0,.7.4.5.71,1.15.54,1.15,0,4.94-.68,6s-2.12,1.33-1.89,2.75c.14.88,1.22,1.25,1.43,2.15.25,1.1-.33,2.18.17,3.31s1,2.44,1.48,3.8c.06.17.13.31.2.46a33.73,33.73,0,0,0,4.91-9.47c0-.13,0-.27,0-.4v0a7.49,7.49,0,0,1,.86-2.67l0-.14a33.83,33.83,0,0,0,.7-4.61l0-.26c.06-.82.1-1.65.1-2.48v-.08Z"/><path class="cls-6" d="M126.89,65.89c-.56-.23-1.33.21-1.87-.1-.84-.48-.38-.87-1.4-1.08-.64-.13-1.23.18-1.85.09s-1.32-1-2.13-.9c-1.25-1-1.29-2.28-2.14-3.59s-1.48-1-2.77-.92-2.14-1.22-3.41-1.51a4.35,4.35,0,0,0-1.31,0,4.2,4.2,0,0,1-1.5-.05c-.39-.08-1,0-1.37-.12a4.47,4.47,0,0,1-.53,0c-.22-.05-.07-.59-.43-.62a8.24,8.24,0,0,0-3,1.52c-.42.78.4,1.11.48,1.74s-.19.8-.56,1.31a20.5,20.5,0,0,0-3.22,6.65c-.28,1.19.08,1.49.56,2.47.57,1.15.49,2.41,1,3.57.63,1.36,1.48,1.16,2.61,1.92s1.09,1.57,1.23,2.7a22.45,22.45,0,0,1,.25,2.6c0,.47-.35.65-.16,1.12.27.65,1.19,1,1.67,1.44s.82,1.05,1.32,1.52c1.23,1.16,2.64,2.17,3.17,3.86a3.44,3.44,0,0,1,0,1.87,33.56,33.56,0,0,0,3.3.74,13.66,13.66,0,0,0,.36-2.3c.29-.85.77-1,1.39-1.64s.59-1.2.84-2.14c.62-2.35,1.8-2.55,3.76-3.56,1.61-.83,2.92-1.7,2.45-3.5-.53-2,.44-3,1.7-4.54a11.32,11.32,0,0,0,2.43-5.61C128,67.46,127.81,66.28,126.89,65.89Z"/><polygon class="cls-7" points="151.39 22.52 139.29 31.6 153.01 25.99 151.39 22.52"/><polygon class="cls-7" points="171.35 53.78 152.96 59.48 171.35 58.34 171.35 53.78"/><polygon class="cls-7" points="75.97 87.66 103.33 71.11 74.57 83.32 75.97 87.66"/><polygon class="cls-7" points="95.33 51.73 71.28 49.14 71.28 43.95 95.33 51.73"/><polygon class="cls-7" points="118.36 77.75 140.11 92.08 140.11 87.24 118.36 77.75"/><circle class="cls-8" cx="135.83" cy="33.12" r="2.88"/><circle class="cls-8" cx="99.06" cy="53.07" r="2.88"/><circle class="cls-8" cx="115.48" cy="75.97" r="2.88"/><circle class="cls-8" cx="106.61" cy="69.25" r="2.88"/><circle class="cls-8" cx="149.69" cy="60.8" r="2.88"/><path class="cls-7" d="M90.69,50a.44.44,0,0,0-.58.65q1.59,1.41,3.33,2.84a.44.44,0,0,0,.56-.67Q92.28,51.38,90.69,50Z"/><path class="cls-7" d="M99.9,30.21a.44.44,0,0,0,.15-.85c-1.43-.52-2.83-1-4.15-1.41a.44.44,0,1,0-.26.83c1.31.41,2.69.88,4.12,1.39Z"/><path class="cls-7" d="M84.41,44a.44.44,0,1,0-.63.6c1,1,2,2.06,3.1,3.1a.44.44,0,0,0,.6-.63C86.4,46,85.37,45,84.41,44Z"/><path class="cls-7" d="M104.38,60.73a.44.44,0,0,0-.5.71q1.76,1.24,3.6,2.48a.43.43,0,0,0,.24.08.44.44,0,0,0,.24-.8Q106.14,62,104.38,60.73Z"/><path class="cls-7" d="M97.39,55.54a.44.44,0,0,0-.54.69q1.69,1.32,3.48,2.65a.44.44,0,1,0,.52-.7Q99.07,56.85,97.39,55.54Z"/><path class="cls-7" d="M87.23,26.71c1.32.21,2.74.51,4.23.89h.11a.44.44,0,0,0,.11-.86c-1.52-.38-3-.69-4.31-.9a.44.44,0,1,0-.14.86Z"/><path class="cls-7" d="M169.93,79.47a.44.44,0,0,0,.39.24.45.45,0,0,0,.2,0,.44.44,0,0,0,.19-.59,28.16,28.16,0,0,0-2.34-3.76.44.44,0,1,0-.71.51A27.35,27.35,0,0,1,169.93,79.47Z"/><path class="cls-7" d="M76.14,30.45a4.39,4.39,0,0,1,.09-.88.44.44,0,1,0-.85-.18,5.23,5.23,0,0,0-.1,1.06,9.24,9.24,0,0,0,.78,3.44.44.44,0,0,0,.4.27.43.43,0,0,0,.17,0,.44.44,0,0,0,.24-.57A8.4,8.4,0,0,1,76.14,30.45Z"/><path class="cls-7" d="M83,25.43H82.7a12.35,12.35,0,0,0-4.19.62.44.44,0,0,0,.15.85l.15,0a11.47,11.47,0,0,1,3.89-.56H83a.44.44,0,0,0,0-.87Z"/><path class="cls-7" d="M78.92,37.3a.44.44,0,0,0-.72.49,42.91,42.91,0,0,0,2.66,3.52.44.44,0,1,0,.67-.56A41.86,41.86,0,0,1,78.92,37.3Z"/><path class="cls-7" d="M154.61,86.26c-1.32-.36-2.71-.78-4.16-1.25a.44.44,0,0,0-.27.83c1.46.48,2.87.9,4.2,1.27l.11,0a.44.44,0,0,0,.11-.86Z"/><path class="cls-7" d="M115.29,67.93q-1.87-1.16-3.68-2.33a.44.44,0,1,0-.47.73q1.82,1.17,3.7,2.34a.44.44,0,0,0,.46-.74Z"/><path class="cls-7" d="M163.09,87.83a35.62,35.62,0,0,1-4.27-.58.44.44,0,1,0-.17.86,36.42,36.42,0,0,0,4.37.6h0a.44.44,0,0,0,0-.87Z"/><path class="cls-7" d="M172,83.39a.45.45,0,0,0-.46-.41.44.44,0,0,0-.41.46c0,.1,0,.2,0,.3a3.71,3.71,0,0,1-.5,2,4.79,4.79,0,0,1-3.35,2,.44.44,0,0,0,.08.86h.09a5.61,5.61,0,0,0,3.93-2.36,4.57,4.57,0,0,0,.63-2.41C172.05,83.62,172.05,83.5,172,83.39Z"/><path class="cls-7" d="M162.63,68.67a.44.44,0,1,0-.62.61c1.06,1.08,2.05,2.15,3,3.18a.44.44,0,1,0,.66-.57C164.71,70.84,163.71,69.76,162.63,68.67Z"/><path class="cls-7" d="M159.19,66.37a.44.44,0,0,0,.3-.76c-1-1-2.13-1.94-3.26-2.92a.44.44,0,0,0-.57.66c1.13,1,2.22,2,3.24,2.9A.44.44,0,0,0,159.19,66.37Z"/><path class="cls-7" d="M122.79,72.35q-1.87-1.06-3.77-2.18a.44.44,0,0,0-.44.75q1.9,1.12,3.79,2.19a.43.43,0,0,0,.21.06.44.44,0,0,0,.21-.82Z"/><path class="cls-7" d="M146.35,83.56c-1.32-.49-2.68-1-4-1.6a.44.44,0,1,0-.33.81c1.38.57,2.75,1.11,4.07,1.61l.15,0a.44.44,0,0,0,.15-.84Z"/><path class="cls-7" d="M130.46,76.47q-1.91-1-3.86-2a.44.44,0,1,0-.41.77q2,1,3.88,2a.44.44,0,0,0,.4-.78Z"/><path class="cls-7" d="M138.31,80.24q-1.94-.87-3.95-1.83a.44.44,0,1,0-.38.79q2,1,4,1.84a.44.44,0,0,0,.18,0,.44.44,0,0,0,.18-.84Z"/><path class="cls-7" d="M94.82,89.61c-1.39.45-2.75.85-4,1.19a.42.42,0,0,0,.09.83H91c1.3-.35,2.68-.75,4.08-1.2a.42.42,0,0,0-.26-.81Z"/><path class="cls-7" d="M86.68,91.75a39.81,39.81,0,0,1-4.14.6.42.42,0,0,0,0,.85h.06a40.67,40.67,0,0,0,4.23-.61.42.42,0,0,0-.16-.83Z"/><path class="cls-7" d="M110.49,83.36q-2,.91-3.85,1.74a.42.42,0,1,0,.34.78q1.91-.83,3.87-1.75a.42.42,0,0,0-.36-.77Z"/><path class="cls-7" d="M102.75,86.73q-2,.81-3.94,1.51a.42.42,0,0,0,.13.82.42.42,0,0,0,.16,0q1.94-.7,4-1.52a.42.42,0,1,0-.32-.79Z"/><path class="cls-7" d="M147.85,36l.13,0c1.42-.4,2.79-.75,4.08-1a.42.42,0,0,0-.18-.83c-1.3.28-2.69.64-4.13,1a.42.42,0,0,0,.1.83Z"/><path class="cls-7" d="M118.06,79.61q-1.9,1-3.77,1.92a.42.42,0,0,0,.17.8.43.43,0,0,0,.21,0q1.87-.93,3.78-1.93a.42.42,0,0,0-.39-.75Z"/><path class="cls-7" d="M86,70.48a.42.42,0,0,0-.6,0c-1.09,1-2.13,2-3.1,2.91a.42.42,0,1,0,.59.6c1-.94,2-1.92,3.07-2.89A.42.42,0,0,0,86,70.48Z"/><path class="cls-7" d="M74.8,83.14a.42.42,0,0,0-.57.17,12.21,12.21,0,0,0-1.48,4.1.42.42,0,0,0,.36.47h0a.42.42,0,0,0,.44-.37A11.4,11.4,0,0,1,75,83.71.42.42,0,0,0,74.8,83.14Z"/><path class="cls-7" d="M78.4,92.35A6.82,6.82,0,0,1,74.71,91a.42.42,0,1,0-.55.64,7.6,7.6,0,0,0,4.14,1.56h0a.42.42,0,0,0,.07-.84Z"/><path class="cls-7" d="M79.31,76.44c-1,1.13-1.94,2.23-2.73,3.28a.42.42,0,1,0,.68.51c.78-1,1.68-2.11,2.69-3.22a.42.42,0,0,0-.63-.57Z"/><path class="cls-7" d="M139.75,66.51q-1.71,1.19-3.5,2.37a.42.42,0,1,0,.47.71q1.8-1.19,3.51-2.38a.42.42,0,1,0-.48-.7Z"/><path class="cls-7" d="M160.38,33.14a26.61,26.61,0,0,0-4.29.22.42.42,0,0,0,0,.84h.07a25.61,25.61,0,0,1,4.15-.21.42.42,0,0,0,.44-.41A.43.43,0,0,0,160.38,33.14Z"/><path class="cls-7" d="M159.17,50.33c-.92,1-1.91,2-3,3a.42.42,0,1,0,.59.61c1.06-1,2.07-2,3-3a.42.42,0,0,0-.62-.58Z"/><path class="cls-7" d="M164.95,43.63a.43.43,0,0,0-.58.14,33.86,33.86,0,0,1-2.43,3.4.42.42,0,0,0,.06.59.42.42,0,0,0,.25.09.42.42,0,0,0,.35-.16,34.73,34.73,0,0,0,2.49-3.48A.42.42,0,0,0,164.95,43.63Z"/><path class="cls-7" d="M166.67,35.85a4.64,4.64,0,0,0-2-1.79.42.42,0,0,0-.38.76,3.54,3.54,0,0,1,2.12,3.58,7.11,7.11,0,0,1-.29,1.65.42.42,0,0,0,.29.53l.1,0a.42.42,0,0,0,.42-.3,7.94,7.94,0,0,0,.33-1.85A4.62,4.62,0,0,0,166.67,35.85Z"/><path class="cls-7" d="M132.7,71.18q-1.77,1.12-3.6,2.22a.42.42,0,1,0,.44.73q1.84-1.11,3.61-2.23a.42.42,0,1,0-.45-.72Z"/><path class="cls-7" d="M153.09,56.17c-1,.89-2.1,1.81-3.22,2.73a.42.42,0,1,0,.54.66c1.13-.92,2.22-1.85,3.24-2.75a.42.42,0,0,0-.56-.64Z"/><path class="cls-7" d="M125.47,75.54q-1.85,1.07-3.68,2.07a.42.42,0,1,0,.41.74q1.84-1,3.7-2.08a.42.42,0,1,0-.42-.73Z"/><path class="cls-7" d="M146.57,61.52q-1.64,1.26-3.38,2.54a.42.42,0,1,0,.5.68q1.75-1.28,3.4-2.55a.42.42,0,0,0-.52-.67Z"/><circle class="cls-7" cx="179.95" cy="55.51" r="10.12"/><ellipse class="cls-8" cx="179.95" cy="52.5" rx="2.86" ry="2.94"/><path class="cls-8" d="M180,55.89h-.1A5.07,5.07,0,0,0,174.83,61v3.23a9.84,9.84,0,0,0,10.24,0V61A5.07,5.07,0,0,0,180,55.89Z"/><circle class="cls-7" cx="66.75" cy="85.74" r="10.12"/><ellipse class="cls-9" cx="66.75" cy="82.74" rx="2.86" ry="2.94"/><path class="cls-9" d="M66.8,86.12h-.1a5.07,5.07,0,0,0-5.07,5.07v3.23a9.84,9.84,0,0,0,10.24,0V91.19A5.07,5.07,0,0,0,66.8,86.12Z"/><circle class="cls-7" cx="148.19" cy="89.06" r="10.12"/><ellipse class="cls-10" cx="148.19" cy="86.05" rx="2.86" ry="2.94"/><path class="cls-10" d="M148.24,89.44h-.1a5.07,5.07,0,0,0-5.07,5.07v3.23a9.84,9.84,0,0,0,10.24,0V94.51A5.07,5.07,0,0,0,148.24,89.44Z"/><circle class="cls-7" cx="159.9" cy="19.99" r="10.12"/><ellipse class="cls-9" cx="159.9" cy="16.98" rx="2.86" ry="2.94"/><path class="cls-9" d="M160,20.37h-.1a5.07,5.07,0,0,0-5.07,5.07v3.23a9.84,9.84,0,0,0,10.24,0V25.44A5.07,5.07,0,0,0,160,20.37Z"/><circle class="cls-7" cx="63.9" cy="43.57" r="10.12"/><ellipse class="cls-8" cx="63.9" cy="40.56" rx="2.86" ry="2.94"/><path class="cls-8" d="M63.95,43.95h-.1A5.07,5.07,0,0,0,58.78,49v3.23a9.84,9.84,0,0,0,10.24,0V49A5.07,5.07,0,0,0,63.95,43.95Z"/><path class="cls-7" d="M110.5,17.24h-1.93V15.3a.4.4,0,0,0-.4-.4h0a.4.4,0,0,0-.4.4v1.93h-1.93a.4.4,0,0,0-.4.4h0a.4.4,0,0,0,.4.4h1.93V20a.4.4,0,0,0,.4.4h0a.4.4,0,0,0,.4-.4V18h1.93a.4.4,0,0,0,.4-.4h0A.4.4,0,0,0,110.5,17.24Z"/><path class="cls-7" d="M179.43,89.57h-1.93V87.64a.4.4,0,0,0-.4-.4h0a.4.4,0,0,0-.4.4v1.93h-1.93a.4.4,0,0,0-.4.4h0a.4.4,0,0,0,.4.4h1.93v1.93a.4.4,0,0,0,.4.4h0a.4.4,0,0,0,.4-.4V90.38h1.93a.4.4,0,0,0,.4-.4h0A.4.4,0,0,0,179.43,89.57Z"/><path class="cls-7" d="M62.37,24.63H61.11V23.37a.26.26,0,0,0-.26-.26h0a.26.26,0,0,0-.26.26v1.26H59.33a.26.26,0,0,0-.26.26h0a.26.26,0,0,0,.26.26h1.26v1.26a.26.26,0,0,0,.26.26h0a.26.26,0,0,0,.26-.26V25.16h1.26a.26.26,0,0,0,.26-.26h0A.26.26,0,0,0,62.37,24.63Z"/><path class="cls-7" d="M186.29,27.71H185V26.46a.26.26,0,0,0-.26-.26h0a.26.26,0,0,0-.26.26v1.26h-1.26A.26.26,0,0,0,183,28h0a.26.26,0,0,0,.26.26h1.26V29.5a.26.26,0,0,0,.26.26h0a.26.26,0,0,0,.26-.26V28.24h1.26a.26.26,0,0,0,.26-.26h0A.26.26,0,0,0,186.29,27.71Z"/><path class="cls-7" d="M103.93,94.72h-1.26V93.46a.26.26,0,0,0-.26-.26h0a.26.26,0,0,0-.26.26v1.26h-1.26a.26.26,0,0,0-.26.26h0a.26.26,0,0,0,.26.26h1.26V96.5a.26.26,0,0,0,.26.26h0a.26.26,0,0,0,.26-.26V95.24h1.26a.26.26,0,0,0,.26-.26h0A.26.26,0,0,0,103.93,94.72Z"/><path class="cls-7" d="M71.35,64.42H69.42V62.49a.4.4,0,0,0-.4-.4h0a.4.4,0,0,0-.4.4v1.93H66.68a.4.4,0,0,0-.4.4h0a.4.4,0,0,0,.4.4h1.93v1.93a.4.4,0,0,0,.4.4h0a.4.4,0,0,0,.4-.4V65.23h1.93a.4.4,0,0,0,.4-.4h0A.4.4,0,0,0,71.35,64.42Z"/><path class="cls-11" d="M226.58,138.22s-1.12,5-.4,6.39,15.68,1.89,16.58.9-.6-2.7-1.39-3.09-11-4.2-11-4.2Z"/><path class="cls-11" d="M207.13,136.87h4.06s.84,4.52.48,5.53-5.44,7.28-8.06,7.28c-1.43,0-3.19,0-3.47-1.27-.23-1.06.82-3.3,1.68-4.5C203.74,141.29,207.13,136.87,207.13,136.87Z"/><path class="cls-9" d="M227.39,76.73s-9.26,2.64-15-.15a13.69,13.69,0,0,0-4,8.92c-.17,1.85-3.89,53.81-3.89,53.81h7.9s2.66-27,3.25-30.42,4.26-19.43,4.26-19.43,3.19,14.25,4.07,19.44c.14.8,1.76,30.13,1.76,30.13l7.63,0s-1-32-1-30.25C232.25,109.45,231.36,86.31,227.39,76.73Z"/><path class="cls-12" d="M244.25,37.68l5.53,12.26s-1.62,1.82-2.16,1.41S238.79,41,238,40.49,244.25,37.68,244.25,37.68Z"/><path class="cls-13" d="M239.75,42.09a28.44,28.44,0,0,1,4.09-1.37c.53-.2,1-.41,1.51-.6l-1.1-2.44S237.17,40,238,40.49a17.09,17.09,0,0,1,1.63,1.7Z"/><path class="cls-6" d="M230.54,39.21s0,3.53,2.18,4.33c0,0,11.05-4.58,13.27-5S256.31,38,256.31,38l-8.15-14.55s-3.91,7.82-7.48,10.38A68.32,68.32,0,0,1,230.54,39.21Z"/><path class="cls-11" d="M237.71,41.52l2.68-1.05a11.25,11.25,0,0,1-2.33-5c-.84.48-1.71.94-2.55,1.37A10.14,10.14,0,0,0,237.71,41.52Z"/><ellipse class="cls-14" cx="253.33" cy="29.69" rx="6.48" ry="10.88" transform="matrix(0.92, -0.38, 0.38, 0.92, 7.95, 99.29)"/><ellipse class="cls-11" cx="253.78" cy="29.5" rx="5.51" ry="9.26" transform="translate(8.05 99.44) rotate(-22.52)"/><path class="cls-15" d="M243.52,46.51c-.26-.16-.19-1.15-.14-1.4s.36-.93.08-1.31c-.49-.68-1.19,1.15-1.28,1.41a1.92,1.92,0,0,0-.13,1.22,4.8,4.8,0,0,0,1.06,1.6c-.05.18-.11.37-.18.57a12.13,12.13,0,0,1,1.33.67c.53.31.51.69,1,1l.5-1.15A23.51,23.51,0,0,0,243.52,46.51Z"/><path class="cls-15" d="M247.06,42.5c-.48-.51-1.22-.32-1.8.1-.42.31-1.64,1.29-1.31,2s1.84-.72,1.84-.72c-.58.5-1.65.89-1.38,1.39s1.67-.24,2-.45c-.31.08-1.83,1-1.22,1.49.42.33,1.54-.36,1.88-.6-.45.14-1.06.54-.94,1.16.2.34.88.11,1.25,0,.57-.23,1.11-.32,1.16-1a3.19,3.19,0,0,0,0-.39,3.89,3.89,0,0,0-.5-1.55A6.73,6.73,0,0,0,247.06,42.5Z"/><path class="cls-15" d="M212.65,39.58s2.64,10.29,1.13,11.1c0,0,5.39,11.19,7.78,10.66s1.13-10.07,1.13-10.07a4.17,4.17,0,0,1-1.84-1.06c-.46-.41-2.15-6.76-2.15-6.76Z"/><path class="cls-16" d="M217.16,56.65a6.25,6.25,0,0,1-1.34-4.22c.28-2.15,2.4-3.16,4.32-4a36.59,36.59,0,0,0-1.45-5l-6-3.88s2.64,10.29,1.13,11.1c0,0,5.39,11.19,7.78,10.66.62-.14,1-.89,1.21-1.91C220.48,59.85,218.5,58.43,217.16,56.65Z"/><path class="cls-15" d="M188.89,46.57a6.28,6.28,0,0,1-.64-1.36c-.14-.41-.24-.82-.38-1.23a3.19,3.19,0,0,1-.27-1.2,3.52,3.52,0,0,1,.15-.74c.08-.31.2-.62.26-.93s0-.56.09-.84a5,5,0,0,1,.49-1.55,5.73,5.73,0,0,1,.71-1,3.65,3.65,0,0,1,.42-.45,1.11,1.11,0,0,0,.39-.47.45.45,0,0,0-.33-.61,1.69,1.69,0,0,0-1.57.51c-.42.57-.61,1.27-1.08,1.83-1.42,1.69-2.75-.3-4.4-1a9.88,9.88,0,0,1-1.6-1c-.3-.22-1.57-1.43-2.17-1.11-.44.23.42,1.24.84,1.49.16.1,1.58,1.25,1.77,1.3a9,9,0,0,1-2.38-1.47c-.63-.49-1.23-1-1.58-.69-1.05.86,3.08,2.84,3.4,3-.34,0-3.58-2.26-3.88-1.42-.17.46.5.92,1.05,1.22s1.84.64,2.1.84c-.49.17-2.63-1.29-2.63-.4,0,.58,1.33,1,1.83,1.17s2,1.19,2.51,1.41c1.6.76,2.26.67,2.89,1.63.4.61,1.12,3.83,1.7,5.06Z"/><path class="cls-11" d="M242.63,48.16c-1.42,4.15-4.47,11.49-5.48,11-1.89-1-5.95-4.29-9-6.32a21.3,21.3,0,0,0-3.53-2l2.11,10s10,7.6,12.11,6.44c1.65-.92,5.71-12.48,7.14-17.27Z"/><path class="cls-17" d="M232.72,62.44a67.87,67.87,0,0,0-6.6-6.58l.34,4.75s10.09,7.59,12.32,6.64C236.85,66,234.09,64.22,232.72,62.44Z"/><path class="cls-11" d="M224.64,50.78l-3.8-.56a3.69,3.69,0,0,1-2.58,1.27c-1.46-.06-4.06-1.81-4.06-1.81a47.59,47.59,0,0,0-5.67,2.82s.79,6.64.33,7.51l-1.25,23s8.62,1,13,.77c7.55-.44,9.08-1.08,9.08-1.08s-.8-19.15-2.57-25C226.41,55.46,224.64,50.78,224.64,50.78Z"/><path class="cls-11" d="M210.2,52s-14.86,4.25-16.2,3.9-5.8-13-5.8-13l-3.73,1.51s4,18.31,6.55,19.16S208.86,60,208.86,60,211.66,56.28,210.2,52Z"/><path class="cls-18" d="M253,30.77a3.13,3.13,0,0,0-3.78-2.25,2.63,2.63,0,0,0-1.27.92,15.24,15.24,0,0,0,.71,2.17,14.7,14.7,0,0,0,1.9,3.31,2.55,2.55,0,0,0,.7-.11A3.13,3.13,0,0,0,253,30.77Z"/><path class="cls-15" d="M212.46,34.54a6.36,6.36,0,0,1,4.52-2c2.67.09,4.23.47,5.05,2.58s2.27,7.47,2.27,7.47-.14,4.9-4.57,3.56S210.54,42,211.13,40,212.46,34.54,212.46,34.54Z"/><path class="cls-11" d="M213.09,33.67s2.37.72,2.35,1.81a11.48,11.48,0,0,0,.37,5.39s-.64.56-1.14.11-.22-2.44-1.54-2.14-1,2.65.45,2.86a3.84,3.84,0,0,0,2.68,1.38c1.44-.1,3.24-1.72,4-1.86a10.59,10.59,0,0,1,3.67,0s2,5.57-.3,6.63-7.94-.55-10.92-3.64c0,0-3.3.11-3-4.42.25-3.42-2-4.18-.14-6.62C210.86,31.45,213.09,33.67,213.09,33.67Z"/><path class="cls-11" d="M210.46,32.75s.58-2.53,4.42-3.09,4.25,1.63,5.69,1.74,1.74-.73,1.19-1c0,0,.91-.93,2.54,1.12s-.53,5.29-3.56,5.67C217.13,37.6,213.22,36.78,210.46,32.75Z"/><path class="cls-7" d="M222.68,43.27a5.76,5.76,0,0,1-2.84.46s.3.77,1.88.64C222.62,44.29,222.68,43.27,222.68,43.27Z"/></g></g></svg>