<svg xmlns="http://www.w3.org/2000/svg" xmlns:xlink="http://www.w3.org/1999/xlink" viewBox="0 0 300 150"><defs><style>.cls-1{isolation:isolate;}.cls-2{fill:#b57d00;}.cls-3{fill:#db8c00;}.cls-4{fill:#d89000;}.cls-5{fill:#bc7800;}.cls-6{fill:#e0e0e0;}.cls-7{fill:#196e90;}.cls-8{fill:#1fa1bf;}.cls-9{fill:#198baf;}.cls-10{fill:#114c63;}.cls-11{fill:#77d6e5;}.cls-12{fill:#e04b00;}.cls-13{fill:#ff6700;}.cls-14{fill:#d1e2e8;}.cls-15{fill:#e25b00;}.cls-16{fill:#ff822e;}.cls-17{fill:#1ab79c;}.cls-18{fill:#63bace;}.cls-19{fill:#78cbe6;}.cls-20{fill:#42a1b7;}.cls-21{fill:#2c8391;}.cls-22{fill:#c6c6c6;}.cls-23{fill:url(#linear-gradient);}.cls-24{fill:#dadae8;}.cls-25,.cls-30{fill:#84849b;}.cls-26,.cls-29{fill:#bdbdd1;}.cls-27,.cls-30,.cls-42,.cls-51{opacity:0.4;}.cls-103,.cls-107,.cls-108,.cls-27,.cls-28,.cls-30,.cls-36,.cls-42,.cls-50,.cls-51,.cls-52,.cls-54,.cls-55,.cls-59,.cls-62,.cls-64,.cls-81,.cls-82,.cls-87,.cls-88,.cls-89{mix-blend-mode:multiply;}.cls-27{fill:url(#linear-gradient-2);}.cls-28{opacity:0.8;fill:url(#linear-gradient-3);}.cls-103,.cls-107,.cls-29,.cls-50,.cls-52,.cls-54,.cls-55,.cls-81,.cls-87,.cls-88,.cls-89{opacity:0.3;}.cls-29,.cls-41{mix-blend-mode:screen;}.cls-31{fill:#34344c;}.cls-32{fill:#8e8e8e;}.cls-33{fill:#686868;}.cls-34{fill:#a8a8a8;}.cls-35{fill:url(#radial-gradient);}.cls-36,.cls-59{opacity:0.2;}.cls-36{fill:url(#radial-gradient-2);}.cls-37{fill:#434351;}.cls-38{fill:#4f4f59;}.cls-39{fill:#3b3b44;}.cls-40{fill:#2e2e35;}.cls-41,.cls-95{fill:#fff;}.cls-108,.cls-41,.cls-62{opacity:0.1;}.cls-42{fill:#98b6be;}.cls-43,.cls-52{fill:#139da0;}.cls-44{fill:#1e4784;}.cls-45{fill:url(#linear-gradient-4);}.cls-46{fill:#dd8d19;}.cls-47{fill:#2d123e;}.cls-48{fill:url(#linear-gradient-5);}.cls-49{fill:url(#linear-gradient-6);}.cls-50{fill:#e28617;}.cls-51{fill:#406985;}.cls-53{fill:#0f9191;}.cls-54{fill:url(#linear-gradient-7);}.cls-55{fill:url(#linear-gradient-8);}.cls-56{fill:#10203d;}.cls-57{fill:#4f2a1a;}.cls-58{fill:url(#linear-gradient-9);}.cls-59,.cls-61,.cls-62{fill:#421d11;}.cls-60{fill:#15af91;}.cls-63{fill:#09172b;}.cls-64{fill:#2e2e42;opacity:0.23;}.cls-65{fill:#323247;}.cls-66{fill:url(#linear-gradient-10);}.cls-67{fill:#ffda7d;}.cls-68{fill:url(#radial-gradient-3);}.cls-69{fill:#245084;}.cls-70{fill:#65657c;}.cls-71{fill:#152e51;}.cls-72{fill:#0a1b33;}.cls-73{fill:#f2b725;}.cls-74{fill:#204572;}.cls-75{fill:#284cb2;}.cls-76{fill:#3333bc;}.cls-77{fill:#3f3faa;}.cls-78{fill:#e5ca48;}.cls-79{opacity:0.6;mix-blend-mode:overlay;fill:url(#linear-gradient-11);}.cls-80{fill:url(#linear-gradient-12);}.cls-81{fill:url(#linear-gradient-13);}.cls-82{opacity:0.5;fill:url(#linear-gradient-14);}.cls-83{fill:#ad1212;}.cls-84{fill:#0b162d;}.cls-85{fill:url(#linear-gradient-15);}.cls-86{fill:url(#linear-gradient-16);}.cls-87{fill:#e92440;}.cls-88{fill:url(#linear-gradient-17);}.cls-89{fill:url(#linear-gradient-18);}.cls-90{fill:url(#linear-gradient-19);}.cls-91{fill:url(#linear-gradient-20);}.cls-92{fill:#f2e6d1;}.cls-93{fill:#cc0f0a;}.cls-94{fill:#a5190f;}.cls-96{fill:#d32e1c;}.cls-97{fill:#f9efe1;}.cls-98{fill:#1663a3;}.cls-99{fill:#e22020;}.cls-100{fill:#baab9b;}.cls-101{fill:url(#linear-gradient-21);}.cls-102{fill:url(#linear-gradient-22);}.cls-103{fill:url(#linear-gradient-23);}.cls-104{fill:url(#linear-gradient-24);}.cls-105,.cls-108{fill:#cb6e05;}.cls-106{fill:url(#linear-gradient-25);}.cls-107{fill:url(#linear-gradient-26);}</style><linearGradient id="linear-gradient" x1="150.86" y1="126.71" x2="125.22" y2="96.81" gradientUnits="userSpaceOnUse"><stop offset="0" stop-color="#dadae8"/><stop offset="0.54" stop-color="#bdbdd1"/><stop offset="1" stop-color="#84849b"/></linearGradient><linearGradient id="linear-gradient-2" x1="136.67" y1="110.05" x2="127.29" y2="99.1" xlink:href="#linear-gradient"/><linearGradient id="linear-gradient-3" x1="127.51" y1="113.02" x2="120.22" y2="104.53" xlink:href="#linear-gradient"/><radialGradient id="radial-gradient" cx="126.28" cy="53.45" r="3.64" gradientUnits="userSpaceOnUse"><stop offset="0" stop-color="#888685"/><stop offset="0.99" stop-color="#717177"/></radialGradient><radialGradient id="radial-gradient-2" cx="126.36" cy="54.79" r="2.97" xlink:href="#radial-gradient"/><linearGradient id="linear-gradient-4" x1="-949.55" y1="138.43" x2="-946.25" y2="138.43" gradientTransform="matrix(-1, 0, 0, 1, -751.67, 0)" gradientUnits="userSpaceOnUse"><stop offset="0.01" stop-color="#daa191"/><stop offset="0.99" stop-color="#de807a"/></linearGradient><linearGradient id="linear-gradient-5" x1="-942.7" y1="139.89" x2="-939.52" y2="139.89" xlink:href="#linear-gradient-4"/><linearGradient id="linear-gradient-6" x1="178.19" y1="73.44" x2="163.94" y2="84.71" gradientTransform="matrix(1, 0, 0, 1, 0, 0)" xlink:href="#linear-gradient-4"/><linearGradient id="linear-gradient-7" x1="-939.51" y1="60.48" x2="-947" y2="66.4" xlink:href="#linear-gradient-4"/><linearGradient id="linear-gradient-8" x1="168.86" y1="72.03" x2="181.44" y2="94.63" gradientTransform="matrix(1, 0, 0, 1, 0, 0)" xlink:href="#linear-gradient-4"/><linearGradient id="linear-gradient-9" x1="-937.88" y1="52.62" x2="-944.73" y2="66.88" xlink:href="#linear-gradient-4"/><linearGradient id="linear-gradient-10" x1="197.73" y1="52.57" x2="196.62" y2="55.52" gradientUnits="userSpaceOnUse"><stop offset="0" stop-color="#ffd150"/><stop offset="1" stop-color="#f2b725"/></linearGradient><radialGradient id="radial-gradient-3" cx="197.19" cy="51.97" r="0.55" xlink:href="#linear-gradient-10"/><linearGradient id="linear-gradient-11" x1="116.61" y1="53.62" x2="161.89" y2="51.06" gradientUnits="userSpaceOnUse"><stop offset="0" stop-color="#ffc440"/><stop offset="1" stop-color="#eeeeef"/></linearGradient><linearGradient id="linear-gradient-12" x1="165.81" y1="19.77" x2="158.24" y2="33.17" gradientTransform="matrix(1, 0, 0, 1, 0, 0)" xlink:href="#linear-gradient-4"/><linearGradient id="linear-gradient-13" x1="160.62" y1="25.19" x2="166.15" y2="35.12" gradientTransform="matrix(1, 0, 0, 1, 0, 0)" xlink:href="#linear-gradient-4"/><linearGradient id="linear-gradient-14" x1="401.28" y1="44.1" x2="413.21" y2="44.1" gradientTransform="matrix(-1, -0.02, -0.02, 1, 570.24, -5.61)" gradientUnits="userSpaceOnUse"><stop offset="0.01" stop-color="#c9d9dc"/><stop offset="0.99" stop-color="#b8cfd4"/></linearGradient><linearGradient id="linear-gradient-15" x1="404.23" y1="93.73" x2="421.17" y2="81.66" gradientTransform="matrix(-1, -0.02, -0.02, 1, 570.24, -5.61)" xlink:href="#linear-gradient-4"/><linearGradient id="linear-gradient-16" x1="413.1" y1="98.43" x2="429.68" y2="86.62" gradientTransform="matrix(-1, -0.02, -0.02, 1, 570.24, -5.61)" xlink:href="#linear-gradient-4"/><linearGradient id="linear-gradient-17" x1="409.52" y1="82.22" x2="421.98" y2="104.61" gradientTransform="matrix(-1, -0.02, -0.02, 1, 570.24, -5.61)" xlink:href="#linear-gradient-4"/><linearGradient id="linear-gradient-18" x1="419.13" y1="86.97" x2="431.32" y2="108.88" gradientTransform="matrix(-1, -0.02, -0.02, 1, 570.24, -5.61)" xlink:href="#linear-gradient-4"/><linearGradient id="linear-gradient-19" x1="168.14" y1="24.6" x2="168.94" y2="24.6" gradientTransform="matrix(1, 0, 0, 1, 0, 0)" xlink:href="#linear-gradient-4"/><linearGradient id="linear-gradient-20" x1="168.87" y1="25.15" x2="169.67" y2="25.15" gradientTransform="matrix(1, 0, 0, 1, 0, 0)" xlink:href="#linear-gradient-4"/><linearGradient id="linear-gradient-21" x1="140.96" y1="26.66" x2="159.88" y2="26.66" gradientTransform="matrix(1, 0, 0, 1, 0, 0)" xlink:href="#linear-gradient-4"/><linearGradient id="linear-gradient-22" x1="166.04" y1="24.04" x2="170.34" y2="24.04" gradientTransform="matrix(1, 0, 0, 1, 0, 0)" xlink:href="#linear-gradient-4"/><linearGradient id="linear-gradient-23" x1="141.84" y1="18.48" x2="155.66" y2="43.3" gradientTransform="matrix(1, 0, 0, 1, 0, 0)" xlink:href="#linear-gradient-4"/><linearGradient id="linear-gradient-24" x1="139.77" y1="-24.42" x2="157.64" y2="25.85" gradientTransform="matrix(1, 0, 0, 1, 0, 0)" xlink:href="#linear-gradient-4"/><linearGradient id="linear-gradient-25" x1="147.72" y1="17.48" x2="154.29" y2="17.48" gradientTransform="matrix(1, 0, 0, 1, 0, 0)" xlink:href="#linear-gradient-4"/><linearGradient id="linear-gradient-26" x1="150.13" y1="11.45" x2="153.54" y2="17.57" gradientTransform="matrix(1, 0, 0, 1, 0, 0)" xlink:href="#linear-gradient-4"/></defs><title>best-teachers</title><g class="cls-1"><g id="Layer_1" data-name="Layer 1"><g class="cls-1"><polygon class="cls-2" points="163.72 121.97 193.07 105.15 193.03 99.85 163.69 116.68 163.72 121.97"/><polygon class="cls-3" points="193.03 99.85 172.76 87.93 143.42 104.75 163.69 116.68 193.03 99.85"/><polygon class="cls-4" points="163.72 121.97 163.69 116.68 143.4 104.75 143.41 105.47 143.84 105.7 143.86 109.9 143.44 109.68 143.44 110.27 163.72 121.97"/><polygon class="cls-5" points="163.24 121.15 163.24 120.27 163.21 116.95 143.84 105.7 143.86 109.9 163.24 121.15"/><polygon class="cls-6" points="163.24 121.13 163.21 116.92 143.84 105.68 143.86 109.88 163.24 121.13"/></g><polygon class="cls-3" points="166.36 120.31 166.32 115.42 164.46 116.49 164.5 121.38 166.36 120.31"/><polygon class="cls-3" points="169.56 118.45 169.53 113.57 167.67 114.64 167.7 119.53 169.56 118.45"/><polygon class="cls-3" points="172.76 116.6 172.73 111.72 170.87 112.79 170.9 117.68 172.76 116.6"/><polygon class="cls-3" points="175.97 114.75 175.93 109.87 174.07 110.94 174.11 115.83 175.97 114.75"/><polygon class="cls-3" points="179.17 112.91 179.14 108.02 177.28 109.09 177.31 113.98 179.17 112.91"/><polygon class="cls-3" points="182.38 111.06 182.34 106.17 180.48 107.24 180.52 112.13 182.38 111.06"/><g class="cls-1"><polygon class="cls-7" points="164.72 115.11 190.75 100.17 190.75 96.36 164.72 111.29 164.72 115.11"/><polygon class="cls-8" points="190.75 96.36 172.37 85.96 146.47 100.92 164.72 111.29 190.75 96.36"/><polygon class="cls-9" points="164.72 111.29 146.47 100.91 146.47 101.36 146.89 101.61 146.89 104.47 146.47 104.25 146.47 104.73 164.72 115.11 164.72 111.29"/><polygon class="cls-10" points="164.3 114.39 164.3 113.73 164.3 111.54 146.89 101.61 146.89 104.47 164.3 114.39"/><polygon class="cls-6" points="164.3 114.39 164.3 111.54 146.9 101.61 146.89 104.47 164.3 114.39"/></g><polygon class="cls-9" points="189.28 100.06 189.28 98.08 167.16 110.86 167.16 112.83 189.28 100.06"/><polygon class="cls-10" points="146.47 104.25 146.89 103.99 146.89 104.47 146.47 104.25"/><polygon class="cls-11" points="186.19 97.16 181.88 99.67 167.38 91.28 171.78 88.74 186.19 97.16"/><path class="cls-11" d="M164.52,106.49l-8.81-5.12a.12.12,0,0,1,0-.21l13.12-7.64a.12.12,0,0,1,.12,0l8.85,5.12a.12.12,0,0,1,.06.1.13.13,0,0,1-.06.11l-13.16,7.63-.06,0Zm4.36-12.72L156,101.27l8.57,5,12.91-7.49Z"/><polygon class="cls-12" points="167.85 106.1 185.1 96.07 173.42 89.33 156.16 99.36 167.85 106.1"/><polygon class="cls-13" points="168.3 106.78 185.56 96.75 185.58 91.04 168.32 101.07 168.3 106.78"/><g class="cls-1"><path class="cls-14" d="M156.52,99.18l11.37,6.58v-4.64l-11.37-6.58a7.45,7.45,0,0,1,.32,2.48A4.68,4.68,0,0,1,156.52,99.18Z"/></g><polygon class="cls-15" points="156.18 94.06 156.18 94.5 167.86 101.25 167.85 106.1 156.16 99.36 156.16 99.77 168.3 106.78 168.32 101.07 156.18 94.06"/><polygon class="cls-16" points="168.32 101.07 185.58 91.04 173.43 84.03 156.18 94.06 168.32 101.07"/><polygon class="cls-17" points="184.39 91.04 173.43 84.71 157.36 94.06 168.32 100.38 184.39 91.04"/><polygon class="cls-16" points="182.82 91.04 173.44 85.63 158.94 94.05 168.32 99.47 182.82 91.04"/><polygon class="cls-18" points="112.79 149.02 91.23 136.66 91.23 131.09 112.79 143.45 112.79 149.02"/><polygon class="cls-19" points="91.23 131.09 110.25 120.25 131.81 132.61 112.79 143.45 91.23 131.09"/><polygon class="cls-20" points="112.79 149.02 112.79 143.45 131.81 132.63 131.81 133.04 131.25 133.34 131.25 137.75 131.81 137.41 131.81 138.2 112.79 149.02"/><polygon class="cls-6" points="113.24 148.13 113.24 143.71 131.25 133.34 131.25 137.75 113.24 148.13"/><path class="cls-20" d="M92.91,133.09l0,0a.13.13,0,0,1,.11,0l18,10.39a.11.11,0,0,1,.06.1V147a.11.11,0,0,1-.06.1.1.1,0,0,1-.11,0L93,136.67a.11.11,0,0,1-.06-.1v-3.42A.13.13,0,0,1,92.91,133.09Zm18,10.52L93.12,133.35v3.16l17.78,10.27Z"/><polygon class="cls-21" points="131.81 137.41 131.25 137.16 131.25 137.75 131.81 137.41"/><path class="cls-22" d="M152.92,123.64l-15.75,9.15a.22.22,0,0,0,.09-.2.7.7,0,0,0-.32-.55l-14.5-8.37a13.69,13.69,0,0,1-1.84-1.25,6.42,6.42,0,0,1-.85-.83,3.26,3.26,0,0,1-.63-1,3,3,0,0,1-.17-1,5.44,5.44,0,0,1,.09-.89,4.64,4.64,0,0,1,.22-.78,36.82,36.82,0,0,1,2.4-5c1.65-3,3.79-6.49,5.51-9.23.86-1.37,1.62-2.55,2.16-3.39l.64-1,.23-.35,15.75-9.15-.23.35-.64,1c-.54.84-1.3,2-2.16,3.39-1.72,2.74-3.85,6.23-5.51,9.23a37.12,37.12,0,0,0-2.4,5,5.22,5.22,0,0,0-.22.78,5.43,5.43,0,0,0-.09.89,3,3,0,0,0,.16,1,3.37,3.37,0,0,0,.63,1,6.5,6.5,0,0,0,.85.82,13.41,13.41,0,0,0,1.84,1.25l14.5,8.37a.71.71,0,0,1,.31.55A.22.22,0,0,1,152.92,123.64Z"/><path class="cls-23" d="M150.46,121.6l-7.17-4.14-1.36-.79-3.73-2.15-.14-.08-.52-.32-.41-.27-.34-.24-.28-.22-.14.08.11-.07c0-.07-.06-.09-.12-.13l-.09-.07-.19-.17a3.73,3.73,0,0,1-1.32-2.13.05.05,0,0,1,0,0s0,0,0-.06a.5.5,0,0,1,0-.09,4.84,4.84,0,0,1,.29-2l.15-.38c.16-.42.37-.89.62-1.41.44-.94,1-2,1.64-3.17,1.65-3,3.79-6.49,5.51-9.23l.78-1.24,1.38-2.15.64-1,.22-.35L130.19,99l-.22.34-.64,1L128,102.44l-.78,1.24c-1.72,2.74-3.85,6.23-5.51,9.23-.64,1.15-1.2,2.23-1.64,3.16-.22.47-.42.91-.57,1.29a.19.19,0,0,1,0,.05,2.51,2.51,0,0,0-.09.25l-.08.2-.11.35A4.41,4.41,0,0,0,119,120a.34.34,0,0,0,0,.09h0a2.76,2.76,0,0,0,.2.68,3.6,3.6,0,0,0,.43.73,6.22,6.22,0,0,0,1.12,1.09l.28.21.34.24.42.27.52.31.13.08,3.68,2.12.54.31.15.08,1.58.91.32.18,1.92,1.11.55.32.15.09.67.38,1.93,1.11.26.15.46.27,2.29,1.33h0l15.75-9.15Z"/><path class="cls-24" d="M153,123.42h0v0a0,0,0,0,0,0,0v-.07a0,0,0,0,1,0,0v0h0v0h0v-.07l0,0,0,0v0h0v0h-.1L137,132h.16l0,0,0,0,0,0,0,0v.05h0v0h0v0h0v0h0v0h0v0h0v0h0v.09a.15.15,0,0,1-.05.05l15.75-9.15.05-.05v-.07h0a.08.08,0,0,1,0,0v0h0Z"/><path class="cls-25" d="M137.26,132.59c0,.2-.14.28-.32.18l-14.5-8.37a23.74,23.74,0,0,1-2.83-2.16c-.57-.49-.34-.33-.65-.83a4.47,4.47,0,0,1-.46-1,2.92,2.92,0,0,1-.09-.36,3.87,3.87,0,0,1-.09-.87,6.08,6.08,0,0,1,.1-1,5.28,5.28,0,0,1,.24-.87c.11-.33.26-.7.44-1.1.35-.8.81-1.73,1.35-2.75,1.08-2,2.46-4.4,3.82-6.64,2.72-4.49,5.36-8.52,5.36-8.52s.17-.1.28,0a.62.62,0,0,1,.15.13.54.54,0,0,1,.12.57l-.23.35-.64,1c-.54.84-1.3,2-2.16,3.39-1.72,2.74-3.85,6.23-5.51,9.23a36.54,36.54,0,0,0-2.4,5,5,5,0,0,0-.3,1.68h0a2.91,2.91,0,0,0,.17,1,3.25,3.25,0,0,0,.63,1,6.61,6.61,0,0,0,.85.83,13.68,13.68,0,0,0,1.84,1.25l14.5,8.37A.7.7,0,0,1,137.26,132.59Z"/><path class="cls-26" d="M146,89.63v0h0v0h0v0h0v0h0v0h0v0l0,0v0h0l0,0v0h0v0h-.35L129.7,98.23l0,0h.06a.25.25,0,0,1,.12,0l.08.05h0l.07.08,0,.07h0l0,.07h0l0,.08h0a.55.55,0,0,1,0,.15h0a.28.28,0,0,1,0,.07h0a.19.19,0,0,1,0,.06h0l0,.05,15.75-9.15h0v0h0v0h0v0Z"/><path class="cls-27" d="M145.94,89.8l-.22.35-.64,1-1.38,2.15-.78,1.24c-1.72,2.74-3.85,6.23-5.51,9.23-.63,1.15-1.2,2.23-1.64,3.17-.25.52-.46,1-.62,1.41l-.15.38a4.84,4.84,0,0,0-.29,2,.5.5,0,0,0,0,.09s0,0,0,.06c-4.35,2.73-11.86,7.46-15.54,9.86a2.76,2.76,0,0,1-.2-.68h0a.34.34,0,0,1,0-.09,4.41,4.41,0,0,1,.16-1.75l.11-.35.08-.2a2.51,2.51,0,0,1,.09-.25.19.19,0,0,0,0-.05c.15-.38.35-.82.57-1.29.44-.93,1-2,1.64-3.16,1.65-3,3.79-6.49,5.51-9.23l.78-1.24,1.38-2.15.64-1,.22-.34Z"/><path class="cls-28" d="M130.2,98.95l-.23.35-.64,1c-.54.84-1.3,2-2.16,3.39-1.72,2.74-3.85,6.23-5.51,9.23a36.54,36.54,0,0,0-2.4,5,5,5,0,0,0-.3,1.68h0l-.42.52-.13,0a3.87,3.87,0,0,1-.09-.87,6.08,6.08,0,0,1,.1-1,5.28,5.28,0,0,1,.24-.87c.11-.33.26-.7.44-1.1.35-.8.81-1.73,1.35-2.75,1.08-2,2.46-4.4,3.82-6.64,2.72-4.49,5.36-8.52,5.36-8.52s.17-.1.28,0a.62.62,0,0,1,.15.13A.54.54,0,0,1,130.2,98.95Z"/><path class="cls-29" d="M150.46,121.6l-15.8,9.12-.46-.27-.26-.15L132,129.19l-.67-.38-.15-.09-.55-.32-1.92-1.11-.32-.18-1.58-.91-.15-.08-.54-.31,17.16-8.34Z"/><path class="cls-26" d="M158,41.51l-.11,0h0l-.1,0h0l-.13,0h-.19l-.09,0-.07,0-.08,0-.13,0-.07,0-.23.11-5.06,2.92L119,63.46l-20.71,12-1.55-.9,20.34-11.74,33-19.08,5.13-3,.22-.11h0l0,0,.12,0h.66l0,0h0l.09,0Z"/><path class="cls-24" d="M158.71,91a3.92,3.92,0,0,1-1.78,3.08l-9.35,5.4-21.83,12.6L98.42,127.91c-1,.57-1.79.11-1.79-1l0-5.14L96.49,78.5a3.92,3.92,0,0,1,1.78-3.08L143,49.6l13.8-8a2,2,0,0,1,.44-.19c.78-.22,1.35.25,1.36,1.22l.12,43.24Z"/><path class="cls-25" d="M98.27,75.42l-.28.19,0,0-.25.22-.06.06-.12.13-.07.07-.07.09-.08.1,0,.07-.09.13,0,0-.11.18v0l-.09.16,0,.05-.08.17v0l-.08.2,0,.05,0,.14a.32.32,0,0,0,0,.07l0,.13,0,.09,0,.1,0,.14v.08c0,.11,0,.21,0,.31l.05,18.78.09,29.61a1.25,1.25,0,0,0,.52,1.15L96,127.36l-.39-.22a1.25,1.25,0,0,1-.52-1.14L95,95.17,94.94,77.6a2.23,2.23,0,0,1,0-.31v0a.28.28,0,0,0,0,0l0-.14s0,0,0-.06a.35.35,0,0,0,0,0l0-.09,0-.09v0a.29.29,0,0,0,0-.07l0-.06,0-.08,0-.06v0l.07-.16h0v0l.06-.13,0,0,0-.05,0-.05.06-.11,0,0h0l.09-.15v0l0-.05.05-.08,0,0,.05-.07,0,0,0-.06.07-.08,0,0,0,0,.12-.13,0,0,0,0a3,3,0,0,1,.25-.22l0,0,.28-.19Z"/><path class="cls-30" d="M97.15,128,96,127.36l-.39-.22a1.25,1.25,0,0,1-.52-1.14L95,95.17l1.55,2.11.09,29.61A1.25,1.25,0,0,0,97.15,128Z"/><path class="cls-31" d="M158.7,85.9,96.61,121.75,96.49,78.5a3.93,3.93,0,0,1,1.78-3.08l58.52-33.78c1-.57,1.79-.11,1.79,1Z"/><polygon class="cls-24" points="156.85 43.91 156.85 84.51 135.02 97.13 132.56 98.56 131.53 99.15 130.92 99.51 117.81 107.09 116.58 107.81 115.58 108.39 115.47 108.45 112.5 110.17 111.85 110.54 98.27 118.4 98.27 77.82 156.85 43.91"/><path class="cls-29" d="M157.22,41.45l-9.64,58.09-21.83,12.6L143,49.6l13.8-8A2,2,0,0,1,157.22,41.45Z"/><g class="cls-1"><polygon class="cls-32" points="124.97 57.93 126.86 56.83 126.85 57.11 124.97 58.19 124.97 57.93"/><polygon class="cls-33" points="127.18 58.81 127.17 59.98 126.9 59.83 126.9 59.04 124.97 57.93 124.97 58.19 124.62 58.39 124.63 57.34 127.18 58.81"/><polygon class="cls-32" points="127.18 58.81 129.06 57.72 129.06 58.89 127.17 59.98 127.18 58.81"/><polygon class="cls-34" points="126.52 56.24 124.63 57.34 127.18 58.81 129.06 57.72 126.52 56.24"/></g><path class="cls-32" d="M126.39,56.4v1.13a.3.3,0,0,0,.18.25,1,1,0,0,0,.87,0,.3.3,0,0,0,.18-.25h0V56.4Z"/><path class="cls-33" d="M127.43,56.15a.26.26,0,0,1,0,.5,1,1,0,0,1-.87,0,.27.27,0,0,1,0-.5A1,1,0,0,1,127.43,56.15Z"/><circle class="cls-35" cx="127.29" cy="54.67" r="2.47"/><path class="cls-36" d="M129.76,54.67a2.47,2.47,0,0,1-4.84.73A2.89,2.89,0,0,0,129.67,54,2.5,2.5,0,0,1,129.76,54.67Z"/><path class="cls-37" d="M128.31,57l.19-.33.08,0a2.46,2.46,0,0,0,1.11-1.92.89.89,0,0,0,0-.09l.19-.33-.51-.3h0a.78.78,0,0,0-.78.08A2.45,2.45,0,0,0,127.47,56a.79.79,0,0,0,.33.72h0Z"/><path class="cls-38" d="M129,56.9c-.61.35-1.11.07-1.11-.64A2.45,2.45,0,0,1,129,54.34c.61-.35,1.11-.07,1.11.64A2.45,2.45,0,0,1,129,56.9Z"/><path class="cls-39" d="M128.51,55.31a2,2,0,0,1,.68-.72.52.52,0,0,1,.48-.08.51.51,0,0,1,.18.46,2,2,0,0,1-.28.94,2,2,0,0,1-.67.72.52.52,0,0,1-.49.08.51.51,0,0,1-.17-.46A2,2,0,0,1,128.51,55.31Z"/><path class="cls-40" d="M128.86,55.8c-.16.09-.29,0-.29-.17a.64.64,0,0,1,.29-.5c.16-.09.29,0,.29.17A.64.64,0,0,1,128.86,55.8Z"/><circle class="cls-41" cx="126.41" cy="53.46" r="0.55"/><path class="cls-42" d="M198.14,134.65c4,2.31,4,6,0,8.35a16,16,0,0,1-14.47,0c-4-2.31-4-6,0-8.35A16,16,0,0,1,198.14,134.65Z"/><path class="cls-43" d="M185.06,84.62a5.4,5.4,0,0,0-.26-1.41c-.71-2.33-2.67-4.87-2.67-8.45a6.4,6.4,0,0,1,.89-3.55,3.26,3.26,0,0,1,1.23-1.2l6.09-3.52.15-.09L195,63.8l1.52-.88h.06l0,0h0l0,0,2.12-1.22c3.53-2,6.7,3.32,4,11.4-.83,2.49-1.22,3.85-1.44,4.74h0c-.25,1-.28,1.43-.52,2.24a8.51,8.51,0,0,0,.72,5.74,35.68,35.68,0,0,1,1.85,6.05v.1h0a1.63,1.63,0,0,1-.08.24l-.1.22c-.46,1-2.09,3.22-7.6,5a19.39,19.39,0,0,1-10.27.64,14.12,14.12,0,0,1-1.4-.39c-.27-.09-.45-.17-.56-.21a1.62,1.62,0,0,1,0-.3C183.69,95.43,185.15,87.09,185.06,84.62Z"/><path class="cls-44" d="M193.12,135.76c0,.46,1.85,5.12,1.85,5.12a1.8,1.8,0,0,0,2.79.28,1.22,1.22,0,0,0,.27-.73,7,7,0,0,0-.32-2.93,4.32,4.32,0,0,0-3.28-3.3,1,1,0,0,0-1.14.45A2.07,2.07,0,0,0,193.12,135.76Z"/><path class="cls-44" d="M182.3,139.32a1.38,1.38,0,0,0,.55,1,19.11,19.11,0,0,0,5.05,2.72c2.11.64,2.73-.29,2.73-.29a1.79,1.79,0,0,0,.2-.59,2.89,2.89,0,0,0-.17-1.73c-.82-1.31-3.69-1.45-6.73-2.35A1.15,1.15,0,0,0,182.3,139.32Z"/><path class="cls-45" d="M197.87,137a9.4,9.4,0,0,1-.22,2.24,1.77,1.77,0,0,1-2.31.4c-1.09-.51-.71-2.54-.71-2.54a2.81,2.81,0,0,0,1.73.48A3.23,3.23,0,0,0,197.87,137Z"/><path class="cls-46" d="M183.41,97.42c.08,2.23.23,4.35.42,6.36,0,0,0,0,0,.05A110.49,110.49,0,0,0,186.56,120c1.07,4.32,1.36,18.66,1.36,18.66l.31.14a2.84,2.84,0,0,0,2.09,0,2.81,2.81,0,0,0,.89-.53s2.8-10.93,2.43-15.18-2.52-5.88-2.3-8,2.09-12.25,2.09-12.25,1.86,15.36,1.72,20.79-.5,13.43-.5,13.43a2.85,2.85,0,0,0,.64.48,2,2,0,0,0,1.43.23,2.57,2.57,0,0,0,1.58-1.55c.8-2.7,3.56-10.46,3.27-15.38s-2.21-8.14-2.14-9.31a137,137,0,0,1,3.43-14.33,9.39,9.39,0,0,0,.49-5.08l-.1.22c-.46,1-2.09,3.22-7.6,5a19.44,19.44,0,0,1-10.1.68,13.89,13.89,0,0,1-1.56-.42C183.71,97.54,183.52,97.46,183.41,97.42Z"/><path class="cls-47" d="M183.41,97.42c0-.1,0-.2,0-.3h.05A1.78,1.78,0,0,0,183.41,97.42Z"/><path class="cls-48" d="M191,138.45l-.39,2.25s-.12.73-1.54.62c-1-.07-1.27-.33-1.25-1,0-.47.07-1.65.07-1.65a4.25,4.25,0,0,0,1.81.31A2.83,2.83,0,0,0,191,138.45Z"/><path class="cls-49" d="M183.44,81.25c-1.57,1.66-5.34,5.56-6.69,6a1.61,1.61,0,0,1-1.5-.05,49.05,49.05,0,0,1-12-9.31l0,0-.08-.08h0c-.37-.42-1.76-1.84-1.63-2.15l0,0c.18-.14.76.61.95.47s-1.22-1.65-1-1.75,1.45,1.38,1.58,1.19-1.42-2.11-1-2.12,1.42,1.81,1.66,1.78c0,0-.59-1.63-.27-1.58s1,2.22,1.31,2.1,1.38-1.44,1.31-1a6.61,6.61,0,0,1-.91,1.68s8.79,5,10,5.68l4-4.4a11.89,11.89,0,0,0,3,2.75l.07,0C182.7,80.81,183.15,81.08,183.44,81.25Z"/><path class="cls-50" d="M201.85,98.08c-1.14.22-6.06,1-7.28,1.43s-2.88,2.29-7,1.69a6.79,6.79,0,0,0,6.41-.11c3.52-1.86,2.65-.64,4.48-1.08A8.84,8.84,0,0,0,201.85,98.08Z"/><path class="cls-51" d="M193.12,135.76c0,.46,1.85,5.12,1.85,5.12a1.8,1.8,0,0,0,2.79.28,1.22,1.22,0,0,0,.27-.73,2,2,0,0,1-2.59.37,15.56,15.56,0,0,1-1.61-3.66,8.51,8.51,0,0,1-.54-2.49A2.07,2.07,0,0,0,193.12,135.76Z"/><path class="cls-51" d="M182.3,139.32a1.38,1.38,0,0,0,.55,1,19.11,19.11,0,0,0,5.05,2.72c2.11.64,2.73-.29,2.73-.29a1.79,1.79,0,0,0,.2-.59,2.15,2.15,0,0,1-1.59.75c-1.24,0-2.91-.86-4.41-1.72A10.89,10.89,0,0,1,182.3,139.32Z"/><path class="cls-50" d="M190.32,138.83a2.81,2.81,0,0,0,.89-.53s2.8-10.93,2.43-15.18-2.52-5.88-2.3-8,2.09-12.25,2.09-12.25,1.86,15.36,1.72,20.79-.5,13.43-.5,13.43a2.85,2.85,0,0,0,.64.48c.17-1.21.37-3,.58-5.52.51-6.16.86-10.18.36-13.88s-1.35-10.93-1.89-13.67a12,12,0,0,0-.84-3.19s-3.23,10.86-3.12,13.53,2.36,8.09,1.77,14.1A63.71,63.71,0,0,1,190.32,138.83Z"/><path class="cls-50" d="M183.41,97.42c.08,2.23.23,4.35.42,6.36,0,0,0,0,0,.05A110.49,110.49,0,0,0,186.56,120c1.07,4.32,1.36,18.66,1.36,18.66l.31.14a113.15,113.15,0,0,0-.06-12c-.43-7.43-1.72-9.5-2.52-16.15a67.47,67.47,0,0,1-.12-12.56,13.89,13.89,0,0,1-1.56-.42C183.71,97.54,183.52,97.46,183.41,97.42Z"/><path class="cls-52" d="M183.45,97.12a1.62,1.62,0,0,0,0,.3c.11,0,.3.12.56.21a14.12,14.12,0,0,0,1.4.39,17.08,17.08,0,0,1,.55-6.44c1.14-4.21,1.48-6.13.28-8.58-1.08-2.22-3.77-7.52-3.18-11.79a6.4,6.4,0,0,0-.89,3.55c0,3.59,2,6.12,2.67,8.45a5.4,5.4,0,0,1,.26,1.41C185.15,87.09,183.69,95.43,183.45,97.12Z"/><path class="cls-53" d="M179,77.4l.17.25a12.11,12.11,0,0,0,3,2.77c.54.38,1,.66,1.31.83l.3.18s2.31-1.07,4.13-4.71a4.74,4.74,0,0,0,.31-4.37,4.27,4.27,0,0,0-1.76-1.8C182.83,68.72,179,77.4,179,77.4Z"/><path class="cls-52" d="M182.13,80.42c.54.38,1,.66,1.31.83l.3.18s2.31-1.07,4.13-4.71a4.74,4.74,0,0,0,.31-4.37C187.77,74.32,186.44,77.67,182.13,80.42Z"/><path class="cls-54" d="M190.46,63a31.06,31.06,0,0,1-.11,3.45l.15-.09L195,63.8a7.32,7.32,0,0,1,.06-1.64,3.5,3.5,0,0,1-1.29.29,3.78,3.78,0,0,1-2.61-.71c-1.28,1.5-3.22,1.08-4.38.72C187.45,63.23,188.73,63.51,190.46,63Z"/><path class="cls-55" d="M183.44,81.25c-1.57,1.66-5.34,5.56-6.69,6a1.61,1.61,0,0,1-1.5-.05,49.05,49.05,0,0,1-12-9.31l0,0-.08-.08h0c-.37-.42-1.76-1.84-1.63-2.15a67.39,67.39,0,0,0,6.64,6.09c2.72,2.28,6.71,5.26,8.43,4.45s4.56-3.84,5.63-5.69C182.7,80.81,183.15,81.08,183.44,81.25Z"/><path class="cls-56" d="M167.68,77.81c.08,0-1.68,4.64-1.18,5.52s3.85,2.56,6.76,4.06,4.48-.33,5.71-1.22,4.58-4.72,4.8-4.38,1.38.53.77,4.38-4.69,34.89-4.45,38.48c0,0,8.7,2.09,13.75.92,7.6-1.76,14.58-7.67,14.9-8.27s-3.89-17.65-5-24.63c-.87-5.71-3.84-9.22-1.43-16.23s2-12.12-.15-14.33-3.63-.71-5.81.62-6,3.71-8.1,4.93-3.73,1.64-5.28,3.55-4.28,5.89-5.47,7.7-2.4,3.13-2.87,2.87Z"/><path class="cls-57" d="M186.51,53.87c0,.12,0,.24,0,.36.16,1,.38,2.31.54,3.32l.23,1.46a4.36,4.36,0,0,1,.78-1c.44-.38.7-.17,1,.3s.51,1.26.94,2a3.72,3.72,0,0,0,3.77,2.11,3.5,3.5,0,0,0,1.29-.29h0a1.69,1.69,0,0,0,.5-.33,37.72,37.72,0,0,0,1.75-4.54,10.61,10.61,0,0,0,.26-2.35c0-4.18-3.94-5.28-5.57-5.2-3.48.18-5,1.63-5.4,3.11A3.32,3.32,0,0,0,186.51,53.87Z"/><path class="cls-58" d="M186.29,61.58a2.2,2.2,0,0,0,.48.87c.69.78,2,1.06,3.69.58a31.06,31.06,0,0,1-.11,3.45l.15-.09L195,63.8a7.32,7.32,0,0,1,.06-1.64,3.5,3.5,0,0,1-1.29.29,3.78,3.78,0,0,1-2.61-.71A4.57,4.57,0,0,1,190,60.34c-1-1.84-1-3.83-2.67-1.34,0,0-.47-3-.77-4.78,0-.12,0-.24,0-.36a3.32,3.32,0,0,1,.12-1c-.59,1.25-.16,2.61-.4,3.46A10.59,10.59,0,0,0,186.29,61.58Z"/><path class="cls-59" d="M191.54,58.81a20.77,20.77,0,0,1-2.49-.47c.26.48.51,1.26.94,2a3.72,3.72,0,0,0,3.77,2.11,3.5,3.5,0,0,0,1.29-.29h0a1.69,1.69,0,0,0,.5-.33,37.72,37.72,0,0,0,1.75-4.54C196.35,58.33,194.6,59.2,191.54,58.81Z"/><path class="cls-60" d="M195.57,60a1.19,1.19,0,0,1,0-1.79c.71-.7,1.61.07,1.56,1A1,1,0,0,1,195.57,60Z"/><path class="cls-61" d="M195.7,70.52a1.33,1.33,0,0,1,.49,1.65s.18-.09.45-.25c.75-.44,2.18-1.43,2.31-2.62.18-1.63-1.64-2.42-.85-4.25s1.87-4.32,1-5.84a2.27,2.27,0,0,0-2.65-.92,1.18,1.18,0,0,0-.65,1,1.06,1.06,0,0,0,0,.26s.8-.49,1.2.18-1.2,2.31-3.21,5.46S194.76,69.72,195.7,70.52Z"/><path class="cls-62" d="M195.7,70.52a1.33,1.33,0,0,1,.49,1.65s.18-.09.45-.25c.55-1.9-1.15-3.07-1.7-5.2-.61-2.41,2.71-4.61,2.54-6.56-.13-1.55-1.09-1.24-1.66-.85a1.06,1.06,0,0,0,0,.26s.8-.49,1.2.18-1.2,2.31-3.21,5.46S194.76,69.72,195.7,70.52Z"/><path class="cls-63" d="M196.87,52.13a3.11,3.11,0,0,0-1.31-1.3,8,8,0,0,0-7.21,0,3.11,3.11,0,0,0-1.31,1.3h-.18v.78h0A2.54,2.54,0,0,0,188.35,55a8,8,0,0,0,7.21,0A2.53,2.53,0,0,0,197,52.91h0v-.78Z"/><path class="cls-56" d="M195.56,50c2,1.15,2,3,0,4.16a7.94,7.94,0,0,1-7.21,0c-2-1.15-2-3,0-4.16A8,8,0,0,1,195.56,50Z"/><path class="cls-56" d="M197.05,52.13h-.19l-2.63,0-5.39,0h-2l.06-1.13.18-3.27a2.41,2.41,0,0,1,1.42-2,5.91,5.91,0,0,1,1.3-.53,7.67,7.67,0,0,1,5.57.53l.28.17a2.26,2.26,0,0,1,1.14,1.81l.15,2.8.08,1.48h0Z"/><path class="cls-64" d="M197,50.46l-.49.3-.53.32-1.7,1c-1.29.78-2.54,1.52-2.61,1.53s-1.46-.79-2.78-1.57l-1.21-.72-.44-.27-.27-.16.18-3.27a2.41,2.41,0,0,1,1.42-2,5.91,5.91,0,0,1,1.3-.53l5.84.71a2.26,2.26,0,0,1,1.14,1.81Z"/><path class="cls-65" d="M197.56,53.39a.26.26,0,0,1,0,.49.91.91,0,0,1-.85,0c-.24-.13-.24-.35,0-.49A.93.93,0,0,1,197.56,53.39Z"/><path class="cls-66" d="M197.78,53.56a5.72,5.72,0,0,0-.19-1.06h-.9a4.21,4.21,0,0,0-.16,1c0,.54,0,1.76,0,1.88h0a.29.29,0,0,0,.17.24.89.89,0,0,0,.82,0,.29.29,0,0,0,.17-.24S197.79,54.05,197.78,53.56Z"/><path class="cls-67" d="M197.46,52.35a.2.2,0,0,1,0,.37.72.72,0,0,1-.64,0,.2.2,0,0,1,0-.37A.71.71,0,0,1,197.46,52.35Z"/><circle class="cls-68" cx="197.11" cy="52.27" r="0.43"/><g class="cls-1"><polygon class="cls-69" points="201.36 46.63 191.95 52.09 182.49 46.63 191.89 41.16 201.36 46.63"/></g><polygon class="cls-69" points="182.49 46.63 182.49 46 183.06 46.33 182.49 46.63"/><polygon class="cls-70" points="201.36 46.63 201.36 46 200.77 46.35 201.36 46.63"/><g class="cls-1"><polygon class="cls-71" points="201.36 46 191.95 51.47 182.49 46 191.89 40.54 201.36 46"/></g><polygon class="cls-72" points="191.95 51.47 191.95 52.09 201.36 46.63 201.36 46 191.95 51.47"/><path class="cls-73" d="M197.08,52.37a.11.11,0,0,1-.11-.11V48.91l-4.48-2.59a.11.11,0,1,1,.11-.19l4.53,2.62a.11.11,0,0,1,.06.1v3.42A.11.11,0,0,1,197.08,52.37Z"/><path class="cls-56" d="M193.35,46.19v-.12h0a.72.72,0,0,0-.33-.35,1.92,1.92,0,0,0-1.75,0,.72.72,0,0,0-.33.35h0v.13h0a.6.6,0,0,0,.36.53,1.94,1.94,0,0,0,1.75,0A.61.61,0,0,0,193.35,46.19Z"/><path class="cls-74" d="M193,45.52a.53.53,0,0,1,0,1,1.93,1.93,0,0,1-1.75,0,.53.53,0,0,1,0-1A1.93,1.93,0,0,1,193,45.52Z"/><polygon class="cls-75" points="100.49 83.03 100.32 98.44 122.72 85.42 122.72 69.97 100.49 83.03"/><polygon class="cls-76" points="127.17 82.87 127.34 98.27 149.62 85.5 149.57 69.97 127.17 82.87"/><polygon class="cls-77" points="127.29 74.49 127.29 79.55 140.63 71.82 140.59 66.67 127.29 74.49"/><polygon class="cls-78" points="143 58.3 149.83 54.36 149.62 67.14 143 70.93 143 58.3"/><path class="cls-79" d="M128.08,56.81l22.34,45.12L151,1.45,129.67,54.52S128.06,54.18,128.08,56.81Z"/><path class="cls-80" d="M167.38,24.61s-4.25,7.14-5.57,8.36-3.6,2.34-4.57-1.68c-.64-2.63,0-4,.46-4.71a2.08,2.08,0,0,1,.51-.51s.45,3.4,1.4,3.24,5.29-5.22,6.52-6.49l.71,1Z"/><path class="cls-81" d="M167.38,24.61s-4.25,7.14-5.57,8.36-3.6,2.34-4.57-1.68c-.64-2.63,0-4,.46-4.71-.06,2.7.14,4.21,1.58,5,1.62.92,3.58-.88,4.82-2.64a40.85,40.85,0,0,0,2.75-5.11Z"/><path class="cls-82" d="M156.37,31.19c1.33,1.69,3.06,1.76,5,2.52a33.3,33.3,0,0,0,6.14,1.48l.64-.4c-1.54-.36-3.83-1.33-7.2-2.31-3.1-.89-4.47-2.9-4-5.28A8.8,8.8,0,0,0,156.37,31.19Z"/><path class="cls-83" d="M144.63,27.36c1.73,2.13,2.53,3.44,1.58,6S143.4,40.62,143.34,44a7.85,7.85,0,0,0,0,.82c-.6,10.13,1.68,27.4,1.68,27.4l2.91-1.62,11.12-6.16c3-13.31,2.11-24.88,1.53-27.2a27.28,27.28,0,0,0-2.78-5.43,4.83,4.83,0,0,1-.8-2.46,4,4,0,0,1,.92-3h0c1.52-1.3,1.49-3.09.55-5.42-1.67-4.12-4.69-9.08-7.94-7.7-3.52,1.47-7.88,4-8.82,5.15s-.52,4.88,1.87,7.8Z"/><path class="cls-22" d="M147.21,71Z"/><path class="cls-22" d="M147.27,71l.22-.12h0Z"/><path class="cls-22" d="M147.21,71l.06,0h0Z"/><path class="cls-84" d="M157.7,84.82c1.22.94,4.22,3.47,3.89,4.39s-2.76,1.4-4.37-.08a10.19,10.19,0,0,0-3.51-2.48c-.94-.29-.78-1.58-.26-2.16C154.1,83.76,155.92,83.46,157.7,84.82Z"/><path class="cls-84" d="M148.17,89a9.8,9.8,0,0,0,1.64,2.7c.63.65,2.68,2.58.87,3.58s-5.25-2.31-5.69-3.83-.11-2.33.37-2.5A14.19,14.19,0,0,1,148.17,89Z"/><path class="cls-85" d="M153.44,84.5c.11.77,1.2,1.74,2.36,2.35s2.48.89,2.85.2a1,1,0,0,0,.12-.46c0-1.27-2.19-2.62-2.19-2.62.42-6,2.15-16.72,2.48-19.52l-3.62,2-1.69.94S152.69,82.3,153.44,84.5Z"/><path class="cls-86" d="M145,89.69a2,2,0,0,0,.43.94c.9,1.21,2.92,2.27,3.51,1.94.75-.42-.93-3.57-.93-3.57.67-8,2.71-20,2.71-20l-4.31,2.39-1.41.79C143.89,76.68,144.72,88.69,145,89.69Z"/><path class="cls-87" d="M145,72.22l2.91-1.62c-.32-2.19-.81-5.48-1.52-10.08-1.46-9.53-1.81-14.22-.31-18s1-8.52,2-9.42,4.4-4.18,6.66-4.09a13.37,13.37,0,0,1,2.27.32,4,4,0,0,1,.92-3,4.14,4.14,0,0,1-2.36.6,5.33,5.33,0,0,0-4,2.06c-1.12,1.16-5.76,1-6.33-2.83l-.62,1.21c1.73,2.13,2.53,3.44,1.58,6S143.4,40.62,143.34,44a7.85,7.85,0,0,0,0,.82C142.76,54.95,145,72.21,145,72.22Z"/><path class="cls-88" d="M153.44,84.5c.11.77,1.2,1.74,2.36,2.35a9.1,9.1,0,0,1-1.62-2c-.84-1.57-.63-4.85-.32-8.56a54.76,54.76,0,0,1,1.58-9.81l-1.69.94S152.69,82.3,153.44,84.5Z"/><path class="cls-89" d="M145,89.69a2,2,0,0,0,.43.94c-.59-2.45-.66-7.94-.47-11.69a25.24,25.24,0,0,1,1.44-7.51l-1.41.79C143.89,76.68,144.72,88.69,145,89.69Z"/><path class="cls-90" d="M168.5,23.13c.48,0,.65,3,.05,2.94S168.07,23.12,168.5,23.13Z"/><path class="cls-91" d="M169.3,23.78c.42.22.59,2.6,0,2.75S168.88,23.56,169.3,23.78Z"/><polygon class="cls-92" points="169.21 38.76 157.24 45.68 157.24 30.25 169.21 23.34 169.21 38.76"/><path class="cls-93" d="M168.72,38.55l-11,6.35V30.46l11-6.34Zm-10.88,6.17,10.77-6.22V24.29l-10.77,6.22Z"/><path class="cls-94" d="M163.78,28.51v.11a1.06,1.06,0,0,1-.13.41,2.58,2.58,0,0,1-.35.43l-.07.06h-.06a.66.66,0,0,1-.35,0c-.07,0-.11-.13-.13-.27s0-.06,0-.1a4.37,4.37,0,0,1,0-.58l1.13-.65A4.57,4.57,0,0,1,163.78,28.51Z"/><path class="cls-95" d="M163.29,28.21v1.26l-.07.06h-.06V28.29Z"/><path class="cls-95" d="M163.78,28.51v.11l-1.08.62s0-.06,0-.1Z"/><path class="cls-96" d="M163.28,28.86a.11.11,0,0,1-.05.09s-.05,0-.05,0a.11.11,0,0,1,.05-.08S163.28,28.83,163.28,28.86Z"/><polygon class="cls-97" points="167.84 38.28 158.6 43.62 158.6 34.62 167.84 29.29 167.84 38.28"/><polygon class="cls-98" points="162.87 39.18 162.46 40.75 162.68 40.46 162.78 40.65 163.18 39.09 162.87 39.18"/><polygon class="cls-98" points="163.58 38.77 163.99 39.86 163.77 39.83 163.67 40.13 163.27 39.05 163.58 38.77"/><path class="cls-93" d="M163.91,38.44a1.43,1.43,0,0,1-.69,1.08c-.38.22-.69.09-.69-.29a1.43,1.43,0,0,1,.69-1.09C163.6,37.93,163.91,38.05,163.91,38.44Z"/><path class="cls-99" d="M163.71,38.56a1,1,0,0,1-.48.76c-.26.15-.48.06-.48-.2a1,1,0,0,1,.48-.76C163.49,38.2,163.71,38.29,163.71,38.56Z"/><polygon class="cls-100" points="167.17 31.62 159.28 36.18 159.28 36.09 167.17 31.53 167.17 31.62"/><polygon class="cls-100" points="167.17 32.03 159.28 36.58 159.28 36.49 167.17 31.93 167.17 32.03"/><polygon class="cls-100" points="167.17 32.43 159.28 36.99 159.28 36.9 167.17 32.34 167.17 32.43"/><polygon class="cls-100" points="167.17 32.84 159.28 37.4 159.28 37.3 167.17 32.74 167.17 32.84"/><polygon class="cls-97" points="157.24 30.25 169.21 23.34 169.09 23.27 157.11 30.17 157.24 30.25"/><path d="M159.24,32.38l.12-.05.11,0h.05a.06.06,0,0,0,0,0h0s0,0,0,.05a.28.28,0,0,0,0,0,.27.27,0,0,0,0,.08s0,0,0,.07h0a.16.16,0,0,0-.11-.12.31.31,0,0,0-.2.06.55.55,0,0,0-.16.13.68.68,0,0,0-.1.16.88.88,0,0,0-.05.17,1,1,0,0,0,0,.16.61.61,0,0,0,0,.15.24.24,0,0,0,.05.11.16.16,0,0,0,.1,0,.28.28,0,0,0,.15,0l.12-.08a.37.37,0,0,0,.09-.1.77.77,0,0,0,.07-.14.68.68,0,0,0,0-.15v0h0v.06s0,0,0,.06,0,.07,0,.1,0,.07,0,.1v0h0v0h0l0,0-.06.06-.06.06-.06,0-.07,0c-.17.1-.29.12-.37.09s-.12-.13-.12-.29a.74.74,0,0,1,0-.24,1,1,0,0,1,.1-.22,1,1,0,0,1,.16-.19A1.08,1.08,0,0,1,159.24,32.38Z"/><path d="M160.4,31.74h0s0,0,0,0,0,0,0,0v0s0,.08,0,.12h0a.33.33,0,0,0,0-.07l0,0h-.05l-.08,0-.09,0-.06,0,0,0,0,0s0,0,0,.06v.25s0,0,0,0h0l.1-.07.06-.05,0-.05v-.07a0,0,0,0,1,0,0h0a.39.39,0,0,1,0,0,.16.16,0,0,0,0,0v0s0,0,0,0,0,.05,0,.07a.34.34,0,0,1,0,.08v0h0v-.06a0,0,0,0,0,0,0h-.06l-.1.06h0a0,0,0,0,0,0,0v.19a.35.35,0,0,0,0,.07l0,0h.07l0,0,0,0,.06,0,0,0,0,0,0,0,0-.06a.39.39,0,0,0,0-.08h0l0,0h0v.12s0,.07,0,.11h0l0,0-.52.3-.11.06-.09.06h0s0,0,0,0l0,0,.06,0,0,0,0-.05a.33.33,0,0,0,0-.06V32.3s0,0,0-.06a.44.44,0,0,0,0-.05l0,0h-.12v0h0l.09,0,.09,0Z"/><path d="M160.7,31.81s0,0,0-.06v0l0,0h-.12v0h0l.08,0,.09,0,.14-.09.11-.06.12-.05h.1a.09.09,0,0,1,.07,0,.17.17,0,0,1,0,.1.31.31,0,0,1,0,.1.36.36,0,0,1,0,.09.42.42,0,0,1-.07.09l-.08.07v0h.11a.15.15,0,0,1,.06,0,.24.24,0,0,1,0,.07.71.71,0,0,0,0,.08.05.05,0,0,0,0,0h0l0,0,0-.05v0h0a.18.18,0,0,1,0,.07l0,.06,0,.05-.06,0a.14.14,0,0,1-.08,0s0,0,0,0l0,0,0,0V32a.14.14,0,0,0-.07-.09s-.06,0-.11,0l0,0a.06.06,0,0,0,0,0v.19a.15.15,0,0,0,0,.07,0,0,0,0,0,0,0h0l.07,0h0s0,0,0,0v0h0l-.12.07-.11.05-.11.07-.1.07h0a0,0,0,0,1,0,0h0l.07,0,0,0a.14.14,0,0,0,0-.05.5.5,0,0,0,0-.07Zm.16.08s0,0,0,0l.06,0,.09-.06.06-.07a.35.35,0,0,0,0-.08.46.46,0,0,0,0-.1.27.27,0,0,0,0-.09.07.07,0,0,0,0,0H161l-.09,0-.07.06a.12.12,0,0,0,0,.07Z"/><path d="M161.89,31.65a.27.27,0,0,0,0,.07s0,0,0,0h0l.07,0h0s0,0,0,0a0,0,0,0,1,0,0h0l-.11.06-.1.05-.11.07-.1.06h0v0h0l.07-.05,0,0,0,0s0,0,0-.08v-.63s0,0,0,0l-.09,0-.09.06-.06.06a.25.25,0,0,0,0,.07.5.5,0,0,0,0,.11h0a1.13,1.13,0,0,0,0-.11.85.85,0,0,0,0-.11l0,0,0,0,.76-.44,0,0h0s0,0,0,0a.36.36,0,0,0,0,.06.44.44,0,0,0,0,.06s0,0,0,.06a0,0,0,0,1,0,0h0a.21.21,0,0,0,0-.08.06.06,0,0,0,0,0h-.06l-.08,0-.09.06a.12.12,0,0,0,0,.08Z"/><path d="M162.46,30.77a.49.49,0,0,0,0-.07.07.07,0,0,0,0,0h0l-.07,0h0v0h0l.1-.05.11-.06.06,0,0,0,0,0,.05,0h0s0,0,0,0v0l-.07.05,0,.05,0,.06s0,0,0,.08v.56a.63.63,0,0,0,0,.07,0,0,0,0,0,0,0h0l.07,0h0a0,0,0,0,1,0,0,0,0,0,0,1,0,0v0l-.11.05-.1.05-.11.07-.1.06h0a.1.1,0,0,1,0,0v0l.07-.05,0,0a.15.15,0,0,0,0-.05.48.48,0,0,0,0-.07Z"/><path d="M163.54,29.93h0s0,0,0,0a.69.69,0,0,0,0,.1s0,.07,0,.1h0a.34.34,0,0,0,0-.07.05.05,0,0,0,0,0h0l-.08,0-.08,0-.06,0,0,0a.08.08,0,0,0,0,0,.29.29,0,0,0,0,.06v.25s0,0,0,0h0l.1-.06.06-.05,0-.06a.53.53,0,0,0,0-.07v0h0s0,0,0,0a.29.29,0,0,1,0,0,.32.32,0,0,0,0,0v0a.36.36,0,0,0,0,.07s0,.05,0,.09h0a.36.36,0,0,0,0-.06s0,0,0,0l-.06,0-.1.05h0a0,0,0,0,0,0,0v.24a.24.24,0,0,0,0,.07s0,0,0,0h.05l.08,0h0a0,0,0,0,1,0,0v0l-.13.07-.1.06-.11.07-.1.06h0v0l.06,0,0,0a.17.17,0,0,0,0-.05.33.33,0,0,0,0-.07v-.53a.41.41,0,0,0,0-.06.23.23,0,0,0,0,0l0,0h-.12v0l.09,0,.09,0Z"/><path d="M163.78,30a.24.24,0,0,0,0-.07.08.08,0,0,0,0,0h0l-.07,0h0s0,0,0,0a.05.05,0,0,1,0,0h0l.1-.06.11-.06.06,0,0,0,.05,0,.06,0h0v0h0l-.07.05,0,.05,0,.06s0,0,0,.08v.56a.34.34,0,0,0,0,.07l0,0h0l.07,0h0v0l-.11.06-.1.05-.11.07-.1.07h0v0l.07-.05,0,0a.16.16,0,0,0,0-.05.29.29,0,0,0,0-.08Z"/><path d="M164.69,29.24l.12-.05.11,0H165a.06.06,0,0,0,0,0h0a.2.2,0,0,0,0,0,.22.22,0,0,0,0,.05.45.45,0,0,0,0,.08.53.53,0,0,1,0,.07h0a.15.15,0,0,0-.11-.12.27.27,0,0,0-.2.05.51.51,0,0,0-.16.13.78.78,0,0,0-.1.16.67.67,0,0,0,0,.17.73.73,0,0,0,0,.16.59.59,0,0,0,0,.15.28.28,0,0,0,.05.11.16.16,0,0,0,.1,0,.28.28,0,0,0,.15,0l.12-.08a.45.45,0,0,0,.09-.1.7.7,0,0,0,.07-.14.75.75,0,0,0,0-.15v0h0s0,0,0,.06v.06a.7.7,0,0,0,0,.1s0,.07,0,.1v0h0v0h0l0,0-.06.06-.06.06-.06,0-.07,0c-.17.1-.29.13-.37.09s-.12-.13-.12-.29a.79.79,0,0,1,0-.24.85.85,0,0,1,.11-.22.92.92,0,0,1,.16-.19A1.1,1.1,0,0,1,164.69,29.24Z"/><path d="M165.44,29.45l0,0,0,0-.06.21a.1.1,0,0,0,0,0s0,0,0,0h.06l0,0h0s0,0,0,0a0,0,0,0,1,0,0v0l-.08,0-.08,0-.07,0-.08,0h0a0,0,0,0,1,0,0v0l0,0,0,0,0,0,0-.05,0-.07.32-1,0,0h0l.07.15.08.16.09.16.08.15,0,0h.12a0,0,0,0,1,0,0h0l-.09,0-.1,0-.11.07-.1.06h0v0l.07-.06a.07.07,0,0,0,0-.06.11.11,0,0,0,0,0v0l0,0,0-.07h0l0,0Zm.24-.2,0,0a0,0,0,0,0,0,0l-.12-.26h0v0l-.13.41s0,0,0,0h0Z"/><path d="M166.57,28.95s0,.05,0,.07a0,0,0,0,0,0,0h0l.07,0h0a0,0,0,0,1,0,0h0l-.11.06-.1.06-.11.07-.1.06h0v0h0l.07-.05,0,0a.1.1,0,0,0,0,0,.39.39,0,0,0,0-.08v-.63s0,0,0,0l-.09,0-.09.06a.19.19,0,0,0-.05.06l0,.07a.62.62,0,0,0,0,.11v0h0s0-.07,0-.11a.78.78,0,0,0,0-.1,0,0,0,0,1,0,0l0,0,.76-.44,0,0s0,0,0,0a.27.27,0,0,0,0,0s0,0,0,.06,0,0,0,.06a.56.56,0,0,0,0,.06v0h0a.25.25,0,0,0,0-.08.05.05,0,0,0,0,0h-.06l-.08,0-.09.07a.11.11,0,0,0,0,.08Z"/><path d="M167.69,27.54h0s0,0,0,0a.12.12,0,0,0,0,0v0s0,.08,0,.12h0a.3.3,0,0,0,0-.08s0,0,0,0h0l-.08,0-.09,0-.06,0,0,0,0,0a.49.49,0,0,0,0,.06v.25a0,0,0,0,0,0,0h0l.1-.06.06-.05,0-.05a.44.44,0,0,0,0-.07v0l0,0h0a.19.19,0,0,1,0,0,.16.16,0,0,0,0,0,.17.17,0,0,1,0,0,.24.24,0,0,0,0,0,.48.48,0,0,0,0,.07.66.66,0,0,1,0,.08h0a.21.21,0,0,0,0-.06,0,0,0,0,0,0,0h-.06l-.1.05v.23a.44.44,0,0,0,0,.07.07.07,0,0,0,0,0l0,0h0l0,0,.05,0,.06,0,0,0,0,0,0-.05,0-.06a.6.6,0,0,0,0-.08v0h0v.12s0,.07,0,.11h0l0,0-.51.29-.11.06-.09.06h0a0,0,0,0,1,0,0l0,0,.06,0,0,0,0,0a.26.26,0,0,0,0-.06v-.54a.43.43,0,0,0,0-.06.22.22,0,0,0,0,0,.05.05,0,0,0,0,0H167a0,0,0,0,1,0,0,0,0,0,0,1,0,0h0l.08,0,.09,0Z"/><path class="cls-101" d="M158.74,28.74a1.38,1.38,0,0,0-1.93,0,45.83,45.83,0,0,1-6.7,2.24c-3.34.85-3.33-.6-3.33-.6h0c-.44-4.26.41-14.3-3.7-13.08l-.31.1a1.82,1.82,0,0,0-.57.3c-2,1.64-1.46,11.62,1,16.76l0,.07c.51.81,1.72,2.48,5.74,1l1-.36a25.36,25.36,0,0,0,6.61-3.5l.89.69c1,.77.91-.08.33-.81.29.32.79.81,1,.81s-.1-1-1-2c0,0,.51.56.9,1s.59.86,1,.64-.27-1.07-.64-1.68c.28.41.65.88.81.78S159.95,30,158.74,28.74Z"/><path class="cls-102" d="M170,26.28c.58.08.25-2.48-.62-3.66s-2.09-.95-3.06-.1c-.73.63-.08,1.75.46,2.18.36.29.95.82,1.3.61s-.89-1.23-.44-1.47a.86.86,0,0,1,1.21.31C169.15,24.59,169.57,26.21,170,26.28Z"/><path class="cls-103" d="M156.66,31.53s-1.75,1.65-6.75,3.62l-1,.36c-4,1.5-5.24-.18-5.74-1l0-.07c-2.44-5.14-3-15.12-1-16.76a1.82,1.82,0,0,1,.57-.3,23.24,23.24,0,0,0-.38,9.35c.69,5.44,1.86,7.52,2.89,8.31S156.66,31.53,156.66,31.53Z"/><path class="cls-104" d="M156.09,6.85c-.2-1.25-.91-3.54-3.48-3.55-2.85,0-4.28,3.7-4.32,5.55,0,0-.74-.72-1.42-.43a.82.82,0,0,0-.19.1c-.55.57.12,2.08.89,2.73.32.27.66.4.94.24v-.06a5.14,5.14,0,0,0,.41.55,6,6,0,0,0,4.17,2,2.78,2.78,0,0,0,1.59-.35C156,12.78,156.44,9.49,156.09,6.85Z"/><path class="cls-105" d="M147.57,11.24a1.23,1.23,0,0,1-1.41.34,1.94,1.94,0,0,1-1-3.23,1.26,1.26,0,0,1,1-.29c.16.39.35.57.51.45C146.13,9.1,146.79,10.59,147.57,11.24Z"/><path class="cls-105" d="M156.17,7.65a5.2,5.2,0,0,0-.08-.8c-.2-1.26-.91-3.54-3.48-3.55-1.8,0-3,1.47-3.71,3a7,7,0,0,0-.6,2.51s-.74-.71-1.42-.43l0,0h0a.61.61,0,0,0-.14.12h0c-.16.12-.35-.06-.51-.45a6.32,6.32,0,0,1,.71-5.38,4.07,4.07,0,0,1,.41-.47c2.3-2.29,5.65-1,7.76.9S156.88,7.29,156.17,7.65Z"/><path class="cls-105" d="M146.67,8.51a.82.82,0,0,1,.19-.1l0,0h0A.54.54,0,0,0,146.67,8.51Z"/><path class="cls-106" d="M154.19,23s-.71-.81-2.73-2.67a17.32,17.32,0,0,1-2.49-3c-.61-.91-1-1.58-1-1.58a1.3,1.3,0,0,1-.06-1.49,12.06,12.06,0,0,0,1-2.27v0a6,6,0,0,0,4.17,2l.26,1,.22.84C153.85,16.85,154.55,21.4,154.19,23Z"/><path class="cls-107" d="M153.35,15c-2.56.41-3.66-1.44-4.44-3v0a6,6,0,0,0,4.17,2Z"/><path class="cls-108" d="M146.67,8.52c-.54.58.12,2.07.9,2.72a1.23,1.23,0,0,1-1.41.34,1.94,1.94,0,0,1-1-3.23,1.26,1.26,0,0,1,1-.29,6.32,6.32,0,0,1,.71-5.38,4.52,4.52,0,0,0,2,3.65,7,7,0,0,0-.6,2.51s-.74-.71-1.42-.43l0,0h0a.61.61,0,0,0-.14.12Z"/></g></g></svg>