<svg id="Layer_1" data-name="Layer 1" xmlns="http://www.w3.org/2000/svg" xmlns:xlink="http://www.w3.org/1999/xlink" viewBox="0 0 60 60"><defs><style>.cls-1{fill:none;}.cls-2{fill:#fdc800;}.cls-3{clip-path:url(#clip-path);}</style><clipPath id="clip-path"><rect id="SVGID" class="cls-1" x="2.42" y="2.42" width="55.17" height="55.17"/></clipPath></defs><title>blog-icon-01</title><path class="cls-2" d="M12.27,42.81V30.54a3,3,0,0,1,.41-1.5l5.14-8.74a2.94,2.94,0,0,0-1.07-3.94,1,1,0,0,0-.51-.15,1,1,0,0,0-.84.47L6.54,31.08a7.89,7.89,0,0,0-1.16,4.13v3.66c0,.12-.28,5.18,3.55,8.08a1,1,0,1,1-1.18,1.58A10.28,10.28,0,0,1,4.9,45.21L2.53,57a.49.49,0,0,0,.48.59H15a.49.49,0,0,0,.49-.41l.66-3.89a1.94,1.94,0,0,1,1.72-1.65,12.89,12.89,0,0,0,6.89-2.91H18.18a5.91,5.91,0,0,1-5.91-5.91Zm0,0"/><g class="cls-3"><path class="cls-2" d="M34.93,18.18h7.88a1,1,0,0,1,1,1V23.1a1,1,0,0,1-1,1H34.93a1,1,0,0,1-1-1V19.16a1,1,0,0,1,1-1Zm0,0"/><path class="cls-2" d="M50.19,19.16a.49.49,0,0,0-.49.49V42.59a4.09,4.09,0,0,0,3.55,4.14,3.92,3.92,0,0,0,3.37-1.35,4.1,4.1,0,0,0,1-2.71v-23a.49.49,0,0,0-.49-.49Zm0,0"/></g><path class="cls-2" d="M19.16,34.93H27a1,1,0,0,1,1,1v5.91a1,1,0,0,1-1,1H19.16a1,1,0,0,1-1-1V35.91a1,1,0,0,1,1-1Zm0,0"/><path class="cls-2" d="M47.24,2.42H14.73a.49.49,0,0,0-.49.49V15a2.94,2.94,0,0,1,2-.79,2.89,2.89,0,0,1,1.54.44,4.9,4.9,0,0,1,1.76,6.6L14.37,30a1,1,0,0,0-.14.49V42.81a3.94,3.94,0,0,0,3.94,3.94H49.31a6.25,6.25,0,0,1-1.58-4.15V2.91a.49.49,0,0,0-.49-.49Zm-15.39,2a1,1,0,0,1,1.1.86l.58,4.65.51-1a1,1,0,0,1,1.76,0l.52,1,.58-4.65a1,1,0,0,1,2,.24l-1,7.88a1,1,0,0,1-.81.85H36.9a1,1,0,0,1-.89-.54l-1.08-2.18-1.08,2.18A1,1,0,0,1,32,13.37L31,5.49a1,1,0,0,1,.85-1.1Zm-7.76,2a2,2,0,0,1,2-2h2a1,1,0,1,1,0,2h-2v2h1a1,1,0,0,1,0,2h-1v2h2a1,1,0,1,1,0,2h-2a2,2,0,0,1-2-2Zm-1,11.82H29a1,1,0,0,1,0,2H23.1a1,1,0,0,1,0-2ZM30,24.09a1,1,0,0,1-1,1h-6.9a1,1,0,1,1,0-2H29a1,1,0,0,1,1,1ZM18.18,9.54v1.74a1,1,0,0,1-2,0V5.37a1,1,0,0,1,1.87-.44l2.07,4.15V5.37a1,1,0,0,1,2,0v7.88a1,1,0,0,1-1.87.44ZM30,41.82a3,3,0,0,1-3,3H19.16a3,3,0,0,1-3-3V35.91a3,3,0,0,1,3-3H27a3,3,0,0,1,3,3Zm14.78,3H33a1,1,0,0,1,0-2H44.78a1,1,0,1,1,0,2Zm0-4.93H33a1,1,0,0,1,0-2H44.78a1,1,0,1,1,0,2Zm0-4.93H33a1,1,0,0,1,0-2H44.78a1,1,0,1,1,0,2Zm0-4.93H18.18a1,1,0,1,1,0-2h26.6a1,1,0,1,1,0,2Zm1-6.9a3,3,0,0,1-3,3H34.93a3,3,0,0,1-3-3V19.16a3,3,0,0,1,3-3h7.88a3,3,0,0,1,3,3Zm-3-8.87a3,3,0,0,1-2.56-1.48,1,1,0,0,1,1.71-1,1,1,0,1,0,.86-1.48,3,3,0,1,1,2.56-4.43,1,1,0,1,1-1.71,1,1,1,0,1,0-.86,1.48,3,3,0,0,1,0,5.91Zm0,0"/></svg>