<svg id="Layer_1" data-name="Layer 1" xmlns="http://www.w3.org/2000/svg" xmlns:xlink="http://www.w3.org/1999/xlink" viewBox="0 0 300 150"><defs><style>.cls-1{fill:#fda8a1;}.cls-2{fill:#b3e3ef;}.cls-3{fill:#d2f7ff;}.cls-4{fill:#f2d18f;}.cls-5{fill:#1958db;}.cls-6{fill:#ff645f;}.cls-7{fill:#823024;}.cls-8{fill:#f7958d;}.cls-9{clip-path:url(#clip-path);}.cls-10{fill:#e8c079;}.cls-11{fill:#112256;}.cls-12{fill:#0e97cd;}.cls-13{fill:#2a2873;}.cls-14{clip-path:url(#clip-path-2);}.cls-15{fill:#c62222;}.cls-16{fill:#da3f3a;}.cls-17{fill:#ea4949;}.cls-18{fill:#d4e4e8;}.cls-19{fill:#0c5a9a;}.cls-20{fill:#adc3c9;}.cls-21{fill:#29266b;}</style><clipPath id="clip-path"><path class="cls-1" d="M237.73,57.86c1.15,3.88,4.39,3.29,8.28,2.14a7.33,7.33,0,1,0-4.16-14.06C238,47.09,236.58,54,237.73,57.86Z"/></clipPath><clipPath id="clip-path-2"><rect class="cls-2" x="45.07" y="6.48" width="109.3" height="105.11" rx="4.97" ry="4.97"/></clipPath></defs><title>7</title><path class="cls-3" d="M203.44,46.73c0,1.91-3.46,11.12-3.46,11.12s-3.46-9.2-3.46-11.12a3.46,3.46,0,0,1,6.93,0Z"/><path class="cls-3" d="M184.65,50c1,1.66,2.56,11.36,2.56,11.36s-7.6-6.24-8.56-7.9a3.46,3.46,0,1,1,6-3.46Z"/><path class="cls-3" d="M170,62.16c1.66,1,7.9,8.56,7.9,8.56s-9.7-1.6-11.36-2.56a3.46,3.46,0,0,1,3.46-6Z"/><path class="cls-4" d="M163.4,80.05c1.91,0,11.12,3.46,11.12,3.46S165.31,87,163.4,87a3.46,3.46,0,0,1,0-6.93Z"/><path class="cls-3" d="M166.63,98.84c1.66-1,11.36-2.56,11.36-2.56s-6.24,7.6-7.9,8.56a3.46,3.46,0,1,1-3.46-6Z"/><path class="cls-3" d="M178.83,113.5c1-1.66,8.56-7.9,8.56-7.9s-1.6,9.7-2.56,11.36a3.46,3.46,0,1,1-6-3.46Z"/><path class="cls-3" d="M196.72,120.09c0-1.91,3.46-11.12,3.46-11.12s3.46,9.2,3.46,11.12a3.46,3.46,0,1,1-6.92,0Z"/><path class="cls-3" d="M215.51,116.86c-1-1.66-2.56-11.36-2.56-11.36s7.6,6.24,8.56,7.9a3.46,3.46,0,1,1-6,3.46Z"/><path class="cls-3" d="M230.17,104.66c-1.66-1-7.9-8.56-7.9-8.56s9.7,1.6,11.36,2.56a3.46,3.46,0,1,1-3.46,6Z"/><path class="cls-3" d="M233.53,68c-1.66,1-11.36,2.56-11.36,2.56s6.24-7.6,7.9-8.56a3.46,3.46,0,1,1,3.46,6Z"/><path class="cls-3" d="M221.33,53.32c-1,1.66-8.56,7.9-8.56,7.9s1.6-9.7,2.56-11.36a3.46,3.46,0,1,1,6,3.46Z"/><path class="cls-5" d="M259.13,56.91h-.58V50.27c0-2.22-.2-3.87-2.85-4.93l.21-.54c3,1.19,3.21,3.1,3.21,5.46Z"/><path class="cls-1" d="M207.39,90.38c-1.54.19-5-2.12-4.42-5.39s5,1.35,5,1.35Z"/><path class="cls-6" d="M255.23,97.85H232.71l.6,48.13h4.3s3.26-24.21,4.48-37.59h3L246,146h4.3s5.08-37.75,4.94-45A28,28,0,0,0,255.23,97.85Z"/><path class="cls-7" d="M255.23,97.85H232.71l-2.81-29.92c-.25-2.44,2.11-4.54,5.11-4.54h17.94c3,0,5.36,2.09,5.11,4.54Z"/><path class="cls-8" d="M243.86,66.56c4,0,4-2.71,4-3.37V58.78c0-1-1.49-.92-2.38-.92h-2.86c-.89,0-2.38.81-2.38,1.81V63.2A3.4,3.4,0,0,0,243.86,66.56Z"/><path class="cls-1" d="M237.73,57.86c1.15,3.88,4.39,3.29,8.28,2.14a7.33,7.33,0,1,0-4.16-14.06C238,47.09,236.58,54,237.73,57.86Z"/><g class="cls-9"><path class="cls-10" d="M245.81,49.56s0,2.59.36,2.59a2.52,2.52,0,0,1,2.68.71c1,1.25-.09,2.5-1.25,2.77s-.36,3.3,2.41,2.77,3.75-7.05,2.32-9.55-6-5.27-7.59-5.09-12.2,5.88-12.2,5.88Z"/></g><path class="cls-7" d="M256.19,64.37S266.61,75.48,270.28,79c2,1.93,0,3.38-1.16,4.83-3.21,4-13.61,11.2-13.61,11.2l.58-6.08,6.27-7.34s-8.83-6.82-9.12-7.31c-.8-1.34-.13-7.23-.13-7.23Z"/><path class="cls-11" d="M246.1,145.91h4.38v3.36H241.6c-.59,0-.79-1.32-.27-1.6Z"/><path class="cls-1" d="M253.77,94.72a2,2,0,0,1-1.67-2.3l.37-3.54c0-.68,1.11-.47,1.79-.44l1.84.48L255.51,95S254.21,94.76,253.77,94.72Z"/><path class="cls-7" d="M230.48,65.58c-1.92,3.31-7.22,17.2-8.09,18.07s-13.59,1.92-14.81,1.92-.72,4.11-.19,4.81,17.89,1.54,20.2-.58c1.27-1.16,7.61-11.65,8.66-16.35S230.48,65.58,230.48,65.58Z"/><polygon class="cls-12" points="202.24 101.92 200.1 100.44 197.92 101.92 197.92 86.23 202.24 86.23 202.24 101.92"/><path class="cls-1" d="M174,81.27c1.57-1.57,9.41-8.11,11-6s-3.92,3.92-3.4,7.32,4.44,1.83,8.63,1.83,8.37.78,5.75,5-21.44,2.35-21.44,2.35Z"/><rect class="cls-13" x="92.13" y="114.21" width="13.07" height="26.67"/><path class="cls-13" d="M34.34,117.35h114a5.36,5.36,0,0,0,5.48-5.23V6A5.36,5.36,0,0,0,148.36.73h-114A5.36,5.36,0,0,0,28.86,6V112.12A5.36,5.36,0,0,0,34.34,117.35Z"/><path class="cls-11" d="M233.25,145.91h4.37v3.36h-8.87c-.59,0-.79-1.32-.27-1.6Z"/><path class="cls-5" d="M40.61,117.35h114a5.36,5.36,0,0,0,5.48-5.23V6A5.36,5.36,0,0,0,154.64.73h-114A5.36,5.36,0,0,0,35.13,6V112.12A5.36,5.36,0,0,0,40.61,117.35Z"/><rect class="cls-2" x="45.07" y="6.48" width="109.3" height="105.11" rx="4.97" ry="4.97"/><g class="cls-14"><path class="cls-15" d="M121.68,67.93c3.14.26,14.12.78,15.69,19.09s1.57,37.65,1.57,37.65L118,127.81Z"/><rect class="cls-16" x="68.6" y="66.1" width="63.54" height="69.29" rx="17.52" ry="17.52"/></g><path class="cls-5" d="M89.26,138.79h25.6c2.46,0,4.45,1.66,4.45,3.71v3.06c0,2-2,3.71-4.45,3.71H89.26c-2.46,0-4.45-1.66-4.45-3.71V142.5C84.81,140.45,86.81,138.79,89.26,138.79Z"/><rect class="cls-5" x="96.32" y="114.21" width="13.07" height="26.67"/><path class="cls-8" d="M110.81,68.45s-1.23,3.4-7.1,3.14a13.36,13.36,0,0,1-8-3.14V49.63h15.12Z"/><path class="cls-1" d="M98.67,60.51c8.9,6.34,14.81-.33,21.16-9.23a19.79,19.79,0,0,0-32.24-23C81.24,37.21,89.77,54.16,98.67,60.51Z"/><path class="cls-6" d="M93.18,24.79c0,4.18,21.44,17.78,30.33,11.5s6.8-19.35-9.94-20.92S93.18,24.79,93.18,24.79Z"/><path class="cls-6" d="M89.52,48.32C87.43,47.8,77,34.72,85.86,25.83s13.6-5.23,15.17.52-6.54,4.18-11,10.2C87.18,40.43,89.52,48.32,89.52,48.32Z"/><path class="cls-17" d="M76.18,76c2.28-4.23,7.06-7.06,16.73-2.61S125.6,83.36,129,83.62s45.23-6.54,46.54-5,2.35,15.17.52,15.43-40.53,8.11-50.46,7.32-28.24-5-40.27-11S74.35,79.43,76.18,76Z"/><rect class="cls-18" x="180.25" y="77.08" width="32.95" height="9.15" rx="2.35" ry="2.35"/><rect class="cls-19" x="197.92" y="77.08" width="4.31" height="9.2"/><path class="cls-20" d="M213.46,84.41a1.86,1.86,0,0,1-1.87,1.87h0a1.87,1.87,0,0,1-1.87-1.87V78.95a1.87,1.87,0,0,1,1.87-1.87h0a1.87,1.87,0,0,1,1.87,1.87Z"/><polygon class="cls-21" points="253.65 44.64 238.79 40.75 239.49 47.41 250.91 50.13 253.65 44.64"/><polygon class="cls-5" points="245.5 47.17 235.83 40.38 248.1 38.08 257.62 45.72 245.5 47.17"/><polygon class="cls-21" points="257.06 59.55 258.85 55.57 260.64 59.55 257.06 59.55"/></svg>