<svg xmlns="http://www.w3.org/2000/svg" viewBox="0 0 72 72"><title>burger</title><path d="M34.79,63.29c-1.1,0-2.2-.1-3.3-.13-.15,0-.3.13-.48.21-.16-.33-.53-.27-.86-.3-2.62-.26-5.24-.48-7.85-.8-2.29-.28-4.57-.66-6.85-1-.9-.14-1.78-.35-2.68-.51-.37-.07-.46-.38-.62-.63s-.18-.41-.29-.6a9.32,9.32,0,0,1-1.15-6.46c.12-.58.26-1.15.4-1.72a.6.6,0,0,0-.46-.82c-1-.34-1.94-.74-2.92-1a15.2,15.2,0,0,0-5.19-.7,8.49,8.49,0,0,0-.88.13c0-.29.22-.42.45-.51a.47.47,0,0,0,.3-.33A1.55,1.55,0,0,1,3,47.38a5.54,5.54,0,0,1,2.37-.78c1.07-.15,2.15-.24,3.24-.36l-.38-1.51a.69.69,0,0,1,0-.29,1.16,1.16,0,0,1,.15-.29,2.32,2.32,0,0,1,.14.26c.27.71.54,1.41.78,2.13a4.25,4.25,0,0,1,.09.86c-.14-.14-.28-.21-.33-.33a.44.44,0,0,0-.5-.26,19.54,19.54,0,0,0-4.89,1,6.89,6.89,0,0,0-.71.34l3.82.33-.58-.73.07-.08a2.31,2.31,0,0,1,.5.4A2.3,2.3,0,0,0,8.23,49a1.75,1.75,0,0,0,.32.08c-.32-.57-.91-.93-1.23-1.51A6.7,6.7,0,0,1,9,49.13c.14.22.48.32.73.47l.08-.1L8.22,47.58l.05-.06c.06,0,.13,0,.17.08C9,48.3,9.61,49,10.22,49.71a3.7,3.7,0,0,0,.78.52l.08-.08L9.35,47.91l0,0a.73.73,0,0,1,.18.11c.48.55,1,1.08,1.43,1.65a1.92,1.92,0,0,1,.26.69.79.79,0,0,0,.8.4l-1.8-2.82.06-.06a5.48,5.48,0,0,1,.63.67c.45.66.86,1.35,1.29,2a1.09,1.09,0,0,0,.28.22l.07-.09-1.38-2.21.05-.06a1.35,1.35,0,0,1,.28.22c.42.58.86,1.14,1.22,1.75a.49.49,0,0,0,.68.26L12.23,48.7l.11-.07a5.75,5.75,0,0,1,1.39,2l1.62-.08a4.18,4.18,0,0,1,0-.49c0-.15.13-.37.07-.44a4.62,4.62,0,0,0-.67-.53l-.09.09a3.94,3.94,0,0,1,.34.44.86.86,0,0,1,.15.44.2.2,0,0,1-.35.15A15.71,15.71,0,0,0,10,47.26a3.27,3.27,0,0,1-.4-.2,1.54,1.54,0,0,1-.22-.2,1.4,1.4,0,0,1,.31-.11.76.76,0,0,1,.29.05l.81.25,1.88.55.1-.08-.53-.26.13-.15c.49,0,.79.46,1.13.65.46-.23.85.19,1.21,0l-.45-1.41-.09-1.47h-.91a1.68,1.68,0,0,0,.71,1.17,1.94,1.94,0,0,1,.23.29L13.41,46c.09.28.18.56.26.84a.86.86,0,0,1,0,.26c-.08,0-.22-.07-.25-.14-.14-.42-.28-.84-.38-1.26-.27-1.12-.22-.87-1.21-.92l1,1.27c-.72.12-1-.39-1.4-.83-.07-.09-.22-.12-.39-.21v-.27L9,44.3a1,1,0,0,1-.24-.08.68.68,0,0,1-.14-.15c.06,0,.13-.14.19-.13.31,0,.61.06.92.08l4.1.26.09,0c-.24-.32-.5-.62-.71-1a.81.81,0,0,1-.09-.45,3.53,3.53,0,0,0-.29-1.77,1.65,1.65,0,0,0-.54-.68,1.59,1.59,0,0,1-.78-1.53,6.1,6.1,0,0,1,1.08-3.26,18.7,18.7,0,0,1,3-3.67,8.41,8.41,0,0,0,.81-1c-.4-.35-1-.24-1.26-.75s-.33-.92-.51-1.42a2.62,2.62,0,0,0-1.47,1.31,9.86,9.86,0,0,0-.58,1.63,6.83,6.83,0,0,1-2.13,3.73A6.56,6.56,0,0,1,6.6,37a1.16,1.16,0,0,1-1.41-1H4.41c1.23-1.78,1.48-3.75,1.9-5.7l-.49-.14v-.11c.43-.06.85-.13,1.28-.17l3.91-.3a1.66,1.66,0,0,0,.36-.08c.43-.14.56-.32.53-.76a4.56,4.56,0,0,0-.12-.73,2,2,0,0,1,.88-2.53,3.14,3.14,0,0,1-.39-2.41l.12,0c.06.3.11.59.17.89s.18.81.27,1.22c0,.2.16.23.35.19.59-.12,1.2-.18,1.78-.32s1.06-.31,1.59-.48l2.7-.9a8.61,8.61,0,0,1-1.07-2.78l.14-.06,1.2,2.77,1.55-.44a10.63,10.63,0,0,1-.38-1.27,5,5,0,0,1,0-1.33c.46.76.34,1.7.84,2.49a48,48,0,0,1,12-1.45V19.4h.15a5.63,5.63,0,0,1,0,2.13c1.23,0,2.46,0,3.68,0a1.19,1.19,0,0,0,.4-.17.93.93,0,0,0,1.31-.2.42.42,0,0,0,0-.24,5.3,5.3,0,0,1-.2-.84,2,2,0,0,1,.58,1.45l7.81.25c.12-.35,0-.56-.35-.78-1.55-1-3.07-2.06-4.6-3.1a1.65,1.65,0,0,1-.42-.44,14.41,14.41,0,0,1,2.7,1.62l2.68,1.8.13-.72.09,0a3.87,3.87,0,0,1,.09.67.51.51,0,0,0,.25.48,3.63,3.63,0,0,0,.65.48,5.35,5.35,0,0,0,1,.18c0-.35.05-.63.05-.91,0-.07-.09-.16-.16-.21l-5.18-3.45c-.07,0-.17,0-.23-.09s-.23-.21-.35-.32l.09-.13a3,3,0,0,1,.52.21l3.93,2.5c.51.33,1.06.61,1.53,1s1.12,1,1.68,1.5a.3.3,0,0,0,.15.08l.81.07c0-.4,0-.78,0-1.16a.39.39,0,0,0-.17-.25q-3-2-6-4.06c-.18-.12-.34-.42-.65-.19,0,0-.18-.14-.25-.24s0-.21,0-.23a.4.4,0,0,1,.3,0,17.47,17.47,0,0,1,1.72.93c1.55,1,3.08,2.1,4.62,3.15l.41.26v-.9l.15,0a3.6,3.6,0,0,1,.17.61,1,1,0,0,0,.58.93,15,15,0,0,1,1.28.81,1.91,1.91,0,0,1,.24.22l0,.09L53.91,22c0-.08,0-.21-.09-.24-.36-.22-.74-.43-1.15-.66l-.13,1.07c.68.11,1.34.19,2,.32,1.12.23,2.24.5,3.36.75l.25,0,1.71.47a.28.28,0,0,0,.24-.07c.44-.57.88-1.15,1.33-1.75l-2-1.53a7.12,7.12,0,0,1-.13,1,.42.42,0,0,0,.18.52c.37.29.7.63,1,.94l-.1.12-1.3-1c-.31.89-.31.89-.16,1.22l-.69.08L58.4,23l-2.18-1.44c-.17.3,0,.71-.35,1a1.54,1.54,0,0,1,0-.33,1.22,1.22,0,0,0-.72-1.38c-1.69-1.08-3.34-2.24-5-3.38a3.09,3.09,0,0,1-.32-.29l.08-.13a2.35,2.35,0,0,1,.48.18L54.65,20c.4.26.79.54,1.23.84,0-.38.09-.71.1-1,0-.09-.11-.21-.2-.28l-2.91-2.1c-.11-.08-.28-.08-.38-.16a1.62,1.62,0,0,1-.26-.35c.12,0,.27,0,.35,0,1.27.85,2.54,1.69,3.79,2.58.85.61,1.66,1.28,2.55,2,.08-.4.16-.75.22-1.11,0-.06-.09-.16-.16-.21q-2.61-1.86-5.23-3.7c-.23-.16-.52-.25-.75-.42s-.44-.21-.27-.47c0-.06.37,0,.52.08a17.27,17.27,0,0,1,1.56,1c2.11,1.55,4.21,3.12,6.3,4.68.2.15.37.32.57.49l.58-.47c-1-.81-1.93-1.62-2.92-2.38-1.65-1.27-3.33-2.52-5-3.78a1.2,1.2,0,0,1-.21-.33c.13,0,.3,0,.39.05q1.91,1.34,3.8,2.7c.19.14.36.3.55.45a3.16,3.16,0,0,1,.86.68,5,5,0,0,0,.91.81c.3.26.58.54.88.8s.63.52,1,.82l1-.55a6.37,6.37,0,0,0-.26-.93A14.32,14.32,0,0,0,55.55,12a27.66,27.66,0,0,0-7.41-1.86A96.12,96.12,0,0,0,35.86,9.4a55.63,55.63,0,0,0-12,1.49c-.69.15-1.4.23-2.06.45-1.11.36-2.21.77-3.28,1.23a20.15,20.15,0,0,0-4.66,2.63A8.62,8.62,0,0,0,10.54,21a9.57,9.57,0,0,0,0,3.32,2.7,2.7,0,0,0,.74,1.54.35.35,0,0,1,.1.27A2.53,2.53,0,0,1,11,26,3,3,0,0,1,10,23.82a11.28,11.28,0,0,1,.77-5.88,8.64,8.64,0,0,1,3-3.55,23.1,23.1,0,0,1,5.16-2.64c1.19-.49,2.37-1,3.58-1.42a20.55,20.55,0,0,1,2.81-.65,55.63,55.63,0,0,1,11-1.05c1.81,0,3.63.15,5.44.27s3.6.25,5.39.46a30.46,30.46,0,0,1,9.06,2.23,13.9,13.9,0,0,1,7.15,7.32c.41.92.45,1.11.42,1.5a10.61,10.61,0,0,1,2-.28c1,0,2,.26,3,.4A2.22,2.22,0,0,1,70.1,21c0,.26-.16.24-.36.2-.47-.1-1-.18-1.43-.26-.75-.09-1.49-.22-2.24-.27a4.28,4.28,0,0,0-2.16.43,6.71,6.71,0,0,0-1.81,1.25A19.13,19.13,0,0,0,60.67,24a10.49,10.49,0,0,0,1.48.4,1.6,1.6,0,0,1,1,.58l1.44,1.48.09,0a2.11,2.11,0,0,0-.24-.51c-.26-.31-.56-.59-.85-.88s-.55-.57-.82-.86c0,0,0-.14,0-.22a.54.54,0,0,1,.19,0,1.41,1.41,0,0,1,.22.19l1.39,1.32.09-.05a2,2,0,0,0-.24-.51c-.45-.51-.93-1-1.39-1.49a1.74,1.74,0,0,1-.19-.32l.11-.08,1.65,1.69.15-.09a2.28,2.28,0,0,0-.21-.55c-.23-.32-.51-.61-.75-.92a1.42,1.42,0,0,1-.14-.32l.14-.1L64.85,24l.28-.51.12-.14-1-.82c.52,0,.75.46,1.11.73l.4-.37-1.09-1,.06-.08A1.49,1.49,0,0,1,65,22c.19.17.38.36.56.54.35.35.34.35.72,0-.56-.64-.56-.64-.53-.81.48,0,.55,1,1.26.58l-.72-.86.12-.12a6,6,0,0,1,.68.65.49.49,0,0,0,.71.15l-.59-.73c.57,0,.64.76,1.31.71l-.82-.88a1.08,1.08,0,0,1,.88.59.68.68,0,0,0,.8.28l-.31-.35-.54-.64a1.61,1.61,0,0,1,.42.17c.3.24.59.5.88.76a3.18,3.18,0,0,1,.19-.51c0-.09.19-.13.28-.19a2.21,2.21,0,0,1,0,.63,11.66,11.66,0,0,1-.48,1.24c0,.08-.16.12-.24.18a2.49,2.49,0,0,1-.17-.29.35.35,0,0,1,0-.18c0-.25-.06-.35-.3-.34a6.8,6.8,0,0,0-2.71.61c-.1.05-.16.19-.26.32-.32,0-.46.13-.38.52-.39-.07-.45.25-.49.49a9.46,9.46,0,0,0-.1,1.34c0,.84.23,1.71-.32,2.47a2.78,2.78,0,0,1-.62.49A15.66,15.66,0,0,1,63.83,31a11.65,11.65,0,0,1-1,1.92.44.44,0,0,0,0,.53,9,9,0,0,1,.73,1.05,3.47,3.47,0,0,1,.19.89c-.4-.08-.73-.19-1,.05a3.42,3.42,0,0,0-.37-.49c-.41-.39-.84-.75-1.27-1.14A7.24,7.24,0,0,0,63,26.63l.53.09c.49.48.44,1.16.62,1.81a3.44,3.44,0,0,0,.22-.27c.28-.45.27-.53-.1-.91l-.67-.69-.69-.73a6.69,6.69,0,0,0,0,.89,6.3,6.3,0,0,1-1,3.44.52.52,0,0,0,0,.63,6.55,6.55,0,0,1,.31.62.43.43,0,0,1-.28-.15c-.32-.35-.5-.35-.84,0s-.45.38-.66.6a.48.48,0,0,0-.14.33c0,.31.09.61.13.91l-.1,0-.33-.91-1.52.85.18.69-.12.05-.31-.57-3.41.64.07.69-.12.09c-.1-.7-.41-1.1-1.15-.86l.05.4-.08.05L53.4,34c-.07-.09-.14-.22-.23-.24-.45-.11-.91-.18-1.36-.26l-.12.43h-.1c0-.12-.07-.24-.12-.36s-.07-.2-.13-.23c-.52-.21-1.05-.41-1.6-.62l.08.29-.08.05-.4-.44c-.07-.08-.12-.19-.2-.24a8.68,8.68,0,0,1-2.8-2.44.34.34,0,0,0-.26-.14c-.27.05-.54.14-.85.23.42.6.78,1.21,1.24,1.74a8.8,8.8,0,0,0,1.46,1.38,10,10,0,0,0,2.89,1.46,20.26,20.26,0,0,0,4,1,8.92,8.92,0,0,0,2.64,0,7.18,7.18,0,0,0,3.57-1.68L62.3,35.2c.12.12.24.23.37.35l-.29.37v.48l-.35-.1-.17.21L60.39,35l-.12.12,1.42,1.55-.6.85.37.17c.38.19.76.37,1.12.59a1.16,1.16,0,0,1,.43.91,1.65,1.65,0,0,1-.22,1.54c-.55-.92-2.5-2.61-3.12-2.61l1,.82,0,0L59,38l-.07.11,3.78,2.63-.34.62a3.82,3.82,0,0,1-1,.8,3.88,3.88,0,0,0-.81,1s0,.07.06.07l3.8.16h.59a1,1,0,0,1,0,.38,3.47,3.47,0,0,1-.54.77Q63.21,45.81,61.87,47c-.23.21-.54.33-.81.54a40,40,0,0,0,5,.75l.06.14c-.2.24-.38.5-.61.72s-.69.64-1.05.94c-.06,0-.17,0-.25,0-.13-.27,0-.45.2-.62l.95-.92-4-.56.47,1.15-.22.17L61.45,49c-.11-.26-.22-.52-.34-.77,0-.1-.12-.23-.21-.26a5.9,5.9,0,0,0-.76-.11c.11.22.2.38.28.55s.14.32.2.49l-.17.08c-.16-.28-.33-.54-.47-.83s-.23-.43-.68-.38L60,49.06l-.11.08a1.11,1.11,0,0,1-.24-.21,7.54,7.54,0,0,1-.5-.9.55.55,0,0,0-.66-.35l.45,1-.13.07-.49-.83c-.06-.1-.12-.27-.21-.28-.49-.09-1-.15-1.54-.22.67.53,1.25,1,1.85,1.48a1.65,1.65,0,0,0,.64.32c1,.2,2,.36,3.05.54.56.1,1.12.19,1.67.31.25.05.44.19.33.5a5.88,5.88,0,0,1,.25,1.05c.05.92.08,1.84.06,2.76a9.24,9.24,0,0,1-.74,3.35A5.26,5.26,0,0,1,63,58.82a7.69,7.69,0,0,1-2.45,2.08,4,4,0,0,1-.53.23c-.58.22-1.17.43-1.76.66-.11,0-.18.17-.27.26l-.24.24-.21-.34-1.32.18-1.94.25-2.6.31c-.34,0-.68.06-1,.08l-2.2.13L46,63c-1,.06-1.9.12-2.86.15-1.36,0-2.73.06-4.09.09ZM47,22.36l-1.49-.1,0,.07,1.38.73,0-.07-.43-.46.53,0c.37-.26.48.22.78.29l-.16-.44Zm6.83,4c-.34-.38-.88-.54-1.14-1v.18L49.83,27.7l0,.12a3.27,3.27,0,0,1,1.8-.37v-.11l-.53-.12c.06-.29.23-.4.5-.3s.61.26.91.4l.29.15,0-.06L52,26.2l.15-.11.74.85,0,0L52.42,26l.11-.06c.11.14.23.28.34.42.52.73,1,1.48,1.54,2.21a3.74,3.74,0,0,0,.41.42l.08-.07a12.81,12.81,0,0,1-1.66-2.81,1,1,0,0,1,.29.31l2,2.93a1,1,0,0,0,.22.18c-.5-.88-1-1.69-1.58-2.52a1.93,1.93,0,0,1-.15-.4,2.79,2.79,0,0,1,.3.31l1.89,2.67.3-.35a1.34,1.34,0,0,1-.68-.87,3.87,3.87,0,0,0-.37-.59,1.39,1.39,0,0,1-.07-.39Zm-7,26.41.56.43.07-.05-.33-.6c0-.07-.07-.17-.13-.21l-1.59-1.17L45.23,51l.09-.15,1.25.66a8.69,8.69,0,0,0-1.11-1.37,2.63,2.63,0,0,0-2.13-.75,9.68,9.68,0,0,0-1.17.17,2.42,2.42,0,0,0-.51.24l0,.09-.4-.19v.56L41,49.78l-.53.17c.26.46.26.47.11.64-.45-.75-.38-.62-.79-.46l.3.59-.13.09a4.37,4.37,0,0,0-.33-.35c-.1-.09-.23-.22-.34-.21a10,10,0,0,0-1,.1l.44.72A1,1,0,0,1,38.4,51a7.78,7.78,0,0,1-.81-.69c-.31-.33-.58-.7-.88-1.05a.8.8,0,0,0-1-.28l-1,.36a12.29,12.29,0,0,1-1.25.45c-1.08.26-2.17.47-3.28.71l.11.27c-.27.07-.58-.34-.81.19.12-.69-.43-.71-.76-.91a9.35,9.35,0,0,0-1.06-.54,27.87,27.87,0,0,0-5-1.55c-.55-.14-1.13-.19-1.71-.28l-.06,1c.48,0,1,.06,1.43.15a2.19,2.19,0,0,1,1.43.49c-.26,0-.42,0-.57,0-.75,0-1.5-.1-2.25-.13a1.59,1.59,0,0,0-.49.16c.49.53.49.52,1.07.53a14.48,14.48,0,0,1,5.26,1.09c.93.38,1.88.74,2.83,1.09A.6.6,0,0,0,30,52a10.27,10.27,0,0,1,1.33-.6,6.23,6.23,0,0,1,1.34-.11L37,51.05a1,1,0,0,1,.35.13l0,.16a5.58,5.58,0,0,1-.77.09c-.35,0-.51.11-.52.48a5.81,5.81,0,0,1-.15.93c-.24-.26-.24-.26-.09-1.33h-.86c0,.38,0,.75,0,1.12,0,.07-.08.13-.12.2s-.14-.13-.16-.21a.77.77,0,0,1,0-.29c0-.27.05-.54.07-.74-.82,0-1.6,0-2.37,0-.19,0-.41-.15-.57-.09a3.74,3.74,0,0,0-1.68.92.56.56,0,0,1-.44.13,3.65,3.65,0,0,1-.74-.2c-1-.36-2-.75-3-1.07s-1.82-.49-2.81-.76a4.63,4.63,0,0,1,.36,1.86c-.22-.46-.36-.93-.53-1.4-.06-.16-.19-.4-.32-.42-.49-.08-1-.08-1.46-.1,0,.43,0,.81,0,1.19a1,1,0,0,1-.12.3c-.08-.1-.22-.2-.23-.31,0-.38,0-.76,0-1.15h-.73l.2.38L16.53,51v.91l-.14,0-.23-.9-1.28.06v1.6c-.46-.47-.32-1-.28-1.56H13.47l-.63.07-1.4.09-.12,1a9.92,9.92,0,0,0,.28,4.9,26.81,26.81,0,0,0,1.2,2.61.89.89,0,0,0,1,.54c0-.1-.06-.2-.1-.29-.25-.57-.51-1.13-.74-1.7,0-.08.06-.22.09-.33l.1,0-.34-2.84.13-.05a.93.93,0,0,1,.19.24,2.93,2.93,0,0,1,.08.43c.29,1.44.6,2.89.88,4.33.07.34.25.37.54.33,0-.09,0-.16,0-.23A17.57,17.57,0,0,1,14,55.75a2.3,2.3,0,0,1,.08-.42h.14a1.19,1.19,0,0,1,.07.28,21,21,0,0,0,.69,4.59.44.44,0,0,0,.43.41l.31.06.59,0c-.2-1.1-.43-2.18-.59-3.27s-.24-2.17-.36-3.25l.11,0a4.54,4.54,0,0,1,.22.66c.33,1.85.65,3.71,1,5.56.08.45.24.55.73.44-.5-1.65-1.09-6.28-.84-6.78,0,.15.09.26.11.38.19,1,.38,2,.54,3,.07.39,0,.79.11,1.17.11.67.26,1.33.38,2a.5.5,0,0,0,.63.45,21.59,21.59,0,0,1-.7-6l.13,0,.85,6.09,1.24.17a53.8,53.8,0,0,1-1-7.36,50.81,50.81,0,0,1,1.34,7.44l7.41.85a16.44,16.44,0,0,1-.27-1.88c0-1.21,0-2.42,0-3.63s0-2.6,0-3.9l.07-.06c.08.1.21.2.22.32a14.54,14.54,0,0,1,.15,1.58c0,1.75,0,3.51.08,5.26,0,.77.08,1.54.12,2.34l1.65.12c-.27-1.52-.4-5.71-.14-6.18.1,1.22.2,2.34.29,3.47.06.8.1,1.6.17,2.4a.46.46,0,0,0,.22.35,2.39,2.39,0,0,0,.64,0l-.22-1.14.07,0,.24.34c0-2,.16-4,0-5.91A9.18,9.18,0,0,1,31.25,59c0,1.14,0,2.29,0,3.45l1.31.08c0-.26-.06-.48-.07-.7,0-.9-.12-1.8-.12-2.7,0-1.23,0-2.47.05-3.7a1.15,1.15,0,0,1,.15-.37l.09,0a2.89,2.89,0,0,0,0,.35q.12,2.76.25,5.51a.93.93,0,0,0,.14.33,1.11,1.11,0,0,1,.12,1.05L32.89,62l0,.59h5.56c0-.11,0-.23,0-.35,0-.37-.05-.73,0-1.1,0-.14.19-.27.2-.41.08-1.57.14-3.15.21-4.72,0-.08.08-.16.12-.25l.15,0a42.82,42.82,0,0,1-.24,6.82H40c0-2.19.58-4.32.42-6.6.12.14.21.21.23.29a2.17,2.17,0,0,1,.09.62c-.09,1.65-.2,3.3-.31,4.95,0,.24-.05.48-.09.83l11.8-.57.63-3.92.11,0A16.43,16.43,0,0,1,52.45,62l2.38-.22c0-.48,0-.93.07-1.37q.24-2.38.5-4.75c0-.19.17-.54.22-.53.34,0,.23.36.21.56-.13,2-.28,4-.42,6,.55.07.63,0,.64-.59a5.22,5.22,0,0,1,0-.59q.33-2.5.67-5a6.35,6.35,0,0,1,.18-.71h.16a1.35,1.35,0,0,1,.08.39c-.1,1.08-.2,2.16-.32,3.24s-.27,2.09-.41,3.16l1-.12c.2,0,.27-.11.27-.31a9.77,9.77,0,0,1,0-1.11q.24-2.77.51-5.53c0-.08.11-.15.17-.23.07.07.17.14.2.23a1.41,1.41,0,0,1,0,.44c-.09,1.39-.17,2.78-.27,4.18-.05.72-.13,1.44-.19,2.2a2.69,2.69,0,0,0,1.75-.6.81.81,0,0,0,.24-.45c.06-.48,0-1,.11-1.44.23-1.72.47-3.45.72-5.17,0-.1.11-.18.16-.28,0,.11.15.21.14.32,0,.57-.06,1.13-.12,1.7-.16,1.55-.34,3.1-.51,4.67.06,0,.13,0,.17,0a7,7,0,0,0,2.24-2.76.59.59,0,0,0,0-.28c-.06-.45-.14-.9-.18-1.35s0-.64,0-1H63l.28,1.78a1.41,1.41,0,0,0,.09-.17,15.14,15.14,0,0,0,.43-5.11,1.76,1.76,0,0,0-.22-.51l.12-.18-.07-.06a1.06,1.06,0,0,0-.17.15,9.3,9.3,0,0,1-.54.78c-.28.32-.59,0-.89,0-1.12,0-2.25-.11-3.37-.1a1.26,1.26,0,0,0-.93.41,17.17,17.17,0,0,0-1,2h1l0,.15-2.51.43c-.1.23-.21.27-.52.09l-.28-.18c-.86-.65-1.72-1.29-2.56-2a3.71,3.71,0,0,0-2-1c-1-.08-2.09-.29-3.2-.45a12.07,12.07,0,0,1,2.51,6.89,3,3,0,0,1,.57-.09c.11,0,.22.1.33.16a1.51,1.51,0,0,1-.25.22c-.25.14-.51.26-.8.41a1.49,1.49,0,0,0-.33,0c-.6.19-1.2.38-1.79.59a1.37,1.37,0,0,0-.35.28l-.21.18-.09-.27H44.83l0-.09,1.37-.43c-.08-.34-.15-.64-.21-.94a22.92,22.92,0,0,0-1.32-4.77,9.08,9.08,0,0,0-1.45-2.53.39.39,0,0,0-.54-.11c-.88.39-1.78.75-2.73,1.16.07-.12.09-.22.15-.27a4.25,4.25,0,0,1,.72-.51c.62-.3,1.28-.53,1.88-.86a.67.67,0,0,1,.87.09,3.84,3.84,0,0,1,.59.61c.35.5.67,1,1,1.55.18.42.37.83.53,1.26a14.52,14.52,0,0,1,1,5.18l2.12-.74c-.26-.76-1.15-.93-1.4-1.63l1.15.87.07-.08A12.36,12.36,0,0,0,47,55.4l.09-.12,1.42.93.07-.09a15.51,15.51,0,0,0-2.1-1.72c.75.06,1.23.62,1.82,1-.05-.48-.07-.5-.4-.75-.15-.11-.28-.24-.44-.34-.5-.33-.88-.86-1.52-1,0,0,0-.13-.08-.23.58,0,.93.33,1.35.53l.36.3.39.3c-.11-.51-.12-.53-.52-.77l-1.84-1.37C46.1,52.14,46.45,52.53,46.88,52.75Zm4.65-2.36c-.23-.31-.22-.8-.64-1l-.1.07.68,1,0,.21-.09.05a4.65,4.65,0,0,1-.55-.7.92.92,0,0,0-1-.59,5.23,5.23,0,0,1-1,0,16.55,16.55,0,0,1-3.38-.14.44.44,0,0,0-.15,0,5.92,5.92,0,0,1,.77.65,1.12,1.12,0,0,0,.91.38c.92.06,1.83.23,2.75.33a3.82,3.82,0,0,1,2.22.94c.83.73,1.76,1.35,2.66,2a1,1,0,0,0,.35.19,1.42,1.42,0,0,0,1.57-.7c-.3-.45-.58-.9-.89-1.32a2,2,0,0,0-.43-.33l-.12.13c.25.34.5.68.75,1a1.3,1.3,0,0,1,.11.27,2.15,2.15,0,0,1-1-1.11c-.14-.27-.14-.27-.49-.19l.6,1-.08.1a1.52,1.52,0,0,1-.36-.3c-.21-.34-.37-.72-.59-1.06a5.54,5.54,0,0,0-.54-.62l-.15.11,1,1.62a3.12,3.12,0,0,1-1-.65c-.39-.45-.67-1-1-1.48a6.73,6.73,0,0,0-.56-.61l-.12.1.8,1.23C51.87,50.94,51.72,50.63,51.53,50.38ZM62,28.28l.09-.31.14-.8.08-.32c0-.51.13-1-.23-1.5l.3-.32,2.36,2.31a1.94,1.94,0,0,0-.21-.44c-.59-.64-1.18-1.26-1.78-1.88a.52.52,0,0,0-.27-.15c-.55-.08-1.1-.13-1.64-.23s-.53-.1-.69.45l.35-.23.09.1-.7.7.28.13,0,.17c-.51-.23-.56.15-.68.41a4.21,4.21,0,0,1-2,2.23c.43.42.6,1.07,1.24,1.22l.08-.08L58.21,29l.09-.09.57.51c.19-.15.21-.15.33.1s.26.41.57.27c-.19-.42-.69-.68-.73-1.27.13.07.2.09.24.14a7.36,7.36,0,0,1,.67.88.51.51,0,0,0,.69.24c-.34-.43-.67-.82-1-1.23-.07-.09,0-.24-.07-.36.11,0,.25.05.32.13.37.47.73,1,1.12,1.47l.44-.12a12.29,12.29,0,0,1-1.49-2l.15-.12a14.85,14.85,0,0,1,1.44,1.74.51.51,0,0,0,0-.79,9.42,9.42,0,0,1-.72-.89,1.59,1.59,0,0,1-.15-.35l.13-.08,1.13,1.29Zm-24.27,20a2.19,2.19,0,0,1,1.27.28l.75.38,0-.08-1-.53a5.62,5.62,0,0,0,.08-.69,1,1,0,0,0-.13-.33,1.09,1.09,0,0,1,.4-.11c.34,0,.39-.22.58-.48l-.32-.09.08-.1.34.07.12-.54c.54.11,0,.43.19.68l.54.28c-.13-.26-.22-.43-.29-.6a.62.62,0,0,1,0-.23c.08,0,.2,0,.24.09s.25.42.39.63A2.13,2.13,0,0,0,42.6,48a2.64,2.64,0,0,1-1.08-1.64A8.79,8.79,0,0,0,43.1,48a4.31,4.31,0,0,1-.67-1.47c.58.56.77,1.45,1.55,1.82-.68-1.32-.72-1.41-.51-1.64.41.7.6,1.55,1.5,2l-.8-1.77.14-.07c.11.16.23.32.33.49.21.36.38.75.61,1.1a3.8,3.8,0,0,0,.57.56l.06-.07-.8-1.55.11-.09a1.68,1.68,0,0,1,.26.26c.27.43.52.87.79,1.29a.58.58,0,0,0,.59.29L46,47.61l.08-.09c.1.08.25.14.31.25.23.39.42.81.66,1.19a.47.47,0,0,0,.34.2c.33,0,.66-.06,1,0,1.11.05,2.24-.24,3.32.22a.17.17,0,0,0,.14,0A2.06,2.06,0,0,1,53,49.12c.63,0,1.26,0,1.89,0,.28,0,.39.11.51.36a11.57,11.57,0,0,0,.84,1.42.48.48,0,0,0,.38.12,2,2,0,0,1,1.2.18s.17-.09.24-.16.21-.27.31-.27c1.27,0,2.54.06,3.81.12a.88.88,0,0,0,1-.53l-3.85-.69v.25a1,1,0,0,1-.19-.07c-.74-.52-1.51-1-2.19-1.56a3.12,3.12,0,0,0-3.18-.66l.63.8-.11.09c-.45-.24-.71-.78-1.26-.88.23.3.63.41.8.76l-.09.12-1.34-.89,0,0,1.07,1-.08.12A1.7,1.7,0,0,1,53,48.6a4.48,4.48,0,0,1-.62-.52A1.25,1.25,0,0,0,51,47.74l.1.05c.18.12.54.06.46.39,0,.07-.41.11-.61.07q-4.07-1-8.13-2c-.53-.13-1.06-.31-1.64-.48l.06.76-.08.05a2.48,2.48,0,0,1-.29-.53c-.07-.25-.14-.46-.42-.54,0,0,0,0,0-.08l.27-.17-.18-.65h-.4c-2,0-3.92,0-5.88.09-.9,0-1.8.06-2.7.13-.6,0-.6.08-.64.67-.13.23,0,.6-.37.76L30.56,45l-.7.07-.23.88-.17,0,.06-.85c-.6,0-1.15,0-1.7,0-.1,0-.23.17-.29.28a2.31,2.31,0,0,0-.12.5h-.13l0-.73-.1,0c-1.89.07-3.78.15-5.67.2a13.74,13.74,0,0,1-1.81-.05c-.33,0-.65-.29-1-.3-.72,0-1.45,0-2.22.08l.23,1.7c-.57-.44-.35-1.1-.54-1.55l-1.76-.29a10,10,0,0,0,.47,2.62s.08.08.13.1l1.51.65.43.19c-.67-.53-.67-.53-.6-.71a5.56,5.56,0,0,0,2.45.89c-.49-.37-1.13-.5-1.59-.92l0-.09.43.07v-.42c1.13-.21,1.77.82,2.76,1.16l-1.76-1.37.08-.12,1.74,1.13c0-.1,0-.16,0-.22.08-.55.09-.61.65-.58s1.42.16,2.12.25c.2,0,.39.08.7.14l-.64-.57c.25,0,.43.27.67,0,0,0,.11,0,.17,0l.66.3-.23-.37.84.36,0,0-.63-.52.07-.11c.84.35,1.5,1,2.3,1.44l.05-.08L25,46.47l.08-.11c.15.07.38.25.44.2.31-.23.5.06.74.12L27.4,47s.06,0,.09,0a1.66,1.66,0,0,1,.59,0c.41.12.8.33,1.2.46a2.81,2.81,0,0,0,.64.06l0-.1-.66-.61a.89.89,0,0,1,1.16.27.89.89,0,0,0,1.06.14l-.67-.71.06-.09a1.32,1.32,0,0,1,.27.12c.21.16.39.34.61.48a2,2,0,0,0,.45.16l.05-.11-.49-.81.13-.1a3.07,3.07,0,0,1,.5.57.48.48,0,0,0,.63.26l.36-.09-.53-.58c-.09-.1-.16-.19.06-.2l.58.55c.19.41.47.11.76.12L34,46.29l-.5.28c.35-.57.7-1.15,1.07-1.71,0-.07.2-.07.31-.1s0,.25,0,.33c-.22.33-.47.63-.71,1a1.81,1.81,0,0,1,.32.35c.11.21.27.22.46.18.91-.16,1.82-.33,2.73-.47.7-.11,1.41-.18,2.12-.26.11,0,.37-.07.2.22h-.18c-2,.38-4,.79-6,1.15-1.63.29-3.26.57-4.9.73a2,2,0,0,0-1.41.82l.72.36a.61.61,0,0,0,.27.09c.88-.06,1.77-.11,2.65-.21s2-.29,2.94-.43l-.51-.77.13-.1c.13.16.26.32.4.48s.23.45.54.25l-.17-.72c.46,0,.17.76.73.65-.12-.24-.23-.44-.32-.65,0,0,.07-.13.1-.2s.11.07.14.12c.1.22.19.44.29.68l.48-.06c0-.32-.39-.52-.16-.95l.46.89.5-.09c-.1-.18-.2-.33-.27-.5s-.11-.33-.16-.5l.12,0,.63,1,1.34-.32a.81.81,0,0,1-.31.31l-.31.2-1.1.16v.12l.65.23.08-.31C37.59,48.62,37.58,48.31,37.72,48.28ZM10.61,34.22c0-.12,0-.27,0-.34-.49-.63-1-1.25-1.51-1.87l-.15-.41L9,31.51a24.67,24.67,0,0,1,2,2.25l.22-.38c-.55-.34-1.53-1.69-1.43-2l1.54,1.74.09,0c0-.12,0-.27-.07-.36-.28-.36-.59-.7-.89-1a2.7,2.7,0,0,1-.19-.3l.16-.14,1.1,1.32c.22-.27.17-.41,0-.57s-.44-.32-.39-.68l.66.56c.28-.55-.39-.55-.48-.94l.73.13,0-.07-.69-.44c.05,0,.1-.11.14-.1.21.05.41.12.63.19.07-.17.15-.33.2-.51a.83.83,0,0,0,0-.26,1.22,1.22,0,0,0-.29,0,3.38,3.38,0,0,1-.82.32c-1.11.09-2.21.13-3.32.18-.39,0-.79,0-1.2,0,0,.19,0,.38-.06.58A10.25,10.25,0,0,1,6,34.63,1.16,1.16,0,0,0,6.15,36l0,0,.45.27c-.12-.54-.46-.88-.34-1.35a4.17,4.17,0,0,1,.53,1c.1.3.25.33.49.19-.24-.54-.8-.93-.78-1.59.36.44.67.91,1,1.36.06.08.19.12.28.18L7.9,36,6.63,33.87c.14,0,.22,0,.23,0l1.48,2,1.15-.58c-.45-.65-.88-1.24-1.29-1.84A2.67,2.67,0,0,1,8,33l.15-.08,1.62,2.18.25-.22a31.28,31.28,0,0,1-1.91-2.51l.16-.13,2.07,2.39ZM50,26.85c-.22-.21-.43-.44-.66-.64a.48.48,0,0,0-.3-.14,4.61,4.61,0,0,0-.64.13c.13.22.27.42.37.62s0,.17,0,.26a.91.91,0,0,1-.19-.16c-.24-.35-.39-.8-.94-.91.13.22.24.39.33.57s.14.35.21.52l-.08,0c-.86-1.21-1.54-2.6-3.12-3.17.52.74,1,1.44,1.5,2.13a1,1,0,0,1,.27,1,.8.8,0,0,1-.16-.11L46,26.34c-.65-.8-1.34-1.58-1.94-2.42a.94.94,0,0,0-.77-.4c.35.42.64.76.92,1.12q.86,1.11,1.7,2.24a1.35,1.35,0,0,1,.13.39l-.14.06-.37-.52q-1.23-1.64-2.48-3.27c0-.06-.17-.06-.25-.09l-.06.08c.7,1.23,1.72,2.25,2.35,3.57a14,14,0,0,1-2.59-3.7l-.88-.1A16.53,16.53,0,0,1,44,26.55a.51.51,0,0,1-.31-.17l-2.16-3a.41.41,0,0,0-.25-.17c-.25,0-.51,0-.83,0a2.36,2.36,0,0,1,1.51,1.28c.43,1.09.86,2.18,1.31,3.26a9.71,9.71,0,0,0,.5.94s.06,0,.07.05l.15-.1c.08.17.11.37.22.45a1.61,1.61,0,0,0,1.65.13c-.21-.41-.42-.8-.6-1.19,0-.07,0-.19.06-.29s.19.09.24.16c.27.38.53.77.79,1.15a2.31,2.31,0,0,0,.28-.12l3.3-2s.06-.09.09-.14l2.09-1.37,0-.14c-.19,0-.41-.16-.57-.1-.67.21-1.33.48-2,.72ZM53.71,43l-.48-.52,0,0,.14.38-2-1.25-.09.14L54.36,44c-.38.05-.71.11-1,.14a.45.45,0,0,1-.29-.08c-.59-.44-1.17-.9-1.76-1.34a1.3,1.3,0,0,0-.37-.13l0,.08,1.86,1.39-.37,1.64-.13,0c-.21-.5.09-1,.1-1.44a4.65,4.65,0,0,1-.52-.26l-1.56-1.06a1.67,1.67,0,0,0-.23-.11l-.07.11,1.84,1.35c-.43,0-.81,0-1.19,0-.57,0-.57,0-.65.58a1.29,1.29,0,0,1-.1.26h-.15l-.14-.86H46.88c-.2,0-.4,0-.6,0l-.33.21c-.17-.29-.39-.15-.6-.05a2.82,2.82,0,0,0-1-1.34c-.39-.39-.8-.76-1.21-1.14l.18-.26-.4-.35a1.09,1.09,0,0,1,.49.28L45.92,44a1.35,1.35,0,0,0,.3.17l.13-.16-1.69-1.46.09-.11c.1.06.2.12.31.16.65.29,1.3.57,2,.84.08,0,.22-.07.32-.11a2.42,2.42,0,0,1-.67-.31c-.16-.16-.2-.44-.36-.61-.37-.39-.78-.75-1.17-1.11a21,21,0,0,0,3,1.71l.1-.16-2.53-1.69a.86.86,0,0,1,.42.11A5.62,5.62,0,0,0,48,42c.11,0,.24-.07.36-.11-.16-.14-.43-.42-.46-.4-.28.22-.41,0-.55-.15-.38-.31-.73-.65-1.1-1a.93.93,0,0,1,.36.12c.79.42,1.58.86,2.38,1.27.12.06.29,0,.44,0l-.09-.33.54-.16-.43-.68c.12-.17.22-.34-.15-.53A9.85,9.85,0,0,1,48,39.14a.9.9,0,0,1,.42.09c.39.16.77.33,1.16.46a.46.46,0,0,0,.42-.12c.06-.09,0-.31-.08-.42a6,6,0,0,0-.5-.6c.28.1.53.26.79.38a1,1,0,0,0,.35,0c-.06-.11-.08-.26-.17-.32-.36-.26-.74-.49-1.12-.74l0,0,1.54.61.05-.07-.55-.71c.42-.62.64-.71,1-.4l-.31.27c.28,0,.58,0,.6-.35s-.28-.42-.64-.38a.93.93,0,0,1-.15,0,.84.84,0,0,1-.29,0c-.22-.1-.34,0-.33.24s0,.27,0,.45L48.43,36c-.05,0-.06-.13-.1-.19s-.1-.28-.2-.33Q45.82,34.23,43.48,33c-.09,0-.28-.1-.3-.07-.16.27-.32.07-.48,0s-.2-.1-.24-.07c-.32.22-.55-.05-.81-.12-.45-.12-.82-.63-1.36-.23,0,0-.07,0-.11,0a2.49,2.49,0,0,0-1.59.41c-.42.26-.81.57-1.2.86s-1,.84-1.59,1.21a1.78,1.78,0,0,1-2.21-.12,7,7,0,0,1-.87-.81c-.82-.87-1-.9-2-.31a2.71,2.71,0,0,0-.56.36A17.42,17.42,0,0,0,28.27,36c-.86,1.12-1.61,2.32-2.43,3.54l1.45,1.19,3.28,2.71a1.18,1.18,0,0,0,.32.13l.08-.12-1.33-1.21,0,0,.67.41a6,6,0,0,0,1.4,1,.71.71,0,0,0-.14-.34,2,2,0,0,0-1.24-.7l-.28-.35c.42,0,.74.38,1.07.1l-.22-1,.12-.06a5.07,5.07,0,0,0,.47.31c.65.33,1.32.64,2,1s1.22.68,1.84,1a2.54,2.54,0,0,0,.51.14L33.37,42l.07-.11,2.34,1.26.08-.09a1.7,1.7,0,0,0-.29-.3l-1.9-1.14-.21-.15.05-.11c1.21,0,2.05,1,3.16,1.33l.06-.1-2.16-1.29.07-.12.73.39c.7.36,1.39.73,2.09,1.08a1.47,1.47,0,0,0,.47.06c-1.08-.64-2.14-1.27-3.19-1.9-.07,0-.09-.19-.13-.3l.09-.05.77.41.09-.07a1.19,1.19,0,0,0-.21-.3,4.36,4.36,0,0,0-.51-.3V40c.22.13.43.27.66.39a.4.4,0,0,0,.25.06c.49-.13.55-.1.67.41l.13-.33c.31-.07.35.1.2.29a3.84,3.84,0,0,1-.57.51l3.4,2c.06-.1.08-.21.14-.23.3-.11.15-.21,0-.3l-.55-.34,0-.08,1.29.73.06-.1-.35-.32.25-.16a1.81,1.81,0,0,0-.23-.19c-.11-.07-.25-.11-.36-.18l-3.13-1.73-1.5-.92c.13-.29.13-.29,0-.59a.3.3,0,0,1,0-.22,2.39,2.39,0,0,1,.86,0,2.46,2.46,0,0,1,.68.49l.34.28a4.1,4.1,0,0,1-.81-.43.46.46,0,0,0-.72.3l7.8,4.53c-.35-.61-1-.88-1.52-1.34a2.72,2.72,0,0,1,.39.16c.39.18.78.36,1.17.53.21.09.42.1.44-.22h0c.37.55,1,.91,1.21,1.63a24.11,24.11,0,0,1-4.31.11c.16.3.22.63.4.72a4,4,0,0,0,1,.24l0,0L47.91,47S48,47,48,47l-.77-1.18.16-.11c.31.42.61.84.93,1.25a2.24,2.24,0,0,0,.28.26l.08-.08c-.21-.32-.42-.63-.63-1a.81.81,0,0,1-.06-.21.78.78,0,0,1,.25,0,.52.52,0,0,1,.17.19c.19.3.36.62.55.92a1.65,1.65,0,0,0,.24.25l.11-.1-.65-1.08c.38-.11.8.47.87,1.24l.44.07c-.3-.53-.56-1-.82-1.45a1.7,1.7,0,0,1-.1-.34c.12.06.28.09.35.18.25.3.47.63.69.95l1.13-.18v-.53c.21.15.31.39.48.47s.37-.09.59-.15a4,4,0,0,0,.59.1,18.12,18.12,0,0,1,2,.05c1.55.23,3.08.54,4.62.8.11,0,.29-.08.34,0,.21.23.33.09.48-.06a1.88,1.88,0,0,1,.36-.26,21.37,21.37,0,0,0,3.6-3s0-.06,0-.12c-.6,0-1.17-.07-1.75-.09a.37.37,0,0,0-.27.2c-.11.31-.17.63-.27,1-.27-.44,0-.82,0-1.23-.31,0-.72-.08-.84.06A5,5,0,0,0,60.63,45c0,.05.07.19,0,.21a.83.83,0,0,1-.26.09c0-.1-.11-.21-.08-.29.14-.42.3-.83.46-1.24l0-.09-.45.2a1.12,1.12,0,0,0-.37-.09c-.26,0-.52.11-.82.19l-.3,1.46.15,0,.13,0v.1c-.14,0-.3.08-.4,0s-.13-.23-.16-.36a.51.51,0,0,1,0-.22l.27-1.3a1.23,1.23,0,0,0-.39.11,1.89,1.89,0,0,1-1.4.35c-.68,0-1.36-.08-2-.14a.82.82,0,0,1-.46-.18c-.3-.29-.56-.61-.84-.93l1.47.77c.12.06.22.14.34.21l.06-.1a6.08,6.08,0,0,0-1.7-1.08S53.76,42.9,53.71,43ZM19.47,40.09a3.75,3.75,0,0,1-.32-.29c-.27-.3-.53-.62-.8-.92a1.34,1.34,0,0,0-.32-.19l0,.07,3.07,4.08.13-.09a17.32,17.32,0,0,0-1.6-2.45l.22-.19,1.9,2.49.12-.06-.3-.73a6.25,6.25,0,0,1,.6.75,1.49,1.49,0,0,0,.18.18c.19-.26.28.1.51.05a1,1,0,0,0-.08-.32c-.27-.41-.56-.81-.83-1.22a1.57,1.57,0,0,1-.12-.32.63.63,0,0,1,.31.24c.22.3.42.61.65.9s.24.42.46.08l.72.93L24,43l-.27-.57.24-.14.58.45c.11-.53.11-.53-.15-.87Q23.73,40.92,23,40l-1.8-2.49a.31.31,0,0,1,.23.11c.29.34.57.68.86,1l2.6,3c.09.1.19.31.25.3.36-.06.38.28.54.44s.29.4.46.58a1,1,0,0,0,.31.16l.11-.13-3.76-4.6c.1,0,.17,0,.2,0,.54.58,1.09,1.15,1.61,1.74s1.12,1.34,1.69,2a2.56,2.56,0,0,0,.36.3l.11-.11c-.34-.68-1-1.15-1.33-1.85.83,1.12,1.93,2,2.77,3.1a1,1,0,0,0,.28.18c0-.12,0-.26,0-.35-.21-.38-.45-.75-.68-1.12l0,0,1.31,1.12.1-.09a1.16,1.16,0,0,0-.15-.26L26,39.87c-.23-.22-.37-.17-.51.12a.68.68,0,0,1-.06-.27c0-.09,0-.21,0-.25-.42-.44-.86-.86-1.29-1.29l-.08.08.32.59-.08,0L24,38.61c-.52-.64-1-1.33-1.57-1.91-1.25-1.27-2.55-2.48-3.84-3.71a1,1,0,0,0-.63-.31,1.19,1.19,0,0,1-.93-.43,4.18,4.18,0,0,0-.6-.47,1,1,0,0,0-.34-.07l.16.35-.17.07a.9.9,0,0,0-.25.15,17.46,17.46,0,0,0-3.35,4.5,5.34,5.34,0,0,0-.56,2.72c0,.25.06.4.37.41a1.29,1.29,0,0,1,.62.29,3.77,3.77,0,0,1,.48.51l.15-.57.13,0,2.73,3.75.11-.06a2.77,2.77,0,0,0-.18-.38l-2.13-3.11a.5.5,0,0,1,0-.17l.54.52.11-.09-.58-.75L14,40a1.5,1.5,0,0,0-.32-.07,1.78,1.78,0,0,1-1.3-.42c-.13-.12-.32-.29-.09-.57.37.79,1.06.41,1.56.54L13.8,39l.11,0,.3.36.33-.36-.44-.15a7.8,7.8,0,0,1-1-.35c-.33-.17-.34-.49-.08-.75.13.2.23.54.41.59a5.75,5.75,0,0,0,1.24.12l-.2-.48.07-.07c.13.07.37.16.36.22,0,.35.25.48.41.68.46.58.94,1.15,1.43,1.7.87,1,1.76,2,2.65,2.94a.9.9,0,0,0,.18.12l.07-.07-2.3-3.62a2.09,2.09,0,0,1,.72.56c.5.65,1,1.33,1.46,2a.88.88,0,0,1,.08.24l.17-.14a8.9,8.9,0,0,0-1.08-1.71c.1,0,.17,0,.19,0,.47.71.93,1.43,1.4,2.15a1.4,1.4,0,0,0,.28.24l.11-.1A6.07,6.07,0,0,0,20.14,42c-1.32-1.78-2.67-3.53-4-5.29-.07-.1-.17-.18-.25-.27l-.26.31.52.74c-.4-.2-.52-.76-1.08-.76l.41.77-.15.13-.71-.83-.07.06c.06.09.12.19.19.28.56.69,1.14,1.35,1.67,2.06.37.49.66,1,1,1.57,0,0,0,0,0,.15-.91-1.14-1.8-2.24-2.65-3.36a1.52,1.52,0,0,1-.23-.77,1.36,1.36,0,0,1,.18-.51,1.34,1.34,0,0,0,.24-.16c.36-.36.58-.38.93,0s.28,0,.37-.14L17,37.39l.11,0L17,36.83a3.63,3.63,0,0,1,.67.7C18.28,38.38,18.87,39.23,19.47,40.09Zm31.16-3.88.05,0a3.68,3.68,0,0,0-.25-.29,19.64,19.64,0,0,0-3.49-2.6,1,1,0,0,0-.3-.13c-.07,0-.21,0-.22.06a.37.37,0,0,0,0,.26s.12,0,.19,0,.08,0,.11,0l1.38.91-.08.13-2.44-1.36a2,2,0,0,0-.39-.18l-1.61-.44,0-.08h2.54c-.4-.7-.82-1.4-1.21-2.12-.2-.37-.26-.42-.69-.36l.5.32,0,.1L42.81,30v1c-.44-.32-.11-.76-.27-1l-.66-.16L41.57,31l-.18,0,.24-1.3-.82-.18-.26.92-.14,0,.1-.92-.28-.07a.48.48,0,0,0-.72.32,2,2,0,0,1-.24.38l-.1-.05.3-.76a.68.68,0,0,0-.14,0c-1.23-.15-2.45-.29-3.68-.46a1.49,1.49,0,0,0-1.52.51c-.05.07-.14.1-.2.16-.41.41-.93.27-1.14-.4a2,2,0,0,1,0-.33H31.71a2.61,2.61,0,0,0,.16,1.72,1.93,1.93,0,0,1-.5-1.71c-.1.05-.21.13-.21.22,0,.41,0,.82,0,1.34-.43-.51-.1-1.06-.27-1.55l-.62,0,.25,1.29c-.1-.07-.27-.13-.31-.24a2,2,0,0,1-.09-.62c0-.44-.07-.48-.57-.34.08.4.17.8.25,1.2a.18.18,0,0,1-.06.15s-.15,0-.16,0a1,1,0,0,1-.12-.33c0-.35-.06-.71-.09-1.06-.75-.06-.84,0-.87.73,0,.15,0,.3,0,.44a.2.2,0,0,1-.09.17.19.19,0,0,1-.18-.06.62.62,0,0,1-.07-.31c0-.3.08-.6.13-.93l-.52,0v1.36h-.14L27.56,29l-.45,0L27,30.47h-.12c-.23-.46.15-1-.06-1.45l-.57,0,.11,1.51h-.11A3.26,3.26,0,0,1,26,29.09l-.54,0,.14,1.58-.11,0c-.36-.45-.14-1-.26-1.58l-.72.08v2c-.08,0-.17,0-.19,0-.38-.61,0-1.27-.11-1.92l-1,.15v2.38l-.14,0a1.16,1.16,0,0,1-.16-.32,2.69,2.69,0,0,1,0-.55c0-.5.05-1,.09-1.64-.28.17-.61.26-.64.41a15.47,15.47,0,0,0-.19,1.7H22c0-.58,0-1.17,0-1.78l-.52.11V31c-.43-.35-.24-.78-.28-1.17l-.33.09L21,31.17l-.14,0L20.53,30l-2.74.81c.33.28.59.49.83.72a20.64,20.64,0,0,1,1.76,1.75c1.59,1.95,3.54,3.58,5,5.66.18.26.37.22.5-.07a15.75,15.75,0,0,1,2.74-4.29,6.54,6.54,0,0,1,2.33-1.73A1.51,1.51,0,0,1,33,33.3a11.4,11.4,0,0,0,1,1,1.1,1.1,0,0,0,1.44.05c.29-.21.58-.43.86-.64.63-.47,1.24-1,1.91-1.41a3.15,3.15,0,0,1,2.27-.47,9.65,9.65,0,0,1,3.23,1c1.25.69,2.53,1.33,3.78,2,.66.36,1.31.75,2,1.13a2.8,2.8,0,0,1,.29.23l.06-.07-.45-.5,0-.08ZM17.15,25.5l.16.12c.4.31.8.62,1.18.95.06,0,.06.16.09.24s-.19,0-.25,0c-.45-.36-.89-.75-1.36-1.08a2.72,2.72,0,0,0-.69-.26l-.06.12c.41.44,1.08.64,1.25,1.3a.38.38,0,0,1-.28-.08,13.41,13.41,0,0,1-1.09-1c-.31-.34-.62-.23-1-.15l.32.25c.29.23.58.46.86.7,0,0,0,.14.07.22a1.17,1.17,0,0,1-.26,0,.38.38,0,0,1-.15-.1c-.35-.3-.69-.6-1-.89a1.14,1.14,0,0,0-.33-.13c.28.53.81.8,1,1.37a.43.43,0,0,1-.33-.07c-.23-.25-.43-.53-.66-.78-.4-.42-.4-.42-1-.16a11.67,11.67,0,0,1,1.3,1.42l-.14.13a13.77,13.77,0,0,1-1.42-1.48c-.48-.06-.86.1-1,.57a3.16,3.16,0,0,0,0,1.05,3,3,0,0,1,.06,1.78c0,.06.05.16.11.32a3.49,3.49,0,0,1,1.67-1.61,12.76,12.76,0,0,1,4.38-1.16l1.9-.14a1.54,1.54,0,0,1,1.82,1,2.71,2.71,0,0,0,.31.54.44.44,0,0,0,.33.13c1.55-.15,3.09-.39,4.64-.47,2.29-.12,4.59-.14,6.89-.21a1.14,1.14,0,0,0,.6-.19,5.89,5.89,0,0,1,4.51-1.12c.74.11,1.4.66,2.27.36l-.15.26.95,1a2.11,2.11,0,0,0-.05-.42c-.42-1.12-.83-2.24-1.27-3.36-.3-.75-1-1-1.73-1.22.07.55.56.92.37,1.49l-.79-1.58-1,.34.74,1.29-.14.08-.86-1.27a.57.57,0,0,0-.15,0l-3.25,1.42s-.09,0-.09.05c.09.43-.31.47-.53.64a4.5,4.5,0,0,1-.78.42c-.15.07-.19.4-.47.21,0,0-.14,0-.21,0-.33.09-.65.22-1,.28a15.32,15.32,0,0,1-6-.11c-1.22-.26-2.43-.55-3.67-.83l.64.81-.1.09a6.4,6.4,0,0,0-1-.94,6.46,6.46,0,0,0-1.3-.46l0,.11,1.55,1.12-.06.09a1.48,1.48,0,0,1-.32-.13l-1.38-1a2.68,2.68,0,0,0-.41-.2c.33.48.9.72,1.09,1.3a.4.4,0,0,1-.26-.09,10.11,10.11,0,0,1-.92-.86.94.94,0,0,0-1-.26c.35.45.91.67,1.06,1.24a5.63,5.63,0,0,1-1-.85A1,1,0,0,0,17.15,25.5Zm6.77,0c2.52-.29,5,.19,7.5,0l0-.23c.08,0,.18,0,.24,0,.29.13.58.27.86.43a.84.84,0,0,0,1.13-.18l-.48-.23,2.47-1.34a2.46,2.46,0,0,0-1.46-.47.61.61,0,0,0-.67.37c-.11.22-.24.48-.63.49l.59-1-.9-.07-.15.9h-.09v-.93h-.51l0,1c-.32-.33-.13-.71-.21-1.08h-.46a5.6,5.6,0,0,1,.09.6,3.25,3.25,0,0,1-.05.49H31l-.13-1.09h-.34v1.22h-.13c0-.35-.08-.69-.09-1s-.08-.29-.33-.21l.11,1.24-.16,0-.22-1.27-.33,0c0,.26.06.49.11.72s.11.42.16.64l-.12,0a2.56,2.56,0,0,1-.36-1.35l-.42.14.48,1.31-.18.07a10.27,10.27,0,0,1-.43-1.13c-.07-.26-.17-.38-.45-.34l.32,1.35-.19.05-.43-1.48c-.43.58.2,1.1-.06,1.61-.05,0-.14-.08-.15-.13-.09-.36-.15-.72-.24-1.07,0-.09-.13-.16-.2-.24a7.59,7.59,0,0,0,.3,1.18c0,.07,0,.16-.06.24a.8.8,0,0,1-.17-.2c-.12-.31-.22-.62-.32-.92l-.33.13.13,1-.15,0-.28-1.1c-.33,0-.5.1-.41.38s.09.25.14.38l.22.72-.16.05-.57-1.42-.38.09.21,1.15-.17,0L24.84,24l-.44.12c.07.29.14.57.19.85,0,.06,0,.14-.07.21s-.16-.09-.18-.16c-.1-.26-.17-.53-.25-.79-.51.08-.57.18-.42.61a2.7,2.7,0,0,1,.07.4l-.13,0-.37-.86c-.36.31.15.63-.12,1l-.34-.77-.87.31c.44.44.44.44,2,.84Zm29.49,7,0-.1-1.25-.63.05-.14a6.09,6.09,0,0,1,.69.22l2.28,1a3,3,0,0,0,.41.12c-.91-.52-1.87-.9-2.78-1.36l.06-.14,1.16.3-.37-.32h.21a10,10,0,0,1,2.94,1.16,2.4,2.4,0,0,0,.61.13l0-.11-3.22-1.46,0-.12.82.14,0-.15c-.29,0-.58-.11-.87-.13-.44,0-.89,0-1.33,0a34.52,34.52,0,0,0-4.85-.43h-.55a11.23,11.23,0,0,0,4.82,2.41l.06-.1L51,32c.39-.37.77-.23,1.15,0l.64.28Zm2.37-2.6a.8.8,0,0,0-.22-.08,13.44,13.44,0,0,1-2.48-.24c-.34,0-.7,0-1-.08-.49-.11-1-.42-1.47,0,0,0-.14,0-.2,0l-.78-.22.2.53-.32-.14c-.14.08-.21.16-.28.17-.31,0-.44-.17-.41-.51-.7.12-1.42-.31-2.05.23a1.24,1.24,0,0,0,1.22.65c1,0,2,0,3,.1s2,.22,3,.25A2.39,2.39,0,0,0,55.78,29.93Zm-39.29.43,0-.06-.78-.58.14-.38,2.1.76L18,30l-1.37-.7c.21-.28.41-.1.59-.06a6.68,6.68,0,0,1,.67.23c-.37-.39-.93-.35-1.2-.9l1,.22,0,0-.51-.28,0-.11,1.21.33c-.09-.11-.13-.19-.19-.22-.59-.3-1.16-.74-1.88-.37a2.58,2.58,0,0,1-.35.12c-1.24.43-1.27.52-.65,1.71,0,0,0,.05,0,.06a1.24,1.24,0,0,0,.33.25A6.27,6.27,0,0,0,16.49,30.36ZM56.3,19.9a3.46,3.46,0,0,1,0,.59.91.91,0,0,0,.52,1c.59.38,1.14.83,1.75,1.28l.25-1ZM56,30.41c.77.18,1.55.33,2.31.56a1.83,1.83,0,0,0,1.39.06.91.91,0,0,1,.43-.08c.54,0,.7-.38,1-.72h-.19a11.72,11.72,0,0,1-4.15-.09A.75.75,0,0,0,56,30.41Zm1.33,11.84c.7.31,1.22.94,2,1.15l.13-.17A4,4,0,0,0,59,43c-.2-.1-.41-.16-.6-.28-.41-.26-.79-.54-1.2-.8-.09-.06-.26-.14-.29-.11-.19.19-.27,0-.38-.09l-1.72-1.21a1,1,0,0,0-.22-.09l0,.06,2.44,2-.06.1-.58-.25-.06.11,1.68.94.07-.1-.88-.61.31-.19Zm3.78-3.84.05-.06,1.6,1.29c0-.6-2.95-2.64-3.72-2.59L62.55,40l.1-.11Zm-46.11.36-.09,0a2.79,2.79,0,0,0,.3.68c.69.86,1.41,1.68,2.11,2.53.42.52.82,1.07,1.22,1.6l.09,0a2.37,2.37,0,0,0-.21-.43c-.69-.92-1.38-1.85-2.09-2.76C15.85,39.82,15.39,39.3,14.95,38.77Zm1.26,10.62-.36,1.13.71-.06c.28-.67.94-.32,1.37-.53C17.53,49.26,17.23,49.18,16.21,49.39Zm12.86.29c.19.14.42.32.66.48a.27.27,0,0,0,.19,0l2.52-.7c.49-.13,1-.23,1.49-.34v-.06ZM17.46,43.6l0-.13-2.87-4c-.25.13-.13.28,0,.46.84,1.2,1.67,2.4,2.51,3.59C17.19,43.56,17.35,43.56,17.46,43.6Zm44.44-2H62a1.66,1.66,0,0,0-.22-.45,5.34,5.34,0,0,0-.85-.77c-.77-.52-1.57-1-2.36-1.49a1.4,1.4,0,0,0-.38-.1,10.74,10.74,0,0,0,1.47,1c.47.27.74.77,1.32.94C61.32,40.83,61.59,41.27,61.9,41.56Zm-46.3,2a1.19,1.19,0,0,0-.11-.3q-1-1.12-2-2.23c-.06-.06-.17-.08-.25-.11a2.74,2.74,0,0,0,.92,1.47A3.06,3.06,0,0,0,15.6,43.6ZM55.44,30.9a11.65,11.65,0,0,1,2.65,1.21l0,.11H57.5c.6.34.77.32,1.26-.1-.53-.3-1.07-.56-1.57-.89A2.4,2.4,0,0,0,55.44,30.9Zm1.39,20.86V51.7l.69-.39-.06-.13-1,.22a1,1,0,0,1,.06.17c0,.15,0,.29,0,.44a4.08,4.08,0,0,1-.4-.25,2.28,2.28,0,0,1-.26-.28l-.09.08.88,1.39.66-1.14Zm4.31-10c0-.07,0-.11,0-.13a.75.75,0,0,0-.14-.17,19.32,19.32,0,0,0-3.6-2.29,1.19,1.19,0,0,0-.34,0Zm-29.86,1a2.38,2.38,0,0,0,1.91.56l-1.67-1.22Zm29,0c0-.11,0-.16,0-.17l-2.89-2.11c-.05,0-.16,0-.24,0l0,.11.7.48,2.1,1.5A2.68,2.68,0,0,0,60.31,42.78Zm-5.18-4.34a1.19,1.19,0,0,1,.07.27c0,.19.05.47,0,.54a.73.73,0,0,1-.6.08,6.23,6.23,0,0,1-.93-.53c0,.13,0,.3.09.39a1.37,1.37,0,0,0,1.25.51.54.54,0,0,0,.53-.48C55.53,38.89,55.52,38.58,55.13,38.43Zm4.56,4.63.08-.08a.67.67,0,0,0-.12-.17l-2.32-1.76a.75.75,0,0,0-.27-.11s-.1,0-.15,0,0,.15.08.18c.58.39,1.17.75,1.74,1.15C59.06,42.54,59.37,42.81,59.69,43.06Zm.82-.67a7.41,7.41,0,0,0-3.15-2.21ZM19.34,49.84c-.55-.68-1-.83-1.62-.54A1.27,1.27,0,0,0,19.34,49.84Zm34.5-12.68a.92.92,0,0,0,.14.24,1.3,1.3,0,0,0,1.28.14c.22-.12.4-.29.27-.56s-.34-.21-.64-.12l.38.22C55,37.41,54.64,37.42,53.84,37.17Zm-1.24,10,.08.14,2.13-.19V47a.92.92,0,0,0-.27-.09c-.54,0-1.08,0-1.62,0C52.81,46.93,52.71,47.07,52.6,47.15ZM45.17,23.41l0-.08-1.29-.83c-.14-.09-.25-.28-.39-.31a7,7,0,0,0-1-.06l0,.09c.13.06.32.22.39.17.25-.14.4,0,.57.11.37.22.74.45,1.11.66A5.64,5.64,0,0,0,45.17,23.41Zm4.54-1.48,1.31.12,0-.11-1.25-.81ZM19.17,49.23c.44.62.75.75,1.33.56A1,1,0,0,0,19.17,49.23ZM61.11,37.46a3.05,3.05,0,0,0-2-1.41Zm-3-7.73-.77-1.05-.38.18C57.3,29.22,57.39,29.84,58.1,29.73Zm-1.83,14,.09-.15a12.12,12.12,0,0,0-2-1.36l-.08.13ZM58,31.36l.92.58a.23.23,0,0,0,.2,0c.24-.15.47-.32.71-.49l0-.1A2.26,2.26,0,0,1,58,31.36Zm-1.72-2.8.12-.42c.29.17.47.13.75-.19-.36-.37-.65,0-1,.12l0-.11-.34-.11,0,.1Zm.43,14.91c.05-.39-1-1.24-1.61-1.24ZM44.31,23.69l-.1.11,1.41,1.73.08-.06c-.33-.48-.66-1-1-1.44A2.2,2.2,0,0,0,44.31,23.69ZM33.23,29.57l.72-.82H33ZM52.85,43.35a3.3,3.3,0,0,0-1.51-1A4.84,4.84,0,0,0,52.85,43.35Zm-1.51-3.79a.31.31,0,0,0-.08.51.53.53,0,0,0,.35.12,1.26,1.26,0,0,0,.18-.54c0-.14,0-.39-.31-.3l.07.5-.06,0ZM35.76,27.94l.07.17,1.89-.81-.06-.14Zm24.38,7.92L61.35,37C61.42,36.68,60.71,36,60.14,35.86ZM52.38,50.23l.79,1.13.09-.06C53.13,50.85,53.08,50.36,52.38,50.23Zm6.33-26.11-.09.14a5.31,5.31,0,0,0,.87.5l.2-.38ZM61,34.87l1.1,1C62.33,35.65,61.91,35.19,61,34.87ZM19.48,33a1.87,1.87,0,0,0-1.3-1Zm37-6.57c-.34-.09-.6-.54-1-.1C55.81,26.39,56.06,26.9,56.49,26.44Zm-39,1.38a2.1,2.1,0,0,0,.69.14,3.27,3.27,0,0,0,.73-.32C18.84,27.48,18.27,27.51,17.49,27.82Zm-2.4,20.1a3,3,0,0,0,1.67.81Zm36.21-.61c0-.27-.4-.29-1-.07C50.47,47.46,50.48,47.46,51.3,47.31Zm-22-21.47,1.26.63.06-.12C30.17,26.14,29.83,25.77,29.27,25.85Zm-8.21,2.38,0,.07a1.84,1.84,0,0,1,.45.39c.17.3.37.22.62,0Zm-2.73-3.55,0-.09-1,.21,0,.12h1.05l-.17-.16Zm14.94-2.47a.81.81,0,0,0,1.15-.13ZM52.38,47c-.32.06-.64-.07-.81.27C52,47.42,52.15,47.38,52.38,47ZM48.23,24.82l0,.17c.38.11.7.43,1.26.28Zm5.1-1.13.05-.12c-.3-.38-.53-.45-.8-.2Zm5.23,1.68c.26.69-.3.17-.39.37l.34.26.54-.35ZM38.22,49.23l-.05.06a1.8,1.8,0,0,1,.31.34c.16.3.2.32.53.1ZM53.77,32.61l0,.12,1.16.49,0-.12ZM47.48,21.8h.73l-.73-.43ZM20.16,27.93l0-.09c-.38-.07-.67-.45-1.13-.26Zm8.21-5.58,0,.16,1.1.25,0-.11ZM57.13,26.8c-.24-.21-.45-.27-.66,0A.39.39,0,0,0,57.13,26.8Zm.3.54c.4.38.52.1.66-.1l0-.12Zm-3.37-1.69.41.18.3-.28-.45-.22C54.5,25.74,54.16,25.54,54.06,25.65Zm.78-2.17.67.27C55.33,23.6,55.32,23,54.84,23.48ZM43.12,29.54l.74.26,0-.1C43.66,29.62,43.57,29.17,43.12,29.54ZM39.73,47.31l.59.1,0-.07-.42-.39Zm1-25.14L40,22l0,.1C40.21,22.17,40.4,22.46,40.71,22.16Zm14.85,3.69h-.79C55.16,26.19,55.16,26.19,55.56,25.86ZM58,25.5c-.23-.06-.39-.42-.77-.18C57.49,25.42,57.67,25.68,58,25.5Zm-5.83-1.95-.06.15c.23.09.4.31.72.15Zm-35.48,8,.71-.14-.46-.3Zm34.76-7,.06-.19-.66-.18,0,.15ZM39.7,48.37c-.43-.45-.49-.46-.6-.16Zm11-23.47,0-.15-.59-.18,0,.16ZM27.35,22.71l.83.17C27.92,22.73,27.68,22.46,27.35,22.71Z" style="fill:#ececec"/><path d="M58.45,16l3.43,3c.36.32.72.64,1.07,1a1.51,1.51,0,0,1,.2.3l-.08.09a3.81,3.81,0,0,1-.4-.25L54.9,13.75a3.76,3.76,0,0,0-.53-.4,3.72,3.72,0,0,0-.68-.28c-.23-.07-.46-.18-.4-.43a.4.4,0,0,1,.52-.31c.17.06.41.14.45.27.14.44.54.57.86.8s.45.28.68.42l1.29,1Zm-4.27-3.19c-.33-.35-.33-.35-.76,0Z" style="fill:#ececec"/><path d="M58.45,16l-1.36-1.11-1.29-1-.18-.28c.81.2,6.14,4.2,6.4,4.87l-.35-.24-2.78-2A2.09,2.09,0,0,0,58.45,16Z" style="fill:#ececec"/><path d="M15.87,24.64a3.37,3.37,0,0,1-.66-2.56l.13,0L16,24.6Z" style="fill:#ececec"/><path d="M27.49,21.81a5.13,5.13,0,0,1,1-2.72A5.83,5.83,0,0,1,27.49,21.81Z" style="fill:#ececec"/><path d="M21.4,12.66c0,.17,0,.41.15.51a.87.87,0,0,0,.61.24,1.34,1.34,0,0,0,.58-.4s-.11-.21-.19-.37.19-.09.26,0a.52.52,0,0,1,.24.33c0,.39-.49.77-1,.76a.73.73,0,0,1-.81-.75,1.13,1.13,0,0,1,.11-.3Z" style="fill:#ececec"/><path d="M25.54,19.44l-.22,2.62A2.75,2.75,0,0,1,25.54,19.44Z" style="fill:#ececec"/><path d="M31.78,13.77c.38,0,.63.17.64.43s-.24.48-.61.52c-.53.05-.87-.09-1-.46l.25.07c.1,0,.21.11.31.1.25,0,.5-.11.75-.16Z" style="fill:#ececec"/><path d="M39.3,10.35a.62.62,0,0,1,.62.34.56.56,0,0,1,0,.39,1.88,1.88,0,0,1-.72.1.35.35,0,0,1-.34-.44l.76.28.1-.17-.5-.39Z" style="fill:#ececec"/><path d="M28.07,11.12c-.23.46-.46.68-.84.62-.1,0-.28-.11-.28-.16s.08-.3.16-.32A8.08,8.08,0,0,1,28.07,11.12Z" style="fill:#ececec"/><path d="M46,14.84c.41,0,.63.13.63.42,0,.09-.2.24-.32.25-.28,0-.66-.25-.59-.42S45.94,14.88,46,14.84Z" style="fill:#ececec"/><path d="M39.07,13.45h-.38c.09.3.28.5.55.41s.23-.37.05-.61l.08,0c.07.05.18.1.19.16a.9.9,0,0,1,0,.48.42.42,0,0,1-.6.18,2,2,0,0,1-.49-.54s.08-.22.13-.22a3.15,3.15,0,0,1,.53.06Z" style="fill:#ececec"/><path d="M31.77,11.45l.74.13c.05,0,.11,0,.27-.1l-.66-.2c.16-.23.4-.17.59-.09s.2.23.3.36a1.72,1.72,0,0,1-.48.25A.75.75,0,0,1,31.77,11.45Z" style="fill:#ececec"/><path d="M34.92,19.92l.31,1.54c-.44-.12-.61-.93-.41-1.54Z" style="fill:#ececec"/><path d="M49.06,12.12l.47,0-.38-.59c.33,0,.77.48.63.74-.05.1-.28.16-.42.16s-.22-.12-.33-.19Z" style="fill:#ececec"/><path d="M18.81,13.93c-.06.15-.08.37-.19.42a1,1,0,0,1-.61.06c-.13,0-.22-.23-.32-.36s0-.13.07-.15a.25.25,0,0,1,.2,0c.41.32.42.32.72,0Z" style="fill:#ececec"/><path d="M15,16.24a4.11,4.11,0,0,1-.61.3c-.05,0-.22-.14-.24-.24s.27-.45.51-.4a1.15,1.15,0,0,1,.33.19Z" style="fill:#ececec"/><path d="M43.06,10.72a1.8,1.8,0,0,0,1.86,0c.07.3-.17.35-.35.41A1.37,1.37,0,0,1,43.06,10.72Z" style="fill:#ececec"/><path d="M45.18,20.46l.3,1.08C45.09,21.46,45,21.15,45.18,20.46Z" style="fill:#ececec"/><path d="M26.57,14.43c.17,0,.42.34.45-.24l.1.13c0,.1.07.24,0,.29a.39.39,0,0,1-.31.14c-.12,0-.22-.14-.33-.22Z" style="fill:#ececec"/><path d="M29.13,16.56c0,.17.1.34.13.51a.91.91,0,0,1-.17.07L29,16.61Z" style="fill:#ececec"/><path d="M15.36,60.62l.16,0A12.91,12.91,0,0,1,14.74,56l.15,0c0,.52.41.94.37,1.52a7.53,7.53,0,0,0,.4,2.81,1.29,1.29,0,0,1,0,.3Z" style="fill:#ececec"/><path d="M10.61,34.22a.49.49,0,0,1-.47-.32,9.39,9.39,0,0,0-.74-1,5.46,5.46,0,0,1-.61-1l.27.1c.51.62,1,1.24,1.51,1.87C10.63,34,10.6,34.1,10.61,34.22Z" style="fill:#ececec"/><path d="M13.47,51.13l-.45.1V53c-.38-.15-.47-1-.18-1.8Z" style="fill:#ececec"/><path d="M62,28.28,60.94,27l.14-.12.61.66c.14.15.26.31.39.47Z" style="fill:#ececec"/><path d="M62.22,27.17a1.69,1.69,0,0,1-.75-1l.08-.07.74.74Z" style="fill:#ececec"/><path d="M34.86,40.21,34,39.74c.25-.21.53-.12.91.26Z" style="fill:#ececec"/><path d="M60.09,53.68a1.19,1.19,0,0,1,.13.41c-.06.74-.11,1.48-.22,2.2-.2,1.3-.44,2.6-.66,3.9a1.41,1.41,0,0,1-.15.45.39.39,0,0,1-.27.17c-.05,0-.16-.15-.16-.23,0-.73,0-1.47,0-2.2a4.71,4.71,0,0,1,.17-.76l.27.46L60,53.74Z" style="fill:#ececec"/><path d="M21,61.21l-1.21-6.56.16,0a5.35,5.35,0,0,1,.24.65q.57,2.46,1.12,4.92a2.56,2.56,0,0,1,0,.74,1,1,0,0,1-.16.33Z" style="fill:#ececec"/><path d="M33.94,58.19l.05.2.28-.09c0,.09.08.21,0,.26-.39.64-.11,1.3-.07,1.95s.12,1.08.18,1.61a1.42,1.42,0,0,1,0,.34l-.11,0c-.07-.11-.19-.22-.2-.35q-.17-1.78-.31-3.56a1.25,1.25,0,0,1,.1-.38Z" style="fill:#ececec"/><path d="M35.71,58.2c.09,1.22.18,2.43.26,3.65a1.91,1.91,0,0,1,0,.55c0,.06-.13.1-.2.15s-.1-.13-.11-.2c-.07-.77-.17-1.54-.19-2.31a12.19,12.19,0,0,1,.11-1.54,1.25,1.25,0,0,1,.12-.32Z" style="fill:#ececec"/><path d="M37.15,59.81a3.12,3.12,0,0,1,0,2.19A4.1,4.1,0,0,1,37.15,59.81Z" style="fill:#ececec"/><path d="M26.55,59c-.26-.74.27-1.4.31-2.12.2.19.15.42.11.64s-.1.5-.15.76l-.15.72Z" style="fill:#ececec"/><path d="M23.21,57.93a3.12,3.12,0,0,1,.49-1.79A2.66,2.66,0,0,1,23.21,57.93Z" style="fill:#ececec"/><path d="M42.72,52.78c0-.49.09-1,.15-1.47a.18.18,0,0,1,.15-.1.21.21,0,0,1,.13.15,3.42,3.42,0,0,1-.25,1.44Z" style="fill:#ececec"/><path d="M13.89,53.17a2,2,0,0,1,0-2Z" style="fill:#ececec"/><path d="M42,53.1a3.75,3.75,0,0,1,.21-1.83l.14,0-.2,1.84Z" style="fill:#ececec"/><path d="M42.71,60.36a2.82,2.82,0,0,1,0-1.41s.11-.07.15-.06S43,59,43,59c0,.45-.11.9-.17,1.35Z" style="fill:#ececec"/><path d="M22,50.53l.21,1.36C21.8,51.92,21.61,51.21,22,50.53Z" style="fill:#ececec"/><path d="M41,52.61c0-.47-.15-.94.16-1.39v1.41Z" style="fill:#ececec"/><path d="M40.24,58.11a1.24,1.24,0,0,1,0-1.26C40.4,57,40.4,57,40.24,58.11Z" style="fill:#ececec"/><path d="M26.68,53.46c0-.26.08-.52.14-.78,0-.07.12-.12.18-.18s.16.19.14.25c-.09.26-.22.5-.34.75Z" style="fill:#ececec"/><path d="M21.6,54.53l-.17-1A.63.63,0,0,1,21.6,54.53Z" style="fill:#ececec"/><path d="M30.56,55.37c-.34-.18-.45-.44-.3-.72,0-.06.12-.1.18-.15a.73.73,0,0,1,.11.23C30.57,54.93,30.56,55.14,30.56,55.37Z" style="fill:#ececec"/><path d="M18.73,52.34c-.32-.46-.28-1,.06-1.06Z" style="fill:#ececec"/><path d="M35.19,54.89a1.34,1.34,0,0,1,.07.38c0,.28-.1.32-.48.42l.28-.77Z" style="fill:#ececec"/><path d="M51.07,52.6c.39.16.44.42.19.94Z" style="fill:#ececec"/><path d="M31.6,58.51c.38.35.05.62,0,1C31.36,59.13,31.48,58.86,31.6,58.51Z" style="fill:#ececec"/><path d="M50.09,59.3l.17-.74C50.62,58.76,50.59,59,50.09,59.3Z" style="fill:#ececec"/><path d="M14.57,55.76a6.16,6.16,0,0,1-.08-.62c0-.08.08-.15.12-.23s.15.14.15.2c0,.22,0,.45-.06.67Z" style="fill:#ececec"/><path d="M37.61,55.47l.09-.87h.14c.18.29,0,.57-.06.85Z" style="fill:#ececec"/><path d="M61.81,55.75l-.1.84-.14,0c0-.28-.12-.58.08-.84Z" style="fill:#ececec"/><path d="M54.49,54.85c.26.35.22.54-.13.74Z" style="fill:#ececec"/><path d="M20,58.48l-.15-.69C20.2,57.9,20.25,58.08,20,58.48Z" style="fill:#ececec"/><path d="M46.86,37.13c.1.13.14.22.19.24.25.07.5.12.75.17s.29,0,.14.19c.1.06.2.16.3.16a1,1,0,0,1,1,.64,3,3,0,0,0,.39.49.83.83,0,0,1,.17.38,31.55,31.55,0,0,1-5.55-3.57Z" style="fill:#ececec"/><path d="M40.72,38.63c.11.06.23.11.34.18.54.35,1.07.71,1.61,1,.12.08.31,0,.46.09s.32.1.33.18c.06.46.54.44.76.71a1.18,1.18,0,0,0,.22-.12l0-.14.38.12-.16.51,1.79,1.61a.89.89,0,0,1-.7-.34,13,13,0,0,0-1.4-1.24c-.07-.06-.21,0-.32,0a1.14,1.14,0,0,1-1.14-.88.54.54,0,0,0-.22-.23l-2-1.38Z" style="fill:#ececec"/><path d="M43.95,42.93a3.46,3.46,0,0,1-.76-.2c-1.53-.81-3.05-1.64-4.58-2.46-.09,0-.17-.13-.26-.13-.36,0-.42-.25-.38-.58l3.49,2c.76.42,1.53.83,2.29,1.25a1.49,1.49,0,0,1,.2.16Z" style="fill:#ececec"/><path d="M42.6,36.78c.61-.2,1,.17,1.45.45l.62.39c.63.37.46.45,1.14-.07.24.11.15.25,0,.39l-.29.39L44,38.19V38l.56,0Z" style="fill:#ececec"/><path d="M41.2,37.87a1.91,1.91,0,0,1,.52.14c.86.52,1.71,1.07,2.57,1.6.12.07.3,0,.45.06a.34.34,0,0,1,.16.05l1.46,1.11-.06.09L41.16,38Z" style="fill:#ececec"/><path d="M47,36.86c-.81-.45-1.54-.82-2.24-1.24s-1.41-.93-2.17-1.44A16.18,16.18,0,0,1,47,36.86Z" style="fill:#ececec"/><path d="M48.66,40.56l-3.26-2,.07-.12.78.44.49.26c.2.11.3.06.29-.31l1.72,1.57Z" style="fill:#ececec"/><path d="M33.59,36.34a.87.87,0,0,1,.57.86c-.07.25-.44.38-.82.32a1.46,1.46,0,0,1-1-.56,1.24,1.24,0,0,1-.13-.33,6.28,6.28,0,0,0,.88.32,1.91,1.91,0,0,0,.59-.07Z" style="fill:#ececec"/><path d="M32.34,39.69l-.25-.45c.32.1.55.2.56.55a.74.74,0,0,1-.65.72,1.65,1.65,0,0,1-1.44-.58l.22-.25.64.3a1.27,1.27,0,0,0,.37.15,1.51,1.51,0,0,0,.4-.07Z" style="fill:#ececec"/><path d="M44.07,35.93l-.32.41,1.27.9-.06.08L44,36.75c-.13-.08-.25-.2-.38-.22a1.51,1.51,0,0,1-1.23-.82s.16,0,.22,0c.26-.19.37-.07.46.17s.28.34.55.15a3.56,3.56,0,0,1,.32-.18Z" style="fill:#ececec"/><path d="M31.35,35,31,34.9l.07-.15c.16,0,.39,0,.46.08a.63.63,0,0,1,.07.52,1,1,0,0,1-1.43.09.23.23,0,0,1,0-.2.27.27,0,0,1,.2-.12,1.07,1.07,0,0,1,.39.08C31.05,35.33,31.05,35.34,31.35,35Z" style="fill:#ececec"/><path d="M32.07,40.54a1,1,0,0,0,1.7-.62c.3,0,.24.26.19.44a1.33,1.33,0,0,1-1.51.75C32.2,41,32,40.95,32.07,40.54Z" style="fill:#ececec"/><path d="M28.72,38.46c.18.48.63.58,1.17.23l-.4-.19c.27-.15.51-.16.66.08a.32.32,0,0,1-.24.5,3.13,3.13,0,0,1-1.14,0C28.44,39,28.44,38.64,28.72,38.46Z" style="fill:#ececec"/><path d="M41.75,36.67l-.7-.24a.88.88,0,0,0,.65.65c.37.14.4-.2.53-.49l.21.46c-.7.34-1,.33-1.39-.1-.12-.13-.25-.37-.2-.49a.59.59,0,0,1,.48-.23A.42.42,0,0,1,41.75,36.67Z" style="fill:#ececec"/><path d="M39,38.52c.15,0,.36,0,.43.07a.54.54,0,0,1,.08.46.94.94,0,0,1-1.6.1c.53.15,1,.2,1.35-.31L39,38.66Z" style="fill:#ececec"/><path d="M38.12,36.73l.15.2a1.07,1.07,0,0,1-1.25,0,.62.62,0,0,1-.15-.41c0-.1.13-.21.25-.38.09.6.26.69.87.55Z" style="fill:#ececec"/><path d="M38,34.59l1,.17v.16a2.64,2.64,0,0,0-.29,0,2.5,2.5,0,0,1-.46.06c-.18,0-.42,0-.52-.15s-.07-.35,0-.53.21-.06.32-.09Z" style="fill:#ececec"/><path d="M42,34.64c-.33-.19-.6-.21-.84.15-.05.08-.27.07-.41.07s-.14-.12-.12-.14.12-.27.22-.31a2.78,2.78,0,0,1,.85-.17c.13,0,.26.19.38.29Z" style="fill:#ececec"/><path d="M38.68,37.38c.85-.05.85-.05,1-.32L39.29,37l.48-.18a1.34,1.34,0,0,1,.13.42.55.55,0,0,1-.63.48,4.08,4.08,0,0,1-.63-.21Z" style="fill:#ececec"/><path d="M32.51,37.74a1,1,0,0,1-1.3,0,.46.46,0,0,1,0-.72C31.33,37.83,32,37.64,32.51,37.74Z" style="fill:#ececec"/><path d="M42.25,37.77l.16-.26,1.77,1.25-.06.09Z" style="fill:#ececec"/><path d="M39.48,34.32c-.09-.25-.14-.39-.18-.54s-.11-.27-.07-.36.21-.1.35-.11c-.19.21-.19.36,0,.51a1.16,1.16,0,0,1,.23.3Z" style="fill:#ececec"/><path d="M40.28,39.25l1.2.16c-.06.08-.11.2-.19.23C40.85,39.81,40.56,39.52,40.28,39.25Z" style="fill:#ececec"/><path d="M38.12,36.73,38,36.66c.1-.28.06-.35-.34-.58.29-.24.57-.14.8.27Z" style="fill:#ececec"/><path d="M29,39.95l-1.06-.48A.72.72,0,0,1,29,39.95Z" style="fill:#ececec"/><path d="M49.76,37.64c-.44-.31-1-.49-1.2-1.05l1.26,1Z" style="fill:#ececec"/><path d="M42.37,39.37l-1.07-.72.08-.12A1.59,1.59,0,0,1,42.37,39.37Z" style="fill:#ececec"/><path d="M32.34,39.69l-.15.38c-.08-.09-.36,0-.24-.29,0,0-.13-.17-.2-.26l.05-.09Z" style="fill:#ececec"/><path d="M40.93,40.36l1.16.69-.06.11-1.17-.66Z" style="fill:#ececec"/><path d="M40.53,33.11c-.24,0-.49,0-.73,0a.94.94,0,0,1-.3-.11l.14-.19.91.2Z" style="fill:#ececec"/><path d="M38.87,38.31l-1-.56.07-.12,1,.55Z" style="fill:#ececec"/><path d="M20.27,35.73l-.48,0a2.48,2.48,0,0,1,.19.22c.07.11.34.15.14.38,0,0,.08.17.13.25l1.63,2.33a3.83,3.83,0,0,1,.21.42c-.72-.83-1.36-1.59-2-2.33-.49-.55-1-1.07-1.52-1.6-.09-.09-.25-.17-.09-.34,0,0,0-.13-.08-.18l-1.15-1.31a2.43,2.43,0,0,1-.2-.32l.11-.08,1.77,1.93L19,35c-.16-.5-.64-.79-.87-1.26Z" style="fill:#ececec"/><path d="M18.63,37.1l.44.26a1,1,0,0,0,0-.38,6.74,6.74,0,0,0-.42-.86,2.58,2.58,0,0,0-.37-.42l-1.34-1.43s0-.09,0-.18c.19.22.38.45.58.67a10.2,10.2,0,0,0,1.34,1.38c.59.43.77,1.11,1.25,1.6a2.64,2.64,0,0,1,.35.92L19.45,37.5c-.2.15-.19.14,0,.41s.2.29.34.51c-.43-.19-.46-.79-1-.69.1.13.24.25.22.32-.13.5.32.69.52,1s.51.66.77,1a.28.28,0,0,1,.06.25l-2.68-3.22v-.52l.81.48Z" style="fill:#ececec"/><path d="M15.43,35.11c-.31,0-.55-.16-.57-.46s.18-.36.34-.46.29,0,.44,0a1.5,1.5,0,0,1,1,.59.41.41,0,0,1,0,.34.8.8,0,0,1-1.14,0l.81-.08c-.3-.51-.84-.68-1-.39.13.3.63-.22.69.37C15.79,34.86,15.59,34.87,15.43,35.11Z" style="fill:#ececec"/><path d="M16.4,38.57c.33-.3-.08-.47-.07-.75L18,40A2.28,2.28,0,0,1,16.4,38.57Z" style="fill:#ececec"/><path d="M13.47,36.88l.42,1a.48.48,0,0,1-.59-.41C13.26,37.24,13.15,37,13.47,36.88Z" style="fill:#ececec"/><path d="M18.63,37.1,18.47,37,18,36.32A.59.59,0,0,1,18.63,37.1Z" style="fill:#ececec"/><path d="M16.51,35.54l.53.74C16.5,36.07,16.31,35.81,16.51,35.54Z" style="fill:#ececec"/><path d="M22.68,37.28l.6.79-.09.07-.62-.77Z" style="fill:#ececec"/><path d="M12.88,26.14a5.69,5.69,0,0,1,1.31,1.55A3.35,3.35,0,0,1,12.88,26.14Z" style="fill:#ececec"/><path d="M36.43,24.37c.44,0,1.22.88,1.24,1.38Z" style="fill:#ececec"/><path d="M37.47,24a2.93,2.93,0,0,1,1,1.45l-.1.07-1-1.45Z" style="fill:#ececec"/><path d="M36.11,24.71a3.61,3.61,0,0,1,.75,1.23l-.1.06L36,24.8Z" style="fill:#ececec"/><path d="M12.85,26.85a3.45,3.45,0,0,1,.7.92l-.11.09-.73-.9Z" style="fill:#ececec"/><path d="M35.33,25a.92.92,0,0,1,.58,1.07Z" style="fill:#ececec"/><path d="M47.93,27.43a12.61,12.61,0,0,1-2.16-2.82A11.77,11.77,0,0,1,47.93,27.43Z" style="fill:#ececec"/><path d="M7.59,33.38c.44.67,1.14,1.18,1.27,2.09A3.85,3.85,0,0,1,7.59,33.38Z" style="fill:#ececec"/></svg>