<svg id="Layer_1" data-name="Layer 1" xmlns="http://www.w3.org/2000/svg" viewBox="0 0 56 56"><defs><style>.cls-1{fill:#ee3158;}</style></defs><title>call-button</title><path class="cls-1" d="M39.38,36.3c-4.42-3.55-5.66-1.81-7.66.2-1.4,1.4-4.94-1.52-8-4.58s-6-6.6-4.58-8c2-2,3.75-3.24.2-7.66s-5.92-1-7.86.92C9.22,19.4,11.35,27.76,19.61,36s16.52,10.24,18.86,8.14C40.51,42.33,43.81,39.85,39.38,36.3ZM16.15,18.64l-.26.11c-.21.08-.46.17-.74.29a4.15,4.15,0,0,0-.41.22,2.34,2.34,0,0,0-.4.29,2.75,2.75,0,0,0-.36.4,2.86,2.86,0,0,0-.27.53,3.28,3.28,0,0,0-.18.62c0,.22,0,.44-.08.66A7.94,7.94,0,0,0,13.51,23a8,8,0,0,0,.16.9l.07.34-.18-.3a8.28,8.28,0,0,1-.46-.8,8.53,8.53,0,0,1-.54-1.25c-.06-.25-.14-.5-.19-.78a4.6,4.6,0,0,1-.06-.87,4.43,4.43,0,0,1,.11-.91,4.58,4.58,0,0,1,.33-.87,4.3,4.3,0,0,1,.47-.74,6.24,6.24,0,0,1,.51-.58c.33-.32.61-.56.77-.7l.18-.16.06-.05,1.52,2.37ZM38.9,41.17c-.15.19-.38.47-.7.8a6.35,6.35,0,0,1-.56.5,5.08,5.08,0,0,1-.7.47,4.5,4.5,0,0,1-.83.36,4.25,4.25,0,0,1-.88.18l-.44,0-.42,0a5,5,0,0,1-.79-.12,7.13,7.13,0,0,1-.69-.2,5.35,5.35,0,0,1-.59-.24,7.14,7.14,0,0,1-.82-.41l-.3-.17a1.75,1.75,0,0,0,.52.23,7,7,0,0,0,.9.1,4.7,4.7,0,0,0,.58,0,6.24,6.24,0,0,0,.64,0,4,4,0,0,0,.64-.13l.31-.1.29-.13a3,3,0,0,0,1.41-1.55c.12-.28.2-.52.27-.72l.11-.32,2.27,1.19Z"/><path class="cls-1" d="M28,54.85A26.89,26.89,0,1,1,54.91,28,26.92,26.92,0,0,1,28,54.85ZM28,3.3A24.65,24.65,0,1,0,52.67,28,24.68,24.68,0,0,0,28,3.3Z"/><path class="cls-1" d="M27.56,20.89c-.34-.16-.67-.3-1-.43l-.82,2.11c.27.11.55.22.83.36a9.6,9.6,0,0,1,5,5.75l2-1A11.89,11.89,0,0,0,27.56,20.89Z"/><path class="cls-1" d="M34,12.91a16.82,16.82,0,0,0-4-1.33l-.83,2.14c3.12.52,9.16,2.58,10.77,10.68l2.09-1.07A14.71,14.71,0,0,0,34,12.91Z"/><path class="cls-1" d="M31.22,17.24a13.81,13.81,0,0,0-3-1l-.83,2.14a11.63,11.63,0,0,1,2.84.93,9.93,9.93,0,0,1,5.46,7.31l2.08-1.07A12.09,12.09,0,0,0,31.22,17.24Z"/></svg>