<svg xmlns="http://www.w3.org/2000/svg" xmlns:xlink="http://www.w3.org/1999/xlink" viewBox="0 0 300 150"><defs><style>.cls-1{fill:none;}.cls-2{isolation:isolate;}.cls-3{fill:#9e9e9e;}.cls-22,.cls-3,.cls-47,.cls-58,.cls-7{opacity:0.3;}.cls-3,.cls-47,.cls-50,.cls-7{mix-blend-mode:multiply;}.cls-4{fill:#ffb300;}.cls-5{fill:#f69503;}.cls-6{fill:#fc0;}.cls-8{fill:#ffa200;}.cls-9{fill:#ffd950;}.cls-10{fill:#ffc100;}.cls-11{fill:#e49408;}.cls-12{clip-path:url(#clip-path);}.cls-13{fill:#d78400;}.cls-14{clip-path:url(#clip-path-2);}.cls-15{clip-path:url(#clip-path-3);}.cls-16{clip-path:url(#clip-path-4);}.cls-17{clip-path:url(#clip-path-5);}.cls-18{clip-path:url(#clip-path-6);}.cls-19{clip-path:url(#clip-path-7);}.cls-20{clip-path:url(#clip-path-8);}.cls-21{clip-path:url(#clip-path-9);}.cls-22{mix-blend-mode:screen;}.cls-23{fill:#f5ebcb;}.cls-24{clip-path:url(#clip-path-10);}.cls-25{clip-path:url(#clip-path-11);}.cls-26{clip-path:url(#clip-path-12);}.cls-27{clip-path:url(#clip-path-13);}.cls-28{clip-path:url(#clip-path-14);}.cls-29{clip-path:url(#clip-path-15);}.cls-30{clip-path:url(#clip-path-16);}.cls-31{clip-path:url(#clip-path-17);}.cls-32{clip-path:url(#clip-path-18);}.cls-33{clip-path:url(#clip-path-19);}.cls-34{clip-path:url(#clip-path-20);}.cls-35{clip-path:url(#clip-path-21);}.cls-36{clip-path:url(#clip-path-22);}.cls-37{clip-path:url(#clip-path-23);}.cls-38{clip-path:url(#clip-path-24);}.cls-39{clip-path:url(#clip-path-25);}.cls-40{clip-path:url(#clip-path-26);}.cls-41{clip-path:url(#clip-path-27);}.cls-42{fill:#63487d;}.cls-43{fill:#111413;}.cls-44{fill:#e0b196;}.cls-45{fill:#161a1f;}.cls-46{fill:#f5c2a6;}.cls-47,.cls-48{fill:#e9ae93;}.cls-49,.cls-50{fill:#70364e;}.cls-50{opacity:0.2;}.cls-51{fill:#77628c;}.cls-52{fill:#594869;opacity:0.4;}.cls-53{fill:#8b779f;}.cls-54{fill:#2b0d04;}.cls-55{fill:#eff3fc;}.cls-56{fill:#ffd6bf;}.cls-57{fill:#da648d;}.cls-58,.cls-59{fill:#9d395c;}.cls-60{fill:#e5bd99;}.cls-61{fill:#ecf3f5;}.cls-62{fill:#fefcfb;}.cls-63{fill:#022540;}.cls-64{fill:#fa4443;}.cls-65{fill:#7c4a29;}.cls-66{fill:#996745;}.cls-67{fill:#fa332e;}</style><clipPath id="clip-path"><path class="cls-1" d="M151.74,116.21v2.27l-.46-.27c-2-1.17-3.57-1.61-5.85-.28v-2.27c2.28-1.33,3.83-.89,5.85.28Z"/></clipPath><clipPath id="clip-path-2"><path class="cls-1" d="M142.76,120.2v-2.27c0-.48.42-1,1.32-1.5v2.27C143.18,119.23,142.76,119.72,142.76,120.2Z"/></clipPath><clipPath id="clip-path-3"><path class="cls-1" d="M159.81,121.28v2.27c-2-1.34-6.7-4.28-8.07-5.07v-2.27C153.11,117,157.77,119.93,159.81,121.28Z"/></clipPath><clipPath id="clip-path-4"><path class="cls-1" d="M134.64,120.28V118c0,1.23.87,2.62,3.4,4.08v2.27C135.52,122.9,134.64,121.51,134.64,120.28Z"/></clipPath><clipPath id="clip-path-5"><path class="cls-1" d="M142.81,125.54v2.27c0-.44-.39-.92-1.32-1.45v-2.27C142.42,124.62,142.81,125.09,142.81,125.54Z"/></clipPath><clipPath id="clip-path-6"><path class="cls-1" d="M127.15,128.73V131a26.35,26.35,0,0,1-5.5-4.38v-2.27A26.34,26.34,0,0,0,127.15,128.73Z"/></clipPath><clipPath id="clip-path-7"><path class="cls-1" d="M151,125.4v2.27c0,1.75-1.89,3.29-3.72,4.35v-2.27C149.08,128.69,151,127.15,151,125.4Z"/></clipPath><clipPath id="clip-path-8"><path class="cls-1" d="M130.57,130.79v2.27l-.27-.16v-2.27Z"/></clipPath><clipPath id="clip-path-9"><path class="cls-1" d="M145.43,130.81v2.27a14.05,14.05,0,0,1-14.86,0v-2.27A14.05,14.05,0,0,0,145.43,130.81Z"/></clipPath><clipPath id="clip-path-10"><path class="cls-1" d="M153.86,107.81v2.27l-.46-.27c-2-1.17-3.57-1.61-5.85-.28v-2.27c2.28-1.33,3.83-.89,5.85.28Z"/></clipPath><clipPath id="clip-path-11"><path class="cls-1" d="M144.87,111.8v-2.27c0-.48.42-1,1.32-1.5v2.27C145.29,110.83,144.88,111.31,144.87,111.8Z"/></clipPath><clipPath id="clip-path-12"><path class="cls-1" d="M161.93,112.88v2.27c-2-1.34-6.7-4.28-8.07-5.07v-2.27C155.22,108.6,159.88,111.53,161.93,112.88Z"/></clipPath><clipPath id="clip-path-13"><path class="cls-1" d="M136.76,111.88v-2.27c0,1.23.87,2.62,3.4,4.08V116C137.63,114.5,136.75,113.11,136.76,111.88Z"/></clipPath><clipPath id="clip-path-14"><path class="cls-1" d="M144.92,117.13v2.27c0-.44-.39-.92-1.32-1.45v-2.27C144.53,116.21,144.93,116.69,144.92,117.13Z"/></clipPath><clipPath id="clip-path-15"><path class="cls-1" d="M129.26,120.33v2.27a26.34,26.34,0,0,1-5.5-4.38v-2.27A26.34,26.34,0,0,0,129.26,120.33Z"/></clipPath><clipPath id="clip-path-16"><path class="cls-1" d="M153.09,117v2.27c0,1.75-1.89,3.29-3.72,4.35v-2.27C151.19,120.29,153.08,118.75,153.09,117Z"/></clipPath><clipPath id="clip-path-17"><path class="cls-1" d="M132.68,122.38v2.27l-.27-.16v-2.27Z"/></clipPath><clipPath id="clip-path-18"><path class="cls-1" d="M147.54,122.41v2.27a14.05,14.05,0,0,1-14.86,0v-2.27A14.05,14.05,0,0,0,147.54,122.41Z"/></clipPath><clipPath id="clip-path-19"><path class="cls-1" d="M153.86,95.65v2.27l-.46-.27c-2-1.17-3.57-1.61-5.85-.28V95.1c2.28-1.33,3.83-.89,5.85.28Z"/></clipPath><clipPath id="clip-path-20"><path class="cls-1" d="M144.87,99.64V97.37c0-.48.42-1,1.32-1.5v2.27C145.29,98.67,144.88,99.16,144.87,99.64Z"/></clipPath><clipPath id="clip-path-21"><path class="cls-1" d="M161.93,100.72V103c-2-1.34-6.7-4.28-8.07-5.07V95.65C155.22,96.44,159.88,99.38,161.93,100.72Z"/></clipPath><clipPath id="clip-path-22"><path class="cls-1" d="M136.76,99.73V97.46c0,1.23.87,2.62,3.4,4.08v2.27C137.63,102.35,136.75,101,136.76,99.73Z"/></clipPath><clipPath id="clip-path-23"><path class="cls-1" d="M144.92,105v2.27c0-.44-.39-.92-1.32-1.45v-2.27C144.53,104.06,144.93,104.53,144.92,105Z"/></clipPath><clipPath id="clip-path-24"><path class="cls-1" d="M129.26,108.17v2.27a26.34,26.34,0,0,1-5.5-4.38v-2.27A26.35,26.35,0,0,0,129.26,108.17Z"/></clipPath><clipPath id="clip-path-25"><path class="cls-1" d="M153.09,104.85v2.27c0,1.75-1.89,3.29-3.72,4.35V109.2C151.19,108.13,153.08,106.6,153.09,104.85Z"/></clipPath><clipPath id="clip-path-26"><path class="cls-1" d="M132.68,110.23v2.27l-.27-.16v-2.27Z"/></clipPath><clipPath id="clip-path-27"><path class="cls-1" d="M147.54,110.26v2.27a14.05,14.05,0,0,1-14.86,0v-2.27A14.05,14.05,0,0,0,147.54,110.26Z"/></clipPath></defs><title>3</title><g class="cls-2"><g id="Layer_1" data-name="Layer 1"><path class="cls-3" d="M181,142.71c-15.13,8.74-39.74,8.69-55-.1s-15.3-23-.17-31.74,39.74-8.69,55,.1S196.16,134,181,142.71Z"/><path class="cls-4" d="M146.52,107.05v42.54l-1.4.07-1,0c-1,0-2,0-2.94,0l-1,0c-1,0-2-.11-2.94-.21l-1-.1c-1-.11-2-.25-2.94-.41l-1-.17c-1-.19-2-.39-2.94-.63l-1-.25c-1-.26-2-.55-2.93-.87l-1-.35c-.66-.24-1.31-.48-1.94-.75V110.58c.64-.26,1.28-.5,1.94-.73l1-.34q1.44-.47,2.93-.85l1-.25q1.45-.34,2.94-.6l1-.17q1.45-.24,2.94-.39l1-.1c1-.09,2-.15,2.94-.18l1,0c1,0,2,0,2.94,0l1,0Z"/><path class="cls-5" d="M177.9,120.69v8.94h0a12.49,12.49,0,0,1-1.27,5.34,14.81,14.81,0,0,1-1,1.77,19.08,19.08,0,0,1-2.94,3.43c-.31.3-.65.59-1,.88a27.85,27.85,0,0,1-2.94,2.11c-.33.21-.66.41-1,.61l0,0c-.92.53-1.89,1-2.89,1.49-.33.16-.67.31-1,.45q-1.43.62-2.94,1.13l-1,.33q-1.44.46-2.94.83c-.33.08-.66.17-1,.24q-1.45.34-2.94.59l-1,.16c-1,.15-2,.27-2.94.38l-1,.09-1.54.11V107.05l1.54.12,1,.1c1,.11,2,.24,2.94.39l1,.17q1.49.26,2.94.61l1,.25q1.5.38,2.94.85l1,.34q1.51.52,2.94,1.15c.34.14.67.29,1,.45.94.43,1.86.91,2.73,1.41l.2.12,1,.62a26.72,26.72,0,0,1,2.94,2.15c.35.29.68.58,1,.88a19.38,19.38,0,0,1,2.94,3.46c.13.19.25.38.36.57Z"/><path class="cls-6" d="M122.5,110.58v35.31l-1-.43-.47-.21-.53-.25c-.85-.4-1.67-.83-2.47-1.29l-.47-.28c-.34-.2-.68-.41-1-.63a26.74,26.74,0,0,1-2.93-2.19c-.35-.3-.68-.61-1-.92a18.55,18.55,0,0,1-2.94-3.62,14.2,14.2,0,0,1-1-1.94,12.41,12.41,0,0,1-1-4.5h0v-8.94h1.79c.07-.13.15-.25.23-.38a18.09,18.09,0,0,1,2.94-3.61c.32-.31.65-.62,1-.91a26.16,26.16,0,0,1,2.93-2.17c.33-.21.66-.42,1-.62l.31-.19c.84-.48,1.72-.94,2.62-1.36l.53-.25.47-.21Z"/><g class="cls-7"><path class="cls-8" d="M113.63,115.79v24.83c-.35-.3-.68-.61-1-.92v-23C112.95,116.39,113.28,116.08,113.63,115.79Z"/><path class="cls-8" d="M109.69,120.31v15.76a14.2,14.2,0,0,1-1-1.94V120.69h.77C109.54,120.56,109.61,120.44,109.69,120.31Z"/><path class="cls-8" d="M117.57,113v30.43c-.34-.2-.68-.41-1-.63V113.62C116.89,113.4,117.23,113.2,117.57,113Z"/><path class="cls-8" d="M125.44,109.51V147l-1-.35V109.84Z"/><path class="cls-8" d="M121.5,111v34.46l-.47-.21-.53-.25V111.45l.53-.25Z"/><path class="cls-8" d="M133.31,107.64V148.9l-1-.17V107.81Z"/><path class="cls-8" d="M129.38,108.41V148.1l-1-.25V108.66Z"/><path class="cls-8" d="M137.25,107.16v42.25l-1-.1V107.25Z"/><path class="cls-8" d="M141.19,106.94v42.71l-1,0V107Z"/><path class="cls-8" d="M145.13,107v42.68l-1,0V106.95Z"/><path class="cls-8" d="M149.06,107.27v42.12l-1,.09v-42.3Z"/><path class="cls-8" d="M153,107.84v41l-1,.16V107.66Z"/><path class="cls-8" d="M164.81,111.49v33.8c-.33.16-.67.31-1,.45V111C164.15,111.17,164.48,111.32,164.81,111.49Z"/><path class="cls-8" d="M156.94,108.69V148c-.33.08-.66.17-1,.24V108.44Z"/><path class="cls-8" d="M160.87,109.88v37l-1,.33V109.54Z"/><path class="cls-8" d="M168.75,113.63v29.53c-.33.21-.66.41-1,.61V113Z"/><path class="cls-8" d="M172.68,116.66v23.51c-.31.3-.65.59-1,.88V115.78C172,116.07,172.37,116.36,172.68,116.66Z"/><path class="cls-8" d="M176.62,120.69V135a14.81,14.81,0,0,1-1,1.77V120.12c.13.19.25.38.36.57Z"/></g><path class="cls-9" d="M167.7,135.63c-13.67,7.89-35.9,7.85-49.66-.09s-13.83-20.78-.16-28.67,35.9-7.85,49.66.09S181.37,127.74,167.7,135.63Z"/><path class="cls-10" d="M175.36,121.37c0,4.45-3.17,8.72-8.93,12C160.23,137,151.91,139,143,139s-17.4-2-23.71-5.64c-.58-.34-1.13-.69-1.66-1-4.81-3.2-7.42-7.12-7.42-11.18a10.5,10.5,0,0,1,2-6,20.83,20.83,0,0,1,6.91-6c6.21-3.57,14.52-5.55,23.42-5.55a52.22,52.22,0,0,1,18.78,3.3,36.31,36.31,0,0,1,4.91,2.35c5.62,3.24,8.83,7.38,9.06,11.66A3.43,3.43,0,0,1,175.36,121.37Z"/><g class="cls-2"><polygon class="cls-11" points="161.48 112.5 161.48 114.77 158.19 116.68 158.2 114.41 161.48 112.5"/><g class="cls-2"><g class="cls-12"><path class="cls-13" d="M151.74,116.21v2.27l-.46-.27c-2-1.17-3.57-1.61-5.85-.28v-2.27c2.28-1.33,3.83-.89,5.85.28l.46.27Z"/></g></g><polygon class="cls-13" points="145.43 115.66 145.43 117.92 144.08 118.7 144.09 116.44 145.43 115.66"/><g class="cls-2"><g class="cls-14"><path class="cls-13" d="M144.09,116.44v2.27c-.9.53-1.32,1-1.32,1.5v-2.27c0-.48.42-1,1.32-1.5Z"/></g></g><g class="cls-2"><g class="cls-15"><path class="cls-13" d="M159.81,121.28v2.27c-2-1.34-6.7-4.28-8.07-5.07v-2.27c1.37.79,6,3.73,8.07,5.07Z"/></g></g><polygon class="cls-11" points="163.91 118.9 163.91 121.17 159.81 123.55 159.81 121.28 163.91 118.9"/><g class="cls-2"><g class="cls-16"><path class="cls-11" d="M138,122.09v2.27c-2.52-1.46-3.4-2.84-3.4-4.08V118c0,1.23.87,2.62,3.4,4.08Z"/></g></g><polygon class="cls-11" points="141.49 124.08 141.49 126.35 138.04 124.36 138.04 122.09 141.49 124.08"/><g class="cls-2"><g class="cls-17"><path class="cls-11" d="M142.81,125.54v2.27c0-.44-.39-.92-1.32-1.45v-2.27c.93.54,1.32,1,1.32,1.45Z"/></g></g><g class="cls-2"><g class="cls-18"><path class="cls-11" d="M127.15,128.73V131a26.35,26.35,0,0,1-5.5-4.38v-2.27a26.34,26.34,0,0,0,5.5,4.38Z"/></g></g><g class="cls-2"><g class="cls-19"><path class="cls-11" d="M151,125.4v2.27c0,1.75-1.89,3.29-3.72,4.35v-2.27c1.83-1.06,3.72-2.6,3.72-4.35Z"/></g></g><polygon class="cls-11" points="147.25 129.76 147.24 132.03 145.42 133.08 145.43 130.81 147.25 129.76"/><g class="cls-2"><g class="cls-20"><path class="cls-11" d="M130.57,130.79v2.27l-.27-.16v-2.27l.27.16Z"/></g></g><polygon class="cls-11" points="130.3 130.63 130.29 132.9 127.2 134.69 127.21 132.42 130.3 130.63"/><polygon class="cls-13" points="127.21 132.42 127.2 134.69 123.98 132.84 123.99 130.57 127.21 132.42"/><path class="cls-9" d="M161.48,112.51l-3.28,1.91a36.63,36.63,0,0,1,5.71,4.48l-4.1,2.38c-2-1.34-6.7-4.28-8.07-5.07l-.46-.27c-2-1.17-3.57-1.61-5.85-.28l-1.34.78c-2,1.16-1.62,2.13.36,3.27l3.54,2c5.49,3.17,2.3,6.24-.73,8l-1.82,1.06a14.05,14.05,0,0,1-14.86,0l-.27-.16-3.09,1.8L124,130.57l3.16-1.84a26.34,26.34,0,0,1-5.5-4.38l4-2.35c1.42.92,5,3.26,8.48,5.29,1.58.91,3.77,1.77,5.78.6l1.48-.86c1.55-.9,2.06-1.78.05-2.93l-3.45-2c-6.43-3.71-2.17-7,.15-8.34l2.37-1.38c5.37-3.1,10.23-2.16,14.48.15l3.23-1.88Z"/><g class="cls-2"><g class="cls-21"><path class="cls-11" d="M145.43,130.81v2.27a14.05,14.05,0,0,1-14.86,0v-2.27a14.05,14.05,0,0,0,14.86,0Z"/></g></g></g><g class="cls-22"><path class="cls-23" d="M175.33,120.83l-57.68,11.46c-4.81-3.2-7.42-7.12-7.42-11.18a10.5,10.5,0,0,1,2-6l49.11-8.29a36.31,36.31,0,0,1,4.91,2.35C171.89,112.41,175.1,116.55,175.33,120.83Z"/></g><path class="cls-5" d="M121,108.08v2.84c-.64.32-1.27.66-1.88,1-5.13,3-8.22,6.69-8.82,10.62a9.27,9.27,0,0,1-.11-1.42c0-4.45,3.17-8.72,8.93-12C119.76,108.73,120.39,108.4,121,108.08Z"/><path class="cls-6" d="M175.36,121.38a9.34,9.34,0,0,1-.11,1.42c-.61-4-3.74-7.76-9-10.79a46,46,0,0,0-19.75-5.51v-2.85a46.15,46.15,0,0,1,19.75,5.51C172.13,112.55,175.36,116.89,175.36,121.38Z"/><path class="cls-4" d="M146.52,103.66v2.85c-1.3-.09-2.62-.13-4-.13A49.33,49.33,0,0,0,121,110.92v-2.84a49.33,49.33,0,0,1,21.54-4.56C143.9,103.52,145.22,103.57,146.52,103.66Z"/><path class="cls-4" d="M148.64,98.65v42.54l-1.4.07-1,0c-1,0-2,0-2.94,0l-1,0c-1,0-2-.11-2.94-.21l-1-.1c-1-.11-2-.25-2.94-.41l-1-.17c-1-.18-2-.39-2.94-.63l-1-.25c-1-.26-2-.55-2.93-.87l-1-.35c-.66-.24-1.31-.48-1.95-.75V102.17c.64-.26,1.28-.5,1.95-.73l1-.34q1.44-.47,2.93-.85l1-.25c1-.22,1.95-.43,2.94-.6l1-.17q1.45-.24,2.94-.39l1-.1c1-.09,2-.15,2.94-.18l1,0c1,0,2,0,2.94,0l1,0Z"/><path class="cls-5" d="M180,112.29v8.94h0a12.49,12.49,0,0,1-1.27,5.34,14.81,14.81,0,0,1-1,1.77,19.07,19.07,0,0,1-2.94,3.43c-.31.3-.65.59-1,.88a27.84,27.84,0,0,1-2.94,2.11c-.33.21-.66.41-1,.61l0,0c-.92.53-1.89,1-2.89,1.49-.33.16-.67.31-1,.45q-1.43.62-2.94,1.13l-1,.33q-1.44.46-2.94.83c-.33.08-.66.17-1,.24q-1.45.34-2.94.59l-1,.16c-1,.15-2,.27-2.94.38l-1,.09-1.54.11V98.65l1.54.12,1,.1c1,.11,2,.24,2.94.39l1,.17q1.49.26,2.94.61l1,.25q1.5.38,2.94.85l1,.34q1.51.52,2.94,1.15c.34.14.67.29,1,.45.94.43,1.86.91,2.73,1.41l.2.12,1,.62a26.69,26.69,0,0,1,2.94,2.15c.35.29.68.58,1,.88a19.37,19.37,0,0,1,2.94,3.46c.13.19.25.38.36.57Z"/><path class="cls-6" d="M124.61,102.17v35.31l-1-.43-.47-.21-.53-.25c-.85-.4-1.67-.83-2.47-1.29l-.47-.28c-.34-.2-.68-.41-1-.63a26.73,26.73,0,0,1-2.93-2.19c-.35-.3-.68-.61-1-.92a18.55,18.55,0,0,1-2.94-3.62,14.21,14.21,0,0,1-1-1.95,12.41,12.41,0,0,1-1-4.5h0v-8.94h1.79c.07-.13.15-.25.23-.38a18.09,18.09,0,0,1,2.94-3.61c.32-.31.65-.62,1-.91a26.16,26.16,0,0,1,2.93-2.17c.33-.21.66-.42,1-.62l.31-.19c.84-.48,1.72-.94,2.62-1.36l.53-.25.47-.21Z"/><g class="cls-7"><path class="cls-8" d="M115.75,107.38v24.83c-.35-.3-.68-.61-1-.92v-23C115.06,108,115.39,107.68,115.75,107.38Z"/><path class="cls-8" d="M111.81,111.91v15.76a14.21,14.21,0,0,1-1-1.95V112.29h.77C111.65,112.16,111.72,112,111.81,111.91Z"/><path class="cls-8" d="M119.68,104.6V135c-.34-.2-.68-.41-1-.63V105.21C119,105,119.34,104.79,119.68,104.6Z"/><path class="cls-8" d="M127.56,101.1v37.47l-1-.35V101.44Z"/><path class="cls-8" d="M123.62,102.6v34.46l-.47-.21-.53-.25V103l.53-.25Z"/><path class="cls-8" d="M135.43,99.24V140.5l-1-.17V99.41Z"/><path class="cls-8" d="M131.49,100V139.7l-1-.25V100.25Z"/><path class="cls-8" d="M139.36,98.76V141l-1-.1V98.85Z"/><path class="cls-8" d="M143.3,98.54v42.71l-1,0V98.57Z"/><path class="cls-8" d="M147.24,98.58v42.68l-1,0V98.54Z"/><path class="cls-8" d="M151.17,98.87V141l-1,.09V98.77Z"/><path class="cls-8" d="M155.12,99.43v41l-1,.16V99.26Z"/><path class="cls-8" d="M166.93,103.08v33.8c-.33.16-.67.31-1,.45v-34.7C166.26,102.77,166.6,102.92,166.93,103.08Z"/><path class="cls-8" d="M159.05,100.29v39.33c-.33.08-.66.17-1,.24V100Z"/><path class="cls-8" d="M163,101.47v37l-1,.33V101.14Z"/><path class="cls-8" d="M170.86,105.23v29.53c-.33.21-.66.41-1,.61V104.61Z"/><path class="cls-8" d="M174.8,108.26v23.51c-.31.3-.65.59-1,.88V107.38C174.15,107.66,174.48,108,174.8,108.26Z"/><path class="cls-8" d="M178.74,112.29v14.28a14.81,14.81,0,0,1-1,1.77V111.72c.13.19.25.38.36.57Z"/></g><path class="cls-9" d="M169.81,127.23c-13.67,7.89-35.9,7.85-49.66-.09s-13.83-20.78-.16-28.67,35.9-7.85,49.66.09S183.48,119.33,169.81,127.23Z"/><path class="cls-10" d="M177.47,113c0,4.45-3.17,8.72-8.93,12-6.19,3.58-14.52,5.55-23.41,5.55s-17.4-2-23.71-5.64c-.58-.34-1.13-.69-1.66-1-4.81-3.2-7.42-7.12-7.42-11.18a10.5,10.5,0,0,1,2-6,20.83,20.83,0,0,1,6.91-6c6.21-3.57,14.52-5.55,23.42-5.55a52.22,52.22,0,0,1,18.78,3.3,36.31,36.31,0,0,1,4.91,2.35c5.62,3.24,8.83,7.38,9.06,11.66A3.43,3.43,0,0,1,177.47,113Z"/><g class="cls-2"><polygon class="cls-11" points="163.6 104.1 163.59 106.37 160.31 108.28 160.31 106.01 163.6 104.1"/><g class="cls-2"><g class="cls-24"><path class="cls-13" d="M153.86,107.81v2.27l-.46-.27c-2-1.17-3.57-1.61-5.85-.28v-2.27c2.28-1.33,3.83-.89,5.85.28l.46.27Z"/></g></g><polygon class="cls-13" points="147.55 107.25 147.54 109.52 146.2 110.3 146.2 108.03 147.55 107.25"/><g class="cls-2"><g class="cls-25"><path class="cls-13" d="M146.2,108v2.27c-.91.53-1.32,1-1.32,1.5v-2.27c0-.48.42-1,1.32-1.5Z"/></g></g><g class="cls-2"><g class="cls-26"><path class="cls-13" d="M161.93,112.88v2.27c-2-1.34-6.7-4.28-8.07-5.07v-2.27c1.37.79,6,3.73,8.07,5.07Z"/></g></g><polygon class="cls-11" points="166.03 110.49 166.02 112.76 161.92 115.14 161.93 112.88 166.03 110.49"/><g class="cls-2"><g class="cls-27"><path class="cls-11" d="M140.16,113.69V116c-2.52-1.46-3.4-2.84-3.4-4.08v-2.27c0,1.23.87,2.62,3.4,4.08Z"/></g></g><polygon class="cls-11" points="143.61 115.68 143.6 117.95 140.15 115.96 140.16 113.69 143.61 115.68"/><g class="cls-2"><g class="cls-28"><path class="cls-11" d="M144.92,117.13v2.27c0-.44-.39-.92-1.32-1.45v-2.27c.93.54,1.32,1,1.32,1.45Z"/></g></g><g class="cls-2"><g class="cls-29"><path class="cls-11" d="M129.26,120.33v2.27a26.34,26.34,0,0,1-5.5-4.38v-2.27a26.34,26.34,0,0,0,5.5,4.38Z"/></g></g><g class="cls-2"><g class="cls-30"><path class="cls-11" d="M153.09,117v2.27c0,1.75-1.89,3.29-3.72,4.35v-2.27c1.83-1.06,3.72-2.6,3.72-4.35Z"/></g></g><polygon class="cls-11" points="149.36 121.35 149.35 123.62 147.54 124.68 147.54 122.41 149.36 121.35"/><g class="cls-2"><g class="cls-31"><path class="cls-11" d="M132.68,122.38v2.27l-.27-.16v-2.27l.27.16Z"/></g></g><polygon class="cls-11" points="132.41 122.22 132.41 124.49 129.31 126.29 129.32 124.02 132.41 122.22"/><polygon class="cls-13" points="129.32 124.02 129.31 126.29 126.1 124.43 126.1 122.16 129.32 124.02"/><path class="cls-9" d="M163.6,104.1,160.31,106a36.65,36.65,0,0,1,5.71,4.48l-4.1,2.38c-2-1.34-6.7-4.28-8.07-5.07l-.46-.27c-2-1.17-3.57-1.61-5.85-.28l-1.34.78c-2,1.16-1.62,2.13.36,3.27l3.54,2c5.49,3.17,2.3,6.24-.73,8l-1.82,1.06a14.05,14.05,0,0,1-14.86,0l-.27-.16-3.09,1.8-3.22-1.86,3.16-1.84a26.34,26.34,0,0,1-5.5-4.38l4-2.35c1.42.92,5,3.26,8.48,5.28,1.58.91,3.77,1.77,5.78.6l1.48-.86c1.55-.9,2.06-1.78.05-2.93l-3.45-2c-6.43-3.72-2.17-7,.15-8.34l2.37-1.38c5.37-3.1,10.23-2.16,14.48.15l3.23-1.88Z"/><g class="cls-2"><g class="cls-32"><path class="cls-11" d="M147.54,122.41v2.27a14.05,14.05,0,0,1-14.86,0v-2.27a14.05,14.05,0,0,0,14.86,0Z"/></g></g></g><g class="cls-22"><path class="cls-23" d="M177.44,112.43l-57.68,11.46c-4.81-3.2-7.42-7.12-7.42-11.18a10.5,10.5,0,0,1,2-6l49.11-8.29a36.31,36.31,0,0,1,4.91,2.35C174,104,177.21,108.14,177.44,112.43Z"/></g><path class="cls-5" d="M123.15,99.67v2.84c-.64.32-1.27.66-1.88,1-5.13,3-8.22,6.69-8.82,10.62a9.27,9.27,0,0,1-.11-1.42c0-4.45,3.17-8.72,8.93-12C121.87,100.33,122.5,100,123.15,99.67Z"/><path class="cls-6" d="M177.47,113a9.35,9.35,0,0,1-.11,1.42c-.61-4-3.74-7.76-9-10.79a46,46,0,0,0-19.75-5.5V95.25a46.15,46.15,0,0,1,19.75,5.51C174.24,104.14,177.47,108.48,177.47,113Z"/><path class="cls-4" d="M148.64,95.25v2.85c-1.3-.09-2.62-.13-4-.13a49.33,49.33,0,0,0-21.54,4.55V99.67a49.33,49.33,0,0,1,21.54-4.56C146,95.12,147.33,95.17,148.64,95.25Z"/><path class="cls-4" d="M148.64,86.5V129l-1.4.07-1,0c-1,0-2,0-2.94,0l-1,0c-1,0-2-.11-2.94-.21l-1-.1c-1-.11-2-.25-2.94-.41l-1-.17c-1-.19-2-.39-2.94-.63l-1-.25c-1-.26-2-.55-2.93-.87l-1-.35c-.66-.24-1.31-.48-1.95-.75V90c.64-.26,1.28-.5,1.95-.73l1-.34q1.44-.47,2.93-.85l1-.25c1-.22,1.95-.43,2.94-.6l1-.17q1.45-.24,2.94-.39l1-.1c1-.09,2-.15,2.94-.18l1,0c1,0,2,0,2.94,0l1,0Z"/><path class="cls-5" d="M180,100.13v8.94h0a12.49,12.49,0,0,1-1.27,5.34,14.82,14.82,0,0,1-1,1.77,19.07,19.07,0,0,1-2.94,3.43c-.31.3-.65.59-1,.88a27.82,27.82,0,0,1-2.94,2.11c-.33.21-.66.41-1,.61l0,0c-.92.53-1.89,1-2.89,1.49-.33.16-.67.31-1,.45q-1.43.62-2.94,1.13l-1,.33q-1.44.46-2.94.83c-.33.08-.66.17-1,.24q-1.45.34-2.94.59l-1,.16c-1,.15-2,.27-2.94.38l-1,.09-1.54.11V86.5l1.54.12,1,.1c1,.11,2,.24,2.94.39l1,.17q1.49.26,2.94.61l1,.25q1.5.38,2.94.85l1,.34q1.51.52,2.94,1.15c.34.14.67.29,1,.45.94.43,1.86.91,2.73,1.41l.2.12,1,.62a26.73,26.73,0,0,1,2.94,2.15c.35.29.68.58,1,.88a19.37,19.37,0,0,1,2.94,3.46c.13.19.25.38.36.57Z"/><path class="cls-6" d="M124.61,90v35.31l-1-.43-.47-.21-.53-.25c-.85-.4-1.67-.83-2.47-1.29l-.47-.28c-.34-.2-.68-.41-1-.63a26.77,26.77,0,0,1-2.93-2.19c-.35-.3-.68-.61-1-.92a18.55,18.55,0,0,1-2.94-3.62,14.23,14.23,0,0,1-1-1.94,12.41,12.41,0,0,1-1-4.5h0v-8.94h1.79c.07-.13.15-.25.23-.38a18.09,18.09,0,0,1,2.94-3.61c.32-.31.65-.62,1-.91a26.16,26.16,0,0,1,2.93-2.17c.33-.21.66-.42,1-.62l.31-.19c.84-.48,1.72-.94,2.62-1.36l.53-.25.47-.21Z"/><g class="cls-7"><path class="cls-8" d="M115.75,95.23v24.83c-.35-.3-.68-.61-1-.92v-23C115.06,95.83,115.39,95.53,115.75,95.23Z"/><path class="cls-8" d="M111.81,99.75v15.76a14.23,14.23,0,0,1-1-1.94V100.13h.77C111.65,100,111.72,99.88,111.81,99.75Z"/><path class="cls-8" d="M119.68,92.44v30.43c-.34-.2-.68-.41-1-.63V93.06C119,92.85,119.34,92.64,119.68,92.44Z"/><path class="cls-8" d="M127.56,89v37.47l-1-.35V89.29Z"/><path class="cls-8" d="M123.62,90.44V124.9l-.47-.21-.53-.25V90.9l.53-.25Z"/><path class="cls-8" d="M135.43,87.08v41.26l-1-.17V87.25Z"/><path class="cls-8" d="M131.49,87.85v39.69l-1-.25V88.1Z"/><path class="cls-8" d="M139.36,86.6v42.25l-1-.1V86.7Z"/><path class="cls-8" d="M143.3,86.38V129.1l-1,0V86.42Z"/><path class="cls-8" d="M147.24,86.42V129.1l-1,0V86.39Z"/><path class="cls-8" d="M151.17,86.71v42.12l-1,.09V86.62Z"/><path class="cls-8" d="M155.12,87.28v41l-1,.16V87.11Z"/><path class="cls-8" d="M166.93,90.93v33.8c-.33.16-.67.31-1,.45V90.48C166.26,90.62,166.6,90.77,166.93,90.93Z"/><path class="cls-8" d="M159.05,88.13v39.33c-.33.08-.66.17-1,.24V87.89Z"/><path class="cls-8" d="M163,89.32v37l-1,.33V89Z"/><path class="cls-8" d="M170.86,93.08v29.53c-.33.21-.66.41-1,.61V92.46Z"/><path class="cls-8" d="M174.8,96.1v23.51c-.31.3-.65.59-1,.88V95.22C174.15,95.51,174.48,95.81,174.8,96.1Z"/><path class="cls-8" d="M178.74,100.13v14.28a14.82,14.82,0,0,1-1,1.77V99.56c.13.19.25.38.36.57Z"/></g><path class="cls-9" d="M169.81,115.07c-13.67,7.89-35.9,7.85-49.66-.09S106.33,94.2,120,86.31s35.9-7.85,49.66.09S183.48,107.18,169.81,115.07Z"/><path class="cls-10" d="M177.47,100.82c0,4.45-3.17,8.72-8.93,12-6.19,3.58-14.52,5.55-23.41,5.55s-17.4-2-23.71-5.64c-.58-.34-1.13-.69-1.66-1-4.81-3.2-7.42-7.12-7.42-11.18a10.5,10.5,0,0,1,2-6,20.84,20.84,0,0,1,6.91-6c6.21-3.57,14.52-5.55,23.42-5.55a52.22,52.22,0,0,1,18.78,3.3,36.35,36.35,0,0,1,4.91,2.35c5.62,3.24,8.83,7.38,9.06,11.66A3.43,3.43,0,0,1,177.47,100.82Z"/><g class="cls-2"><polygon class="cls-11" points="163.6 91.95 163.59 94.22 160.31 96.13 160.31 93.86 163.6 91.95"/><g class="cls-2"><g class="cls-33"><path class="cls-13" d="M153.86,95.65v2.27l-.46-.27c-2-1.17-3.57-1.61-5.85-.28V95.1c2.28-1.33,3.83-.89,5.85.28l.46.27Z"/></g></g><polygon class="cls-13" points="147.55 95.1 147.54 97.37 146.2 98.15 146.2 95.88 147.55 95.1"/><g class="cls-2"><g class="cls-34"><path class="cls-13" d="M146.2,95.88v2.27c-.91.53-1.32,1-1.32,1.5V97.37c0-.48.42-1,1.32-1.5Z"/></g></g><g class="cls-2"><g class="cls-35"><path class="cls-13" d="M161.93,100.72V103c-2-1.34-6.7-4.28-8.07-5.07V95.65c1.37.79,6,3.73,8.07,5.07Z"/></g></g><polygon class="cls-11" points="166.03 98.34 166.02 100.61 161.92 102.99 161.93 100.72 166.03 98.34"/><g class="cls-2"><g class="cls-36"><path class="cls-11" d="M140.16,101.53v2.27c-2.52-1.46-3.4-2.84-3.4-4.08V97.46c0,1.23.87,2.62,3.4,4.08Z"/></g></g><polygon class="cls-11" points="143.61 103.52 143.6 105.79 140.15 103.8 140.16 101.53 143.61 103.52"/><g class="cls-2"><g class="cls-37"><path class="cls-11" d="M144.92,105v2.27c0-.44-.39-.92-1.32-1.45v-2.27c.93.54,1.32,1,1.32,1.45Z"/></g></g><g class="cls-2"><g class="cls-38"><path class="cls-11" d="M129.26,108.17v2.27a26.34,26.34,0,0,1-5.5-4.38v-2.27a26.34,26.34,0,0,0,5.5,4.38Z"/></g></g><g class="cls-2"><g class="cls-39"><path class="cls-11" d="M153.09,104.85v2.27c0,1.75-1.89,3.29-3.72,4.35V109.2c1.83-1.06,3.72-2.6,3.72-4.35Z"/></g></g><polygon class="cls-11" points="149.36 109.2 149.35 111.47 147.54 112.53 147.54 110.26 149.36 109.2"/><g class="cls-2"><g class="cls-40"><path class="cls-11" d="M132.68,110.23v2.27l-.27-.16v-2.27l.27.16Z"/></g></g><polygon class="cls-11" points="132.41 110.07 132.41 112.34 129.31 114.14 129.32 111.87 132.41 110.07"/><polygon class="cls-13" points="129.32 111.87 129.31 114.14 126.1 112.28 126.1 110.01 129.32 111.87"/><path class="cls-9" d="M163.6,91.95l-3.28,1.91A36.65,36.65,0,0,1,166,98.34l-4.1,2.38c-2-1.34-6.7-4.28-8.07-5.07l-.46-.27c-2-1.17-3.57-1.61-5.85-.28l-1.34.78c-2,1.16-1.62,2.13.36,3.27l3.54,2c5.49,3.17,2.3,6.24-.73,8l-1.82,1.06a14.05,14.05,0,0,1-14.86,0l-.27-.16-3.09,1.8L126.1,110l3.16-1.84a26.34,26.34,0,0,1-5.5-4.38l4-2.35c1.42.92,5,3.26,8.48,5.29,1.58.91,3.77,1.77,5.78.6l1.48-.86c1.55-.9,2.06-1.78.05-2.94l-3.45-2c-6.43-3.71-2.17-7,.15-8.34l2.37-1.38c5.37-3.1,10.23-2.16,14.48.15l3.23-1.88Z"/><g class="cls-2"><g class="cls-41"><path class="cls-11" d="M147.54,110.26v2.27a14.05,14.05,0,0,1-14.86,0v-2.27a14.05,14.05,0,0,0,14.86,0Z"/></g></g></g><g class="cls-22"><path class="cls-23" d="M177.44,100.27l-57.68,11.46c-4.81-3.2-7.42-7.12-7.42-11.18a10.5,10.5,0,0,1,2-6l49.11-8.29a36.35,36.35,0,0,1,4.91,2.35C174,91.85,177.21,96,177.44,100.27Z"/></g><path class="cls-5" d="M123.15,87.52v2.84c-.64.32-1.27.66-1.88,1-5.13,3-8.22,6.69-8.82,10.62a9.27,9.27,0,0,1-.11-1.42c0-4.45,3.17-8.72,8.93-12C121.87,88.17,122.5,87.84,123.15,87.52Z"/><path class="cls-6" d="M177.47,100.82a9.34,9.34,0,0,1-.11,1.42c-.61-4-3.74-7.76-9-10.79A46,46,0,0,0,148.64,86V83.1a46.15,46.15,0,0,1,19.75,5.51C174.24,92,177.47,96.33,177.47,100.82Z"/><path class="cls-4" d="M148.64,83.1V86c-1.3-.09-2.62-.13-4-.13a49.33,49.33,0,0,0-21.54,4.55V87.52A49.33,49.33,0,0,1,144.68,83C146,83,147.33,83,148.64,83.1Z"/><path class="cls-42" d="M162.52,34.66l-8.85-15.11c-1.18-1.33-3.56-1.91-4.89-.73l.33.47a3.24,3.24,0,0,0-.26,4.56s8.16,9.79,11.25,12.72C162.19,38.53,163.71,36,162.52,34.66Z"/><path class="cls-43" d="M134.67,95.39c-1,1.61-1.79,3.15-2.22,3.88l-.78-.51c.82-1.63,1.41-2.45,2.09-3.68Z"/><path class="cls-44" d="M148.47,64.8l-2.41,3.85c-1.27,2-2.88,3.94-3.75,6.13-2.22,5.52-4.18,11.06-6.11,16.55l-1.42,2.57-1.06,7.86,4,2.2.36-2.2A23.54,23.54,0,0,1,139.76,94a27,27,0,0,1,3.83-6.51l6-8.54c1-1.38,3.58-5.53,3.62-6.31C153.61,63.51,149.84,65.94,148.47,64.8Z"/><path class="cls-44" d="M148.47,64.8l-2.41,3.85c-1.27,2-2.88,3.94-3.75,6.13-1.67,4.17-3.2,8.35-4.68,12.51.05.19.11.39.15.59a57.44,57.44,0,0,0,1.88,6.39l.1-.28a27,27,0,0,1,3.83-6.51l6-8.54c1-1.38,3.58-5.53,3.62-6.31C153.61,63.51,149.84,65.94,148.47,64.8Z"/><path class="cls-43" d="M138.45,103.45l-.19,1.41-4.19-1.17a1.53,1.53,0,0,1-1-1.7l.4-5.23.27-1.69,1-1.2s-.44,7.56-.15,7.68,2.89,1.11,2.89,1.11l.53-.93Z"/><path class="cls-45" d="M143.25,104.46c-.16,2-.21,2.71-.28,3.61l-.94.08c0-2,.14-3.17.2-4.67Z"/><path class="cls-46" d="M150.88,109.39l-5.33.88-3.32-6.79.29-5.29c-1.69-5.63-3.38-11.26-4.87-16.94l-.24-.92a38.45,38.45,0,0,1-.65-6.94c0-.13,0-.26,0-.39q-.2-2.3-.39-4.6l5.28.49c.92.08,2.48-.1,3,.74.32.57.1,2,.19,2.63s.18,1.21.32,1.81c0,.19.09.37.14.56a23.84,23.84,0,0,1,.49,5.11q0,1.2.09,2.4l.33,8.46a30,30,0,0,0,.92,7.94C147.35,99.56,150.41,109.46,150.88,109.39Z"/><path class="cls-47" d="M145.8,82.14a10.19,10.19,0,0,1-1.06.06,20.42,20.42,0,0,1-3.44-.36l-3.37-.55-.28,0-.24-.92a38.45,38.45,0,0,1-.65-6.94,10.19,10.19,0,0,1,1.85-.39,12.72,12.72,0,0,1,6.48,1.07c0,.19.09.37.14.56a23.84,23.84,0,0,1,.49,5.11Q145.76,80.94,145.8,82.14Z"/><path class="cls-45" d="M149.94,107.16l.09,1.09-3.08.61-4.63-7-.09,1.64s2.57,6.23,3.16,6.94,1,1.15,2.75.86l3-.49-.23-1.66Z"/><path class="cls-48" d="M150.2,23.14a3,3,0,0,1-2.24,1H141.5a3,3,0,0,1-3-3h0c1.84-2.16.95-1.49,2.7-2.47h0l1-.55.18-.11h.44l4.34.08h.74c.2.25.43.46.63.71a5.3,5.3,0,0,1,.61,1.09l.18.38a4.2,4.2,0,0,1,.59,2A1.28,1.28,0,0,0,150.2,23.14Z"/><path class="cls-49" d="M155.78,75.47c-.38,5.2-18.95,6.7-22.07,2.88a7,7,0,0,1-.69-2.88,82.44,82.44,0,0,1,1.21-21.21c.58-2.52,3.5-9.66,3.5-9.9,0-3,5.15-2,9.78-1.37,1.87.25,3.58,2,4.74,3.56a19.19,19.19,0,0,1,1.54,2.4A100.89,100.89,0,0,1,155.78,75.47Z"/><path class="cls-50" d="M155.78,75.47c-.38,5.2-18.95,6.7-22.07,2.88a7,7,0,0,1-.69-2.88,13.45,13.45,0,0,0,12.73,2.88,5.1,5.1,0,0,0,3.46-2.71c.49-1.3.07-2.75,0-4.14-.05-3.45,2.34-6.38,4.09-9.37a5.12,5.12,0,0,0,.57-1.22,5.35,5.35,0,0,0,0-2.3,24.22,24.22,0,0,0-3.16-8.94l1.46-3.12a19.19,19.19,0,0,1,1.54,2.4A100.89,100.89,0,0,1,155.78,75.47Z"/><path class="cls-51" d="M153,31.24a10.51,10.51,0,0,0-.92,4.6,44.53,44.53,0,0,0,1.18,10.48c.07.36.15.72.23,1.07.15.76.31,1.5.46,2.23a3.76,3.76,0,0,1-.33.44,4.58,4.58,0,0,1-.92.84c-2.63,2-6.91,2.15-9.38,2.15-3.21,0-6-.78-7.82-2.71.15-.48.28-1,.41-1.51.23-.89.45-1.84.65-2.83.27-1.17.5-2.36.72-3.49a57.73,57.73,0,0,0,.94-6c-.21-7-2.72-8.36-2.72-12.83a2.84,2.84,0,0,1,.77-1.75,12.28,12.28,0,0,1,3.48-2.61c.78-.42,1.38-.69,1.43-.72a0,0,0,0,0,0,0s.53,6.13,6.71,3.9c.84-.31.72-1.43.38-2.48a12.69,12.69,0,0,0-.86-2l-.05-.09a9.51,9.51,0,0,1,4.17.32l0,0a27.56,27.56,0,0,1,2.84,6.24,6,6,0,0,1-.13,3.28A24.27,24.27,0,0,1,153,31.24Z"/><path class="cls-52" d="M151.36,45.49a21,21,0,0,1-5.53-2.43,20.2,20.2,0,0,1-4-2.87,14.09,14.09,0,0,1-3.38-5.64,29.74,29.74,0,0,1-1.27-6.49c-.16-1.51-.28-3-.54-4.53-.09-.53-.2-1-.33-1.57a12.28,12.28,0,0,1,3.48-2.61,1,1,0,0,1,.27.27,3.24,3.24,0,0,1,.53,1.54c.44,2.75.15,5.56.27,8.35s.68,5.71,2.51,7.8a5.59,5.59,0,0,0,1,.89c.29.21.62.37.93.56a11.15,11.15,0,0,1,2,1.76A47.58,47.58,0,0,1,151.36,45.49Z"/><path class="cls-48" d="M147.17,19.81l0,.18a2.33,2.33,0,0,1-.19.49,1.34,1.34,0,0,1-.84.67,1.63,1.63,0,0,1-.51.08,4.65,4.65,0,0,1-1.7-.25,2.62,2.62,0,0,1-.92-.51,1.63,1.63,0,0,1-.26-.22h0a3.71,3.71,0,0,1-.54-.66l0-1.49V14.94l.19,0L147,16.2l.06,1.18,0,.69Z"/><path class="cls-53" d="M138.43,24.2l2.93,13.4.4,1.82.5,2.28c.41,1.59-4.16,3-5.62,1.13a2,2,0,0,1-.27-.48h0l0-.07-.17-.5h0c-1-3.21-2.66-10.08-3.48-13.67-.32-1.39-.52-2.3-.52-2.3A3.24,3.24,0,0,1,134,22a3.19,3.19,0,0,1,.48-.17A3.24,3.24,0,0,1,138.43,24.2Z"/><path class="cls-54" d="M140.51,4.13c-9.22-3.39-12.79,15.15-6.22,21.51,1.14,1.11,5.11.69,5.55-.67,1.82-5.58-5.83-12.56-.93-17.48a3.57,3.57,0,0,0,.9-.71C140.62,5.91,142.72,5.18,140.51,4.13Z"/><path class="cls-55" d="M140.51,4.13a5.79,5.79,0,0,0-3.16-.31,5.81,5.81,0,0,0,.21,5.78,5.56,5.56,0,0,1,1.35-2.1,3.57,3.57,0,0,0,.9-.71C140.62,5.91,142.72,5.18,140.51,4.13Z"/><path class="cls-56" d="M140.71,11.36c.34,1.42,1.66,5.57,2.77,6.27,1.57,1,5.16,2.44,7,1,2.47-2,2.53-6.71,2.17-11.33s-3.94-5.21-6.79-3S139.64,6.85,140.71,11.36Z"/><path class="cls-56" d="M143.48,17.62c1.57,1,5.16,2.44,7,1,2.47-2,2.53-6.71,2.17-11.33s-3.94-5.21-6.79-3a27.55,27.55,0,0,1-2.64,1.69c-.16,2.66-.49,6,2.12,6.45,2.09.45,3.95-.82,5.86-1.38,1.22,2.48.56,5.82-1.81,7.13s-4.24-.48-6.44-1A2,2,0,0,0,143.48,17.62Z"/><path class="cls-54" d="M151.06,2.23C149,0,146.12.09,143.31.65c-2.44.49-5,2.7-5.37,5-.48,3.19.09,7.47,3.66,9.82,1.32.88-.67-2.83,1.21-2.79.6,0,.89-.95,1.35-1.07.29.19,2.8-.81,5.45-1.38.19,0,.61-1.56.8-1.6s.27,1.37.5,1.32a10.25,10.25,0,0,0,2.4-.86C154.14,6.81,152.53,3.82,151.06,2.23Z"/><path class="cls-56" d="M143.41,11.73c.77.89,1,2,.43,2.44s-1.59.11-2.35-.77-1-2-.43-2.44S142.64,10.84,143.41,11.73Z"/><ellipse class="cls-56" cx="142.68" cy="12.78" rx="0.63" ry="1.05" transform="translate(22.72 91.08) rotate(-38.25)"/><path class="cls-57" d="M166.13,40.68c-.45.68-.94,1.35-1.46,2a27.86,27.86,0,0,1-4.49,4.53c-.19.16-.35.29-.53.42l-.35.27-.57.4c-4.19,2.84-8.37,3.58-10.85,1.49a6.3,6.3,0,0,1-2-4.75,13.92,13.92,0,0,1,.38-3.73c0-.19.08-.37.13-.54a26.44,26.44,0,0,1,4.82-9.32.18.18,0,0,1,.07-.08,2.31,2.31,0,0,1,.24-.29c.35-.44.72-.86,1.09-1.27,5.16-5.68,11.48-8.19,15-5.88a3.72,3.72,0,0,1,.46.33C171.4,27.1,170.47,34.13,166.13,40.68Z"/><path class="cls-58" d="M166.13,40.67c-.45.68-.94,1.35-1.46,2a27.86,27.86,0,0,1-4.49,4.53c-.19.16-.35.29-.53.42l-.35.27-.57.4a18.14,18.14,0,0,1-2.8,1.58,12.78,12.78,0,0,1-1.78.68,9,9,0,0,1-1.47.33,5.85,5.85,0,0,1-4.8-1.1,5.33,5.33,0,0,1-1.47-2.08,8,8,0,0,1-.53-2.67,23.38,23.38,0,0,1,2.89.23,24.45,24.45,0,0,1,4.23,1l.24.08c1.67.56,3.46,1.23,5.07.57a6.69,6.69,0,0,0,2.44-2.16c2.77-3.41,5.63-7,6.74-11.21a23.07,23.07,0,0,0,.11-9.58,3.71,3.71,0,0,1,.46.33C171.4,27.1,170.47,34.13,166.13,40.67Z"/><path class="cls-52" d="M155.94,49.89a12.78,12.78,0,0,1-1.78.68l-.56-.5a8.22,8.22,0,0,0-1.07-.82,8.31,8.31,0,0,0-2.73-1c-1.11-.23-2.24-.42-3.38-.56q-.56-.08-1.11-.12c-3-.28-6.12-.27-8.74-1.59.27-1.17.5-2.36.72-3.49,2.07.5,4.06,1.3,6.16,1.75,1.51.32,3.08.4,4.59.78l.76.23A30.1,30.1,0,0,1,152.63,47c.28.15.56.28.84.44a6.73,6.73,0,0,1,1.31.89A4.65,4.65,0,0,1,155.94,49.89Z"/><ellipse class="cls-59" cx="162.61" cy="29.25" rx="4.85" ry="3.9" transform="translate(37.04 136.63) rotate(-50.73)"/><ellipse class="cls-60" cx="162.41" cy="29.58" rx="4.42" ry="3.66" transform="translate(36.71 136.6) rotate(-50.73)"/><path class="cls-57" d="M151.23,31.41c.51-.63,1-1.23,1.49-1.9.81-1.17,1.52-2.17,3-2.44,1.33-.23,2.7,1.38,3.54,2.3a10.22,10.22,0,0,1,2.33,4.92,18.46,18.46,0,0,1,.32,3.64,10.63,10.63,0,0,1-.44,3.21c-.31,1-1.09,1.71-1.38,2.63Z"/><path class="cls-59" d="M160.19,47.23l-.53.42c1.85-5.24,2.67-10.24,1.15-16C162.89,36.67,162.05,42.34,160.19,47.23Z"/><path class="cls-59" d="M159.31,47.92c-.2.15-.39.29-.58.41a31.75,31.75,0,0,0-1-5.35c-.06-.24-.12-.49-.2-.71a25.09,25.09,0,0,0-6.3-10.79.32.32,0,0,1,.06-.09c.08-.09.15-.2.24-.29,2.46,1.94,4,5,5.46,7.75A20.16,20.16,0,0,1,159.31,47.92Z"/><path class="cls-59" d="M158.22,43.25c-.17-.09-.33-.2-.5-.27a18.74,18.74,0,0,0-11.46-1.65l.14-.55a19,19,0,0,1,11.12,1.49,9.15,9.15,0,0,1,.92.53C158.72,43,158.5,43.43,158.22,43.25Z"/><path class="cls-56" d="M159,47.36c-.26-1-1.94-1.92-2.88-2.25a11.23,11.23,0,0,0-2.87-.17l-1-.1a3.89,3.89,0,0,0-1.09,2.82c0,.17,1.65.22,2.23.51a8.26,8.26,0,0,1,2.15,2,1.54,1.54,0,0,0,1.89.24A3.24,3.24,0,0,0,159,47.36Z"/><path class="cls-53" d="M154.84,44.47l-.77,4.32-1.4-.42L138.15,44a3.1,3.1,0,0,1-1.78-1.65h0a3.16,3.16,0,0,1-.19-.57h0a3.07,3.07,0,0,1,.1-1.73c.55-1.54,1.55-3.88,3-3.57l.2.06,1.85,1.07Z"/><path class="cls-56" d="M166.84,39.54a2.59,2.59,0,0,1,.12-1.39,5.17,5.17,0,0,0,.51-1.51c0-.62-.34-1.18-.25-1.8s1.07-1,1.72-1.06.69.1.9.68a4.44,4.44,0,0,1,.24,1.55,2,2,0,0,1-.43,1.54A9.1,9.1,0,0,1,166.84,39.54Z"/><path class="cls-44" d="M163,87.94a8.28,8.28,0,0,1,0-1.29c.05-.8.11-6.82.07-7.39a8.24,8.24,0,0,1,.06-1.48l-2.2-.17c.34,3.16.86,10.22.89,10.42a5,5,0,0,0,.11.54,9.53,9.53,0,0,1,0,2.21.17.17,0,0,0,0,.12l0,0a.25.25,0,0,0,.17,0,2.08,2.08,0,0,0,1-2.37C163.12,88.33,163,88.14,163,87.94Z"/><path class="cls-61" d="M160.68,72.7s-1-.1-1.3,1.36.9,4.8,1,5.74c0,0,2.25.06,2.83-.67C163.24,79.14,162.79,72.64,160.68,72.7Z"/><path class="cls-44" d="M160.18,102.6c0-.56.11-1.63.12-2a57.54,57.54,0,0,1,1-6.33c.17-.75.54-2.78.64-3.54.13-.92-.38-3.33-.28-4.21H156.2a24.71,24.71,0,0,0,.83,3.85,37.25,37.25,0,0,1,.79,3.78v0c0,.37-.27.7-.29,1.07a42.34,42.34,0,0,0,.86,7s0,.29,0,.38c-.15.78-.59,1.24-.12,2.28a1.27,1.27,0,0,0,.56.52,4,4,0,0,1,2,.77,2,2,0,0,0,2.54-.27c.46-.82-2.42-1.46-3.12-2.91A2.13,2.13,0,0,1,160.18,102.6Z"/><path class="cls-62" d="M160.22,103a2.14,2.14,0,0,1,0-.41c0-.19,0-.44,0-.69a2.06,2.06,0,0,1-.53.18,3.85,3.85,0,0,1-1.35-.19l.06.34s0,.29,0,.38c-.15.78-.59,1.24-.12,2.28a1.27,1.27,0,0,0,.56.52,4,4,0,0,1,2,.77,2,2,0,0,0,2.54-.27C163.8,105.09,160.92,104.46,160.22,103Z"/><path class="cls-63" d="M161.32,104.14l.14.16c.21.21.53.38.6.69.15.6-.56.44-1,.41a2.94,2.94,0,0,1-1.86-.71,2.52,2.52,0,0,1-.64-.72,2.44,2.44,0,0,1-.31-.77,2,2,0,0,0,0,1.7,1.27,1.27,0,0,0,.56.52,4,4,0,0,1,2,.77,2,2,0,0,0,2.54-.27C163.66,105.35,162.37,104.86,161.32,104.14Z"/><path class="cls-56" d="M157.08,104c0-.56.15-1.63.18-2,.1-1.67.14-3.37.39-5a12.38,12.38,0,0,1,.17-1.39c.2-.74.39-1.49.52-2.24.16-.91.2-1.82.34-2.73s.27-1.77.4-2.65l-6-.13c.13,1.3,1.15,5.4,1.08,6.71a44.3,44.3,0,0,0,1,9.39c-.18.78-.67,1.22-.18,2.28a1.35,1.35,0,0,0,.6.53,1.51,1.51,0,0,1,.91.93,2,2,0,0,0,.43.65c.75.66,2.47.59,2.83,0,.52-.81-1.87-2.49-2.61-4A2,2,0,0,1,157.08,104Z"/><path class="cls-62" d="M157.11,104.45a2,2,0,0,1,0-.41c0-.34.08-.87.12-1.31a2.87,2.87,0,0,1-1.05.18,3.26,3.26,0,0,1-1-.15,1.23,1.23,0,0,1-.28-.18c.15.86.27,1.4.27,1.43-.18.78-.67,1.22-.18,2.28a1.35,1.35,0,0,0,.6.53,1.51,1.51,0,0,1,.91.93,2,2,0,0,0,.43.65c.75.66,2.47.59,2.83,0C160.24,107.59,157.85,105.91,157.11,104.45Z"/><path class="cls-63" d="M158.27,107.31c.46-.22.57-.59.22-1.08.8.88,1.54,1.68,1.23,2.17s-2.09.65-2.83,0a2,2,0,0,1-.43-.65,1.51,1.51,0,0,0-.91-.93,1.35,1.35,0,0,1-.6-.53,1.93,1.93,0,0,1,0-1.81,17.15,17.15,0,0,1,.78,1.65A2.12,2.12,0,0,0,158.27,107.31Z"/><path class="cls-60" d="M153.9,74.75c0-1.34,2.68-2.9,4-2.9.59,0,.71.18,1.5.44s.66,1.43.66,2.18c0,1.33-.19,7.43-1.53,7.43S153.9,76.08,153.9,74.75Z"/><path class="cls-64" d="M162.42,93.91c.09,2-8.52,3.17-10.42,1.77-1.59-6.26,2.16-19.3,1.21-20.89a5.89,5.89,0,0,1,2.21-2s1.16,2.33,3,1.92,1-2.4,1-2.4a2.06,2.06,0,0,1,1.51.62C162,75.43,162.24,90.25,162.42,93.91Z"/><path class="cls-50" d="M153.93,73.86a2,2,0,0,1,1.81,1.54,5.73,5.73,0,0,1-.08,2.55l-1,5.62c-.1.54-.2,1.08-.26,1.63a12,12,0,0,0,0,3,14.44,14.44,0,0,1,.36,3.48.39.39,0,0,1-.07.22s-.1.07-.14.12a.37.37,0,0,0,0,.25c0,.26,0,.58-.23.69a.45.45,0,0,1-.52-.18,1.31,1.31,0,0,1-.18-.57l-.43-2.73c-.12-.78-.24-1.56-.31-2.35-.27-3.46.65-6.88,1.05-10.32a3.9,3.9,0,0,1,.18-.91c.2-.55.68-1.05.58-1.63Z"/><path class="cls-60" d="M158.41,73.07a2.14,2.14,0,0,1-1.12-.08,1.71,1.71,0,0,1-.88-.67l0-1.85,2.28.21.09,1.73C158.68,72.7,158.75,73,158.41,73.07Z"/><path class="cls-56" d="M152.65,89.56a1,1,0,0,0,1.11-.45,57.44,57.44,0,0,1,.24-7c.35-2.19.58-3,.58-3l-2.75-1a41.67,41.67,0,0,0-.24,6.11A36.16,36.16,0,0,1,152.65,89.56Z"/><path class="cls-62" d="M154.06,73.87a2.42,2.42,0,0,1,1.44,1.83c.32,1.47-.92,4.8-1.06,5.74,0,0-2.52-.18-3.1-.92C151.35,80.53,152,73.81,154.06,73.87Z"/><path class="cls-56" d="M154.16,89.44c-.12-.29-.46-.59-.59-.57s-.23.21-.43.3-.49.22-.49.39c0,.51-.12,1-.1,1.53a3.69,3.69,0,0,0,.67,1.62.48.48,0,0,0,.12.15.17.17,0,0,0,.18,0c.08,0,.07-.16.06-.25.2.13.68.65.6.06a3.73,3.73,0,0,0-.46-.9.91.91,0,0,1,.15-1,1,1,0,0,1,.23.49,1.25,1.25,0,0,0,.09.39.31.31,0,0,0,.33.18C154.73,91.79,154.49,90.24,154.16,89.44Z"/><path class="cls-65" d="M160.57,62.93c3.09.14,3.37,3.12,3.43,3.67a14.5,14.5,0,0,0,.43,2.74,3.5,3.5,0,0,0,.48.92c.19.28.5.47.56.83.11.58-.54.84-1,.93a2.83,2.83,0,0,1-1.93-.5c-1-.67-1.08-2.37-1.16-3.46,0-.38-.07-.77-.12-1.16a2.93,2.93,0,0,0-.32-1.36c-.4-.56-1-1-1.2-1.69-.05-.22-.14-1,.23-1.06Z"/><path class="cls-56" d="M155.33,67.57c.13.81.68,3.17,1.27,3.61.83.61,2.77,1.58,3.86.85,1.46-1,1.7-3.62,1.7-6.21s-2-3.07-3.65-2S154.93,65,155.33,67.57Z"/><path class="cls-66" d="M159.79,65.82s1.26,1.86,2.32,1.16l.32-.12c.56-1.23-.2-3-1-3.91-1.06-1.33-2.65-1.41-4.24-1.22A3.91,3.91,0,0,0,154,64.28a5.42,5.42,0,0,0,1.61,5.62c.7.54-.25-1.6.79-1.5a.48.48,0,0,0,.37-.18C158.94,68.84,159.79,65.82,159.79,65.82Z"/><ellipse class="cls-56" cx="156.25" cy="68.32" rx="0.71" ry="1.19" transform="translate(-10.04 106.14) rotate(-36.43)"/><ellipse class="cls-56" cx="156.25" cy="68.32" rx="0.35" ry="0.59" transform="translate(-10.03 106.17) rotate(-36.44)"/><path class="cls-66" d="M154,65.07c-3.11.47-3.09,3.52-3.09,4.08A14.75,14.75,0,0,1,150.8,72a3.57,3.57,0,0,1-.39,1c-.16.31-.45.53-.48.9,0,.6.63.79,1.11.84a2.88,2.88,0,0,0,1.9-.71c1-.79.85-2.51.81-3.62,0-.39,0-.79,0-1.18a3,3,0,0,1,.18-1.42c.35-.61.94-1.11,1-1.84,0-.23,0-1-.35-1Z"/><path class="cls-67" d="M153.46,65.16c.42,0,.82.52.92.87a4,4,0,0,1,.05,1.07,1.57,1.57,0,0,0,0,.5c.13.25.34-.06.42-.23a2.12,2.12,0,0,0,.07-1.82,1.32,1.32,0,0,0-.63-.6A.69.69,0,0,0,153.46,65.16Z"/></g></g></svg>