<svg id="Layer_1" data-name="Layer 1" xmlns="http://www.w3.org/2000/svg" xmlns:xlink="http://www.w3.org/1999/xlink" viewBox="0 0 60 60"><defs><style>.cls-1{fill:none;}.cls-2{fill:#dcdcdc;}.cls-3{fill:#ebebeb;}.cls-4{fill:#6cbae5;}.cls-5{fill:#4799cf;}.cls-6{fill:#e6a63b;}.cls-7{fill:#fbb540;}.cls-8{fill:#aedee2;}.cls-9{fill:#b6e8ec;}.cls-10{fill:#002147;}.cls-11{fill:#dc4d41;}.cls-12{fill:#f55648;}.cls-13{fill:#cbcbcb;}.cls-14{fill:#fdc800;}.cls-15{clip-path:url(#clip-path);}</style><clipPath id="clip-path"><rect id="SVGID" class="cls-1" x="3.58" y="2.61" width="52.83" height="54.77"/></clipPath></defs><title>counselling-icon</title><path class="cls-2" d="M55.52,29.72v2.59A4.48,4.48,0,0,1,51,36.79H45.67a4.48,4.48,0,0,1-4.48-4.48q0-.23,0-.45a4.48,4.48,0,0,1,4.46-4h6.27V23.36l2.4,3a5.37,5.37,0,0,1,1.18,3.36Zm0,0"/><path class="cls-3" d="M55.52,29.72v1.7A4.48,4.48,0,0,1,51,35.9H45.67a4.48,4.48,0,0,1-4.46-4,4.48,4.48,0,0,1,4.46-4h6.27V23.36l2.4,3a5.37,5.37,0,0,1,1.18,3.36Zm0,0"/><path class="cls-4" d="M29.55,50.67A21.05,21.05,0,0,1,9.88,37.11l1.67-.64A19.26,19.26,0,0,0,46.35,39l1.56.88A21.09,21.09,0,0,1,29.55,50.67Zm0,0"/><path class="cls-5" d="M48.38,25.57a19.26,19.26,0,0,0-18.82-15.2,19.06,19.06,0,0,0-11.76,4A19.38,19.38,0,0,0,11,24.49L9.27,24A21.18,21.18,0,0,1,16.7,13,21,21,0,0,1,50.13,25.2Zm0,0"/><path class="cls-6" d="M40.3,45.75a10.75,10.75,0,0,1-21.49,0q0-.45,0-.9a10.75,10.75,0,0,1,21.42,0q0,.44,0,.9Zm0,0"/><path class="cls-7" d="M40.26,44.85c0,5.44-4.79,9.85-10.71,9.85s-10.71-4.41-10.71-9.85S23.64,35,29.55,35a11.2,11.2,0,0,1,7.57,2.89,9.47,9.47,0,0,1,3.14,7Zm0,0"/><path class="cls-8" d="M40.3,14.4a10.75,10.75,0,1,1-21.49,0q0-.45,0-.9a10.75,10.75,0,0,1,21.42,0q0,.44,0,.9Zm0,0"/><path class="cls-9" d="M40.26,13.51c0,5.44-4.79,9.85-10.71,9.85s-10.71-4.41-10.71-9.85,4.79-9.85,10.71-9.85a11.2,11.2,0,0,1,7.57,2.89,9.47,9.47,0,0,1,3.14,7Zm0,0"/><path class="cls-10" d="M34,43.06a4.48,4.48,0,1,1-4.48-4.48A4.48,4.48,0,0,1,34,43.06Zm0,0"/><path class="cls-11" d="M15.22,29.47a2,2,0,0,1-.87,1.63l-4.5,3-4.5-3a2,2,0,0,1-.87-1.63,2.48,2.48,0,0,1,0-.48A2.53,2.53,0,0,1,8.8,27.68l1,1,1-1A2.53,2.53,0,0,1,15.18,29a2.48,2.48,0,0,1,0,.48Zm0,0"/><path class="cls-12" d="M15.18,29a1.93,1.93,0,0,1-.19.51,2,2,0,0,1-.64.71l-4.5,3-4.5-3A2,2,0,0,1,4.52,29,2.53,2.53,0,0,1,8.8,27.68l1,1,1-1A2.53,2.53,0,0,1,15.18,29Zm0,0"/><path class="cls-10" d="M38.5,20.36a4.48,4.48,0,0,0-8.94.31v4.48a10.73,10.73,0,0,0,8.94-4.79Zm0,0"/><path class="cls-10" d="M35.69,16.51a2.69,2.69,0,1,0-3.32,0,4.48,4.48,0,0,0-2.82,4.16v2.69A10.73,10.73,0,0,0,38.19,19a4.49,4.49,0,0,0-2.49-2.5Zm0,0"/><path class="cls-10" d="M25.07,16.19a4.48,4.48,0,0,0-4.47,4.17,10.73,10.73,0,0,0,8.94,4.79V20.67a4.48,4.48,0,0,0-4.48-4.48Zm0,0"/><path class="cls-10" d="M26.74,16.51a2.69,2.69,0,1,0-3.32,0A4.49,4.49,0,0,0,20.92,19a10.73,10.73,0,0,0,8.63,4.35V20.67a4.48,4.48,0,0,0-2.82-4.16Zm0,0"/><rect class="cls-13" x="43.88" y="31.42" width="1.79" height="1.79"/><rect class="cls-13" x="47.46" y="31.42" width="1.79" height="1.79"/><rect class="cls-13" x="51.04" y="31.42" width="1.79" height="1.79"/><path class="cls-10" d="M36.72,52.91v.85a10.74,10.74,0,0,1-14.33,0v-.85a7.16,7.16,0,1,1,14.33,0Zm0,0"/><path class="cls-10" d="M29.55,54.7A10.7,10.7,0,0,0,36.66,52a7.16,7.16,0,0,0-14.21,0,10.7,10.7,0,0,0,7.11,2.69Zm0,0"/><path class="cls-14" d="M3.58,29.47a2.85,2.85,0,0,0,1.27,2.38l4.5,3a.9.9,0,0,0,1,0l4.5-3a2.85,2.85,0,0,0,1.27-2.38A3.43,3.43,0,0,0,10.27,27l-.42.42L9.44,27a3.43,3.43,0,0,0-5.85,2.42Zm5.64-.11a.9.9,0,0,0,1.27,0l1-1a1.64,1.64,0,0,1,2.79,1.16,1.06,1.06,0,0,1-.47.89L9.85,33l-4-2.67a1.06,1.06,0,0,1-.47-.89,1.64,1.64,0,0,1,2.79-1.16Zm0,0"/><rect class="cls-10" x="43.88" y="31.42" width="1.79" height="1.79"/><rect class="cls-10" x="47.46" y="31.42" width="1.79" height="1.79"/><rect class="cls-10" x="51.04" y="31.42" width="1.79" height="1.79"/><g class="cls-15"><path class="cls-14" d="M52.64,22.8a.9.9,0,0,0-1.59.56v3.58H45.67a5.37,5.37,0,1,0,0,10.75H51a5.38,5.38,0,0,0,5.37-5.37V29.72A6.29,6.29,0,0,0,55,25.8Zm2,9.51A3.59,3.59,0,0,1,51,35.9H45.67a3.58,3.58,0,1,1,0-7.16h6.27a.9.9,0,0,0,.9-.9V25.91l.81,1a4.49,4.49,0,0,1,1,2.8Zm0,0"/><path class="cls-14" d="M41.17,45a11.64,11.64,0,0,0-23.23,0,19.41,19.41,0,0,1-6.38-8.51l-1.67.64A21.21,21.21,0,0,0,18,47.22a11.64,11.64,0,0,0,23.09,0,21.18,21.18,0,0,0,6.81-7.3L46.35,39A19.39,19.39,0,0,1,41.17,45ZM23.28,53.34v-.43a6.26,6.26,0,0,1,3.66-5.7.9.9,0,0,0,.22-1.48,3.58,3.58,0,1,1,4.77,0,.89.89,0,0,0,.22,1.48,6.29,6.29,0,0,1,3.66,5.7v.43a9.85,9.85,0,0,1-12.54,0ZM37.5,51.57a8.1,8.1,0,0,0-3.55-5.41,5.37,5.37,0,1,0-8.78,0,8.06,8.06,0,0,0-3.55,5.41,9.85,9.85,0,1,1,15.89,0Zm0,0"/></g><path class="cls-14" d="M48.38,25.57l1.75-.38a21.15,21.15,0,0,0-9.2-13.28,11.64,11.64,0,0,0-22.75,0A21,21,0,0,0,9.27,24l1.73.48a19.18,19.18,0,0,1,6.92-10.2s0,.08,0,.12a11.64,11.64,0,1,0,23.28,0s0-.07,0-.11a19.35,19.35,0,0,1,7.18,11.28ZM21.54,20.12a3.6,3.6,0,0,1,2.21-2.78A.9.9,0,0,0,24,15.81a1.79,1.79,0,1,1,2.21,0,.9.9,0,0,0,.22,1.53,3.57,3.57,0,0,1,2.25,3.33v3.54a9.85,9.85,0,0,1-7.12-4.09Zm8.91,4.09V20.67a3.56,3.56,0,0,1,2.25-3.33.9.9,0,0,0,.22-1.54,1.79,1.79,0,1,1,2.21,0,.9.9,0,0,0,.22,1.53,3.6,3.6,0,0,1,2.21,2.78,9.85,9.85,0,0,1-7.12,4.09ZM38.71,18a5.43,5.43,0,0,0-1.61-1.78,3.58,3.58,0,1,0-6.13,0,5.35,5.35,0,0,0-1.41,1.44,5.33,5.33,0,0,0-1.41-1.44,3.58,3.58,0,1,0-6.13,0A5.43,5.43,0,0,0,20.4,18a9.85,9.85,0,1,1,18.31,0Zm0,0"/></svg>