<svg xmlns="http://www.w3.org/2000/svg" xmlns:xlink="http://www.w3.org/1999/xlink" viewBox="0 0 300 150"><defs><style>.cls-1{isolation:isolate;}.cls-2{fill:#fe3da6;}.cls-3{fill:#fff;}.cls-4{fill:#110239;}.cls-5{fill:#272c66;}.cls-6{fill:url(#linear-gradient);}.cls-7{fill:#cbcbcb;}.cls-8{fill:#00a1cc;opacity:0.65;}.cls-15,.cls-8{mix-blend-mode:multiply;}.cls-9{fill:#00bad1;}.cls-10{fill:#d3e9ff;}.cls-11{fill:#ffd451;}.cls-12{fill:#6cd3fe;}.cls-13{fill:#f88667;}.cls-14{fill:#e45940;}.cls-15{fill:#ca0045;opacity:0.32;}</style><linearGradient id="linear-gradient" x1="160.2" y1="57.26" x2="160.2" y2="142.84" gradientUnits="userSpaceOnUse"><stop offset="0" stop-color="#36c"/><stop offset="0.06" stop-color="#3869ce"/><stop offset="0.44" stop-color="#5578d9"/><stop offset="0.76" stop-color="#6781e0"/><stop offset="1" stop-color="#6d84e2"/></linearGradient></defs><title>daily-practice</title><g class="cls-1"><g id="Layer_1" data-name="Layer 1"><circle class="cls-2" cx="181.62" cy="48.91" r="27.55"/><circle class="cls-3" cx="181.62" cy="48.91" r="20.88"/><circle class="cls-2" cx="181.62" cy="48.91" r="14.91"/><circle class="cls-3" cx="181.62" cy="48.91" r="10.26"/><circle class="cls-2" cx="181.62" cy="48.91" r="4.74"/><path class="cls-2" d="M216.92,30.7c-.42-.47-1.7-2.14-4.55.44s-6,6-6,6,4.65-1.21,8.1-2.41C218.1,33.42,217.27,31.25,216.92,30.7Z"/><path class="cls-4" d="M212.9,31.81l-4.78,1.83a25.74,25.74,0,0,0-4.15,2L181.62,49.2,204.11,40a25.74,25.74,0,0,0,7-4.27l2.55-2.19A4.3,4.3,0,0,1,212.9,31.81Z"/><path class="cls-2" d="M205.7,37.09s.64-7.08,4.5-10.06,3,5.73,3,5.73Z"/><path class="cls-2" d="M205.7,37s6.45,3,11,1.13-3.44-5.5-3.44-5.5Z"/><rect class="cls-5" x="96.48" y="60.13" width="133.56" height="89.55" rx="3.1" ry="3.1"/><rect class="cls-6" x="102.63" y="66.07" width="115.14" height="76.76"/><circle class="cls-3" cx="223.47" cy="104.91" r="2.41"/><path class="cls-7" d="M192.39,76.46h-4.71v53.45h4.71a3.79,3.79,0,0,0,3.89-3.69V80.16A3.79,3.79,0,0,0,192.39,76.46Z"/><path class="cls-8" d="M196.27,89.89V80.16a3.79,3.79,0,0,0-3.89-3.69h-4.71V89.89Z"/><rect class="cls-3" x="123.06" y="76.3" width="69.52" height="56.28" rx="3.89" ry="3.89"/><path class="cls-9" d="M192.39,76.3H126.95a3.89,3.89,0,0,0-3.89,3.89v9.58h69.52V82.93a3.52,3.52,0,0,1,0-.49,1.85,1.85,0,0,1,3.63,0,3.51,3.51,0,0,1,0,.49V80.16A3.93,3.93,0,0,0,192.39,76.3Z"/><rect class="cls-10" x="123.06" y="88.52" width="69.52" height="1.25"/><rect class="cls-10" x="127.84" y="93.02" width="7.45" height="5.65"/><rect class="cls-10" x="138.34" y="93.02" width="7.45" height="5.65"/><rect class="cls-10" x="148.84" y="93.02" width="7.45" height="5.65"/><rect class="cls-10" x="159.34" y="93.02" width="7.45" height="5.65"/><rect class="cls-10" x="169.84" y="93.02" width="7.45" height="5.65"/><rect class="cls-10" x="180.34" y="93.02" width="7.45" height="5.65"/><rect class="cls-10" x="127.84" y="102.66" width="7.45" height="5.65"/><rect class="cls-10" x="138.34" y="102.66" width="7.45" height="5.65"/><rect class="cls-10" x="148.84" y="102.66" width="7.45" height="5.65"/><rect class="cls-10" x="159.34" y="102.66" width="7.45" height="5.65"/><rect class="cls-10" x="169.84" y="102.66" width="7.45" height="5.65"/><rect class="cls-10" x="180.34" y="102.66" width="7.45" height="5.65"/><rect class="cls-10" x="127.84" y="112.3" width="7.45" height="5.65"/><rect class="cls-10" x="138.34" y="112.3" width="7.45" height="5.65"/><rect class="cls-10" x="148.84" y="112.3" width="7.45" height="5.65"/><rect class="cls-10" x="159.34" y="112.3" width="7.45" height="5.65"/><rect class="cls-10" x="169.84" y="112.3" width="7.45" height="5.65"/><rect class="cls-10" x="180.34" y="112.3" width="7.45" height="5.65"/><rect class="cls-10" x="127.84" y="121.94" width="7.45" height="5.65"/><rect class="cls-10" x="138.34" y="121.94" width="7.45" height="5.65"/><rect class="cls-10" x="148.84" y="121.94" width="7.45" height="5.65"/><rect class="cls-10" x="159.34" y="121.94" width="7.45" height="5.65"/><polygon class="cls-11" points="131.56 93.52 132.14 95.29 134.01 95.29 132.5 96.39 133.07 98.16 131.56 97.07 130.05 98.16 130.63 96.39 129.12 95.29 130.99 95.29 131.56 93.52"/><polygon class="cls-11" points="131.56 103.26 132.14 105.04 134.01 105.04 132.5 106.13 133.07 107.91 131.56 106.81 130.05 107.91 130.63 106.13 129.12 105.04 130.99 105.04 131.56 103.26"/><polygon class="cls-11" points="142.06 93.52 142.64 95.29 144.51 95.29 143 96.39 143.57 98.16 142.06 97.07 140.56 98.16 141.13 96.39 139.62 95.29 141.49 95.29 142.06 93.52"/><polygon class="cls-11" points="152.57 93.52 153.14 95.29 155.01 95.29 153.5 96.39 154.07 98.16 152.57 97.07 151.06 98.16 151.63 96.39 150.12 95.29 151.99 95.29 152.57 93.52"/><polygon class="cls-11" points="152.57 103.16 153.14 104.93 155.01 104.93 153.5 106.03 154.07 107.8 152.57 106.7 151.06 107.8 151.63 106.03 150.12 104.93 151.99 104.93 152.57 103.16"/><polygon class="cls-11" points="163.07 93.52 163.64 95.29 165.51 95.29 164 96.39 164.58 98.16 163.07 97.07 161.56 98.16 162.13 96.39 160.62 95.29 162.49 95.29 163.07 93.52"/><polygon class="cls-11" points="163.07 103.16 163.64 104.93 165.51 104.93 164 106.03 164.58 107.8 163.07 106.7 161.56 107.8 162.13 106.03 160.62 104.93 162.49 104.93 163.07 103.16"/><polygon class="cls-11" points="173.57 93.52 174.14 95.29 176.01 95.29 174.5 96.39 175.08 98.16 173.57 97.07 172.06 98.16 172.63 96.39 171.13 95.29 172.99 95.29 173.57 93.52"/><polygon class="cls-11" points="142.06 112.92 142.64 114.69 144.51 114.69 143 115.79 143.57 117.56 142.06 116.46 140.56 117.56 141.13 115.79 139.62 114.69 141.49 114.69 142.06 112.92"/><polygon class="cls-11" points="142.06 122.44 142.64 124.21 144.51 124.21 143 125.31 143.57 127.08 142.06 125.98 140.56 127.08 141.13 125.31 139.62 124.21 141.49 124.21 142.06 122.44"/><polygon class="cls-11" points="163.07 112.8 163.64 114.57 165.51 114.57 164 115.67 164.58 117.44 163.07 116.34 161.56 117.44 162.13 115.67 160.62 114.57 162.49 114.57 163.07 112.8"/><polygon class="cls-11" points="173.57 112.8 174.14 114.57 176.01 114.57 174.5 115.67 175.08 117.44 173.57 116.34 172.06 117.44 172.63 115.67 171.13 114.57 172.99 114.57 173.57 112.8"/><circle class="cls-2" cx="196.27" cy="98.16" r="16.56"/><circle class="cls-3" cx="196.27" cy="98.16" r="12.01"/><path class="cls-12" d="M195.29,98.08c-.28,0-2.66-6.85-3.46-6.58-1.13.38-4.22,1.87-4.3,3.16S193.77,107,194.82,107c2.22,0,11.54-12.31,10.79-13.7s-4.27-3.32-4.8-2.79S195.53,98.08,195.29,98.08Z"/><path class="cls-9" d="M120.92,22.48s-3.67,13.24-5.48,15.4-7.7,5.36-7.7,5.36L109.3,46s10.72-5.46,12.58-9.93A33.76,33.76,0,0,0,124,29.22c.3-1.64,1.51-5.71.9-7.34C124.55,20.82,121.76,20.26,120.92,22.48Z"/><path class="cls-8" d="M120.92,22.48s-3.67,13.24-5.48,15.4-7.7,5.36-7.7,5.36L109.3,46s10.72-5.46,12.58-9.93A33.76,33.76,0,0,0,124,29.22c.3-1.64,1.51-5.71.9-7.34C124.55,20.82,121.76,20.26,120.92,22.48Z"/><path class="cls-4" d="M84.14,85.67l-2.71-2.53s-10.82-.8-11.45.15,10.26,6.09,11.66,6S84,86.72,84.14,85.67Z"/><path class="cls-13" d="M104,49.08s-10.23-2.6-11.07-.92-11.46,35-11.46,35l2.71,2.53s11.39-28.11,14.69-31S105.49,50.24,104,49.08Z"/><path class="cls-14" d="M104,49.08s-10.23-2.6-11.07-.92-11.46,35-11.46,35l2.71,2.53s11.39-28.11,14.69-31S105.49,50.24,104,49.08Z"/><path class="cls-13" d="M109.24,42.94a9.13,9.13,0,0,1-2.13-.85,2.83,2.83,0,0,0-1.81-.51c-.49.07-4.42,1.71-3.37,2.44.34.24,1.19-.18,1.53-.3s1-.41,1.43-.61c-.42,0-2.55.88-2.33,1.38.39.87,2.54-.29,3-.57-.38.06-1.71.56-1.71,1,0,.76,1.58.13,1.93,0a2.32,2.32,0,0,1,.72-.35,2.87,2.87,0,0,1,1,.17,5.65,5.65,0,0,0,1.68,0c.33,0,1.09,0,1.25-.24a1.21,1.21,0,0,0-.21-1.19A2.4,2.4,0,0,0,109.24,42.94Z"/><path class="cls-14" d="M109.24,42.94a9.13,9.13,0,0,1-2.13-.85,2.83,2.83,0,0,0-1.81-.51c-.49.07-4.42,1.71-3.37,2.44.34.24,1.19-.18,1.53-.3s1-.41,1.43-.61c-.42,0-2.55.88-2.33,1.38.39.87,2.54-.29,3-.57-.38.06-1.71.56-1.71,1,0,.76,1.58.13,1.93,0a2.32,2.32,0,0,1,.72-.35,2.87,2.87,0,0,1,1,.17,5.65,5.65,0,0,0,1.68,0c.33,0,1.09,0,1.25-.24a1.21,1.21,0,0,0-.21-1.19A2.4,2.4,0,0,0,109.24,42.94Z"/><polygon class="cls-4" points="91.52 25.26 89.11 26.25 97.38 46.19 99.81 44.88 91.52 25.26"/><rect class="cls-4" x="98.93" y="44.53" width="15.74" height="2.44"/><path class="cls-4" d="M142.5,33.16c-2.1-1.2-2.46-2.53-1.29-6.94A9.25,9.25,0,0,0,136.39,16c-2.16-.89-4-1.28-5.36-3.58s1.17-7.2-3-10.83c-3-2.64-7.37-.53-7.37-.53-.93-.52-1.32,4.93-1.39,9,5.26,8,3.76,18.56,1.84,27.57a4.16,4.16,0,0,1-.19.6c.41,7,.74,12.75.74,12.75s12.64,7.16,21.24,1S146.71,35.58,142.5,33.16Z"/><path class="cls-4" d="M105.33,84l-3.21,1.85s-3.93,10.11-3.21,11,8.83-8,9.15-9.39S106.27,84.5,105.33,84Z"/><path class="cls-13" d="M109.42,48.48S88.8,49.92,86.88,51.77s15.58,33.91,15.58,33.91L105.33,84S101,68.78,99.88,65.25,96.59,57.47,97,56.9s21.18,2.57,21-3.29S109.42,48.48,109.42,48.48Z"/><path class="cls-13" d="M119.59,13.7s2.17,5.9.84,10.29l7.22-1.75s-3-9.87-4.22-11.55S119.59,13.7,119.59,13.7Z"/><path class="cls-14" d="M122.6,19a3.6,3.6,0,0,1,3.7,3.58l1.35-.33s-3-9.87-4.22-11.55-3.85,3-3.85,3a24.32,24.32,0,0,1,1.21,5.72A3.8,3.8,0,0,1,122.6,19Z"/><path class="cls-13" d="M118.85,6S116,7.35,115.37,8.48s-.08,2.69-.14,3.73A15.85,15.85,0,0,0,115,15c.16.25,1.19,0,1.36.22s1.51,1.06,1.93,2,1,1,2,.56S125,12.4,125,10.09,121.62,5.06,118.85,6Z"/><path class="cls-4" d="M121.22,2.87a19.46,19.46,0,0,0-1.44,3.66c-.14,1,.86,4.11,1.44,4.51s.09-3.43,1.58-2.26-.09,3.39,0,3.84a2.76,2.76,0,0,0,2.3,2c1.53.14,4.06-7.49,2.39-9.39S123,2.87,121.22,2.87Z"/><path class="cls-4" d="M121.48,1.33a4.14,4.14,0,0,0-5,.23c-2.57,2.08-2.48,5.19-4.6,4.92,0,0,1.4,3.61,4.47,2.75S122.55,3.5,121.48,1.33Z"/><path class="cls-2" d="M129.88,42.14l-9.56-.72s-5,5.56-9.89,5.56H93.62s.91,7.67,5,13.22c0,0,16,.5,23.75-.14S137.5,50.83,129.88,42.14Z"/><path class="cls-15" d="M130.78,43.26c-.27-.37-.56-.75-.89-1.12l-9.56-.72s-4.84,5.4-9.7,5.54C116.48,47.56,127.67,48.85,130.78,43.26Z"/><path class="cls-15" d="M98.06,48.1c2.44-.24,4.8-.82,7.2-1.12H94.71C95.75,47.51,96.27,48.27,98.06,48.1Z"/><path class="cls-9" d="M126.74,18.91a40.74,40.74,0,0,1-5.88,1.89s-3.09,6.82-4.3,8.66,3.05,8.91,3.29,12c0,0,2.56,2.44,10.3.94C130.16,42.36,132.18,23.2,126.74,18.91Z"/><path class="cls-8" d="M127.91,23c-1.34-.62-3.68,0-4.33,1.36-.81,1.67,0,4.63-.08,6.43a35,35,0,0,1-.7,6.26,13,13,0,0,1-2.52,4.68c1,.6,3.87,1.8,9.88.64,0,0,1.23-11.68-.82-18.84C128.78,23.32,128.26,23.15,127.91,23Z"/><path class="cls-13" d="M110.75,42.94a9.13,9.13,0,0,1-2.13-.85,2.83,2.83,0,0,0-1.81-.51c-.49.07-4.42,1.71-3.37,2.44.34.24,1.19-.18,1.53-.3s1-.41,1.43-.61c-.42,0-2.55.88-2.33,1.38.39.87,2.54-.29,3-.57-.38.06-1.71.56-1.71,1,0,.76,1.58.13,1.93,0a2.32,2.32,0,0,1,.72-.35,2.87,2.87,0,0,1,1,.17,5.65,5.65,0,0,0,1.68,0c.33,0,1.09,0,1.25-.24a1.21,1.21,0,0,0-.21-1.19A2.4,2.4,0,0,0,110.75,42.94Z"/><path class="cls-9" d="M110.08,42.85l.84,3.17s20.7-2.41,21.18-6.08-.84-20.76-5.84-19-.06,14.17-.84,15.13S110.08,42.85,110.08,42.85Z"/></g></g></svg>