<svg id="Layer_1" data-name="Layer 1" xmlns="http://www.w3.org/2000/svg" viewBox="0 0 60 60"><defs><style>.cls-1{fill:#fdc800;}</style></defs><title>doubt-icon-01</title><path class="cls-1" d="M29.26,2.44c9.54,0,18.92,4.4,18.92,14.9,0,9.69-11.1,13.42-13.49,16.91-1.78,2.61-1.18,6.27-6.1,6.27a4.75,4.75,0,0,1-4.77-5c0-8.88,13-10.88,13-18.19,0-4-2.68-6.4-7.15-6.4-9.54,0-5.81,9.84-13,9.84-2.6,0-4.84-1.57-4.84-4.55,0-7.3,8.34-13.78,17.44-13.78Zm-.37,42.92a6.11,6.11,0,1,1-6.11,6.1,6.13,6.13,0,0,1,6.11-6.1Zm0,0"/></svg>