<svg xmlns="http://www.w3.org/2000/svg" viewBox="0 0 56 56"><title>email</title><path d="M53.17,46.65H2.83A1.67,1.67,0,0,1,1.17,45V11A1.67,1.67,0,0,1,2.83,9.35H53.17A1.67,1.67,0,0,1,54.83,11V45A1.67,1.67,0,0,1,53.17,46.65ZM4.5,43.31h47V12.69H4.5Z" style="fill:#fdc800"/><path d="M28,33.23a7.36,7.36,0,0,1-4.92-1.88L1.72,12.26A1.67,1.67,0,0,1,2.84,9.35H53.17a1.67,1.67,0,0,1,1.11,2.91L32.92,31.35A7.36,7.36,0,0,1,28,33.23ZM7.21,12.69l18.1,16.18a4,4,0,0,0,5.39,0h0l18.1-16.18Z" style="fill:#fdc800"/></svg>