<svg xmlns="http://www.w3.org/2000/svg" viewBox="0 0 150 150"><title>email</title><path d="M143.77,126H6.23a4.56,4.56,0,0,1-4.56-4.56V28.59A4.56,4.56,0,0,1,6.23,24H143.77a4.56,4.56,0,0,1,4.56,4.56v92.82A4.56,4.56,0,0,1,143.77,126Zm-133-9.12H139.22V33.15H10.78Z" style="fill:#fff"/><path d="M75,89.29a20.11,20.11,0,0,1-13.44-5.14L3.19,32a4.56,4.56,0,0,1,3-8H143.77a4.56,4.56,0,0,1,3,8L88.44,84.15A20.11,20.11,0,0,1,75,89.29ZM18.17,33.15,67.64,77.35a11,11,0,0,0,14.73,0h0l49.47-44.21Z" style="fill:#fff"/><path d="M143.77,125.34H6.23a4.56,4.56,0,0,1-3-8L54.42,71.6a4.56,4.56,0,1,1,6.08,6.8L18.17,116.22H131.83L89.51,78.4a4.56,4.56,0,1,1,6.08-6.8l51.23,45.78a4.56,4.56,0,0,1-3,8Z" style="fill:#fff"/></svg>