<svg xmlns="http://www.w3.org/2000/svg" xmlns:xlink="http://www.w3.org/1999/xlink" viewBox="0 0 72 72"><defs><clipPath id="a"><path d="M60,22.35a13,13,0,0,0-3.58,2c-.17.17-.84.56-1.12.78,0,0-5.76,3.58-6.26,3.91s-1.51,1-1.45,1.23-3,5.14-3,5.14a1.9,1.9,0,0,0-.06,2.24c.84,1.06,1.62.34,2,.11S50,34.6,50,34.6l2.84,6.77A15.61,15.61,0,0,1,61,38.9l-2.8-11s3.86-2.91,4-3.91S60.95,22.24,60,22.35Z" style="fill:#d44040"/></clipPath></defs><title>exams</title><path d="M57.15,52.26,26.62,60.86a1.59,1.59,0,0,1-1.74-.72L1.72,18.47A.91.91,0,0,1,2.3,17.1L32.83,8.5a1.59,1.59,0,0,1,1.74.72L57.73,50.89A.91.91,0,0,1,57.15,52.26Z" style="fill:#1a2e35;stroke:#000;stroke-miterlimit:10;stroke-width:0.20553425009971207px"/><path d="M26.19,59s17.64-4.2,29.52-8.31Z" style="fill:#9a4648"/><polygon points="55.71 50.72 26.19 59.03 3.36 17.94 32.88 9.63 55.71 50.72" style="fill:#fff;stroke:#1a2e35;stroke-miterlimit:10;stroke-width:0.20553425009971207px"/><line x1="24.13" y1="18.33" x2="26.43" y2="17.69" style="fill:#fff;stroke:#1a2e35;stroke-miterlimit:10;stroke-width:0.20553425009971207px"/><line x1="8.24" y1="22.81" x2="22.36" y2="18.83" style="fill:#fff;stroke:#1a2e35;stroke-miterlimit:10;stroke-width:0.20553425009971207px"/><line x1="21.62" y1="20.89" x2="27.31" y2="19.29" style="fill:#fff;stroke:#1a2e35;stroke-miterlimit:10;stroke-width:0.20553425009971207px"/><line x1="12.89" y1="23.34" x2="20.07" y2="21.33" style="fill:#fff;stroke:#1a2e35;stroke-miterlimit:10;stroke-width:0.20553425009971207px"/><line x1="9.12" y1="24.41" x2="11.56" y2="23.72" style="fill:#fff;stroke:#1a2e35;stroke-miterlimit:10;stroke-width:0.20553425009971207px"/><line x1="17.11" y1="24" x2="28.2" y2="20.88" style="fill:#fff;stroke:#1a2e35;stroke-miterlimit:10;stroke-width:0.20553425009971207px"/><line x1="10.01" y1="26" x2="14.67" y2="24.69" style="fill:#fff;stroke:#1a2e35;stroke-miterlimit:10;stroke-width:0.20553425009971207px"/><path d="M34.41,17.13a2.64,2.64,0,0,0-2.88-1.19,1.5,1.5,0,0,0-1,2.27,2.64,2.64,0,0,0,2.88,1.19A1.5,1.5,0,0,0,34.41,17.13Z" style="fill:#fff;stroke:#1a2e35;stroke-miterlimit:10;stroke-width:0.20553425009971207px"/><line x1="14.48" y1="29.28" x2="12.19" y2="29.93" style="fill:#fff;stroke:#1a2e35;stroke-miterlimit:10;stroke-width:0.20553425009971207px"/><line x1="30.38" y1="24.81" x2="16.26" y2="28.78" style="fill:#fff;stroke:#1a2e35;stroke-miterlimit:10;stroke-width:0.20553425009971207px"/><line x1="18.77" y1="29.92" x2="13.08" y2="31.52" style="fill:#fff;stroke:#1a2e35;stroke-miterlimit:10;stroke-width:0.20553425009971207px"/><line x1="27.5" y1="27.46" x2="20.32" y2="29.48" style="fill:#fff;stroke:#1a2e35;stroke-miterlimit:10;stroke-width:0.20553425009971207px"/><line x1="31.27" y1="26.4" x2="28.83" y2="27.09" style="fill:#fff;stroke:#1a2e35;stroke-miterlimit:10;stroke-width:0.20553425009971207px"/><line x1="25.06" y1="30" x2="13.96" y2="33.12" style="fill:#fff;stroke:#1a2e35;stroke-miterlimit:10;stroke-width:0.20553425009971207px"/><line x1="32.15" y1="28" x2="27.5" y2="29.31" style="fill:#fff;stroke:#1a2e35;stroke-miterlimit:10;stroke-width:0.20553425009971207px"/><path d="M38.37,24.25a2.64,2.64,0,0,0-2.88-1.19,1.5,1.5,0,0,0-1,2.27,2.64,2.64,0,0,0,2.88,1.19A1.5,1.5,0,0,0,38.37,24.25Z" style="fill:#fff;stroke:#1a2e35;stroke-miterlimit:10;stroke-width:0.20553425009971207px"/><line x1="32.04" y1="32.57" x2="34.33" y2="31.92" style="fill:#fff;stroke:#1a2e35;stroke-miterlimit:10;stroke-width:0.20553425009971207px"/><line x1="16.15" y1="37.04" x2="30.27" y2="33.07" style="fill:#fff;stroke:#1a2e35;stroke-miterlimit:10;stroke-width:0.20553425009971207px"/><line x1="29.53" y1="35.12" x2="35.22" y2="33.52" style="fill:#fff;stroke:#1a2e35;stroke-miterlimit:10;stroke-width:0.20553425009971207px"/><line x1="20.8" y1="37.58" x2="27.98" y2="35.56" style="fill:#fff;stroke:#1a2e35;stroke-miterlimit:10;stroke-width:0.20553425009971207px"/><line x1="17.03" y1="38.64" x2="19.47" y2="37.95" style="fill:#fff;stroke:#1a2e35;stroke-miterlimit:10;stroke-width:0.20553425009971207px"/><line x1="25.02" y1="38.24" x2="36.11" y2="35.11" style="fill:#fff;stroke:#1a2e35;stroke-miterlimit:10;stroke-width:0.20553425009971207px"/><line x1="17.92" y1="40.23" x2="22.58" y2="38.92" style="fill:#fff;stroke:#1a2e35;stroke-miterlimit:10;stroke-width:0.20553425009971207px"/><path d="M42.32,31.37a2.64,2.64,0,0,0-2.88-1.19,1.5,1.5,0,0,0-1,2.27,2.64,2.64,0,0,0,2.88,1.19A1.5,1.5,0,0,0,42.32,31.37Z" style="fill:#fff;stroke:#1a2e35;stroke-miterlimit:10;stroke-width:0.20553425009971207px"/><line x1="22.39" y1="43.51" x2="20.1" y2="44.16" style="fill:#fff;stroke:#1a2e35;stroke-miterlimit:10;stroke-width:0.20553425009971207px"/><line x1="38.29" y1="39.04" x2="24.17" y2="43.01" style="fill:#fff;stroke:#1a2e35;stroke-miterlimit:10;stroke-width:0.20553425009971207px"/><line x1="26.68" y1="44.15" x2="20.99" y2="45.75" style="fill:#fff;stroke:#1a2e35;stroke-miterlimit:10;stroke-width:0.20553425009971207px"/><line x1="35.41" y1="41.7" x2="28.23" y2="43.71" style="fill:#fff;stroke:#1a2e35;stroke-miterlimit:10;stroke-width:0.20553425009971207px"/><line x1="39.18" y1="40.63" x2="36.74" y2="41.32" style="fill:#fff;stroke:#1a2e35;stroke-miterlimit:10;stroke-width:0.20553425009971207px"/><line x1="32.96" y1="44.23" x2="21.87" y2="47.35" style="fill:#fff;stroke:#1a2e35;stroke-miterlimit:10;stroke-width:0.20553425009971207px"/><line x1="40.06" y1="42.23" x2="35.4" y2="43.54" style="fill:#fff;stroke:#1a2e35;stroke-miterlimit:10;stroke-width:0.20553425009971207px"/><path d="M46.27,38.48a2.64,2.64,0,0,0-2.88-1.19,1.5,1.5,0,0,0-1,2.27,2.64,2.64,0,0,0,2.88,1.19A1.5,1.5,0,0,0,46.27,38.48Z" style="fill:#fff;stroke:#1a2e35;stroke-miterlimit:10;stroke-width:0.20553425009971207px"/><line x1="39.95" y1="46.8" x2="42.24" y2="46.15" style="fill:#fff;stroke:#1a2e35;stroke-miterlimit:10;stroke-width:0.20553425009971207px"/><line x1="24.05" y1="51.27" x2="38.18" y2="47.3" style="fill:#fff;stroke:#1a2e35;stroke-miterlimit:10;stroke-width:0.20553425009971207px"/><line x1="37.44" y1="49.35" x2="43.13" y2="47.75" style="fill:#fff;stroke:#1a2e35;stroke-miterlimit:10;stroke-width:0.20553425009971207px"/><line x1="28.71" y1="51.81" x2="35.88" y2="49.79" style="fill:#fff;stroke:#1a2e35;stroke-miterlimit:10;stroke-width:0.20553425009971207px"/><line x1="24.94" y1="52.87" x2="27.38" y2="52.18" style="fill:#fff;stroke:#1a2e35;stroke-miterlimit:10;stroke-width:0.20553425009971207px"/><line x1="32.93" y1="52.47" x2="44.02" y2="49.35" style="fill:#fff;stroke:#1a2e35;stroke-miterlimit:10;stroke-width:0.20553425009971207px"/><line x1="25.83" y1="54.47" x2="30.49" y2="53.16" style="fill:#fff;stroke:#1a2e35;stroke-miterlimit:10;stroke-width:0.20553425009971207px"/><path d="M50.23,45.6a2.64,2.64,0,0,0-2.88-1.19,1.5,1.5,0,0,0-1,2.27,2.64,2.64,0,0,0,2.88,1.19A1.5,1.5,0,0,0,50.23,45.6Z" style="fill:#fff;stroke:#1a2e35;stroke-miterlimit:10;stroke-width:0.20553425009971207px"/><path d="M22.88,10.33,19,11.42c-.29,0-.62,0-.71-.16-.21-.38.06-.75.14-1.09A1.55,1.55,0,0,0,18.26,9a2.7,2.7,0,0,0-3-1.22,1.54,1.54,0,0,0-1,2.33,2.54,2.54,0,0,0,1.14,1s.79.35.95.64-.14.33-.36.46l-4.18,1.18a1,1,0,0,0-.64,1.51l.56,1,13.58-3.82-.56-1A1.75,1.75,0,0,0,22.88,10.33ZM16,9a.87.87,0,0,1,.95.39.49.49,0,0,1-.32.75.87.87,0,0,1-.95-.39A.49.49,0,0,1,16,9Z" style="fill:#d44040"/><polyline points="31.26 17.25 32.93 18.42 34.66 14.55" style="fill:#d44040"/><polyline points="35.15 24.26 36.83 25.43 38.55 21.56" style="fill:#d44040"/><path d="M62.62,23.3a2.52,2.52,0,0,0,.17-1.68c-.28-.73-5.42-1.9-5.42-1.9s-1.17,0-1.12.67,4.31,3.24,4.64,3.47S62.51,24.59,62.62,23.3Z" style="fill:#fff;stroke:#1a2e35;stroke-linecap:round;stroke-linejoin:round;stroke-width:0.20553425009971207px"/><path d="M57.79,18.78s-.49-.18-.93-.4,0,.8.22.84l.62.13Z" style="fill:#fff;stroke:#1a2e35;stroke-linecap:round;stroke-linejoin:round;stroke-width:0.20553425009971207px"/><path d="M42.44,28.73l-2.57,3.13.22.45,3.63-.89,25.59-14.9a2.22,2.22,0,0,0,.77-3.09h0A2.22,2.22,0,0,0,67,12.74Z" style="fill:#d44040"/><line x1="55.3" y1="22.92" x2="54.46" y2="23.46" style="fill:#fff;stroke:#1a2e35;stroke-linecap:round;stroke-linejoin:round;stroke-width:0.20553425009971207px"/><line x1="62.48" y1="18.3" x2="56.32" y2="22.27" style="fill:#fff;stroke:#1a2e35;stroke-linecap:round;stroke-linejoin:round;stroke-width:0.20553425009971207px"/><path d="M40.1,31.79s-.64.27-.54.53,1-.38,1-.38Z" style="fill:#af0;stroke:#1a2e35;stroke-linecap:round;stroke-linejoin:round;stroke-width:0.20553425009971207px"/><path d="M39.87,31.86l.22.45,3.63-.89a2,2,0,0,1-1.29-2.68Z" style="fill:#fff;stroke:#1a2e35;stroke-linecap:round;stroke-linejoin:round;stroke-width:0.20553425009971207px"/><path d="M70.08,13.42A2.22,2.22,0,0,0,67,12.74l-4.46,2.91a2.62,2.62,0,0,0-.18,1,2.5,2.5,0,0,0,2.44,2.54l4.53-2.64A2.22,2.22,0,0,0,70.08,13.42Z" style="fill:#fff;stroke:#1a2e35;stroke-linecap:round;stroke-linejoin:round;stroke-width:0.20553425009971207px"/><path d="M70.08,13.42A2.22,2.22,0,0,0,67,12.74L63.6,14.95A2.49,2.49,0,0,0,63.35,16a2.43,2.43,0,0,0,2.4,2.46h.17l3.39-2A2.22,2.22,0,0,0,70.08,13.42Z" style="fill:#1a2e35;stroke:#1a2e35;stroke-linecap:round;stroke-linejoin:round;stroke-width:0.20553425009971207px"/><path d="M55,19.81s-.5,0-.5.23-.13,1,.16,1,.26-.53.29-.7S55,19.81,55,19.81Z" style="fill:#fff;stroke:#1a2e35;stroke-linecap:round;stroke-linejoin:round;stroke-width:0.20553425009971207px"/><path d="M55.5,19s-.44-.14-.55.14-.2,1.57.1,1.54S55.43,19.47,55.5,19Z" style="fill:#fff;stroke:#1a2e35;stroke-linecap:round;stroke-linejoin:round;stroke-width:0.20553425009971207px"/><path d="M56.18,19.06s-.51-.44-.68-.07-.2,1.43,0,1.43.51-.44.58-.68A4.61,4.61,0,0,0,56.18,19.06Z" style="fill:#fff;stroke:#1a2e35;stroke-linecap:round;stroke-linejoin:round;stroke-width:0.20553425009971207px"/><path d="M56.9,19.26s-.65-.55-.75-.44-.51,1.15-.2,1.37.7-.73.7-.73Z" style="fill:#fff;stroke:#1a2e35;stroke-linecap:round;stroke-linejoin:round;stroke-width:0.20553425009971207px"/><path d="M47.52,22.5s.07,1.1.37,1.35a3.36,3.36,0,0,1,.48.51,7.63,7.63,0,0,1,.07.84c0,.33.22.29.4.29s.51.62.69.91a5.15,5.15,0,0,0,1.24,1.1c.33.18.88-.51.88-.51l.26.73L54.5,26l-1.28-2.49a6,6,0,0,0-.77-2.45c-.73-1.32-1.72-2-3.36-1.57S47.52,22.5,47.52,22.5Z" style="fill:#fff;stroke:#1a2e35;stroke-linecap:round;stroke-linejoin:round;stroke-width:0.20553425009971207px"/><path d="M50.52,17.63a6,6,0,0,0-1.79.36c-1,.34-1.2,1.67-2,2.15s-.48-.42-.9-.18-.84,2.33.06,2.93,2.21-.18,2.21-.18-.12.42.24.54a6.12,6.12,0,0,0,.66.18s-.06.72.48.66.06-.9.06-.9,1,2,1.79,2.21,1.91-.84,2.21-1.32.06-3.89-.6-5.2A2.72,2.72,0,0,0,50.52,17.63Z" style="fill:#1a2e35;stroke:#1a2e35;stroke-linecap:round;stroke-linejoin:round;stroke-width:0.20553425009971207px"/><path d="M49.53,24.48s-.37-1.39.22-1.21.91,1.43.88,1.57-.33.22-.48.18" style="fill:#fff;stroke:#1a2e35;stroke-linecap:round;stroke-linejoin:round;stroke-width:0.20553425009971207px"/><path d="M53.75,25a15.28,15.28,0,0,0-1.95,1.3,6.77,6.77,0,0,0-1.17,2.19s3.76-2.56,4.42-2.92a3.09,3.09,0,0,0,.8-.55A7.33,7.33,0,0,0,53.75,25Z" style="fill:#fff;stroke:#1a2e35;stroke-linecap:round;stroke-linejoin:round;stroke-width:0.20553425009971207px"/><path d="M58.82,22.74a2.31,2.31,0,0,1,1.51-1.12A2.26,2.26,0,0,1,63,23.3,1.43,1.43,0,0,1,61.67,25c-.56,0-1.06-.78-1.06-.78S58.82,23.58,58.82,22.74Z" style="fill:#fff;stroke:#1a2e35;stroke-linecap:round;stroke-linejoin:round;stroke-width:0.20553425009971207px"/><path d="M43.84,35.21l1.79-4.75a1.1,1.1,0,0,1-.73.28c-.45,0-1.51-.17-1.23-.34S45,29.51,45,29.51s-.78.17-1,0-.34-.39-.17-.45A5.12,5.12,0,0,0,45,28.84a4,4,0,0,1,1.4-.45c.5,0,1,.89,1,1.17s-.39,5.59-.39,5.81,0,.45-1.45.62S43.78,35.83,43.84,35.21Z" style="fill:#fff;stroke:#1a2e35;stroke-linecap:round;stroke-linejoin:round;stroke-width:0.20553425009971207px"/><line x1="45.63" y1="30.46" x2="45.89" y2="29.41" style="fill:#fff;stroke:#1a2e35;stroke-linecap:round;stroke-linejoin:round;stroke-width:0.20553425009971207px"/><path d="M45.57,34s-1.79.5-2.12,1.29A2.51,2.51,0,0,0,43.84,38c.67.67,1,.84,1.68.56a1.31,1.31,0,0,0,1-1.17A3.48,3.48,0,0,0,45.57,34Z" style="fill:#fff;stroke:#1a2e35;stroke-linecap:round;stroke-linejoin:round;stroke-width:0.20553425009971207px"/><path d="M44.84,57.74s-1.57-.73-2.18-.45-.62.56.17,1.79,3,2.74,3.69,2.4.06-2.57.06-2.57Z" style="fill:#fff;stroke:#1a2e35;stroke-linecap:round;stroke-linejoin:round;stroke-width:0.20553425009971207px"/><path d="M43.72,59.48a8.73,8.73,0,0,1-1.36-2c-.29.25-.16.63.46,1.61.78,1.23,3,2.74,3.69,2.4a.67.67,0,0,0,.32-.56C45.81,61.37,44.74,60.6,43.72,59.48Z" style="fill:#fff;stroke:#1a2e35;stroke-linecap:round;stroke-linejoin:round;stroke-width:0.20553425009971207px"/><path d="M52.89,40.63l.06,1.68a30.29,30.29,0,0,0-5.09,2.46c-1.68,1.17-2.8,2.07-3,3.19s-.06,9.78-.06,9.78-.5.11-.34.45.5,1.57,1,1.68,1,.34,1.12.06.45-2,.67-2.52.62-3.19,1-5a19.38,19.38,0,0,0,.34-3.13A18,18,0,0,0,52,48.41c2-.67,4.81-1.9,4.81-1.9s2.29,5.76,2.8,6.88,2.46,3.63,2.85,4.36,2.85,3.86,2.85,3.86,1-.84,1.57-.84h.84s-1-2.8-1.85-4.47-2.57-4.42-2.57-4.42-1.57-9.78-1.62-10.46a13.79,13.79,0,0,0-.94-3.24S58,37.62,52.89,40.63Z" style="fill:#1a2e35;stroke:#1a2e35;stroke-linecap:round;stroke-linejoin:round;stroke-width:0.20553425009971207px"/><path d="M65.31,61.6a7.32,7.32,0,0,0-.39.73c-.06.17-1.29.34-1.12.89s1.45,1,2.07,1.06a4.23,4.23,0,0,0,2.07-1,3,3,0,0,0,.22-1.68,1.73,1.73,0,0,0-.45-.84S66.65,59.14,65.31,61.6Z" style="fill:#fff;stroke:#1a2e35;stroke-linecap:round;stroke-linejoin:round;stroke-width:0.20553425009971207px"/><path d="M68.16,61.6a1.65,1.65,0,0,0-.38-.76,1.71,1.71,0,0,0-1.24.54c-.56.67-.28,2.18-1,2.4-.5.17-1.37-.44-1.79-.76a.32.32,0,0,0,0,.21c.17.56,1.45,1,2.07,1.06a4.23,4.23,0,0,0,2.07-1A3,3,0,0,0,68.16,61.6Z" style="fill:#fff;stroke:#1a2e35;stroke-linecap:round;stroke-linejoin:round;stroke-width:0.20553425009971207px"/><path d="M66.7,62c-.22,1,.06,1.68-.84,2.29a4.23,4.23,0,0,0,2.07-1,3,3,0,0,0,.22-1.68,1.33,1.33,0,0,0-.14-.4h-.09A1,1,0,0,0,66.7,62Z" style="fill:#1a2e35;stroke:#1a2e35;stroke-linecap:round;stroke-linejoin:round;stroke-width:0.20553425009971207px"/><line x1="57.37" y1="46.39" x2="60.67" y2="44.77" style="fill:none;stroke:#fff;stroke-linecap:round;stroke-linejoin:round;stroke-width:0.20553425009971207px"/><line x1="58.88" y1="45.67" x2="61.73" y2="45.28" style="fill:none;stroke:#fff;stroke-linecap:round;stroke-linejoin:round;stroke-width:0.20553425009971207px"/><path d="M60,22.35a13,13,0,0,0-3.58,2c-.17.17-.84.56-1.12.78,0,0-5.76,3.58-6.26,3.91s-1.51,1-1.45,1.23-3,5.14-3,5.14a1.9,1.9,0,0,0-.06,2.24c.84,1.06,1.62.34,2,.11S50,34.6,50,34.6l2.84,6.77A15.61,15.61,0,0,1,61,38.9l-2.8-11s3.86-2.91,4-3.91S60.95,22.24,60,22.35Z" style="fill:#d44040"/><g style="clip-path:url(#a)"><path d="M60,22.35a5.49,5.49,0,0,0-1.62.69.74.74,0,0,1,.75.31c.46.59-.53,2.51-.53,2.51s-.41-2.64-.4-1.85-.2,3.23-.2,3.23-1.32-1.58-1.25-1.19a54.37,54.37,0,0,0,1.45,5.47c.53,1.39-.4,5.28-.92,6.4s-.2-4.75-.79-3.3a39.18,39.18,0,0,1-3,5.87c-.44.38.15-5.38.31-6.13C53.56,35,52.19,39,52.19,39l-1.85-4.75s-3.17-2.57-2.84-2.11S48.63,34,48.63,34A11,11,0,0,0,47,33.78c.33.13,1.78.86,1.78.86A29.06,29.06,0,0,1,45,37a3.46,3.46,0,0,1-.71.13,1.66,1.66,0,0,0,.26.48c.84,1.06,1.62.34,2,.11S50,34.6,50,34.6l2.84,6.77A15.61,15.61,0,0,1,61,38.9l-2.8-11s3.86-2.91,4-3.91S60.95,22.24,60,22.35Z" style="fill:#d44040"/><path d="M60,22.35a5.49,5.49,0,0,0-1.62.69.74.74,0,0,1,.75.31c.46.59-.53,2.51-.53,2.51s-.41-2.64-.4-1.85-.2,3.23-.2,3.23-1.32-1.58-1.25-1.19a54.37,54.37,0,0,0,1.45,5.47c.53,1.39-.4,5.28-.92,6.4s-.2-4.75-.79-3.3a39.18,39.18,0,0,1-3,5.87c-.44.38.15-5.38.31-6.13C53.56,35,52.19,39,52.19,39l-1.85-4.75s-3.17-2.57-2.84-2.11S48.63,34,48.63,34A11,11,0,0,0,47,33.78c.33.13,1.78.86,1.78.86A29.06,29.06,0,0,1,45,37a3.46,3.46,0,0,1-.71.13,1.66,1.66,0,0,0,.26.48c.84,1.06,1.62.34,2,.11S50,34.6,50,34.6l2.84,6.77A15.61,15.61,0,0,1,61,38.9l-2.8-11s3.86-2.91,4-3.91S60.95,22.24,60,22.35Z" style="fill:#d44040;opacity:0.5"/></g><path d="M52.88,41.37a14.66,14.66,0,0,1,.24-4.61" style="fill:#fff;stroke:#1a2e35;stroke-linecap:round;stroke-linejoin:round;stroke-width:0.20553425009971207px"/><path d="M52.35,37.94A14.6,14.6,0,0,1,53.41,34" style="fill:#fff;stroke:#1a2e35;stroke-linecap:round;stroke-linejoin:round;stroke-width:0.20553425009971207px"/><polyline points="47.86 32.14 50.04 34.6 47.81 32.98" style="fill:#fff;stroke:#1a2e35;stroke-linecap:round;stroke-linejoin:round;stroke-width:0.20553425009971207px"/><polyline points="58.21 24.81 58.21 27.94 58.93 23.92" style="fill:#d44040"/><path d="M53.78,34.3l0,.07C53.78,34.3,53.79,34.27,53.78,34.3Z" style="fill:#1a2e35"/></svg>