<svg id="Layer_1" data-name="Layer 1" xmlns="http://www.w3.org/2000/svg" xmlns:xlink="http://www.w3.org/1999/xlink" viewBox="0 0 300 150"><defs><style>.cls-1{fill:none;}.cls-2{fill:#062c3f;}.cls-3{fill:#4396ca;}.cls-4{fill:#3287b2;}.cls-5{clip-path:url(#clip-path);}.cls-6{fill:#1958db;}.cls-7{fill:#ff645f;}.cls-8{fill:#f79792;}.cls-9{fill:#fca89e;}.cls-10{fill:#fda8a1;}.cls-11{fill:#cdeefc;}.cls-12{fill:#e6f9ff;}.cls-13{opacity:0.19;}.cls-14{fill:#fff;}.cls-15{fill:#ffb9b6;}</style><clipPath id="clip-path"><path class="cls-1" d="M142.35,109.16H110.08c-5.64,0-10.21-4-10.21-9V15.6c0-4.95,4.57-9,10.21-9h32.28c5.64,0,10.21,4,10.21,9v84.61C152.57,105.16,148,109.16,142.35,109.16Z"/></clipPath></defs><title>guaranteed-results</title><path class="cls-2" d="M148.15,118.44H104.53a10.06,10.06,0,0,1-9.84-10.27v-97A10.06,10.06,0,0,1,104.53.87h43.61A10.06,10.06,0,0,1,158,11.14v97A10.06,10.06,0,0,1,148.15,118.44Z"/><path class="cls-3" d="M142.35,109.16H110.08c-5.64,0-10.21-4-10.21-9V15.6c0-4.95,4.57-9,10.21-9h32.28c5.64,0,10.21,4,10.21,9v84.61C152.57,105.16,148,109.16,142.35,109.16Z"/><path class="cls-4" d="M136.58,113.38a2,2,0,0,1-2,2H120.23a2,2,0,0,1-2-2h0a2,2,0,0,1,2-2h14.39a2,2,0,0,1,2,2Z"/><g class="cls-5"><rect class="cls-6" x="95.12" y="52.35" width="61.66" height="59.02" rx="16.99" ry="16.99"/><path class="cls-7" d="M125.82,12.73c-1.49-.54-7.33-3.66-12.35-1.49s-5.16,4.88-5.29,8.14-4.07,5.29-5.83,9.5a13.14,13.14,0,0,0,3.12,14c3.93,3.8,3.26,8,3.26,11.4s8.89,7,9.67-1.66,2-16.93,2.27-19.1c.15-1.18,8.15-8.59,9.5-13.84C131.3,15.23,125.82,12.73,125.82,12.73Z"/><path class="cls-7" d="M125.82,12.73c1.49-.54,7.7-3.66,12.72-1.49s5.16,4.88,5.29,8.14,4.07,5.29,5.83,9.5a13.14,13.14,0,0,1-3.12,14c-3.93,3.8-3.26,8-3.26,11.4s-8.89,7-9.67-1.66-3.19-17.06-3.46-19.23S125.82,12.73,125.82,12.73Z"/><path class="cls-8" d="M118.52,44.39l-.13,8.2s.41,5.4,7.82,5.32,7.4-5.32,7.4-5.32l-1.18-9.64Z"/><path class="cls-9" d="M120.47,47c7.08,5.67,11.82,1.67,16.68-6,5.77-9.1,5.81-18.09-1.28-23.76a16.43,16.43,0,0,0-23.09,2.56C107.1,26.88,113.38,41.32,120.47,47Z"/><path class="cls-7" d="M109.54,32.27c.42.61,5.63-1.83,9.9-6.11,5.16-5.16,6-9.09,6.51-9.09s2.11,4.52,4.75,8c3.8,5,11.8,7.6,11.8,7.6a11.32,11.32,0,0,0-.54-8.82c-2.31-4.61-7.46-9.9-11.53-10.45a45.92,45.92,0,0,0-9.5-.27c-3.26.14-11.53,5.83-12.35,9.23S109.54,32.27,109.54,32.27Z"/></g><path class="cls-10" d="M83.61,127.45c-3-6.24-7-41.32-3.84-47.28C81,77.75,91.47,55.53,94.35,55.53c1.74,0-1,26.95,1.74,26.38,1.64-.34.6-17.85,2.52-22.17,3-6.69,10.56-7.44,11,4.08.31,7.36-2.55,31.29-2.79,34.06-1.39,16-1.25,28.91-1.25,28.91Z"/><circle class="cls-8" cx="104.12" cy="61.57" r="3.45"/><path class="cls-11" d="M83.12,126.46h22.48v20.36a2.3,2.3,0,0,1-2.3,2.3H85.41a2.3,2.3,0,0,1-2.3-2.3Z"/><path class="cls-12" d="M82.46,123.18h23.13v10.5H82.46a2.79,2.79,0,0,1-2.79-2.79V126A2.79,2.79,0,0,1,82.46,123.18Z"/><g class="cls-13"><path class="cls-14" d="M140.32,49a3,3,0,0,1-3,3h0a3,3,0,0,1-3-3V15a3,3,0,0,1,3-3h0a3,3,0,0,1,3,3Z"/></g><g class="cls-13"><path class="cls-14" d="M149.58,27.2a3,3,0,0,1-3,3h0a3,3,0,0,1-3-3V15a3,3,0,0,1,3-3h0a3,3,0,0,1,3,3Z"/></g><path class="cls-10" d="M213.05,124.13c-.48-4.32,2.88-40,2.88-44.79S206,46.54,207,38.39s-6.72-8.16-9.6-1-1.92,23.51-1.92,27.35-32-5-33.27,14.24c-.57,8.53-.37,26.43,2.56,34.23,1,2.56,3.23,2.27,6.72,5.12A73.78,73.78,0,0,1,183,130.2Z"/><path class="cls-11" d="M83.12,126.46h22.48v20.36a2.3,2.3,0,0,1-2.3,2.3H85.41a2.3,2.3,0,0,1-2.3-2.3Z"/><path class="cls-12" d="M82.46,123.18h23.13v10.5H82.46a2.79,2.79,0,0,1-2.79-2.79V126A2.79,2.79,0,0,1,82.46,123.18Z"/><path class="cls-11" d="M215.29,126.68l-27.83,3.52,3.06,16.63a2.59,2.59,0,0,0,2.81,2.3h25.23a2.59,2.59,0,0,0,2.81-2.3Z"/><path class="cls-12" d="M212.74,115.9l-32.23,12,3.89,10.4,32.23-12.05c2.15-.8,3.42-2.69,2.85-4.21l-1.82-4.87C217.08,115.68,214.88,115.09,212.74,115.9Z"/><path class="cls-15" d="M179.78,66.22c-8.94-.53-17.56,1.82-17.57,6,0,6.77,12.77,4.85,16.61,4.85s16.64,1.92,16-5.44S185.22,66.54,179.78,66.22Z"/><path class="cls-15" d="M181.56,79.34c-10.74-.53-20.33-1-20.95,5.39-.67,6.87,15.18,5.49,19.79,5.49s20,1.92,19.21-5.44S188.09,79.66,181.56,79.34Z"/><path class="cls-15" d="M181,93.41c-10.14-.53-18.63,1.24-19.4,5.39-1.6,8.64,14,5.49,18.31,5.49s18.86,1.92,18.14-5.44S187.13,93.73,181,93.41Z"/><path class="cls-15" d="M180.35,108.45c-7.65-.45-17.79-1.88-16.86,4.43.53,3.56,12.76,4.88,16,4.88s14.24,1.64,13.69-4.65S185,108.72,180.35,108.45Z"/><circle class="cls-8" cx="188.58" cy="71.17" r="3.45"/><circle class="cls-8" cx="192.58" cy="85.1" r="3.45"/><circle class="cls-8" cx="190.66" cy="99.81" r="3.45"/><circle class="cls-8" cx="187.78" cy="112.93" r="3.45"/><ellipse class="cls-8" cx="204.22" cy="39.03" rx="2.93" ry="3.45"/><polygon class="cls-14" points="123.58 29.25 135.36 36.05 123.58 42.84 123.58 29.25"/></svg>