<svg xmlns="http://www.w3.org/2000/svg" viewBox="0 0 56 56"><title>headphone</title><path d="M43.07,32.64V54.18a7.09,7.09,0,0,0,6.18-3.77,1.43,1.43,0,0,0,.75.22h.3A1.51,1.51,0,0,0,51.5,50a2.1,2.1,0,0,0,.4-1.26V28.2h-.8a.78.78,0,0,1-.78-.79c0-.09,0-.17,0-.26a22.34,22.34,0,0,0-44.67,0c0,.09,0,.17,0,.26a.78.78,0,0,1-.78.79h-.8V48.75A2.08,2.08,0,0,0,4.49,50a1.51,1.51,0,0,0,1.2.63H6a1.43,1.43,0,0,0,.7-.19,7.1,7.1,0,0,0,6.16,3.73V32.64A7.08,7.08,0,0,0,7.6,35.08V29a1.5,1.5,0,0,0,1.2-1.34V27.3a19.18,19.18,0,1,1,38.36,0v.16h0A1.51,1.51,0,0,0,48.39,29v6.2A7.07,7.07,0,0,0,43.07,32.64Z" style="fill:#fdc800"/><path d="M51.11,28.2h1.51a.78.78,0,0,0,.78-.76c0-.09,0-.19,0-.28a25.4,25.4,0,1,0-50.8,0c0,.1,0,.19,0,.28a.78.78,0,0,0,.78.76H4.89a.78.78,0,0,0,.78-.79c0-.09,0-.17,0-.26a22.34,22.34,0,0,1,44.67,0c0,.09,0,.17,0,.26A.78.78,0,0,0,51.11,28.2Z" style="fill:#fdc800"/><path d="M1.23,44.76A2.59,2.59,0,0,0,3.8,47.35V39.48a2.59,2.59,0,0,0-2.56,2.59Z" style="fill:#fdc800"/><path d="M52.2,47.35a2.59,2.59,0,0,0,2.56-2.59V42.07a2.59,2.59,0,0,0-2.56-2.59Z" style="fill:#fdc800"/><path d="M13.32,32.64V54.25h2.61a.74.74,0,0,0,.74-.74V33.38a.74.74,0,0,0-.74-.74Z" style="fill:#fdc800"/><path d="M39.22,33.38V53.51a.74.74,0,0,0,.74.74h2.61V32.64H40A.74.74,0,0,0,39.22,33.38Z" style="fill:#fdc800"/></svg>