<svg xmlns="http://www.w3.org/2000/svg" viewBox="0 0 72 72"><title>headphone</title><path d="M55.29,41.94V69.5a9.07,9.07,0,0,0,7.9-4.82,1.82,1.82,0,0,0,1,.28h.38a1.94,1.94,0,0,0,1.54-.81,2.69,2.69,0,0,0,.52-1.61V36.25h-1a1,1,0,0,1-1-1c0-.11,0-.22,0-.33a28.58,28.58,0,0,0-57.16,0c0,.11,0,.22,0,.33a1,1,0,0,1-1,1h-1V62.55a2.66,2.66,0,0,0,.51,1.61A1.94,1.94,0,0,0,7.46,65h.38a1.83,1.83,0,0,0,.9-.24,9.08,9.08,0,0,0,7.89,4.77V41.94A9.06,9.06,0,0,0,9.9,45.06V37.22a1.93,1.93,0,0,0,1.54-1.72l0-.09v-.3a24.54,24.54,0,1,1,49.08,0v.21h0a1.93,1.93,0,0,0,1.56,1.9v7.93A9,9,0,0,0,55.29,41.94Z" style="fill:#fff"/><path d="M65.57,36.25H67.5a1,1,0,0,0,1-1c0-.12,0-.24,0-.36a32.5,32.5,0,1,0-65,0c0,.12,0,.24,0,.36a1,1,0,0,0,1,1H6.42a1,1,0,0,0,1-1c0-.11,0-.22,0-.33a28.58,28.58,0,0,1,57.16,0c0,.11,0,.22,0,.33A1,1,0,0,0,65.57,36.25Z" style="fill:#fff"/><path d="M1.75,57.44A3.32,3.32,0,0,0,5,60.76V50.68A3.32,3.32,0,0,0,1.75,54Z" style="fill:#fff"/><path d="M67,60.76a3.32,3.32,0,0,0,3.28-3.31V54A3.32,3.32,0,0,0,67,50.68Z" style="fill:#fff"/><path d="M17.21,41.94V69.59h3.34a1,1,0,0,0,.95-.94V42.88a.94.94,0,0,0-.95-.94Z" style="fill:#fff"/><path d="M50.35,42.88V68.64a.94.94,0,0,0,.94.94h3.34V41.94H51.3A.94.94,0,0,0,50.35,42.88Z" style="fill:#fff"/></svg>