<svg xmlns="http://www.w3.org/2000/svg" viewBox="0 0 72 72"><title>hire-a-tuor</title><g style="isolation:isolate"><path d="M30.07,19.76a14.71,14.71,0,0,1-4.72,2.71,1.43,1.43,0,0,1-1.61-.63C23,19.95,20.64,15.2,20.65,15S22,11,22,11c.75,1.35,3.68,7.79,3.68,7.79.17,0,5.17-1.13,5.69-.79C31.26,18.48,30.23,19.15,30.07,19.76Z" style="fill:#fff"/><path d="M24.94,22.61a1.6,1.6,0,0,1-1.27-.72v0c-.42-1.14-1.46-3.31-2.22-4.9A13.11,13.11,0,0,1,20.57,15s0,0,1.35-4.1a.08.08,0,0,1,.15,0c.7,1.27,3.36,7.09,3.66,7.74l.13,0c3.36-.7,5.23-1,5.55-.74a.08.08,0,0,1,0,.08,2.3,2.3,0,0,1-.63.88,2.66,2.66,0,0,0-.67.92.08.08,0,0,1,0,0,14.67,14.67,0,0,1-4.75,2.72A1.55,1.55,0,0,1,24.94,22.61Zm-1.13-.81a1.34,1.34,0,0,0,1.52.59A14.63,14.63,0,0,0,30,19.71a2.86,2.86,0,0,1,.7-1,2.7,2.7,0,0,0,.57-.74c-.25-.07-1.27-.08-5.38.78l-.2,0a.08.08,0,0,1-.09,0c0-.06-2.74-6-3.59-7.62-.39,1.17-1.21,3.67-1.28,3.89s.44,1,.86,1.85C22.35,18.48,23.39,20.65,23.81,21.8Z"/><path d="M15,58a7.24,7.24,0,0,0,2,2.8,4.46,4.46,0,0,0,3,1.34c.86-.33.81-1,.48-2a8,8,0,0,0-2.77-2.77s-1.32-1.13-1.32-1.19S15,58,15,58Z" style="fill:#ff264a"/><path d="M19.89,62.19A4.94,4.94,0,0,1,17,60.82,7.36,7.36,0,0,1,15,58a.08.08,0,0,1,0-.08C16.45,56,16.46,56,16.53,56a.08.08,0,0,1,0,0c.08.09.83.76,1.3,1.16A8,8,0,0,1,20.68,60c.31.9.45,1.77-.52,2.14ZM15.13,58a7.18,7.18,0,0,0,2,2.72c1.23,1,2.21,1.43,3,1.32.78-.3.74-1,.41-1.92a7.83,7.83,0,0,0-2.74-2.73c-.83-.72-1.15-1-1.28-1.14C16.31,56.46,15.61,57.35,15.13,58Z" style="fill:#1a1a1a"/><path d="M21.25,46.38a83.52,83.52,0,0,1-4.52,10s2.35,2,1.38,2.78c-1.43,1.1-3.26-2.35-3.26-2.35l2.72-9.49Z" style="fill:#ffbb7d"/><path d="M17.51,59.41l-.24,0c-1.24-.27-2.44-2.49-2.49-2.58a.08.08,0,0,1,0-.06l2.72-9.49a.08.08,0,0,1,.06-.06l3.68-.89a.08.08,0,0,1,.08,0,.08.08,0,0,1,0,.08,84.1,84.1,0,0,1-4.49,9.91c.28.25,1.62,1.5,1.6,2.35a.64.64,0,0,1-.26.51A1.06,1.06,0,0,1,17.51,59.41Zm-2.57-2.66c.14.26,1.26,2.23,2.36,2.47a.89.89,0,0,0,.77-.17.48.48,0,0,0,.2-.39c0-.85-1.57-2.25-1.59-2.27a.08.08,0,0,1,0-.1,86.12,86.12,0,0,0,4.47-9.8l-3.49.84Z"/><path d="M13.21,59.74l0,.14c-.41,0-.93,1.38-.75,2.43.59,1.56,0,2.79.22,4.55A3.06,3.06,0,0,0,14,69.28c1.44.86,2.49,1,2.66-.2a5.89,5.89,0,0,0-.38-2.91l-.69-3.38Z" style="fill:#ff264a"/><path d="M15.8,70A3.93,3.93,0,0,1,14,69.35a3.12,3.12,0,0,1-1.42-2.48,9.1,9.1,0,0,1,0-2,5.45,5.45,0,0,0-.21-2.51A3.34,3.34,0,0,1,12.83,60a.55.55,0,0,1,.28-.21l0-.09a.08.08,0,0,1,.06-.05.08.08,0,0,1,.08,0l2.4,3.05,0,0,.69,3.38a6,6,0,0,1,.38,2.94,1,1,0,0,1-.52.85A1,1,0,0,1,15.8,70ZM13.24,59.9a.08.08,0,0,1-.07.05.35.35,0,0,0-.22.15,3.21,3.21,0,0,0-.46,2.18,5.55,5.55,0,0,1,.22,2.57,9,9,0,0,0,0,2,3,3,0,0,0,1.34,2.37c1,.59,1.7.79,2.11.59a.88.88,0,0,0,.43-.73,5.87,5.87,0,0,0-.37-2.88l-.68-3.37Z" style="fill:#1a1a1a"/><path d="M15.25,66.45c-2,.24-2.28-2.16-2.29-4.3,0-.64,0-1.25,0-1.77,1.74-4.37-1.33-8.29.77-12.09l-.27-1.56-.72-4.16,5-.6.9,4.61L19,49.33C18.47,53,16,57.12,15.51,61,15.41,62.85,16.42,66.3,15.25,66.45Z" style="fill:#ffbb7d"/><path d="M15,66.54a1.58,1.58,0,0,1-1.08-.39c-.91-.8-1-2.67-1-4,0-.54,0-1.06,0-1.52v-.27a11.22,11.22,0,0,0,.27-6.05c-.3-2.09-.58-4.06.49-6l-1-5.69a.08.08,0,0,1,.07-.09l5-.6a.08.08,0,0,1,.09.06l.9,4.61.32,2.75a.08.08,0,0,1,0,0,28.36,28.36,0,0,1-1.69,5.54A28.53,28.53,0,0,0,15.59,61a14.31,14.31,0,0,0,.15,2.2c.19,1.63.37,3.17-.48,3.28ZM13.07,60.4v.23c0,.46,0,1,0,1.52,0,1.31.12,3.13,1,3.88a1.5,1.5,0,0,0,1.22.33c.69-.08.51-1.62.34-3.1A14.35,14.35,0,0,1,15.43,61a28.63,28.63,0,0,1,1.83-6.21,28.31,28.31,0,0,0,1.68-5.5l-.32-2.73-.88-4.53-4.87.58,1,5.63a.08.08,0,0,1,0,.05c-1.07,1.93-.78,3.88-.49,5.95A11.36,11.36,0,0,1,13.07,60.4Z"/><path d="M15.79,49c-2.33,1.85-.27,9.6-2.83,13.18,0-.64,0-1.25,0-1.77,1.74-4.37-1.33-8.29.77-12.09l-.27-1.56C14.51,47.71,15.79,49,15.79,49Z" style="fill:#ffbb7d;opacity:0.75;mix-blend-mode:multiply"/><path d="M22.78,35c.16,5.38-1.4,6.13-1.26,9.88a3.39,3.39,0,0,1-.1.92,4.72,4.72,0,0,1-2.29,3.13,2.13,2.13,0,0,1-.34.12,9.52,9.52,0,0,1-3.11,0,3.08,3.08,0,0,1-2.32-1.87c0-4-3-6.8-3.32-12.09a7.86,7.86,0,0,1,1.83-5.95l1.77,0,8.77-.14Z" style="fill:#50a4d9"/><path d="M17.13,49.21a6.63,6.63,0,0,1-1.46-.14,3.15,3.15,0,0,1-2.37-1.91.08.08,0,0,1,0,0,13.43,13.43,0,0,0-1.46-5.37A19.52,19.52,0,0,1,10,35a7.9,7.9,0,0,1,1.85-6l.06,0,10.53-.17a.09.09,0,0,1,.08.08l.38,6a17.87,17.87,0,0,1-.72,5.91,12,12,0,0,0-.55,4,3.46,3.46,0,0,1-.1.94A4.84,4.84,0,0,1,19.16,49a2.23,2.23,0,0,1-.35.12A14.55,14.55,0,0,1,17.13,49.21Zm-3.68-2.11a3,3,0,0,0,2.25,1.81,9.33,9.33,0,0,0,3.09,0l.31-.11a4.67,4.67,0,0,0,2.25-3.08,3.3,3.3,0,0,0,.09-.9,12.13,12.13,0,0,1,.55-4A17.72,17.72,0,0,0,22.7,35l-.37-6-10.42.17A7.76,7.76,0,0,0,10.12,35,19.12,19.12,0,0,0,12,41.69,13.58,13.58,0,0,1,13.45,47.11Z"/><path d="M21.71,24.38a11.27,11.27,0,0,0,.7,4.55,2.92,2.92,0,0,1-2.66,2.59,14.56,14.56,0,0,1-2,.24c-2.81.13-5.1-.68-6.3-2.26,1.34-1.38,1.32-3.49.46-5.43a11.31,11.31,0,0,1-1.35-3.51,11.17,11.17,0,0,1,.17-5.42A10.12,10.12,0,0,1,16,11.83l4.65-1.76c1.38.2,2.5,2.69,2.13,4.55.19,2.89,1.6,4.09,1.64,5.88,0,1.45-.93,2.38-2.62,2.51,0,.23-.06.46-.08.68S21.72,24.15,21.71,24.38Z" style="fill:#ff264a"/><path d="M17.2,31.84c-2.58,0-4.67-.83-5.8-2.3a.08.08,0,0,1,0-.11c1.21-1.24,1.38-3.24.45-5.34a11.42,11.42,0,0,1-1.35-3.53,11.22,11.22,0,0,1,.17-5.46l0,0A10.19,10.19,0,0,1,16,11.75L20.65,10h0a2.15,2.15,0,0,1,1.38,1,5.05,5.05,0,0,1,.82,3.65,9.87,9.87,0,0,0,1,3.56,6,6,0,0,1,.67,2.32c0,1.47-1,2.43-2.62,2.59,0,.24-.05.43-.07.62s0,.47,0,.67a11.24,11.24,0,0,0,.69,4.52.08.08,0,0,1,0,0,3,3,0,0,1-2.72,2.65,14.68,14.68,0,0,1-2,.24ZM11.57,29.5C12.76,31,15,31.8,17.76,31.67a14.52,14.52,0,0,0,2-.23,2.83,2.83,0,0,0,2.59-2.5,11.4,11.4,0,0,1-.7-4.56c0-.2,0-.43,0-.68s0-.42.08-.69a.08.08,0,0,1,.07-.07c1.64-.13,2.57-1,2.54-2.43a5.92,5.92,0,0,0-.65-2.26,10,10,0,0,1-1-3.62.08.08,0,0,1,0,0,5,5,0,0,0-.79-3.54,2,2,0,0,0-1.25-.92l-4.63,1.75a10,10,0,0,0-5.24,3.27,11.07,11.07,0,0,0-.16,5.36A11.29,11.29,0,0,0,12,24C12.95,26.16,12.78,28.2,11.57,29.5Z" style="fill:#1a1a1a"/><path d="M15.79,49l-.11,0a3.09,3.09,0,0,1-2.32-1.87c0-4-3-6.8-3.32-12.09a8.07,8.07,0,0,1,1.46-5.49l0-.05c1.21,1.58,3.49,2.39,6.3,2.26.08.3.18.6.28.92a12.67,12.67,0,0,1-3-.72C10.52,35.73,13,44.05,15.79,49Z" style="fill:#3c89ba;opacity:0.75;mix-blend-mode:multiply"/><path d="M21.83,23c0,.23-.06.46-.08.68s0,.45,0,.68c-4.3,1.85-4.84,4.13-3.95,7.37-2.81.13-5.1-.68-6.3-2.26,1.34-1.38,1.32-3.49.46-5.43a11.31,11.31,0,0,1-1.35-3.51L13.45,19c.48,7.39,6.3,7,6.06,2.69A3.49,3.49,0,0,0,21.83,23Z" style="fill:#a81931;opacity:0.75;mix-blend-mode:multiply"/><path d="M13.94,12.66a7.33,7.33,0,0,0,.95-3.29l3.69.3,0,2.63c.6,1.67.49,2.85.59,5.84C17.83,16.55,14.14,14,13.94,12.66Z" style="fill:#ffbb7d"/><path d="M19.12,18.22a.08.08,0,0,1-.06,0,20.77,20.77,0,0,0-2.18-2.1c-1.42-1.25-2.88-2.54-3-3.42a.08.08,0,0,1,0-.05,7.24,7.24,0,0,0,.94-3.26.08.08,0,0,1,.09-.07l3.69.3a.08.08,0,0,1,.07.08l0,2.62a12.29,12.29,0,0,1,.55,4.32c0,.46,0,1,0,1.53a.08.08,0,0,1-.05.08ZM14,12.67c.15.82,1.58,2.08,3,3.3A24.56,24.56,0,0,1,19,17.91c0-.48,0-.91,0-1.3a12.14,12.14,0,0,0-.54-4.28.08.08,0,0,1,0,0l0-2.56L15,9.45A7.32,7.32,0,0,1,14,12.67Z"/><path d="M21.42,45.77a4.72,4.72,0,0,1-2.29,3.13,5.31,5.31,0,0,0,.25-1.08c.35-2.63-.75-5-.28-6.48A8.76,8.76,0,0,0,19.87,44,5.48,5.48,0,0,0,21.42,45.77Z" style="fill:#3c89ba;opacity:0.75;mix-blend-mode:multiply"/><polygon points="19.6 13.08 20.42 12.5 19.27 10.6 17.62 10.07 18.51 17.29 14.43 11.61 12.84 13.27 14.33 15.99 15.81 15.14 15.36 16.72 19.6 19.73 20.63 13.75 19.6 13.08" style="fill:#fff"/><path d="M19.6,19.81h0l-4.24-3a.08.08,0,0,1,0-.09l.39-1.39-1.3.75h-.06a.08.08,0,0,1,0,0l-1.49-2.72a.08.08,0,0,1,0-.09l1.59-1.66a.08.08,0,0,1,.06,0,.08.08,0,0,1,.06,0L18.39,17l-.85-6.91a.08.08,0,0,1,.1-.09l1.65.53,0,0,1.15,1.9a.08.08,0,0,1,0,.11l-.72.51.93.61a.08.08,0,0,1,0,.08l-1,6a.08.08,0,0,1,0,.06Zm-4.14-3.12,4.09,2.9,1-5.8-1-.64a.08.08,0,0,1,0-.13l.76-.53-1.09-1.81-1.5-.49.87,7.1a.08.08,0,0,1-.15.06l-4-5.61-1.48,1.55,1.42,2.6,1.4-.81a.08.08,0,0,1,.12.09Z"/><path d="M21.25,35.81a.49.49,0,0,1-.57-.08c-.45-.47-.92-.84-1.53-.63a1.12,1.12,0,0,0-.05.77l0,.07a11.66,11.66,0,0,0,1.07,2.39.26.26,0,0,1-.06.32.36.36,0,0,1-.42,0c0,.24-.29.33-.5.11l-.31-.34c0,.28-.37.2-.47,0l-.59-.73a5.53,5.53,0,0,1-1-1.39l-.12-.23a8.23,8.23,0,0,1-.41-2.61c.2-.72.85-.83,1.69-.44l1,.52a13.49,13.49,0,0,1,2.4,1.92C21.45,35.58,21.38,35.73,21.25,35.81Z" style="fill:#ffbb7d"/><path d="M19.47,39a.45.45,0,0,1-.33-.15l-.22-.25a.24.24,0,0,1-.16.11.41.41,0,0,1-.41-.22l-.58-.72a5.55,5.55,0,0,1-1-1.4l0-.09-.07-.14a8.35,8.35,0,0,1-.42-2.65v0a.93.93,0,0,1,.5-.64A1.59,1.59,0,0,1,18,33l1,.52a6.2,6.2,0,0,1,1.53,1.15c.27.25.54.5.89.78v0a.26.26,0,0,1,0,.21.39.39,0,0,1-.19.25.57.57,0,0,1-.67-.08c-.48-.5-.9-.79-1.42-.63a1.09,1.09,0,0,0,0,.69l0,.07a11.71,11.71,0,0,0,1.07,2.37.35.35,0,0,1-.08.42.42.42,0,0,1-.4.07.28.28,0,0,1-.15.17A.35.35,0,0,1,19.47,39Zm-.58-.63a.08.08,0,0,1,.06,0l.31.34a.26.26,0,0,0,.28.08.12.12,0,0,0,.07-.13.08.08,0,0,1,.12-.08.28.28,0,0,0,.32,0,.19.19,0,0,0,0-.23A11.37,11.37,0,0,1,19,36l0-.07a1.2,1.2,0,0,1,.06-.83l0,0c.65-.22,1.16.18,1.62.65a.41.41,0,0,0,.47.06.24.24,0,0,0,.12-.14.1.1,0,0,0,0-.07c-.35-.28-.63-.55-.89-.78a6.08,6.08,0,0,0-1.49-1.12l-1-.52A1.44,1.44,0,0,0,16.76,33a.77.77,0,0,0-.41.52A8.19,8.19,0,0,0,16.76,36l.07.13,0,.09a5.42,5.42,0,0,0,1,1.37l.6.74a.26.26,0,0,0,.24.15s.07,0,.08-.11a.08.08,0,0,1,.06-.07Z"/><path d="M20.12,38.64a.36.36,0,0,1-.42,0c0,.24-.29.33-.5.11l-.31-.34c0,.28-.37.2-.47,0l-.59-.73a5.53,5.53,0,0,1-1-1.39,1.74,1.74,0,0,0,1.49-.21C18.73,37.1,19.51,38.46,20.12,38.64Z" style="fill:#ffbb7d;opacity:0.75;mix-blend-mode:multiply"/><path d="M21.24,35.81a.49.49,0,0,1-.57-.08c-.45-.47-.92-.84-1.53-.63a1.12,1.12,0,0,0-.05.77l-.25-1.06C19.95,34.55,20.72,35.6,21.24,35.81Z" style="fill:#ffbb7d;opacity:0.75;mix-blend-mode:multiply"/><path d="M10.75,15.13c-1.36,3.21.08,6.88.47,10.8a30.6,30.6,0,0,0,5,8.54,1.7,1.7,0,0,1,2-1.32L14.52,25.4c0-2.4-.37-4.05-.51-7.38a4.05,4.05,0,0,0-1.33-2.86C11.4,14.1,10.75,15.13,10.75,15.13Z" style="fill:#fff"/><path d="M16.25,34.56a.08.08,0,0,1-.06,0,30.77,30.77,0,0,1-5-8.56c-.12-1.14-.31-2.26-.51-3.33-.48-2.69-.94-5.22,0-7.53h0a1.14,1.14,0,0,1,.74-.48,1.69,1.69,0,0,1,1.32.48A4.09,4.09,0,0,1,14.1,18c.07,1.66.18,2.93.28,4s.2,2.13.22,3.32l3.76,7.74a.08.08,0,0,1-.09.11,1.39,1.39,0,0,0-1.12.15,1.87,1.87,0,0,0-.82,1.12.08.08,0,0,1-.06.06ZM10.82,15.17c-1,2.26-.5,4.78,0,7.44.19,1.08.39,2.19.5,3.32a30.4,30.4,0,0,0,4.92,8.37,2,2,0,0,1,.84-1.06,1.56,1.56,0,0,1,1.08-.2l-3.69-7.61a.08.08,0,0,1,0,0c0-1.19-.12-2.18-.22-3.33S14,19.69,13.94,18a4,4,0,0,0-1.3-2.8,1.54,1.54,0,0,0-1.19-.44A1,1,0,0,0,10.82,15.17Z"/><polygon points="37.74 16.96 37.74 24.91 28.51 30.25 28.51 22.29 37.74 16.96" style="fill:#fff"/><path d="M28.51,30.33h0a.08.08,0,0,1,0-.07v-8a.08.08,0,0,1,0-.07l9.23-5.33a.08.08,0,0,1,.12.07v8a.08.08,0,0,1,0,.07l-9.23,5.33Zm.08-8v7.77l9.07-5.24V17.1Z"/><path d="M30.78,23.94a.51.51,0,0,0-.27.48v.35l-.49.28v-.32a1.44,1.44,0,0,1,.77-1.28c.51-.29.77-.14.77.38,0,1-1,2-1,2.57a.33.33,0,0,0,0,.07l1-.57v.47l-1.5.87v-.41c0-1,1-1.73,1-2.68C31,23.87,30.95,23.85,30.78,23.94Z" style="fill:#ff264a"/><path d="M32.82,23.8l.63-.37v.37l-.63.37v.65l-.37.21v-.65l-.63.37v-.37l.63-.37v-.64l.37-.21Z" style="fill:#ff264a"/><path d="M34.52,21.78a.51.51,0,0,0-.27.48v.35l-.49.28v-.32a1.44,1.44,0,0,1,.77-1.28c.51-.29.77-.14.77.38,0,1-1,2-1,2.57a.33.33,0,0,0,0,.07l1-.57v.47l-1.5.87v-.41c0-1,1-1.73,1-2.68C34.79,21.71,34.69,21.69,34.52,21.78Z" style="fill:#ff264a"/><path d="M37.15,20.92v.37l-1.54.89v-.37Zm0,.77V22l-1.54.89v-.37Z" style="fill:#ff264a"/><path d="M30.07,19.76c-.15-1.11.27-1.83,1.3-1.8a5.08,5.08,0,0,1,2.79.51l.56,1-.05,1.22c0,.34-.35.53-.34.27l0,.37c-.08.56-.4.49-.54.36-.08.44-.48.59-.64.26-.07.64-.6.59-.67.1l-.26-1.82-.74.38-1-.7Z" style="fill:#ffbb7d"/><path d="M32.78,22.49c-.2,0-.37-.18-.41-.44l-.25-1.71-.64.32a.08.08,0,0,1-.08,0l-1-.69L30,19.84a.08.08,0,0,1-.06-.07,1.83,1.83,0,0,1,.31-1.5,1.32,1.32,0,0,1,1.07-.39,5.18,5.18,0,0,1,2.82.52l0,0,.56,1a.08.08,0,0,1,0,0l-.05,1.22a.52.52,0,0,1-.24.44.22.22,0,0,1-.11,0v.17c0,.28-.14.45-.29.51a.35.35,0,0,1-.28,0,.53.53,0,0,1-.4.39.32.32,0,0,1-.25-.07c-.08.26-.25.37-.38.37Zm-.59-2.36h0a.08.08,0,0,1,0,.06L32.53,22c0,.21.15.31.25.31s.23-.11.26-.4a.08.08,0,0,1,.15,0,.2.2,0,0,0,.2.13c.11,0,.25-.14.29-.37a.08.08,0,0,1,.05-.06.08.08,0,0,1,.08,0,.23.23,0,0,0,.22.06c.09,0,.16-.17.19-.37l0-.36a.08.08,0,0,1,.09-.08.08.08,0,0,1,.08.08.11.11,0,0,0,0,0l.06,0a.39.39,0,0,0,.12-.28l0-1.2-.54-.93A5,5,0,0,0,31.38,18a1.17,1.17,0,0,0-1,.34,1.65,1.65,0,0,0-.28,1.32l.34.11h0l.95.67.7-.35Z"/><path d="M17.86,5.42c2.29.25,2.72,2.48,3.57,3.79C24.81,7.14,22.44,3.06,17.86,5.42Z"/><path d="M16.26,10.2c.26,2.18.94,5.43,2,5,.76-.3,1.2-3,1.49-4.61Z" style="fill:#ffbb7d;opacity:0.75;mix-blend-mode:multiply"/><path d="M14.81,10c-2.07-3.47-1-6.49,1.81-7.15A4.07,4.07,0,0,1,21.78,7.1c.09,2.85-.63,4.88-1.71,5.05a3.42,3.42,0,0,1-2.85-.68Z" style="fill:#ffbb7d"/><path d="M19.36,12.29a3.3,3.3,0,0,1-2.19-.76.08.08,0,1,1,.11-.12,3.36,3.36,0,0,0,2.78.66c1.06-.17,1.73-2.21,1.64-5a4.36,4.36,0,0,0-1.56-3.47A4,4,0,0,0,16.64,3a3.5,3.5,0,0,0-2.53,2,5.67,5.67,0,0,0,.76,5,.08.08,0,1,1-.14.08A5.74,5.74,0,0,1,14,4.94,3.66,3.66,0,0,1,16.6,2.81a4.2,4.2,0,0,1,3.64.7A4.52,4.52,0,0,1,21.86,7.1c.09,2.88-.62,4.94-1.78,5.13A4.53,4.53,0,0,1,19.36,12.29Z"/><path d="M15.36,11.27c.57-1.64.32-.94.39-1.41l.13-.9.81.35c1.66.09,2-2.83,5.07-2.46C22,4.08,20,2.54,17.42,2.57,12,3,11.76,8.24,15.36,11.27Z"/><path d="M16.68,9.21c-.56-1.2-1.79-.47-1.37.51a3.48,3.48,0,0,0,.49.66.59.59,0,0,0,.52.21Z" style="fill:#ffbb7d"/><path d="M16.23,10.68a.7.7,0,0,1-.5-.24,3.59,3.59,0,0,1-.5-.68.87.87,0,0,1,.38-1.19c.35-.16.85,0,1.14.61a.08.08,0,1,1-.15.07c-.27-.58-.67-.64-.93-.53a.71.71,0,0,0-.29,1,3.41,3.41,0,0,0,.47.64.51.51,0,0,0,.44.18.08.08,0,0,1,.09.06.08.08,0,0,1-.06.09Z"/><path d="M51.7,61.92a1.86,1.86,0,0,0,1.33.92c1,.25,2.71,1.48,3.38,1.48,1.12,0,.87-1,.67-1.9L55,61.22l-1.6-.1C52.34,61,51.49,61.66,51.7,61.92Z"/><path d="M57.34,56.81a7.36,7.36,0,0,0,4.27,1.63l-.32-2.71-.17-1.41A16.2,16.2,0,0,0,56,52.67a4,4,0,0,0-1.17,0c-1.09.22-1.61,1-1.3,2.51l.2,1.08.74,4.53,0,.11a1.9,1.9,0,0,0,2.6,1.51,18.42,18.42,0,0,0,.3-5.23C57.36,57,57.35,56.87,57.34,56.81Zm-.11-.1.09.08C57.31,57,57.33,57.64,57.23,56.71Z" style="fill:#50a4d9"/><path d="M56.44,62.71a2.26,2.26,0,0,1-1.08-.3,1.67,1.67,0,0,1-1-1.46l0-.09-.74-4.53-.2-1.1a2.47,2.47,0,0,1,.2-1.88,1.74,1.74,0,0,1,1.17-.71,4.1,4.1,0,0,1,1.2,0,16.25,16.25,0,0,1,5.15,1.66.08.08,0,0,1,0,.06l.48,4.11a.08.08,0,0,1,0,.06.08.08,0,0,1-.06,0A7.6,7.6,0,0,1,57.44,57l0,.22a18.68,18.68,0,0,1-.3,5.26.08.08,0,0,1,0,.05A1.29,1.29,0,0,1,56.44,62.71Zm-.91-10a3.36,3.36,0,0,0-.69.06,1.59,1.59,0,0,0-1.06.64,2.34,2.34,0,0,0-.17,1.78l.2,1.09.76,4.64a1.53,1.53,0,0,0,.88,1.33,1.71,1.71,0,0,0,1.58.14,18.55,18.55,0,0,0,.29-5.14h0c-.08,0-.09-.05-.14-.55a.08.08,0,0,1,0-.08.08.08,0,0,1,.09,0l.09.08h0a7.27,7.27,0,0,0,4.12,1.6l-.47-4A16,16,0,0,0,56,52.75Z"/><path d="M58.47,69.18a6.54,6.54,0,0,1-4.56-11.92,6.45,6.45,0,0,1,2.66-1,6.54,6.54,0,0,1,1.9,12.93Z" style="fill:#ffcd4d"/><path d="M57.52,69.33A6.62,6.62,0,0,1,53.87,57.2a6.62,6.62,0,0,1,7.6.21,6.62,6.62,0,0,1-3,11.86A6.64,6.64,0,0,1,57.52,69.33Zm0-13.07a6.53,6.53,0,0,0-1,.07,6.34,6.34,0,0,0-2.63,1,6.46,6.46,0,0,0,4.5,11.77,6.46,6.46,0,0,0-.92-12.84Z" style="fill:#1a1a1a"/><path d="M62.24,60.45a4,4,0,0,1-3.68,1.82,8.81,8.81,0,0,1-2.41-.19,15.91,15.91,0,0,0-2.48-.71c-.22.83-.2,1.77-.37,2.63a9.69,9.69,0,0,1-.53,1.89,4.1,4.1,0,0,1-.48.76,6.54,6.54,0,0,1,1.61-9.38,17.43,17.43,0,0,0,4.23.11c1.3,0,2.6-.18,3.73.64A1.66,1.66,0,0,1,62.24,60.45Z" style="fill:#ffcd4d;mix-blend-mode:multiply"/><polygon points="57.03 43.75 57.63 46.63 61.34 45.19 60.52 42.59 57.03 43.75" style="fill:#ffbb7d"/><path d="M57.63,46.71h0a.08.08,0,0,1,0-.05L57,43.76a.08.08,0,0,1,.05-.09l3.49-1.16h.06a.08.08,0,0,1,0,0l.82,2.6a.08.08,0,0,1,0,.1L57.66,46.7Zm-.5-2.91.56,2.72,3.55-1.38-.77-2.45Z"/><path d="M47,65.62c-.77-.68.07-1.63,1-1.57l2.11.12L52,65.38v1.31c0,.44-.27.67-.91.64a2.72,2.72,0,0,1-1.67-.79A3.91,3.91,0,0,1,47,65.62Z"/><path d="M62.78,54.14c-.09-.3-.19-.6-.3-.9l-6.4,2.34-.69.25-.27-.1c-.52-.19-1.07-.36-1.59-.5A13.24,13.24,0,0,0,51,54.72a2.66,2.66,0,0,0-1.09.28,1.58,1.58,0,0,0-1,1.85l.29,7.52a1.62,1.62,0,0,0,.38,1.18,1.87,1.87,0,0,0,2.46.4c.35-3.29.91-4.6.32-6.83a12.67,12.67,0,0,0,2.08,1.24l.17.07c1.7.83,5.76,2.57,8.25-1.81C63.56,57.46,63.32,55.87,62.78,54.14Z" style="fill:#50a4d9"/><path d="M51.16,66.33H51a2.16,2.16,0,0,1-1.48-.73,1.71,1.71,0,0,1-.39-1.24l-.29-7.51a1.64,1.64,0,0,1,1-1.93A2.74,2.74,0,0,1,51,54.64a13.22,13.22,0,0,1,2.51.51c.55.15,1.1.33,1.6.51l.2.07,0,0,7.06-2.59h.06a.08.08,0,0,1,0,0c.12.34.22.64.3.91.66,2.12.69,3.52.1,4.54-1.75,3.07-4.56,3.7-8.36,1.85l-.17-.07a9.45,9.45,0,0,1-1.68-1l-.24-.17a10.15,10.15,0,0,1-.05,4.28c-.1.68-.22,1.45-.32,2.38a.08.08,0,0,1,0,.05A1.42,1.42,0,0,1,51.16,66.33ZM51,54.8a2.57,2.57,0,0,0-1.06.27,1.51,1.51,0,0,0-1,1.76l.3,7.53a1.56,1.56,0,0,0,.36,1.13,2,2,0,0,0,1.36.67,1.33,1.33,0,0,0,1-.26c.1-.92.21-1.68.31-2.35a9.76,9.76,0,0,0,0-4.41.08.08,0,0,1,0-.09.08.08,0,0,1,.09,0l.42.28a9.19,9.19,0,0,0,1.65,1l.17.07h0c1.39.68,5.58,2.71,8.14-1.79.57-1,.53-2.34-.11-4.41-.08-.25-.17-.52-.27-.82l-7,2.57h-.06l-.07,0-.2-.07c-.49-.18-1-.35-1.59-.5A13.33,13.33,0,0,0,51,54.8Z"/><path d="M63.69,46.18c-.72,3.34-1.18,5.89-.91,8a6.55,6.55,0,0,1-1.5,1.59,6,6,0,0,1-4.06,1,1.31,1.31,0,0,1-.32-.07,13.54,13.54,0,0,1-1.79-.9c-.1-1.21-.22-2.17-.3-3a13.81,13.81,0,0,1,0-3.43c0-.1,0-.2,0-.3a5.48,5.48,0,0,1,2.59-3.35c1.89-.21,3.12-.6,3.6-1.44A1.85,1.85,0,0,1,63.69,46.18Z" style="fill:#ff264a"/><path d="M57.77,56.8h-.55a1.39,1.39,0,0,1-.34-.07,7.86,7.86,0,0,1-1.33-.65l-.47-.25a.08.08,0,0,1,0-.06c-.06-.71-.13-1.34-.18-1.9,0-.4-.08-.78-.11-1.14a13.93,13.93,0,0,1,0-3.45c0-.1,0-.2,0-.3a5.51,5.51,0,0,1,2.63-3.41h0c2.05-.23,3.11-.65,3.54-1.4l0,0a1.88,1.88,0,0,1,1.95.2,2,2,0,0,1,.77,1.87c-.69,3.21-1.19,5.82-.91,7.93a.08.08,0,0,1,0,.06,6.63,6.63,0,0,1-1.51,1.61A5.63,5.63,0,0,1,57.77,56.8ZM55.2,55.7l.43.24a7.88,7.88,0,0,0,1.3.63,1.22,1.22,0,0,0,.3.06,5.87,5.87,0,0,0,4-1,6.44,6.44,0,0,0,1.46-1.55c-.27-2.13.23-4.75.92-7.95a1.85,1.85,0,0,0-.7-1.72,1.71,1.71,0,0,0-1.76-.19c-.46.78-1.55,1.22-3.63,1.45A5.36,5.36,0,0,0,55,49c0,.09,0,.19,0,.28a13.8,13.8,0,0,0,0,3.41c0,.36.07.73.11,1.14S55.14,55,55.2,55.7Z" style="fill:#1a1a1a"/><path d="M57.63,36.28C55.76,36.44,55,38,55,40.06c.06,3.34.72,4.93,3.77,4.22,2.19-.33,4.09-1.42,3.86-4.22A4.41,4.41,0,0,0,57.63,36.28Z" style="fill:#ffbb7d"/><path d="M57.53,44.52a2.3,2.3,0,0,1-1.46-.43c-.76-.59-1.09-1.76-1.13-4s.91-3.7,2.68-3.85a5,5,0,0,1,3.66,1.09A4.1,4.1,0,0,1,62.74,40c.2,2.4-1.16,3.89-3.93,4.31A5.71,5.71,0,0,1,57.53,44.52Zm.1-8.16c-1.67.14-2.57,1.45-2.53,3.69s.35,3.35,1.07,3.91a3,3,0,0,0,2.61.24c2.71-.41,4-1.8,3.8-4.14a3.94,3.94,0,0,0-1.4-2.65,4.79,4.79,0,0,0-3.54-1.05Z"/><path d="M62.95,40a4.72,4.72,0,0,0-5.31-3.92,2.76,2.76,0,0,0-2.87,3.09,4.91,4.91,0,0,0,1.75,2.72l.69,2.86C57.38,44.77,63.38,45.35,62.95,40Z"/><path d="M56.46,42a.52.52,0,0,1,.47-.17c.28.11.36.49.38.74s-.13,1.2-.44,1.3-.36-.09-.42-.31Z" style="fill:#ffbb7d"/><path d="M56.75,44a.32.32,0,0,1-.16,0,.52.52,0,0,1-.22-.35.08.08,0,0,1,.16,0,.38.38,0,0,0,.15.25.21.21,0,0,0,.17,0c.24-.08.41-.94.38-1.22s-.09-.58-.33-.67a.45.45,0,0,0-.38.15.08.08,0,0,1-.12-.11.59.59,0,0,1,.55-.19c.31.12.41.51.43.81s-.12,1.26-.49,1.39Z"/><path d="M56.9,56.65a13.54,13.54,0,0,1-1.79-.9c-.1-1.21-.22-2.17-.3-3a13.81,13.81,0,0,1,0-3.43h1.47A9.41,9.41,0,0,0,56,52.67a9.76,9.76,0,0,0,.83,3.79Z" style="fill:#a81931;opacity:0.75;mix-blend-mode:multiply"/><path d="M53.67,47.57l-.19,0a9.44,9.44,0,0,0-1.4.35l-2.85-2.89,0,0-.56-.57h0a3.47,3.47,0,0,0-.7-1.09l.1-.93a1.12,1.12,0,0,0-.33-.92l-.41-.4L47,41l-.72,1.08a2.22,2.22,0,0,0-.42,1,.52.52,0,0,0,.07.36,4.63,4.63,0,0,1,.44.92.85.85,0,0,0,.24.38,1.47,1.47,0,0,0,.61.36L48,46a11.48,11.48,0,0,0,3.2,3.81,7.77,7.77,0,0,0,2.1.6,8.8,8.8,0,0,0,1.36,0l-.2-3Z" style="fill:#ffbb7d"/><path d="M54.2,50.56a7.66,7.66,0,0,1-.94-.05,7.83,7.83,0,0,1-2.12-.6h0a11.62,11.62,0,0,1-3.22-3.83l-.75-.88a1.7,1.7,0,0,1-.62-.37.92.92,0,0,1-.27-.42,4.53,4.53,0,0,0-.43-.91.59.59,0,0,1-.08-.42A2.24,2.24,0,0,1,46.21,42l.72-1.07a.08.08,0,0,1,.1,0l.25.11,0,0,.41.4a1.2,1.2,0,0,1,.36,1l-.1.9a3.65,3.65,0,0,1,.69,1.06h0l.61.61,0,0,2.79,2.83a9.51,9.51,0,0,1,1.37-.33l.19,0,.77-.1.06,0a.08.08,0,0,1,0,.06l.2,3a.08.08,0,0,1,0,.06l-.06,0Zm-3-.8a7.66,7.66,0,0,0,2.07.59,8.34,8.34,0,0,0,1.27,0l-.19-2.83-.68.09-.19,0A9.33,9.33,0,0,0,52.1,48,.08.08,0,0,1,52,48l-2.85-2.89v0l0,0-.56-.56a.13.13,0,0,1-.05-.05,3.41,3.41,0,0,0-.68-1.06.08.08,0,0,1,0-.07l.1-.93a1,1,0,0,0-.31-.86l-.4-.39L47,41.08l-.69,1a2.11,2.11,0,0,0-.41,1,.43.43,0,0,0,.06.3,4.69,4.69,0,0,1,.44.94.76.76,0,0,0,.22.34,1.39,1.39,0,0,0,.57.34l0,0L48,46A11.4,11.4,0,0,0,51.22,49.76Z"/><path d="M49.12,44.93l-.4-.07-.95-.42-.11-.32-.49-.86,0-2.17h0l.41.4a1.12,1.12,0,0,1,.33.92l-.1.93a3.13,3.13,0,0,1,.73,1.18Z" style="fill:#ffb98a;opacity:0.5;mix-blend-mode:multiply"/><polygon points="46.16 42.48 46.43 43.31 46.76 42.77 46.16 42.48" style="fill:#1d1d1b;opacity:0.1"/><path d="M49.59,42.5l-2.17.88A.55.55,0,0,1,46.7,43l-1.45-4.24a.63.63,0,0,1,.31-.8l2.17-.88a.55.55,0,0,1,.72.38L49.9,41.7A.63.63,0,0,1,49.59,42.5Z" style="fill:#fff"/><path d="M47.23,43.52a.61.61,0,0,1-.25-.06A.73.73,0,0,1,46.6,43l-1.45-4.24a.74.74,0,0,1,.37-.93L47.69,37a.6.6,0,0,1,.48,0,.73.73,0,0,1,.38.43L50,41.67a.74.74,0,0,1-.37.93l-2.17.88A.59.59,0,0,1,47.23,43.52Zm.68-6.37-.14,0-2.17.88a.52.52,0,0,0-.25.66L46.8,43a.52.52,0,0,0,.27.31.39.39,0,0,0,.31,0l2.17-.88a.52.52,0,0,0,.25-.66L48.35,37.5a.52.52,0,0,0-.27-.31A.4.4,0,0,0,47.91,37.15Z"/><path d="M46.54,43.14a5.49,5.49,0,0,0,.7-1.44.17.17,0,0,1,.23-.11c.25.11.35.36.2.77l-.23.76a1.48,1.48,0,0,1,.37,1.32Z" style="fill:#ffbb7d"/><path d="M47.8,44.52a.08.08,0,0,1-.08-.09,1.37,1.37,0,0,0-.34-1.25.08.08,0,0,1,0-.09l.23-.76c.09-.24.14-.55-.15-.67a.09.09,0,0,0-.08,0,.09.09,0,0,0,0,.06,5.6,5.6,0,0,1-.71,1.46.08.08,0,0,1-.13-.09,5.43,5.43,0,0,0,.69-1.41.25.25,0,0,1,.13-.16.26.26,0,0,1,.21,0c.15.06.47.27.24.87l-.21.7a1.57,1.57,0,0,1,.36,1.35A.08.08,0,0,1,47.8,44.52Z"/><path d="M53.06,50.1a11,11,0,0,1-2.28-.61l.4.34a7.77,7.77,0,0,0,2.1.6.84.84,0,0,0,.23.17,18.24,18.24,0,0,0,2.71,0l.06-.21.07-.24C55.29,50.13,54.06,50.22,53.06,50.1Z" style="fill:#ffb98a;opacity:0.5;mix-blend-mode:multiply"/><path d="M46.94,41,47,38.28l.49-.2.76,2.38.21-.09.16.5-.21.09.21.64-.45.19L48,41.15l-.87.36Zm.87-.36-.42-1.31,0,1.49Z" style="fill:#ff264a"/><path d="M56.21,50.59a18.24,18.24,0,0,1-2.71,0,.84.84,0,0,1-.23-.17,1.31,1.31,0,0,1-.22-.33c-.39-.83-.22-2.28.42-2.5l.19,0c1.08-.18,2.19-.29,3.22-.37Z" style="fill:#ff264a"/><path d="M54.56,50.73c-.4,0-.75,0-1.07,0h0a.93.93,0,0,1-.25-.19,1.39,1.39,0,0,1-.23-.35,2.8,2.8,0,0,1,0-2.06.92.92,0,0,1,.51-.55l.2,0c1.17-.2,2.34-.3,3.23-.37a.08.08,0,1,1,0,.16c-.88.07-2,.17-3.21.37l-.19,0a.8.8,0,0,0-.4.46,2.66,2.66,0,0,0,0,1.93,1.22,1.22,0,0,0,.2.31.77.77,0,0,0,.19.15,18.13,18.13,0,0,0,2.68,0,.08.08,0,0,1,.09.08.08.08,0,0,1-.08.09C55.57,50.71,55,50.73,54.56,50.73Z" style="fill:#1a1a1a"/><path d="M56.9,56.65a4.85,4.85,0,0,1-3.18-.33A11.61,11.61,0,0,0,49.94,55,2.6,2.6,0,0,1,51,54.72a13.32,13.32,0,0,1,2.49.51c-.31-1.5.21-2.29,1.3-2.51.08.87.19,1.83.3,3A13.54,13.54,0,0,0,56.9,56.65Z" style="fill:#3c89ba;opacity:0.75;mix-blend-mode:multiply"/></g></svg>