<svg id="Layer_1" data-name="Layer 1" xmlns="http://www.w3.org/2000/svg" viewBox="0 0 60 60"><defs><style>.cls-1{fill:#002147;}.cls-2{fill:#ff6d00;}.cls-3{fill:#f0d0b4;}.cls-4{fill:#ffc729;}.cls-5{fill:#fdc800;}</style></defs><title>hire-icon</title><path class="cls-1" d="M26.44,12.22A9.51,9.51,0,0,1,26.27,14l-.53,2.67a2.66,2.66,0,0,0-2-.86h-1a4.22,4.22,0,0,0-4.18-3.57H16.58a8.56,8.56,0,0,1-4.74-1.43,2,2,0,0,0-1.14-.35,2,2,0,0,0-2,2v3.29H7.76a2.66,2.66,0,0,0-2,.86l-.6-3A5.67,5.67,0,0,1,5.75,9.9a5.71,5.71,0,0,1,1.84-2l.17-.12a7.09,7.09,0,0,1,6.57-4.45h3.2a8.91,8.91,0,0,1,8.73,7.12,9.13,9.13,0,0,1,.18,1.79Zm0,0"/><path class="cls-1" d="M56.69,38V55.8a.9.9,0,0,1-.26.63l-9.22-9.22,9.22-9.83a.91.91,0,0,1,.25.62Zm0,0"/><path class="cls-1" d="M56.44,37.38l-9.22,9.83L43.95,50.7a2,2,0,0,1-3,0l-3.27-3.49-9.22-9.83a.93.93,0,0,1,.64-.27H55.8a.93.93,0,0,1,.64.27Zm0,0"/><path class="cls-1" d="M47.21,47.21l9.22,9.22a.9.9,0,0,1-.63.26H29.11a.9.9,0,0,1-.63-.26l9.22-9.22L41,50.7a2,2,0,0,0,3,0Zm0,0"/><path class="cls-1" d="M46.81,7.36a5.21,5.21,0,0,1,1,3.07,5.35,5.35,0,1,1-1-3.07Zm0,0"/><path class="cls-1" d="M46.81,23.37a5.21,5.21,0,0,1,1,3.07,5.35,5.35,0,1,1-1-3.07Zm0,0"/><path class="cls-1" d="M37.69,47.21l-9.22,9.22a.9.9,0,0,1-.26-.63V38a.91.91,0,0,1,.25-.62Zm0,0"/><path class="cls-2" d="M22.88,47.79v1.78H15.77L19.33,46,16.66,35.34l1.42-2.13,1.25,1.25,2.43-4.85h0a8,8,0,0,1,6.43,7.85V46.9a.89.89,0,0,1-.89.89Zm0,0"/><path class="cls-2" d="M26.44,47.79v1.78a3.56,3.56,0,0,1-3.56,3.56V47.79Zm0,0"/><path class="cls-3" d="M25.74,16.63a2.67,2.67,0,0,1-2,4.47h-.89V16.45a3.4,3.4,0,0,0-.06-.68h1a2.66,2.66,0,0,1,2,.86Zm0,0"/><path class="cls-1" d="M15.77,56.69H8.65V49.57H22.88v7.12Zm0,0"/><path class="cls-3" d="M22.88,16.45V21.1a5.31,5.31,0,0,1-5.34,5.34H14A5.31,5.31,0,0,1,8.65,21.1V12.48a2,2,0,0,1,2-2,2,2,0,0,1,1.14.35,8.56,8.56,0,0,0,4.74,1.43h2.06a4.22,4.22,0,0,1,4.18,3.57,3.4,3.4,0,0,1,.06.68Zm0,0"/><path class="cls-4" d="M21.75,29.59h0l-2.43,4.85-3.56-3.56,3.56-1.78Zm0,0"/><path class="cls-2" d="M18.63,26.34l.69,2.78-3.56,1.78-3.56-1.78.69-2.78a5.4,5.4,0,0,0,1.09.11h3.56a5.4,5.4,0,0,0,1.09-.11Zm0,0"/><path class="cls-1" d="M16.66,35.34,19.33,46l-3.56,3.56L12.21,46l2.67-10.67Zm0,0"/><path class="cls-1" d="M18.08,33.2l-1.42,2.13H14.88L13.45,33.2l2.31-2.31Zm0,0"/><path class="cls-4" d="M15.77,30.89l-3.56,3.56L9.78,29.6h0l2.43-.48Zm0,0"/><path class="cls-2" d="M8.65,47.79H3.31V37.45A8,8,0,0,1,9.74,29.6h0l2.43,4.85,1.25-1.25,1.42,2.13L12.21,46l3.56,3.56H8.65Zm0,0"/><path class="cls-2" d="M8.65,49.57v3.56a3.56,3.56,0,0,1-3.56-3.56V47.79H8.65Zm0,0"/><path class="cls-3" d="M8.65,15.77V21.1H7.76a2.67,2.67,0,1,1,0-5.34Zm0,0"/><path class="cls-1" d="M13.1,15.77a.89.89,0,1,1-.89-.89.89.89,0,0,1,.89.89Zm0,0"/><path class="cls-1" d="M20.21,15.77a.89.89,0,1,1-.89-.89.89.89,0,0,1,.89.89Zm0,0"/><path class="cls-1" d="M20.21,20.21H18.44A1.78,1.78,0,0,1,16.66,22H13.1v1.78h3.56a3.56,3.56,0,0,0,3.56-3.56Zm0,0"/><path class="cls-5" d="M55.8,36.23H43.34V32.6a6.22,6.22,0,0,0,4.58-9.13l3.2-3.55L49.8,18.73l-3,3.29a6.21,6.21,0,0,0-3.49-1.74v-3.7a6.22,6.22,0,0,0,4.58-9.13l3.2-3.55L49.8,2.72,46.84,6A6.22,6.22,0,0,0,36.3,9.54H27a9.8,9.8,0,0,0-9.41-7.12H14.33A7.92,7.92,0,0,0,7,7.17,6.48,6.48,0,0,0,4.2,12.54a6.57,6.57,0,0,0,.13,1.28l.52,2.59A3.55,3.55,0,0,0,7.76,22h.07a6.24,6.24,0,0,0,4,4.95l-.35,1.41-1.91.38a8.92,8.92,0,0,0-7.15,8.72V48.68H4.2v.89a4.46,4.46,0,0,0,3.56,4.36v3.65h16V53.93a4.46,4.46,0,0,0,3.56-4.36V55.8a1.78,1.78,0,0,0,1.78,1.78H55.8a1.78,1.78,0,0,0,1.78-1.78V38a1.78,1.78,0,0,0-1.78-1.78ZM22,37.12V48.68H17.91l2.4-2.4L17.61,35.5l.6-.9L19.57,36l2.66-5.32a7.14,7.14,0,0,1,5.1,6.82V46.9H23.77V37.12ZM19.45,30l1,.2-1.35,2.71-1.81-1.81Zm-2.52,3.27-.75,1.13h-.83l-.75-1.13,1.17-1.17Zm-1.36,2.91H16l2.38,9.51-2.57,2.57-2.57-2.57ZM43.3,50.09a1.2,1.2,0,0,1-1.7,0L30.27,38H54.63ZM29.11,39.37l7.34,7.83-7.34,7.34Zm8.56,9.13,2.64,2.81a2.94,2.94,0,0,0,4.29,0l2.64-2.81,7.3,7.3H30.37Zm10.79-1.3,7.34-7.83V54.54ZM45.64,23.35l-3.22,3.58-2-2-1.26,1.26,3.33,3.33,4.13-4.59a4.37,4.37,0,0,1,.28,1.52,4.47,4.47,0,1,1-1.26-3.09ZM42.45,6a4.43,4.43,0,0,1,3.19,1.36l-3.22,3.58-2-2-1.26,1.26,3.33,3.33,4.13-4.59a4.37,4.37,0,0,1,.28,1.52A4.45,4.45,0,1,1,42.45,6ZM36.3,11.32a6.23,6.23,0,0,0,5.27,5.27v3.7a6.22,6.22,0,0,0,0,12.31v3.63H29A8.93,8.93,0,0,0,22,28.73l-1.91-.38-.35-1.41a6.23,6.23,0,0,0,4-4.95h.07a3.55,3.55,0,0,0,2.91-5.59l.45-2.27a9.84,9.84,0,0,0,.19-1.92c0-.3,0-.6,0-.9ZM23.77,16.66a1.78,1.78,0,0,1,0,3.56Zm-15.69-8,.4-.27.1-.26A6.16,6.16,0,0,1,14.33,4.2h3.21a8,8,0,0,1,7.86,9.59l-.27,1.36a3.52,3.52,0,0,0-1.35-.27h-.25a5.14,5.14,0,0,0-4.88-3.56H16.57A7.63,7.63,0,0,1,12.33,10a2.94,2.94,0,0,0-4.57,2.44v2.4a3.53,3.53,0,0,0-1.35.27l-.34-1.68a4.73,4.73,0,0,1,2-4.86ZM6,18.44a1.78,1.78,0,0,1,1.78-1.78v3.56A1.78,1.78,0,0,1,6,18.44ZM9.54,21.1V12.48a1.16,1.16,0,0,1,1.8-1,9.4,9.4,0,0,0,5.23,1.58h2.07A3.36,3.36,0,0,1,22,16.45V21.1a4.45,4.45,0,0,1-4.45,4.45H14A4.45,4.45,0,0,1,9.54,21.1ZM14,27.33h3.56l.41,0,.33,1.32L15.77,29.9l-2.52-1.26.33-1.32.41,0ZM12.08,30l2.18,1.09-1.81,1.81L11.1,30.24ZM4.2,37.45a7.14,7.14,0,0,1,5.1-6.83L12,35.95l1.35-1.35.6.9-2.7,10.78,2.39,2.4H9.54V37.12H7.76V46.9H4.2ZM6,49.57v-.89H7.76v3.39A2.67,2.67,0,0,1,6,49.57ZM16.66,55.8V52.24H14.88V55.8H9.54V50.46H22V55.8Zm7.12-3.72V48.68h1.78v.89a2.67,2.67,0,0,1-1.78,2.5Zm0,0"/></svg>