<svg id="Layer_1" data-name="Layer 1" xmlns="http://www.w3.org/2000/svg" xmlns:xlink="http://www.w3.org/1999/xlink" viewBox="0 0 300 150"><defs><style>.cls-1{fill:#fff;}.cls-2{fill:#feb7b5;}.cls-3{fill:#ff645f;}.cls-4{fill:#a2ccda;}.cls-5{fill:#2a2873;}.cls-6{fill:#2b79e6;}.cls-7{fill:#823024;}.cls-8{clip-path:url(#clip-path);}.cls-9{fill:#b3e3ef;}.cls-10{fill:#9b9b9b;}.cls-11{fill:#0c5c9b;}.cls-12{fill:#f7958d;}.cls-13{fill:#fca89e;}.cls-14{fill:#f59762;}.cls-15{fill:#8fd5e5;}.cls-16{clip-path:url(#clip-path-2);}.cls-17{fill:#73b3ff;}</style><clipPath id="clip-path"><path class="cls-1" d="M135.49,129.66h44.07V116.51H135.49C133.77,116.51,133.77,129.66,135.49,129.66Z"/></clipPath><clipPath id="clip-path-2"><path class="cls-1" d="M181.45,133.85H124.14v13.49h57.32C183.22,147.34,183.22,133.85,181.45,133.85Z"/></clipPath></defs><title>5</title><path class="cls-2" d="M172.41,35.09c-1.77,12-8.5,13.43-11.52,18.61-3.14,5.38-2.66,7.53-5.76,7.09-4.41-.63-3.58-4.14-6.65-8.86-3.51-5.4-10.19-6.2-10.63-16.84-.4-9.54,7.74-17.28,17.28-17.28S173.81,25.65,172.41,35.09Z"/><path class="cls-3" d="M159.26,56.15h-.43V39.08h-7.16V54.14h-.43V39.08H148a1.32,1.32,0,0,1-1-2.16l3.14-3.75a.84.84,0,0,1,1.49.54v4.95h7.16V33.39a.62.62,0,0,1,1.05-.44l3.65,4.23a1.15,1.15,0,0,1-.87,1.9h-3.4Zm0-17.5h3.4a.72.72,0,0,0,.54-1.18l-3.64-4.22a.18.18,0,0,0-.19,0,.18.18,0,0,0-.11.17Zm-8.44-5.36a.39.39,0,0,0-.31.15l-3.14,3.75a.88.88,0,0,0,.68,1.45h3.19V33.7a.4.4,0,0,0-.27-.39Z"/><path class="cls-4" d="M118.68,118.92c-3.1-.46-5.5-6.14-3.35-9.55s3.35-4.46,1.55-7.87-7-6.11-5.39-10.42,6.83-4.49,5.57-8.44-6.31-5.55-3.84-11.73c2.23-5.58,7.32-2.73,7.32-9.18,0-5.5-7.82-11-1-15,5.67-3.34,9.41,5.51,9.34,10.36-.12,8.44-6.64,10.73-4.13,16,1.25,2.64,6.14,4.29,5.06,10.94s-7.4,5.95-7.4,10.08,7.66,6.31,7,14.12C128.92,115.13,127.87,120.28,118.68,118.92Z"/><path class="cls-1" d="M120.76,119.91h-.43c0-1.1.9-3.12,1.86-5.25a35,35,0,0,0,1.74-4.36c1.25-4.57-1.87-8.45-4.15-11.28a12.2,12.2,0,0,1-2.3-3.49c-.9-3.23,1.08-5,3-6.75,1.36-1.22,2.76-2.49,3.2-4.27.62-2.55-.52-3.91-1.83-5.47A10.1,10.1,0,0,1,119,72.9c-.15-1.83.92-3.29,2.16-5a15.28,15.28,0,0,0,3.42-7.35,12.7,12.7,0,0,0-2.13-8.77l.34-.26a13.15,13.15,0,0,1,2.21,9.1,15.62,15.62,0,0,1-3.5,7.55c-1.19,1.62-2.22,3-2.08,4.69a9.73,9.73,0,0,0,2.79,5.88c1.33,1.59,2.6,3.09,1.92,5.85-.47,1.92-1.92,3.23-3.33,4.49-1.91,1.72-3.71,3.34-2.88,6.32a12.07,12.07,0,0,0,2.22,3.34c2.34,2.9,5.54,6.88,4.23,11.67a35,35,0,0,1-1.77,4.42C121.69,116.83,120.76,118.9,120.76,119.91Z"/><circle class="cls-1" cx="122.59" cy="51.66" r="0.79"/><path class="cls-4" d="M117.23,121.89c-2.18,1-6.15-1.55-6.24-4.66s.22-4.28-2.39-5.69-7.09-.88-7.91-4.33,2.42-5.8-.08-7.78-6.41-.83-7.49-5.83c-1-4.52,3.49-4.89.72-9-2.36-3.51-9.7-3.64-7.07-9.16,2.18-4.57,8.37-.53,10.41,2.59,3.55,5.43.38,9.7,4.26,12,1.93,1.15,5.76.1,7.93,4.8s-2.16,7-.39,9.61,7.6.73,10.55,6C122.13,115.07,123.67,118.81,117.23,121.89Z"/><path class="cls-1" d="M118.66,121.84a14,14,0,0,1-1.08-4.17,26.79,26.79,0,0,0-.76-3.52c-1.16-3.43-4.66-4.51-7.46-5.38a9.38,9.38,0,0,1-3-1.25c-2-1.69-1.49-3.7-1-5.65a6.92,6.92,0,0,0,.2-4.07c-.69-1.87-1.93-2.22-3.49-2.67a7.82,7.82,0,0,1-4.5-2.68c-.89-1.12-.84-2.52-.77-4.14a11.7,11.7,0,0,0-1-6.14,9.72,9.72,0,0,0-5.1-4.66l.14-.41A10,10,0,0,1,96.24,82a12.22,12.22,0,0,1,1,6.34c-.07,1.6-.12,2.86.67,3.85a7.44,7.44,0,0,0,4.28,2.53c1.55.44,3,.86,3.77,2.94a7.22,7.22,0,0,1-.19,4.32c-.47,1.9-.92,3.7.86,5.22a9.25,9.25,0,0,0,2.83,1.17c2.75.85,6.51,2,7.75,5.65a27.06,27.06,0,0,1,.77,3.59,14.31,14.31,0,0,0,1,4Z"/><circle class="cls-1" cx="90.82" cy="77.32" r="0.61" transform="matrix(0.83, -0.56, 0.56, 0.83, -27.7, 63.94)"/><path class="cls-4" d="M117.13,125.51c-1,1.84-5.2,2-6.82-.22s-2-3.19-4.57-2.89-5.54,2.92-7.86.85-1.16-5.38-4-5.55-5,2.62-8.31-.44c-3-2.76.07-5.27-4-6.84-3.45-1.34-8.8,2.24-9.67-3-.72-4.38,5.75-4.58,8.78-3.35,5.27,2.13,5.13,6.78,9.08,6.5,2-.14,4.19-2.82,8.11-.52s1.94,6.1,4.53,7.1,5.83-3.28,10.58-1C117.24,118.16,120.22,120.07,117.13,125.51Z"/><path class="cls-1" d="M118.13,124.78a12.21,12.21,0,0,1-2.87-2.46,23.34,23.34,0,0,0-2.31-2.15c-2.54-1.87-5.59-.9-8-.12a8.25,8.25,0,0,1-2.78.6c-2.29-.22-2.94-1.93-3.57-3.58a6,6,0,0,0-1.88-3c-1.42-1-2.48-.63-3.82-.17a6.88,6.88,0,0,1-4.59.33c-1.21-.36-1.88-1.4-2.64-2.6a10.22,10.22,0,0,0-3.76-3.92,8.45,8.45,0,0,0-6-.79l-.12-.41a8.77,8.77,0,0,1,6.31.83A10.73,10.73,0,0,1,86,111.37c.75,1.18,1.34,2.11,2.4,2.42a6.42,6.42,0,0,0,4.33-.32c1.34-.46,2.61-.89,4.21.23a6.35,6.35,0,0,1,2,3.22c.61,1.6,1.18,3.1,3.21,3.3a8.08,8.08,0,0,0,2.61-.58c2.41-.77,5.71-1.82,8.43.19a23.66,23.66,0,0,1,2.36,2.19,12.59,12.59,0,0,0,2.72,2.36Z"/><circle class="cls-1" cx="75.81" cy="106.69" r="0.53" transform="translate(-51.07 138.82) rotate(-68.81)"/><path class="cls-5" d="M125.84,145h-9.07l-2.68-21.73s.38-5.64,7.94-5.32a6.43,6.43,0,0,1,6.49,5.32Z"/><path class="cls-4" d="M178.52,136.09c-2.16-5.83-3.8-15.31-.86-21.39,3.24-6.7,9-6,9.94-11,1.51-8.43-1.94-11-3.67-17.5-1.28-4.8.24-12.69,7.35-13.18,9.51-.65,7.58,8.74,14.91,8.43,5-.22,15-10.74,20.52-.86,6.91,12.32-14.07,13.71-15.12,16.42-2.59,6.7,8.28-.69,7.13,7.78-.65,4.75-12.75,3.46-12.53,10.15.17,5.4,0,10.37-7.78,17.28s-11,6.48-11,6.48Z"/><path class="cls-1" d="M182.71,140.24l-.4-.17A38.19,38.19,0,0,1,184.9,136c3.81-5.65,10.91-16.18,10.56-22.41-.46-8.31,2.93-19.74,10.11-24.57a45.9,45.9,0,0,1,14.68-6.31l.08.42a45.45,45.45,0,0,0-14.52,6.24c-7.05,4.74-10.38,16-9.92,24.19.35,6.38-6.53,16.58-10.64,22.68A39.47,39.47,0,0,0,182.71,140.24Z"/><path class="cls-1" d="M182,137.18a65.14,65.14,0,0,1,.4-12.07c.62-6.23,2.4-8.94,4.87-12.69.82-1.25,1.76-2.68,2.74-4.37,7.18-12.47,3.38-23.54,1.77-28.27l-.11-.33.41-.14.11.33c1.64,4.78,5.48,16-1.8,28.62-1,1.71-1.92,3.14-2.75,4.4-2.43,3.7-4.19,6.38-4.8,12.5a64.77,64.77,0,0,0-.4,12Z"/><path class="cls-1" d="M185.28,140.45l-.38-.2a30.32,30.32,0,0,1,8.51-10.7l1-.79c3.92-3.23,8.37-6.89,7.19-13.29-1.07-5.8,0-10.34,3.21-13.49l.3.31c-3.1,3.05-4.13,7.46-3.09,13.11,1.23,6.65-3.52,10.56-7.34,13.7l-.95.78A29.93,29.93,0,0,0,185.28,140.45Z"/><circle class="cls-1" cx="191.92" cy="79.51" r="0.92" transform="translate(44.26 225.64) rotate(-67.21)"/><circle class="cls-1" cx="220.3" cy="82.9" r="0.92" transform="translate(58.57 253.93) rotate(-67.22)"/><circle class="cls-1" cx="204.85" cy="102.01" r="0.92" transform="translate(31.52 251.43) rotate(-67.24)"/><circle class="cls-6" cx="186.46" cy="139.98" r="7.62"/><path class="cls-7" d="M134.82,131.64h44.8V114.53h-44.8c-2.24,0-4.05,2.63-4.05,5.87v5.38C130.76,129,132.58,131.64,134.82,131.64Z"/><path class="cls-1" d="M135.49,129.66h44.07V116.51H135.49C133.77,116.51,133.77,129.66,135.49,129.66Z"/><g class="cls-8"><rect class="cls-9" x="132.9" y="127.41" width="47.5" height="0.69"/><rect class="cls-9" x="132.9" y="125.1" width="47.5" height="0.69"/><rect class="cls-9" x="132.9" y="122.8" width="47.5" height="0.69"/><rect class="cls-9" x="132.9" y="120.5" width="47.5" height="0.69"/><rect class="cls-9" x="132.9" y="118.2" width="47.5" height="0.69"/></g><path class="cls-10" d="M148,114.9s-2.86,4.05-.88,6.49,18.17.52,18.84-2.18-1-5.93-1-5.93Z"/><rect class="cls-11" x="147.04" y="112.66" width="28.38" height="2.08"/><path class="cls-3" d="M144.79,79.74c-3.08.44-10.47,17.77-8.26,21.74s14.32,8.59,14.32,8.59l-.66-6.83s-8.3-3.52-7.64-5.73S148,87.08,148,87.08Z"/><path class="cls-3" d="M165.45,79.74c3.08.44,10.47,17.77,8.27,21.74s-14.32,8.59-14.32,8.59l.66-6.83s8.3-3.52,7.64-5.73-5.43-10.43-5.43-10.43Z"/><path class="cls-3" d="M146.69,79.24h16.94a4.42,4.42,0,0,1,4.51,4.48s-3.23,13.19-3.27,17.61c0,2.43.76,9.67.76,9.67h-21s1-7.57.95-10.11c0-4.32-3.46-17.17-3.46-17.17A4.42,4.42,0,0,1,146.69,79.24Z"/><path class="cls-12" d="M157.33,82.55a1.94,1.94,0,0,1-2.11,1.69c-2.08-.1-2.23-1.69-2.23-1.69V74.3h4.33Z"/><path class="cls-13" d="M160.52,73.94c0,3-2.4,7.36-5.35,7.36s-5.35-4.4-5.35-7.36a5.35,5.35,0,1,1,10.7,0Z"/><rect class="cls-5" x="140.98" y="95.88" width="28.38" height="16.92"/><circle class="cls-11" cx="155.17" cy="104.05" r="2.61"/><path class="cls-6" d="M153.27,121.83a7.13,7.13,0,0,1-2,1.1c-1.52.64-4.53,1.83-4.08,3.14.61,1.76,2.73,1.63,4.13,1.21a27.08,27.08,0,0,0,6.22-3.06Z"/><path class="cls-9" d="M156.91,117.23c5.15-3.76,7.84-6.54,13.63-10.05,1.38-.84,2.32-1.09,4.71-.15,2,.8,1.81,4.29.7,5.75-3.33,4.37-16.15,10.41-18.74,11.33-1.12.39-5.07-2.93-3.46-4.53A29.67,29.67,0,0,1,156.91,117.23Z"/><path class="cls-6" d="M154.53,124.47a17.22,17.22,0,0,0,2.72,2.79c1.75,1.35,3,1.8,4.37,1.14,2.06-1,.16-3-1.43-4.57a22.45,22.45,0,0,0-4.06-3.35Z"/><path class="cls-5" d="M149.92,75a20.19,20.19,0,0,0,2.42-4.24c.59-1.76.94.11,3.47,2A25.75,25.75,0,0,0,160.47,75s.76-3.35-.42-5.07c-2.81-4.08-8.55-3.81-10.3,1A4.81,4.81,0,0,0,149.92,75Z"/><path class="cls-14" d="M154.8,119.53l2.2,1.82a5.27,5.27,0,0,1,1.15,1.34c.72,1.34-1.76,4.06-3.37,2.46s-3-3.32-3-3.32Z"/><path class="cls-15" d="M148.24,122.4c-6-3-9.66-4.1-13.51-9.52a6.44,6.44,0,0,1-1-4.79c.47-1.39,2.5-2.22,4.88-1.65,2,.48,15.46,11,17.56,13,.9.86-1.85,5.14-4.11,4.4A22.48,22.48,0,0,1,148.24,122.4Z"/><path class="cls-3" d="M182.15,131.82H124.08v17.55h58.07c2.3,0,4.16-2.69,4.16-6v-5.52C186.3,134.52,184.44,131.82,182.15,131.82Z"/><path class="cls-1" d="M181.45,133.85H124.14v13.49h57.32C183.22,147.34,183.22,133.85,181.45,133.85Z"/><g class="cls-16"><rect class="cls-9" x="123.27" y="135.46" width="60.84" height="0.71"/><rect class="cls-9" x="123.27" y="137.82" width="60.84" height="0.71"/><rect class="cls-9" x="123.27" y="140.18" width="60.84" height="0.71"/><rect class="cls-9" x="123.27" y="142.54" width="60.84" height="0.71"/><rect class="cls-9" x="123.27" y="144.91" width="60.84" height="0.71"/></g><circle class="cls-6" cx="155.19" cy="60.57" r="3.94"/><path class="cls-17" d="M151.45,54.14h7.48a1.58,1.58,0,0,1,1.58,1.58v1.72A1.57,1.57,0,0,1,158.93,59h-7.49a1.57,1.57,0,0,1-1.57-1.57V55.72A1.57,1.57,0,0,1,151.45,54.14Z"/><path class="cls-9" d="M157.14,2.57c0,1.07-1.94,4.54-1.94,4.54s-1.94-3.46-1.94-4.54a1.94,1.94,0,1,1,3.89,0Z"/><path class="cls-9" d="M137.45,6.88c.54.93.58,4.9.58,4.9s-3.41-2-4-3a1.94,1.94,0,0,1,3.37-1.94Z"/><path class="cls-9" d="M122.56,20.46c.93.54,3,4,3,4s-4,0-4.9-.58a1.94,1.94,0,0,1,1.94-3.37Z"/><path class="cls-9" d="M116.45,39.66c1.07,0,4.54,1.94,4.54,1.94s-3.46,1.94-4.54,1.94a1.94,1.94,0,1,1,0-3.89Z"/><path class="cls-9" d="M134.33,74.24c.54-.93,4-3,4-3s0,4-.58,4.9a1.94,1.94,0,1,1-3.37-1.94Z"/><path class="cls-9" d="M173.22,76c-.54-.93-.58-4.9-.58-4.9s3.41,2,4,3A1.94,1.94,0,0,1,173.22,76Z"/><path class="cls-9" d="M188.12,62.46c-.93-.54-3-4-3-4s4,0,4.9.58a1.94,1.94,0,0,1-1.94,3.37Z"/><path class="cls-9" d="M194.23,43.26c-1.07,0-4.54-1.94-4.54-1.94s3.46-1.94,4.54-1.94a1.94,1.94,0,0,1,0,3.89Z"/><path class="cls-9" d="M189.92,23.57c-.93.54-4.9.58-4.9.58s2-3.42,3-4a1.94,1.94,0,1,1,1.94,3.37Z"/><path class="cls-9" d="M176.34,8.68c-.54.93-4,3-4,3s0-4,.58-4.9a1.94,1.94,0,1,1,3.37,1.94Z"/></svg>