<svg id="Layer_1" data-name="Layer 1" xmlns="http://www.w3.org/2000/svg" xmlns:xlink="http://www.w3.org/1999/xlink" viewBox="0 0 300 150"><defs><style>.cls-1{fill:#fca89e;}.cls-2{fill:none;}.cls-3{fill:#da3f3a;}.cls-4{fill:#0a5dc1;}.cls-5{fill:#a2ccda;}.cls-6{fill:#b7dfea;}.cls-7{fill:#ff645f;}.cls-8{fill:#fff;}.cls-9{fill:#f7958d;}.cls-10{fill:#0e97cd;}.cls-11{fill:#2a2873;}.cls-12{clip-path:url(#clip-path);}.cls-13{clip-path:url(#clip-path-2);}.cls-14{fill:#4396ca;}.cls-15{fill:#2eb3db;}.cls-16{fill:#4a4a99;}.cls-17{clip-path:url(#clip-path-3);}.cls-18{fill:#fc6262;}.cls-19{fill:#823024;}.cls-20{clip-path:url(#clip-path-4);}.cls-21{fill:#ff8860;}.cls-22{clip-path:url(#clip-path-5);}.cls-23{clip-path:url(#clip-path-6);}.cls-24{clip-path:url(#clip-path-7);}</style><clipPath id="clip-path"><path class="cls-1" d="M225.74,70.84c.9,3,3.44,2.57,6.48,1.67a5.73,5.73,0,0,0-3.25-11C225.92,62.41,224.84,67.8,225.74,70.84Z"/></clipPath><clipPath id="clip-path-2"><path class="cls-2" d="M239.43,102.12H221.81l-2.2-23.41c-.2-1.91,1.65-3.55,4-3.55h14c2.35,0,4.19,1.64,4,3.55Z"/></clipPath><clipPath id="clip-path-3"><path class="cls-1" d="M115,74.34c-.84,2.85-3.22,2.41-6.07,1.57a5.37,5.37,0,0,1,3-10.31C114.87,66.44,115.88,71.49,115,74.34Z"/></clipPath><clipPath id="clip-path-4"><path class="cls-3" d="M196.58,96.92H182.37l-1-17.32c-.15-1.41,1.22-2.63,3-2.63h11.2c1.74,0,3.1,1.21,3,2.63Z"/></clipPath><clipPath id="clip-path-5"><path class="cls-1" d="M184.08,70.92c-.4,2.75,1.8,3.31,4.55,3.71a5,5,0,1,0,1.45-10C187.33,64.27,184.48,68.17,184.08,70.92Z"/></clipPath><clipPath id="clip-path-6"><path class="cls-1" d="M75.07,68.4c-.92,3.1-3.51,2.62-6.6,1.71a5.85,5.85,0,1,1,3.32-11.22C74.87,59.8,76,65.3,75.07,68.4Z"/></clipPath><clipPath id="clip-path-7"><path class="cls-2" d="M61.1,100.31h18l2.24-23.88c.2-1.95-1.68-3.62-4.08-3.62H62.93c-2.39,0-4.28,1.67-4.08,3.62Z"/></clipPath></defs><title>join-us</title><rect class="cls-4" x="70.49" y="6.69" width="153.21" height="95.01"/><polygon class="cls-5" points="218.12 96.9 76.08 96.9 76.08 0.64 136.96 0.64 144.47 5.15 152.65 0.64 218.12 0.64 218.12 96.9"/><polygon class="cls-6" points="143.76 4.73 136.96 0.64 76.08 0.64 76.08 96.9 143.76 96.9 143.76 4.73"/><rect class="cls-5" x="85.22" y="16.44" width="47.73" height="0.92"/><rect class="cls-5" x="85.22" y="21.78" width="47.73" height="0.92"/><rect class="cls-5" x="85.22" y="33.8" width="47.73" height="0.92"/><rect class="cls-6" x="157.15" y="34.3" width="47.73" height="0.92"/><rect class="cls-6" x="157.15" y="16.44" width="47.73" height="0.92"/><rect class="cls-6" x="157.15" y="52.16" width="47.73" height="0.92"/><circle class="cls-7" cx="144.47" cy="37.6" r="13.35"/><polygon class="cls-8" points="141.21 32.2 150.73 37.7 141.21 43.2 141.21 32.2"/><path class="cls-9" d="M246.32,105.76h-2.67a1,1,0,0,1-1-1v-1.42l3.56-.21Z"/><path class="cls-9" d="M210.73,108.87l-2.17,1c-.53,0-1.34-4.1-1.34-4.63v-1.42l3.56-.21Z"/><path class="cls-10" d="M239.43,102.12H221.81l.47,37.65h3.37s2.55-18.94,3.51-29.41h2.33l.7,29.41h3.37s4-29.53,3.87-35.22A21.79,21.79,0,0,0,239.43,102.12Z"/><path class="cls-11" d="M239.43,102.12H221.81l-2.2-23.41c-.2-1.91,1.65-3.55,4-3.55h14c2.35,0,4.19,1.64,4,3.55Z"/><path class="cls-9" d="M229.78,79.48a.73.73,0,0,0,1.35.06c.78-1.61,2.51-4,2.51-4.52V71.56c0-.78-1.17-.72-1.86-.72h-2.23c-.69,0-1.86.63-1.86,1.42V75C227.68,75.52,229.16,77.87,229.78,79.48Z"/><path class="cls-1" d="M225.74,70.84c.9,3,3.44,2.57,6.48,1.67a5.73,5.73,0,0,0-3.25-11C225.92,62.41,224.84,67.8,225.74,70.84Z"/><g class="cls-12"><path class="cls-11" d="M232.05,64.35s0,2,.28,2a2,2,0,0,1,2.09.56c.77,1-.07,2-1,2.16s-.28,2.58,1.88,2.16,2.93-5.52,1.82-7.47-4.68-4.12-5.94-4-9.55,4.6-9.55,4.6Z"/></g><path class="cls-11" d="M219.72,77.66,214.41,92l-7.94,11.9,4.17.92a70,70,0,0,0,7.84-7.84,28.58,28.58,0,0,0,3.88-6.75c.63-1,.92-12.15.92-12.15Z"/><path class="cls-11" d="M240.18,75.93l10.34,8.89a3.11,3.11,0,0,1,.91,3.38l-5.17,15-3.56.21,2.72-14.25s-7.31-5.06-7.54-5.45c-.63-1-.11-5.66-.11-5.66Z"/><path class="cls-11" d="M222.23,139.72h3.42v2.62h-6.94c-.46,0-.61-1-.21-1.25Z"/><path class="cls-11" d="M232.29,139.72h3.42v2.62h-6.94c-.46,0-.61-1-.21-1.25Z"/><g class="cls-13"><rect class="cls-10" x="220.75" y="81.91" width="0.3" height="12.78"/></g><path class="cls-5" d="M138.87,108H157l-.48,38.69H153s-2.62-19.46-3.6-30.22H147l-2.43,14.14-10.06,10.8-2.64-2.32,7.63-11.69s-.7-14.41-.65-16.91A22.69,22.69,0,0,1,138.87,108Z"/><path class="cls-7" d="M138.87,108H157L159.24,84c.2-2-1.69-3.65-4.11-3.65H140.72c-2.41,0-4.31,1.68-4.11,3.65Z"/><path class="cls-9" d="M148,82.87c-3.21,0-3.19-2.18-3.19-2.71V76.61c0-.8,1.2-.74,1.91-.74H149c.71,0,1.91.65,1.91,1.46v2.83A2.73,2.73,0,0,1,148,82.87Z"/><path class="cls-1" d="M152.94,75.87c-.92,3.12-3.53,2.64-6.65,1.72a5.89,5.89,0,1,1,3.34-11.3C152.75,67.21,153.87,72.75,152.94,75.87Z"/><path class="cls-7" d="M138.11,81.11S129.73,90,126.78,92.85c-1.63,1.55,0,2.72.93,3.88,2.58,3.23,10.94,9,10.94,9l-.47-4.89-5-5.9s7.1-5.48,7.33-5.87c.65-1.08.11-5.81.11-5.81Z"/><path class="cls-7" d="M157.81,81.11s8.37,8.93,11.33,11.74c1.63,1.55,0,2.72-.93,3.88C165.63,100,156,105.94,156,105.94l.17-5.17,6.64-5.82s-7.1-5.48-7.33-5.87c-.65-1.08-.11-5.81-.11-5.81Z"/><path class="cls-11" d="M156.55,146.66H153v2.7h7.13c.47,0,.63-1.06.22-1.29Z"/><path class="cls-11" d="M134.55,141.43l-2.64-2.32-1.78,2,5.36,4.71c.35.31,1.17-.38,1-.82Z"/><path class="cls-14" d="M151.06,64.39c-1.4-1.13-2.72.7-4.27,1.24s-4.23-.89-5.7.66.31,4.35.39,5.43-.71,3.62.23,5.12,3,2.13,5.35,1c1.55-.74-.39-3.18-.7-4.5s-.08-2.95,1.79-1.59c.84.62,2.33,1.32,2.21-.78C150.21,68.35,154.13,66.87,151.06,64.39Z"/><path class="cls-15" d="M116.84,80.93c-1.18.66-2.07,3.67-2.78,9.56s-.56,6.9-.22,7.57,5.87,8.5,5.87,8.5l3-.35-3.82-11.27s3.08-7.35,1.79-14.1C120.52,79.85,116.84,80.93,116.84,80.93Z"/><path class="cls-16" d="M110.53,65.48a6.88,6.88,0,0,0-7.37,4.17,12.68,12.68,0,0,0-.84,5.59c0,.82-1,8.74-.15,8.74L108,78.32Z"/><path class="cls-11" d="M102.21,103.65h16.51l-.44,35.28h-3.15s-2.39-21.35-3.29-31.15h-2.19L109,138.93h-3.15s-3.72-27.67-3.62-33A20.66,20.66,0,0,1,102.21,103.65Z"/><path class="cls-10" d="M102.21,103.65h16.51l-2.27-8.43,4.33-13.5c.18-1.79-1.54-3.32-3.74-3.32H103.9c-2.2,0-3.93,1.54-3.74,3.32l4.69,13.5Z"/><path class="cls-9" d="M110.55,80.72c-2.92,0-2.91-2-2.91-2.47V75c0-.73,1.09-.67,1.74-.67h2.09c.65,0,1.74.59,1.74,1.33v2.58A2.49,2.49,0,0,1,110.55,80.72Z"/><path class="cls-1" d="M115,74.34c-.84,2.85-3.22,2.41-6.07,1.57a5.37,5.37,0,0,1,3-10.31C114.87,66.44,115.88,71.49,115,74.34Z"/><g class="cls-17"><path class="cls-16" d="M109.12,68.26s0,1.9-.26,1.9a1.84,1.84,0,0,0-2,.52c-.72.92-.52,1.89.33,2.08s.29,7.84-1.74,7.45-2.2-10.64-1.15-12.48,4.38-3.86,5.56-3.73,8.94,4.31,8.94,4.31Z"/></g><path class="cls-18" d="M118.33,138.89h-3.21v2.46h6.5c.43,0,.58-1,.2-1.17Z"/><path class="cls-18" d="M108.91,138.89H105.7v2.46h6.5c.43,0,.58-1,.2-1.17Z"/><path class="cls-9" d="M104.24,106.55l2.93-1.23s.88,2.56-.57,3.47C104.78,109.92,104.24,106.55,104.24,106.55Z"/><path class="cls-15" d="M101,79.56c-1.18.66-2.07,4-2.77,9.94s-.56,6.9-.22,7.57,6.28,9.48,6.28,9.48l2.93-1.23-5.24-10.08s1.51-8,1.28-10.71A8.37,8.37,0,0,0,101,79.56Z"/><path class="cls-9" d="M122.75,106.22l-3,.32s.18,2.7,1.87,3C123.7,109.86,122.75,106.22,122.75,106.22Z"/><path class="cls-16" d="M109.71,66.3c-.89,0-2.61-2.68-1-4.17a2.42,2.42,0,0,1,3.95,1.41C112.76,66.15,111.64,66.3,109.71,66.3Z"/><path class="cls-9" d="M197,107.34H181.82l.41,32.53h2.91s2.2-16.36,3-25.41h2l.61,25.41h2.91s3.43-25.51,3.34-30.43A19.11,19.11,0,0,0,197,107.34Z"/><path class="cls-7" d="M181.77,139.82h3.29v2.52h-6.67c-.44,0-.59-1-.21-1.2Z"/><path class="cls-7" d="M190.48,139.82h3.29v2.52H187.1c-.44,0-.59-1-.21-1.2Z"/><path class="cls-19" d="M182.37,96.73h14.21s3.14,1.47,3.51,6.25c.68,8.7-4.77,24-4.77,24H181.91s-4.46-18.27-3.47-24A8.7,8.7,0,0,1,182.37,96.73Z"/><path class="cls-3" d="M196.58,96.92H182.37l-1-17.32c-.15-1.41,1.22-2.63,3-2.63h11.2c1.74,0,3.1,1.21,3,2.63Z"/><g class="cls-20"><circle class="cls-9" cx="189.74" cy="76.48" r="5.19"/></g><path class="cls-9" d="M170.95,75.5l1.15-.81a1,1,0,0,1,1.34.23l1.81,2.56-2.69,2-1.89-2.19A1.25,1.25,0,0,1,170.95,75.5Z"/><path class="cls-3" d="M183.21,77.22c-1.4.55-2.34,2.18-2.88,4.05a47.24,47.24,0,0,1-2.65,5.84l-2.43-9.64-2.69,2s1.25,10.18,2.86,13.67c.93,2,5,.93,8.26-6.31C184.86,84.17,183.21,77.22,183.21,77.22Z"/><path class="cls-3" d="M197.39,77.53A16.91,16.91,0,0,1,201.13,82c1.64,2.8,5.29,11.26,5.67,12s1.81,11.26,1.81,11.26l-3,.62L201.48,93.7l-5.73-9.08Z"/><path class="cls-9" d="M208.61,105.27l-3,.62a15.38,15.38,0,0,0-.08,3,7.87,7.87,0,0,0,1.71,1.4,5.43,5.43,0,0,0,2.61-.93C210.21,109.09,208.73,105.31,208.61,105.27Z"/><path class="cls-19" d="M192.77,66.75a23.88,23.88,0,0,1,3.74-5.09c.31,0,3.12,4.78,3,5.3s-6.65,1-6.65,1Z"/><path class="cls-9" d="M188.72,78.15h2a1.18,1.18,0,0,0,1.1-1.24V74.49a1.18,1.18,0,0,0-1.1-1.24h-2a1.18,1.18,0,0,0-1.1,1.24v2.42A1.18,1.18,0,0,0,188.72,78.15Z"/><path class="cls-21" d="M184.08,70.92c-.4,2.75,1.8,3.31,4.55,3.71a5,5,0,1,0,1.45-10C187.33,64.27,184.48,68.17,184.08,70.92Z"/><path class="cls-1" d="M184.08,70.92c-.4,2.75,1.8,3.31,4.55,3.71a5,5,0,1,0,1.45-10C187.33,64.27,184.48,68.17,184.08,70.92Z"/><g class="cls-22"><path class="cls-19" d="M184.78,67l6.72,3.66s1.28-1.41,1.84,0c.48,1.21-1.44,1.92-1.51,2.28-.58,3,1.76,4.73,3.47,1.32s1.08-9.12.64-9.32-4.66-2.82-5-3-4.47,3-4.92,2.75S184.78,67,184.78,67Z"/></g><path class="cls-9" d="M96.45,76.87c.49-.74.71-2.73.1-3.09s-2.23-1.46-2.77-.15l-.69,2.65,2.74,1.54Z"/><path class="cls-7" d="M61.1,100.31h18l-.48,38.41H75.16s-2.6-19.32-3.58-30H69.2l-.72,30H65.06S61,108.59,61.11,102.79A22.71,22.71,0,0,1,61.1,100.31Z"/><path class="cls-5" d="M61.1,100.31h18l2.24-23.88c.2-1.95-1.68-3.62-4.08-3.62H62.93c-2.39,0-4.28,1.67-4.08,3.62Z"/><path class="cls-9" d="M70.17,75.34C67,75.34,67,73.18,67,72.66V69.13c0-.8,1.19-.73,1.9-.73h2.28c.71,0,1.9.65,1.9,1.45v2.81A2.71,2.71,0,0,1,70.17,75.34Z"/><path class="cls-1" d="M75.07,68.4c-.92,3.1-3.51,2.62-6.6,1.71a5.85,5.85,0,1,1,3.32-11.22C74.87,59.8,76,65.3,75.07,68.4Z"/><g class="cls-23"><path class="cls-7" d="M68.62,61.78s0,2.07-.29,2.07a2,2,0,0,0-2.14.57c-.78,1,.07,2,1,2.21s.29,2.64-1.92,2.21-3-5.63-1.85-7.62,4.77-4.2,6.05-4.06,9.74,4.7,9.74,4.7Z"/></g><path class="cls-5" d="M81.41,75.66,86,84.48l7.09-8.22c0-.31,3.29.92,2.88,1.64-.67,1.17-5.24,10.48-8.83,14.28-2,2.12-7.9-5.63-8.22-6.16-.51-.85-1.21-6.14-1.3-9.08a1.3,1.3,0,0,1,1.16-1.33l1.06-1.91C80.42,73.64,81.2,75.11,81.41,75.66Z"/><path class="cls-5" d="M60.34,73.6S52,82.46,49.09,85.25c-1.62,1.54,0,2.7.92,3.85C52.58,92.31,60.88,98,60.88,98l-.46-4.85-5-5.85s7-5.44,7.28-5.83c.64-1.07.11-5.77.11-5.77Z"/><path class="cls-11" d="M78.64,138.67H75.15v2.68h7.08c.47,0,.63-1.05.22-1.28Z"/><path class="cls-11" d="M68.39,138.67H64.9v2.68H72c.47,0,.63-1.05.22-1.28Z"/><g class="cls-24"><rect class="cls-10" x="79.84" y="79.69" width="0.31" height="13.04"/></g><path class="cls-9" d="M62.26,97.81A1.6,1.6,0,0,0,63.6,96l-.29-2.82c0-.54-.88-.38-1.43-.35l-1.46.39L60.88,98S61.91,97.84,62.26,97.81Z"/></svg>