<svg id="Layer_1" data-name="Layer 1" xmlns="http://www.w3.org/2000/svg" viewBox="0 0 300 150"><defs><style>.cls-1{fill:#e2cfc1;}.cls-2{fill:#dd5b45;}.cls-3{fill:#f57b61;}.cls-4{fill:#f8d646;}.cls-5{fill:#7a4644;}.cls-6{fill:#f7a66f;}.cls-7{fill:#7a92ce;}.cls-8{fill:#282e76;}.cls-9{fill:#19164f;}.cls-10{fill:#81236d;}.cls-11{fill:#2e3b57;}.cls-12{fill:#ffc7ca;}</style></defs><title>know-yourself</title><ellipse class="cls-1" cx="150" cy="143.73" rx="75.19" ry="4.69"/><circle class="cls-2" cx="155.69" cy="78.87" r="64.82" transform="translate(41.89 211.19) rotate(-76.17)"/><circle class="cls-3" cx="149.06" cy="78.87" r="64.82" transform="translate(36.84 204.76) rotate(-76.17)"/><path class="cls-4" d="M201.1,91.68a53.59,53.59,0,1,1-39.23-64.85A53.59,53.59,0,0,1,201.1,91.68Z"/><path class="cls-3" d="M189.49,88.82A41.63,41.63,0,1,1,159,38.44,41.63,41.63,0,0,1,189.49,88.82Z"/><circle class="cls-4" cx="149.06" cy="78.87" r="23.94" transform="translate(36.84 204.76) rotate(-76.17)"/><path class="cls-3" d="M158.25,81.13a9.47,9.47,0,1,1-6.93-11.46A9.47,9.47,0,0,1,158.25,81.13Z"/><rect class="cls-5" x="129.82" y="12.78" width="2.34" height="72" transform="translate(-7.44 68.14) rotate(-28.38)"/><path class="cls-5" d="M147,80.21a1.21,1.21,0,1,0,1.44-.8A1.17,1.17,0,0,0,147,80.21Z"/><polygon class="cls-5" points="114.77 1.58 111.85 8.67 103.82 6.72 117.67 36.26 126.21 40.21 128.29 30.39 114.77 1.58"/><path class="cls-6" d="M101.44,55l14.29-1.77L116.86,34l-1.61-.16-3.18,14.64L99.46,50.72s-4.3.42-3.79,3.27A12.58,12.58,0,0,0,101.44,55Z"/><path class="cls-6" d="M115.33,34.2s-.69-3.11-.17-3.62,2.68-1.21,1.46,3.65Z"/><polygon class="cls-7" points="99.94 140.96 100.97 141.04 101.16 142.62 101.52 143.31 104.37 145.63 99.24 143.96 99.94 140.96"/><polygon class="cls-7" points="96.26 138.2 97.07 138.84 96.35 140.25 96.28 141.04 97.37 144.54 94.01 140.31 96.26 138.2"/><polygon class="cls-8" points="94.95 84.22 97.84 116.01 98.87 142.23 101.35 142.23 103.83 114.98 106.92 84.22 94.95 84.22"/><polygon class="cls-9" points="117.66 84.22 116.83 113.23 97.43 139.75 94.95 138.51 108.37 114.57 103.62 85.87 103.62 84.22 117.66 84.22"/><polygon class="cls-10" points="94.95 84.22 117.66 84.22 115.18 68.33 115.18 52.42 106.14 50.6 94.95 51.63 94.95 66.98 94.95 84.22"/><path class="cls-11" d="M104.6,41.1a3.14,3.14,0,0,1,3.72,3c.53,4.64-1.69,4.73,0,8.34,0,0-5.82-5.58-4-10.25Z"/><path class="cls-6" d="M103.52,46.32l-1,3.81s4.7,3.38,4.24,1.48a44.37,44.37,0,0,1-.69-5.29Z"/><path class="cls-6" d="M103.52,41.93c-.31.78-.93,2.3-.49,3.32s1.1,2.86,2.27,3.3,1.48-.88,1.73-1.32.87-4.76-1-5.79C104.6,40.66,103.76,41.34,103.52,41.93Z"/><path class="cls-11" d="M104.64,41.1a3.7,3.7,0,0,0-3.06.84c-1.76,1.75-2.48,5.81,3.31,10.76,0,0-3.23-9.12,0-10.5Z"/><path class="cls-11" d="M105.33,42.41s-1.08,2.29-2.64,2.76c0,0-1.26-3.82,2-4.25,1.09-.15,3.25-.18,2.89,3.3C107.53,44.22,105.48,43.53,105.33,42.41Z"/><path class="cls-6" d="M116.23,56.53l13.91-3.71-1.52-19.2-1.62.06-1.14,14.94-12.18,4s-4.21,1-3.31,3.75A12.56,12.56,0,0,0,116.23,56.53Z"/><path class="cls-6" d="M127.14,34s-1.11-3-.67-3.56,2.49-1.57,1.95,3.41Z"/><path class="cls-12" d="M109.27,56s.92,4.16,9.19.2l-2.71-4.69S109.49,52.52,109.27,56Z"/></svg>