<svg id="Layer_1" data-name="Layer 1" xmlns="http://www.w3.org/2000/svg" viewBox="0 0 60 60"><defs><style>.cls-1{fill:#002147;}.cls-2{fill:#fdc800;}.cls-3{fill:#b9b9b9;}.cls-4{fill:#6c7175;}.cls-5{fill:#d9d9d9;}.cls-6{fill:#f0f0f0;}.cls-7{fill:#dbdbdb;}</style></defs><title>library-icon</title><polyline class="cls-1" points="32.67 7.78 32.67 47.77 41.56 47.77 43.34 47.77 43.34 16.78 43.34 7.78 32.67 7.78"/><polygon class="cls-1" points="14.62 47.63 4.22 45.26 11.61 12.57 22.01 14.95 14.62 47.63"/><polyline class="cls-1" points="32.67 47.77 23.78 47.77 23.78 3.34 32.67 3.34 32.67 22 32.67 34.44 32.67 47.77 40.67 47.77"/><rect class="cls-2" x="26.45" y="43.33" width="3.56" height="1.78"/><rect class="cls-2" x="26.45" y="6" width="3.56" height="1.78"/><rect class="cls-2" x="26.45" y="9.56" width="3.56" height="1.78"/><rect class="cls-2" x="26.45" y="13.11" width="3.56" height="1.78"/><polygon class="cls-1" points="20.77 20.42 22.01 14.95 11.61 12.57 10.41 17.88 10.84 17.98 20.77 20.42"/><polygon class="cls-1" points="5.53 39.49 4.22 45.26 14.62 47.63 15.89 42.04 6.27 39.67 5.53 39.49"/><polygon class="cls-1" points="23.78 27.66 26.46 15.84 23.78 15.23 23.78 27.66"/><rect class="cls-1" x="32.67" y="7.78" width="4.44" height="39.99"/><polygon class="cls-1" points="32.67 43.33 32.67 47.77 41.56 47.77 43.34 47.77 43.34 43.33 32.67 43.33"/><rect class="cls-1" x="39.78" y="46" width="7.11" height="10.67"/><rect class="cls-3" x="41.56" y="39.78" width="3.56" height="7.11"/><rect class="cls-4" x="41.56" y="44.22" width="3.56" height="1.78"/><circle class="cls-1" cx="43.34" cy="28.22" r="12.44"/><circle class="cls-5" cx="43.34" cy="28.22" r="8.89"/><path class="cls-6" d="M43.34,19.33a8.83,8.83,0,0,0-4.06,1A8.88,8.88,0,0,0,51.84,30.79a8.88,8.88,0,0,0-8.51-11.45Z"/><rect class="cls-7" x="39.78" y="46" width="7.11" height="3.56"/><rect class="cls-1" x="32.67" y="43.33" width="4.44" height="4.44"/><path class="cls-2" d="M44.22,14.94V7.78a.89.89,0,0,0-.89-.89H33.56V3.34a.89.89,0,0,0-.89-.89H23.78a.89.89,0,0,0-.89.89V47.78a.89.89,0,0,0,.89.89H38.89v8a.89.89,0,0,0,.89.89h7.11a.89.89,0,0,0,.89-.89V46a.89.89,0,0,0-.89-.89H46V41.29a13.32,13.32,0,0,0-1.78-26.35ZM33.56,19.19V13.11h8.89v1.82A13.28,13.28,0,0,0,33.56,19.19ZM42.45,8.67v2.67H33.56V8.67ZM24.67,4.23h7.11V21.6a13.23,13.23,0,0,0,0,13.25v12H24.67ZM46,46.89v1.78H40.67V46.89H46Zm-5.33,3.56H46v1.78H40.67Zm0-8H33.56V37.26a13.31,13.31,0,0,0,7.11,4Zm-7.11,4.44V44.22h7.11v.89h-.89a.89.89,0,0,0-.89.89v.89Zm7.11,8.89V54H46v1.78Zm3.56-14.22v3.56H42.45V41.55Zm-.89-1.78A11.55,11.55,0,1,1,54.89,28.22,11.57,11.57,0,0,1,43.34,39.78Z"/><path class="cls-2" d="M43.34,18.45a9.78,9.78,0,1,0,9.78,9.78A9.79,9.79,0,0,0,43.34,18.45Zm0,17.78a8,8,0,1,1,8-8A8,8,0,0,1,43.34,36.22Z"/><path class="cls-2" d="M14.62,48.52a.89.89,0,0,0,.87-.69l7.39-32.69a.89.89,0,0,0-.67-1.06l-10.4-2.38a.88.88,0,0,0-.67.11.89.89,0,0,0-.39.56L3.36,45.06A.89.89,0,0,0,4,46.12l10.4,2.38Zm.6-7.57L6.59,38.83,11.08,19l8.63,2.13ZM12.28,13.64l8.67,2-.84,3.73-8.63-2.13Zm-7,31,.91-4,8.63,2.12L14,46.57Z"/><rect class="cls-2" x="26.45" y="43.33" width="3.56" height="1.78"/><rect class="cls-2" x="26.45" y="13.11" width="3.56" height="1.78"/></svg>