<svg xmlns="http://www.w3.org/2000/svg" viewBox="0 0 72 72"><title>location</title><path d="M61.66,26.66c0,16.53-20.25,39.12-24.77,44a1.21,1.21,0,0,1-1.77,0c-4.51-4.88-24.78-27.69-24.78-44a25.66,25.66,0,0,1,51.33,0ZM36,8A18.63,18.63,0,1,0,54.63,26.66,18.63,18.63,0,0,0,36,8Z" style="fill:#fff"/><path d="M22.16,24.71a1.58,1.58,0,0,1-1.24-2.55,20.18,20.18,0,0,1,4.23-3.58,20.45,20.45,0,0,1,9.73-3.43C40.51,14.77,45.93,17.07,51,22a1.58,1.58,0,0,1-2.2,2.26c-4.36-4.24-8.94-6.25-13.6-6A17.39,17.39,0,0,0,27,21.16,18.13,18.13,0,0,0,23.4,24.1,1.57,1.57,0,0,1,22.16,24.71ZM27,28.11c.36-.42,3.67-4.07,8.44-4.29,3.25-.15,6.52,1.33,9.73,4.39a1.58,1.58,0,0,0,2.18-2.28c-3.86-3.68-7.91-5.45-12-5.26C29.34,21,25.36,25.19,24.62,26A1.58,1.58,0,0,0,27,28.11Zm3.75,4a7.14,7.14,0,0,1,4.6-2.65c2.08-.22,4.15.76,6.18,2.92a1.58,1.58,0,0,0,2.3-2.15c-3.41-3.64-6.67-4.13-8.82-3.9a10.14,10.14,0,0,0-7,4.17,1.58,1.58,0,1,0,2.71,1.62Zm5.33.42a3,3,0,1,0,3,3A3,3,0,0,0,36.07,32.55Z" style="fill:#fff"/></svg>