<svg id="Layer_1" data-name="Layer 1" xmlns="http://www.w3.org/2000/svg" xmlns:xlink="http://www.w3.org/1999/xlink" viewBox="0 0 900 295"><defs><style>.cls-1{fill:none;}.cls-2{clip-path:url(#clip-path);}.cls-3{fill:#ec2649;}.cls-4{fill:#fff;stroke:#231f20;stroke-miterlimit:10;}.cls-5{fill:#eb6aa7;}.cls-6{fill:#cf1c66;}.cls-7{fill:#f4c4db;}.cls-8{fill:#f06466;}.cls-9{fill:#99223e;}</style><clipPath id="clip-path"><rect class="cls-1" x="48.65" y="28.91" width="802.7" height="237.18"/></clipPath></defs><title>Logo-01</title><g class="cls-2"><rect class="cls-3" x="48.65" y="28.91" width="802.7" height="237.18"/><path class="cls-4" d="M128.32,145.29q11,1.84,17.9,8.35T153.08,171a43.87,43.87,0,0,1-4.35,19.46A64.41,64.41,0,0,1,137.6,206.6a84.08,84.08,0,0,1-15.23,12.7,127.42,127.42,0,0,1-16.48,9.18,6.74,6.74,0,0,1-2.09,1.09,9.34,9.34,0,0,1-2.93.42,14.7,14.7,0,0,1-3.68-.83,11.14,11.14,0,0,1-3.35-1.92,9.48,9.48,0,0,1-2.42-3.09,10,10,0,0,1-.92-4.5,9.23,9.23,0,0,1,1.33-5.09A11.37,11.37,0,0,1,95.68,211q1-.67,4.17-2.34t7.26-4.17q4.09-2.5,8.59-5.76a52.2,52.2,0,0,0,8.26-7.43,39.72,39.72,0,0,0,6.17-9.09,24.08,24.08,0,0,0,2.42-10.76,4.26,4.26,0,0,0-1.33-3.25,8.94,8.94,0,0,0-3.34-1.92,20.91,20.91,0,0,0-4.51-.92q-2.5-.25-4.67-.25a36.24,36.24,0,0,0-9.68,1.33,40.34,40.34,0,0,0-9,3.67l-3,26.36a10.88,10.88,0,0,1-1.25,4.75,9.67,9.67,0,0,1-2.67,3.09A10.5,10.5,0,0,1,89.75,206a11.88,11.88,0,0,1-3.25.5,10,10,0,0,1-7-2.75,8.63,8.63,0,0,1-3-6.59v-.67L86,115.85q-2.84,2.17-5.67,4.59a10,10,0,0,1-6.67,2.42,9.84,9.84,0,0,1-7.34-3.09,10.07,10.07,0,0,1-3-7.26A10.52,10.52,0,0,1,66,106a36.56,36.56,0,0,1,6.67-6.34,83.51,83.51,0,0,1,8.51-5.59q4.51-2.59,8.18-4.42.33-3.5.83-6.76a20.75,20.75,0,0,1,1.58-5.59,9.3,9.3,0,0,1,3.09-3.75,9.07,9.07,0,0,1,5.34-1.42,11.27,11.27,0,0,1,6.67,2.13,7.84,7.84,0,0,1,3.5,5.09l.33,2.63q1.5-.16,3.42-.33t3.42-.17h1.33a35.24,35.24,0,0,1,11.26,2.17,31.92,31.92,0,0,1,9.51,5.43,27.67,27.67,0,0,1,6.59,8,20.12,20.12,0,0,1,2.5,9.77,30,30,0,0,1-2,10.52,63.56,63.56,0,0,1-5,10.36,80.83,80.83,0,0,1-6.64,9.52Q131.47,141.79,128.32,145.29Zm-24.93-4.41a75.65,75.65,0,0,0,7.25-6.26,89.32,89.32,0,0,0,7.83-8.59,78.94,78.94,0,0,0,6.5-9.34,23,23,0,0,0,3.25-8.51,4.15,4.15,0,0,0-1.17-2.92,7.93,7.93,0,0,0-2.75-1.92,16.46,16.46,0,0,0-3.42-1,18.84,18.84,0,0,0-3.33-.33,19.17,19.17,0,0,0-4.67.58q-2.33.59-4.83,1.42Z"/><path class="cls-4" d="M180.44,186.43a35.45,35.45,0,0,0,8.34-4.59,34,34,0,0,0,6.26-6,42.87,42.87,0,0,0,4.42-6.76,38.83,38.83,0,0,0,2.84-6.84,8,8,0,0,1,3.75-4.42,10.89,10.89,0,0,1,5.59-1.75,9.36,9.36,0,0,1,7.26,3.25,10.43,10.43,0,0,1,2.92,7.09,9,9,0,0,1-.67,3.34q-.67,1.67-1.58,3.59a31.23,31.23,0,0,0-1.58,4,15,15,0,0,0-.67,4.59,24.71,24.71,0,0,0,.25,2.59q.25,1.92,1.59,1.92a9.27,9.27,0,0,0,5.67-1.86,41.23,41.23,0,0,0,4.76-4.14,51.57,51.57,0,0,1,4.59-4.15,8.33,8.33,0,0,1,5.34-1.86,10.52,10.52,0,0,1,7.34,2.92,9.66,9.66,0,0,1,3.17,7.42,10.18,10.18,0,0,1-3.17,7.26q-3.17,3.25-6.51,6.09a55.47,55.47,0,0,1-9.68,5.92,25.35,25.35,0,0,1-11.18,2.59,25.64,25.64,0,0,1-10.43-2.5,17.23,17.23,0,0,1-8.43-7.84A55.8,55.8,0,0,1,191,203.7,21.45,21.45,0,0,1,179.6,207a18.75,18.75,0,0,1-14.18-5.76q-5.51-5.76-5.51-14.77a40.18,40.18,0,0,1,3.67-15.6A97.08,97.08,0,0,1,172.93,154a115.57,115.57,0,0,1,12.6-15.35,81.13,81.13,0,0,1,13.6-11.43,45.48,45.48,0,0,1,7.68-3.92,21.23,21.23,0,0,1,7.84-1.58,16.72,16.72,0,0,1,7.09,1.5,16.21,16.21,0,0,1,5.51,4.09,19,19,0,0,1,3.5,6,21,21,0,0,1,1.25,7.26,22.44,22.44,0,0,1-.75,5.59,22.17,22.17,0,0,1-2.17,5.42,12.81,12.81,0,0,1-3.59,4.09,8.52,8.52,0,0,1-5.17,1.59,10.94,10.94,0,0,1-7.09-2.67,8.8,8.8,0,0,1-3.25-7.17,11.72,11.72,0,0,1,.5-3.67q.33-.83.67-1.83-3.84,1.51-9.09,6.62a90.31,90.31,0,0,0-10,11.64,87.56,87.56,0,0,0-8.18,13.65Q180.44,180.91,180.44,186.43Z"/><path class="cls-4" d="M275.21,184.76a28.72,28.72,0,0,0,4.09-2.67q1.92-1.5,3.75-2.84a24,24,0,0,1,3.75-2.25,9.37,9.37,0,0,1,4.09-.92,8.87,8.87,0,0,1,7.09,3.25,11,11,0,0,1,2.75,7.26,8.92,8.92,0,0,1-3,7q-1.84,1.67-4.59,3.92a59.76,59.76,0,0,1-5.92,4.25,47.64,47.64,0,0,1-6.42,3.42,15,15,0,0,1-5.92,1.42,8.71,8.71,0,0,1-4.09-.92q-1.75-.92-3.75-2.09-5.34-3.17-10.6-5.76a78.51,78.51,0,0,0-11.1-4.42,10.37,10.37,0,0,1-5.59-3.75,9.84,9.84,0,0,1-2.09-6.09,8.35,8.35,0,0,1,2.34-6.17,48.45,48.45,0,0,1,5.51-4.67q2.33-1.67,4.92-3.59a70,70,0,0,0,5.42-4.5q2.84-2.59,6.26-5.92t7.59-8q-3.84-1.5-7.84-2.84a71.88,71.88,0,0,0-8-2.17,8.86,8.86,0,0,1-5.51-3.84,11.24,11.24,0,0,1-2-6.34,9.6,9.6,0,0,1,3-7,10,10,0,0,1,7.34-3,27.81,27.81,0,0,1,7.09,1.42q4.75,1.42,10.18,3.5t10.43,4.34a85.31,85.31,0,0,1,7.84,3.92,9.57,9.57,0,0,1,3.67,3.75,10.4,10.4,0,0,1,1.33,5.09,9,9,0,0,1-2.17,6.26q-2.17,2.42-4.5,4.92-5.34,5.67-11,11.26t-11.68,10.76Z"/><path class="cls-4" d="M329.1,186.43a35.45,35.45,0,0,0,8.34-4.59,34,34,0,0,0,6.26-6,42.87,42.87,0,0,0,4.42-6.76,38.83,38.83,0,0,0,2.84-6.84,8,8,0,0,1,3.75-4.42,10.89,10.89,0,0,1,5.59-1.75,9.36,9.36,0,0,1,7.26,3.25,10.43,10.43,0,0,1,2.92,7.09,9,9,0,0,1-.67,3.34q-.67,1.67-1.58,3.59a31.23,31.23,0,0,0-1.58,4,15,15,0,0,0-.67,4.59,24.71,24.71,0,0,0,.25,2.59q.25,1.92,1.59,1.92a9.27,9.27,0,0,0,5.67-1.86,41.23,41.23,0,0,0,4.76-4.14,51.57,51.57,0,0,1,4.59-4.15,8.33,8.33,0,0,1,5.34-1.86,10.52,10.52,0,0,1,7.34,2.92,9.66,9.66,0,0,1,3.17,7.42,10.18,10.18,0,0,1-3.17,7.26q-3.17,3.25-6.51,6.09a55.47,55.47,0,0,1-9.68,5.92,25.35,25.35,0,0,1-11.18,2.59,25.64,25.64,0,0,1-10.43-2.5,17.23,17.23,0,0,1-8.43-7.84,55.8,55.8,0,0,1-9.68,7.42A21.45,21.45,0,0,1,328.27,207a18.75,18.75,0,0,1-14.18-5.76q-5.51-5.76-5.51-14.77a40.18,40.18,0,0,1,3.67-15.6A97.08,97.08,0,0,1,321.59,154a115.57,115.57,0,0,1,12.6-15.35,81.13,81.13,0,0,1,13.6-11.43,45.48,45.48,0,0,1,7.68-3.92,21.23,21.23,0,0,1,7.84-1.58,16.72,16.72,0,0,1,7.09,1.5,16.21,16.21,0,0,1,5.51,4.09,19,19,0,0,1,3.5,6,21,21,0,0,1,1.25,7.26,22.44,22.44,0,0,1-.75,5.59,22.17,22.17,0,0,1-2.17,5.42,12.81,12.81,0,0,1-3.59,4.09,8.52,8.52,0,0,1-5.17,1.59,10.94,10.94,0,0,1-7.09-2.67,8.8,8.8,0,0,1-3.25-7.17,11.72,11.72,0,0,1,.5-3.67q.33-.83.67-1.83-3.84,1.51-9.09,6.62a90.31,90.31,0,0,0-10,11.64,87.56,87.56,0,0,0-8.18,13.65Q329.1,180.91,329.1,186.43Z"/><path class="cls-4" d="M417.86,130.2a10.38,10.38,0,0,1-.33,2.5q-.34,1.34-.67,2.5a24.55,24.55,0,0,0-.83,2.67,35.66,35.66,0,0,1,7.09-3.25,22.92,22.92,0,0,1,7.26-1.25,13.79,13.79,0,0,1,11.76,6.17q4.42,6.17,4.42,16.18a47.08,47.08,0,0,1-1,9.18,43.36,43.36,0,0,1-3,9.43,25.49,25.49,0,0,1-4.84,7.34,8.83,8.83,0,0,1-6.51,2.92,10.9,10.9,0,0,1-7.34-2.92,9.24,9.24,0,0,1-3.34-7.26,10.32,10.32,0,0,1,.83-4q.83-2,1.92-4.34a43.46,43.46,0,0,0,1.92-4.92,18.14,18.14,0,0,0,.83-5.59,26.23,26.23,0,0,0-9,5.26,23.72,23.72,0,0,0-5.42,7.34,32.69,32.69,0,0,0-2.67,8.84,61.43,61.43,0,0,0-.75,9.59q0,3.17.25,6.51t.25,7.17a8.72,8.72,0,0,1-3.17,7,10.85,10.85,0,0,1-7.17,2.67,11.15,11.15,0,0,1-6.09-2,8.15,8.15,0,0,1-3.75-5.51,40.17,40.17,0,0,1-.75-6.26q-.09-2.75-.08-6.09a213.73,213.73,0,0,1,2.42-31.45,162,162,0,0,1,7.76-31.12,11.89,11.89,0,0,1,3.59-5.26,9,9,0,0,1,6.09-2.25,10.32,10.32,0,0,1,7.17,2.92A9.48,9.48,0,0,1,417.86,130.2Z"/><path class="cls-4" d="M522,168.25q10-22,21.86-43.13a342.61,342.61,0,0,1,26.49-40.29q1.49-1.84,2.89-3.92a30.18,30.18,0,0,1,3.06-3.84,16.5,16.5,0,0,1,3.64-2.92A8.66,8.66,0,0,1,584.39,73a10.17,10.17,0,0,1,7.08,2.84A9.33,9.33,0,0,1,594.56,83q0,2.5-.25,5.09t-.58,6.26q-.34,3.67-1,8.59T591.39,115q-2.34,20.36-4.09,40.54t-1.75,40.21V213.3q0,5-3.14,7.59a10.69,10.69,0,0,1-7,2.59q-7,0-8.69-5.34T565,202.78q0-14.18,1-27.2-7.34,3.34-14.68,6.17a114.27,114.27,0,0,1-15.18,4.67l-13.85,32.7a10.25,10.25,0,0,1-4.17,5.76,11.54,11.54,0,0,1-6.17,1.75,10.75,10.75,0,0,1-6.59-2.5q-3.25-2.5-3.25-7.67a14,14,0,0,1,1.25-4.92q1.25-3.09,2.59-6.42l6.84-16a10,10,0,0,1-6.76-3.34,9.84,9.84,0,0,1-2.75-6.84q0-4,1.75-6.09a9.8,9.8,0,0,1,4.51-3,22.89,22.89,0,0,1,6.09-1.08Q519,168.58,522,168.25Zm26-7q5-2,9.84-4.42t9.51-4.92q.67-7.67,1.33-15.35t1.5-15.35Q564.31,131,558.73,141T548,161.24Z"/><path class="cls-4" d="M636.6,122.53q-1-3.67-2.5-7.92t-3.34-8.51q-1.84-4.26-3.84-8.43T623.09,90c-.22-.67-.47-1.36-.75-2.09a6.19,6.19,0,0,1-.42-2.25v-.83a13,13,0,0,1,2.42-6.92q2.25-3.25,7.76-3.25A10.41,10.41,0,0,1,637.19,76a9.57,9.57,0,0,1,3.75,3.67,165.66,165.66,0,0,1,8.68,17.19,179.1,179.1,0,0,1,7,18.94,153.5,153.5,0,0,1,4.67,19.69A116.45,116.45,0,0,1,663,154.73,77.35,77.35,0,0,1,661,170.58a64.93,64.93,0,0,1-6.17,17,44.19,44.19,0,0,1-10.93,13.51,24.6,24.6,0,0,1-16.19,5.51,27.81,27.81,0,0,1-11.51-2.25,25.55,25.55,0,0,1-8.51-6.09,25.26,25.26,0,0,1-5.26-8.93,33.35,33.35,0,0,1-1.75-10.93,71.07,71.07,0,0,1,2.84-19.6,79,79,0,0,1,7.59-18.1A50.76,50.76,0,0,1,622,127.37q6.09-5.17,12.43-5.17A9.44,9.44,0,0,1,636.6,122.53Zm4.5,17.85a14.91,14.91,0,0,0-8.76,5,37.55,37.55,0,0,0-6.34,10,57.41,57.41,0,0,0-3.84,12.18,59.21,59.21,0,0,0-1.25,11.35,9.82,9.82,0,0,0,1.25,5q1.25,2.17,4.59,2.17a9.24,9.24,0,0,0,7.17-3.42,28,28,0,0,0,4.92-8.26,47.39,47.39,0,0,0,2.75-10.26,63.31,63.31,0,0,0,.83-9.43q0-3.67-.33-7.26T641.11,140.38Z"/><path class="cls-4" d="M709.85,122.53q-1-3.67-2.5-7.92T704,106.09q-1.84-4.26-3.84-8.43T696.33,90c-.22-.67-.47-1.36-.75-2.09a6.19,6.19,0,0,1-.42-2.25v-.83a13,13,0,0,1,2.42-6.92q2.25-3.25,7.76-3.25A10.41,10.41,0,0,1,710.43,76a9.57,9.57,0,0,1,3.75,3.67,165.66,165.66,0,0,1,8.68,17.19,179.1,179.1,0,0,1,7,18.94,153.5,153.5,0,0,1,4.67,19.69,116.45,116.45,0,0,1,1.67,19.27,77.35,77.35,0,0,1-1.92,15.85,64.93,64.93,0,0,1-6.17,17,44.19,44.19,0,0,1-10.93,13.51A24.6,24.6,0,0,1,701,206.62a27.81,27.81,0,0,1-11.51-2.25,25.55,25.55,0,0,1-8.51-6.09,25.26,25.26,0,0,1-5.26-8.93A33.35,33.35,0,0,1,674,178.42a71.07,71.07,0,0,1,2.84-19.6,79,79,0,0,1,7.59-18.1,50.76,50.76,0,0,1,10.85-13.35q6.09-5.17,12.43-5.17A9.44,9.44,0,0,1,709.85,122.53Zm4.5,17.85a14.91,14.91,0,0,0-8.76,5,37.55,37.55,0,0,0-6.34,10,57.41,57.41,0,0,0-3.84,12.18,59.21,59.21,0,0,0-1.25,11.35,9.82,9.82,0,0,0,1.25,5q1.25,2.17,4.59,2.17a9.24,9.24,0,0,0,7.17-3.42,28,28,0,0,0,4.92-8.26,47.39,47.39,0,0,0,2.75-10.26,63.31,63.31,0,0,0,.83-9.43q0-3.67-.33-7.26T714.35,140.38Z"/><path class="cls-4" d="M762.24,186.43a35.42,35.42,0,0,0,8.34-4.59,34,34,0,0,0,6.26-6,42.87,42.87,0,0,0,4.42-6.76,38.91,38.91,0,0,0,2.84-6.84,8,8,0,0,1,3.75-4.42,10.89,10.89,0,0,1,5.59-1.75,9.36,9.36,0,0,1,7.26,3.25,10.42,10.42,0,0,1,2.92,7.09,9,9,0,0,1-.67,3.34q-.67,1.67-1.59,3.59a31.37,31.37,0,0,0-1.58,4,15,15,0,0,0-.67,4.59,24.57,24.57,0,0,0,.25,2.59c.17,1.28.69,1.92,1.58,1.92a9.26,9.26,0,0,0,5.67-1.86,41.19,41.19,0,0,0,4.76-4.14,51.7,51.7,0,0,1,4.59-4.15,8.33,8.33,0,0,1,5.34-1.86,10.52,10.52,0,0,1,7.34,2.92,9.66,9.66,0,0,1,3.17,7.42,10.18,10.18,0,0,1-3.17,7.26q-3.17,3.25-6.51,6.09a55.44,55.44,0,0,1-9.68,5.92,25.35,25.35,0,0,1-11.18,2.59,25.64,25.64,0,0,1-10.43-2.5,17.24,17.24,0,0,1-8.43-7.84,55.76,55.76,0,0,1-9.68,7.42A21.45,21.45,0,0,1,761.41,207a18.75,18.75,0,0,1-14.18-5.76q-5.51-5.76-5.51-14.77a40.18,40.18,0,0,1,3.67-15.6A97.08,97.08,0,0,1,754.73,154a115.57,115.57,0,0,1,12.6-15.35,81.1,81.1,0,0,1,13.6-11.43,45.52,45.52,0,0,1,7.68-3.92,21.24,21.24,0,0,1,7.84-1.58,16.73,16.73,0,0,1,7.09,1.5,16.21,16.21,0,0,1,5.51,4.09,19,19,0,0,1,3.5,6,21,21,0,0,1,1.25,7.26,22.41,22.41,0,0,1-.75,5.59,22.11,22.11,0,0,1-2.17,5.42,12.8,12.8,0,0,1-3.59,4.09,8.52,8.52,0,0,1-5.17,1.59,10.94,10.94,0,0,1-7.09-2.67,8.8,8.8,0,0,1-3.25-7.17,11.71,11.71,0,0,1,.5-3.67q.33-.83.67-1.83-3.84,1.51-9.09,6.62a90.27,90.27,0,0,0-10,11.64,87.56,87.56,0,0,0-8.18,13.65Q762.24,180.91,762.24,186.43Z"/></g><rect class="cls-5" x="105.19" y="8" width="18.04" height="12.76"/><rect class="cls-6" x="74.26" y="8" width="18.04" height="12.76"/><rect class="cls-7" x="167.03" y="8" width="18.04" height="12.76"/><rect class="cls-8" x="197.96" y="8" width="18.04" height="12.76"/><rect class="cls-8" x="136.11" y="8" width="18.04" height="12.76"/><rect class="cls-6" x="859.58" y="201.61" width="12.72" height="18.04"/><rect class="cls-9" x="27.7" y="181.46" width="12.72" height="18.04"/><rect class="cls-8" x="27.7" y="274.24" width="12.72" height="12.76"/><rect class="cls-5" x="27.7" y="243.31" width="12.72" height="18.04"/><rect class="cls-6" x="27.7" y="150.54" width="12.72" height="18.04"/><rect class="cls-6" x="27.7" y="212.39" width="12.72" height="18.04"/><rect class="cls-5" x="27.7" y="119.61" width="12.72" height="18.04"/><rect class="cls-6" x="27.7" y="88.69" width="12.72" height="18.04"/><rect class="cls-9" x="48.65" y="8" width="12.72" height="12.76"/><rect class="cls-5" x="820.77" y="8" width="18.04" height="12.76"/><rect class="cls-6" x="789.84" y="8" width="18.04" height="12.76"/><rect class="cls-8" x="850.36" y="8" width="21.94" height="12.76"/><rect class="cls-9" x="764.23" y="8" width="12.72" height="12.76"/><rect class="cls-5" x="228.88" y="8" width="18.04" height="12.76"/><rect class="cls-6" x="259.8" y="8" width="12.81" height="12.76"/><rect class="cls-5" x="341.35" y="8" width="18.04" height="12.76"/><rect class="cls-6" x="310.42" y="8" width="18.04" height="12.76"/><rect class="cls-7" x="403.19" y="8" width="18.04" height="12.76"/><rect class="cls-8" x="434.12" y="8" width="18.04" height="12.76"/><rect class="cls-8" x="372.27" y="8" width="18.04" height="12.76"/><rect class="cls-9" x="284.81" y="8" width="12.72" height="12.76"/><rect class="cls-5" x="558.86" y="274.24" width="18.04" height="12.76"/><rect class="cls-6" x="527.93" y="274.24" width="18.04" height="12.76"/><rect class="cls-7" x="620.71" y="274.24" width="18.04" height="12.76"/><rect class="cls-8" x="651.63" y="274.24" width="18.04" height="12.76"/><rect class="cls-8" x="589.78" y="274.24" width="18.04" height="12.76"/><rect class="cls-9" x="502.33" y="274.24" width="12.72" height="12.76"/><rect class="cls-5" x="682.56" y="274.24" width="18.04" height="12.76"/><rect class="cls-6" x="713.48" y="274.24" width="12.81" height="12.76"/><rect class="cls-5" x="795.02" y="274.24" width="18.04" height="12.76"/><rect class="cls-6" x="764.09" y="274.24" width="18.04" height="12.76"/><rect class="cls-7" x="854.26" y="274.24" width="18.04" height="12.76"/><rect class="cls-8" x="825.94" y="274.24" width="18.04" height="12.76"/><rect class="cls-9" x="738.49" y="274.24" width="12.72" height="12.76"/><rect class="cls-5" x="465.04" y="8" width="18.04" height="12.76"/><rect class="cls-6" x="495.96" y="8" width="12.81" height="12.76"/><rect class="cls-9" x="859.48" y="248.05" width="12.81" height="18.04"/><rect class="cls-5" x="859.48" y="92.35" width="12.81" height="18.04"/><rect class="cls-5" x="859.48" y="225.37" width="12.81" height="12.76"/><rect class="cls-8" x="859.48" y="123.28" width="12.81" height="18.04"/><rect class="cls-8" x="859.48" y="178.47" width="12.81" height="13.42"/><rect class="cls-9" x="859.48" y="30.51" width="12.81" height="18.04"/><rect class="cls-6" x="859.48" y="61.43" width="12.81" height="18.04"/><rect class="cls-7" x="859.48" y="154.2" width="12.81" height="18.04"/><rect class="cls-5" x="27.7" y="8" width="12.81" height="12.76"/><rect class="cls-8" x="27.7" y="30.98" width="12.81" height="18.04"/><rect class="cls-7" x="27.7" y="61.9" width="12.81" height="18.04"/><rect class="cls-7" x="550.85" y="8" width="18.04" height="12.76"/><rect class="cls-8" x="581.78" y="8" width="18.04" height="12.76"/><rect class="cls-8" x="525.25" y="8" width="12.72" height="12.76"/><rect class="cls-5" x="736.4" y="8" width="12.81" height="12.76"/><rect class="cls-6" x="643.63" y="8" width="18.04" height="12.76"/><rect class="cls-5" x="612.7" y="8" width="18.04" height="12.76"/><rect class="cls-9" x="674.55" y="8" width="18.04" height="12.76"/><rect class="cls-6" x="705.48" y="8" width="18.04" height="12.76"/><rect class="cls-5" x="437.67" y="274.24" width="18.04" height="12.76"/><rect class="cls-6" x="406.74" y="274.24" width="18.04" height="12.76"/><rect class="cls-8" x="468.59" y="274.24" width="18.04" height="12.76"/><rect class="cls-9" x="381.14" y="274.24" width="12.72" height="12.76"/><rect class="cls-8" x="51.02" y="274.24" width="18.04" height="12.76"/><rect class="cls-5" x="81.95" y="274.24" width="18.04" height="12.76"/><rect class="cls-6" x="112.87" y="274.24" width="12.81" height="12.76"/><rect class="cls-7" x="167.76" y="274.24" width="18.04" height="12.76"/><rect class="cls-8" x="198.68" y="274.24" width="18.04" height="12.76"/><rect class="cls-8" x="142.15" y="274.24" width="12.72" height="12.76"/><rect class="cls-5" x="353.3" y="274.24" width="12.81" height="12.76"/><rect class="cls-6" x="260.53" y="274.24" width="18.04" height="12.76"/><rect class="cls-5" x="229.61" y="274.24" width="18.04" height="12.76"/><rect class="cls-9" x="291.45" y="274.24" width="18.04" height="12.76"/><rect class="cls-6" x="322.38" y="274.24" width="18.04" height="12.76"/></svg>