<svg id="Layer_1" data-name="Layer 1" xmlns="http://www.w3.org/2000/svg" viewBox="0 0 114.63 40"><defs><style>.cls-1{fill:#840412;}.cls-2{fill:#fff6f3;}</style></defs><title>logo-indiaenigma</title><path class="cls-1" d="M62.48,7h-61A1.28,1.28,0,0,0,.2,8.23v15a1.28,1.28,0,0,0,1.28,1.28H16.76v5.06L18,27.43V24.49H56.25l-3.32-3L53.17,19l3.78-3.94-2.19-3,2-2.3Z"/><path class="cls-2" d="M3.06,22a2.45,2.45,0,0,0,1.32-.37q.3-.28.3-1.43V11.28a2.24,2.24,0,0,0-.3-1.41,1.06,1.06,0,0,0-.48-.27,2.88,2.88,0,0,0-.83-.1V9.12H8v.37a2.81,2.81,0,0,0-.82.1,1.19,1.19,0,0,0-.5.27,2.24,2.24,0,0,0-.3,1.41v8.89a2.21,2.21,0,0,0,.3,1.44A2.63,2.63,0,0,0,8,22v.36H3.06Z"/><path class="cls-2" d="M19.88,11.29a2,2,0,0,0-.74.12,1,1,0,0,0-.44.31,6.58,6.58,0,0,0-.41.62L18,12.8V24.49H16.76V12.6l-5-1.77V19.4a3.83,3.83,0,0,0,.41,2.19,1.79,1.79,0,0,0,1.15.46v.2H8.39V22a1.86,1.86,0,0,0,1.31-.59A4.27,4.27,0,0,0,10,19.4V11.28A2.3,2.3,0,0,0,9.7,9.83a1,1,0,0,0-.47-.29,2.43,2.43,0,0,0-.8-.11V9.2h3.75l4.61,1.86h3.08Z"/><path class="cls-2" d="M19.81,22A2.32,2.32,0,0,0,21,21.58a2.31,2.31,0,0,0,.28-1.41V11.28A2.38,2.38,0,0,0,21,9.89a1.86,1.86,0,0,0-1.2-.4V9.12h4.48a7.61,7.61,0,0,1,3.83.89Q31,11.62,31,15.76a8,8,0,0,1-.5,2.83,5.74,5.74,0,0,1-1.54,2.28,5,5,0,0,1-1.35.89,7.73,7.73,0,0,1-3.14.57H19.81Zm3.35-.54a1.5,1.5,0,0,0,.83.15,5.25,5.25,0,0,0,3.21-.93q1.93-1.43,1.93-4.87a6.16,6.16,0,0,0-1.59-4.62,5,5,0,0,0-3.61-1.32,1.38,1.38,0,0,0-.76.15q-.2.15-.2.64V20.78A.85.85,0,0,0,23.15,21.43Z"/><path class="cls-2" d="M32,22a2.45,2.45,0,0,0,1.32-.37q.3-.28.3-1.43V11.28a2.24,2.24,0,0,0-.3-1.41,1.06,1.06,0,0,0-.48-.27,2.88,2.88,0,0,0-.83-.1V9.12H37v.37a2.81,2.81,0,0,0-.82.1,1.19,1.19,0,0,0-.5.27,2.24,2.24,0,0,0-.3,1.41v8.89a2.21,2.21,0,0,0,.3,1.44A2.63,2.63,0,0,0,37,22v.36H32Z"/><path class="cls-2" d="M49.2,22.41H44.42V21.9a2.11,2.11,0,0,0,1.22-.4,2.27,2.27,0,0,0,.25-1.33V19h-5.3v1.19a5.2,5.2,0,0,0,.06.86,1,1,0,0,0,.19.48,2.13,2.13,0,0,0,1.22.39v.51H37.28V21.9a2,2,0,0,0,1.24-.4,3.17,3.17,0,0,0,.22-1.56V18.56q0-.54.07-1.09A20.39,20.39,0,0,1,39.16,15a9.21,9.21,0,0,1,.84-2.5,10.89,10.89,0,0,1,1.4-2.06,11.31,11.31,0,0,1,1.93-1.65,12,12,0,0,1,1.81,1.67,11.69,11.69,0,0,1,1.32,2,9.7,9.7,0,0,1,.68,2.27q.25,1.24.44,2.62l.15,1.26v1.25A3.17,3.17,0,0,0,48,21.5a2,2,0,0,0,1.24.4ZM45.89,17.7q0-.46,0-1.15-.07-1-.16-1.83a8.59,8.59,0,0,0-.33-1.66,13.05,13.05,0,0,0-.81-2,9.75,9.75,0,0,0-1.2-1.72A8.18,8.18,0,0,0,42,11.08a12.5,12.5,0,0,0-.85,2,9,9,0,0,0-.38,1.79q-.11.84-.13,1.54t0,1.31Zm0,.67V18h-5.3v.34Z"/><path class="cls-1" d="M62,20.58l0,.18-.05.13-.16.21-.21.5-.18.18-.29.18-.39.42-.29.18-.05.1-.11.1-.05.05-.13,0-.73.5-.13.05-.05.05-.13.05-.1.1-1.12.47-1.1.34H55.29l-1.23-.31-.65-.31-.52-.42-.11-.1-.08-.05L52.62,23,52.54,23l-.05-.13-.21-.29,0-.26-.1-.08v0l-.08-.24L52,21.37l.11-1,.21-.55v-.16l.24-.5.55-.86.44-.58.24-.13.23-.42.37-.29.08,0,.63-.63,1.15-.81.13-.08.18-.1v0l-.16-.05L55.7,15l-.42-.31-.16-.16-.08-.13-.11-.1-.05-.1-.13-.5.21-.84.16-.18,0-.1.05,0,.08-.1.13-.08.08-.1h0l0-.16.18-.29.1,0,.08-.05.05-.05.05-.1h.16l.52-.47L57,11l.1-.08.13-.08.42-.21h.21l0,.18-.34.13,0,.1-.26.13-.5.5-.13.16,0,.05v.08h-.08l-.16.37-.05.1,0,.13v.24l0,.13.05.18.08.16,0,.13,0,.08.08.1.05.05.34.31.5.24.26.05.21.1.65.1.55-.1,0,.05.05.05.21.6-.11.18,0,.08L59,15.4l-.34,0-1,.24-.94.42-1,.76-.37.21-.05.08-.16.13-.08.1-.34.37-.31.24V18l-.29.34-.29.55-.05.13-.05.13-.21.58-.08.6,0,.42.05.29.08.16.08.34h.05l0,.13.08.16L54,22l.11.1.13.18.44.44.31.13L55,23l.1.1,0,.16.16,0,.11,0h.05l0,0h.05l.29.13.39.1.1.05h.24l.1.08.37,0,.29.08.26-.05.18,0,.05,0,.68-.13.08-.1.42-.16h.18l.42-.39.21-.1.86-.81.16-.21.08-.08.21-.26.42-.73.21-.16.08-.18.18-.18.11.1,0,.1ZM62.29,8v.5l-.52-.08-.08-.05,0,0-.18-.05-.13,0-.11,0-1.33.18-.84.37-.52.31-.13,0-.81.47-.21.18-.26.13-.39.34-.05.08-.08.08-.08.05-.21.16-.21.13-.13.05-.13.16h-.13l-.34.42-.08.13-.08.08-.1.08-.08.1L55,12,55,12l-.08.13,0,.16-.1.13-.13.05h-.08l0-.13v-.21l.31-.55.16-.18,0-.13.39-.44.11-.08.05-.08.13-.21.08,0v0l.42-.39.13-.05.1-.1.42-.29.05,0,.18-.21.05-.05.13-.08,1.25-.73.47-.21.26-.13.13-.1.08,0,.71-.37.86-.29.16-.1.16-.05.1-.05.24-.08L62.29,7l.16,0,.05.05.05.18h.08l0,.18-.13.37Z"/><path class="cls-1" d="M73.2,24.76l.05,0-.13.08-.16,0-.18-.18-.23-.1-.24-.31L72,24.11,71.71,24l-.16-.24-.6-.39-.05-.13-.05,0,.08-.05-.11-.5-.18-.23,0-.42v-.18l0-.16,0-.18-.23-.86-.16-.76.05-.16-.05-.29-.05-.47.08-2.85-.05-.52-.08-.26-.26.34-.63,1.46-.08.13-.08.13-.18.31-.08.18.08.08-1,1.78,0,.05-.1.34-.29.47,0,0v.1l0,.13-.39.63h0l-.05.13-.13.16-.16.39,0,0-.18.34-.13.1-.08.37-.37.71-.23.26-.26,0-.08.13-.31.18-.39,0-.08,0-.05,0h-.08l-.13,0-.1-.1v-.13L64,23.75l-.1-1.33H64L64,22.28,64,22v-.71L63.86,21l.08-.39-.11-.65v-.47l0-.1v-.29l0-.16L64,18l-.13-.39.05-.08.05-.65-.05-.18.05-.13-.05-.39,0-2,.05,0,.08-.34.21-.16,1.33-.31.16.18.05.31,0,.47,0,.26,0,.05-.08.1-.13.47-.08.24-.05.18-.05.1-.13,1.23-.08.31,0,.58-.05.1,0,.1V18l0,.55.13,2-.08.34.05.08v.31l0,.05.05.55v.16l0,.08.13.08h.16l.34-.18.11-.18.05-.08.05-.26.29-.31.39-.63v-.1l0,0,.45-.55.16-.5.42-.73.26-.34.39-.86v0l.08-.16.1-.31,0-.08.13-.13.13-.16.05-.18.18-.6.24-.52.37-1.15.34-.55.68-.34h.11l.13-.05.55-.08.05.39-.08.13,0,.08,0,.1.16,1,0,.08,0,.24-.11.29.08,1.1-.08.34v.21l0,.08,0,.42.16.52.21,2.09L72,21.5l.05.21.08.34v.5l.11.26.11.18.08.18.08.18.21.52.39.76.13.13Z"/><path class="cls-1" d="M76.36,23l-.05.81-.5.21-.73.16H75l-.05,0,0-.13-.13-.76L74.74,23v-.21l0-.34,0-.08h0l-.05-.68v-.08l0-.05-.05-.05.05-.47,0-.05-.05-.18,0-.44-.13-1.67.08-.42-.05-.21V18l0-.05.05-.81,0-.16v-.16l-.08-.58.08-.29,0-1.44,0-.1,0-.16.16-.16.45-.21.05,0h.05l.13,0,.37-.05.13.78-.08,1.12,0,.21-.08.44,0,.55v.24l0,.13.05.71-.13.58v.65l.13.1h.05L76,19.3h.18l.13-.16,0-.18.08-.05.08.05.08.16-.08.55,0,.78-.1.71.05.16,0,.6-.08.13,0,.08h.08l0,.08Zm.47-9.57,0-.05h-.05l-.18.37h0l0,.08v.08l.08.26,0,.13-.11.31v.13l0,.24-.11.92.08.65-.05.31.05.65v.37H76.3v-.05l-.21-.31.08-.39-.05-.1v0L76,16.63v-.18l.08-.21,0-.37.13-2.51,0-.52,0-.13,0-.1-.05-.05-.11,0h-.1l-.08,0-.08.08-.26.13-.24-.16-.16-.24-.11-.1-.05,0v-.1l-.24-.55.16-.5,1-.55.34-.08.39.42.05.26.29.63-.05.18-.23.21-.11.18v.34l.13.26,0,.21.26.26Z"/><path class="cls-1" d="M88.46,28.63l-.08.47v.18l0,.11,0,.05-.18,1.1v.39l-.18.65-.08.13v.05H88l-.21.44-.08.16,0,.1-.05.1-.05.08-.21.26-.08.13,0,.1-.6.76-.05.05-.11.08-.23.31-.11.13-.16.08-.29.21-.05.13-.68.45-.26.16-.08.05-.26.05-.6.37-.31,0-.13.05-.08,0-.1.05-.08.08-1,.21H82l-.16,0-.26.05-.1-.05-.16,0-.16,0-.26,0-.13,0-.16,0-.29.05L80,36.37,79.23,36l-.13,0-.31-.24-.37-.16-.63-.44v-.08l.08-.1.05-.34.37.13.08.18.13.08.16.1.18.08.24.18,1,.31h.84l0,.05.1,0,.21-.08h.39l.29,0h.16l.18-.05.39-.05.37-.16v.05l0,0,.05,0,.31-.1.16-.08.05-.05.16,0,.26-.08L84.2,35h.05l.63-.44.1-.16.08-.05.11-.1.08-.05v-.05l.11,0,.1-.16.13-.1.37-.52.11-.08.05-.08.26-.39,0-.08,0-.05.08-.13.57-1.41.18-1,.08-.86-.21-.92,0-.1-.05-.18L87,27.59l-.37-1v-.08l-.08-.16-.18-.63-.68-1-.08-.08-.16-.16-.42-.39-.55-.26h-.13l-.29-.08-.23.05-.29.05-.63.26-.39.05-.29.08-.13.1-.63.16-.24.13-.23.05-.18.08-.13.18-.34.18-.47,0L79.65,25l-.05-.08-.18-.05-.08-.05,0-.05-.05-.1h.05v-.08l0-.05.08-.08.94-.76.08-.08.13-.1.45-.37,0-.08h.05l.13-.13.16-.13,0,0,.42-.47,0-.08,0-.05,0-.08-.05-.21.08-.18.34-.31,1.18-.73.08-.08v-.05l.44-.31.24-.31.55-.16.16-.16.05,0,.11,0h.05l.05.08.08.1,0,.29.18.16,0,.31-.08.39-.31.47-.31.16-.05.21-.13.13-.13.16-.45.31,0,.08-.08.1,0,0h-.13l-.18.21.44.05,1-.31.34.1.23.13.08,0,0,0,.44.37.81.89.11.31.08.08.05.26.1.08.11.05.05.08.13.13,0,.05,0,.1.08.37.16.29.23.29,0,.34,0,.05.11.1.18,1.31,0,.21,0,.05ZM86.37,16l-.05.55L86,17.1l0,.26-.13.37-.39.44-.39.6-.31.16L83.6,20l-1,.55-.34.29-.37.24-.37.05,0,.08-.08,0-.31.05-.31.24-.47.08-.47-.08-.31.05-.21-.05-.26-.18L79,21.29h0l-.39-.55-.1-.44.13-.68,0-.1,0-.08.08-.08.16-.26,0-.1,0-.05.16-.42.5-.71.11-.26.23-.24.55-.78.37-.34L81,15.9l.39-.37v-.08l.1-.08.47-.52-.16-.37.05-.42v-.13l0-.08,0-.37L82,13.1l-.08-1.44,0-.05,0-.18.05-.1L82,11l.11-.73,0-.05,0,0,.05-.81.05-.26,0-.42V8.45l0-.13.34-.24.08-.18.16-.13.21.13.26.08.08,0v.05l.08,0,.05,1.15-.11.5v.37l-.05.08-.05.13-.08.05,0,.26-.13,1-.16.24,0,.55-.21.92h0l0,.13,0,.08,0,.71.1,0h.08l.23-.16.5-.58.24-.1.16-.26.08-.08L84,13h.13v.1l.37.16h.05l.13.1.13.05.58.34.55.44.16.42.23.29.08.1,0,.08,0,.08.13.57Zm-2.2.81-.73-1.33-.23-.5v-.34h0v-.26l-.08-.1h-.1l-.26.21-.58.78-.05,0-.23.26-.6.89,0,0-.11.16-.1.16-.73,1.07-.68,1.49-.08.34,0,.39.13.18.23.16.37.13,1-.08.65-.24.47-.23.16-.1.13-.08.39-.26,1-.84.29-.44v-.1l0-.16,0-.55Z"/><path class="cls-1" d="M100.28,24.48h-.08l-.42-.31L99.44,24l-.52-.39-.16-.26L98.42,22l0-.42-.18-.47,0-.13v-.1l0,0L98,20l.05-.42-.37-1.86-.11-.26-.1-.08-.08,0-.08,0-.16.18-.13.29,0,0-.11.13,0,.16,0,.13-.08.18-.05.05-.34.63-.11.34-.05.08-.08.1-.08.13-.34.92h0l-.1.1-.26.55-.31.37-.63.34-.23.18-.47.24-.24,0-.1-.13-.11-1v-.08l.05-.13h0l-.05-.05,0,0,0-.05V21.1l0,0-.05-1.23.05-.18-.05-.05-.05-1v-.08l0-.21,0-.31,0-.78-.05,0,.05-.05,0-.08V17l-.08-.08.1-1-.1-.24v-.16l.05-.37L93.25,15l-.08-.1v-.05l-.08-.08-.21.34-.08.08,0,.1-.39,1,0,.13-.08.05-.13.44-.24.39-.68,2.09-.29.65-.08.52-.05.08-.11.13.08,0L90.4,22l-.13.26.08.18-.18.29,0,.16-.05.08,0,.05-.11.23-.37.39-.08,0-.16.1-.08.05-.21.18H89l-.1.1-.29,0-.11.08-.05,0-.08,0-.11-.08L88.17,23l0-.05,0-.08.05-.13-.05-.52v-.08l.05-.08,0,0-.05,0,0-.13h0l0,0,0-1.12.08-.18-.18-.78,0-.1.05,0,0-.6,0-.23,0-.18,0-.44-.05-.47.08-.05-.05-.08,0-.1.16,0,0-.44-.05-.1,0-.05h-.05l-.08-.6,0-.52-.08-.34,0-.1,0-.08,0-.1.05-.39.1-.18.29-.16.86-.21,0,.42.16.23v.08l0,.16-.05.37-.18.18-.05.13.05.34,0,.1V19.3l-.05.13,0,0,0,2,0,.13.13.1.05,0,.13-.08.05-.1.08-.08.13-.31.42-.76.08-.37.31-.76,0-.1.11-.21.05-.05.13-.52.08-.13.08-.05.16-.47.11-.29.1-.13,0-.16.08-.18.05-.13h0v-.1l.08-.18L92,16l.18-.29v-.05l0-.08.26-.37-.05-.05L93,14l.23-.16.5-.21.13-.08,0,0,.42-.1.16-.08.37,0,0,1.41-.05.31,0,.24,0,.13.08.08-.21,3.06,0,.52-.08.29-.08.16H94.4l.18.44,0,.16.05.08.08.05h.05l.08,0,.18-.29h.08l.37-.55.05,0,0-.1.11-.16.26-1,.23-.42.11-.31.13-.18.16-.55.16-.31.05-.08.39-.63,0,0,.05-.1,0-.44.05,0,0-.08.13-.05.21-.05.21-.13.5-.16.34,0,.1-.05h.05l.08,0,.05.05.05,1.83.08.44.13,2.12.13.5V21l.16,1.15.34,1.31Z"/><path class="cls-1" d="M114.42,23.46l-.13.08-.13.1-.63.44-.52.21-.1,0,0-.08h-.23l-.37-.29-.42-.63-.21-.24-.13-.42-.31-.55-.08-.1,0-.13-.13-.1,0-.1-.08-.21,0-.29-.21-.42,0-.42-.08-.1-.08-.24,0-.24-.16-.21h-.13l-.08.1v.08H110v.05l-.05.13-.57.89-.52.55-.08.18-.6.52-.21.29-.29.16-.18.21L107,23l-.23.08-.13.1-.26.1-.08.1-.16,0-.44.34-.29.05-.42.24-.86.29-.26,0-.16.13-.26-.08-.58-.34-.21-.18h-.11l-.13.08-.18.16-.18,0-.1.05-.34-.13-.55-.29-.18-.39.05-.78.08-.1v-.08l.39-.55.08-.08.13-.18.21-.42.84-.76.1-.05,0-.05.18-.1.13-.18.26-.18.29-.29.44-.26.11-.08.05,0,0-.08.08,0,.18-.16.05,0,0-.1.1-.16.34-.18h.13l.39-.26.29-.08.18-.13.16-.05v-.05l.5-.18,0,0,.16-.08.29-.13.6-.16.18-.08.84,0,.44.26.24.18.1.18h.08l-.18-.31-.05-.47-.18-.29-.21-.6-.18-.34-.39-.34-.55-.05-.21.13-.94,1.07-.37.31-.13.1-.1,0-.08,0-.08-.08V16.9l.24-.18v-.05l0-.08.08-.1.26-.31.34-.31.34-.42,1.15-1,.26,0,.37-.24.08-.05h.08l.08,0,.08.05.29,0,.5.5.21.34.29.71.11.13.31.89v.1l.05.16.05.42.1.24v.1l.05.21,0,.18.05.21.21.68.11.18,0,.34.21.37,0,.47.13.26.18.65.45.94.16.18.05.1.16.18,0,.24.6.47.34-.05.05,0,.05,0h.21Zm-11.71-2.51-.21.13-.08.1-.05.13-.1.21-.08.08v.24l0,.08-.05.1-.13.13-.05.26.05.13.08.24.16.16,0-.08h.21l.1,0,.11-.13,0-.13v-.1l0-.08.18-.47.05-.18.11-.13v0l.05-.08,0-.11.08-.23.39-.58.1-.21-.05-.05-.08-.05-.13.05-.08.08v0l-.26.16Zm6.41-3.24-.18-.16-.18-.05-.57-.05-.63.16-.21.08-.26.1-.11.08-.08,0-1,.47-.11.08-.05.08-.16.05-.13.05-.05.08-.18.13,0,.05-.05,0-.05.05-.13.1-.5.58-.05.13-.05.18-.13.1,0,.1-.18.39-.08.05-.05.16-.13.21,0,.31-.16.26-.05.37.05.52.16.34.16.08.13.29.31.21.37.05.52-.05.65-.24.11-.1.21-.05.52-.29.52-.5.08,0,.05-.05.84-1,.05-.08.13-.1.08-.13.21-.31.21-.52.1-.18.08-.13v-.05l.05-.1.13-.37V19l0-.08.05-.08v-.63l-.05-.16v-.13Z"/></svg>