<svg xmlns="http://www.w3.org/2000/svg" xmlns:xlink="http://www.w3.org/1999/xlink" viewBox="0 0 300 150"><defs><style>.cls-1{isolation:isolate;}.cls-2{fill:#111b34;}.cls-3{fill:#223760;}.cls-4{fill:#34344c;}.cls-5{fill:#8b9bb1;}.cls-6{fill:#464b4c;}.cls-7{fill:#9191bc;}.cls-8{fill:#b3b2da;}.cls-9{fill:#c6c6c6;}.cls-10{fill:url(#linear-gradient);}.cls-11,.cls-22{fill:#474763;}.cls-12{fill:#0c1528;}.cls-13{fill:#bdbdd1;}.cls-14{opacity:0.4;fill:url(#linear-gradient-2);}.cls-14,.cls-15,.cls-17,.cls-22,.cls-32,.cls-34,.cls-47,.cls-49,.cls-50,.cls-72,.cls-74,.cls-75,.cls-76,.cls-77,.cls-78{mix-blend-mode:multiply;}.cls-15{opacity:0.8;fill:url(#linear-gradient-3);}.cls-16,.cls-17{fill:#292942;}.cls-17,.cls-78{opacity:0.3;}.cls-18{fill:#8e8e8e;}.cls-19{fill:#23233a;}.cls-20{fill:#575777;}.cls-21{fill:#686868;}.cls-22,.cls-32,.cls-34,.cls-47,.cls-49,.cls-72,.cls-74,.cls-75,.cls-77{opacity:0.2;}.cls-23{fill:#161628;}.cls-24{fill:#fff;mix-blend-mode:screen;}.cls-24,.cls-50,.cls-76{opacity:0.1;}.cls-25{fill:#61777d;}.cls-26{fill:#c5c5ea;}.cls-27{fill:#75759e;}.cls-28{fill:#576a70;}.cls-29{fill:#07008f;}.cls-30{fill:url(#linear-gradient-4);}.cls-31{fill:url(#linear-gradient-5);}.cls-32{fill:url(#linear-gradient-6);}.cls-33{fill:#ff3d60;}.cls-34{fill:url(#linear-gradient-7);}.cls-35{fill:url(#linear-gradient-8);}.cls-36{fill:url(#linear-gradient-9);}.cls-37{fill:#0f3baa;}.cls-38{fill:#9f1c3b;}.cls-39{fill:#123fd0;}.cls-40{fill:#eee;}.cls-41{fill:#dbdbdb;}.cls-42{fill:#121217;}.cls-43{fill:#121218;}.cls-44{fill:url(#linear-gradient-10);}.cls-45{fill:url(#linear-gradient-11);}.cls-46{fill:url(#linear-gradient-12);}.cls-47{fill:url(#linear-gradient-13);}.cls-48{fill:url(#linear-gradient-14);}.cls-49{fill:url(#linear-gradient-15);}.cls-50{fill:url(#linear-gradient-16);}.cls-51{fill:#1f3051;}.cls-52{fill:#1a2947;}.cls-53{fill:#baa999;}.cls-54{fill:#d3d3d3;}.cls-55{fill:#f44a4a;}.cls-56{fill:#e52c54;}.cls-57{fill:#2525bf;}.cls-58{fill:#0400a4;}.cls-59{fill:#d17537;}.cls-60{fill:#6a7889;}.cls-61{fill:#536270;}.cls-62{fill:#8da4b7;}.cls-63{fill:#d8eafe;}.cls-64{fill:url(#linear-gradient-17);}.cls-65{fill:url(#linear-gradient-18);}.cls-66{fill:#172b49;}.cls-67{fill:#0f213a;}.cls-68{fill:url(#linear-gradient-19);}.cls-69{fill:url(#linear-gradient-20);}.cls-70{fill:url(#linear-gradient-21);}.cls-71{fill:#1515b7;}.cls-72{fill:url(#linear-gradient-22);}.cls-73{fill:#cb6e05;}.cls-74{fill:url(#linear-gradient-23);}.cls-75{fill:#13495e;}.cls-76{fill:#235e7c;}.cls-77{fill:url(#linear-gradient-24);}.cls-78{fill:#e2c7a3;}.cls-79{fill:#e2dbc5;}</style><linearGradient id="linear-gradient" x1="-21.38" y1="106.97" x2="-52.81" y2="70.34" gradientTransform="translate(179.53)" gradientUnits="userSpaceOnUse"><stop offset="0" stop-color="#1b2944"/><stop offset="1" stop-color="#111b34"/></linearGradient><linearGradient id="linear-gradient-2" x1="-38.77" y1="86.56" x2="-50.27" y2="73.15" gradientTransform="translate(179.53)" gradientUnits="userSpaceOnUse"><stop offset="0" stop-color="#dadae8"/><stop offset="0.54" stop-color="#bdbdd1"/><stop offset="1" stop-color="#84849b"/></linearGradient><linearGradient id="linear-gradient-3" x1="-49.99" y1="90.21" x2="-58.92" y2="79.8" xlink:href="#linear-gradient-2"/><linearGradient id="linear-gradient-4" x1="0.67" y1="106.63" x2="-8.65" y2="123.94" gradientTransform="translate(179.53)" gradientUnits="userSpaceOnUse"><stop offset="0.01" stop-color="#dba292"/><stop offset="0.99" stop-color="#df807a"/></linearGradient><linearGradient id="linear-gradient-5" x1="-4.76" y1="111.98" x2="-8.58" y2="136.33" xlink:href="#linear-gradient-4"/><linearGradient id="linear-gradient-6" x1="-12.64" y1="131.02" x2="1.96" y2="118.83" gradientTransform="translate(179.53)" gradientUnits="userSpaceOnUse"><stop offset="0.01" stop-color="#dea595"/><stop offset="0.99" stop-color="#e2837a"/></linearGradient><linearGradient id="linear-gradient-7" x1="19.44" y1="103.86" x2="24.02" y2="103.86" xlink:href="#linear-gradient-4"/><linearGradient id="linear-gradient-8" x1="1592.82" y1="116.88" x2="1578.79" y2="85.93" gradientTransform="matrix(-1, 0, 0, 1, 1776.56, 0)" gradientUnits="userSpaceOnUse"><stop offset="0" stop-color="#f6ab1e"/><stop offset="0.99" stop-color="#f6880a"/></linearGradient><linearGradient id="linear-gradient-9" x1="1593.74" y1="111.32" x2="1582" y2="139.44" gradientTransform="matrix(-1, 0, 0, 1, 1776.56, 0)" gradientUnits="userSpaceOnUse"><stop offset="0" stop-color="#342398"/><stop offset="0.99" stop-color="#3d2383"/></linearGradient><linearGradient id="linear-gradient-10" x1="1588.44" y1="84.15" x2="1585.15" y2="74.97" gradientTransform="matrix(-1, 0, 0, 1, 1776.56, 0)" xlink:href="#linear-gradient-4"/><linearGradient id="linear-gradient-11" x1="8.74" y1="67.42" x2="23.64" y2="102.33" gradientTransform="translate(179.53)" gradientUnits="userSpaceOnUse"><stop offset="0.01" stop-color="#7e4000"/><stop offset="0.99" stop-color="#7d2c0b"/></linearGradient><linearGradient id="linear-gradient-12" x1="0.12" y1="88.09" x2="-2.32" y2="103.63" xlink:href="#linear-gradient-4"/><linearGradient id="linear-gradient-13" x1="-9.09" y1="104.17" x2="12.43" y2="86.17" xlink:href="#linear-gradient-6"/><linearGradient id="linear-gradient-14" x1="17.28" y1="97.35" x2="24.66" y2="97.35" xlink:href="#linear-gradient-4"/><linearGradient id="linear-gradient-15" x1="16.25" y1="103.22" x2="28.76" y2="92.76" xlink:href="#linear-gradient-6"/><linearGradient id="linear-gradient-16" x1="-5.04" y1="106.16" x2="14.08" y2="121.89" gradientTransform="translate(179.53)" gradientUnits="userSpaceOnUse"><stop offset="0.02" stop-color="#0f3baa"/><stop offset="0.98" stop-color="#163670"/></linearGradient><linearGradient id="linear-gradient-17" x1="202.4" y1="28.07" x2="199.92" y2="33.24" gradientTransform="matrix(-1, 0, 0, 1, 347.08, 1)" xlink:href="#linear-gradient-4"/><linearGradient id="linear-gradient-18" x1="196.02" y1="37.27" x2="198.23" y2="37.27" gradientTransform="matrix(-1, 0, 0, 1, 347.86, 0)" xlink:href="#linear-gradient-4"/><linearGradient id="linear-gradient-19" x1="202.53" y1="63.08" x2="203.72" y2="63.08" gradientTransform="matrix(-1, 0, 0, 1, 347.08, 1)" gradientUnits="userSpaceOnUse"><stop offset="0.01" stop-color="#daa191"/><stop offset="0.99" stop-color="#de807a"/></linearGradient><linearGradient id="linear-gradient-20" x1="197.56" y1="62.83" x2="198.72" y2="62.83" xlink:href="#linear-gradient-19"/><linearGradient id="linear-gradient-21" x1="206.61" y1="24.53" x2="205.19" y2="41.2" gradientTransform="matrix(-1, 0, 0, 1, 347.08, 1)" xlink:href="#linear-gradient-4"/><linearGradient id="linear-gradient-22" x1="200.99" y1="30.98" x2="200.02" y2="32.99" xlink:href="#linear-gradient-19"/><linearGradient id="linear-gradient-23" x1="198.47" y1="37.16" x2="197.09" y2="38.26" gradientTransform="matrix(-1, 0, 0, 1, 347.86, 0)" xlink:href="#linear-gradient-19"/><linearGradient id="linear-gradient-24" x1="212.81" y1="30.55" x2="201.08" y2="39.82" xlink:href="#linear-gradient-19"/></defs><title>online-classes</title><g class="cls-1"><g id="Layer_1" data-name="Layer 1"><path class="cls-2" d="M174,137.74a3.09,3.09,0,0,1,1.4,2.42,1,1,0,0,1-.41.91l1.5-.87a1,1,0,0,0,.41-.91,3.1,3.1,0,0,0-1.4-2.42,1,1,0,0,0-1-.09l-1.5.86A1,1,0,0,1,174,137.74Z"/><path class="cls-3" d="M173,137.64a1,1,0,0,0-.41.91A3.1,3.1,0,0,0,174,141a1,1,0,0,0,1,.1h0a1,1,0,0,0,.41-.91,3.09,3.09,0,0,0-1.4-2.42,1,1,0,0,0-1-.1Z"/><path class="cls-4" d="M174.8,138.91a2.59,2.59,0,0,1,.38,1.26.62.62,0,0,1-1,.59,2.64,2.64,0,0,1-.9-1,2.6,2.6,0,0,1-.37-1.25.76.76,0,0,1,.29-.69.75.75,0,0,1,.74.1A2.55,2.55,0,0,1,174.8,138.91Z"/><path class="cls-2" d="M187.54,145.25a3.09,3.09,0,0,1,1.39,2.42,1,1,0,0,1-.41.91l1.49-.87a1,1,0,0,0,.41-.9,3.09,3.09,0,0,0-1.4-2.42,1,1,0,0,0-1-.1l-1.5.87A1,1,0,0,1,187.54,145.25Z"/><path class="cls-3" d="M186.55,145.15a1,1,0,0,0-.41.9,3.08,3.08,0,0,0,1.4,2.42,1,1,0,0,0,1,.1h0a1,1,0,0,0,.41-.91,3.09,3.09,0,0,0-1.39-2.42,1,1,0,0,0-1-.1Z"/><path class="cls-4" d="M188.32,146.41a2.63,2.63,0,0,1,.37,1.25.61.61,0,0,1-1,.59,2.56,2.56,0,0,1-.9-1,2.59,2.59,0,0,1-.38-1.25.62.62,0,0,1,1-.6A2.62,2.62,0,0,1,188.32,146.41Z"/><path class="cls-2" d="M207.28,140a3.11,3.11,0,0,1,1.4,2.43,1,1,0,0,1-.41.9l1.5-.87a1,1,0,0,0,.41-.9,3.09,3.09,0,0,0-1.4-2.42,1,1,0,0,0-1-.1l-1.49.86A1,1,0,0,1,207.28,140Z"/><path class="cls-3" d="M206.29,139.88a1,1,0,0,0-.41.91,3.09,3.09,0,0,0,1.4,2.42,1,1,0,0,0,1,.1h0a1,1,0,0,0,.41-.9,3.11,3.11,0,0,0-1.4-2.43,1,1,0,0,0-1-.1Z"/><path class="cls-4" d="M208.05,141.15a2.57,2.57,0,0,1,.38,1.26.75.75,0,0,1-.29.69.76.76,0,0,1-.74-.1,2.86,2.86,0,0,1-1.27-2.21.75.75,0,0,1,.29-.69.76.76,0,0,1,.74.1A2.59,2.59,0,0,1,208.05,141.15Z"/><path class="cls-2" d="M203.39,129.06a3.09,3.09,0,0,1,1.4,2.42,1,1,0,0,1-.41.91l1.5-.86a1,1,0,0,0,.41-.9,3.09,3.09,0,0,0-1.4-2.42,1,1,0,0,0-1-.1l-1.49.86A1,1,0,0,1,203.39,129.06Z"/><path class="cls-3" d="M202.4,129a1,1,0,0,0-.41.91,3.1,3.1,0,0,0,1.4,2.42,1,1,0,0,0,1,.1h0a1,1,0,0,0,.41-.91,3.09,3.09,0,0,0-1.4-2.42,1,1,0,0,0-1-.1Z"/><path class="cls-4" d="M204.16,130.23a2.56,2.56,0,0,1,.38,1.25.77.77,0,0,1-.29.69.76.76,0,0,1-.74-.1,2.83,2.83,0,0,1-1.27-2.21.61.61,0,0,1,1-.59A2.55,2.55,0,0,1,204.16,130.23Z"/><path class="cls-2" d="M183.5,126.27a3.1,3.1,0,0,1,1.4,2.42,1,1,0,0,1-.41.91l1.5-.86a1,1,0,0,0,.41-.91,3.09,3.09,0,0,0-1.4-2.42,1,1,0,0,0-1-.1l-1.5.86A1,1,0,0,1,183.5,126.27Z"/><path class="cls-3" d="M182.51,126.17a1,1,0,0,0-.41.9,3.09,3.09,0,0,0,1.4,2.42,1,1,0,0,0,1,.1h0a1,1,0,0,0,.41-.91,3.1,3.1,0,0,0-1.4-2.42,1,1,0,0,0-1-.1Z"/><path class="cls-4" d="M184.27,127.44a2.6,2.6,0,0,1,.38,1.26.61.61,0,0,1-1,.59,2.55,2.55,0,0,1-.9-1,2.6,2.6,0,0,1-.38-1.25.61.61,0,0,1,1-.59A2.61,2.61,0,0,1,184.27,127.44Z"/><g class="cls-1"><polygon class="cls-5" points="191.03 133.59 191.02 134.79 183.31 125.79 183.32 124.59 191.03 133.59"/><polygon class="cls-5" points="204.5 127.09 204.5 128.28 193.01 134.96 193.01 133.77 204.5 127.09"/><polygon class="cls-6" points="191.25 134.44 191.25 135.63 191.09 135.53 191.1 134.34 191.25 134.44"/><polygon class="cls-5" points="191.1 134.34 191.09 135.53 174.5 137.62 174.51 136.42 191.1 134.34"/><polygon class="cls-7" points="174.51 136.42 174.5 137.62 174.23 136.89 174.24 135.7 174.51 136.42"/><polygon class="cls-5" points="208.03 138.73 208.03 139.92 192.49 135.57 192.49 134.38 208.03 138.73"/><polygon class="cls-7" points="208.56 138.12 208.56 139.31 208.03 139.92 208.03 138.73 208.56 138.12"/><polygon class="cls-7" points="188.87 144.19 188.87 145.38 187.71 145.24 187.71 144.05 188.87 144.19"/><polygon class="cls-5" points="192.49 134.38 192.49 135.57 188.87 145.38 188.87 144.19 192.49 134.38"/><polygon class="cls-8" points="204.5 127.09 193.01 133.77 208.56 138.12 208.03 138.73 192.49 134.38 188.87 144.19 187.71 144.05 191.25 134.44 191.1 134.34 174.51 136.42 174.24 135.7 191.03 133.59 183.32 124.59 184.46 124.27 192.14 133.23 203.6 126.57 204.5 127.09"/></g><path class="cls-5" d="M192.71,119.18a.4.4,0,0,0-.23-.32,1.25,1.25,0,0,0-1.12,0,.4.4,0,0,0-.23.32v14.37a.41.41,0,0,0,.23.32,1.25,1.25,0,0,0,1.12,0,.4.4,0,0,0,.23-.32Z"/><path class="cls-9" d="M160.67,103.22l-19.3,11.22a.27.27,0,0,0,.11-.25.87.87,0,0,0-.39-.67l-17.77-10.26a16.44,16.44,0,0,1-2.26-1.53,7.55,7.55,0,0,1-1-1,4,4,0,0,1-.77-1.28,3.7,3.7,0,0,1-.2-1.24,6.84,6.84,0,0,1,.11-1.1,6.16,6.16,0,0,1,.26-1,45.4,45.4,0,0,1,2.94-6.07c2-3.68,4.64-8,6.75-11.31,1.05-1.68,2-3.13,2.64-4.16l.79-1.21.28-.43,19.3-11.22-.28.43-.78,1.21c-.66,1-1.59,2.48-2.64,4.16-2.11,3.36-4.72,7.64-6.75,11.31a46,46,0,0,0-2.94,6.08,6.65,6.65,0,0,0-.27,1,6.8,6.8,0,0,0-.1,1.1,3.58,3.58,0,0,0,.2,1.24,4.12,4.12,0,0,0,.77,1.28,7.69,7.69,0,0,0,1,1A16.7,16.7,0,0,0,142.62,92l17.77,10.26a.87.87,0,0,1,.39.67A.27.27,0,0,1,160.67,103.22Z"/><path class="cls-10" d="M157.65,100.71l-8.78-5.07-1.67-1L142.62,92l-.17-.1-.63-.38-.51-.34-.42-.29-.34-.26-.18.1.13-.08c0-.09-.07-.11-.14-.17l-.11-.09-.23-.21a4.56,4.56,0,0,1-1.62-2.61.07.07,0,0,1,0,0s0-.05,0-.08,0-.08,0-.12a6,6,0,0,1,.35-2.46l.18-.47q.3-.77.76-1.73c.54-1.15,1.23-2.46,2-3.88,2-3.67,4.64-8,6.75-11.31l1-1.52c.65-1,1.24-1.93,1.69-2.64l.78-1.21.27-.43L132.82,73l-.27.42-.78,1.21c-.46.7-1,1.6-1.69,2.64-.3.48-.63,1-1,1.52-2.11,3.36-4.72,7.64-6.75,11.31-.78,1.4-1.47,2.73-2,3.87-.27.58-.51,1.11-.7,1.58l0,.06c0,.11-.08.2-.12.31l-.09.25-.14.43a5.44,5.44,0,0,0-.2,2.15.44.44,0,0,0,0,.11h0a3.27,3.27,0,0,0,.25.83,4.45,4.45,0,0,0,.53.89,7.66,7.66,0,0,0,1.37,1.33l.34.26.42.3.51.33c.2.13.41.26.63.39l.17.1,4.51,2.6.67.39.18.1,1.93,1.11.39.23,2.36,1.36.68.4.18.11.82.47,2.36,1.36.32.19.57.33,2.81,1.63h0l19.29-11.22Z"/><path class="cls-11" d="M160.78,102.95v0a0,0,0,0,0,0,0v0a.05.05,0,0,0,0,0v-.06s0,0,0,0a0,0,0,0,1,0,0s0,0,0,0v-.06h0v-.08l0-.05,0,0,0,0v0h0l0,0h0v0h-.12l-19.3,11.22h0l0,0,0,0h0l0,0h0v0l0,0v0l0,0,0,0,0,0v.06s0,0,0,0a.05.05,0,0,1,0,0v.1a0,0,0,0,1,0,0,.07.07,0,0,0,0,0h0a.06.06,0,0,1,0,0s0,0,0,0a0,0,0,0,1,0,0v0h0v.06h0a.08.08,0,0,0,0,0v.06l0,0a.16.16,0,0,1-.06.06l19.3-11.22a.23.23,0,0,0,.06-.06V103a0,0,0,0,0,0,0h0v0h0Z"/><path class="cls-12" d="M141.48,114.19c0,.25-.18.34-.39.22l-17.76-10.25a29.25,29.25,0,0,1-3.47-2.65c-.7-.6-.41-.4-.8-1a5.64,5.64,0,0,1-.56-1.23,3.49,3.49,0,0,1-.11-.44,4.55,4.55,0,0,1-.11-1.07,7.68,7.68,0,0,1,.11-1.24,6.67,6.67,0,0,1,.3-1.07c.14-.41.32-.85.54-1.34.43-1,1-2.12,1.66-3.37,1.32-2.5,3-5.39,4.68-8.14,3.33-5.5,6.57-10.43,6.57-10.44a.23.23,0,0,1,.34,0,.72.72,0,0,1,.19.16.67.67,0,0,1,.15.7l-.28.43-.78,1.21c-.66,1-1.59,2.48-2.64,4.16-2.11,3.36-4.72,7.64-6.75,11.31a45.11,45.11,0,0,0-2.95,6.07,6.71,6.71,0,0,0-.26,1,6.5,6.5,0,0,0-.11,1.1h0a3.55,3.55,0,0,0,.2,1.23,4,4,0,0,0,.77,1.28,8,8,0,0,0,1,1,16.31,16.31,0,0,0,2.26,1.53l17.77,10.26A.85.85,0,0,1,141.48,114.19Z"/><path class="cls-13" d="M152.17,61.54a.07.07,0,0,0,0,0h0a0,0,0,0,1,0,0v0a0,0,0,0,1,0,0v0a0,0,0,0,0,0,0,0,0,0,0,0,0,0v-.06h0v-.09h0v0l0,0,0,0h0l0,0,0,0v0h0l0,0v0h0v0l0,0h-.07l0,0h-.3l-19.3,11.22.06,0h.07a.29.29,0,0,1,.14.05l.1.06h0l.09.1.06.08h0l.05.08h0l0,.1h0a.53.53,0,0,1,0,.18h0a.43.43,0,0,1,0,.09h0a.37.37,0,0,1,0,.08h0l0,.06,19.3-11.22h0v0h0v0h0v0h0v-.05Z"/><path class="cls-14" d="M152.11,61.75l-.27.43-.78,1.21c-.45.7-1,1.6-1.69,2.64l-1,1.52c-2.1,3.36-4.72,7.64-6.75,11.31-.77,1.42-1.47,2.73-2,3.88q-.46,1-.76,1.73l-.18.47a6,6,0,0,0-.35,2.46s0,.07,0,.12,0,0,0,.08c-5.33,3.34-14.53,9.13-19,12.08a3.27,3.27,0,0,1-.25-.83h0a.44.44,0,0,1,0-.11,5.44,5.44,0,0,1,.2-2.15l.14-.43.09-.25c0-.1.07-.2.12-.31l0-.06c.19-.47.42-1,.7-1.58.55-1.14,1.24-2.47,2-3.87,2-3.67,4.64-8,6.75-11.31.33-.53.65-1,1-1.52.66-1,1.23-1.94,1.69-2.64l.78-1.21.27-.42Z"/><path class="cls-15" d="M132.82,73l-.28.43-.78,1.21c-.66,1-1.59,2.48-2.64,4.16-2.11,3.36-4.72,7.64-6.75,11.31a45.11,45.11,0,0,0-2.95,6.07,6.71,6.71,0,0,0-.26,1,6.5,6.5,0,0,0-.11,1.1h0l-.51.64-.16,0a4.55,4.55,0,0,1-.11-1.07,7.68,7.68,0,0,1,.11-1.24,6.67,6.67,0,0,1,.3-1.07c.14-.41.32-.85.54-1.34.43-1,1-2.12,1.66-3.37,1.32-2.5,3-5.39,4.68-8.14,3.33-5.5,6.57-10.43,6.57-10.44a.23.23,0,0,1,.34,0,.72.72,0,0,1,.19.16A.67.67,0,0,1,132.82,73Z"/><path class="cls-11" d="M166.95,2.58l-.13-.06,0,0-.12,0h0l-.16,0h-.24l-.11,0-.09,0-.1,0-.15.05-.08,0-.28.14-6.2,3.58L119.08,29.48,93.7,44.13,91.8,43l24.93-14.39L157.21,5.27l6.29-3.63.27-.14h0l.06,0,.15,0,0,0h.75l.06,0,0,0h0l.11.05Z"/><path class="cls-2" d="M167.76,63.28a4.82,4.82,0,0,1-2.18,3.78l-11.46,6.61L127.38,89.11,93.89,108.45c-1.21.69-2.19.13-2.19-1.25l0-6.3-.15-53a4.8,4.8,0,0,1,2.18-3.77L148.49,12.5,165.4,2.74a2.46,2.46,0,0,1,.53-.23c1-.27,1.66.31,1.66,1.49l.15,53Z"/><path class="cls-16" d="M93.7,44.13a3.19,3.19,0,0,0-.34.24l-.06,0-.31.27-.08.07-.15.16L92.7,45l-.08.11-.1.12-.06.09-.11.16,0,.06-.14.22,0,0L92,46l0,.06-.1.21a.07.07,0,0,1,0,0c0,.08-.07.16-.09.25l0,.07-.06.18a.51.51,0,0,0,0,.09c0,.05,0,.11,0,.16s0,.07,0,.1l0,.12c0,.06,0,.12,0,.17l0,.1c0,.13,0,.26,0,.38l.06,23,.11,36.28a1.54,1.54,0,0,0,.64,1.4l-1.43-.83-.48-.28a1.53,1.53,0,0,1-.63-1.4l-.11-37.76-.06-21.53a2.8,2.8,0,0,1,0-.38v0a.25.25,0,0,0,0,0c0-.06,0-.12,0-.18s0-.06,0-.08a.31.31,0,0,0,0,0s0-.07,0-.1,0-.07,0-.11a.35.35,0,0,0,0-.06.39.39,0,0,0,0-.09.74.74,0,0,0,0-.08l0-.1,0-.07v0a1.85,1.85,0,0,1,.08-.2h0v0l.07-.15a.19.19,0,0,1,0-.06.22.22,0,0,1,0-.07l0-.06.07-.14,0,0h0l.11-.19,0,0,0-.06.06-.1,0-.05.06-.08,0-.06.06-.07.09-.1,0,0,0-.05.15-.15,0,0,0,0c.1-.09.2-.19.31-.27l.06,0A3.07,3.07,0,0,1,91.8,43Z"/><path class="cls-17" d="M92.33,108.61l-1.43-.83-.48-.28a1.53,1.53,0,0,1-.63-1.4l-.11-37.76,1.9,2.58.11,36.28A1.54,1.54,0,0,0,92.33,108.61Z"/><path class="cls-4" d="M167.75,57,91.67,100.9l-.15-53a4.82,4.82,0,0,1,2.18-3.78L165.4,2.74c1.21-.7,2.19-.14,2.2,1.25Z"/><polygon class="cls-5" points="165.48 5.53 165.48 55.27 138.74 70.74 135.72 72.48 134.45 73.21 133.71 73.65 117.65 82.94 116.14 83.81 114.91 84.52 114.78 84.6 111.13 86.7 110.34 87.17 93.7 96.8 93.7 47.07 165.48 5.53"/><g class="cls-1"><polygon class="cls-18" points="125.54 23.14 127.83 21.81 127.82 22.15 125.54 23.46 125.54 23.14"/><polygon class="cls-16" points="128.22 24.21 128.21 25.63 127.88 25.45 127.89 24.49 125.54 23.14 125.54 23.46 125.12 23.7 125.12 22.42 128.22 24.21"/><polygon class="cls-19" points="128.22 24.21 130.5 22.88 130.5 24.31 128.21 25.63 128.22 24.21"/><polygon class="cls-20" points="127.42 21.09 125.12 22.42 128.22 24.21 130.5 22.88 127.42 21.09"/></g><path class="cls-19" d="M127.26,21.28v1.37a.37.37,0,0,0,.22.3,1.15,1.15,0,0,0,1.05,0,.37.37,0,0,0,.22-.3h0V21.28Z"/><path class="cls-21" d="M128.53,21a.32.32,0,0,1,0,.61,1.19,1.19,0,0,1-1.05,0,.32.32,0,0,1,0-.61A1.15,1.15,0,0,1,128.53,21Z"/><circle class="cls-11" cx="128.35" cy="19.18" r="3"/><path class="cls-22" d="M131.35,19.18a3,3,0,0,1-5.87.88,3.47,3.47,0,0,0,2.36.92,3.51,3.51,0,0,0,3.4-2.62A3,3,0,0,1,131.35,19.18Z"/><path class="cls-16" d="M129.59,22l.23-.4.09-.05a3,3,0,0,0,1.35-2.34s0-.07,0-.11l.23-.4-.62-.36h0a1,1,0,0,0-1,.09,3,3,0,0,0-1.35,2.34,1,1,0,0,0,.39.88h0Z"/><path class="cls-23" d="M130.47,21.89c-.74.43-1.34.08-1.34-.78a3,3,0,0,1,1.34-2.33c.75-.43,1.35-.08,1.35.78A3,3,0,0,1,130.47,21.89Z"/><path class="cls-16" d="M129.83,20a2.4,2.4,0,0,1,.82-.87.63.63,0,0,1,.59-.09.62.62,0,0,1,.21.56,2.45,2.45,0,0,1-.34,1.15,2.48,2.48,0,0,1-.82.87.47.47,0,0,1-.8-.46A2.42,2.42,0,0,1,129.83,20Z"/><path class="cls-11" d="M130.26,20.56c-.19.11-.35,0-.35-.2a.78.78,0,0,1,.35-.61c.2-.11.35,0,.35.2A.78.78,0,0,1,130.26,20.56Z"/><circle class="cls-24" cx="127.29" cy="17.72" r="0.66"/><g class="cls-1"><polygon class="cls-25" points="172.81 113.01 173.9 112.37 194.45 124.24 193.36 124.87 172.81 113.01"/><polygon class="cls-26" points="172.89 82.02 173.99 81.39 173.9 112.37 172.81 113.01 172.89 82.02"/><path class="cls-27" d="M172.2,80.75l-.1,32.72,22,12.67.09-32.71Zm21.16,44.12L172.81,113l.09-31,20.55,11.87Z"/><polygon class="cls-25" points="172.2 80.75 173.29 80.12 195.25 92.79 194.15 93.43 172.2 80.75"/><polygon class="cls-28" points="194.15 93.43 195.25 92.79 195.15 125.51 194.06 126.14 194.15 93.43"/></g><path class="cls-29" d="M169,125.41c-.82,0-3-.46-3.43.31s2.71,1.43,3.9,2.05,2.6,1.18,3.1.16S171.42,125.47,169,125.41Z"/><path class="cls-30" d="M182.88,108.17s-4.67-1.84-6.26-.92c-1.81,1-7.75,18.48-7.75,18.48a6.22,6.22,0,0,0,2.18.89c.72,0,2.32-2.63,4.82-6.53a32.54,32.54,0,0,0,4.07-9.89C180,109.29,182.88,108.17,182.88,108.17Z"/><path class="cls-29" d="M175.51,135.76c.82.57,1.14,1.47.66,2.07s-1.53,1-3.47-.11-4.71-3.76-3.83-4.54S174.1,134.77,175.51,135.76Z"/><path class="cls-31" d="M176,119.32c.73,6.09.49,15.77-.34,17.16a1.62,1.62,0,0,1-.79.71c-.57.2-1.25-.16-1.64-2-1-4.71-5-21.49-2.9-23.85s7.6-.1,7.6-.1l-3.24,3.15-.27.26S175.51,115.58,176,119.32Z"/><path class="cls-32" d="M175.62,136.48a1.62,1.62,0,0,1-.79.71c.11-.91.53-2.18.66-3.66a64.48,64.48,0,0,0-.7-11.66c-.57-4.06-2.25-6.12-2.63-7.35s.84-1.3,1.71-.77a4.62,4.62,0,0,1,.78.6l-.27.26s1.12,1,1.57,4.71C176.69,125.41,176.45,135.08,175.62,136.48Z"/><g class="cls-1"><polygon class="cls-8" points="147.15 127.3 148.24 126.66 168.79 138.53 167.7 139.16 147.15 127.3"/><polygon class="cls-26" points="147.23 96.31 148.33 95.67 148.24 126.66 147.15 127.3 147.23 96.31"/><path class="cls-27" d="M146.54,95l-.09,32.72,22,12.67.09-32.72Zm21.16,44.13L147.15,127.3l.09-31,20.55,11.86Z"/><polygon class="cls-25" points="146.54 95.04 147.63 94.4 169.58 107.08 168.49 107.72 146.54 95.04"/><polygon class="cls-26" points="168.49 107.72 169.58 107.08 169.49 139.8 168.4 140.43 168.49 107.72"/></g><g class="cls-1"><polygon class="cls-26" points="195.8 92.44 195.81 95.65 168.56 111.49 168.55 108.27 195.8 92.44"/><polygon class="cls-7" points="168.56 111.49 145.32 97.98 145.31 94.77 168.55 108.27 168.56 111.49"/><polygon class="cls-8" points="168.55 108.27 145.31 94.77 172.58 78.94 195.81 92.44 168.55 108.27"/></g><path class="cls-8" d="M207,119h0a.55.55,0,0,1-.18,0l-.19,0h0l-.22-.07h0l-.25-.1h0l-.3-.16-.31-.19-.12-.08-.27-.18-1.54-1.07,0,0h0l-.7-.48-.11-.07L202,116l0,0-.74-.49-.11-.07-.76-.49-.08,0-.06,0-1.15-.72-.1-.06c-.42-.26-.84-.52-1.28-.77h0l-.55-.32-1.49-.84-.19-.11-.22-.12-.44-.23-.58-.31-.46-.23-.25-.13-.39-.19-.33-.16-.93-.44-.07,0h0l-1-.42-.28-.11-.32-.14-.53-.2-.13,0-.73-.27-.34-.12h-.15l-15.56,9,.06,0h.08l1.08.39.13,0,.85.34.27.12,1,.42.07,0,.93.43.33.16.65.32.45.23.59.3.44.23.41.22,1.5.83.56.33,1.28.76.11.06,1.15.72.15.09.75.48.12.08.71.47.06,0,.72.49.11.08.69.47.07,0,1.52,1.05.1.07.17.11.12.08,0,0,.23.14,0,0,.13.08.14.07h0l.08,0,.11,0,.06,0h0l.08,0,.07,0h.49l.09,0,15.56-9A.47.47,0,0,1,207,119Z"/><path class="cls-33" d="M199,102.49a3.92,3.92,0,0,1,.11-1c.05-.24.13-.48.2-.74l.2-.59c.11-.29.23-.59.35-.89.31-.74.68-1.52,1.05-2.33a27.44,27.44,0,0,0,2.58-6.8,5,5,0,0,0,0-1.74,7.51,7.51,0,0,0-1-2.78A3.52,3.52,0,0,0,199.67,84a17.12,17.12,0,0,0-7.33,1.69,20.58,20.58,0,0,0-2.71,1.42,15.53,15.53,0,0,0-2.23,1.64c-1.36,1.21-4.52,5.31-4.52,7.07,0,3.89,3.41,4.33,2.65,9.49-.09.6-.17,1.24-.24,1.89,0,0,0,.11,0,.17a74.36,74.36,0,0,0-.84,8c0,1.42,0,2.85.06,4,.08,1.48.2,2.59.23,2.89l.8.5h0c6.74,3.28,13.79.45,14.92-1.47a6.85,6.85,0,0,0,.63-3.34,25.46,25.46,0,0,0-.48-4.48,65.61,65.61,0,0,1-1.55-9.19c0-.24,0-.47-.06-.7h0a4.66,4.66,0,0,1,0-1Zm4.49-13.34a3,3,0,0,1,0,.32C203.44,88.95,203.44,88.76,203.45,89.15Z"/><path class="cls-34" d="M203.54,103.17a2.73,2.73,0,0,1-.71.8l-.31.2h0a4.74,4.74,0,0,1-3.45.12c0-.24,0-.47-.06-.7h0a2.73,2.73,0,0,1,0-.34c.28.11.59.21.94.32A4.36,4.36,0,0,0,203.54,103.17Z"/><path class="cls-35" d="M184.43,115.36a.45.45,0,0,1,0-.06s0,0,0,.08Z"/><path class="cls-36" d="M184.43,115.12h0c0,.06,0,.11,0,.16C184.43,115.18,184.43,115.12,184.43,115.12Z"/><path class="cls-37" d="M185.54,122.78h0Z"/><path class="cls-38" d="M184.49,119.39c.08,1.48.2,2.59.23,2.89l-12-7.45s.39-.42,1.13-1.08h0a31.35,31.35,0,0,1,11.38-6.42,74.36,74.36,0,0,0-.84,8C184.38,116.78,184.43,118.21,184.49,119.39Z"/><path class="cls-39" d="M184.73,122.36c.26.15.53.28.79.41l-.81-.5S184.73,122.36,184.73,122.36Z"/><path class="cls-39" d="M203.75,88.79c0-.11,0-.22,0-.33C203.75,88.06,203.74,88.26,203.75,88.79Z"/><path class="cls-2" d="M157.11,81.84a.52.52,0,0,0-.23.41l0,11.79c0,.15.11.21.23.13L173,85a.52.52,0,0,0,.23-.4l0-11.79c0-.15-.11-.21-.23-.13Z"/><path class="cls-5" d="M156.67,82.11h0v0h.06v0h0l0,0v0h.13l15.82-9.13h.17l.2.12H173l0,0-15.82,9.13,0,0h0l0,0h0l0,0h0l0,.05h0l0,.05h0l0,.06h0a.55.55,0,0,0,0,.12l0,11.79a.12.12,0,0,0,0,0h0a.08.08,0,0,0,0,0h0l0,0h0l0,0h0l-.2-.12,0,0h0v0h0a0,0,0,0,1,0,0h0l0-11.79Z"/><polygon class="cls-5" points="157.69 92.44 172.37 83.98 172.37 74.03 157.69 82.48 157.69 92.44"/><path class="cls-40" d="M157.1,94.41l10.2,5.92a.51.51,0,0,0,.46,0l15.82-9.13a.14.14,0,0,0,0-.27L173.39,85a.51.51,0,0,0-.47,0l-2.1,1.21-11.54,6.66-2.19,1.26A.14.14,0,0,0,157.1,94.41Z"/><path class="cls-5" d="M157,94.31h0l0,0h0l0,0h0l0,0,10.2,5.92.06,0h.35l0,0,15.82-9.13a.16.16,0,0,0,.1-.13c0,.29,0,.58,0,.87a.17.17,0,0,1-.1.14l-15.82,9.14,0,0h-.35l-.07,0-10.2-5.93h0l0,0h0l0,0h0v0h0a0,0,0,0,1,0,0h0c0-.29,0-.58,0-.87A.1.1,0,0,0,157,94.31Z"/><path class="cls-2" d="M157.59,95.17a.2.2,0,0,0,.06.15l6.06,3.5s.06,0,.06-.08h0a.18.18,0,0,0-.06-.14l-6.06-3.5s-.06,0-.06.08Z"/><path class="cls-41" d="M164.77,98a.76.76,0,0,0,.69,0l14.19-8.19c.18-.1.16-.28,0-.4L173.78,86a.77.77,0,0,0-.69,0L158.9,94.19c-.18.1-.16.28,0,.39Z"/><g class="cls-1"><path class="cls-2" d="M172.27,86.88a.12.12,0,0,0,0,.23l.37.22a.44.44,0,0,0,.39,0l1-.56c.11-.06.11-.17,0-.23l-.37-.22a.43.43,0,0,0-.39,0Z"/><path class="cls-42" d="M172.19,87h0v0h0l0,0h0l.37.22.06,0H173l0,0,1-.56a.14.14,0,0,0,.08-.12v.15a.14.14,0,0,1-.08.12l-1,.56,0,0h-.3l-.06,0-.37-.22h0l0,0h0v0h0V87h0Z"/></g><g class="cls-1"><path class="cls-2" d="M159.52,94.24c-.1.06-.1.14,0,.2l.43.25a.39.39,0,0,0,.34,0l.43-.25a.1.1,0,0,0,0-.2l-.43-.25a.37.37,0,0,0-.34,0Z"/><path class="cls-42" d="M159.45,94.37h0v0h0l0,0h0l.43.25,0,0h.25l0,0,.43-.25a.12.12,0,0,0,.07-.1v.15a.12.12,0,0,1-.07.1l-.44.25,0,0H160l0,0-.43-.25h0l0,0h0l0,0h0v0h0v-.16h0A0,0,0,0,0,159.45,94.37Z"/></g><g class="cls-1"><path class="cls-2" d="M173.81,87.13c-.09.06-.1.14,0,.19l.43.25a.36.36,0,0,0,.34,0l.44-.25c.09-.06.09-.14,0-.19l-.44-.25a.37.37,0,0,0-.34,0Z"/><path class="cls-42" d="M173.74,87.23v0h0v0h0l0,0h0l.43.25,0,0h.25l0,0,.44-.25a.12.12,0,0,0,.07-.1v.15a.12.12,0,0,1-.07.1l-.44.25,0,0h-.26l0,0-.43-.25h-.07Z"/></g><g class="cls-1"><path class="cls-2" d="M174.26,88c-.11.06-.11.16,0,.23l.37.22a.43.43,0,0,0,.39,0l1-.56a.12.12,0,0,0,0-.23l-.38-.22a.42.42,0,0,0-.39,0Z"/><path class="cls-42" d="M174.18,88.15a.1.1,0,0,0,0,0h0v0h0l0,0h0l.37.22.06,0h.3l0,0,1-.56a.14.14,0,0,0,.08-.11V88a.14.14,0,0,1-.08.11l-1,.56,0,0h-.3l-.06,0-.38-.22h0l0,0h0v0h0v0h0v-.14h0Z"/></g><g class="cls-1"><path class="cls-2" d="M160.53,94.8c-.11.06-.11.17,0,.23l.38.22a.43.43,0,0,0,.39,0l1-.56c.11-.06.11-.16,0-.23l-.37-.22a.44.44,0,0,0-.39,0Z"/><path class="cls-42" d="M160.45,94.91s0,0,0,0h0v0h0l0,0h0l.38.22.05,0h.3l0,0,1-.56a.13.13,0,0,0,.08-.11v.15a.14.14,0,0,1-.08.12l-1,.56,0,0H161l-.05,0-.38-.22h0v0h0l0,0h0v0h0v0h0Z"/></g><g class="cls-1"><path class="cls-2" d="M175.06,88.72c-.11.06-.11.16,0,.23l.38.22a.44.44,0,0,0,.39,0L177,88.5a.12.12,0,0,0,0-.23l-.37-.22a.44.44,0,0,0-.39,0Z"/><path class="cls-42" d="M175,88.83a.09.09,0,0,0,0,0h0v0h0l0,0h0l.38.22.06,0h.29l0,0L177,88.5a.14.14,0,0,0,.08-.12v.15a.14.14,0,0,1-.08.12l-1.15.66,0,0h-.3l-.06,0-.37-.22h0l0,0h0v0h0a0,0,0,0,1,0,0h0Z"/></g><g class="cls-1"><path class="cls-2" d="M176.53,89.06c-.11.06-.12.16,0,.22l.4.23a.42.42,0,0,0,.38,0l.71-.41c.11-.06.12-.16,0-.22l-.4-.23a.42.42,0,0,0-.38,0Z"/><path class="cls-42" d="M176.44,89.17v0h0v0h0l0,0h0l0,0,.4.23,0,0h.29l0,0,.71-.41a.14.14,0,0,0,.09-.12v.15a.15.15,0,0,1-.09.12l-.71.41,0,0H177l0,0-.4-.23h0v0h0v0h0v0h0Z"/></g><g class="cls-1"><path class="cls-43" d="M162.72,95.6a.12.12,0,0,0,.07-.1v.15a.12.12,0,0,1-.07.1h0v-.15Z"/><path class="cls-42" d="M161.46,95.53h0v0h0l0,0h0l1.2.69.18.1.06,0h.3l0,0,.19-.11a.14.14,0,0,0,.08-.11v.15a.14.14,0,0,1-.08.11l-.19.11,0,0h-.3l-.06,0-.18-.1-1.2-.7h0v0h0v-.13Z"/><path class="cls-2" d="M161.52,95.41a.1.1,0,0,0,0,.2l1.2.69.18.1a.43.43,0,0,0,.39,0l.19-.11c.11-.06.11-.17,0-.23l-.19-.11,0,0-.55-.32h0a.1.1,0,0,0,0-.2l-.44-.25a.37.37,0,0,0-.34,0Z"/></g><g class="cls-1"><path class="cls-2" d="M163.52,96.57a.1.1,0,0,0,0,.19l.43.25a.39.39,0,0,0,.34,0l.2-.12.23-.13.74-.43.34-.19.1-.06c.09-.05.09-.14,0-.2l-.43-.25a.39.39,0,0,0-.34,0l-.1.06-.34.19-.74.43-.23.13Z"/><path class="cls-42" d="M163.45,96.69h0v0h0l0,0h0l.43.25,0,0h.25l0,0,.2-.12.23-.13.74-.43.34-.19.1-.06A.12.12,0,0,0,166,96v.15a.11.11,0,0,1-.07.1l-.1.06-.34.19-.74.43-.23.13-.2.12,0,0H164l-.05,0-.43-.25h0l0,0h0v-.15h0A0,0,0,0,0,163.45,96.69Z"/></g><g class="cls-1"><path class="cls-2" d="M174.62,91.35c-.11.06-.11.16,0,.23l.38.22a.43.43,0,0,0,.39,0l.67-.38a.12.12,0,0,0,0-.23l-.38-.22a.45.45,0,0,0-.39,0Z"/><path class="cls-42" d="M174.54,91.46a.09.09,0,0,0,0,0h0v0h0l0,0h0l.38.22.05,0h.29l0,0,.67-.38a.14.14,0,0,0,.08-.12v.15a.14.14,0,0,1-.08.11l-.67.38,0,0H175l-.05,0-.38-.22h0l0,0h0v0h0v-.14h0Z"/></g><g class="cls-1"><path class="cls-2" d="M169.64,94.21a.12.12,0,0,0,0,.23l.37.22a.43.43,0,0,0,.39,0l4.32-2.49c.11-.07.11-.17,0-.23l-.37-.22a.43.43,0,0,0-.39,0Z"/><path class="cls-42" d="M169.57,94.36h0v0h0l0,0h0l.37.22.06,0h.3l0,0,1.64-.95h0l.06,0h0l2.62-1.51a.14.14,0,0,0,.08-.12v.15a.14.14,0,0,1-.08.12l-2.62,1.52h0l-.06,0h0l-1.64.95,0,0h-.3l-.06,0-.37-.22h0l0,0h0l0,0h0v0h0v0h0v-.12Z"/></g><g class="cls-1"><path class="cls-2" d="M168.33,95c-.11.06-.11.16,0,.23l.38.22a.44.44,0,0,0,.39,0l.66-.38a.12.12,0,0,0,0-.23l-.37-.22a.42.42,0,0,0-.39,0Z"/><path class="cls-42" d="M168.25,95.12h0v0h0l0,0h0l.38.22.06,0h.3l0,0,.66-.38a.14.14,0,0,0,.08-.12v.15a.14.14,0,0,1-.08.11l-.66.38,0,0h-.3l-.06,0-.38-.22h0v0h0a.06.06,0,0,1,0,0v-.15h0S168.25,95.1,168.25,95.12Z"/></g><g class="cls-1"><path class="cls-2" d="M160.47,93.69a.1.1,0,0,0,0,.2l.43.25a.39.39,0,0,0,.34,0l.43-.25c.09-.06.1-.14,0-.2l-.43-.25a.36.36,0,0,0-.34,0Z"/><path class="cls-42" d="M160.41,93.81h0v0h0l0,0h0l.43.25,0,0h.25l0,0,.43-.25a.12.12,0,0,0,.07-.1v.15a.13.13,0,0,1-.07.1l-.43.25,0,0H161l0,0-.43-.25h-.07v-.15h0A.05.05,0,0,0,160.41,93.81Z"/></g><g class="cls-1"><path class="cls-2" d="M161.46,93.13c-.09.06-.09.14,0,.2l.43.25a.38.38,0,0,0,.34,0l.44-.25c.09-.05.09-.14,0-.2l-.43-.25a.37.37,0,0,0-.34,0Z"/><path class="cls-42" d="M161.39,93.25h0v0h0l0,0h0l.43.25,0,0h.25l0,0,.44-.25a.12.12,0,0,0,.07-.1v.15a.12.12,0,0,1-.07.1l-.44.25,0,0h-.25l0,0-.43-.25h0v0h0v-.17h0A.08.08,0,0,0,161.39,93.25Z"/></g><g class="cls-1"><path class="cls-2" d="M162.44,92.56a.1.1,0,0,0,0,.19l.43.25a.37.37,0,0,0,.34,0l.44-.25c.09-.05.09-.14,0-.19l-.43-.25a.37.37,0,0,0-.34,0Z"/><path class="cls-42" d="M162.37,92.68h0v0h0l0,0h0l.43.25,0,0h.26l0,0,.44-.25a.12.12,0,0,0,.07-.1v.15a.12.12,0,0,1-.07.1l-.44.25h-.29l0,0-.43-.25h0v0h0v-.16h0A.07.07,0,0,0,162.37,92.68Z"/></g><g class="cls-1"><path class="cls-2" d="M163.42,92a.1.1,0,0,0,0,.2l.43.25a.38.38,0,0,0,.34,0l.44-.25a.1.1,0,0,0,0-.2l-.43-.25a.38.38,0,0,0-.34,0Z"/><path class="cls-42" d="M163.35,92.12h0v0h0l0,0h0l.43.25,0,0h.25l0,0,.44-.25a.12.12,0,0,0,.07-.1v.15a.12.12,0,0,1-.07.1l-.44.25,0,0h-.26l0,0-.43-.25h-.07V92.1h0Z"/></g><g class="cls-1"><path class="cls-2" d="M164.4,91.43a.1.1,0,0,0,0,.2l.44.25a.37.37,0,0,0,.34,0l.43-.25c.09-.06.09-.14,0-.2l-.43-.25a.38.38,0,0,0-.34,0Z"/><path class="cls-42" d="M164.33,91.55h0v0h0l0,0h0l.44.25,0,0h.25l0,0,.43-.25a.12.12,0,0,0,.07-.1v.15a.12.12,0,0,1-.07.1l-.43.25,0,0h-.26l0,0-.44-.25h0v0h0v-.15h0Z"/></g><g class="cls-1"><path class="cls-2" d="M165.38,90.86a.1.1,0,0,0,0,.2l.43.25a.37.37,0,0,0,.34,0l.44-.25a.1.1,0,0,0,0-.2l-.43-.25a.37.37,0,0,0-.33,0Z"/><path class="cls-42" d="M165.31,91h0v0h0l0,0h0l.43.25,0,0h.25l0,0,.44-.25a.12.12,0,0,0,.07-.1v.15a.12.12,0,0,1-.07.1l-.44.25,0,0h-.26l0,0-.43-.25h-.07V91h0A.07.07,0,0,0,165.31,91Z"/></g><g class="cls-1"><path class="cls-2" d="M166.36,90.3a.1.1,0,0,0,0,.19l.43.25a.37.37,0,0,0,.34,0l.44-.25c.09-.05.09-.14,0-.19l-.43-.25a.37.37,0,0,0-.34,0Z"/><path class="cls-42" d="M166.3,90.42h0v0h0l0,0h0l.43.25,0,0h.29l.44-.25a.12.12,0,0,0,.07-.1v.15a.12.12,0,0,1-.07.1l-.44.25,0,0h-.25l0,0-.43-.25h0v0h0V90.4h0Z"/></g><g class="cls-1"><path class="cls-2" d="M167.34,89.73a.1.1,0,0,0,0,.19l.43.25a.36.36,0,0,0,.34,0l.44-.25a.1.1,0,0,0,0-.19l-.43-.25a.37.37,0,0,0-.34,0Z"/><path class="cls-42" d="M167.27,89.85h0v0h0l0,0h0l.43.25,0,0h.25l0,0,.44-.25a.12.12,0,0,0,.07-.1V90a.12.12,0,0,1-.07.1l-.44.25,0,0h-.25l0,0-.43-.25h0l0,0h0v-.15h0A.07.07,0,0,0,167.27,89.85Z"/></g><g class="cls-1"><path class="cls-2" d="M168.32,89.16c-.09.06-.09.14,0,.2l.43.25a.38.38,0,0,0,.34,0l.44-.25a.1.1,0,0,0,0-.2l-.44-.25a.37.37,0,0,0-.34,0Z"/><path class="cls-42" d="M168.26,89.29h0v0h0l0,0h0l.43.25,0,0h.29l.44-.25a.12.12,0,0,0,.07-.1v.15a.12.12,0,0,1-.07.1l-.44.25h-.29l0,0-.43-.25h-.07a0,0,0,0,1,0,0v-.15h0A.07.07,0,0,0,168.26,89.29Z"/></g><g class="cls-1"><path class="cls-2" d="M169.31,88.59c-.09.06-.09.14,0,.2l.43.25a.37.37,0,0,0,.34,0l.44-.25c.09-.05.09-.14,0-.2l-.43-.25a.37.37,0,0,0-.33,0Z"/><path class="cls-42" d="M169.24,88.72h0v0h0l0,0h0l.43.25,0,0H170l0,0,.44-.25a.12.12,0,0,0,.07-.1v.15a.12.12,0,0,1-.07.1l-.43.25,0,0h-.25l0,0-.43-.25h0v0h0V88.7h0Z"/></g><g class="cls-1"><path class="cls-2" d="M170.28,88a.1.1,0,0,0,0,.2l.43.25a.36.36,0,0,0,.33,0l.44-.25a.1.1,0,0,0,0-.2l-.43-.25a.39.39,0,0,0-.34,0Z"/><path class="cls-42" d="M170.22,88.15h0v0h0l0,0h0l.43.25,0,0H171l0,0,.44-.25a.11.11,0,0,0,.07-.1s0,.1,0,.15a.12.12,0,0,1-.07.1l-.44.25h-.29l0,0-.43-.25h-.07v-.17h0Z"/></g><g class="cls-1"><path class="cls-2" d="M171.27,87.46c-.09.06-.09.14,0,.2l.43.25a.36.36,0,0,0,.33,0l.44-.25c.09-.05.1-.14,0-.2l-.43-.25a.37.37,0,0,0-.34,0Z"/><path class="cls-42" d="M171.2,87.59h0v0h0l0,0h0l.43.25,0,0H172l0,0,.44-.25a.12.12,0,0,0,.07-.1v.15a.12.12,0,0,1-.07.1l-.44.25,0,0h-.26l0,0-.43-.25h0v0h0v-.15h0A.08.08,0,0,0,171.2,87.59Z"/></g><g class="cls-1"><path class="cls-2" d="M162.48,94.85a.1.1,0,0,0,0,.19l.43.25a.36.36,0,0,0,.34,0l.43-.25a.1.1,0,0,0,0-.19l-.43-.25a.38.38,0,0,0-.34,0Z"/><path class="cls-42" d="M162.41,95h0v0h0l0,0h0l.43.25,0,0h.25l0,0,.43-.25a.13.13,0,0,0,.07-.1v.15a.12.12,0,0,1-.07.1l-.44.25,0,0H163l0,0-.43-.25h0l0,0h0v0h0v-.15h0Z"/></g><g class="cls-1"><path class="cls-2" d="M163.46,94.28a.1.1,0,0,0,0,.2l.44.25a.37.37,0,0,0,.33,0l.44-.25c.09-.05.1-.14,0-.2l-.43-.25a.37.37,0,0,0-.34,0Z"/><path class="cls-42" d="M163.39,94.4h0v0h0l0,0h0l.44.25,0,0h.25l0,0,.44-.25a.12.12,0,0,0,.07-.1v.15a.12.12,0,0,1-.07.1l-.44.25,0,0h-.26l0,0-.44-.25h0v0h0v0h0v-.15h0Z"/></g><g class="cls-1"><path class="cls-2" d="M164.44,93.71c-.09.05-.09.14,0,.19l.43.25a.37.37,0,0,0,.34,0l.44-.25a.1.1,0,0,0,0-.19l-.43-.25a.38.38,0,0,0-.34,0Z"/><path class="cls-42" d="M164.37,93.84h0v0h0l0,0h0l.43.25,0,0h.25l0,0,.44-.25a.12.12,0,0,0,.07-.1V94a.11.11,0,0,1-.07.1l-.44.25,0,0h-.25l0,0-.43-.25h-.06v0h0v-.17h0A.07.07,0,0,0,164.37,93.84Z"/></g><g class="cls-1"><path class="cls-2" d="M165.42,93.15a.1.1,0,0,0,0,.2l.43.25a.38.38,0,0,0,.34,0l.44-.25a.1.1,0,0,0,0-.2l-.43-.25a.36.36,0,0,0-.34,0Z"/><path class="cls-42" d="M165.35,93.27h0v0h0l0,0h0l.43.25,0,0h.25l0,0,.44-.25a.12.12,0,0,0,.07-.1c0,.05,0,.1,0,.15a.12.12,0,0,1-.07.09l-.44.25,0,0h-.25l0,0-.43-.25h0v0h0v0h0v-.15h0A.08.08,0,0,0,165.35,93.27Z"/></g><g class="cls-1"><path class="cls-2" d="M166.4,92.58a.1.1,0,0,0,0,.19l.44.25a.37.37,0,0,0,.34,0l.43-.25c.1-.05.1-.14,0-.19l-.43-.25a.37.37,0,0,0-.34,0Z"/><path class="cls-42" d="M166.34,92.7h0v0h0l0,0h0l.44.25,0,0h.26l0,0,.43-.25a.12.12,0,0,0,.07-.09v.15a.12.12,0,0,1-.07.1l-.43.25,0,0h-.26l0,0-.44-.25h-.05v0h0a0,0,0,0,1,0,0v-.15h0Z"/></g><g class="cls-1"><path class="cls-2" d="M167.38,92a.1.1,0,0,0,0,.19l.43.25a.37.37,0,0,0,.34,0l.43-.25c.09-.05.1-.14,0-.19l-.44-.25a.38.38,0,0,0-.34,0Z"/><path class="cls-42" d="M167.32,92.14h0v0h0l0,0h0l.43.25,0,0h.25l0,0,.43-.25a.12.12,0,0,0,.07-.1v.15a.11.11,0,0,1-.07.1l-.44.25,0,0h-.26l0,0-.43-.25h0v0h0v-.15h0Z"/></g><g class="cls-1"><path class="cls-2" d="M168.36,91.45a.1.1,0,0,0,0,.19l.43.25a.36.36,0,0,0,.34,0l.44-.25c.09-.06.09-.14,0-.19l-.43-.25a.37.37,0,0,0-.34,0Z"/><path class="cls-42" d="M168.3,91.57h0v0h0l0,0h0l.43.25,0,0h.25l0,0,.44-.25a.13.13,0,0,0,.07-.1v.15a.12.12,0,0,1-.07.1l-.44.25,0,0h-.25l0,0-.43-.25h-.06v0h0v-.15h0Z"/></g><g class="cls-1"><path class="cls-2" d="M169.34,90.88c-.09.05-.1.14,0,.19l.43.25a.37.37,0,0,0,.34,0l.44-.25a.1.1,0,0,0,0-.19l-.43-.25a.39.39,0,0,0-.34,0Z"/><path class="cls-42" d="M169.28,91h0v0h0l0,0h0l.44.25,0,0h.25l0,0,.44-.25a.12.12,0,0,0,.07-.1v.15a.12.12,0,0,1-.07.1l-.44.25,0,0h-.26l0,0-.43-.25h0v0h0V91h0Z"/></g><g class="cls-1"><path class="cls-2" d="M170.33,90.32a.1.1,0,0,0,0,.19l.43.25a.38.38,0,0,0,.34,0l.43-.25c.09-.05.1-.14,0-.19l-.43-.25a.37.37,0,0,0-.34,0Z"/><path class="cls-42" d="M170.26,90.44h0v0h0l0,0h0l.43.25,0,0h.25l0,0,.43-.25a.12.12,0,0,0,.07-.1c0,.05,0,.1,0,.15a.12.12,0,0,1-.07.1l-.43.25,0,0h-.26l0,0-.43-.25h0v0h0v-.15h0A.07.07,0,0,0,170.26,90.44Z"/></g><g class="cls-1"><path class="cls-2" d="M171.31,89.75c-.09.05-.09.14,0,.19l.43.25a.36.36,0,0,0,.34,0l.44-.25a.1.1,0,0,0,0-.19l-.43-.25a.36.36,0,0,0-.34,0Z"/><path class="cls-42" d="M171.24,89.87h0v0h0l0,0h0l.43.25,0,0H172l0,0,.44-.25a.12.12,0,0,0,.07-.1s0,.1,0,.15a.12.12,0,0,1-.07.1l-.44.25,0,0h-.26l0,0-.43-.25h-.07v-.16h0A.07.07,0,0,0,171.24,89.87Z"/></g><g class="cls-1"><path class="cls-2" d="M172.29,89.18a.1.1,0,0,0,0,.19l.43.25a.36.36,0,0,0,.34,0l.43-.25c.1-.05.1-.14,0-.19l-.43-.25a.37.37,0,0,0-.34,0Z"/><path class="cls-42" d="M172.22,89.3h0v0h0l0,0h0l.43.25,0,0H173l0,0,.43-.25a.11.11,0,0,0,.07-.1v.15a.12.12,0,0,1-.07.1l-.44.25,0,0h-.25l0,0-.43-.25h-.07v-.15h0A.07.07,0,0,0,172.22,89.3Z"/></g><g class="cls-1"><path class="cls-2" d="M173.27,88.62c-.09.05-.09.14,0,.19l.43.25a.37.37,0,0,0,.34,0l.43-.25c.09-.05.09-.14,0-.19l-.43-.25a.36.36,0,0,0-.34,0Z"/><path class="cls-42" d="M173.2,88.74h0v0h0l0,0h0l.43.25,0,0H174l.43-.25s.07-.06.07-.1v.15a.12.12,0,0,1-.07.1l-.44.25,0,0h-.25l0,0-.43-.25h-.07v-.16h0Z"/></g><g class="cls-1"><path class="cls-2" d="M163.26,95.52a.1.1,0,0,0,0,.19l.43.25a.37.37,0,0,0,.34,0l.44-.25a.1.1,0,0,0,0-.19l-.43-.25a.37.37,0,0,0-.34,0Z"/><path class="cls-42" d="M163.19,95.64h0v0h0l0,0h0l.43.25,0,0H164l0,0,.44-.25a.12.12,0,0,0,.07-.1v.15a.13.13,0,0,1-.07.1l-.44.25,0,0h-.25l0,0-.43-.25h0v0h0v-.15h0A.06.06,0,0,0,163.19,95.64Z"/></g><g class="cls-1"><path class="cls-2" d="M164.24,95c-.1.05-.1.14,0,.19l.43.25a.36.36,0,0,0,.34,0l.44-.25a.1.1,0,0,0,0-.19L165,94.7a.37.37,0,0,0-.34,0Z"/><path class="cls-42" d="M164.17,95.07h0v0h0l0,0h0l.44.25,0,0H165l0,0,.44-.25a.12.12,0,0,0,.07-.1v.15a.12.12,0,0,1-.07.1l-.44.25,0,0h-.26l0,0-.43-.25h-.06v0h0v-.15h0Z"/></g><g class="cls-1"><path class="cls-2" d="M165.22,94.39a.11.11,0,0,0,0,.2l.43.25a.37.37,0,0,0,.34,0l.44-.25a.11.11,0,0,0,0-.2l-.43-.25a.38.38,0,0,0-.34,0Z"/><path class="cls-42" d="M165.16,94.51h0v0h0l0,0h0l.43.25,0,0H166l0,0,.44-.25a.12.12,0,0,0,.07-.1v.15a.12.12,0,0,1-.07.1L166,95l0,0h-.26l0,0-.43-.25h0l0,0h0v-.17h0Z"/></g><g class="cls-1"><path class="cls-2" d="M166.2,93.82a.1.1,0,0,0,0,.19l.43.25a.37.37,0,0,0,.34,0l.43-.25a.1.1,0,0,0,0-.19l-.43-.25a.38.38,0,0,0-.34,0Z"/><path class="cls-42" d="M166.14,93.94h0v0h0l0,0,0,0h0l.43.25,0,0h.25l0,0,.43-.25a.12.12,0,0,0,.07-.1v.15a.12.12,0,0,1-.07.1l-.43.25,0,0h-.25l0,0-.43-.25h0v0h0v0h0v-.15h0A.07.07,0,0,0,166.14,93.94Z"/></g><g class="cls-1"><path class="cls-2" d="M167.18,93.25a.1.1,0,0,0,0,.19l.43.25a.37.37,0,0,0,.34,0l.44-.25c.09-.05.09-.14,0-.19L168,93a.37.37,0,0,0-.34,0Z"/><path class="cls-42" d="M167.12,93.38h0v0h0l0,0h0l.43.25,0,0h.25l0,0,.44-.25a.12.12,0,0,0,.07-.1v.15a.12.12,0,0,1-.07.1l-.44.25h-.29l0,0-.43-.25h-.07v-.15h0Z"/></g><g class="cls-1"><path class="cls-2" d="M168.16,92.69a.1.1,0,0,0,0,.19l.43.25a.35.35,0,0,0,.34,0l.44-.25c.09-.05.09-.14,0-.19l-.43-.25a.37.37,0,0,0-.34,0Z"/><path class="cls-42" d="M168.1,92.81h0v0h0l0,0,0,0h0l.43.25,0,0h.25l0,0,.44-.25a.12.12,0,0,0,.07-.1v.15a.12.12,0,0,1-.07.1l-.44.25h-.29l0,0-.43-.25h0v0h0v-.15h0A.07.07,0,0,0,168.1,92.81Z"/></g><g class="cls-1"><path class="cls-2" d="M169.15,92.12a.1.1,0,0,0,0,.19l.43.25a.37.37,0,0,0,.34,0l.44-.25c.09-.05.09-.14,0-.19l-.43-.25a.37.37,0,0,0-.34,0Z"/><path class="cls-42" d="M169.08,92.24h0v0h0l0,0h0l.43.25,0,0h.29l.44-.25a.13.13,0,0,0,.07-.1v.15a.12.12,0,0,1-.07.1l-.44.25,0,0h-.26l0,0-.43-.25h0v0h0v-.15h0Z"/></g><g class="cls-1"><path class="cls-2" d="M170.12,91.55c-.09.06-.09.14,0,.19l.43.25a.37.37,0,0,0,.33,0l.44-.25c.09-.05.09-.14,0-.19l-.43-.25a.37.37,0,0,0-.34,0Z"/><path class="cls-42" d="M170.06,91.68h0v0h0l0,0h0l.43.25,0,0h.29l.44-.25a.12.12,0,0,0,.07-.1v.15a.12.12,0,0,1-.07.1l-.44.25,0,0h-.26l0,0-.43-.25h0v0h0v-.17h0Z"/></g><g class="cls-1"><path class="cls-2" d="M171.11,91c-.09.06-.09.14,0,.2l.43.25a.36.36,0,0,0,.34,0l.44-.25c.09-.06.09-.14,0-.2l-.43-.25a.39.39,0,0,0-.34,0Z"/><path class="cls-42" d="M171,91.11h0v0h0l0,0h0l.43.25,0,0h.25l0,0,.44-.25a.12.12,0,0,0,.07-.1v.15a.11.11,0,0,1-.07.1l-.44.25,0,0h-.26l0,0-.43-.25h0v0h0v-.17h0A.06.06,0,0,0,171,91.11Z"/></g><g class="cls-1"><path class="cls-2" d="M172.09,90.42a.1.1,0,0,0,0,.2l.43.25a.39.39,0,0,0,.34,0l.44-.25c.09-.06.09-.14,0-.2l-.43-.25a.38.38,0,0,0-.34,0Z"/><path class="cls-42" d="M172,90.54h0v0h0l0,0h0l.43.25,0,0h.25l0,0,.44-.25a.12.12,0,0,0,.07-.1v.15a.12.12,0,0,1-.07.1l-.43.25,0,0h-.26l0,0-.43-.25h0v0h0v-.17h0A0,0,0,0,0,172,90.54Z"/></g><g class="cls-1"><path class="cls-2" d="M173.07,89.86c-.09.05-.09.14,0,.19l.43.25a.35.35,0,0,0,.34,0l.43-.25c.09-.06.09-.14,0-.19l-.43-.25a.36.36,0,0,0-.34,0Z"/><path class="cls-42" d="M173,90h0v0h0l0,0h0l.43.25,0,0h.25l0,0,.43-.25a.12.12,0,0,0,.07-.1v.15a.12.12,0,0,1-.07.1l-.43.25,0,0h-.25l0,0-.43-.25h0l0,0h0v0h0V90h0A.08.08,0,0,0,173,90Z"/></g><g class="cls-1"><path class="cls-2" d="M174.05,89.29a.1.1,0,0,0,0,.19l.43.25a.36.36,0,0,0,.34,0l.44-.25a.1.1,0,0,0,0-.19l-.44-.25a.37.37,0,0,0-.33,0Z"/><path class="cls-42" d="M174,89.41h0v0h0l0,0h0l.43.25,0,0h.25l0,0,.44-.25a.11.11,0,0,0,.07-.1v.15a.12.12,0,0,1-.07.1l-.44.25h-.29l0,0-.43-.25h0l0,0h0v-.15h0Z"/></g><g class="cls-1"><path class="cls-2" d="M165.66,95.33a.1.1,0,0,0,0,.2l.43.25a.36.36,0,0,0,.34,0l.43-.25a.1.1,0,0,0,0-.2l-.43-.25a.39.39,0,0,0-.34,0Z"/><path class="cls-42" d="M165.59,95.46h0v0h0l0,0h0l.43.25,0,0h.25l0,0,.43-.25a.11.11,0,0,0,.07-.1v.15a.11.11,0,0,1-.07.1l-.44.25,0,0h-.25l0,0-.43-.25h0v0h0v-.15h0Z"/></g><g class="cls-1"><path class="cls-2" d="M166.64,94.77a.1.1,0,0,0,0,.19l.43.25a.37.37,0,0,0,.34,0l.44-.25c.09-.05.09-.14,0-.19l-.43-.25a.36.36,0,0,0-.34,0Z"/><path class="cls-42" d="M166.58,94.89h0v0h0l0,0h0l.43.25,0,0h.25l0,0,.44-.25a.12.12,0,0,0,.07-.1s0,.1,0,.15a.13.13,0,0,1-.07.1l-.44.25,0,0h-.26l0,0-.43-.25h0v0h0v0h0v-.16h0A0,0,0,0,0,166.58,94.89Z"/></g><g class="cls-1"><path class="cls-2" d="M167.62,94.2c-.09.05-.1.14,0,.19l.43.25a.37.37,0,0,0,.34,0l.44-.25c.09-.05.09-.14,0-.19l-.43-.25a.35.35,0,0,0-.33,0Z"/><path class="cls-42" d="M167.56,94.32h0v0h0l0,0h0l.43.25,0,0h.25l0,0,.44-.25a.12.12,0,0,0,.07-.1s0,.1,0,.15a.12.12,0,0,1-.07.1l-.44.25,0,0h-.25l0,0-.43-.25h-.07V94.3h0A.06.06,0,0,0,167.56,94.32Z"/></g><g class="cls-1"><path class="cls-2" d="M168.6,93.64a.1.1,0,0,0,0,.19l.43.25a.38.38,0,0,0,.34,0l.44-.25a.1.1,0,0,0,0-.19l-.44-.25a.38.38,0,0,0-.34,0Z"/><path class="cls-42" d="M168.54,93.76h0v0h0l0,0h0l.43.25,0,0h.25l0,0,.44-.25a.12.12,0,0,0,.07-.1v.15a.11.11,0,0,1-.07.1l-.43.25,0,0h-.26l0,0L168.6,94h0v0h0v-.15h0A.06.06,0,0,0,168.54,93.76Z"/></g><g class="cls-1"><path class="cls-2" d="M169.58,93.07a.1.1,0,0,0,0,.2l.43.25a.38.38,0,0,0,.34,0l.43-.25c.1-.05.1-.14,0-.2l-.43-.25a.38.38,0,0,0-.34,0Z"/><path class="cls-42" d="M169.52,93.19h0v0h0l0,0h0l.43.25,0,0h.25l0,0,.43-.25a.12.12,0,0,0,.07-.1v.15a.12.12,0,0,1-.07.1l-.43.25h-.29l0,0-.43-.25h0v0h0v0h0v-.15h0A.08.08,0,0,0,169.52,93.19Z"/></g><g class="cls-1"><path class="cls-2" d="M170.57,92.5c-.09.06-.09.14,0,.19l.43.25a.37.37,0,0,0,.34,0l.44-.25c.09-.05.09-.14,0-.19l-.43-.25a.37.37,0,0,0-.33,0Z"/><path class="cls-42" d="M170.5,92.63h0v0h0l0,0h0l.43.25,0,0h.25l0,0,.44-.25a.12.12,0,0,0,.07-.1v.15a.12.12,0,0,1-.07.1l-.44.25,0,0H171l0,0-.43-.25h0v0h0V92.6h0Z"/></g><g class="cls-1"><path class="cls-2" d="M171.55,91.94c-.09.05-.09.14,0,.19l.43.25a.37.37,0,0,0,.34,0l.44-.25c.09-.05.09-.14,0-.19l-.43-.25a.35.35,0,0,0-.34,0Z"/><path class="cls-42" d="M171.48,92.06h0v0h0l0,0h0l.44.25,0,0h.25l0,0,.44-.25a.12.12,0,0,0,.07-.1s0,.1,0,.15,0,.07-.07.1l-.43.25H172l0,0-.43-.25h0v0h0v0h0V92h0A.05.05,0,0,0,171.48,92.06Z"/></g><g class="cls-1"><path class="cls-2" d="M172.53,91.37a.1.1,0,0,0,0,.2l.43.25a.37.37,0,0,0,.34,0l.43-.25a.1.1,0,0,0,0-.2l-.43-.25a.37.37,0,0,0-.34,0Z"/><path class="cls-42" d="M172.46,91.49h0v0h0l0,0h0l.43.25,0,0h.25l0,0,.43-.25a.13.13,0,0,0,.07-.1v.15a.12.12,0,0,1-.07.1l-.43.25,0,0H173l0,0-.43-.25h0v0h0v-.15h0A.06.06,0,0,0,172.46,91.49Z"/></g><g class="cls-1"><path class="cls-2" d="M173.51,90.8a.1.1,0,0,0,0,.2l.43.25a.37.37,0,0,0,.34,0l.43-.25a.1.1,0,0,0,0-.2l-.43-.25a.36.36,0,0,0-.34,0Z"/><path class="cls-42" d="M173.44,90.92h0v0h0l0,0h0l.43.25,0,0h.25l0,0,.43-.25a.13.13,0,0,0,.07-.1v.15a.12.12,0,0,1-.07.1l-.43.25,0,0H174l0,0-.43-.25h0l0,0h0V90.9h0Z"/></g><g class="cls-1"><path class="cls-2" d="M174.49,90.24a.1.1,0,0,0,0,.2l.43.25a.37.37,0,0,0,.33,0l.44-.25c.09-.06.09-.14,0-.2l-.43-.25a.37.37,0,0,0-.34,0Z"/><path class="cls-42" d="M174.43,90.36h0v0h0l0,0,0,0h0l.43.25,0,0h.25l0,0,.44-.25a.12.12,0,0,0,.07-.1v.15a.12.12,0,0,1-.07.1l-.44.25,0,0H175l0,0-.43-.25h0l0,0h0a0,0,0,0,1,0,0h0v-.15h0Z"/></g><g class="cls-1"><path class="cls-2" d="M175.47,89.67a.1.1,0,0,0,0,.2l.43.25a.38.38,0,0,0,.34,0l.44-.25c.09-.06.09-.14,0-.2l-.43-.25a.38.38,0,0,0-.34,0Z"/><path class="cls-42" d="M175.4,89.8h0v0h0l0,0h0l.43.25,0,0h.25l0,0,.44-.25a.12.12,0,0,0,.07-.1v.15a.12.12,0,0,1-.07.1l-.43.25,0,0h-.26l0,0-.43-.25h-.07v-.15h0Z"/></g><g class="cls-1"><path class="cls-2" d="M172.82,87.7c-.09.06-.09.14,0,.2l.43.25a.38.38,0,0,0,.34,0l.44-.25c.09-.05.09-.14,0-.2l-.43-.25a.37.37,0,0,0-.34,0Z"/><path class="cls-42" d="M172.75,87.82h0v0h0l0,0h0l.44.25,0,0h.25l0,0,.44-.25a.12.12,0,0,0,.07-.1v.15a.12.12,0,0,1-.07.1l-.44.25,0,0h-.26l0,0-.43-.25h0v0h0v0h0V87.8h0A.07.07,0,0,0,172.75,87.82Z"/></g><g class="cls-1"><path class="cls-2" d="M171.84,88.27a.1.1,0,0,0,0,.2l.43.25a.38.38,0,0,0,.34,0l.43-.25c.09-.06.09-.14,0-.2l-.43-.25a.38.38,0,0,0-.34,0Z"/><path class="cls-42" d="M171.77,88.39h0v0h0l0,0h0l.43.25,0,0h.25l0,0,.43-.25a.12.12,0,0,0,.07-.1v.15a.12.12,0,0,1-.07.1l-.44.25,0,0h-.26l0,0-.43-.25h0v0h0v-.17h0Z"/></g><g class="cls-1"><path class="cls-2" d="M170.86,88.83a.1.1,0,0,0,0,.2l.43.25a.38.38,0,0,0,.34,0l.43-.25a.1.1,0,0,0,0-.2l-.43-.25a.38.38,0,0,0-.34,0Z"/><path class="cls-42" d="M170.79,89h0s0,0,0,0h0l0,0h0l.43.25,0,0h.29l.43-.25a.12.12,0,0,0,.07-.1v.15a.12.12,0,0,1-.07.1l-.44.25,0,0h-.26l0,0-.43-.25h-.06a0,0,0,0,1,0,0h0v-.17h0Z"/></g><g class="cls-1"><path class="cls-2" d="M169.88,89.4a.1.1,0,0,0,0,.19l.43.25a.36.36,0,0,0,.34,0l.44-.25a.1.1,0,0,0,0-.19l-.43-.25a.38.38,0,0,0-.34,0Z"/><path class="cls-42" d="M169.81,89.52h0v0h0l0,0h0l.43.25,0,0h.25l0,0,.44-.25a.12.12,0,0,0,.07-.1v.15a.11.11,0,0,1-.07.1l-.43.25,0,0h-.25l0,0-.43-.25h-.06v0h0v-.15h0A.05.05,0,0,0,169.81,89.52Z"/></g><g class="cls-1"><path class="cls-2" d="M168.9,90a.1.1,0,0,0,0,.2l.43.25a.36.36,0,0,0,.34,0l.44-.25c.09-.05.09-.14,0-.2l-.43-.25a.37.37,0,0,0-.34,0Z"/><path class="cls-42" d="M168.83,90.09h0v0h0l0,0h0l.43.25,0,0h.25l0,0,.44-.25a.13.13,0,0,0,.07-.1v.15a.12.12,0,0,1-.07.1l-.44.25,0,0h-.26l0,0-.43-.25h-.07v-.15h0Z"/></g><g class="cls-1"><path class="cls-2" d="M167.91,90.53a.1.1,0,0,0,0,.2l.43.25a.37.37,0,0,0,.34,0l.43-.25c.09-.06.1-.14,0-.2l-.44-.25a.37.37,0,0,0-.33,0Z"/><path class="cls-42" d="M167.85,90.65h0v0h0l0,0h0l.43.25,0,0h.25l0,0,.43-.25a.12.12,0,0,0,.07-.1v.15a.11.11,0,0,1-.07.1l-.44.25,0,0h-.25l0,0-.43-.25h0v0h0v-.15h0A.06.06,0,0,0,167.85,90.65Z"/></g><g class="cls-1"><path class="cls-2" d="M166.93,91.1c-.09.06-.09.14,0,.2l.44.25a.38.38,0,0,0,.34,0l.44-.25c.09-.05.09-.14,0-.2l-.43-.25a.4.4,0,0,0-.34,0Z"/><path class="cls-42" d="M166.87,91.22h0v0h0l0,0h0l.44.25,0,0h.25l0,0,.44-.25a.11.11,0,0,0,.07-.1v.15a.11.11,0,0,1-.07.1l-.44.25,0,0h-.25l0,0-.44-.25h0v0h0v0h0V91.2h0Z"/></g><g class="cls-1"><path class="cls-2" d="M166,91.66a.11.11,0,0,0,0,.2l.43.25a.37.37,0,0,0,.34,0l.43-.25c.1-.06.1-.14,0-.2l-.43-.25a.37.37,0,0,0-.34,0Z"/><path class="cls-42" d="M165.89,91.79h0v0h0l0,0h0l.43.25,0,0h.25l0,0,.43-.25a.12.12,0,0,0,.07-.1v.15a.12.12,0,0,1-.07.1l-.44.25,0,0h-.26l0,0L166,92h0l0,0h0v-.15h0A.07.07,0,0,0,165.89,91.79Z"/></g><g class="cls-1"><path class="cls-2" d="M165,92.23a.1.1,0,0,0,0,.19l.43.25a.37.37,0,0,0,.34,0l.44-.25a.1.1,0,0,0,0-.19l-.43-.25a.36.36,0,0,0-.34,0Z"/><path class="cls-42" d="M164.91,92.36h0v0h0l0,0h0l.43.25,0,0h.25l0,0,.44-.25a.12.12,0,0,0,.07-.1v.15a.12.12,0,0,1-.07.1l-.44.25,0,0h-.25l0,0-.43-.25h0v0h0v-.15h0A.08.08,0,0,0,164.91,92.36Z"/></g><g class="cls-1"><path class="cls-2" d="M164,92.8a.1.1,0,0,0,0,.2l.44.25a.35.35,0,0,0,.33,0l.44-.25c.09-.06.09-.14,0-.2l-.43-.25a.37.37,0,0,0-.34,0Z"/><path class="cls-42" d="M163.93,92.92h0v0h0l0,0h0l.44.25,0,0h.25l0,0,.44-.25a.12.12,0,0,0,.07-.1V93a.12.12,0,0,1-.07.1l-.44.25,0,0h-.25l0,0-.43-.25h0v0h0V92.9h0Z"/></g><g class="cls-1"><path class="cls-2" d="M163,93.36a.1.1,0,0,0,0,.2l.43.25a.38.38,0,0,0,.34,0l.43-.25c.09-.06.09-.14,0-.2l-.43-.25a.37.37,0,0,0-.34,0Z"/><path class="cls-42" d="M162.94,93.49h0v0h0l0,0h0l.43.25,0,0h.25l0,0,.43-.25a.12.12,0,0,0,.07-.1v.15s0,.07-.07.1l-.43.25,0,0h-.25l0,0-.44-.25h0v0h0a0,0,0,0,1,0,0v-.15h0A.1.1,0,0,0,162.94,93.49Z"/></g><g class="cls-1"><path class="cls-2" d="M162,93.93c-.1.05-.1.14,0,.19l.43.25a.38.38,0,0,0,.34,0l.44-.25a.1.1,0,0,0,0-.19l-.43-.25a.38.38,0,0,0-.34,0Z"/><path class="cls-42" d="M162,94.05h0v0h0l0,0h0l.43.25,0,0h.25l0,0,.44-.25a.11.11,0,0,0,.07-.1c0,.05,0,.1,0,.15a.12.12,0,0,1-.07.1l-.44.25,0,0h-.26l0,0-.43-.25h0v0h0v0h0V94h0Z"/></g><g class="cls-1"><path class="cls-2" d="M164.54,97.16c-.09.05-.09.14,0,.19l.43.25a.37.37,0,0,0,.34,0l.44-.25c.09-.06.09-.14,0-.19l-.43-.25a.36.36,0,0,0-.34,0Z"/><path class="cls-42" d="M164.47,97.29h0v0h0l0,0h0l.43.25,0,0h.25l0,0,.44-.25a.12.12,0,0,0,.07-.1v.15a.12.12,0,0,1-.07.1l-.44.25H165l0,0-.43-.25h0l0,0h0v-.15h0Z"/></g><g class="cls-1"><path class="cls-2" d="M165.48,96.62c-.09.05-.09.14,0,.19l.43.25a.37.37,0,0,0,.34,0l.44-.25a.1.1,0,0,0,0-.19l-.43-.25a.38.38,0,0,0-.34,0Z"/><path class="cls-42" d="M165.42,96.74h0v0h0l0,0h0l.43.25,0,0h.25l0,0,.44-.25a.11.11,0,0,0,.07-.1c0,.05,0,.1,0,.15a.11.11,0,0,1-.07.1l-.44.25,0,0H166l0,0-.43-.25h-.07v-.15h0A.07.07,0,0,0,165.42,96.74Z"/></g><g class="cls-1"><path class="cls-2" d="M166.43,96.07c-.1.05-.1.14,0,.2l.43.25a.37.37,0,0,0,.34,0l.44-.25c.09-.05.09-.14,0-.2l-.43-.25a.38.38,0,0,0-.34,0Z"/><path class="cls-42" d="M166.36,96.2h0v0h0l0,0h0l.43.25,0,0h.25l0,0,.44-.25a.12.12,0,0,0,.07-.1v.15a.11.11,0,0,1-.07.1l-.44.25h-.29l0,0-.43-.25h0v0h0v-.15h0A.07.07,0,0,0,166.36,96.2Z"/></g><g class="cls-1"><path class="cls-2" d="M167.37,95.53c-.09.05-.09.14,0,.19l.43.25a.38.38,0,0,0,.34,0l.44-.25c.09-.05.09-.14,0-.19l-.43-.25a.37.37,0,0,0-.34,0Z"/><path class="cls-42" d="M167.3,95.65h0v0h0l0,0h0l.43.25,0,0h.25l0,0,.44-.25a.12.12,0,0,0,.07-.09v.15a.12.12,0,0,1-.07.1l-.44.25,0,0h-.26l0,0-.43-.25h0v0h0v-.15h0Z"/></g><g class="cls-1"><path class="cls-2" d="M175.84,90.63c-.09.05-.09.14,0,.19l.43.25a.36.36,0,0,0,.33,0l.44-.25c.09-.06.1-.14,0-.19l-.43-.25a.37.37,0,0,0-.34,0Z"/><path class="cls-42" d="M175.77,90.75h0v0h0l0,0h0l.43.25,0,0h.25l0,0,.44-.25a.12.12,0,0,0,.07-.1v.15a.11.11,0,0,1-.07.1l-.44.25,0,0h-.26l0,0-.43-.25h-.07v-.15h0S175.77,90.75,175.77,90.75Z"/></g><g class="cls-1"><path class="cls-2" d="M176.81,90.08c-.1.05-.1.14,0,.19l.43.25a.36.36,0,0,0,.34,0l.44-.25a.1.1,0,0,0,0-.19l-.43-.25a.37.37,0,0,0-.34,0Z"/><path class="cls-42" d="M176.75,90.2h0v0h0l0,0h0l.43.25,0,0h.25l0,0,.44-.25a.12.12,0,0,0,.07-.1s0,.1,0,.15a.12.12,0,0,1-.07.1l-.44.25,0,0h-.25l0,0-.43-.25h0v0h0v-.15h0A.09.09,0,0,0,176.75,90.2Z"/></g><g class="cls-1"><path class="cls-2" d="M177.85,89.47a.1.1,0,0,0,0,.19l.43.25a.37.37,0,0,0,.34,0l.44-.25c.09-.05.09-.14,0-.19l-.44-.25a.39.39,0,0,0-.34,0Z"/><path class="cls-42" d="M177.79,89.59h0v0h0l0,0h0l.43.25,0,0h.25l0,0,.44-.25a.12.12,0,0,0,.07-.1v.15a.12.12,0,0,1-.07.1l-.43.25,0,0h-.26l0,0-.43-.25h0v0h0v0h0v-.17h0Z"/></g><path class="cls-5" d="M173.16,96.4a.77.77,0,0,0,.71,0L177,94.6c.19-.11.2-.3,0-.41l-1.93-1.11a.8.8,0,0,0-.71,0l-3.12,1.8a.22.22,0,0,0,0,.41Z"/><path class="cls-5" d="M157.76,94.52a.3.3,0,0,1-.17-.25.3.3,0,0,1,.17-.24.82.82,0,0,1,.39-.09.8.8,0,0,1,.39.09.3.3,0,0,1,.17.24.29.29,0,0,1-.17.25.8.8,0,0,1-.39.09A.82.82,0,0,1,157.76,94.52Zm0-.43a.23.23,0,0,0-.13.18.24.24,0,0,0,.13.19.76.76,0,0,0,.36.08.73.73,0,0,0,.35-.08.23.23,0,0,0,.14-.19.23.23,0,0,0-.14-.18.73.73,0,0,0-.35-.08A.76.76,0,0,0,157.79,94.09Z"/><path class="cls-2" d="M159.29,92.88l.49.28a.61.61,0,0,0,.56,0l11-6.34a.17.17,0,0,0,0-.32l-.48-.28Z"/><path class="cls-44" d="M190.47,75.38c-.8-1-2.74.27-3.54-.21-.49,3.73.7,7.58,2.22,8.05a5.35,5.35,0,0,0,2.86.14,4.86,4.86,0,0,0,.92-.33c0-.18,0-.35,0-.51A11.43,11.43,0,0,0,190.47,75.38Z"/><path class="cls-45" d="M199.91,83.51a62.07,62.07,0,0,1-2.32-9.11c-.43-2.42-1.81-2.9-1.81-2.9a8.17,8.17,0,0,0-4.93-.72h-.08l-.22,0c-4.32.81-4.4,3.48-3.73,4.25a.48.48,0,0,0,.11.09c.66.4,2.11-.42,3-.13,1.05.7,1.24,2.4,1.24,5.54,0,0-.91,6.34.6,10.36a9.15,9.15,0,0,0,1.93,3.34c.77.95,2,1.31,4.12.38C202.87,92.43,201,85.92,199.91,83.51Z"/><path class="cls-46" d="M185.85,101.36c-1.81,2.08-3.82,4.19-7.09,2.37a53.38,53.38,0,0,1-8.15-5.59s-3-1.94-2.85-2.16l0,0c.24-.13,1.35.73,1.22.43s-2-1.7-1.65-2,1.78,1.33,1.87,1.31-2.18-3.14-1.83-3.45,2,2.58,2.23,2.36S168,92.18,168.53,92s2.72,2.85,2.95,2.67-.19-2,.21-1.87c.2,0,.36.68.51,1.36a6.42,6.42,0,0,0,.47,1.64c1.13.6,7.69,4,8.76,2.88,2-2.1,4.9-13.56,8.63-9.36l.21.25C192.11,92,187.66,99.28,185.85,101.36Z"/><path class="cls-47" d="M185.85,101.36c-1.81,2.08-3.82,4.19-7.09,2.37a53.38,53.38,0,0,1-8.15-5.59s-3-1.94-2.85-2.16l0,0c.93.61,2.55,1.62,3.45,2.25,1.16.8,8.11,5.05,9.62,5.08s4-1.81,5.82-5.08c1.65-3,3.37-6.26,3.37-8.87l.21.25C192.11,92,187.66,99.28,185.85,101.36Z"/><path class="cls-48" d="M203.54,103.17a2.73,2.73,0,0,1-.71.8l-.31.2h0a4.74,4.74,0,0,1-3.45.12c0-.24,0-.47-.06-.7h0a2.73,2.73,0,0,1,0-.34h0c0-.16,0-.36,0-.61v-.14a3.92,3.92,0,0,1,.11-1c.05-.24.13-.48.2-.74.24,0,.43.06.51,0s.13-.72,0-1.47c.31-.74.68-1.52,1.05-2.33.6-1.27,1.23-2.58,1.72-3.85a13.63,13.63,0,0,0,.86-2.95c0,1.2.08,3.08.14,4.5C203.67,96.23,204.92,100.84,203.54,103.17Z"/><path class="cls-49" d="M203.54,103.17a2.73,2.73,0,0,1-.71.8l-.31.2h0a4.74,4.74,0,0,1-3.45.12c0-.24,0-.47-.06-.7h0a2.73,2.73,0,0,1,0-.34h0a4,4,0,0,0,2.93-.07c1-.6,1.77-2,1.36-4.69-.25-1.61-.5-3.85-.66-5.39a13.63,13.63,0,0,0,.86-2.95c0,1.2.08,3.08.14,4.5C203.67,96.23,204.92,100.84,203.54,103.17Z"/><path class="cls-50" d="M201.09,118a6.85,6.85,0,0,1-.63,3.34c-1.13,1.92-8.18,4.75-14.92,1.47h0l-.8-.5-12-7.45s.39-.42,1.13-1.08h0c1.74.34,4.59,2.1,8.58,4.52.67.41,1.35.79,2,1.12a18.52,18.52,0,0,0,10.1,2.12A8.92,8.92,0,0,0,201.09,118Z"/><path class="cls-5" d="M208,110.4l0-.27c0-.26,0-.53,0-.78,0,0,0,0,0,0,0-.27,0-.53,0-.79,0-.08,0-.15,0-.22v-.47c0-.07,0-.14,0-.2,0-.22,0-.43,0-.64s0-.13,0-.19,0-.32,0-.47,0-.11,0-.17,0-.3,0-.45,0-.09,0-.14,0-.35,0-.52v0c0-.15,0-.3,0-.45s0-.1,0-.15,0-.21,0-.31,0-.11,0-.16,0-.18,0-.27,0-.11,0-.16,0-.18,0-.27,0-.09,0-.13,0-.26.06-.38,0-.24.07-.36l0-.1c0-.08,0-.15.05-.23a1,1,0,0,1,0-.13l0-.2,0-.11.06-.2,0-.1c0-.11.07-.23.11-.34s.1-.27.15-.39l0-.08c0-.12.1-.23.16-.34L209,100l.12-.22.06-.11.09-.14.14-.2.09-.11.15-.17.09-.09.16-.14.07-.06.24-.16-15.56,9-.24.17-.07.06-.16.15-.09.09-.14.17a.58.58,0,0,0-.09.11,1.86,1.86,0,0,0-.14.2l-.05.08,0,.07-.06.1a2.34,2.34,0,0,0-.12.22l-.06.11,0,0-.13.3,0,.06-.08.2-.07.21c0,.11-.07.22-.11.33v0l0,.07,0,.18,0,.12c0,.07,0,.14,0,.21l0,.08a.12.12,0,0,0,0,0l-.05.23,0,.11c0,.12,0,.24-.06.36h0a0,0,0,0,0,0,0c0,.12,0,.23-.06.36l0,.12,0,.29a.29.29,0,0,0,0,0v.08c0,.11,0,.2,0,.31s0,.1,0,.16,0,.2,0,.3,0,.07,0,.11a.22.22,0,0,1,0,0c0,.15,0,.3,0,.46s0,0,0,0,0,.34,0,.52c0,0,0,0,0,0s0,.07,0,.1,0,.3,0,.45,0,.11,0,.16,0,.31,0,.47,0,.07,0,.11V116c0,.21,0,.43,0,.65,0,.06,0,.12,0,.18s0,.33,0,.49,0,.08,0,.13,0,.06,0,.09c0,.26,0,.52,0,.8v0l0,.78v.12s0,.09,0,.14,0,.35,0,.53,0,.15,0,.23c0,.26,0,.52.07.8s0,.46.06.69,0,.16,0,.24,0,.27,0,.4,0,.2,0,.3l0,.31c0,.1,0,.21,0,.3s0,.21,0,.31,0,.12,0,.18,0,.32,0,.47,0,.07,0,.11,0,.26,0,.38,0,.09,0,.13,0,.2,0,.31,0,.11,0,.17,0,.3,0,.43,0,.13,0,.19V126s0,.1,0,.15,0,.09,0,.14a.73.73,0,0,1,0,.08c0,.12,0,.24,0,.36v0c0,.1,0,.2,0,.29a.69.69,0,0,0,0,.08l0,.17a.77.77,0,0,1,0,.08c0,.05,0,.11,0,.15l0,.08a2.29,2.29,0,0,1-.1.32s0,0,0,0-.07.17-.11.25l0,.05a1.11,1.11,0,0,1-.11.15l0,.06a1,1,0,0,1-.18.16l0,0,15.56-9,0,0a.78.78,0,0,0,.18-.15l0-.06.08-.1,0,0,0-.06,0-.06a1.43,1.43,0,0,0,.07-.17h0v0l0-.15a1.38,1.38,0,0,0,0-.18.08.08,0,0,0,0,0v0l0-.15v0s0,0,0,0,0-.11,0-.17a.29.29,0,0,0,0,0v0c0-.1,0-.2,0-.3h0a.07.07,0,0,0,0,0c0-.12,0-.24,0-.36a.27.27,0,0,0,0,0v0a1,1,0,0,0,0-.13s0-.1,0-.15,0-.08,0-.13,0-.1,0-.15v0c0-.14,0-.28,0-.43s0-.11,0-.16,0-.16,0-.24v-.07s0-.08,0-.12,0-.27,0-.41a.66.66,0,0,0,0-.08c0-.16,0-.33,0-.5v-.31c0-.06,0-.13,0-.19s0-.17,0-.25,0-.26,0-.39l0-.22c0-.16,0-.33,0-.51v-.14l-.06-.7c0-.27,0-.53-.06-.79,0-.09,0-.17,0-.26S208,110.56,208,110.4Z"/><path class="cls-8" d="M210.38,98.39h0a0,0,0,0,1,0,0h0s0,0,0,0h0v0h0v0h0v0h0v0h0v0h0l0,0,0,0v0h-.36l-.07,0-15.56,9,.07,0a.15.15,0,0,1,.09,0h0l.11,0a.49.49,0,0,1,.11.09h0a.6.6,0,0,1,.1.13.54.54,0,0,1,.08.28h0a.32.32,0,0,1,0,.11h0a.17.17,0,0,1-.06.08l15.56-9,0-.05v0h0a0,0,0,0,1,0,0v0h0a0,0,0,0,0,0,0Z"/><path class="cls-7" d="M194.53,106.93a.58.58,0,0,1,.21.23c.11.2.11.41,0,.47a4,4,0,0,0-1.66,2.36,19.46,19.46,0,0,0-.75,6c0,1.43.07,3.08.24,5s.27,3.54.27,4.72a8.88,8.88,0,0,1-.17,1.95,1.58,1.58,0,0,1-.57,1,1,1,0,0,1-.66.12,3.11,3.11,0,0,1-1.14-.44,8.94,8.94,0,0,1-.76-.49c-2-1.42-4.82-3.33-7.94-5.13a49.89,49.89,0,0,0-8.55-4,.65.65,0,0,1-.34-.46c0-.2.07-.32.23-.27A51,51,0,0,1,181.6,122c3.15,1.82,6,3.75,8,5.18.25.18.49.33.7.45a2.2,2.2,0,0,0,1,.37.61.61,0,0,0,.58-.33,2.1,2.1,0,0,0,.24-.69,9.3,9.3,0,0,0,.12-1.65c0-1.14-.09-2.68-.27-4.65s-.24-3.59-.24-5.05a20.17,20.17,0,0,1,.78-6.22,4.26,4.26,0,0,1,1.81-2.55A.21.21,0,0,1,194.53,106.93Z"/><g class="cls-1"><polygon class="cls-2" points="147.56 93.67 147.56 95.2 147.66 95.14 147.66 93.73 147.56 93.67"/></g><g class="cls-1"><polygon class="cls-51" points="150.77 97.06 150.77 97.21 155.8 94.3 155.8 94.15 150.77 97.06"/><polygon class="cls-52" points="150.77 97.06 147.56 95.2 147.56 95.34 150.77 97.21 150.77 97.06"/><polygon class="cls-2" points="155.8 94.15 152.6 92.29 147.56 95.2 150.77 97.06 155.8 94.15"/></g><polygon class="cls-53" points="155.59 92.69 152.46 90.87 147.66 93.64 150.79 95.46 155.59 92.69"/><polygon class="cls-54" points="147.66 93.64 150.8 95.46 150.79 96.96 147.66 95.14 147.66 93.64"/><path class="cls-40" d="M155.58,92.68a2.32,2.32,0,0,0,0,1.51L150.79,97a2.37,2.37,0,0,1,0-1.5Z"/><g class="cls-1"><polygon class="cls-51" points="150.77 95.39 150.77 95.54 155.8 92.63 155.8 92.49 150.77 95.39"/><polygon class="cls-52" points="150.77 95.39 147.56 93.53 147.56 93.67 150.77 95.54 150.77 95.39"/><polygon class="cls-2" points="147.49 93.48 147.73 93.62 147.8 93.66 150.77 95.39 155.8 92.49 152.83 90.76 152.76 90.72 152.52 90.58 147.49 93.48"/></g><polygon class="cls-52" points="147.49 93.48 147.49 95.3 147.56 95.34 147.56 93.53 147.49 93.48"/><polygon class="cls-55" points="147.73 93.62 147.8 93.66 152.83 90.76 152.76 90.72 147.73 93.62"/><g class="cls-1"><polygon class="cls-56" points="151.07 94.94 151.07 95.06 155.95 92.24 155.95 92.12 151.07 94.94"/><polygon class="cls-38" points="151.07 94.94 148.12 93.22 148.12 93.34 151.07 95.06 151.07 94.94"/><polygon class="cls-33" points="155.95 92.12 153 90.41 148.12 93.22 151.07 94.94 155.95 92.12"/></g><polygon class="cls-56" points="148.19 92.5 148.19 93.26 148.31 93.19 148.31 92.56 148.19 92.5"/><polygon class="cls-54" points="151.13 94.1 148.27 92.44 148.28 93.21 151.13 94.86 151.13 94.1"/><path class="cls-40" d="M151.14,94.1h0l4.75-2.74a1,1,0,0,0,0,.76l-4.75,2.74h0A1,1,0,0,1,151.14,94.1Z"/><g class="cls-1"><polygon class="cls-56" points="151.07 94.05 151.07 94.18 155.95 91.36 155.95 91.24 151.07 94.05"/><polygon class="cls-38" points="151.07 94.05 148.12 92.34 148.12 92.46 151.07 94.18 151.07 94.05"/><polygon class="cls-33" points="155.95 91.24 153 89.52 148.12 92.34 151.07 94.05 155.95 91.24"/></g><polygon class="cls-38" points="148.19 92.5 148.19 93.26 148.12 93.22 148.12 92.46 148.19 92.5"/><polygon class="cls-57" points="151.66 93.21 154.86 91.35 152.7 90.1 149.5 91.96 151.66 93.21"/><polygon class="cls-58" points="151.75 93.33 154.94 91.48 154.94 90.42 151.75 92.27 151.75 93.33"/><g class="cls-1"><path class="cls-40" d="M149.57,91.92l2.1,1.22v-.86l-2.1-1.22a1.4,1.4,0,0,1,.06.46A.84.84,0,0,1,149.57,91.92Z"/></g><polygon class="cls-29" points="149.51 90.98 149.51 91.06 151.67 92.31 151.66 93.21 149.5 91.96 149.5 92.03 151.75 93.33 151.75 92.27 149.51 90.98"/><polygon class="cls-58" points="151.75 92.27 154.94 90.42 152.7 89.12 149.51 90.98 151.75 92.27"/><polygon class="cls-29" points="154.73 90.42 152.7 89.25 149.73 90.98 151.75 92.15 154.73 90.42"/><polygon class="cls-57" points="154.44 90.42 152.7 89.42 150.02 90.98 151.75 91.98 154.44 90.42"/><g class="cls-1"><polygon class="cls-59" points="136.43 60.2 137 59.86 140.49 61.88 139.91 62.21 136.43 60.2"/><polygon class="cls-59" points="140.43 62.51 141.01 62.17 144.5 64.19 143.92 64.52 140.43 62.51"/><polygon class="cls-60" points="143.92 64.52 144.5 64.19 144.5 64.73 143.91 65.07 143.92 64.52"/><polygon class="cls-61" points="140.45 43.95 140.43 62.51 143.92 64.52 143.91 65.07 136.43 60.75 136.43 60.2 139.91 62.21 139.91 43.65 140.45 43.95"/><polygon class="cls-60" points="140.45 43.95 141.03 43.61 141.01 62.17 140.43 62.51 140.45 43.95"/></g><g class="cls-1"><polygon class="cls-59" points="115.49 72.31 116.06 71.97 119.55 73.99 118.98 74.33 115.49 72.31"/><polygon class="cls-59" points="119.49 74.62 120.07 74.28 123.56 76.3 122.98 76.63 119.49 74.62"/><polygon class="cls-60" points="122.98 76.63 123.56 76.3 123.56 76.85 122.98 77.18 122.98 76.63"/><polygon class="cls-61" points="119.51 56.06 119.49 74.62 122.98 76.63 122.98 77.18 115.49 72.86 115.49 72.31 118.98 74.33 118.98 55.76 119.51 56.06"/><polygon class="cls-60" points="119.51 56.06 120.09 55.73 120.07 74.28 119.49 74.62 119.51 56.06"/></g><g class="cls-1"><polygon class="cls-60" points="116.68 38.42 116.74 59.34 143.11 44.11 143.06 23.2 116.68 38.42"/><polygon class="cls-8" points="141.88 43.4 141.83 25.32 117.91 39.13 117.96 57.21 141.88 43.4"/><polygon class="cls-61" points="116.68 38.42 115.81 37.92 115.87 58.84 116.74 59.34 116.68 38.42"/><polygon class="cls-62" points="143.06 23.2 142.19 22.69 115.81 37.92 116.68 38.42 143.06 23.2"/></g><path class="cls-63" d="M121.81,38.06l9.46-5.46v6L121.81,44Zm9.37-5.32-9.28,5.36v5.81l9.28-5.36Z"/><polygon class="cls-63" points="129.99 39.28 130.08 39.23 130.08 33.32 129.99 33.38 129.99 39.28"/><polygon class="cls-63" points="128.58 40.09 128.67 40.04 128.67 34.14 128.58 34.19 128.58 40.09"/><polygon class="cls-63" points="127.17 40.9 127.26 40.85 127.26 34.95 127.17 35 127.17 40.9"/><polygon class="cls-63" points="125.77 41.71 125.86 41.66 125.86 35.76 125.77 35.81 125.77 41.71"/><polygon class="cls-63" points="124.36 42.53 124.45 42.48 124.45 36.58 124.36 36.63 124.36 42.53"/><polygon class="cls-63" points="122.95 43.34 123.04 43.29 123.04 37.39 122.95 37.44 122.95 43.34"/><polygon class="cls-63" points="121.85 39.26 131.22 33.85 131.22 33.77 121.85 39.17 121.85 39.26"/><polygon class="cls-63" points="121.85 40.54 131.22 35.13 131.22 35.04 121.85 40.45 121.85 40.54"/><polygon class="cls-63" points="121.85 41.73 131.22 36.31 131.22 36.23 121.85 41.64 121.85 41.73"/><polygon class="cls-63" points="121.85 42.91 131.22 37.5 131.22 37.41 121.85 42.83 121.85 42.91"/><path class="cls-63" d="M129.24,35.69a.09.09,0,0,1,0,0l0,0,.22,0s0,0,0,.05a.08.08,0,0,1-.06,0h-.13c.46,1,0,3.81,0,3.93a.09.09,0,0,1,0,.06h0s0,0,0,0,.48-2.85,0-3.86l0,.14a.09.09,0,0,1,0,.05h0s0,0,0,0Z"/><path class="cls-63" d="M128,36.17l-.07,0s0,0,0,0a.12.12,0,0,1,0-.07l.25-.11h0a0,0,0,0,1,0,0l-.13.31a.11.11,0,0,1,0,0h0s0,0,0,0l.08-.2c-4.54,4.6-4.35,6.69-4.35,6.71l-.09.06C123.65,42.85,123.45,40.79,128,36.17Z"/><path class="cls-63" d="M124.89,37.91l.26-.29s0,0,.06,0a.06.06,0,0,1,0,.07l-.13.14c4.77-2.27,5.58,1,5.59,1.07l-.08.07s-.81-3.28-5.49-1.05h.12s0,0,0,.06a.06.06,0,0,1,0,0h0l-.25,0s0,0,0,0A.09.09,0,0,1,124.89,37.91Z"/><path class="cls-63" d="M122.27,49.47c0,.08.06.11.14.06a.31.31,0,0,0,.13-.17l4-2.31-.22.36a5.73,5.73,0,0,1-1.4,1.79c-.9.55-1.39.35-1.54.26l.17-.24-.39.15v.39l.14-.19c.15.09.64.29,1.54-.23l.08,0a5.83,5.83,0,0,0,1.48-1.87l.3-.47,4.25-2.45a2.22,2.22,0,0,1,.49.45l-.19.22h.48v-.53l-.2.22a2.13,2.13,0,0,0-.44-.42l.93-.54s.07,0,.13,0a.3.3,0,0,0,.14-.23c0-.08-.06-.11-.14-.06a.29.29,0,0,0-.13.16l-1,.59a2,2,0,0,0-2.16.11,7,7,0,0,0-2.18,2.4l-4.11,2.37s-.07,0-.13,0A.29.29,0,0,0,122.27,49.47Zm4.54-2.67a6.51,6.51,0,0,1,2-2.2,1.91,1.91,0,0,1,2-.13Z"/><path class="cls-64" d="M144.58,31.52a.86.86,0,0,0,.18.32l.06.06a1.33,1.33,0,0,0,1.28.15c0,.32,0,1.23,0,1.22l1.64-.93a2.66,2.66,0,0,1,0-.6,1.27,1.27,0,0,1-.47.1,1.37,1.37,0,0,1-.95-.26h0a1.74,1.74,0,0,1-.4-.5c-.37-.67-.37-1.39-1-.49l-.28-1.74s0-.09,0-.13a1.19,1.19,0,0,1,0-.37c-.21.45-.06.95-.15,1.26A3.9,3.9,0,0,0,144.58,31.52Z"/><path class="cls-65" d="M149.63,38.72a4,4,0,0,0,.1.79c.73.14,1.76.11,2-.92a4.71,4.71,0,0,0-.32-2.55c-.14-.5-.29-1.07-.29-1.07a3.92,3.92,0,0,1-.27.29,2.06,2.06,0,0,1-.46.31,3.83,3.83,0,0,0-.31.78c-.14.45-.25.91-.25.91s0,.14.1.45-.26.32-.26.32A2.15,2.15,0,0,0,149.63,38.72Z"/><path class="cls-66" d="M146.1,62.17a.34.34,0,0,0,0,.09c.06.41,1.53,1.07,2,1.34a1,1,0,0,0,1.1,0,.92.92,0,0,0,.15-.21,1.09,1.09,0,0,0,.09-.76s0-.1,0-.11a16.37,16.37,0,0,1-1.9-.59C146.54,61.61,146.11,61.81,146.1,62.17Z"/><path class="cls-67" d="M146.1,62.17a.34.34,0,0,0,0,.09c.06.41,1.53,1.07,2,1.34a1,1,0,0,0,1.1,0,.92.92,0,0,0,.15-.21,1.5,1.5,0,0,1-.67.12c-.6,0-.91-.34-1.45-.65A10.9,10.9,0,0,1,146.1,62.17Z"/><path class="cls-66" d="M141.2,62.76a7.29,7.29,0,0,0,2.33,1.36.61.61,0,0,0,.74-.32,1.54,1.54,0,0,0,.13-.76c-.06-.63-2.11-1-2.71-1.12a.62.62,0,0,0-.7.33A.46.46,0,0,0,141.2,62.76Z"/><path class="cls-67" d="M141.2,62.76a7.29,7.29,0,0,0,2.33,1.36.61.61,0,0,0,.74-.32,1.18,1.18,0,0,1-.83,0,4.54,4.54,0,0,1-1.76-.9,2.54,2.54,0,0,1-.69-.7A.46.46,0,0,0,141.2,62.76Z"/><path class="cls-68" d="M144.3,63.05s0,.32-.1.36a1.83,1.83,0,0,1-.76.07c-.27,0-.26-.11-.26-.11l-.07-.29A11.18,11.18,0,0,0,144.3,63.05Z"/><path class="cls-69" d="M149.27,62.84a.58.58,0,0,1-.34.45.69.69,0,0,1-.68-.15.76.76,0,0,1-.14-.38.81.81,0,0,0,.58.28A.87.87,0,0,0,149.27,62.84Z"/><path class="cls-2" d="M141.82,55c.18,1.1,1,7.92,1.29,8.06a2.38,2.38,0,0,0,1,0l.18,0a35.89,35.89,0,0,0,.32-5.57,5,5,0,0,0-.93-2.31,45.69,45.69,0,0,1,2.45-4.76c.9-1.57,1.2-2.07,1.34-2.28s.1,3.82.15,5.82.23,8.22.48,8.8a.52.52,0,0,0,.44.31.85.85,0,0,0,.77-.31,21.21,21.21,0,0,0,.86-4.32,8.85,8.85,0,0,0-.63-4.63c-.23-.47.63-3.44,1.17-5.78a11,11,0,0,0,.42-3.68,1.22,1.22,0,0,1,0-.15l0,0h0l-.06,0A11,11,0,0,1,148,46.16l0,0a6.21,6.21,0,0,1-1,.25,9.76,9.76,0,0,1-2.82,0H144a45.71,45.71,0,0,0-1.86,6.23h0A8.79,8.79,0,0,0,141.82,55Z"/><path class="cls-58" d="M143.75,38c.7.19,1.39.63.89,2.51a26.49,26.49,0,0,0-.62,6h.08l.49.08a7.59,7.59,0,0,0,2.33-.09,9.1,9.1,0,0,0,1-.25l0,0a9.49,9.49,0,0,0,3.12-1.71,2,2,0,0,0,0-.22h0a8.09,8.09,0,0,0-1-3.33,5.24,5.24,0,0,1-.43-2.94,11.65,11.65,0,0,1,.7-2.38c.6-1.66.56-3.21,0-3.94-.34-.42-1.12-.28-2.05.14a18.76,18.76,0,0,0-2.84,1.68c-.31.22-.62.44-.9.65a4.12,4.12,0,0,0-.58.52C142.67,36.07,143.07,37.76,143.75,38Z"/><path class="cls-70" d="M136.17,29.83a8.8,8.8,0,0,1,.45,1.15h0a18.47,18.47,0,0,0,1.82,5.65c1.15,1.95,2,2.07,3.43,1.84a5.73,5.73,0,0,0,1.41-.46c.25-.11.48-.22.7-.34a10.06,10.06,0,0,0,1.36-.87c.78-.67.83-1.47-.07-2s-1.83.35-2.8.91c-.71.41-1.39.67-2,.18a22.64,22.64,0,0,1-3-5h0a4.18,4.18,0,0,1,.14-.78c.12-.33.05-.74,0-.75s-.08.69-.3.51c-.06,0-.12-.15-.1-.36s.2-.22.23-.33-.07-.12-.24-.06-.18.28-.23.31-.07-.14,0-.42,0-.31-.07-.31-.22.59-.24.69-.07,0-.08-.21,0-.42-.08-.4-.14.49-.11.67-.05.11-.08,0,0-.28-.1-.25a.1.1,0,0,0,0,.08A1.21,1.21,0,0,0,136.17,29.83Z"/><path class="cls-71" d="M151.14,35a2.44,2.44,0,0,1-.73.61s1-2.92-.27-4.12a1.6,1.6,0,0,1,.81,1.23A11,11,0,0,1,151.14,35Z"/><path class="cls-72" d="M146,32c0,.35,0,1.34,0,1.33l1.79-1a2.62,2.62,0,0,1,0-.65,1.43,1.43,0,0,1-.52.11,1.51,1.51,0,0,1-1-.28h0a1.72,1.72,0,0,1-1.65.36A1.46,1.46,0,0,0,146,32Z"/><path class="cls-73" d="M144.72,28.35c.15-.53.7-1.06,2-1.12a2.09,2.09,0,0,1,1.76.91h0c.5.71.41,1.2.26,2.24a2.57,2.57,0,0,0,.65,2c.34.53.07,1.23-1.14,1.86s-1.75.58-2.38.14-.47-1.29-.15-2.2a2.24,2.24,0,0,0-.16-2h0c-.07-.09-.15-.1-.27,0a1.59,1.59,0,0,0-.28.35s0-.22-.08-.53l-.19-1.21s0-.09,0-.13A1.19,1.19,0,0,1,144.72,28.35Z"/><path class="cls-74" d="M149.63,38.72a1.08,1.08,0,0,0,.51-.25c.43-.43.29-.9,0-2.11-.14.45-.25.91-.25.91s0,.14.1.45-.26.32-.26.32A2.15,2.15,0,0,0,149.63,38.72Z"/><path class="cls-75" d="M143.34,55.47a11.75,11.75,0,0,1,.75,4.69c0,1.37,0,2.35,0,2.91l.18,0a35.89,35.89,0,0,0,.32-5.57,5,5,0,0,0-.93-2.31,45.69,45.69,0,0,1,2.45-4.76c.9-1.57,1.2-2.07,1.34-2.28s.1,3.82.15,5.82.23,8.22.48,8.8a.52.52,0,0,0,.44.31,43.78,43.78,0,0,1-.56-5.4c-.09-2.16-.15-7.48-.2-8.55s.13-1,.13-1a6.56,6.56,0,0,0,1.43-1.25,3.15,3.15,0,0,1-1.56.68,11.65,11.65,0,0,1-2,.29,3.43,3.43,0,0,0,1.23.36c.47,0,0,.1,0,.1a20.9,20.9,0,0,0-2,3.07C144,53.29,143,54.9,143.34,55.47Z"/><path class="cls-76" d="M143.75,38c.7.19,1.39.63.89,2.51a26.49,26.49,0,0,0-.62,6h.08l.49.08a12.74,12.74,0,0,1,.2-5.36c.67-2.3.59-2.32.34-2.87a3,3,0,0,0-1.16-1,4.11,4.11,0,0,1,0-2.64C142.67,36.07,143.07,37.76,143.75,38Z"/><path class="cls-77" d="M136.17,29.83a8.8,8.8,0,0,1,.45,1.15h0a18.47,18.47,0,0,0,1.82,5.65c1.15,1.95,2,2.07,3.43,1.84a5.73,5.73,0,0,0,1.41-.46c.25-.11.48-.22.7-.34l-.85-.35a3.14,3.14,0,0,1-2.91.39c-1-.52-1.92-2.34-2.72-4.3a7,7,0,0,1-.74-2.54,6.57,6.57,0,0,1-.65-1.66A1.21,1.21,0,0,0,136.17,29.83Z"/><path class="cls-71" d="M142.46,35.7a4.86,4.86,0,0,0,.45,1.68,3.76,3.76,0,0,0,.37.63,10.53,10.53,0,0,0,2.05-1.22,1.33,1.33,0,0,0,.58-1.24,1.24,1.24,0,0,0-.65-.76C144.44,34.31,143.43,35.14,142.46,35.7Z"/><path class="cls-78" d="M142.91,37.38a3.76,3.76,0,0,0,.37.63,10.53,10.53,0,0,0,2.05-1.22,1.33,1.33,0,0,0,.58-1.24A9,9,0,0,1,142.91,37.38Z"/><path class="cls-79" d="M137.38,29.17s.21,0,.17.17-.15.21-.21.13A.22.22,0,0,1,137.38,29.17Z"/></g></g></svg>