<svg xmlns="http://www.w3.org/2000/svg" xmlns:xlink="http://www.w3.org/1999/xlink" viewBox="0 0 300 150"><defs><style>.cls-1{isolation:isolate;}.cls-2{fill:#b3b2da;}.cls-3{fill:#8b9bb1;}.cls-4{fill:#1a2947;}.cls-5{fill:#111b34;}.cls-6{fill:#5e7184;}.cls-7{fill:#4e6475;}.cls-8{fill:#ff3d60;}.cls-9{fill:#1c6168;}.cls-10{fill:#1f3051;}.cls-11{fill:#baa999;}.cls-12{fill:#d3d3d3;}.cls-13{fill:#eee;}.cls-14{fill:#f44a4a;}.cls-15{fill:#e52c54;}.cls-16{fill:#9f1c3b;}.cls-17{fill:#2525bf;}.cls-18{fill:#0400a4;}.cls-19{fill:#07008f;}.cls-20{fill:#9eafaf;}.cls-21{fill:#b9c6c6;}.cls-22{fill:#79889b;}.cls-23{fill:#b4c2d3;}.cls-24{fill:#7f90a5;}.cls-25{fill:#abe1ef;}.cls-26{fill:#891234;}.cls-27{fill:#bc1d4a;}.cls-28{fill:#6f859e;}.cls-29{fill:#6b7d8e;}.cls-30{fill:#849eb7;}.cls-31{fill:#0d0dc9;}.cls-32{fill:#bc7800;}.cls-33{fill:#0606c4;}.cls-34{fill:#e5234d;}.cls-35{fill:#00009e;}.cls-36{fill:#1a1ae2;}.cls-37{fill:#0000af;}.cls-38{fill:#1313a0;}.cls-39{fill:#3434d6;}.cls-40{fill:#e0e0e0;}.cls-41{fill:#577084;}.cls-42{fill:#859db5;}.cls-43{fill:#cecece;}.cls-44{fill:#bdd0e0;}.cls-45{fill:#cadaea;}.cls-46{fill:#dfe9f2;}.cls-47{fill:#b68959;}.cls-48{fill:#613b1f;}.cls-49{fill:url(#linear-gradient);}.cls-50{fill:url(#linear-gradient-2);}.cls-51{fill:#774b2e;}.cls-52{fill:url(#linear-gradient-3);}.cls-53{fill:url(#linear-gradient-4);}.cls-54{fill:#604200;}.cls-55{fill:#b2830d;}.cls-56{fill:#561111;}.cls-57,.cls-58,.cls-73,.cls-79,.cls-80{opacity:0.3;}.cls-57,.cls-58,.cls-71,.cls-72,.cls-73,.cls-74,.cls-77,.cls-78,.cls-79,.cls-80,.cls-81,.cls-83,.cls-84,.cls-87,.cls-88,.cls-90,.cls-91,.cls-93{mix-blend-mode:multiply;}.cls-57{fill:url(#linear-gradient-5);}.cls-58{fill:url(#linear-gradient-6);}.cls-59{fill:url(#linear-gradient-7);}.cls-60{fill:#c21b1b;opacity:0.5;}.cls-61{fill:url(#linear-gradient-8);}.cls-62{fill:url(#linear-gradient-9);}.cls-63{fill:url(#linear-gradient-10);}.cls-64{fill:url(#linear-gradient-11);}.cls-65{fill:#56261b;}.cls-66{fill:url(#linear-gradient-12);}.cls-67{fill:url(#linear-gradient-13);}.cls-68{fill:#ff4d73;}.cls-69{fill:url(#linear-gradient-14);}.cls-70{fill:url(#linear-gradient-15);}.cls-71,.cls-72,.cls-74,.cls-77,.cls-78,.cls-83,.cls-84,.cls-90{opacity:0.4;}.cls-71{fill:url(#linear-gradient-16);}.cls-72{fill:url(#linear-gradient-17);}.cls-73{fill:#de2d2d;}.cls-74{fill:url(#linear-gradient-18);}.cls-75{fill:url(#linear-gradient-19);}.cls-76{fill:url(#linear-gradient-20);}.cls-77{fill:url(#linear-gradient-21);}.cls-78{fill:#ff4d4d;}.cls-79{fill:#155c7c;}.cls-80{fill:#1a9cc4;}.cls-81{fill:#18394b;}.cls-81,.cls-87,.cls-88,.cls-91,.cls-93{opacity:0.2;}.cls-82{fill:#dadae8;}.cls-83{fill:#84849b;}.cls-84{fill:#61617a;}.cls-85{fill:url(#linear-gradient-22);}.cls-86{fill:url(#linear-gradient-23);}.cls-87{fill:url(#linear-gradient-24);}.cls-88{fill:url(#linear-gradient-25);}.cls-89{fill:url(#linear-gradient-26);}.cls-90{fill:url(#linear-gradient-27);}.cls-91{fill:#0b93aa;}.cls-92{fill:url(#linear-gradient-28);}.cls-93{fill:url(#linear-gradient-29);}.cls-94{fill:url(#linear-gradient-30);}.cls-95{fill:#ea832f;}.cls-96{fill:#748599;}</style><linearGradient id="linear-gradient" x1="261.01" y1="129.66" x2="256.37" y2="110.7" gradientTransform="matrix(-1, 0, 0, 1, 347.86, 0)" gradientUnits="userSpaceOnUse"><stop offset="0" stop-color="#b68959"/><stop offset="0.99" stop-color="#97683f"/></linearGradient><linearGradient id="linear-gradient-2" x1="235" y1="125.34" x2="257.79" y2="125.34" xlink:href="#linear-gradient"/><linearGradient id="linear-gradient-3" x1="214.85" y1="114.44" x2="237.64" y2="114.44" xlink:href="#linear-gradient"/><linearGradient id="linear-gradient-4" x1="222.76" y1="118.28" x2="245.83" y2="92.8" gradientTransform="matrix(-1, 0, 0, 1, 347.86, 0)" gradientUnits="userSpaceOnUse"><stop offset="0.01" stop-color="#836203"/><stop offset="0.48" stop-color="#9a7304"/><stop offset="0.99" stop-color="#9e7500"/></linearGradient><linearGradient id="linear-gradient-5" x1="227.04" y1="125.89" x2="229.28" y2="123.42" xlink:href="#linear-gradient-4"/><linearGradient id="linear-gradient-6" x1="231.42" y1="121.38" x2="260.93" y2="88.77" xlink:href="#linear-gradient-4"/><linearGradient id="linear-gradient-7" x1="209.28" y1="133.45" x2="242.31" y2="100.36" gradientTransform="matrix(-1, 0, 0, 1, 347.86, 0)" gradientUnits="userSpaceOnUse"><stop offset="0.01" stop-color="#1299cb"/><stop offset="1" stop-color="#008bcb"/></linearGradient><linearGradient id="linear-gradient-8" x1="240.25" y1="70.08" x2="248.66" y2="64.09" gradientTransform="matrix(-1, 0, 0, 1, 347.86, 0)" gradientUnits="userSpaceOnUse"><stop offset="0.01" stop-color="#dea595"/><stop offset="0.99" stop-color="#e2837a"/></linearGradient><linearGradient id="linear-gradient-9" x1="247.92" y1="69.11" x2="253.28" y2="61.53" xlink:href="#linear-gradient-8"/><linearGradient id="linear-gradient-10" x1="242.35" y1="58.46" x2="269.81" y2="98.61" xlink:href="#linear-gradient-8"/><linearGradient id="linear-gradient-11" x1="246.28" y1="76.72" x2="247.39" y2="71.05" xlink:href="#linear-gradient-8"/><linearGradient id="linear-gradient-12" x1="242.04" y1="73.38" x2="247.49" y2="59.19" gradientTransform="matrix(-1, 0, 0, 1, 347.86, 0)" gradientUnits="userSpaceOnUse"><stop offset="0.02" stop-color="#56261b"/><stop offset="0.99" stop-color="#4d1b12"/></linearGradient><linearGradient id="linear-gradient-13" x1="241.84" y1="97.33" x2="234.34" y2="76.77" xlink:href="#linear-gradient-8"/><linearGradient id="linear-gradient-14" x1="207.55" y1="135.65" x2="209.71" y2="133.85" xlink:href="#linear-gradient-8"/><linearGradient id="linear-gradient-15" x1="210.8" y1="137.82" x2="213.06" y2="135.93" xlink:href="#linear-gradient-8"/><linearGradient id="linear-gradient-16" x1="233.55" y1="137.81" x2="234.1" y2="100.27" gradientTransform="matrix(-1, 0, 0, 1, 347.86, 0)" gradientUnits="userSpaceOnUse"><stop offset="0.01" stop-color="#0386bd"/><stop offset="0.99" stop-color="#0071ab"/></linearGradient><linearGradient id="linear-gradient-17" x1="222.87" y1="135.6" x2="223.3" y2="106.27" xlink:href="#linear-gradient-16"/><linearGradient id="linear-gradient-18" x1="236.68" y1="91.83" x2="242.92" y2="86.61" xlink:href="#linear-gradient-8"/><linearGradient id="linear-gradient-19" x1="260.15" y1="98.44" x2="237.79" y2="85.48" xlink:href="#linear-gradient-8"/><linearGradient id="linear-gradient-20" x1="248.76" y1="94.54" x2="249.13" y2="97.15" xlink:href="#linear-gradient-8"/><linearGradient id="linear-gradient-21" x1="238.15" y1="101.73" x2="260.05" y2="83.43" xlink:href="#linear-gradient-8"/><linearGradient id="linear-gradient-22" x1="-60.83" y1="140.56" x2="-56.42" y2="140.56" gradientTransform="translate(246.98)" xlink:href="#linear-gradient-8"/><linearGradient id="linear-gradient-23" x1="-31.52" y1="118.8" x2="-55.13" y2="131.37" gradientTransform="translate(246.98)" xlink:href="#linear-gradient-8"/><linearGradient id="linear-gradient-24" x1="-42.06" y1="120.71" x2="-37.24" y2="120.71" gradientTransform="translate(246.98)" xlink:href="#linear-gradient-8"/><linearGradient id="linear-gradient-25" x1="-51.98" y1="127.26" x2="-31.46" y2="127.26" gradientTransform="translate(246.98)" xlink:href="#linear-gradient-8"/><linearGradient id="linear-gradient-26" x1="-68.24" y1="121.02" x2="-53.55" y2="121.02" gradientTransform="translate(246.98)" xlink:href="#linear-gradient-8"/><linearGradient id="linear-gradient-27" x1="-65.79" y1="121.26" x2="-53.76" y2="121.26" gradientTransform="translate(246.98)" xlink:href="#linear-gradient-8"/><linearGradient id="linear-gradient-28" x1="-47.49" y1="105.72" x2="-45.78" y2="100.66" gradientTransform="translate(246.98)" xlink:href="#linear-gradient-8"/><linearGradient id="linear-gradient-29" x1="-48.8" y1="102.11" x2="-43.77" y2="102.11" gradientTransform="translate(246.98)" xlink:href="#linear-gradient-8"/><linearGradient id="linear-gradient-30" x1="-35.14" y1="110.71" x2="-30.85" y2="95.02" gradientTransform="translate(245.5 -3.15) rotate(7.18)" xlink:href="#linear-gradient-8"/></defs><title>10</title><g class="cls-1"><g id="Layer_1" data-name="Layer 1"><path class="cls-2" d="M104.79,61.87c0-1.23.86-1.73,1.93-1.12a4.27,4.27,0,0,1,1.93,3.35c0,1.23-.87,1.73-1.93,1.12A4.27,4.27,0,0,1,104.79,61.87Z"/><path class="cls-3" d="M104.58,62c0-1.23.86-1.73,1.93-1.12a4.27,4.27,0,0,1,1.93,3.35c0,1.23-.86,1.73-1.93,1.12A4.28,4.28,0,0,1,104.58,62Z"/><path class="cls-4" d="M104.18,61l.13.23a1.88,1.88,0,0,0-.19.89,4.49,4.49,0,0,0,2,3.52,1.85,1.85,0,0,0,.87.28l.13.22.49-.39h0a1.46,1.46,0,0,0,.54-1.28,4.5,4.5,0,0,0-2-3.52,1.49,1.49,0,0,0-1.35-.19h0Z"/><path class="cls-5" d="M103.81,61.31a1.73,1.73,0,0,0-.34,1.13,4.65,4.65,0,0,0,2.1,3.64,1.72,1.72,0,0,0,1.15.27l0,.06.31-.18h0a1.48,1.48,0,0,0,.61-1.36,4.64,4.64,0,0,0-2.1-3.65,1.47,1.47,0,0,0-1.49-.15h0l-.31.18Z"/><path class="cls-4" d="M103.12,62.64c0-1.34.94-1.88,2.1-1.21a4.64,4.64,0,0,1,2.11,3.64c0,1.34-.94,1.89-2.11,1.21A4.65,4.65,0,0,1,103.12,62.64Z"/><path class="cls-5" d="M104,61.67a.61.61,0,0,1,.25-.08,1.4,1.4,0,0,1,.79.22,4.21,4.21,0,0,1,1.88,3.25,1.25,1.25,0,0,1-.27.87.54.54,0,0,1-.12.09,1.07,1.07,0,0,1-1-.15,4.2,4.2,0,0,1-1.88-3.25A1.08,1.08,0,0,1,104,61.67Z"/><path class="cls-3" d="M104.19,61.58a1.34,1.34,0,0,1,.74.2l0,0a4.2,4.2,0,0,1,1.88,3.25s0,.07,0,.1a1.19,1.19,0,0,1-.27.78,1.39,1.39,0,0,1-.79-.22,4.2,4.2,0,0,1-1.88-3.25A1.25,1.25,0,0,1,104.19,61.58Z"/><path class="cls-2" d="M104.93,61.78l0,0a4.2,4.2,0,0,1,1.88,3.25s0,.07,0,.1a1,1,0,0,1-1-.1,3,3,0,0,1-1.37-2.38A1,1,0,0,1,104.93,61.78Z"/><path class="cls-6" d="M105.82,60.33c0,.06,0,.33-.23.4a3.18,3.18,0,0,1,1.41.9,1.22,1.22,0,0,1-.15-.64Z"/><path class="cls-7" d="M107,61a.55.55,0,0,0,.22.47l-.17.11a1.1,1.1,0,0,1-.13-.39C106.87,61.05,107,61,107,61Z"/><path class="cls-8" d="M99.59,70.35a.11.11,0,0,0-.11,0,.36.36,0,0,0-.16.28.11.11,0,0,0,0,.11l.77.36a.08.08,0,0,1,0-.07.26.26,0,0,1,.11-.2.08.08,0,0,1,.08,0l-.69-.48h0Z"/><path class="cls-9" d="M100.3,70.83a.08.08,0,0,0-.08,0,.26.26,0,0,0-.11.2.08.08,0,0,0,0,.08h0a.08.08,0,0,0,.08,0,.26.26,0,0,0,.12-.2.08.08,0,0,0,0-.08Z"/><g class="cls-1"><polygon class="cls-5" points="142.98 50.29 143.01 56.02 143.38 55.8 143.36 50.51 142.98 50.29"/></g><g class="cls-1"><polygon class="cls-10" points="155 62.97 155 63.52 173.81 52.66 173.81 52.1 155 62.97"/><polygon class="cls-4" points="155 62.97 143.01 56 143.01 56.55 155 63.52 155 62.97"/><polygon class="cls-5" points="173.81 52.1 161.82 45.14 143.01 56 155 62.97 173.81 52.1"/></g><polygon class="cls-11" points="173.02 46.63 161.31 39.82 143.36 50.18 155.08 56.99 173.02 46.63"/><polygon class="cls-12" points="143.36 50.18 155.12 56.99 155.09 62.6 143.38 55.8 143.36 50.18"/><path class="cls-13" d="M173,46.61a8.66,8.66,0,0,0,.05,5.64L155.09,62.61a8.83,8.83,0,0,1,0-5.62Z"/><g class="cls-1"><polygon class="cls-10" points="155 56.74 155 57.28 173.81 46.42 173.81 45.87 155 56.74"/><polygon class="cls-4" points="155 56.74 142.99 49.76 142.98 50.3 155 57.28 155 56.74"/><polygon class="cls-5" points="142.73 49.6 143.62 50.12 143.89 50.27 155 56.74 173.81 45.87 162.71 39.41 162.44 39.26 161.55 38.74 142.73 49.6"/></g><polygon class="cls-4" points="142.73 49.6 142.73 56.39 143.01 56.55 143.01 49.76 142.73 49.6"/><polygon class="cls-14" points="143.62 50.12 143.89 50.27 162.71 39.41 162.44 39.26 143.62 50.12"/><g class="cls-1"><polygon class="cls-15" points="156.13 55.03 156.14 55.49 174.37 44.96 174.37 44.51 156.13 55.03"/><polygon class="cls-16" points="156.13 55.03 145.09 48.61 145.09 49.07 156.14 55.49 156.13 55.03"/><polygon class="cls-8" points="174.37 44.51 163.32 38.09 145.09 48.61 156.13 55.03 174.37 44.51"/></g><polygon class="cls-15" points="145.36 45.9 145.35 48.75 145.8 48.48 145.8 46.15 145.36 45.9"/><polygon class="cls-12" points="156.36 51.9 145.67 45.7 145.67 48.56 156.37 54.76 156.36 51.9"/><path class="cls-13" d="M156.36,51.9h0l17.77-10.25a3.58,3.58,0,0,0,0,2.86L156.37,54.76h0A3.79,3.79,0,0,1,156.36,51.9Z"/><g class="cls-1"><polygon class="cls-15" points="156.13 51.73 156.13 52.18 174.37 41.66 174.36 41.2 156.13 51.73"/><polygon class="cls-16" points="156.13 51.73 145.09 45.31 145.09 45.77 156.13 52.18 156.13 51.73"/><polygon class="cls-8" points="174.37 41.2 163.33 34.79 145.09 45.31 156.13 51.73 174.37 41.2"/></g><polygon class="cls-16" points="145.35 45.92 145.35 48.77 145.09 48.61 145.09 45.76 145.35 45.92"/><polygon class="cls-17" points="158.34 48.56 170.28 41.62 162.2 36.96 150.26 43.89 158.34 48.56"/><polygon class="cls-18" points="158.66 49.02 170.6 42.09 170.6 38.14 158.67 45.07 158.66 49.02"/><g class="cls-1"><path class="cls-13" d="M150.51,43.77l7.86,4.56V45.12l-7.86-4.55a5.13,5.13,0,0,1,.22,1.71A3.28,3.28,0,0,1,150.51,43.77Z"/></g><polygon class="cls-19" points="150.27 40.23 150.27 40.53 158.36 45.2 158.34 48.56 150.26 43.89 150.26 44.18 158.66 49.02 158.67 45.07 150.27 40.23"/><polygon class="cls-18" points="158.67 45.07 170.6 38.14 162.21 33.29 150.27 40.23 158.67 45.07"/><polygon class="cls-19" points="169.79 38.14 162.21 33.76 151.09 40.22 158.67 44.6 169.79 38.14"/><polygon class="cls-17" points="168.7 38.14 162.21 34.4 152.18 40.22 158.67 43.97 168.7 38.14"/><path class="cls-10" d="M146.76,56.89c.7.41,1.27.08,1.27-.73a2.81,2.81,0,0,0-1.27-2.2c-.7-.41-1.27-.08-1.27.74A2.81,2.81,0,0,0,146.76,56.89Z"/><path class="cls-5" d="M147.32,56.79c.39,0,.43-.44.43-.63a2.55,2.55,0,0,0-1.14-2,.91.91,0,0,0-.43-.14c-.39,0-.43.44-.43.64a2.56,2.56,0,0,0,1.13,2A.9.9,0,0,0,147.32,56.79Z"/><path class="cls-20" d="M143.15,58a.8.8,0,0,0-.36-.62.26.26,0,0,0-.26,0l4-2.29a.25.25,0,0,1,.25,0,.8.8,0,0,1,.36.62.25.25,0,0,1-.11.23l-4,2.29A.25.25,0,0,0,143.15,58Z"/><path class="cls-21" d="M142.79,58.16a.8.8,0,0,1-.36-.62.27.27,0,0,1,.1-.23.26.26,0,0,1,.26,0,.8.8,0,0,1,.36.62.22.22,0,0,1-.36.21Z"/><path class="cls-3" d="M139.84,58.47a2.09,2.09,0,0,1,.95,1.64.58.58,0,0,1-.95.54,2.1,2.1,0,0,1-.95-1.64.58.58,0,0,1,.95-.55Z"/><path class="cls-22" d="M144.92,54.77l0,0-.29.18L143,56l-.26.16-.27.17-.29.18-.76.48-.26.16-1.27.8-.26.16-.49.31a.66.66,0,0,1,.67.07,2.09,2.09,0,0,1,.95,1.64.92.92,0,0,1-.07.38.55.55,0,0,1-.21.23l.51-.27.28-.14,1.33-.7h0l.27-.15.8-.42.31-.16.28-.15.27-.14,1.64-.87.31-.16h0a.79.79,0,0,0,.33-.74,2.51,2.51,0,0,0-1.14-2A.8.8,0,0,0,144.92,54.77Z"/><path class="cls-3" d="M143.54,56.12a2.5,2.5,0,0,1,1.13,2,1,1,0,0,1-.12.52l-.27.14a1.08,1.08,0,0,0,.11-.5,2.5,2.5,0,0,0-1.14-2,1,1,0,0,0-.48-.15L143,56A1,1,0,0,1,143.54,56.12Z"/><path class="cls-3" d="M144.9,54.79l-.29.18a1.32,1.32,0,0,1,.4.16,2.79,2.79,0,0,1,1.26,2.18,1.3,1.3,0,0,1-.06.42l.31-.16a1.3,1.3,0,0,0,.07-.43,2.78,2.78,0,0,0-1.26-2.19A1.18,1.18,0,0,0,144.9,54.79Z"/><path class="cls-3" d="M141.45,57l-.26.16a1.21,1.21,0,0,1,.36.14,2.49,2.49,0,0,1,1.13,2,1.13,1.13,0,0,1-.06.39l.27-.15a1.12,1.12,0,0,0,.07-.4,2.48,2.48,0,0,0-1.13-2A1.11,1.11,0,0,0,141.45,57Z"/><path class="cls-3" d="M141.3,60.31a1.24,1.24,0,0,0,0-.31,2.49,2.49,0,0,0-1.13-2,1.14,1.14,0,0,0-.28-.12l-.26.16a1.3,1.3,0,0,1,.27.12,2.5,2.5,0,0,1,1.13,2,1.11,1.11,0,0,1,0,.29Z"/><path class="cls-23" d="M195.95,33.86l-.09,0-.18.07-.14,0-.1,0-.16,0-.1,0h-.07l-.3,0h-.92l-.16,0-.12,0-.18,0-.12,0-.2,0L193,34l-.2-.06-.12,0-.19-.07-.12,0-.22-.09-.1,0-.32-.15h0l-.35-.18L167.73,19.68l-.29-.17h0l-.28-.19-.1-.07-.18-.13-.12-.09-.16-.13-.13-.1-.15-.13-.13-.11-.15-.14-.12-.12-.15-.14-.12-.12-.16-.16-.1-.11-.18-.19-.07-.08-.25-.28-.05-.07-.18-.22-.15-.2-.09-.12-.31-.43L164,16l-.16-.25-.09-.14-.16-.27-.09-.15c-.08-.14-.15-.27-.23-.41l-.09-.17-.09-.17-.12-.25,0-.08-.15-.33,0-.08-.1-.25,0-.11-.09-.24,0-.1-.11-.32h0l-.11-.35,0-.11-.07-.24,0-.13c0-.07,0-.15-.05-.22s0-.09,0-.13,0-.15,0-.22,0-.08,0-.12,0-.19,0-.29v-.05l0-.34v-.1c0-.08,0-.16,0-.24V10c0-.08,0-.15,0-.23s0-.07,0-.11,0-.22,0-.32,0-.22,0-.33,0-.06,0-.09,0-.15,0-.22,0-.08,0-.12,0-.12,0-.18l0-.13,0-.16,0-.14,0-.15,0-.16,0-.13c0-.06,0-.12.06-.19a.51.51,0,0,1,0-.11,3.05,3.05,0,0,1,.12-.31h0a2.92,2.92,0,0,1,.2-.36l0,0a3.13,3.13,0,0,1,.2-.27l0-.06a2.48,2.48,0,0,1,.21-.23l0,0a2.61,2.61,0,0,1,.24-.21l.06,0,.27-.18-9.07,5.27-.27.18-.06,0-.25.21,0,0a2.36,2.36,0,0,0-.21.22l0,.06a3.15,3.15,0,0,0-.2.27v0h0l0,0c-.07.12-.14.24-.2.37h0c0,.1-.09.2-.13.31v0l0,.07c0,.06,0,.12-.06.19l0,.06,0,.07,0,.16,0,.07v.07l0,.15a.66.66,0,0,0,0,.08.62.62,0,0,0,0,.08,1.06,1.06,0,0,0,0,.13v.07s0,.07,0,.11,0,.08,0,.12a.36.36,0,0,1,0,.06c0,.05,0,.11,0,.16s0,.07,0,.1v0h0v.3c0,.09,0,.18,0,.27v0s0,.07,0,.11v.13s0,.07,0,.1,0,.08,0,.11a.73.73,0,0,1,0,.08l0,.17s0,.06,0,.09,0,0,0,0,0,.2,0,.3h0v.06c0,.08,0,.16,0,.24v0l0,.12,0,.14h0l0,.08,0,.14s0,.07,0,.1l0,.12a1.2,1.2,0,0,1,0,.14l0,.06a1.76,1.76,0,0,0,0,.17l0,.12v0l.1.31h0v0l.1.27,0,0,0,.11.06.15,0,.09a1.21,1.21,0,0,0,0,.12l0,.08.07.17,0,.09v0l.13.29h0l0,.09.1.2,0,0,.09.18.07.13,0,0,.23.4,0,.06.05.09.16.27.09.14.16.25.05.08,0,0,.31.43h0l.08.11.15.2v0l.17.21.06.07h0l.23.27h0l.07.08.15.16,0,0,.1.1.12.12,0,0,.12.12.09.09.06.05.12.11.08.08.06.06.13.11.07.06.08.06.12.11.06,0,.11.08.11.09,0,0,.14.1.1.07,0,0,.25.17h0l.24.15.06,0,23.61,13.63.06,0,.29.15h0l.28.13h0l.1,0,.15.06.07,0,.12,0,.1,0,.11,0,.12,0,.06,0,.14,0,.12,0h0l.16,0,.11,0h0l.17,0,.12,0h0l.16,0h.91l.3,0h.08l.1,0,.16,0,.1,0,.1,0h0l.19-.08.09,0,.26-.14,9.07-5.27Z"/><g class="cls-1"><polygon class="cls-15" points="159.04 13.16 158.84 13.04 158.84 24.05 159.04 24.16 159.04 13.16"/><polygon class="cls-16" points="159.04 13.16 164.84 9.84 164.63 9.72 158.84 13.04 159.04 13.16"/><polygon class="cls-8" points="159.04 24.16 164.84 20.84 164.84 9.84 159.04 13.16 159.04 24.16"/></g><polygon class="cls-15" points="165.99 10.67 164.7 9.92 164.71 10.2 165.76 10.8 165.99 10.67"/><polygon class="cls-12" points="160.4 14.08 166 10.86 164.71 10.12 159.11 13.34 160.4 14.08"/><path class="cls-13" d="M160.4,14.08h0V24.8a1.88,1.88,0,0,0-1.3-.74V13.34h0A2,2,0,0,1,160.4,14.08Z"/><g class="cls-1"><polygon class="cls-15" points="160.54 14.02 160.33 13.9 160.33 24.91 160.54 25.02 160.54 14.02"/><polygon class="cls-16" points="160.54 14.02 166.32 10.7 166.12 10.58 160.33 13.9 160.54 14.02"/><polygon class="cls-8" points="160.54 25.03 166.32 21.7 166.32 10.7 160.54 14.03 160.54 25.03"/></g><polygon class="cls-16" points="165.98 10.66 164.7 9.92 164.84 9.84 166.13 10.59 165.98 10.66"/><path class="cls-23" d="M168.09,5.59l-.26-.16-.05,0-.21-.11-.08,0-.1-.05-.08,0-.13-.06-.09,0,0,0-.25-.11h0l-.25-.1h0l-.1,0-.13,0-.06,0-.12,0-.09,0-.09,0-.12,0h-.06l-.11,0-.13,0h-1l-.3,0h-.09l-.19,0-.08,0-.12,0h0l-.17.07-.08,0-.24.13-9.07,5.27.24-.12.08,0,.17-.07.14,0,.09,0,.18,0h.09l.3,0h.86l.15,0,.13,0,.16,0,.11,0,.18,0,.11,0,.19.06.1,0q.29.1.59.23l.1,0,.21.1.11.06.28.15.5.31,9.07-5.27Z"/><path class="cls-24" d="M168.86,6.35h0v0c0-.14-.07-.28-.1-.41s0,0,0,0,0-.26-.07-.39a.17.17,0,0,1,0,0c0-.12,0-.25,0-.37s0,0,0,0,0-.26,0-.39,0-.28,0-.41a.14.14,0,0,0,0,0c0-.12,0-.24.05-.35v0a2.4,2.4,0,0,1,.08-.31l0-.06a2.75,2.75,0,0,1,.11-.28h0a2.35,2.35,0,0,1,.15-.27l0,0,.14-.18.06-.07.14-.13.06-.05.22-.15-9.07,5.27-.22.15-.06.05-.14.13-.06.07A1.25,1.25,0,0,0,160,8l0,0v0a1.87,1.87,0,0,0-.14.25h0l-.09.2,0,.08a.21.21,0,0,0,0,.06l0,.06a2,2,0,0,0,0,.19v.11a.56.56,0,0,0,0,.07c0,.06,0,.12,0,.18s0,.07,0,.1v.08c0,.06,0,.12,0,.18s0,.12,0,.18h0c0,.06,0,.11,0,.17s0,.12,0,.18,0,0,0,0,0,0,0,0,0,.07,0,.1,0,.12,0,.18v.09s0,0,0,0v.05l0,.19,0,.14a0,0,0,0,1,0,0v0l0,.2c0,.06,0,.13,0,.19a.38.38,0,0,1,0,.15h0a.15.15,0,0,1,0,.06h0l0,0,9.07-5.28,0,0v0h0v0h0Z"/><path class="cls-25" d="M174.55,6.86c4.6,2.66,8.32,9.09,8.3,14.38a10.38,10.38,0,0,1-.05,1.06c3.84,2.56,6.86,8,6.85,12.52l-.24-.14-.24-.14a15.4,15.4,0,0,0-6.66-11.86.54.54,0,0,1-.18-.2.44.44,0,0,1,0-.25,9.24,9.24,0,0,0,.09-1.26,15.85,15.85,0,0,0-2.28-7.7,16,16,0,0,0-5.54-5.84c-4.15-2.4-7.55-.66-7.85,3.86,0,.11-.08.17-.17.15a.5.5,0,0,1-.26-.25,8,8,0,0,0-3-3.45,2.64,2.64,0,0,0-2.65-.27,2.61,2.61,0,0,0-1.1,2.41,6.14,6.14,0,0,0,.24,1.67.26.26,0,0,1,0,.25.16.16,0,0,1-.19,0,9.62,9.62,0,0,0-.84-.56c-1.65-1-3.15-1-4.23-.43s-1.76,1.95-1.76,3.84a12.1,12.1,0,0,0,1.74,5.87A12.15,12.15,0,0,0,158.66,25l23.61,13.63c3.82,2.11,6.87.31,6.89-4.05l.24.14.24.14c0,4.65-3.25,6.57-7.27,4.38L158.66,25.51a14.18,14.18,0,0,1-6.44-11.14c0-4.1,2.91-5.75,6.48-3.69l.5.31a6.52,6.52,0,0,1-.15-1.4c0-2.68,1.9-3.76,4.23-2.41a8.63,8.63,0,0,1,3,3.17C166.85,6,170.34,4.43,174.55,6.86Z"/><polygon class="cls-17" points="160.48 18.41 160.51 28.16 166.22 24.86 166.19 15.11 160.48 18.41"/><polygon class="cls-18" points="160.08 18.44 160.11 28.19 162.52 29.59 162.5 19.84 160.08 18.44"/><g class="cls-1"><path class="cls-13" d="M166.18,15.31l-5.56,3.2,2,1.14,5.56-3.2A3.59,3.59,0,0,1,167,16,2.31,2.31,0,0,1,166.18,15.31Z"/></g><polygon class="cls-19" points="168.43 16.41 168.24 16.3 162.53 19.6 160.48 18.41 166.19 15.11 166.02 15.01 160.08 18.44 162.5 19.84 168.43 16.41"/><polygon class="cls-18" points="162.5 19.84 162.52 29.59 168.46 26.17 168.43 16.41 162.5 19.84"/><polygon class="cls-19" points="162.81 29.09 168.17 26 168.14 16.91 162.79 20.01 162.81 29.09"/><polygon class="cls-17" points="163.2 28.42 167.78 25.78 167.75 17.58 163.17 20.23 163.2 28.42"/><g class="cls-1"><polygon class="cls-16" points="165.81 13.6 165.76 28.19 167.37 29.11 167.41 14.53 165.81 13.6"/><polygon class="cls-26" points="167.37 29.11 174.84 24.78 174.84 10.25 167.41 14.53 167.37 29.11"/><polygon class="cls-27" points="167.41 14.53 174.84 10.25 174.67 10.13 174.49 10.25 173.21 9.52 173.21 9.33 165.81 13.6 167.41 14.53"/><polygon class="cls-13" points="166.21 13.6 167.49 14.33 174.49 10.25 173.21 9.52 166.21 13.6"/></g><polygon class="cls-26" points="166.17 27.6 167 28.07 167 15.66 166.17 15.18 166.17 27.6"/><polygon class="cls-28" points="167.76 18.92 167.73 29.59 169.8 30.79 169.83 20.12 167.76 18.92"/><polygon class="cls-29" points="169.8 30.79 176.85 26.74 176.88 16.07 169.83 20.12 169.8 30.79"/><polygon class="cls-3" points="167.76 18.92 169.83 20.12 176.88 16.07 176.67 15.95 176.25 16.17 174.97 15.43 174.97 14.96 174.8 14.87 167.76 18.92"/><polygon class="cls-29" points="168.14 18.92 168.51 19.13 169.83 19.89 176.23 16.17 174.97 15.43 174.97 14.96 168.14 18.92"/><polygon class="cls-13" points="168.53 19.15 169.83 19.89 176.25 16.17 174.97 15.43 168.53 19.15"/><path class="cls-30" d="M169.39,29.73,168.12,29a0,0,0,0,1,0,0V20a0,0,0,0,1,0,0h0l1.27.73a.05.05,0,0,1,0,0v8.93a.05.05,0,0,1,0,0h0Zm-1.2-9.62v8.82l1.17.68V20.79Z"/><g class="cls-1"><polygon class="cls-19" points="170.06 17.77 170.02 31.5 171.89 32.56 171.93 18.83 170.06 17.77"/><polygon class="cls-18" points="171.89 32.56 180.2 27.86 180.24 14.13 171.93 18.83 171.89 32.56"/><polygon class="cls-31" points="170.06 17.77 171.93 18.83 180.24 14.12 179.99 13.98 179.82 14.08 178.33 13.23 178.5 13.13 178.29 13.01 170.06 17.77"/><polygon class="cls-32" points="170.45 17.77 170.76 17.94 171.93 18.61 179.82 14.08 178.33 13.23 170.45 17.77"/><polygon class="cls-13" points="170.46 17.77 171.94 18.61 179.83 14.08 178.34 13.24 170.46 17.77"/></g><polygon class="cls-33" points="170.12 19.03 171.84 20.01 171.84 19.14 170.12 18.16 170.12 19.03"/><polygon class="cls-33" points="170.12 20.53 171.84 21.51 171.84 20.64 170.12 19.66 170.12 20.53"/><polygon class="cls-33" points="170.12 22.04 171.84 23.01 171.84 22.14 170.12 21.16 170.12 22.04"/><polygon class="cls-33" points="170.12 23.54 171.84 24.52 171.84 23.64 170.12 22.66 170.12 23.54"/><polygon class="cls-33" points="170.12 25.04 171.84 26.02 171.84 25.15 170.12 24.17 170.12 25.04"/><polygon class="cls-33" points="170.12 26.54 171.84 27.52 171.84 26.65 170.12 25.67 170.12 26.54"/><polygon class="cls-33" points="172.38 25.21 172.37 24.37 179.86 20.04 179.86 20.9 172.38 25.21"/><polygon class="cls-33" points="172.4 23.46 172.39 22.62 179.87 18.29 179.88 19.14 172.4 23.46"/><polygon class="cls-33" points="172.42 21.73 172.41 20.89 179.9 16.56 179.9 17.41 172.42 21.73"/><polygon class="cls-33" points="172.37 19.86 172.35 19.02 179.84 14.69 179.84 15.55 172.37 19.86"/><g class="cls-1"><polygon class="cls-8" points="173.93 17.99 173.89 32.57 175.5 33.5 175.54 18.92 173.93 17.99"/><polygon class="cls-34" points="175.5 33.5 182.97 29.17 182.97 14.64 175.54 18.92 175.5 33.5"/><polygon class="cls-8" points="175.54 18.92 182.97 14.64 182.8 14.52 182.62 14.64 181.35 13.9 181.34 13.72 173.93 17.99 175.54 18.92"/><polygon class="cls-13" points="174.34 17.99 175.62 18.72 182.62 14.64 181.35 13.9 174.34 17.99"/></g><polygon class="cls-34" points="174.3 31.98 175.13 32.46 175.13 20.05 174.3 19.57 174.3 31.98"/><polygon class="cls-33" points="176.35 23.37 176.32 34.04 178.39 35.23 178.42 24.56 176.35 23.37"/><polygon class="cls-35" points="178.39 35.23 185.44 31.18 185.47 20.51 178.42 24.56 178.39 35.23"/><polygon class="cls-36" points="176.35 23.37 178.42 24.56 185.47 20.51 185.26 20.39 184.85 20.61 183.56 19.88 183.56 19.41 183.4 19.32 176.35 23.37"/><polygon class="cls-37" points="176.74 23.37 177.1 23.58 178.42 24.34 184.83 20.62 183.56 19.88 183.56 19.41 176.74 23.37"/><polygon class="cls-13" points="177.13 23.59 178.42 24.34 184.85 20.61 183.56 19.88 177.13 23.59"/><path class="cls-36" d="M178,34.17l-1.27-.73a.05.05,0,0,1,0,0V24.47a0,0,0,0,1,0,0,0,0,0,0,1,0,0l1.27.73a0,0,0,0,1,0,0v8.93a0,0,0,0,1,0,0h0Zm-1.2-9.62v8.82L178,34V25.23Z"/><g class="cls-1"><polygon class="cls-16" points="179.92 22.23 179.89 34.45 181.55 35.4 181.59 23.17 179.92 22.23"/><polygon class="cls-26" points="181.55 35.4 184.85 33.52 184.88 21.29 181.59 23.17 181.55 35.4"/><polygon class="cls-27" points="179.92 22.23 181.59 23.17 184.88 21.29 184.71 21.19 183.39 20.45 183.22 20.35 179.92 22.23"/><polygon class="cls-26" points="180.27 22.23 180.55 22.39 181.59 22.98 184.71 21.19 183.66 20.6 183.39 20.45 180.27 22.23"/><polygon class="cls-13" points="180.55 22.39 181.59 22.98 184.71 21.19 183.66 20.6 180.55 22.39"/></g><polygon class="cls-26" points="179.97 23.36 181.5 24.23 181.5 23.45 179.97 22.58 179.97 23.36"/><polygon class="cls-26" points="179.97 24.69 181.5 25.56 181.5 24.79 179.97 23.92 179.97 24.69"/><polygon class="cls-26" points="179.97 26.03 181.5 26.9 181.5 26.13 179.97 25.25 179.97 26.03"/><polygon class="cls-26" points="179.97 27.37 181.5 28.24 181.5 27.46 179.97 26.59 179.97 27.37"/><polygon class="cls-26" points="179.97 28.7 181.5 29.58 181.5 28.8 179.97 27.93 179.97 28.7"/><polygon class="cls-26" points="179.97 30.04 181.5 30.91 181.5 30.14 179.97 29.26 179.97 30.04"/><polygon class="cls-17" points="181.16 25.38 181.13 36.05 183.21 37.25 183.24 26.58 181.16 25.38"/><polygon class="cls-38" points="183.21 37.25 186.89 35.1 186.92 24.43 183.24 26.58 183.21 37.25"/><polygon class="cls-39" points="181.16 25.38 183.24 26.58 186.92 24.43 186.72 24.32 185.04 23.35 184.85 23.24 181.16 25.38"/><polygon class="cls-38" points="181.55 25.38 181.91 25.59 183.24 26.35 186.72 24.32 185.4 23.55 185.04 23.35 181.55 25.38"/><polygon class="cls-40" points="181.91 25.59 183.24 26.35 186.72 24.32 185.4 23.55 181.91 25.59"/><path class="cls-39" d="M182.8,36.19l-1.27-.73a0,0,0,0,1,0,0V26.48a0,0,0,0,1,0,0,0,0,0,0,1,0,0l1.27.73a0,0,0,0,1,0,0v8.93a0,0,0,0,1,0,0h0Zm-1.2-9.62v8.82l1.18.68V27.25Z"/><g class="cls-1"><polygon class="cls-41" points="188.03 29.8 186.5 28.93 186.51 29.06 187.91 29.87 188.03 29.8"/></g><g class="cls-1"><polygon class="cls-42" points="182.84 31.04 182.69 30.96 182.69 37.59 182.84 37.68 182.84 31.04"/><polygon class="cls-30" points="182.84 31.04 186.51 28.93 186.37 28.85 182.69 30.96 182.84 31.04"/><polygon class="cls-41" points="182.84 37.68 186.51 35.57 186.51 28.93 182.84 31.04 182.84 37.68"/></g><polygon class="cls-11" points="184.41 38.3 188 36.25 188 29.92 184.41 31.97 184.41 38.3"/><polygon class="cls-43" points="188 29.92 184.4 31.98 182.92 31.12 186.51 29.06 188 29.92"/><path class="cls-40" d="M184.42,38.3a2.65,2.65,0,0,0-1.5-.85V31.12a2.69,2.69,0,0,1,1.48.86Z"/><g class="cls-1"><polygon class="cls-42" points="184.49 31.99 184.34 31.91 184.34 38.55 184.49 38.63 184.49 31.99"/><polygon class="cls-30" points="184.49 31.99 188.16 29.88 188.02 29.8 184.34 31.91 184.49 31.99"/><polygon class="cls-28" points="188.25 29.84 187.97 30 187.89 30.04 184.49 31.99 184.49 38.63 187.89 36.68 187.97 36.63 188.25 36.48 188.25 29.84"/></g><polygon class="cls-30" points="188.25 29.84 186.45 28.8 186.37 28.85 188.16 29.89 188.25 29.84"/><polygon class="cls-30" points="187.97 30 187.89 30.04 187.89 36.68 187.97 36.63 187.97 30"/><path class="cls-23" d="M164.11,7.75l0,0,.36.32,0,0,.36.36,0,0c.12.13.24.27.36.41l0,0,.32.42.05.08.22.31.24.37.13.21,9.08-5.27L175.3,5l-.08-.13L175,4.49l0-.08-.17-.24-.06-.08,0,0-.18-.23-.13-.16,0,0v0l-.16-.19L174,3.27l0,0,0,0-.13-.14-.18-.18,0,0,0,0-.1-.09-.19-.16-.07-.06,0,0-.07-.05-.19-.14-.13-.09,0,0,0,0L172.57,2l-.18-.11,0,0-.14-.07,0,0-.07,0-.05,0-.08,0-.06,0h0l-.16-.06h0l-.16-.06h0l-.06,0-.08,0h0l-.07,0h-.12l-.08,0h-.86l-.19,0h0l-.27.07h0l-.11,0-.05,0-.16.08-9.07,5.28.16-.08.05,0,.11,0,0,0,.27-.07h0l.2,0h.75l.1,0,.08,0,.12,0,.08,0,.13,0,.06,0,.38.15.06,0L163,7l.07,0,.18.1.42.27,0,0Z"/><path class="cls-44" d="M198.71,29.2s0,0,0-.06,0-.07,0-.11,0-.13,0-.19a.57.57,0,0,0,0-.1s0-.09,0-.14,0-.08,0-.12a.8.8,0,0,0,0-.14s0-.1,0-.15v-.08c0-.07,0-.15,0-.22v-.1a.33.33,0,0,0,0,0c0-.11,0-.22-.05-.33a.21.21,0,0,1,0,0h0c0-.13,0-.26-.08-.39a.1.1,0,0,0,0,0s0-.07,0-.11l-.06-.25v-.05l0-.15,0-.19s0-.06,0-.09l0-.14,0-.16,0-.12s0-.1,0-.15,0-.08,0-.12l-.06-.16-.05-.15,0-.07-.09-.23,0-.11v0l-.14-.36v0l0-.08-.11-.25a.23.23,0,0,0,0-.06l-.07-.15-.07-.16,0-.1-.07-.15-.06-.12h0L197,23.1l-.12-.23-.06-.11,0-.07-.33-.59v0l-.05-.09-.21-.34-.1-.16-.18-.28-.05-.08,0-.06c-.13-.19-.26-.37-.4-.55h0l-.06-.08-.24-.31,0,0-.14-.17-.14-.17,0,0-.16-.19-.12-.14h0l-.21-.23-.21-.23-.17-.18h0l-.16-.15-.15-.15h0l-.16-.15-.15-.14,0,0-.17-.15-.15-.13,0,0-.16-.13-.15-.12,0,0-.15-.12-.14-.11,0,0-.15-.1-.13-.09-.12-.08-9.07,5.27.26.18.14.1.2.15.14.11.2.16.14.12.18.16.16.14.19.17.14.13.2.2.12.12.29.3,0,0,.31.34.09.1.21.24.13.16.16.2.22.29.08.1.39.55.1.14.18.28.11.17.18.31.08.14.33.59.09.17.12.24.11.22.08.16.12.26.07.15.14.31,0,.09.16.4,0,.11.11.29.05.16.09.26L189,31l.08.25.05.18c0,.08,0,.17.07.25l0,.17.06.28,0,.14c0,.14.06.27.08.41s0,.05,0,.08,0,.22.06.34l0,.15c0,.09,0,.17,0,.26s0,.1,0,.16,0,.17,0,.25a1.51,1.51,0,0,1,0,.16c0,.08,0,.16,0,.23l-.47.27.24.14.24.14c0,.14,0,.27,0,.41s0,.09,0,.13l0,.26c0,.06,0,.11,0,.16s0,.15,0,.21,0,.12,0,.17,0,.13,0,.2l0,.18c0,.06,0,.12,0,.18s0,.14-.05.21l0,.15-.08.24,0,.12a3.84,3.84,0,0,1-.16.38l-.11.23,0,0c0,.09-.1.18-.15.26s-.16.23-.24.34l-.06.08-.26.28,0,0a3.39,3.39,0,0,1-.3.26l-.08.06-.32.22,9.07-5.27a3.07,3.07,0,0,0,.33-.22l.08-.06a3.79,3.79,0,0,0,.29-.26l0,0,.25-.28.06-.08.24-.34h0l.15-.25v0l.12-.24a0,0,0,0,0,0,0c.06-.12.11-.25.16-.38l0,0,0-.09.08-.25a.34.34,0,0,1,0-.06l0-.1c0-.06,0-.13.05-.2l0-.09,0-.11,0-.15,0-.1s0-.08,0-.12l0-.14s0-.06,0-.09,0-.11,0-.16l0-.13s0,0,0-.07,0-.15,0-.23a.86.86,0,0,1,0-.09v0q0-.18,0-.36v0C198.72,29.43,198.71,29.32,198.71,29.2Z"/><path class="cls-24" d="M175.81,5.55c0-.06,0-.13,0-.19l0-.2a1.77,1.77,0,0,1,0-.18c0-.07,0-.13,0-.2l0-.15L176,4.4a1.19,1.19,0,0,1,0-.13c0-.1.06-.21.1-.31l0-.07c.05-.14.11-.27.17-.4l.06-.13.07-.13.08-.14.08-.13.05-.09a4.1,4.1,0,0,1,.26-.36h0a3.84,3.84,0,0,1,.29-.31l.05-.06a3.65,3.65,0,0,1,.31-.27l.06,0a3.82,3.82,0,0,1,.35-.23L169,6.87l-.35.23-.06,0-.31.27-.06.06c-.1.1-.19.2-.28.31h0a4.05,4.05,0,0,0-.26.36l0,0,0,0-.07.13-.08.14-.07.14,0,.09h0l0,0c-.06.13-.12.26-.17.4v0l0,.06-.1.31,0,.05,0,.08-.06.24,0,.08a.46.46,0,0,1,0,.07c0,.07,0,.13,0,.2a.65.65,0,0,0,0,.11v.06c0,.06,0,.13,0,.2l0,.12a.49.49,0,0,0,0,.06c0,.06,0,.13,0,.19v.27a.29.29,0,0,1,0,.08h0a.13.13,0,0,1-.05,0l9.08-5.27,0,0h0a.11.11,0,0,1,0,0h0c0-.09,0-.18,0-.27S175.8,5.61,175.81,5.55Z"/><path class="cls-45" d="M191.91,15.59v-.07s0-.1,0-.15v-.31c0-.06,0-.11,0-.17v-.1c0-.07,0-.15,0-.22s0-.1,0-.15a.19.19,0,0,1,0,0l-.06-.42h0v0c0-.12,0-.24-.06-.37v-.06l0-.16,0-.21s0-.08,0-.12l0-.18,0-.14,0-.17-.05-.19,0-.09-.07-.23-.05-.17v0l-.14-.43h0l0-.06-.13-.36,0-.06-.05-.14-.08-.21-.05-.13-.06-.16,0-.11-.1-.22-.06-.14v0l-.18-.4v0l-.05-.11-.15-.31,0,0-.13-.25-.1-.2,0,0c-.12-.22-.24-.43-.36-.64l0-.06-.1-.16-.15-.26L189,7l-.17-.26-.05-.08,0-.08c-.16-.23-.31-.46-.48-.67h0l-.34-.45v0l-.25-.31L187.58,5h0l-.32-.38,0,0-.1-.11-.21-.23,0,0-.14-.15-.16-.17-.06-.06-.16-.15-.13-.13-.08-.07L186,3.36l-.12-.11-.1-.08L185.61,3l-.1-.09-.12-.09-.16-.14-.09-.07L185,2.51l-.15-.12-.06,0-.19-.14-.13-.09,0,0-.36-.23h0l0,0-.32-.2-.08,0-.27-.15-.1-.05-.13-.07L183,1.26l-.17-.08-.12-.05-.05,0L182.34,1h0L182,.84l0,0-.12,0-.17-.06-.08,0-.14,0-.11,0-.12,0-.15,0-.08,0-.14,0-.16,0h-.19l-.2,0h-.93L179,.53h-.05l-.09,0-.22.05-.11,0-.15,0h0l-.22.09-.11,0L177.7,1l-9.08,5.28.31-.17.1,0,.22-.09.18-.06.12,0,.22-.06.09,0h.06l.37-.05h.93l.19,0,.2,0,.15,0,.22,0,.15,0,.23.06.14,0,.25.08.12,0c.25.09.51.19.76.31l.12.05.28.14.13.07.37.2.4.24,0,0,.39.26.14.1.26.19.15.12.24.18.17.14.22.19.17.15.21.19.17.16.21.21.15.15.22.23.14.15.24.27.1.12.34.4,0,.05.29.36.35.47c.16.22.32.45.47.68l.11.16.16.25.14.23.16.25.13.22c.13.21.24.42.36.64l.12.24.13.25.18.36.05.11.21.46.05.13.14.34c0,.05,0,.11.07.16l.12.33s0,.1.05.15l.16.45v0c.05.16.1.32.15.48l0,.16.09.33.05.19.08.3,0,.19.07.31c0,.06,0,.12,0,.18s0,.27.07.4a.61.61,0,0,1,0,.07c0,.16,0,.32.07.47s0,.09,0,.14,0,.22,0,.33,0,.11,0,.17,0,.21,0,.31,0,.1,0,.16,0,.3,0,.45,0,.33,0,.49,0,.09,0,.14,0,.29,0,.43L191.86,17c0-.08,0-.17,0-.25s0-.12,0-.18a1.06,1.06,0,0,0,0-.14s0,0,0-.07,0-.26,0-.4v0C191.92,15.84,191.92,15.72,191.91,15.59Z"/><path class="cls-46" d="M158.66,25a12.15,12.15,0,0,1-4.22-4.45,12.1,12.1,0,0,1-1.74-5.87c0-1.89.68-3.22,1.76-3.84s2.58-.52,4.23.43a9.62,9.62,0,0,1,.84.56.16.16,0,0,0,.19,0,.26.26,0,0,0,0-.25,6.14,6.14,0,0,1-.24-1.67,2.61,2.61,0,0,1,1.1-2.41,2.64,2.64,0,0,1,2.65.27,8,8,0,0,1,3,3.45.5.5,0,0,0,.26.25c.1,0,.16,0,.17-.15.3-4.52,3.7-6.26,7.85-3.86a16,16,0,0,1,5.54,5.84,15.85,15.85,0,0,1,2.28,7.7,9.24,9.24,0,0,1-.09,1.26.44.44,0,0,0,0,.25.54.54,0,0,0,.18.2,15.4,15.4,0,0,1,6.66,11.86l.24.14.24.14c0-4.51-3-10-6.85-12.52a10.38,10.38,0,0,0,.05-1.06c0-5.28-3.7-11.72-8.3-14.38-4.21-2.43-7.7-.85-8.27,3.49a8.63,8.63,0,0,0-3-3.17c-2.33-1.34-4.22-.27-4.23,2.41a6.52,6.52,0,0,0,.15,1.4l-.5-.31c-3.56-2.06-6.47-.41-6.48,3.69a14.18,14.18,0,0,0,6.44,11.14l1.44.83v-.55Z"/><path class="cls-46" d="M189.4,34.68l-.24-.14c0,4.37-3.06,6.16-6.89,4.05L164.62,28.4l-.48.28,18.23,10.52c4,2.19,7.25.27,7.27-4.38Z"/><path class="cls-5" d="M137.6,135.69c-.16.7,0,2.4,1.14,2.26s1.86-.56,3.88-1.73,3.58-2.34,2.86-3-3.89.89-5.17,1.1S137.74,135.09,137.6,135.69Z"/><polygon class="cls-47" points="90.27 118.04 95.4 115.07 92.44 113.63 91.04 114.43 90.27 118.04"/><path class="cls-48" d="M91.17,114.36l1.26-.73-.32-.17-.84.49S91.21,114.21,91.17,114.36Z"/><path class="cls-49" d="M86.48,126l.3-1.33c.19-.81.44-1.91.71-3.08.54-2.34,1.14-5,1.4-6.07a3.66,3.66,0,0,1,1.48-2.52l2.35-1.36a3.66,3.66,0,0,0-1.48,2.53c-.26,1.11-.86,3.73-1.4,6.07l-.7,3.08c-.19.81-.3,1.3-.3,1.33a.12.12,0,0,1-.05.08L86.43,126A.11.11,0,0,0,86.48,126Z"/><path class="cls-48" d="M86.06,125.6l2.41-10.48c.5-2.16,1.49-2.84,2.38-3a2.9,2.9,0,0,1,1.66.33l.41.2c1.92.92,9.81,4.68,12.9,5.95a6.13,6.13,0,0,1,.76.37,6,6,0,0,1,1.57,1.3,6.47,6.47,0,0,1,1.16,2,4.52,4.52,0,0,1,.25,1l1,16.44c0,.14-.08.2-.22.14a.46.46,0,0,1-.22-.35l-1-16.43a5.3,5.3,0,0,0-.44-1.35,5.37,5.37,0,0,0-.76-1.16,5.16,5.16,0,0,0-1.35-1.12,6,6,0,0,0-.7-.34c-1.78-.73-5.12-2.27-8-3.63S92.53,113,92.51,113a2.57,2.57,0,0,0-1.48-.27c-.78.13-1.67.73-2.15,2.76-.26,1.11-.86,3.73-1.4,6.07-.27,1.17-.52,2.27-.71,3.08l-.3,1.33c0,.1-.11.12-.26,0A.47.47,0,0,1,86.06,125.6Z"/><path class="cls-50" d="M92.38,112.41h0l-.13-.06-.08,0-.11,0-.09,0-.12,0-.2,0-.12,0h-.41l-.26,0-.13,0-.14,0-.08,0-.13,0-.08,0-.15.07-.08,0,2.35-1.36h0l.06,0,.14-.07h0l.06,0,.13,0h.08l.14,0h.13l.16,0h.55l.08,0,.2,0h0l.07,0,.09,0,.12,0,.07,0h0l.11,0h0l.09,0h0l0,0,.41.2c1.92.92,9.81,4.68,12.89,5.94a7.09,7.09,0,0,1,.76.37l.41.26.11.08.28.22.1.08c.11.1.22.19.32.29h0l.12.12.18.2,0,0,.18.23,0,0,.07.09.09.12,0,0,.06.1.06.09,0,.07.05.09,0,.06.05.1,0,.09,0,0,.06.12,0,.09v0l.05.11.05.12v0l0,.07.06.16v0c0,.06,0,.11.06.17l0,.11v0l.08.26h0v0l0,.11v.05l0,.09h0l0,.14a.11.11,0,0,1,0,0s0,.06,0,.08h0a.07.07,0,0,1,0,0l1,16.44a.16.16,0,0,1-.06.15l-2.34,1.36a.16.16,0,0,0,.06-.15l-1-16.44a.24.24,0,0,0,0,0,.64.64,0,0,1,0-.09.07.07,0,0,1,0,0l0-.12v0a.37.37,0,0,0,0-.07l0-.07,0-.09,0-.08c0-.08,0-.16-.08-.25l0-.14-.07-.19a1.46,1.46,0,0,0-.06-.15l0-.1-.05-.11-.06-.13,0-.09-.08-.16,0-.08-.1-.16-.05-.09-.1-.16-.06-.09-.12-.17-.06-.08-.21-.25-.23-.25-.11-.11a4.18,4.18,0,0,0-.32-.3l-.09-.08-.28-.22-.11-.08-.42-.26a6.13,6.13,0,0,0-.76-.37c-3.09-1.27-11-5-12.9-5.95l-.41-.2,0,0h0Z"/><path class="cls-51" d="M106.63,115s.12-.52.31-1.33.43-1.91.71-3.09c.54-2.34,1.14-5,1.4-6.07a3.66,3.66,0,0,1,1.48-2.52l2.34-1.36a3.67,3.67,0,0,0-1.48,2.53c-.26,1.11-.86,3.73-1.4,6.07-.26,1.18-.52,2.28-.7,3.09s-.3,1.3-.3,1.32a.12.12,0,0,1-.05.08l-2.35,1.36A.11.11,0,0,0,106.63,115Z"/><path class="cls-48" d="M106.21,114.69c.09-.42,1.89-8.26,2.4-10.48s1.5-2.85,2.38-3a2.87,2.87,0,0,1,1.67.33l.41.2c1.92.92,9.81,4.68,12.89,5.95a6.74,6.74,0,0,1,.76.37,6,6,0,0,1,1.57,1.3,6.43,6.43,0,0,1,1.16,2,4.77,4.77,0,0,1,.25,1l1,16.44c0,.14-.08.21-.21.14a.47.47,0,0,1-.21-.35l-1-16.43a5.07,5.07,0,0,0-.44-1.35,5.37,5.37,0,0,0-.76-1.16,5.48,5.48,0,0,0-2.06-1.46c-1.78-.73-5.11-2.27-8-3.63s-5.34-2.53-5.36-2.54a2.5,2.5,0,0,0-1.48-.27c-.78.12-1.68.73-2.15,2.76-.26,1.11-.86,3.73-1.4,6.07-.27,1.17-.52,2.27-.71,3.09s-.3,1.3-.31,1.33-.11.13-.26,0A.45.45,0,0,1,106.21,114.69Z"/><path class="cls-52" d="M112.53,101.51h0l-.13-.05-.08,0-.11,0-.09,0-.12,0-.2,0-.12,0h-.41l-.27,0-.13,0-.13,0-.08,0-.13,0-.08,0-.14.07-.08,0,2.35-1.36,0,0,.06,0,.14-.07h0l.06,0,.13,0h.08l.14,0h.84l.08,0,.19,0h.05l.07,0,.09,0,.12,0,.08,0h0l.1,0h0l.09,0h0l0,0,.41.19c1.92.92,9.81,4.68,12.89,6a6.82,6.82,0,0,1,.77.37l.41.26.11.08.28.21.1.08.31.29h0l.11.12.19.2,0,0,.18.23,0,0,.06.09.09.13,0,0,.06.09.06.09,0,.07.06.09,0,.06.06.1,0,.09,0,0,.06.12,0,.09v0l.05.1.05.12v0l0,.07.07.16v0l.06.16,0,.11v0c0,.09.06.18.08.26h0s0,0,0,.05l0,.11,0,.06,0,.09h0v0l0,.14V111h0a.12.12,0,0,1,0,0l1,16.44a.16.16,0,0,1-.06.15L130.61,129a.15.15,0,0,0,.06-.15l-1-16.44s0,0,0,0a.76.76,0,0,0,0-.09s0,0,0,0a1.17,1.17,0,0,1,0-.12v0l0-.07s0,0,0-.07l0-.09,0-.07c0-.08,0-.16-.08-.26l0-.14-.07-.19-.06-.15,0-.1-.05-.11-.06-.13,0-.09-.08-.16,0-.08-.1-.16-.05-.09-.1-.16-.06-.1-.12-.17-.07-.08-.2-.25-.23-.25L128,109l-.33-.3-.09-.08-.28-.22-.11-.08-.41-.26a6.74,6.74,0,0,0-.76-.37c-3.08-1.27-11-5-12.89-5.95l-.41-.2,0,0h0Z"/><path class="cls-53" d="M89.89,108.31v.39a1,1,0,0,1,0,.13c0,.08,0,.17,0,.26a.79.79,0,0,0,0,.14c0,.07,0,.15,0,.22s0,.1,0,.16,0,.12,0,.19a.35.35,0,0,0,0,.06s0,.08,0,.12l0,.12c0,.06,0,.12,0,.17a.54.54,0,0,1,0,.12s0,0,0,0a.81.81,0,0,1,0,.09l0,.18s0,0,0,0l0,.17a.08.08,0,0,1,0,0c0,.05,0,.11.06.16h0v0a.62.62,0,0,0,0,.09l0,.1h0a.37.37,0,0,0,0,.09l0,.09h0l0,.07,0,.08v0a.43.43,0,0,0,0,.07l.06.08h0l.08.09,0,0,.11.09.05,0a1.28,1.28,0,0,0,.18.12c.8.46,2.23,1.18,3.91,2,2.53,1.2,5.64,2.6,8.11,3.7l3.08,1.37.91.4.28.12h.07l0,0h0l.07,0h0l.12.07.17.1.05,0,.16.11,0,0,.22.18.05,0,.19.18.07.07.25.26.2.24.19.24,0,.06.14.23,0,.05.15.28,0,.07c.05.1.1.21.15.32s.09.22.14.33,0,.07,0,.1l.1.29a.7.7,0,0,0,0,.1l.08.28,0,.15c0,.14.06.29.08.45a.4.4,0,0,1,0,.06v0s0,0,0,0,0,0,0,0a.09.09,0,0,1,0,0v0s0,0,0,0l5.89-3.42,1.87-1.09,14.61-8.48,0,0v0l0,0a.09.09,0,0,1,0,0s0,0,0,0v-.08h0a3.46,3.46,0,0,0-.08-.44h0l0-.15c0-.08,0-.17-.06-.25v0l0-.1-.06-.2,0-.1a.55.55,0,0,0,0-.09l0-.09c0-.08-.06-.16-.1-.25l-.1-.23a.56.56,0,0,1,0-.1l0-.06,0-.05-.11-.2,0,0,0-.06-.07-.11a.78.78,0,0,0-.07-.11.67.67,0,0,1,0-.07l0,0-.16-.22h0l-.2-.24h0c-.08-.1-.17-.19-.25-.26l0,0,0,0-.2-.18,0,0-.22-.18,0,0-.17-.11,0,0-.17-.1-.11-.07h0l-.06,0h-.13l-.06,0h0l-.08,0-.14-.06-.91-.39-3.09-1.36c-2.47-1.1-5.57-2.51-8.11-3.7-1.69-.8-3.12-1.51-3.92-2l-.18-.12-.06,0-.09-.09-.11-.1h0l-.11-.15a.82.82,0,0,1-.11-.16,1.71,1.71,0,0,1-.1-.18h0l-.08-.18s0,0,0,0a2.23,2.23,0,0,1-.08-.22l-.06-.21c0-.06,0-.11,0-.18l0-.11a.38.38,0,0,0,0-.12c0-.06,0-.11,0-.17a.57.57,0,0,0,0-.13l0-.16c0-.06,0-.13,0-.2v-.15c0-.07,0-.14,0-.21s0-.1,0-.15,0-.17,0-.25a1,1,0,0,0,0-.13v-.4a50.19,50.19,0,0,1,.61-6.25,57.3,57.3,0,0,0,.65-6.52c0-.27,0-.53,0-.79s0-.39,0-.58V81c0-.14,0-.27,0-.41v-.18c0-.14,0-.27,0-.41a.72.72,0,0,1,0-.11c0-.17,0-.35,0-.5a.53.53,0,0,1,0-.08c0-.14,0-.27,0-.4a1.36,1.36,0,0,0,0-.14c0-.12,0-.23,0-.34a1.24,1.24,0,0,1,0-.13c0-.13,0-.25,0-.37a.2.2,0,0,1,0-.06c0-.14,0-.28,0-.41s0-.06,0-.1,0-.2,0-.29a.75.75,0,0,0,0-.12l0-.26s0-.07,0-.1,0-.22,0-.33v0c0-.1,0-.19,0-.28s0-.07,0-.1,0-.07,0-.11a.12.12,0,0,0,0,0c0-.16,0-.31-.06-.45a.24.24,0,0,0,0-.07l-.07-.42,0-.25a.33.33,0,0,1,0-.07l0-.17h0a0,0,0,0,0,0,0c0-.11,0-.21-.07-.31h0l-.07-.26a.05.05,0,0,1,0,0v0l-.1-.3h0l-.06-.18h0l0-.1h0a0,0,0,0,0,0,0l0-.05h0l0-.06L93.81,83.73l-3.66,2.13h0l0,.06,0,.07h0l0,.1v0l.06.17a.17.17,0,0,0,0,0l.09.3s0,0,0,0,0,.16.07.26v0l.07.29s0,0,0,.06,0,.1,0,.14,0,0,0,.08a2.2,2.2,0,0,1,0,.25l.07.42a.26.26,0,0,1,0,.06c0,.14,0,.29.06.45a.84.84,0,0,1,0,.18.26.26,0,0,1,0,.07c0,.21.05.43.07.66a.61.61,0,0,1,0,.09c0,.09,0,.18,0,.27s0,.08,0,.12,0,.18,0,.28,0,.07,0,.1,0,.27,0,.4,0,0,0,.07,0,.24,0,.36,0,.1,0,.15,0,.2,0,.31,0,.1,0,.15,0,.24,0,.36a.51.51,0,0,0,0,.11c0,.16,0,.33,0,.49s0,.1,0,.15,0,.25,0,.38,0,.13,0,.19v.56c0,.19,0,.38,0,.58s0,.52,0,.79,0,.64,0,1c-.09,1.75-.36,3.66-.61,5.55A50.66,50.66,0,0,0,89.89,108.31Z"/><path class="cls-54" d="M89.86,101.6a50.52,50.52,0,0,0-.62,6.34,12.49,12.49,0,0,0,.1,1.72,6.78,6.78,0,0,0,.37,1.52,4.09,4.09,0,0,0,.48.89,3,3,0,0,0,.93.86c.84.49,2.28,1.2,4,2s3.64,1.69,5.48,2.53c3.69,1.66,6.8,3,7,3.09l.21.11a3.74,3.74,0,0,1,.77.61,4.28,4.28,0,0,1,.84,1.27,5.56,5.56,0,0,1,.39,1.38.71.71,0,0,0,.31.48c.24.09.35,0,.32-.26a6.8,6.8,0,0,0-.48-1.71,5.73,5.73,0,0,0-.74-1.26,4.89,4.89,0,0,0-1.41-1.25,3.17,3.17,0,0,0-.3-.16l-.32-.14-.9-.39-3.09-1.37c-2.47-1.1-5.58-2.51-8.11-3.7-1.68-.8-3.11-1.51-3.92-2a1.72,1.72,0,0,1-.56-.51,2.87,2.87,0,0,1-.38-.79,8.78,8.78,0,0,1-.3-2.58,50.64,50.64,0,0,1,.61-6.24,56.88,56.88,0,0,0,.65-6.52c0-.27,0-.54,0-.79a40.15,40.15,0,0,0-.45-7,6.76,6.76,0,0,0-.54-1.92.62.62,0,0,0-.23-.25.23.23,0,0,0-.22,0c-.13.06-.14.29,0,.5s.06.14.1.26a9.16,9.16,0,0,1,.29,1.24,39.23,39.23,0,0,1,.44,6.81c0,.25,0,.52,0,.78A55.08,55.08,0,0,1,89.86,101.6Z"/><path class="cls-55" d="M89.7,85.57h0L97,81.36l15.11-8.79h.19l0,0a.44.44,0,0,1,.11.08l0,0h0l0,0,0,0,0,0,0,0,0,0v0l-22.38,13a.84.84,0,0,0-.1-.15h0l-.12-.1a.26.26,0,0,0-.12,0h0A.18.18,0,0,0,89.7,85.57Z"/><polygon class="cls-47" points="112.21 127.38 112.4 130.54 119.42 126.44 121.62 125.16 130.16 120.18 129.98 117.13 120.04 122.87 117.7 124.22 112.21 127.38"/><path class="cls-48" d="M129.55,116.84l-17.37,10,0,.53s17.34-10,17.36-10A3.82,3.82,0,0,0,129.55,116.84Z"/><g class="cls-1"><polygon class="cls-56" points="142.64 50.51 142.67 56.31 143.04 56.08 143.03 50.74 142.64 50.51"/></g><path class="cls-10" d="M152.88,45.06c.71.41,1.28.08,1.28-.74a2.84,2.84,0,0,0-1.28-2.23c-.71-.41-1.29-.08-1.29.74A2.84,2.84,0,0,0,152.88,45.06Z"/><path class="cls-5" d="M153.43,45c.4,0,.44-.44.45-.63a2.59,2.59,0,0,0-1.1-2,.91.91,0,0,0-.43-.15c-.39,0-.44.44-.45.63a2.59,2.59,0,0,0,1.1,2A.91.91,0,0,0,153.43,45Z"/><path class="cls-10" d="M153.33,47.8a.66.66,0,0,0,0,1.25,2.4,2.4,0,0,0,2.16,0,.66.66,0,0,0,0-1.25A2.4,2.4,0,0,0,153.33,47.8Z"/><path class="cls-5" d="M154.41,49a1.9,1.9,0,0,0,.92-.22c.19-.11.29-.24.29-.36s-.11-.25-.29-.36a2.09,2.09,0,0,0-1.85,0c-.18.11-.29.24-.29.36s.11.25.29.36A1.9,1.9,0,0,0,154.41,49Z"/><path class="cls-20" d="M154.18,44.72a.72.72,0,0,0,.63,0,.23.23,0,0,0,.13-.18v4a.23.23,0,0,1-.13.18.71.71,0,0,1-.63,0,.22.22,0,0,1-.13-.18v-4A.23.23,0,0,0,154.18,44.72Z"/><path class="cls-21" d="M154.18,44.35a.7.7,0,0,1,.63,0,.22.22,0,0,1,.13.18.23.23,0,0,1-.13.18.72.72,0,0,1-.63,0,.23.23,0,0,1-.13-.18A.21.21,0,0,1,154.18,44.35Z"/><path class="cls-3" d="M155.24,41.37a1.83,1.83,0,0,1-1.66,0,.57.57,0,0,1-.34-.48.58.58,0,0,1,.34-.48,1.83,1.83,0,0,1,1.66,0,.51.51,0,0,1,0,1Z"/><path class="cls-22" d="M155.82,46.84v-.33l-.07-1.62V44l0-.79V43l-.05-1.31V41.4l0-.51a.58.58,0,0,1-.34.48,1.83,1.83,0,0,1-1.66,0,.82.82,0,0,1-.26-.22.43.43,0,0,1-.08-.26l0,.51v.27L153.16,43h0v.27l0,.79v.84L153,46.51v.33a.7.7,0,0,0,.42.57,2.19,2.19,0,0,0,2,0A.71.71,0,0,0,155.82,46.84Z"/><path class="cls-3" d="M155.4,45.2a2.2,2.2,0,0,1-2,0,.88.88,0,0,1-.34-.32v-.26a.89.89,0,0,0,.33.3,2.19,2.19,0,0,0,2,0,.87.87,0,0,0,.33-.3v.26A1,1,0,0,1,155.4,45.2Z"/><path class="cls-3" d="M155.81,46.81v-.3a1.24,1.24,0,0,1-.29.23,2.43,2.43,0,0,1-2.2,0,1.11,1.11,0,0,1-.29-.23v.3a1.17,1.17,0,0,0,.3.24,2.44,2.44,0,0,0,2.2,0A1.11,1.11,0,0,0,155.81,46.81Z"/><path class="cls-3" d="M155.67,43.25V43a1,1,0,0,1-.27.22,2.18,2.18,0,0,1-2,0,.9.9,0,0,1-.27-.22v.27a1,1,0,0,0,.28.23,2.18,2.18,0,0,0,2,0A1,1,0,0,0,155.67,43.25Z"/><path class="cls-3" d="M153.21,41.67a1.4,1.4,0,0,0,.22.16,2.19,2.19,0,0,0,2,0,1.12,1.12,0,0,0,.21-.16V41.4a1,1,0,0,1-.2.15,2.17,2.17,0,0,1-2,0,1,1,0,0,1-.21-.15Z"/><path class="cls-57" d="M120,122.87l-2.34,1.35a8,8,0,0,0,1.73,2.22l2.19-1.28C121.16,124.51,120.61,123.71,120,122.87Z"/><path class="cls-58" d="M90.15,85.85h0l0,.06,0,.07h0l0,.1v0l.06.17a.17.17,0,0,0,0,0l.09.3s0,0,0,0,0,.16.07.26v0l.07.29s0,0,0,.06,0,.1,0,.14,0,0,0,.08a2.2,2.2,0,0,1,0,.25l.07.42a.26.26,0,0,1,0,.06c0,.14,0,.29.06.45a.84.84,0,0,1,0,.18.26.26,0,0,1,0,.07c0,.21.05.43.07.66a.61.61,0,0,1,0,.09c0,.09,0,.18,0,.27s0,.08,0,.12,0,.18,0,.28,0,.07,0,.1,0,.27,0,.4,0,0,0,.07,0,.24,0,.36,0,.1,0,.15,0,.2,0,.31,0,.1,0,.15,0,.24,0,.36a.51.51,0,0,0,0,.11c0,.16,0,.33,0,.49s0,.1,0,.15,0,.25,0,.38,0,.13,0,.19v.56c0,.19,0,.38,0,.58s0,.52,0,.79,0,.64,0,1c.2.63.44,1.35.7,2.1.92,2.67,1.19,2.32,1.19,2.32a26.13,26.13,0,0,0-.56,4.05c-.14,2.29.35,3.06,2.54,5.25a28.2,28.2,0,0,0,10.31,5.85,41.79,41.79,0,0,0,8.78,2.34c.75,0,1.52,1.21,2.17,2.54l1.87-1.09-.36-.59c-1.61-2.76-2.52-2.33-7.52-3.65a40.86,40.86,0,0,1-12.08-5.33c-3.91-2.4-3.37-5.2-3.3-8s.72-8.12.25-12.89a24.64,24.64,0,0,0-1.27-5.73Z"/><path class="cls-19" d="M104.75,100.94l.84,2.33s2.7,1.42,5.87,3.19c3.94,2.2,8.61,4.94,9.77,6.15l0,0a27.7,27.7,0,0,1,3.37,1.77c1,.73,3.34,6.43,5.7,10.07s6.82,10.92,6.82,10.92l.92-.7,2.24-1.69c-2.11-6.61-10.43-24.51-11.77-25.37s-16-7-17-7.4a4.28,4.28,0,0,1-1.65-1.32A13.17,13.17,0,0,1,104.75,100.94Z"/><path class="cls-59" d="M105.59,103.27s13.54,7.14,15.63,9.35l0,0c-.71-.34-1.27-.59-1.34-.65s-13.18-7.13-14.44-8.28a3.9,3.9,0,0,1-1-2.75l.27,0Z"/><path class="cls-18" d="M94.71,108.33c2.15,2.49,7.46,5.62,13.42,7.35s7.15,2,7.63,2.41a34.4,34.4,0,0,0,4,6.32c4.17,5,10.84,11.27,14,13.11l.81-.51,2.57-1.6s-2.92-4.11-7.13-10.35c-4.45-6.61-6.69-10.19-8.77-12.41l0,0c-2.09-2.2-15.64-9.35-15.64-9.35l-.84-2.33-.27,0a25.87,25.87,0,0,1-4.71.36c-1.27,0-2.43-.09-3.38-.18-1.46-.15-2.41-.33-2.41-.33l-.07-.27C93.66,101.76,92.86,106.19,94.71,108.33Z"/><path class="cls-8" d="M98.62,72.1c5.79-2.85,9.5-3,12.09-1.18a9.37,9.37,0,0,1,.85.56c2.12,1.86,2.25,5.92,2.24,7.38,0,1.15-3,2.44-3,2.44s-.48,4.2-.6,7.39-.33,10.24-.33,10.24h0a13.21,13.21,0,0,1-5.11,2l-.27,0a26.21,26.21,0,0,1-4.71.37,34.64,34.64,0,0,1-5.78-.52c0-.08,0-.17-.07-.27-.76-3.24-.58-14-.68-14.87a.31.31,0,0,0-.06-.17c-.39-.6-2.55.18-3.07-3.43C89.56,78.19,92.28,75.24,98.62,72.1Z"/><path class="cls-60" d="M93.19,84.94a.33.33,0,0,1,.06.18c.09.93-.09,12.28.75,15.14a34.4,34.4,0,0,0,5.78.52c-1.06-.27-3.27-.92-3.72-1.78-.6-1.14-1.1-6.79-1-10.44a25.37,25.37,0,0,1,.76-6.62A7.55,7.55,0,0,0,93.19,84.94Z"/><path class="cls-61" d="M100.8,70.49c-.1-.12-.21-.25-.3-.39l0-.07a4.57,4.57,0,0,1-.76-2.12.5.5,0,0,0,.4,0c.61-.3.19-1,.59-2.2A1.3,1.3,0,0,1,102.4,65a3.33,3.33,0,0,0,3.06-.68c1.31-1,1.54.14,1.62.14a12.61,12.61,0,0,1,.19,3.79c-.05.67-.12,1.25-.2,1.77a2.72,2.72,0,0,0-3.24.92,5,5,0,0,1-.59.63h0l-.16.12h0a.58.58,0,0,1-.3.09h0a.83.83,0,0,1-.32-.08h0a3.19,3.19,0,0,1-.39-.23l-.05,0-.23-.16a4.53,4.53,0,0,1-.41-.32l-.11-.09-.3-.3Z"/><path class="cls-62" d="M99.13,66.48c-.44-.49-1.42-.21-1.16,1s1.18,1.92,1.69,1.44S99.6,67,99.13,66.48Z"/><path class="cls-63" d="M99.51,67.5A8.87,8.87,0,0,0,99.74,69a8,8,0,0,1-1-2.55c0-.06,0-.13,0-.19A1.78,1.78,0,0,1,99.51,67.5Z"/><path class="cls-64" d="M98.64,71.93a11.66,11.66,0,0,0,.82-1.71,4.39,4.39,0,0,0,.67,1.36c.86,1.11,2.29,2.57,4.46,2a1.84,1.84,0,0,1-1.08,1.93c-1.51.87-4.62.58-5.77-1.15S98.11,72.69,98.64,71.93Z"/><path class="cls-65" d="M100.87,68.63a0,0,0,0,1,0,0C100.9,68.52,100.89,68.54,100.87,68.63Z"/><path class="cls-66" d="M98,66.54l.13,0A2.1,2.1,0,0,1,99.07,68a10,10,0,0,0,.26,1.78c0,.14.07.29.12.43a4.39,4.39,0,0,0,.67,1.36c.86,1.11,2.29,2.57,4.46,2a4.84,4.84,0,0,0,1-.4c1.44-.74,1.43-3.16,1.43-3.16h0a2.72,2.72,0,0,0-3.24.92,5,5,0,0,1-.59.63c-.46.38-.74.22-1.51-.29a4.65,4.65,0,0,1-1.59-1.81,4.6,4.6,0,0,1-.45-1.57.5.5,0,0,0,.4,0c.61-.3.19-1,.59-2.2A1.3,1.3,0,0,1,102.4,65a3.33,3.33,0,0,0,3.06-.68c1.31-1,1.54.14,1.62.14s0-.06,0-.23c.14-2-1.08-3.23-3-4.07A4.33,4.33,0,0,0,98.34,62,6.31,6.31,0,0,0,98,66.54Zm1.88,2.62a.11.11,0,0,1,0,0C99.9,69,99.9,69.07,99.87,69.16Z"/><path class="cls-67" d="M99.73,96.23l1.38,2.69c6.3,0,12.41-4,13.36-6.42.75-1.93-.11-10.32-.7-13.5-.17.56-1,1.19-1.74,1.68-.31.19-.6.36-.84.49s-.66.34-.66.34a31.24,31.24,0,0,0-.3,4.16c0,3.23-.07,5.15-.07,5.15-1.45,2-5,3.58-7.54,4.49h0C101,95.92,99.73,96.23,99.73,96.23Z"/><path class="cls-68" d="M110.22,76.08c0,2.37.3,5.42.3,5.43s.27-.13.66-.34c.88-.48,2.36-1.39,2.59-2.17a.77.77,0,0,0,0-.2c0-1.46-.11-5.52-2.23-7.38-.16-.12-.34,0-.51.22a8.26,8.26,0,0,0-.84,3.84C110.22,75.68,110.22,75.88,110.22,76.08Z"/><path class="cls-5" d="M137,135.53c.12.76,1.42,1.92,2.24,2.71,1,.93,1.12,1.9.87,2.25s-.88,1-3.24-.43a9.19,9.19,0,0,1-3.06-2.53Z"/><path class="cls-69" d="M139.89,133.35a3.34,3.34,0,0,1,.43,1.59c-.09.62-.86,1-1.43,1.15s-1.34-1-1.34-1Z"/><path class="cls-70" d="M136.78,135.66a3,3,0,0,1,.38,1.29c0,.58-.86,1-1.48,1a3.68,3.68,0,0,1-1.55-.65Z"/><path class="cls-71" d="M94.71,108.33c2.15,2.49,7.46,5.62,13.42,7.35s7.15,2,7.63,2.41a34.4,34.4,0,0,0,4,6.32c4.17,5,10.84,11.27,14,13.11l.81-.51a50.31,50.31,0,0,1-9.2-8c-3.63-3.94-7.33-9.54-7.94-11.19s-8.17-3.34-12.7-5.16-7.64-4.43-8.27-6.3a14.33,14.33,0,0,1-.09-5.2c-1.46-.15-2.41-.33-2.41-.33l-.07-.27C93.66,101.76,92.86,106.19,94.71,108.33Z"/><path class="cls-72" d="M111.46,106.47c3.94,2.2,8.61,4.94,9.77,6.15l0,0a27.7,27.7,0,0,1,3.37,1.77c1,.73,3.34,6.43,5.7,10.07s6.82,10.92,6.82,10.92l.92-.7c-.67-1-1.94-2.88-3.19-5.06-1.79-3.15-6.6-13.09-8.22-15.3s-4.91-3.63-10.08-5.77Z"/><path class="cls-73" d="M97,96.37a44.71,44.71,0,0,0,.53-7.13,34.7,34.7,0,0,0-1.24-9.33s0,3.43.1,6.26-.38,8.81,0,9.72S97,96.37,97,96.37Z"/><path class="cls-74" d="M102.6,95.32c1.42-.34,5.81-2.07,7-3.2s1.29-1.41,1.39-3.82c.09-2.11.12-5.49.15-7.12-.39.21-.66.34-.66.34a31.24,31.24,0,0,0-.3,4.16c0,3.23-.07,5.15-.07,5.15C108.69,92.84,105.15,94.4,102.6,95.32Z"/><path class="cls-75" d="M90.15,86.16c.45,1.57,1.26,13.14,4.35,14.5,0,0,8.39,2,16.19-5.36.58-.53,2.47-2.37,2-2.8l0,0c-.2,0-.66.85-.83.72s1.06-1.87.69-2.08-1.1,1.76-1.22,1.65,1.1-2.49.79-2.61-1.12,2.09-1.28,1.9.75-1.78.44-1.72-1.12,1.82-1.28,1.75,0-.8.06-1-.13-.41-.41.07a6.68,6.68,0,0,0-.66,1.76,18.21,18.21,0,0,1-7.53,2.93c-4.16.5-4.7-.28-4.8-.66s.48-7.45-.09-9.83c0,0-.77.71-3.5.92-.75.06-1.31.08-1.73.08C90.26,86.32,90.15,86.16,90.15,86.16Z"/><path class="cls-76" d="M101,95.84c-.62.15-1.37,1.06-1.79,1.29s-.17-.25.36-.87-.52.28-1,.77-.65.46-.6.17.68-1.23.52-1.24-.92,1.57-1.28,1.45.5-1.51.43-1.52-.72,1.06-1,.91.24-1,.55-1.2a4.72,4.72,0,0,1,2.42-.21A3,3,0,0,1,101,95.84Z"/><path class="cls-77" d="M90.15,86.16c.45,1.57,1.26,13.14,4.35,14.5,0,0,8.39,2,16.19-5.36.58-.53,2.47-2.37,2-2.8l0,0a9.8,9.8,0,0,1-1.22,1.72c-1,1.18-3.5,2.56-6.7,4.41a16.18,16.18,0,0,1-9.07,1.54c-1.17-.24-2-1-2.68-3.23a54,54,0,0,1-1.65-10.59C90.26,86.32,90.15,86.16,90.15,86.16Z"/><path class="cls-68" d="M90.05,86.28a5.86,5.86,0,0,0,1.29.17,14,14,0,0,0,5.33-1.07c.61-6.14-2-10.27-4.74-8.59l-.33.23C88.78,79.25,90.05,86.28,90.05,86.28Z"/><path class="cls-78" d="M90.05,86.28a5.86,5.86,0,0,0,1.29.17c-.06-.68-.13-1.73-.25-3.27a16.31,16.31,0,0,1,.85-6.39l-.33.23C88.78,79.25,90.05,86.28,90.05,86.28Z"/><path class="cls-78" d="M110.22,76.08c0,2.37.3,5.42.3,5.43s.27-.13.66-.34c0-1.32-.32-3.28-.46-5.23a11.17,11.17,0,0,1,.35-4.3,8.26,8.26,0,0,0-.84,3.84C110.22,75.68,110.22,75.88,110.22,76.08Z"/><path class="cls-18" d="M207.4,113.22c1-2.18,2.22-4.62,2.85-5.13,1-.8-2.31-2.12-4.86-3.34s-7.06-3.13-9.29-4.32a1.91,1.91,0,0,0-1-.25c-2.1.14-3.13,4.46-3.6,6a19.62,19.62,0,0,1-1.45,2.81,4.39,4.39,0,0,0-.77,3,3.36,3.36,0,0,0,1.24,1.75c.62.48,1.22.76,1.29,1.05a14.09,14.09,0,0,1,.32,6.33,13.35,13.35,0,0,1-1,2.94c-.65,1.44,1.81,3.65,6.11,5.86a13.19,13.19,0,0,0,8.41,1.22c.47-.12.88-.25,1.21-.36s.76-.25.76-.25l-.18-.54c-.25-.77-.75-2.24-1.25-3.64-.72-2-.3-8.18.07-9.94A19.76,19.76,0,0,1,207.4,113.22Z"/><path class="cls-19" d="M193.08,139.82c-.31,0-.72,3.5-.72,3.5-.64,2.33-2.48,6.69-3.64,6.2a.28.28,0,0,1-.12-.08c-1-.69-.45-4.12-.2-5.66s.39-3.42,1.72-4a3.39,3.39,0,0,1,.94-.24A4.43,4.43,0,0,1,193.08,139.82Z"/><path class="cls-79" d="M188.84,144.55a12.88,12.88,0,0,0-.24,4.89c-1-.69-.45-4.12-.2-5.66s.39-3.42,1.72-4a3.39,3.39,0,0,1,.94-.24A12.54,12.54,0,0,0,188.84,144.55Z"/><path class="cls-80" d="M207.57,130.51s-.29.11-.76.25a13.11,13.11,0,0,1-1.89-7c-.19-3.82.49-8.38,1.53-10.23.39-.68.69-.7.95-.35a19.76,19.76,0,0,0-1.18,3.18c-.37,1.76-.79,7.93-.07,9.94.51,1.4,1,2.87,1.25,3.64Z"/><path class="cls-16" d="M212.2,147c-1.24,1.38-5.69,2-10.17.58a60.65,60.65,0,0,1-9.68-4.29s.12-1.05.29-2c.13-.78.29-1.49.43-1.49.31,0,11.77,2.32,11.77,2.32.44-.63-7.28-4.17-12.19-7s-7.73-4.52-7.73-4.52a85.93,85.93,0,0,1,5,7.89l-.57.43L186.63,141s-9.21-9.2-11.07-11.74c-2.49-3.43-1.79-6.14,1.32-6.95s11.29,2.86,12,3H189a3.37,3.37,0,0,0,2.05-1.14,1.6,1.6,0,0,0,.25,1.37c.75,1.29,2.87,2.84,5.9,4.4a13.27,13.27,0,0,0,8.41,1.21c.46-.12.86-.24,1.19-.36l.79-.26s1.7,3,3.25,5.75c1,1.76,1.9,3.47,2.28,4.29A5.77,5.77,0,0,1,212.2,147Z"/><path class="cls-81" d="M191.33,125.5a4.94,4.94,0,0,1-.55.17,2.24,2.24,0,0,1-1.76-.4,3.37,3.37,0,0,0,2.05-1.14A1.6,1.6,0,0,0,191.33,125.5Z"/><path class="cls-81" d="M210.86,136.25c-1.29-1.59-3.18-4.24-4-5.49l.79-.26S209.31,133.46,210.86,136.25Z"/><path class="cls-18" d="M195,100.18h0c-1.64-.25-5.65,3-5.06,8.78a19.62,19.62,0,0,0,1.45-2.81C191.92,104.64,192.95,100.32,195,100.18Z"/><path class="cls-81" d="M206.72,143.13c-.29.35-2.86.1-6.44-.51-2.7-.44-6.13-1-7.68-1.31.13-.77.29-1.49.43-1.49.31,0,11.77,2.32,11.77,2.32.44-.64-7.28-4.17-12.19-7s-7.73-4.51-7.73-4.51a87.13,87.13,0,0,1,5,7.89l-.57.43c-.52-1-1.85-2.81-2.88-4.35-1.2-1.78-3.84-5.17-3.85-6.09s1.72,0,5.63,2.16,13,7,15.85,8.9S207,142.77,206.72,143.13Z"/><path class="cls-82" d="M186.64,133.86a.25.25,0,0,0,.23,0l9.33-5.42a.07.07,0,0,0,0-.13l-6.89-4a.26.26,0,0,0-.23,0l-9.33,5.42a.07.07,0,0,0,0,.13Z"/><path class="cls-3" d="M186.86,134.2h0l3.64-2.11,5.69-3.3h0v-.33h0v0h0v0h0l-5.57,3.24-3.75,2.18-.05,0h-.17l-6.9-4,0,0h0v0h0v0c0,.11,0,.23,0,.34h0l6.89,4h.23Z"/><path class="cls-83" d="M190.5,132.08l5.69-3.3h0v-.33h0v0h0v0h0l-5.57,3.24Z"/><polygon class="cls-5" points="195.08 128.79 188.54 124.98 180.86 129.41 187.41 133.22 195.08 128.79"/><path class="cls-83" d="M191.74,126.39a.17.17,0,0,0,0,.32.6.6,0,0,0,.55,0c.15-.09.15-.23,0-.32A.61.61,0,0,0,191.74,126.39Z"/><path class="cls-84" d="M183.44,131.39s0,.08,0,.1a.18.18,0,0,0,.18,0s.05-.07,0-.1A.2.2,0,0,0,183.44,131.39Z"/><path class="cls-85" d="M189.91,138.5s.78,1,.63,1.32a25.52,25.52,0,0,1-2.72,2.32c-1,.81-2.38.7-1.23-1.16Z"/><path class="cls-86" d="M213.92,124.62c-.21,1-.23,3.38-5.22,4.57a57,57,0,0,1-9.61,1.32l-.4,0a9.09,9.09,0,0,1-3.7.51h0c-.07,0-.1,0-.11,0-.23-.31,1.16-.4,1.1-.6s-1.87.26-1.89-.15,1.84-.44,1.79-.66-2.42-.33-2.42-.71,2.53,0,2.56-.23-1.84-.38-1.84-.7,2.17,0,2.34-.14.35-.38-.11-.8-.67-1.16-.15-.8a12.94,12.94,0,0,1,2.18,1.65,30.13,30.13,0,0,0,6.51-2.28h0a12.17,12.17,0,0,0,3.73-2.49c.57-1.07-1.39-7.13-1.39-7.13a5.28,5.28,0,0,0,1,.2,7.64,7.64,0,0,0,4.6-1.26s.86,6,1,8.64h0A5.19,5.19,0,0,1,213.92,124.62Z"/><path class="cls-87" d="M209.26,122.67c-.35,1.35-2.45,2.51-4.34,2.85a12.17,12.17,0,0,0,3.73-2.49c.57-1.07-1.39-7.13-1.39-7.13a5.28,5.28,0,0,0,1,.2C208.91,118.22,209.64,121.22,209.26,122.67Z"/><path class="cls-88" d="M213.92,124.62c-.21,1-.23,3.38-5.22,4.57a57,57,0,0,1-9.61,1.32l-.4,0a9.09,9.09,0,0,1-3.7.51,11,11,0,0,0,2.77-.54c1.22-.37,3.48-.61,6.85-1.14s6.74-1.6,7.67-2.68a8.3,8.3,0,0,0,1.61-3.16A5.19,5.19,0,0,1,213.92,124.62Z"/><path class="cls-89" d="M192.07,121.11a2.65,2.65,0,0,1-.27.28,97,97,0,0,1-10.61,6.92h-.07c-.11-.2,1.2-1.08.64-.93s-1.63.8-1.84.63,1.19-1.38,1.19-1.38c-1.68.51-2.31.52-2.37.29s2.13-.9,2.06-1-2.12.16-2.06-.18,2.57-.52,2.51-1-1.2-.87-1.17-1.18,2,.42,2.72.66c0,0,7-6.56,7.22-7.08a32.14,32.14,0,0,0,.43-3.39c.24.19.49.35.7.49s.55.38.59.56A14.09,14.09,0,0,1,192.07,121.11Z"/><path class="cls-90" d="M192.07,121.11a2.65,2.65,0,0,1-.27.28,97,97,0,0,1-10.61,6.92,54.24,54.24,0,0,1,5-3.5c1.61-1.11,4.73-3.59,5.11-4.29a7.43,7.43,0,0,0,.36-4.09,20,20,0,0,0-.51-2.21c.32.21.55.38.59.56A14.09,14.09,0,0,1,192.07,121.11Z"/><path class="cls-18" d="M212.87,114.84a5.1,5.1,0,0,1-.63.46,5.53,5.53,0,0,1-4.19.87,3.73,3.73,0,0,1-.78-.27c-2-.91-.11-11.44,2.86-8.63C211.24,108.32,213.2,113.46,212.87,114.84Z"/><path class="cls-91" d="M212.87,114.84a5.1,5.1,0,0,1-.63.46,12.78,12.78,0,0,0-2.13-6.6c-.59-.54-2.07.51-2,1.6a8,8,0,0,1-.55,2.62c-.23.92.24,2.07.52,3.25a3.73,3.73,0,0,1-.78-.27c-2-.91-.11-11.44,2.86-8.63C211.24,108.32,213.2,113.46,212.87,114.84Z"/><path class="cls-92" d="M202.86,103.79c-.09.51-2,1.5-3.26,1a3,3,0,0,1-1.85-1.94c.19-.44.32-.67.43-1a3.11,3.11,0,0,0,.12-.43,2.44,2.44,0,0,0,1.29.39A5,5,0,0,0,202,101a1.09,1.09,0,0,1,0-.17.52.52,0,0,1,0-.07,26.45,26.45,0,0,1,.81,2.67A1.08,1.08,0,0,1,202.86,103.79Z"/><path class="cls-93" d="M202.82,103.44a19.84,19.84,0,0,1-2.33-.42,4.21,4.21,0,0,1-2.31-1.22,3.11,3.11,0,0,0,.12-.43,2.44,2.44,0,0,0,1.29.39A5,5,0,0,0,202,101a1.09,1.09,0,0,1,0-.17.52.52,0,0,1,0-.07A26.45,26.45,0,0,1,202.82,103.44Z"/><path class="cls-19" d="M191.65,141.77c-.49,1.08-2.76,2.1-3.3,3.18s-3.22,3.5-4.68,3a.57.57,0,0,1-.39-.36c-.29-.87,1.76-2.78,2.35-4.3a21.2,21.2,0,0,1,1-2.26l3.32-2.48a5.08,5.08,0,0,1,1.78,2.24A1.44,1.44,0,0,1,191.65,141.77Z"/><path class="cls-79" d="M191.65,141.77c-.49,1.08-2.76,2.1-3.3,3.18s-3.22,3.5-4.68,3a.57.57,0,0,1-.39-.36,6,6,0,0,0,3.75-1.73,14.42,14.42,0,0,1,2.77-2.88,4.8,4.8,0,0,0,1.88-2.19A1.44,1.44,0,0,1,191.65,141.77Z"/><path class="cls-80" d="M198.7,117.26c1.63.58,5.44.23,6.46-1.1a4.49,4.49,0,0,1-2.3,2.14A4.07,4.07,0,0,1,198.7,117.26Z"/><path class="cls-94" d="M203.65,95.35c-.6.74-.87.51-.87.51.79-2.91-1.25-4.18-2.85-2.79s-3.39-.33-3.91-1.8a7.22,7.22,0,0,0-.54,2.32c-.32,4.1,1.3,6.64,2.64,7.65a2.18,2.18,0,0,0,1.13.5,4.56,4.56,0,0,0,2.27-.42.88.88,0,0,1,0-.15l0-.06c.56-1.61,1.35-2.11,2-3.22C205.17,96.92,204.24,94.61,203.65,95.35Z"/><path class="cls-95" d="M207.46,102.56c-1.94-1.77-2.24-2.85-2.1-4a6.25,6.25,0,0,0,.37-1.91.09.09,0,0,1,0,0h0a10.39,10.39,0,0,0,0-1.23c-.31-4.49-1.45-7-4.73-7.5-3.43-.48-5.38,2.26-5,3.36h0c.52,1.47,2.31,3.19,3.91,1.8s3.65-.12,2.85,2.79c0,0,.26.23.87-.51s1.52,1.58-.07,2.54c-.66,1.13-1.48,1.62-2,3.29a.88.88,0,0,0,0,.15c-.14.9.84,2.39.34,3.53a5.54,5.54,0,0,0,.82,6.2c2.15,2.31,2.78,1,2.69.07s.56-1.73,1.94-2.41S210.44,105.27,207.46,102.56Z"/><path class="cls-13" d="M115.33,112a.3.3,0,0,1-.26,0l-10.76-6.25c-.08,0-.08-.11,0-.15l8-4.59a.3.3,0,0,1,.27,0l10.76,6.25c.07,0,.07.11,0,.15Z"/><path class="cls-3" d="M115.08,112.35h0l-4.2-2.44-6.56-3.81h-.05v-.42a0,0,0,0,0,0,0h0v0h0l0,0h0l0,0,6.43,3.73,4.33,2.52.06,0h.2l8-4.59h0v0h0a0,0,0,0,0,0,0c0,.13,0,.27,0,.4h-.05l-8,4.59h-.26Z"/><path class="cls-83" d="M110.88,109.91l-6.56-3.81h-.05v-.42a0,0,0,0,0,0,0h0v0h0l0,0h0l0,0,6.43,3.73Z"/><polygon class="cls-5" points="105.59 106.11 113.14 101.72 122 106.83 114.45 111.22 105.59 106.11"/><path class="cls-83" d="M109.45,103.34a.19.19,0,0,1,0,.36.7.7,0,0,1-.63,0,.19.19,0,0,1,0-.36A.7.7,0,0,1,109.45,103.34Z"/><path class="cls-84" d="M119,109.11a.06.06,0,0,1,0,.12.24.24,0,0,1-.21,0c-.06,0-.06-.09,0-.12A.22.22,0,0,1,119,109.11Z"/><path class="cls-5" d="M184,89.45c6.91,0,12.31-6.1,12.37-6.18a.29.29,0,0,0-.44-.38,21.32,21.32,0,0,1-4.82,3.88c-3.88,2.27-7.64,2.71-11.17,1.32-10.9-4.31-11.25-10.48-10.63-27.69a38,38,0,0,0-3.57-17.79c-2.23-4.53-5.14-7.45-7.6-7.63-1.32-.1-3.61.53-4.22,5.87a.29.29,0,0,0,.57.06c.4-3.6,1.68-5.5,3.6-5.36,4.52.33,11.12,11.15,10.64,24.83-.6,16.77-.39,23.75,11,28.25A11.53,11.53,0,0,0,184,89.45Z"/><path class="cls-5" d="M127,88.33c5.33,0,5.34-4.87,5.35-13.72,0-.89,0-1.83,0-2.81.06-9.16,7-11.62,7.07-11.64a.29.29,0,0,0,.18-.36.29.29,0,0,0-.37-.18c-.07,0-7.39,2.62-7.46,12.19,0,1,0,1.92,0,2.81,0,8.75,0,13.14-4.77,13.14a4.31,4.31,0,0,1-3.31-1.26c-2.15-2.26-2.07-7.54-1.8-12.76.14-2.66-.43-4.64-1.74-6-2.47-2.64-7.24-2.7-11.85-2.76h0a.29.29,0,0,0-.29.29.29.29,0,0,0,.28.29c4.49.06,9.14.11,11.44,2.58,1.19,1.27,1.71,3.1,1.58,5.6-.34,6.68-.13,11,2,13.18A4.84,4.84,0,0,0,127,88.33Z"/><path class="cls-18" d="M195.28,66.2l-.17-.1a.09.09,0,0,1,0-.13.09.09,0,0,1,.13,0l0,0V64.79a.1.1,0,0,1,.1-.1.09.09,0,0,1,.1.1v1.33a.09.09,0,0,1,0,.08h-.1Zm-2.21-1.26-1.33-.75a.1.1,0,0,1,.09-.17l1.33.76a.09.09,0,0,1,0,.13.09.09,0,0,1-.08,0ZM189.71,63l-1.33-.75a.09.09,0,0,1,0-.13.1.1,0,0,1,.13,0l1.33.75a.1.1,0,0,1,0,.13.1.1,0,0,1-.08,0Zm5.53-.59V60.92a.1.1,0,0,1,.1-.1.09.09,0,0,1,.1.1v1.53a.09.09,0,0,1-.1.1A.1.1,0,0,1,195.23,62.45Zm-8.89-1.32L185,60.38a.1.1,0,1,1,.09-.17l1.33.76a.09.09,0,0,1,0,.13.1.1,0,0,1-.08,0ZM183,59.22l-1.33-.75a.1.1,0,0,1,.1-.17l1.33.75a.09.09,0,0,1,0,.13.09.09,0,0,1-.08,0Zm12.26-.64V57.05a.1.1,0,0,1,.1-.1.09.09,0,0,1,.1.1v1.53a.09.09,0,0,1-.1.1A.1.1,0,0,1,195.23,58.58Zm-15.62-1.27-1.33-.75a.09.09,0,0,1,0-.13.09.09,0,0,1,.13,0l1.33.75a.09.09,0,0,1,0,.18Zm-3.36-1.91-.53-.3a.09.09,0,0,1,0-.13.09.09,0,0,1,.13,0l.53.3a.1.1,0,0,1,0,.13.1.1,0,0,1-.08,0Zm19-.69V53.18a.1.1,0,0,1,.1-.09.09.09,0,0,1,.1.09v1.53a.09.09,0,0,1-.1.1A.1.1,0,0,1,195.23,54.71Zm0-3.87V49.31a.09.09,0,0,1,.1-.09.09.09,0,0,1,.1.09v1.53a.1.1,0,0,1-.1.1A.1.1,0,0,1,195.23,50.84Zm0-3.87V45.44a.1.1,0,0,1,.1-.1.09.09,0,0,1,.1.1V47a.09.09,0,0,1-.1.1A.1.1,0,0,1,195.23,47Zm0-3.87V41.57a.1.1,0,0,1,.1-.09.09.09,0,0,1,.1.09V43.1a.09.09,0,0,1-.1.09A.1.1,0,0,1,195.23,43.1Zm0-3.87V37.7a.1.1,0,0,1,.1-.09.09.09,0,0,1,.1.09v1.53a.09.09,0,0,1-.1.1A.1.1,0,0,1,195.23,39.23Z"/><path class="cls-18" d="M145.4,38.14V36.76a.09.09,0,0,1,.1-.09.09.09,0,0,1,.1.09v1.38a.09.09,0,0,1-.1.1A.1.1,0,0,1,145.4,38.14Zm0-3.72V32.89a.1.1,0,0,1,.1-.1.09.09,0,0,1,.1.1v1.53a.09.09,0,0,1-.1.1A.1.1,0,0,1,145.4,34.42Zm0-3.87V29a.1.1,0,0,1,.1-.1.09.09,0,0,1,.1.1v1.53a.09.09,0,0,1-.1.09A.1.1,0,0,1,145.4,30.55Zm0-3.87V25.15a.1.1,0,0,1,.1-.1.09.09,0,0,1,.1.1v1.53a.09.09,0,0,1-.1.09A.09.09,0,0,1,145.4,26.68Zm0-3.87V21.28a.1.1,0,0,1,.1-.1.09.09,0,0,1,.1.1v1.53a.09.09,0,0,1-.1.1A.1.1,0,0,1,145.4,22.81Zm0-3.87V17.41a.1.1,0,0,1,.1-.09.09.09,0,0,1,.1.09v1.53a.09.09,0,0,1-.1.09A.09.09,0,0,1,145.4,18.94Zm0-3.87V13.54a.1.1,0,0,1,.1-.1.09.09,0,0,1,.1.1v1.53a.09.09,0,0,1-.1.1A.1.1,0,0,1,145.4,15.07Zm0-3.87V9.67a.09.09,0,0,1,.1-.09.09.09,0,0,1,.1.09V11.2a.09.09,0,0,1-.1.09A.1.1,0,0,1,145.4,11.2Zm7.38-1.34-1.37-.67a.1.1,0,0,1,0-.13.09.09,0,0,1,.13,0l1.37.67a.09.09,0,0,1,0,.13.1.1,0,0,1-.09.05Zm-3.48-1.69-1.37-.67a.1.1,0,1,1,.08-.17l1.37.67a.1.1,0,0,1,0,.13.09.09,0,0,1-.09.05Zm-3.9-.84V6.21a.09.09,0,0,1,0-.08.09.09,0,0,1,.09,0l.37.18a.09.09,0,0,1,0,.13.1.1,0,0,1-.13,0l-.23-.11v1a.09.09,0,0,1-.1.09A.1.1,0,0,1,145.4,7.33Z"/><path class="cls-4" d="M206.88,82.9l.21.15,0,.05a1.89,1.89,0,0,1,.29,1.09,4.86,4.86,0,0,1-2.2,3.81,1.84,1.84,0,0,1-1.16.29v0l-.22-.08h0a1.47,1.47,0,0,1-.79-1.49,4.86,4.86,0,0,1,2.2-3.81A1.43,1.43,0,0,1,206.88,82.9Z"/><path class="cls-10" d="M207.05,83h0l.24.14,0,0a1.73,1.73,0,0,1,.39,1.2,4.78,4.78,0,0,1-2.16,3.74,1.72,1.72,0,0,1-1.24.26l0,0-.24-.14h0a1.5,1.5,0,0,1-.66-1.41,4.77,4.77,0,0,1,2.16-3.75A1.5,1.5,0,0,1,207.05,83Z"/><path class="cls-5" d="M208,84.58c0-1.38-1-1.94-2.16-1.25a4.78,4.78,0,0,0-2.16,3.75c0,1.38,1,1.94,2.16,1.25A4.78,4.78,0,0,0,208,84.58Z"/><path class="cls-2" d="M207.78,83.71h0l0,0,.06.05.24.2,0,.06a1.83,1.83,0,0,1,.22.93,4.45,4.45,0,0,1-2,3.48,1.81,1.81,0,0,1-.92.27l0,.06-.31-.11H205a1.34,1.34,0,0,1-.7-1.35,4.42,4.42,0,0,1,2-3.47A1.36,1.36,0,0,1,207.78,83.71Z"/><path class="cls-22" d="M208,83.92h0l.17.1,0,0a1.53,1.53,0,0,1,.38,1.11,4.32,4.32,0,0,1-2,3.38,1.52,1.52,0,0,1-1.15.23l0,0-.19-.11h0a1.35,1.35,0,0,1-.59-1.28,4.32,4.32,0,0,1,2-3.38A1.34,1.34,0,0,1,208,83.92Z"/><path class="cls-3" d="M208.77,85.29c0-1.25-.88-1.75-2-1.13a4.32,4.32,0,0,0-2,3.38c0,1.25.88,1.75,2,1.13A4.32,4.32,0,0,0,208.77,85.29Z"/><path class="cls-2" d="M205.94,88.44a1.28,1.28,0,0,0,.62-.2,3.83,3.83,0,0,0,1.7-3c0-.27-.05-.9-.58-.9a1.28,1.28,0,0,0-.62.2,3.83,3.83,0,0,0-1.71,3C205.36,87.82,205.41,88.44,205.94,88.44Z"/><path class="cls-2" d="M199.32,79.57c0-1.26-.88-1.77-2-1.14a4.36,4.36,0,0,0-2,3.42c0,1.26.88,1.77,2,1.14A4.35,4.35,0,0,0,199.32,79.57Z"/><path class="cls-3" d="M199.54,79.7c0-1.26-.89-1.77-2-1.14a4.36,4.36,0,0,0-2,3.42c0,1.26.88,1.77,2,1.14A4.37,4.37,0,0,0,199.54,79.7Z"/><path class="cls-4" d="M200,78.71l-.14.23a1.9,1.9,0,0,1,.2.91,4.59,4.59,0,0,1-2.08,3.6,1.9,1.9,0,0,1-.89.29l-.13.23-.51-.4h0a1.5,1.5,0,0,1-.55-1.31,4.59,4.59,0,0,1,2.08-3.6,1.52,1.52,0,0,1,1.37-.19h0Z"/><path class="cls-5" d="M200.33,79a1.79,1.79,0,0,1,.35,1.15,4.75,4.75,0,0,1-2.15,3.72,1.76,1.76,0,0,1-1.17.27l0,.06L197,84h0a1.52,1.52,0,0,1-.63-1.39,4.77,4.77,0,0,1,2.15-3.72,1.51,1.51,0,0,1,1.52-.15h0l.31.18Z"/><path class="cls-4" d="M201,80.36c0-1.37-1-1.92-2.15-1.24a4.75,4.75,0,0,0-2.15,3.72c0,1.37,1,1.93,2.15,1.24A4.75,4.75,0,0,0,201,80.36Z"/><path class="cls-5" d="M200.17,79.37a.56.56,0,0,0-.25-.08,1.43,1.43,0,0,0-.8.23,4.31,4.31,0,0,0-1.92,3.32,1.26,1.26,0,0,0,.28.89.5.5,0,0,0,.12.1,1.1,1.1,0,0,0,1.05-.15,4.29,4.29,0,0,0,1.92-3.32A1.1,1.1,0,0,0,200.17,79.37Z"/><path class="cls-3" d="M199.93,79.28a1.36,1.36,0,0,0-.75.2l0,0a4.3,4.3,0,0,0-1.92,3.32s0,.07,0,.1a1.21,1.21,0,0,0,.28.79,1.42,1.42,0,0,0,.8-.23,4.28,4.28,0,0,0,1.92-3.32A1.26,1.26,0,0,0,199.93,79.28Z"/><path class="cls-2" d="M199.18,79.48l0,0a4.3,4.3,0,0,0-1.92,3.32s0,.07,0,.1a1,1,0,0,0,1-.1,3.1,3.1,0,0,0,1.4-2.43A1,1,0,0,0,199.18,79.48Z"/><g class="cls-1"><path class="cls-96" d="M198.8,75l1.06-.61c-1.59.91-1.61,4-1.61,4.07l-1.06.61S197.21,75.91,198.8,75Z"/><path class="cls-7" d="M201.73,75.3c-1.22-.7-2.22-.84-3-.4-1.61.92-1.64,4.09-1.64,4.12l.09.05s0-3.16,1.61-4.07c.75-.43,1.74-.3,2.93.39a7.28,7.28,0,0,1,2.72,2.81,12.69,12.69,0,0,1,1.4,5.94l.09.06a12.89,12.89,0,0,0-1.43-6A7.45,7.45,0,0,0,201.73,75.3Z"/><path class="cls-3" d="M204.21,77.74l-.18-.26,0-.06-.17-.23,0-.06-.24-.29-.06-.07-.1-.12-.08-.08-.11-.12-.07-.07-.29-.27,0,0-.3-.25-.05,0-.33-.23,0,0-.36-.22-.21-.12-.06,0-.14-.07-.07,0-.13-.06L201,75l-.09,0-.17-.06-.08,0-.17-.05-.06,0-.08,0-.11,0-.08,0-.11,0h-.53l-.21,0h0l-.19,0-.06,0-.13,0-.06,0-.15.07,0,0,1.05-.61h0l.16-.08H200l.13,0h.06l.18,0h0l.2,0h.72l.11,0,.08,0h.06l.18.05.08,0,.17.06.05,0,0,0,.07,0,.13.06.08,0,.14.07.07,0,.21.11.36.22,0,0,.33.23,0,0,.3.25.05,0,.29.27,0,0,.05.05.11.11.08.08.11.12,0,0,0,0,.24.29v0l0,0,.16.23,0,0v0l.18.26h0l0,0,.14.23,0,0,.08.13.1.18,0,0,.13.26v0h0l.15.32v0l0,0,.13.32v0h0l.15.43v.08l.06.17,0,.11.05.19,0,.07h0l.09.34,0,.08.07.3v0h0l.05.27V81c0,.07,0,.13,0,.19s0,.07,0,.1,0,.11,0,.16l0,.1,0,.16a.43.43,0,0,1,0,.06v0a.61.61,0,0,1,0,.07V82a.76.76,0,0,0,0,.08s0,.08,0,.11v.08s0,.07,0,.11a.7.7,0,0,1,0,.08s0,.07,0,.1a.63.63,0,0,1,0,.07.5.5,0,0,1,0,.09.48.48,0,0,1,0,.07s0,.06,0,.09,0,0,0,.06a.75.75,0,0,1,0,.08.17.17,0,0,0,0,.05v.12s0,0,0,.07v.1a.16.16,0,0,1,0,0v.12h0v0h0v0h0l-1.06.62s0-.05,0-.14h0v-.17s0,0,0-.07v-.11s0,0,0,0,0,0,0-.08v-.06a.69.69,0,0,1,0-.08.52.52,0,0,0,0-.06s0-.06,0-.09a.46.46,0,0,0,0-.06s0-.06,0-.1,0,0,0-.07,0-.07,0-.1a.7.7,0,0,1,0-.08v-.1a.79.79,0,0,1,0-.08v-.11a.74.74,0,0,0,0-.08.83.83,0,0,0,0-.12.35.35,0,0,1,0-.05c0-.06,0-.13,0-.19v-.08l0-.18v-.08l0-.2a.52.52,0,0,0,0-.06l-.05-.27v0l-.07-.3,0-.07-.09-.34,0-.08-.06-.2s0-.07,0-.1l-.06-.18,0-.08c0-.14-.1-.28-.15-.43l0-.05-.13-.32,0-.07-.15-.32,0,0-.14-.26-.11-.21-.1-.17-.14-.23Z"/></g><path class="cls-6" d="M207,83.16c0,.06,0,.37.28.42a3.11,3.11,0,0,0-1.42.82s.1-.11.09-.51Z"/><path class="cls-7" d="M205.85,83.81a.64.64,0,0,1-.2.48l.17.11a.57.57,0,0,0,.08-.29A.63.63,0,0,0,205.85,83.81Z"/><path class="cls-6" d="M198.27,78c0,.06,0,.34.23.41a3.26,3.26,0,0,0-1.44.92,1.23,1.23,0,0,0,.15-.65Z"/><path class="cls-7" d="M197.11,78.73a.56.56,0,0,1-.23.48l.17.11a1.11,1.11,0,0,0,.13-.4C197.2,78.74,197.11,78.73,197.11,78.73Z"/><path class="cls-8" d="M206.74,80.82a6.63,6.63,0,0,1-1,.52s.14.7.22,1.47A6.06,6.06,0,0,1,206,84a2.14,2.14,0,0,1,1.07-.57,13.39,13.39,0,0,0-.31-2.62Z"/><path class="cls-15" d="M206.74,80.82a5.68,5.68,0,0,1-1,.52l0,0,1-.53Z"/><path class="cls-16" d="M205.67,81.32l0,0s.08.4.18,1.1a11.14,11.14,0,0,1,.1,1.22,1.77,1.77,0,0,1,0,.36l-.05,0a4.82,4.82,0,0,0,0-1C205.87,82.43,205.67,81.32,205.67,81.32Z"/><path class="cls-4" d="M97.39,65.13l-.2.15,0,0a1.87,1.87,0,0,0-.28,1.07,4.76,4.76,0,0,0,2.15,3.73,1.78,1.78,0,0,0,1.14.28v0l.21-.08h0a1.43,1.43,0,0,0,.77-1.46,4.75,4.75,0,0,0-2.15-3.73A1.4,1.4,0,0,0,97.39,65.13Z"/><path class="cls-10" d="M97.22,65.26h0l-.23.13,0,0a1.69,1.69,0,0,0-.38,1.18,4.68,4.68,0,0,0,2.12,3.67,1.7,1.7,0,0,0,1.21.26l0,0,.23-.13h0a1.47,1.47,0,0,0,.65-1.39,4.68,4.68,0,0,0-2.12-3.67A1.47,1.47,0,0,0,97.22,65.26Z"/><path class="cls-5" d="M96.34,66.77c0-1.35.95-1.9,2.12-1.22a4.68,4.68,0,0,1,2.12,3.67c0,1.35-.95,1.9-2.12,1.22A4.68,4.68,0,0,1,96.34,66.77Z"/><path class="cls-2" d="M96.52,65.92h0l0,0-.06,0-.23.19,0,.05a1.77,1.77,0,0,0-.22.91,4.34,4.34,0,0,0,2,3.4,1.75,1.75,0,0,0,.9.27l0,.05.3-.11h.05a1.31,1.31,0,0,0,.68-1.32A4.34,4.34,0,0,0,98,66,1.33,1.33,0,0,0,96.52,65.92Z"/><path class="cls-22" d="M96.3,66.12h0l-.16.09,0,0a1.49,1.49,0,0,0-.37,1.09,4.23,4.23,0,0,0,1.91,3.31,1.5,1.5,0,0,0,1.13.22l0,0,.19-.11h0a1.33,1.33,0,0,0,.58-1.25,4.23,4.23,0,0,0-1.91-3.31A1.31,1.31,0,0,0,96.3,66.12Z"/><path class="cls-3" d="M95.54,67.47c0-1.22.86-1.72,1.91-1.11a4.23,4.23,0,0,1,1.92,3.31c0,1.22-.86,1.71-1.92,1.1A4.23,4.23,0,0,1,95.54,67.47Z"/><path class="cls-2" d="M98.31,70.56a1.28,1.28,0,0,1-.61-.2A3.75,3.75,0,0,1,96,67.47c0-.26.06-.88.57-.88a1.26,1.26,0,0,1,.61.2,3.75,3.75,0,0,1,1.67,2.89C98.88,69.94,98.83,70.56,98.31,70.56Z"/><g class="cls-1"><path class="cls-96" d="M105.3,57.4l-1-.6c1.56.89,1.58,4,1.58,4l1,.6S106.86,58.29,105.3,57.4Z"/><path class="cls-7" d="M102.43,57.68c1.19-.69,2.18-.82,2.93-.39,1.58.9,1.6,4,1.6,4l-.09.05s0-3.1-1.58-4a2.86,2.86,0,0,0-2.86.38,7.14,7.14,0,0,0-2.66,2.75,12.4,12.4,0,0,0-1.37,5.82l-.09.05a12.57,12.57,0,0,1,1.4-5.91A7.29,7.29,0,0,1,102.43,57.68Z"/><path class="cls-3" d="M100,60.07l.17-.26,0-.06.16-.22,0-.06.23-.28.06-.07.1-.11.07-.08.11-.11.06-.07.28-.26,0,0,.3-.24,0,0,.32-.23,0,0,.35-.22.2-.11.06,0,.14-.07.07,0,.13-.06.07,0,.09,0,.16-.06.08,0,.17-.05.06,0,.08,0,.11,0,.08,0,.11,0h.52l.2,0h0l.18,0,.06,0,.13,0,.06,0,.15.07,0,0-1-.6h0l-.15-.08h-.06l-.13,0h-.06l-.18,0h0l-.2,0H103l-.07,0h-.08l-.11,0-.08,0h-.06l-.17.05-.08,0-.16.06,0,0,0,0-.07,0-.13.06-.08,0-.13.07-.07,0-.2.11-.35.22,0,0-.32.23,0,0-.3.24-.05,0-.28.26,0,0-.05.05-.11.11-.07.08-.1.12,0,0,0,0-.23.29v0l0,0-.16.22,0,0v0l-.17.26h0l0,0-.14.22,0,0-.07.13-.1.18,0,0-.13.25,0,0h0l-.14.32,0,0,0,0-.13.31v0h0c-.05.14-.1.28-.15.42v.08l-.05.17,0,.11-.06.19,0,.06h0l-.09.34,0,.08-.06.29v0h0l-.05.26v.07l0,.19s0,.06,0,.09l0,.16,0,.1,0,.15v.65s0,.05,0,.07,0,.06,0,.1,0,0,0,.07,0,.06,0,.09V65s0,.06,0,.09a.35.35,0,0,0,0,.06s0,.05,0,.08a.25.25,0,0,0,0,.05s0,0,0,.07,0,0,0,0,0,0,0,.07v.3h0a.11.11,0,0,0,0,0h0l1,.6s0,0,0-.13h0v-.17s0,0,0-.06v0s0,0,0-.07,0,0,0,0,0,0,0-.07,0,0,0-.06,0-.05,0-.08,0,0,0-.06,0-.06,0-.09,0,0,0-.06,0-.06,0-.09a.46.46,0,0,1,0-.07s0-.06,0-.1v-.07s0-.07,0-.1,0-.05,0-.08,0-.07,0-.11v-.08s0-.08,0-.12v-.05l0-.19v-.07l0-.18v-.08l0-.2v-.06c0-.09,0-.18.05-.27v0l.07-.3,0-.07.09-.34,0-.07.06-.2,0-.1.05-.17,0-.08c0-.14.09-.28.15-.42l0-.05.13-.31,0-.07.15-.32,0,0,.13-.26.11-.21.09-.17.14-.22Z"/></g><path class="cls-6" d="M97.31,65.38c0,.06,0,.36-.28.41a3,3,0,0,1,1.39.81s-.1-.11-.09-.5Z"/><path class="cls-7" d="M98.4,66a.63.63,0,0,0,.19.46l-.16.11a.6.6,0,0,1-.08-.29A.64.64,0,0,1,98.4,66Z"/><path class="cls-8" d="M97.53,63.1a6.69,6.69,0,0,0,1,.51s-.13.68-.21,1.43a6.34,6.34,0,0,0-.05,1.19,2.1,2.1,0,0,0-1-.56s0-.51.09-1.25A12.47,12.47,0,0,1,97.53,63.1Z"/><path class="cls-15" d="M97.53,63.1a5.87,5.87,0,0,0,1,.51l0,0-1-.51Z"/><path class="cls-16" d="M98.57,63.58l0,0s-.08.39-.17,1.08a10,10,0,0,0-.1,1.19,1.84,1.84,0,0,0,0,.35l.05,0a4.8,4.8,0,0,1,0-1C98.38,64.66,98.57,63.58,98.57,63.58Z"/></g></g></svg>