<svg id="Layer_1" data-name="Layer 1" xmlns="http://www.w3.org/2000/svg" viewBox="0 0 60 60"><defs><style>.cls-1{fill:#002147;}.cls-2{fill:#e6e9ed;}.cls-3{fill:#ff826e;}.cls-4{fill:#fdc800;}</style></defs><title>online-classes-icon-01</title><path class="cls-1" d="M20.62,26.13A.88.88,0,0,0,21,24.94l-.8-1.57A.88.88,0,0,0,19,23l-3.26,1.77V6.87a3.56,3.56,0,0,1,3.56-3.56H53.13a3.56,3.56,0,0,1,3.56,3.56V28.22H20l-.68-1.36Zm0,0"/><path class="cls-2" d="M36.23,6.87a8.9,8.9,0,1,1-8.9,8.9,8.9,8.9,0,0,1,8.9-8.9Zm0,0"/><path class="cls-3" d="M39.79,15.77l-7.12,3.56V12.21Zm0,0"/><path class="cls-1" d="M16.66,38.9H53.13a3.56,3.56,0,0,0,3.56-3.56V28.22h-40Zm0,0"/><path class="cls-1" d="M36.23,38.9v5.43a2.18,2.18,0,0,0-.64-.09,2.44,2.44,0,0,0-1.87.87L30,49.57h-.89l-3.26-4.65a4.61,4.61,0,0,0-.31-.41h0V31.78H36.23Zm0,0"/><path class="cls-1" d="M22.88,50.17v6.52H7.76V49.57a8.9,8.9,0,0,1,8.9-8.9h1a9.92,9.92,0,0,1,7.84,3.83,4.61,4.61,0,0,1,.31.41l3.26,4.65H30l3.72-4.47a2.44,2.44,0,0,1,1.87-.87,2.18,2.18,0,0,1,.64.09A2.42,2.42,0,0,1,38,46.65V47a2.47,2.47,0,0,1-.48,1.46l-3,4a6.23,6.23,0,0,1-10,0Zm0,0"/><path class="cls-1" d="M22,35.34a5.34,5.34,0,0,1-10.64.6,27.28,27.28,0,0,0,4.72-1.76,27.58,27.58,0,0,0,4.1-2.86,5.35,5.35,0,0,1,1.82,4Zm0,0"/><path class="cls-1" d="M8.5,32.74l-1.33.72A.88.88,0,0,1,6,33.08l-.07-.13L5.19,31.5a.88.88,0,0,1,.38-1.19l10.2-5.56L19,23a.88.88,0,0,1,1.18.38l.8,1.57a.88.88,0,0,1-.38,1.19l-1.34.73Zm0,0"/><path class="cls-1" d="M20,28.22l1.15,2.3s-.36.32-.93.8a27.58,27.58,0,0,1-4.1,2.86,27.28,27.28,0,0,1-4.72,1.76l-1.11.29L8.5,32.74l10.78-5.88Zm0,0"/><path class="cls-1" d="M5.09,39.79c1,0,1.78,1.69,1.78,2.67a1.78,1.78,0,1,1-3.56,0c0-1,.8-2.67,1.78-2.67Zm0,0"/><path class="cls-4" d="M36.23,25.55a9.79,9.79,0,1,0-9.79-9.79,9.8,9.8,0,0,0,9.79,9.79Zm0-17.79a8,8,0,1,1-8,8,8,8,0,0,1,8-8Zm0,0"/><path d="M31.78,10.77v10l10-5Zm1.78,2.88,4.24,2.12-4.24,2.12Zm0,0"/><path class="cls-4" d="M53.13,2.42H19.32a4.45,4.45,0,0,0-4.45,4.45V24.23l-9.71,5.3a1.78,1.78,0,0,0-.77,2.39l.43.85a2.64,2.64,0,0,0-.63,1.69v4.7a4.09,4.09,0,0,0-1.78,3.3,2.67,2.67,0,1,0,5.34,0A4.09,4.09,0,0,0,6,39.15v-4.7a.89.89,0,0,1,0-.18l.23.1a1.74,1.74,0,0,0,.54.09,1.81,1.81,0,0,0,.83-.21L8.12,34l1.64,3.29.69-.16.22-.06a6.2,6.2,0,0,0,2.45,3.42,9.8,9.8,0,0,0-6.25,9.11v8h16.9V52.83l.09.12a7.12,7.12,0,0,0,11.39,0l3-4a3.34,3.34,0,0,0,.66-2v-.33a3.3,3.3,0,0,0-1.78-2.92v-4h16a4.45,4.45,0,0,0,4.45-4.45V6.87a4.45,4.45,0,0,0-4.45-4.45ZM16.66,6.87A2.67,2.67,0,0,1,19.32,4.2H53.13A2.67,2.67,0,0,1,55.8,6.87V27.33H20.51l0-.1.57-.31a1.78,1.78,0,0,0,.77-2.39L21,23a1.76,1.76,0,0,0-1-.88,1.78,1.78,0,0,0-1.37.12l-1.94,1.06ZM5.09,43.34a.89.89,0,0,1-.89-.89c0-.73.6-1.74.89-1.78s.89,1,.89,1.78a.89.89,0,0,1-.89.89ZM6.78,32.67,6,31.09l13.42-7.32.8,1.57Zm2.9.44,9.22-5L20,30.3a27.58,27.58,0,0,1-4.35,3.08,27,27,0,0,1-4.94,1.8Zm2.71,3.45a24.86,24.86,0,0,0,4.1-1.6,25.16,25.16,0,0,0,3.61-2.44,4.44,4.44,0,1,1-7.71,4Zm23,6.81A3.29,3.29,0,0,0,33,44.54l-3.45,4.15-3-4.27-.14-.18V32.67h8.9Zm-10.68-1a10.85,10.85,0,0,0-4.1-2.15,6.22,6.22,0,0,0,.54-.5v.1h3.56ZM37.12,47a1.55,1.55,0,0,1-.31.92l-3,4a5.34,5.34,0,0,1-8.54,0l-3.47-4.63-1.42,1.07L22,50.46V55.8H8.65V49.57a8,8,0,0,1,8-8h1a9.06,9.06,0,0,1,7.42,3.86l3.52,5h1.77l4-4.79a1.53,1.53,0,0,1,2.71,1Zm16-9h-16V34.45H54V32.67H37.12V30.89H24.66V38H22.27a6.17,6.17,0,0,0-.81-6.62l.24-.21.5-.45-.81-1.62H55.8v6.23A2.67,2.67,0,0,1,53.13,38Zm0,0"/><rect class="cls-4" x="28.22" y="38.01" width="5.34" height="1.78"/><rect class="cls-4" x="28.22" y="41.57" width="3.56" height="1.78"/><rect class="cls-4" x="28.22" y="34.45" width="5.34" height="1.78"/><rect class="cls-4" x="18.43" y="13.1" width="1.78" height="1.78"/><rect class="cls-4" x="52.24" y="23.77" width="1.78" height="1.78"/><rect class="cls-4" x="52.24" y="20.21" width="1.78" height="1.78"/><rect class="cls-4" x="52.24" y="16.66" width="1.78" height="1.78"/><path class="cls-4" d="M20.21,7.76h7.12V6H20.21a1.78,1.78,0,0,0-1.78,1.78v3.56h1.78Zm0,0"/></svg>