<svg xmlns="http://www.w3.org/2000/svg" xmlns:xlink="http://www.w3.org/1999/xlink" viewBox="0 0 300 150"><defs><style>.cls-1{isolation:isolate;}.cls-2{fill:#e3e5ef;}.cls-2,.cls-24,.cls-42,.cls-43{mix-blend-mode:multiply;}.cls-3{fill:#c4c8d8;}.cls-4{fill:#eeeff4;}.cls-5{fill:#d9dbe6;}.cls-6{fill:#ced1de;}.cls-7{fill:#b7bccf;}.cls-8{fill:#6a3646;}.cls-9{fill:#e6f1ff;}.cls-10{fill:#4f5a5b;}.cls-11{fill:#626b6c;}.cls-12{fill:#485455;}.cls-13{fill:#754554;}.cls-14{fill:#788182;}.cls-15{fill:#dde8f6;}.cls-16{fill:url(#Áåçûìÿííûé_ãðàäèåíò_7);}.cls-17{fill:#f4f9ff;}.cls-18{fill:#fec7c7;}.cls-19{fill:#ef989a;}.cls-20{fill:#ff8fab;}.cls-21{fill:url(#Áåçûìÿííûé_ãðàäèåíò_8);}.cls-22{fill:url(#Áåçûìÿííûé_ãðàäèåíò_26);}.cls-23{fill:#fb7f9e;}.cls-24,.cls-46{fill:#febfbf;}.cls-25{fill:#e38181;}.cls-26{fill:#ffb0b9;}.cls-27{fill:#e6e2dd;}.cls-28{fill:#76757c;}.cls-29{fill:#5c5b63;}.cls-30{fill:#2d2c37;}.cls-31{fill:#4b4a53;}.cls-32{fill:#42414b;}.cls-33{fill:#393842;}.cls-34{fill:#25242f;}.cls-35{fill:#ff5288;}.cls-36{fill:#656f70;}.cls-37{fill:url(#Áåçûìÿííûé_ãðàäèåíò_7-2);}.cls-38{fill:#ff839e;}.cls-39{fill:#8e8e8e;}.cls-40{fill:url(#Áåçûìÿííûé_ãðàäèåíò_7-3);}.cls-41{fill:#6a88c7;}.cls-42{fill:#e6eaf2;}.cls-43{fill:#e6e7f2;}.cls-44{fill:#ff5e89;}.cls-45{fill:#f23f6f;}.cls-47{fill:url(#Áåçûìÿííûé_ãðàäèåíò_7-4);}.cls-48{fill:url(#Áåçûìÿííûé_ãðàäèåíò_2);}.cls-49{fill:url(#Áåçûìÿííûé_ãðàäèåíò_8-2);}.cls-50{fill:url(#Áåçûìÿííûé_ãðàäèåíò_11);}.cls-51{fill:url(#Áåçûìÿííûé_ãðàäèåíò_4);}.cls-52{fill:#eff0f5;}.cls-53{fill:url(#Áåçûìÿííûé_ãðàäèåíò_2-2);}.cls-54{fill:#504f60;}.cls-55{fill:#4f5997;}.cls-56{fill:#8c92b0;}.cls-57{fill:#3c3b45;}.cls-58{fill:#2a2934;}.cls-59{fill:#b2b7cc;}.cls-60{fill:#a76478;}.cls-61{fill:#b76604;}.cls-62{fill:#c7883c;}.cls-63{fill:#edcc85;}.cls-64{fill:#e7bc5f;}.cls-65{fill:#fafcff;}.cls-66{fill:url(#Áåçûìÿííûé_ãðàäèåíò_7-5);}.cls-67{fill:#fff;}.cls-68{fill:url(#Áåçûìÿííûé_ãðàäèåíò_8-3);}.cls-69{fill:url(#Áåçûìÿííûé_ãðàäèåíò_5);}.cls-70{fill:url(#Áåçûìÿííûé_ãðàäèåíò_4-2);}.cls-71{fill:url(#Áåçûìÿííûé_ãðàäèåíò_2-3);}.cls-72{fill:url(#Áåçûìÿííûé_ãðàäèåíò_205);}.cls-73{fill:url(#Áåçûìÿííûé_ãðàäèåíò_205-2);}.cls-74{fill:url(#Áåçûìÿííûé_ãðàäèåíò_2-4);}.cls-75{fill:#bcd2db;}.cls-76{fill:url(#Áåçûìÿííûé_ãðàäèåíò_7-6);}.cls-77{fill:#fa9698;}</style><linearGradient id="Áåçûìÿííûé_ãðàäèåíò_7" x1="216.85" y1="17.15" x2="212.63" y2="16.8" gradientUnits="userSpaceOnUse"><stop offset="0.12" stop-color="#fec7c7"/><stop offset="0.97" stop-color="#ffadb7"/></linearGradient><linearGradient id="Áåçûìÿííûé_ãðàäèåíò_8" x1="210.28" y1="16.77" x2="209.35" y2="16.95" gradientUnits="userSpaceOnUse"><stop offset="0.12" stop-color="#fec7c7"/><stop offset="0.99" stop-color="#ffdbdb"/></linearGradient><linearGradient id="Áåçûìÿííûé_ãðàäèåíò_26" x1="209.41" y1="16.81" x2="210.63" y2="16.81" gradientUnits="userSpaceOnUse"><stop offset="0.12" stop-color="#ffdcdc"/><stop offset="0.99" stop-color="#fecbcb"/></linearGradient><linearGradient id="Áåçûìÿííûé_ãðàäèåíò_7-2" x1="2346.73" y1="72.48" x2="2353.59" y2="72.48" gradientTransform="translate(-2187.29)" xlink:href="#Áåçûìÿííûé_ãðàäèåíò_7"/><linearGradient id="Áåçûìÿííûé_ãðàäèåíò_7-3" x1="197.89" y1="74.51" x2="204.01" y2="74.51" gradientTransform="matrix(-1, 0, 0, 1, 367.08, 0)" xlink:href="#Áåçûìÿííûé_ãðàäèåíò_7"/><linearGradient id="Áåçûìÿííûé_ãðàäèåíò_7-4" x1="1835.32" y1="25.46" x2="1831.73" y2="20.59" gradientTransform="translate(-1640.93 -190.09) rotate(5.74)" xlink:href="#Áåçûìÿííûé_ãðàäèåíò_7"/><linearGradient id="Áåçûìÿííûé_ãðàäèåíò_2" x1="1829.58" y1="24.39" x2="1833.72" y2="24.39" gradientTransform="translate(-1640.93 -190.09) rotate(5.74)" gradientUnits="userSpaceOnUse"><stop offset="0.12" stop-color="#fca4b5"/><stop offset="0.99" stop-color="#ffadb7"/></linearGradient><linearGradient id="Áåçûìÿííûé_ãðàäèåíò_8-2" x1="1828.03" y1="19.56" x2="1827.3" y2="19.64" gradientTransform="translate(-1640.93 -190.09) rotate(5.74)" xlink:href="#Áåçûìÿííûé_ãðàäèåíò_8"/><linearGradient id="Áåçûìÿííûé_ãðàäèåíò_11" x1="1827.17" y1="19.57" x2="1828.34" y2="19.57" gradientTransform="translate(-1640.93 -190.09) rotate(5.74)" gradientUnits="userSpaceOnUse"><stop offset="0.19" stop-color="#ffdcdc"/><stop offset="0.9" stop-color="#fec7c7"/></linearGradient><linearGradient id="Áåçûìÿííûé_ãðàäèåíò_4" x1="1834.27" y1="19.31" x2="1836.17" y2="19.31" gradientTransform="translate(-1640.93 -190.09) rotate(5.74)" gradientUnits="userSpaceOnUse"><stop offset="0.12" stop-color="#feb9b8"/><stop offset="1" stop-color="#ffdede"/></linearGradient><linearGradient id="Áåçûìÿííûé_ãðàäèåíò_2-2" x1="1834.57" y1="19.18" x2="1835.89" y2="19.18" xlink:href="#Áåçûìÿííûé_ãðàäèåíò_2"/><linearGradient id="Áåçûìÿííûé_ãðàäèåíò_7-5" x1="2470.16" y1="11.51" x2="2475.92" y2="11.51" gradientTransform="matrix(-1, 0, 0, 1, 2585.97, 0)" xlink:href="#Áåçûìÿííûé_ãðàäèåíò_7"/><linearGradient id="Áåçûìÿííûé_ãðàäèåíò_8-3" x1="118.19" y1="11.36" x2="119.17" y2="11.93" xlink:href="#Áåçûìÿííûé_ãðàäèåíò_8"/><linearGradient id="Áåçûìÿííûé_ãðàäèåíò_5" x1="117.24" y1="11.39" x2="118.91" y2="11.39" gradientUnits="userSpaceOnUse"><stop offset="0.01" stop-color="#fecbcb"/><stop offset="0.88" stop-color="#ffdcdc"/></linearGradient><linearGradient id="Áåçûìÿííûé_ãðàäèåíò_4-2" x1="111.5" y1="8.81" x2="109.98" y2="7.49" gradientTransform="matrix(1, 0, 0, 1, 0, 0)" xlink:href="#Áåçûìÿííûé_ãðàäèåíò_4"/><linearGradient id="Áåçûìÿííûé_ãðàäèåíò_2-3" x1="111.8" y1="8.82" x2="110.19" y2="7.91" gradientTransform="matrix(1, 0, 0, 1, 0, 0)" xlink:href="#Áåçûìÿííûé_ãðàäèåíò_2"/><linearGradient id="Áåçûìÿííûé_ãðàäèåíò_205" x1="199.05" y1="92.8" x2="188.23" y2="74.05" gradientUnits="userSpaceOnUse"><stop offset="0.29" stop-color="#2a2934"/><stop offset="0.77" stop-color="#2d2c37"/></linearGradient><linearGradient id="Áåçûìÿííûé_ãðàäèåíò_205-2" x1="2156.27" y1="94.3" x2="2145.45" y2="75.56" gradientTransform="matrix(-1, 0, 0, 1, 2246.21, 0)" xlink:href="#Áåçûìÿííûé_ãðàäèåíò_205"/><linearGradient id="Áåçûìÿííûé_ãðàäèåíò_2-4" x1="2650.4" y1="166.7" x2="2658.98" y2="166.7" gradientTransform="matrix(-0.99, 0.15, 0.15, 0.99, 2770.16, -427.74)" xlink:href="#Áåçûìÿííûé_ãðàäèåíò_2"/><linearGradient id="Áåçûìÿííûé_ãðàäèåíò_7-6" x1="2642.63" y1="102.82" x2="2650.35" y2="102.82" gradientTransform="matrix(-0.99, 0.15, 0.15, 0.99, 2770.16, -427.74)" xlink:href="#Áåçûìÿííûé_ãðàäèåíò_7"/></defs><title>online-counselling</title><g class="cls-1"><g id="Layer_1" data-name="Layer 1"><path class="cls-2" d="M175.6,143.44c-5.78,3.34-15.18,3.32-21,0s-5.85-8.78-.07-12.12,15.18-3.32,21,0S181.38,140.1,175.6,143.44Z"/><path class="cls-2" d="M168.31,146.87c-5.78,3.34-15.18,3.32-21,0s-5.85-8.78-.07-12.12,15.18-3.32,21,0S174.09,143.53,168.31,146.87Z"/><path class="cls-2" d="M219.82,95.81c-5.78,3.34-15.18,3.32-21,0S193,87,198.76,83.65s15.18-3.32,21,0S225.6,92.47,219.82,95.81Z"/><path class="cls-2" d="M118.65,116.34c14.23,8.21,37.37,8.17,51.69-.09s14.39-21.63.16-29.84-37.37-8.17-51.69.09S104.42,108.12,118.65,116.34Z"/><path class="cls-3" d="M136.74,102.23h0v-.86h1.8q.25-.18.54-.35a12.42,12.42,0,0,1,11.24,0c.2.12.39.24.57.37h1.74v.86h0a4,4,0,0,1-2.34,3.23,12.42,12.42,0,0,1-11.24,0C137.49,104.58,136.72,103.41,136.74,102.23Z"/><path class="cls-4" d="M150.29,104.6a12.39,12.39,0,0,1-11.24,0,4.92,4.92,0,0,1-1.85-1.71c-.85-1.37-.52-2.93,1-4.16a6.68,6.68,0,0,1,.91-.63,12.45,12.45,0,0,1,11.25,0C153.41,99.9,153.39,102.81,150.29,104.6Z"/><path class="cls-5" d="M139.12,104.42a12.11,12.11,0,0,0,11,0c3-1.75,3-4.58,0-6.32a12.11,12.11,0,0,0-11,0C136.11,99.85,136.1,102.68,139.12,104.42Z"/><path class="cls-6" d="M144.58,98.76v4.16H137.2c-.85-1.37-.52-2.93,1-4.16Z"/><path class="cls-3" d="M141.74,101.23h0V82h.67l.2-.13a4.6,4.6,0,0,1,4.16,0L147,82h.65v19.28h0a1.48,1.48,0,0,1-.87,1.2,4.6,4.6,0,0,1-4.16,0A1.45,1.45,0,0,1,141.74,101.23Z"/><path class="cls-7" d="M141.74,89.81h0V70.53h.67l.2-.13a4.6,4.6,0,0,1,4.16,0l.21.14h.65V89.81h0a1.48,1.48,0,0,1-.87,1.2,4.6,4.6,0,0,1-4.16,0A1.45,1.45,0,0,1,141.74,89.81Z"/><path class="cls-8" d="M183.25,6.77s1.46-.76,2.37,0,.54,4.22-.39,6.23c-.83,1.81-.41,5,1.64,5.68-1.44,1.08-4.67-.12-5.12-2.1S183.25,6.77,183.25,6.77Z"/><path class="cls-9" d="M205.83,26.71c0-5-.63-5.55-1-5.09s-5.24,11.89-5.18,12.8,2.38.08,2.38.08,2.74-4.3,3-6S205.83,26.71,205.83,26.71Z"/><path class="cls-10" d="M197.38,87c-.17.25-.28.38-.28.54s0,.5,0,.6.22.84,1.89.86a9,9,0,0,0,4-.83c.88-.44,1.13-.59,1.13-.59l.06-.13s.1-.17.82-.19.91-.05,1,0a.44.44,0,0,0,.28.22,9.8,9.8,0,0,0,2.63-.18,1.81,1.81,0,0,0,1.1-.69c.17-.24.12-.34.12-.34a6.39,6.39,0,0,0-.24-1.34c-.17-.41-.43-.41-.43-.41Z"/><path class="cls-10" d="M215.95,89.92a4.88,4.88,0,0,0-.56,2.12,6.72,6.72,0,0,0,0,.74c0,.18.55.76,2.17.69a4,4,0,0,0,3.76-2.19,7.3,7.3,0,0,0,.16-1.18c0-.22.1-1.21.12-1.6s.1-1.46.12-1.68a1.58,1.58,0,0,0-.15-.94C221.39,85.63,215.95,89.92,215.95,89.92Z"/><path class="cls-11" d="M203.93,83.09a55.77,55.77,0,0,1-5.14,2.37,2.44,2.44,0,0,0-1.6,2c0,.7.64.83,2,.91a10.72,10.72,0,0,0,4.84-1.24c1.22-.7,3.19-.56,4.64-.91S209.8,85,209.8,85s-.34-1.25-.36-1.52-1.22-.34-1.22-.34Z"/><path class="cls-11" d="M217,85.44a25.72,25.72,0,0,0-1.05,3.9c-.3,1.45-.78,2.65.43,3.31s3.14-.18,3.83-.76a5.2,5.2,0,0,0,1.26-2.82c.11-.83,0-1.9.13-2.53a10.07,10.07,0,0,0-.42-2.69Z"/><path class="cls-12" d="M205.32,43.34a27.23,27.23,0,0,0-.78,5.1s-.22,13-.41,19.65-.58,15.44-.58,16.09,3.81,1.89,5.48.43c1.08-11,1.18-14.85,1.3-16.18s2-13.93,1.95-14.3-.06-8.2-.53-8.91S205.32,43.34,205.32,43.34Z"/><path class="cls-12" d="M209.08,46.28c-.17,1.95-.9,7.63-.23,9.28s2.27,0,3.91,5.38A85.7,85.7,0,0,1,215.4,71c.22,1.45,1.27,14.48,1.27,15.16s4.46,1.18,5-.68.09-13.37-.37-16.83-.25-8.6,0-14a36.46,36.46,0,0,0-1-10Z"/><path class="cls-13" d="M220.45,45a4.69,4.69,0,0,1-2.67,1.39c-1.19.32-5.51,1.67-8.63.59a7.13,7.13,0,0,1-2.83-1.53,4.55,4.55,0,0,1-1.07-1.85,4.8,4.8,0,0,0-.35,1.62c0,.27.78,1.9,3.79,3.36s10.11-.41,10.92-.8a4.78,4.78,0,0,0,1.23-.83Z"/><path class="cls-14" d="M209.08,54.92a2.75,2.75,0,0,1-.44,0l-.09,0v-.09a25.83,25.83,0,0,1-.15-3.66,25.17,25.17,0,0,1,.23-3l0-.15,1.65.7v.08a53,53,0,0,1-.26,5.73C209.92,54.84,209.44,54.92,209.08,54.92Zm-.3-.27c.32,0,.93,0,1-.27a53.48,53.48,0,0,0,.25-5.57l-1.21-.51a28,28,0,0,0-.21,2.83A26,26,0,0,0,208.78,54.65Z"/><path class="cls-14" d="M216.6,52.73a4.23,4.23,0,0,1-2.72-.77,2.93,2.93,0,0,1-1-2.37h.25a2.65,2.65,0,0,0,.91,2.18c1,.78,2.62.92,4.94.44l.05.24A12.06,12.06,0,0,1,216.6,52.73Z"/><path class="cls-14" d="M205,49.16a.87.87,0,0,1-.58-.27l.17-.18a.54.54,0,0,0,.53.19c.34-.11.6-.68.71-1.19l.24.05c-.12.57-.42,1.23-.88,1.38A.61.61,0,0,1,205,49.16Z"/><path class="cls-14" d="M207.66,85.31l-.25,0,1.81-16.71c.23-2.16,1-9.43,1.73-12l.24.06c-.68,2.54-1.49,9.79-1.72,11.95Z"/><path class="cls-14" d="M221.31,86.18h-.25s.15-4.14,0-8a63.34,63.34,0,0,0-1-8.39c-.09-.52-.17-1-.25-1.5a75.51,75.51,0,0,1-.17-7.57c0-4.66,0-10.47-.48-13.24l.24,0c.49,2.8.49,8.37.48,13.29,0,3.44,0,6.4.17,7.53.08.48.16,1,.25,1.5a63.65,63.65,0,0,1,1,8.42C221.46,82,221.31,86.14,221.31,86.18Z"/><path class="cls-15" d="M211.88,19.55a11.62,11.62,0,0,0-4.31.78,13.12,13.12,0,0,0-2.64,1.21c0,.14,1.31,7.77,1,10.56s-1.08,8.82-.62,11.39,4.58,4.3,9,3.5,5.76-1.52,6.07-2.32-.37-5.13-.25-7.05,4.64-13.68,4.12-14.21-6-4.12-6.48-4.43S211.88,19.55,211.88,19.55Z"/><path class="cls-16" d="M217.18,12.1a11.61,11.61,0,0,1-.31,3.85,7.54,7.54,0,0,0,.57,3c.09.36,0,.5,0,.5a13.69,13.69,0,0,1-3.19,2.12,4,4,0,0,1-3.16-.11,14.16,14.16,0,0,1-.56-2.88Z"/><path class="cls-17" d="M217,17.47c.6.27.68.25.85.6a6.66,6.66,0,0,1,.52,1.53,18.91,18.91,0,0,1-2.28,2.75,8.48,8.48,0,0,1-.86.77,8.73,8.73,0,0,1-.72-1.13,2.2,2.2,0,0,1-.26-.89c0-.06,1-.68,1.5-1.07a10.62,10.62,0,0,0,1.54-1.58C217.22,18.35,217,17.47,217,17.47Z"/><path class="cls-18" d="M207.43,36l0,.09-.57,2.39s-1-.48-1.39-.65-.7-.63-.94-.87-.53-.7-.28-2.46a2.13,2.13,0,0,1,2-2,.61.61,0,0,1,.31.08,3.82,3.82,0,0,1,.86,1.55A4.16,4.16,0,0,1,207.43,36Z"/><path class="cls-19" d="M207.43,36l0,.09a1.41,1.41,0,0,1-.27,0,4.34,4.34,0,0,0,0-1.55c0-.12-.42-.76-.42-1.11a3.61,3.61,0,0,0-.14-.83,3.82,3.82,0,0,1,.86,1.55A4.16,4.16,0,0,1,207.43,36Z"/><path class="cls-18" d="M209.18,9.36a4.66,4.66,0,0,0-1,3.88,17.9,17.9,0,0,0,1.15,5.17c.7,1.36,1.12,2.27,1.76,2.47s4.26-2.17,4.61-2.89a15.29,15.29,0,0,0,.22-5.15,5.37,5.37,0,0,0-1.62-2.79C213.83,9.59,209.18,9.36,209.18,9.36Z"/><path class="cls-20" d="M209.83,19a1.69,1.69,0,0,0,1.1.65,1.26,1.26,0,0,0,1.17-.2l-1.72-.4Z"/><path class="cls-13" d="M210.86,15.22c0-.1,0-.06,0-.07H211l.18,0,.36,0a4.24,4.24,0,0,1,.72.05c.24,0,.47.11.7.12l.7.07v.14l-.71-.07c-.24,0-.47-.06-.7-.08a5.2,5.2,0,0,0-.69,0l-.35,0-.17,0h-.13s0,0-.05-.06Z"/><path class="cls-13" d="M209.85,15.28c-.06.05-.08,0-.11,0l-.09,0-.18-.07-.37-.13-.74-.28,0-.13.76.22.38.12.19.06.09,0s.07,0,.08.08Z"/><path class="cls-21" d="M210.08,15.22c.1.8-.59,2.44-.58,2.83s1.12.25,1.12.25Z"/><path class="cls-22" d="M210.19,18.4a1.15,1.15,0,0,1-.68-.15.27.27,0,0,1-.1-.2,4.21,4.21,0,0,1,.21-.9,6,6,0,0,0,.37-1.92l.17,0a6,6,0,0,1-.37,2,4.43,4.43,0,0,0-.21.84.1.1,0,0,0,0,.08c.18.15.77.11,1,.09l0,.17A3.71,3.71,0,0,1,210.19,18.4Z"/><path class="cls-23" d="M210.67,19c-.18,0-.41-.14-.5-.15a.7.7,0,0,0-.34.15,1.74,1.74,0,0,0,.51.21,2.21,2.21,0,0,0,.45,0c.08,0,.35.08.54.12a3.84,3.84,0,0,0,.74.08c.3,0-.71-.31-1-.37Z"/><path class="cls-18" d="M214.82,20.44c.1.13,0,.4-.23.91a5.63,5.63,0,0,1-.72,1.22,13.29,13.29,0,0,1-1.34,1.79A5,5,0,0,1,211,25.7c-.3.16-.3.24-.65.6s-2.55-1.87-2.32-2.24.15-.51.22-1a7.93,7.93,0,0,1,.43-1.63l.66-1.28a3.85,3.85,0,0,0,.08-.62.94.94,0,0,1,.06-.35c0-.1.13-.12.27,0a1.51,1.51,0,0,1,.37.67,2.88,2.88,0,0,1-.33,1l.49-.29c.24-.14.52-.33.77-.51s2.08-1.33,2.62-1.61.59.15.64.31l0,.07a1.62,1.62,0,0,1,.27-.26.47.47,0,0,1,.5-.07l.05,0a.33.33,0,0,1,0,.47l0,0,0,0a.31.31,0,0,1,.13.29c0,.17-.56.81-.61.87h0l.05.07Z"/><path class="cls-17" d="M209.92,25.48C208.68,24.14,208,24,207.81,24s-8,9.36-8.13,10.38a2.66,2.66,0,0,0,1.76,2.85c2.1.46,8.7-9.58,9-10.26S209.92,25.48,209.92,25.48Z"/><path class="cls-17" d="M224.25,23.41c-1.69-1.34-4.52,2.79-5.51,5.94s-2.35,8.46-1.53,10.11,1.92,2.37,2.68,2,3.09-6.37,3.78-9.68a43.23,43.23,0,0,0,1-6.56C224.68,24.25,224.71,23.78,224.25,23.41Z"/><path class="cls-17" d="M207.44,35.51a2.55,2.55,0,0,0-1.55,2.38,1.63,1.63,0,0,0,.65,1.73c.28.28,8.87,2.17,13.35,1.82.52-1.13,0-3.53-1.13-4s-2.31-.87-2.31-.87Z"/><path class="cls-24" d="M214.67,20.25l.05.07c-.18.25-1.63,2.41-1.79,2.55S214.67,20.25,214.67,20.25Z"/><path class="cls-24" d="M213,20l-1.72,1.49-.21.11.11-.19L213,19.88c.65-.54,1.25-.81,1.32-1.09l0,.07a1.62,1.62,0,0,1,.27-.26.47.47,0,0,1,.5-.07l-.22,0c-.2,0-.44.34-.57.46S213.08,19.93,213,20Z"/><path class="cls-24" d="M215.15,19.09h0l-.87.9s-1.57,1.6-1.68,1.73-.37.37-.41.41a1.41,1.41,0,0,1,.47-.63c.4-.35,1.93-1.93,2.45-2.43Z"/><path class="cls-24" d="M210.28,20.6l-.09.1a6.26,6.26,0,0,0-.57.53c-.12.12-.59.76-.65.84l.27-.64a5.66,5.66,0,0,1,.53-.84,1.27,1.27,0,0,0,.14-.72c0-.26-.18-.65-.41-.68,0-.1.13-.12.27,0a1.51,1.51,0,0,1,.37.67,2.88,2.88,0,0,1-.33,1Z"/><circle class="cls-25" cx="212.1" cy="15.81" r="0.3"/><ellipse class="cls-25" cx="209.15" cy="15.36" rx="0.21" ry="0.3" transform="matrix(0.75, -0.67, 0.67, 0.75, 42.77, 143.02)"/><path class="cls-18" d="M206.27,32.57a.61.61,0,0,1,.31.08Z"/><path class="cls-13" d="M216,14.77l-.64.28s-.33-1-.84-1-.62-.25-.7-.46-.2-1.81-.46-1.83a20.74,20.74,0,0,1-2.52.34c-1,0-2.48-.11-2.48-.11L208.19,13l-.14.14a3.91,3.91,0,0,1-.25-2.38,5,5,0,0,1,2.74-3.68c1.69-1,3.34-1,4.36-.19,1.27,0,2.57.67,2.79,1.64a23.58,23.58,0,0,1-.21,6c-.27.59,0-1.07-.64-1.07a.77.77,0,0,0-.85.71A2.74,2.74,0,0,0,216,14.77Z"/><path class="cls-18" d="M216.19,14.2a1.11,1.11,0,0,1,1-1c.16,0,.6.12.39.85s-.45,1.42-.5,1.59a.61.61,0,0,1-.69.43c-.37-.11-.14-.76-.17-1A9.21,9.21,0,0,1,216.19,14.2Z"/><path class="cls-26" d="M216.38,14c.22-.33.46-.51.68-.51s.43.11.35.46a2.86,2.86,0,0,1-.51,1.25c-.31.34-.63.15-.59-.21S216.2,14.32,216.38,14Z"/><path class="cls-27" d="M210,49.13a1.21,1.21,0,0,1-.35-.05l-.81-.24a1.68,1.68,0,0,1-1.16-1.53,1,1,0,0,1,.38-.81,1,1,0,0,1,.93-.13l.81.24a1.68,1.68,0,0,1,1.16,1.53,1,1,0,0,1-.38.81A1,1,0,0,1,210,49.13Zm-1-.79.81.24a.53.53,0,0,0,.47-.05.48.48,0,0,0,.17-.4,1.17,1.17,0,0,0-.79-1l-.81-.24a.52.52,0,0,0-.47.05.48.48,0,0,0-.17.4,1.17,1.17,0,0,0,.79,1Z"/><path class="cls-2" d="M104.33,67.27c-6.61-3.82-17.36-3.8-24,0s-6.68,10-.08,13.86,17.36,3.8,24,0S110.94,71.08,104.33,67.27Z"/><path class="cls-28" d="M94.9,63.69a.56.56,0,0,1,.56-.06h0l.71.33-.84,2.29-.78-.35h0a.74.74,0,0,1-.35-.63A1.78,1.78,0,0,1,94.9,63.69Z"/><path class="cls-29" d="M95.61,64c.44-.27.85,0,.91.58a1.78,1.78,0,0,1-.7,1.57c-.44.27-.85,0-.91-.58A1.78,1.78,0,0,1,95.61,64Z"/><path class="cls-28" d="M78.75,78.52a2,2,0,0,1,.92-1.59.65.65,0,0,1,.65-.06h0l.84.54L79.8,79.61l-.79-.5h0A.64.64,0,0,1,78.75,78.52Z"/><path class="cls-29" d="M79.56,79c0,.58.41.82.92.53A2,2,0,0,0,81.4,78c0-.58-.41-.82-.92-.53A2,2,0,0,0,79.56,79Z"/><path class="cls-28" d="M106.21,73.38a1.06,1.06,0,0,1,2.12-.07h0V74h-.17a1.06,1.06,0,0,1-1.77,0h-.18Z"/><circle class="cls-29" cx="107.28" cy="73.97" r="1.06"/><path class="cls-28" d="M79.46,67.32h0a.65.65,0,0,1,.65.07A2,2,0,0,1,81,69a.65.65,0,0,1-.25.57h0l-.75.52-1.3-2.25Z"/><path class="cls-29" d="M78.46,68.42A2,2,0,0,0,79.39,70c.51.29.92.06.92-.53a2,2,0,0,0-.92-1.59C78.88,67.6,78.46,67.84,78.46,68.42Z"/><path class="cls-28" d="M96.16,80.55h0s.07,0,.11.15a6.58,6.58,0,0,1,.2,1.64c0,.41,0,.63-.1.62h0l-1.19.14L95,80.68Z"/><path class="cls-29" d="M95.06,80.83a6.59,6.59,0,0,1,.2,1.64c0,.58-.09.79-.19.47a6.59,6.59,0,0,1-.2-1.64C94.86,80.72,94.95,80.51,95.06,80.83Z"/><polygon class="cls-3" points="92.67 70.78 83.61 73.46 83.76 73.37 79.51 77.72 78.93 77.15 83.17 72.8 83.22 72.74 83.32 72.7 91.92 68.78 92.67 70.78"/><polygon class="cls-3" points="91.91 70.8 83.29 66.83 83.54 66.84 79.28 68 79.07 67.22 83.33 66.05 83.44 66.02 83.58 66.06 92.67 68.77 91.91 70.8"/><polygon class="cls-3" points="91.27 69.39 94.19 63.7 94.31 63.46 94.54 63.44 95.63 63.35 95.7 64.17 94.6 64.25 94.95 63.99 93.31 70.17 91.27 69.39"/><polygon class="cls-3" points="92.29 68.64 102.84 69.39 102.96 69.4 103.03 69.44 108.11 72.22 107.71 72.93 102.64 70.16 102.84 70.2 92.29 70.93 92.29 68.64"/><polygon class="cls-3" points="93.42 69.34 95.39 75.43 95.43 75.55 95.43 75.57 96.16 81.28 95.36 81.44 93.84 75.89 93.88 76.03 91.17 70.23 93.42 69.34"/><path class="cls-3" d="M90.29,71.21a4.41,4.41,0,0,0,4,0,1.22,1.22,0,0,0,0-2.3,4.41,4.41,0,0,0-4,0A1.22,1.22,0,0,0,90.29,71.21Z"/><path class="cls-5" d="M90.29,70.19a4.41,4.41,0,0,0,4,0,1.22,1.22,0,0,0,0-2.3,4.41,4.41,0,0,0-4,0A1.22,1.22,0,0,0,90.29,70.19Z"/><path class="cls-28" d="M90.46,68.79h0v-3.1h.42l.12-.08a2.86,2.86,0,0,1,2.59,0l.13.08h.4v3.1h0a.92.92,0,0,1-.54.75,2.86,2.86,0,0,1-2.59,0A.9.9,0,0,1,90.46,68.79Z"/><path class="cls-29" d="M91,66.44a2.86,2.86,0,0,0,2.59,0,.79.79,0,0,0,0-1.5,2.86,2.86,0,0,0-2.59,0A.79.79,0,0,0,91,66.44Z"/><path class="cls-3" d="M90.75,65.45h0V60.88h.35l.11-.07a2.41,2.41,0,0,1,2.18,0l.11.07h.34v4.56h0a.77.77,0,0,1-.46.63,2.41,2.41,0,0,1-2.18,0A.76.76,0,0,1,90.75,65.45Z"/><path class="cls-5" d="M91.2,61.51a2.41,2.41,0,0,0,2.18,0,.67.67,0,0,0,0-1.26,2.41,2.41,0,0,0-2.18,0A.66.66,0,0,0,91.2,61.51Z"/><path class="cls-3" d="M98.7,47.76l-.84-.26c.14-.44,1.36-4.34,2.47-5.24s6.74,1.76,10,3.42l-.4.78c-3.82-1.94-8.38-3.84-9.07-3.51C100.2,43.49,99.18,46.19,98.7,47.76Z"/><path class="cls-30" d="M97.66,23.14S95,21.29,93.45,21.75C91.89,22,80.45,29.5,81,31.6c1,3.67.16,3.7-.33,25.59a6.08,6.08,0,0,0,2.81,3.32c2.34,1.42,6.9-4.2,6.9-4.2Z"/><path class="cls-30" d="M83.53,57.13l12.88-7.28c.84-.49,1.46-1.84,1.45-1L96.2,25.94c-.16-3.15-2.3-4.58-3.14-4.1L80.18,29.12a3.45,3.45,0,0,0-1.38,3l.71,7,.6.82.57,7c.36,2.18,0,2.79,0,5l0,5.24C80.77,58.36,82.69,57.62,83.53,57.13Z"/><polygon class="cls-30" points="81.11 47.41 97.06 38.35 96.97 30.45 80.17 39.04 81.11 47.41"/><polygon class="cls-30" points="83.83 50 97.66 41.99 97.06 38.35 81.11 47.41 83.83 50"/><path class="cls-29" d="M82.72,40l15.95-9.05c2-1.38-.09-6.53-.09-6.53-.73-1.62-1.6-1.69-2.44-1.2L82.69,30.76c-.84.49,0,1.53.19,2.76A20.06,20.06,0,0,1,82.72,40Z"/><path class="cls-31" d="M82.8,47.87l15.94-9s1.9-4.71-.09-7.91L82.72,40C84.66,43.1,82.86,47.74,82.8,47.87Z"/><path class="cls-32" d="M98.75,38.82h0c1.35,3.6,1.69,4.48,1.18,8.29l-.3,2.24L83.68,58.4l.3-2.24c.51-3.81.18-4.69-1.18-8.29h0Z"/><path class="cls-33" d="M98.75,38.82s.18.81-5.85,4.2S83,48.16,83,48.16l-.17-.28Z"/><path class="cls-34" d="M83.68,58.4s-.18-.81,5.85-4.2,9.92-5.13,9.92-5.13l.17.28Z"/><path class="cls-33" d="M83.27,60h0a.94.94,0,0,0,.56.78l9.62,5.55a4.69,4.69,0,0,0,1.79.56,4.94,4.94,0,0,0,1.34,0,3.17,3.17,0,0,0,1.11-.37l13.77-8a1.27,1.27,0,0,0,.73-1,14.72,14.72,0,0,0,0-3,2.5,2.5,0,0,0-.22-.72,1.83,1.83,0,0,0-.48-.6h0a7.35,7.35,0,0,0-1.14-.71,35,35,0,0,0-8-2.89,14.94,14.94,0,0,0-2.73-.21L84.51,57.91l-1,.55A8.43,8.43,0,0,0,83.27,60Z"/><path class="cls-34" d="M83.53,58.46l.13-.18a17.47,17.47,0,0,1,2.69.22,34.84,34.84,0,0,1,8,2.89,6.67,6.67,0,0,1,1.2.76h0a2.5,2.5,0,0,0,1.9.3c.48-.07,12.93-7.26,14-7.95.42-.26.52-.52.48-.74a2.5,2.5,0,0,1,.22.72,14.72,14.72,0,0,1,0,3,1.27,1.27,0,0,1-.73,1l-13.77,8a3.41,3.41,0,0,1-1.38.4h-.16a5.14,5.14,0,0,1-.9,0,4.69,4.69,0,0,1-1.79-.56l-9.62-5.55a.94.94,0,0,1-.56-.78h0A8.43,8.43,0,0,1,83.53,58.46Z"/><path class="cls-34" d="M100,40.32l1.22.38a1.8,1.8,0,0,1,1.06.17l1.19.54C107,42.54,112,44.18,112,44.56a4.3,4.3,0,0,1,0,1.1v.05h0a.83.83,0,0,1-.44.51,2.07,2.07,0,0,1-1.85.08L100.31,42a.63.63,0,0,1-.28-.3.4.4,0,0,1,0-.1A2,2,0,0,1,100,40.32Z"/><path class="cls-29" d="M111.7,44.06l-9.4-4.28a2.07,2.07,0,0,0-1.85.08h0c-.55.32-.61.8-.13,1.07l9.4,4.28a2.07,2.07,0,0,0,1.85-.08C112.11,44.82,112.17,44.34,111.7,44.06Z"/><path class="cls-18" d="M107.74,52.2c-.43,6,.14,6.54-1.73,9s-5.53,6.66-5.53,10.15a10.92,10.92,0,0,0,1,5.45c.56,1.59.74,2.41.06,3.28s-3-.45-3.57-.95-.83-2.79-1.09-3.47a5.65,5.65,0,0,1-.76-2.33,3.78,3.78,0,0,1,.63-2.54,4.43,4.43,0,0,0,.8-1.66c.25-1,.51-5.31,1.48-7.38s1.59-1.84,2.15-4.21a45.22,45.22,0,0,0,.73-6.42Z"/><path class="cls-18" d="M110.06,53.88c-.19,5.23-2.88,17.45-2.85,19.22a4,4,0,0,0,.82,2.68,23.32,23.32,0,0,0,3.17,2.65,1.7,1.7,0,0,1,.4,2c-.62,1.13-2,.77-2.77.09a25.76,25.76,0,0,0-3.17-2.6c-.77-.39-2.49-.54-2.94-1.76a2.38,2.38,0,0,1,.59-2.34,4.9,4.9,0,0,0,.54-2.32c0-1.33.11-8,.45-11.07S107,52.64,107,52.64Z"/><path class="cls-35" d="M108.94,78.89c1-.12,1.31-.22,1.3-.71s-1-1.29-1-1.29.54.32.85.47a7.36,7.36,0,0,1,2,2c.64,1,.59,1.28.31,1.74s-.93.86-2.69.28a5,5,0,0,1-2.84-1.72A6.93,6.93,0,0,0,105,78.19a4.46,4.46,0,0,0-.91-.19,7.56,7.56,0,0,1-1.52-.86,3.66,3.66,0,0,1-.21-1.14c.06-.32-.11-.72.12-1.14a1.89,1.89,0,0,1,.61-.75c.3-.24-.22,1,.71,1.81a10.06,10.06,0,0,0,2.92,2C107.89,78.37,108.94,78.89,108.94,78.89Z"/><path class="cls-35" d="M101.71,76.78c.32,1,1.08,2.3.23,3.59s-4.07-.45-4.7-2A5.67,5.67,0,0,1,96.66,76c-.13-.91-.61-1.43-.61-2A6,6,0,0,1,96.13,72c.25-.46.18.05.18.05a11.43,11.43,0,0,0,1,3.42c.66,1.05,1.85,2,2.55,2s1.29-.45,1.21-1.1-.2-2-.2-2a1.47,1.47,0,0,1,.23.37C101.15,74.88,101.71,76.78,101.71,76.78Z"/><path class="cls-12" d="M115.37,31.59c.87,1.38,1.22,2.08,1.18,3s-1,8.21-1.28,9.74-2.46,10.19-2.58,11.9c-1.07,2.54-2.29,2.56-3,2.76a14,14,0,0,1-5.67,1.49c-2.79,0-4.35-.85-5.05-3.88s0-5.05,0-7.74-.8-6.37-.19-10.23,2.22-6.52,3.94-7.94a8.63,8.63,0,0,1,5.38-1.71C109.33,29,115.37,31.59,115.37,31.59Z"/><path class="cls-17" d="M117.85,13.5c1.25-.43,2.25,1,2.85,2.58a70.84,70.84,0,0,1,2.7,10c.85,4.35-3.05,4.15-4.23,1.92S116,14.14,117.85,13.5Z"/><path class="cls-15" d="M115.71,12.24c1.56.42,3.14.74,3.81,2.1s1.05,6.31,1,9.14-1.48,4.45-2.42,6.1-1.6,3.48-2,4.06-2.54,1.07-4.5,1-5.61-1.32-6.25-2.06-1.11-8.36-1.11-8.36-1.74-6.53-1.18-7.49a8.82,8.82,0,0,1,3.15-2.88c1.21-.6,2.49-1.84,3.62-2.27S115.71,12.24,115.71,12.24Z"/><path class="cls-36" d="M100.22,59.11,100,59c.66-1,1.07-5.48,1-8.52a75.47,75.47,0,0,1,.52-8.32c0-.46.08-.84.11-1.1.09-1.07,1.2-3.45,2.17-5.54.36-.78.71-1.53,1-2.11l.23.1c-.25.59-.6,1.33-1,2.12A26.5,26.5,0,0,0,101.86,41c0,.26-.06.64-.11,1.11a75.45,75.45,0,0,0-.51,8.29C101.33,53.22,101,58,100.22,59.11Z"/><path class="cls-3" d="M82.21,57c-.32.24-.65-.24-.65-.52a3,3,0,0,1,.27-.94c.18-.5.37-1,.58-1.5a6.28,6.28,0,0,1,1.47-2.48c.41-.33,1.15-.16,1.61-.06a17,17,0,0,1,2.69.86c1.15.45,2.27,1,3.39,1.48l1.59.77c.14.07.65.23.71.36s-.44.59-.63.6-.66-.27-.93-.4q-1-.5-2.08-1c-1.24-.56-2.49-1.09-3.77-1.53a10.83,10.83,0,0,0-1.32-.39,1.29,1.29,0,0,0-.73,0c-.26.12-.47.6-.59.83a14.54,14.54,0,0,0-.64,1.39c-.22.52-.42,1.06-.6,1.59l-.24.72A.41.41,0,0,1,82.21,57Z"/><path class="cls-34" d="M83.73,49.22,85,49.6a1.8,1.8,0,0,1,1.06.17l1.19.54c3.53,1.13,8.47,2.77,8.53,3.14a4.31,4.31,0,0,1,0,1.1v.05h0a.83.83,0,0,1-.44.51,2.07,2.07,0,0,1-1.85.08L84,50.92a.63.63,0,0,1-.28-.3.39.39,0,0,1,0-.1A2,2,0,0,1,83.73,49.22Z"/><path class="cls-29" d="M95.41,53,86,48.68a2.07,2.07,0,0,0-1.85.08h0c-.55.32-.61.8-.13,1.07l9.4,4.28A2.07,2.07,0,0,0,95.28,54C95.82,53.72,95.88,53.23,95.41,53Z"/><path class="cls-2" d="M173.09,63.22c6.61-3.82,17.36-3.8,24,0s6.68,10,.08,13.86-17.36,3.8-24,0S166.48,67,173.09,63.22Z"/><path class="cls-28" d="M182.52,59.64a.56.56,0,0,0-.56-.06h0l-.71.33.84,2.29.78-.35h0a.74.74,0,0,0,.35-.63A1.78,1.78,0,0,0,182.52,59.64Z"/><path class="cls-29" d="M181.82,60c-.44-.27-.85,0-.91.58a1.78,1.78,0,0,0,.7,1.57c.44.27.85,0,.91-.58A1.78,1.78,0,0,0,181.82,60Z"/><path class="cls-28" d="M198.68,74.47a2,2,0,0,0-.92-1.59.65.65,0,0,0-.65-.06h0l-.84.54,1.36,2.21.79-.5h0A.64.64,0,0,0,198.68,74.47Z"/><path class="cls-29" d="M197.86,75c0,.58-.41.82-.92.53a2,2,0,0,1-.92-1.59c0-.58.41-.82.92-.53A2,2,0,0,1,197.86,75Z"/><path class="cls-28" d="M171.21,69.33a1.06,1.06,0,0,0-2.12-.07h0v.65h.17a1.06,1.06,0,0,0,1.77,0h.18Z"/><circle class="cls-29" cx="170.15" cy="69.92" r="1.06"/><path class="cls-28" d="M198,63.27h0a.65.65,0,0,0-.65.07,2,2,0,0,0-.92,1.59.65.65,0,0,0,.25.57h0l.75.52,1.3-2.25Z"/><path class="cls-29" d="M199,64.37A2,2,0,0,1,198,66c-.51.29-.92.06-.92-.53a2,2,0,0,1,.92-1.59C198.55,63.56,199,63.79,199,64.37Z"/><path class="cls-28" d="M181.27,76.5h0s-.07,0-.11.15a6.57,6.57,0,0,0-.2,1.64c0,.41,0,.63.1.62h0l1.19.14.21-2.42Z"/><path class="cls-29" d="M182.37,76.78a6.58,6.58,0,0,0-.2,1.64c0,.58.09.79.19.47a6.58,6.58,0,0,0,.2-1.64C182.56,76.67,182.48,76.46,182.37,76.78Z"/><polygon class="cls-3" points="184.76 66.73 193.82 69.42 193.67 69.32 197.91 73.67 198.5 73.1 194.25 68.75 194.2 68.69 194.1 68.65 185.5 64.74 184.76 66.73"/><polygon class="cls-3" points="185.51 66.75 194.13 62.78 193.88 62.79 198.14 63.95 198.36 63.17 194.1 62 193.99 61.97 193.85 62.02 184.75 64.72 185.51 66.75"/><polygon class="cls-3" points="186.15 65.34 183.24 59.65 183.11 59.41 182.89 59.39 181.79 59.3 181.73 60.12 182.82 60.2 182.47 59.94 184.11 66.12 186.15 65.34"/><polygon class="cls-3" points="185.13 64.59 174.58 65.34 174.47 65.35 174.39 65.39 169.32 68.17 169.71 68.88 174.78 66.11 174.59 66.16 185.13 66.88 185.13 64.59"/><polygon class="cls-3" points="184 65.29 182.03 71.38 181.99 71.5 181.99 71.52 181.26 77.23 182.06 77.39 183.58 71.84 183.54 71.98 186.26 66.18 184 65.29"/><path class="cls-3" d="M187.13,67.16a4.41,4.41,0,0,1-4,0,1.22,1.22,0,0,1,0-2.3,4.41,4.41,0,0,1,4,0A1.22,1.22,0,0,1,187.13,67.16Z"/><path class="cls-5" d="M187.13,66.14a4.41,4.41,0,0,1-4,0,1.22,1.22,0,0,1,0-2.3,4.41,4.41,0,0,1,4,0A1.22,1.22,0,0,1,187.13,66.14Z"/><path class="cls-28" d="M187,64.74h0v-3.1h-.42l-.12-.08a2.86,2.86,0,0,0-2.59,0l-.13.08h-.4v3.1h0a.92.92,0,0,0,.54.75,2.86,2.86,0,0,0,2.59,0A.9.9,0,0,0,187,64.74Z"/><path class="cls-29" d="M186.43,62.39a2.86,2.86,0,0,1-2.59,0,.79.79,0,0,1,0-1.5,2.86,2.86,0,0,1,2.59,0A.79.79,0,0,1,186.43,62.39Z"/><path class="cls-3" d="M186.67,61.4h0V56.83h-.35l-.11-.07a2.41,2.41,0,0,0-2.18,0l-.11.07h-.34V61.4h0A.78.78,0,0,0,184,62a2.41,2.41,0,0,0,2.18,0A.76.76,0,0,0,186.67,61.4Z"/><path class="cls-5" d="M186.23,57.46a2.41,2.41,0,0,1-2.18,0,.67.67,0,0,1,0-1.26,2.41,2.41,0,0,1,2.18,0A.66.66,0,0,1,186.23,57.46Z"/><path class="cls-3" d="M178.73,43.71l.84-.26c-.14-.44-1.36-4.34-2.47-5.24s-6.74,1.76-10,3.42l.4.78c3.82-1.94,8.38-3.84,9.07-3.51C177.23,39.44,178.25,42.14,178.73,43.71Z"/><path class="cls-30" d="M179.76,19.09s2.68-1.84,4.21-1.38c1.56.25,13,7.74,12.44,9.85-1,3.67-.16,3.7.33,25.59a6.08,6.08,0,0,1-2.81,3.32c-2.34,1.42-6.9-4.2-6.9-4.2Z"/><path class="cls-30" d="M193.89,53.08,181,45.8c-.84-.49-1.46-1.84-1.45-1l1.67-22.88c.16-3.15,2.3-4.58,3.14-4.1l12.88,7.28a3.45,3.45,0,0,1,1.38,3l-.71,7-.6.82-.57,7c-.36,2.18,0,2.79,0,5l0,5.24C196.66,54.31,194.74,53.57,193.89,53.08Z"/><polygon class="cls-30" points="196.31 43.36 180.36 34.31 180.45 26.4 197.25 34.99 196.31 43.36"/><polygon class="cls-30" points="193.59 45.95 179.76 37.95 180.36 34.31 196.31 43.36 193.59 45.95"/><path class="cls-29" d="M194.71,35.92l-15.95-9.05c-2-1.38.09-6.53.09-6.53.73-1.62,1.6-1.69,2.44-1.2l13.43,7.58c.84.49,0,1.53-.19,2.76A20.06,20.06,0,0,0,194.71,35.92Z"/><path class="cls-31" d="M194.62,43.82l-15.94-9s-1.9-4.71.09-7.91l15.95,9C192.76,39.05,194.57,43.69,194.62,43.82Z"/><path class="cls-32" d="M178.68,34.77h0c-1.35,3.6-1.69,4.48-1.18,8.29l.3,2.24,15.95,9.05-.3-2.24c-.51-3.81-.18-4.69,1.18-8.29h0Z"/><path class="cls-33" d="M178.67,34.77s-.18.81,5.85,4.2,9.92,5.13,9.92,5.13l.17-.28Z"/><path class="cls-34" d="M193.74,54.35s.18-.81-5.85-4.2S178,45,178,45l-.17.28Z"/><path class="cls-33" d="M194.15,55.94h0a.94.94,0,0,1-.56.78L184,62.28a4.69,4.69,0,0,1-1.79.56,4.94,4.94,0,0,1-1.34,0,3.17,3.17,0,0,1-1.11-.37l-13.77-8a1.27,1.27,0,0,1-.73-1,14.72,14.72,0,0,1,0-3,2.5,2.5,0,0,1,.22-.72,1.83,1.83,0,0,1,.48-.6h0a7.35,7.35,0,0,1,1.14-.71,35,35,0,0,1,8-2.89,14.94,14.94,0,0,1,2.73-.21l15.12,8.56,1,.55A8.43,8.43,0,0,1,194.15,55.94Z"/><path class="cls-34" d="M193.89,54.41l-.13-.18a17.46,17.46,0,0,0-2.69.22,34.84,34.84,0,0,0-8,2.89,6.68,6.68,0,0,0-1.2.76h0a2.5,2.5,0,0,1-1.9.3c-.48-.07-12.93-7.26-14-7.95-.42-.26-.52-.52-.48-.74a2.5,2.5,0,0,0-.22.72,14.72,14.72,0,0,0,0,3,1.27,1.27,0,0,0,.73,1l13.77,8a3.41,3.41,0,0,0,1.38.4h.16a5.14,5.14,0,0,0,.9,0,4.69,4.69,0,0,0,1.79-.56l9.62-5.55a.94.94,0,0,0,.56-.78h0A8.43,8.43,0,0,0,193.89,54.41Z"/><path class="cls-34" d="M177.41,36.28l-1.22.38a1.8,1.8,0,0,0-1.06.17l-1.19.54c-3.53,1.13-8.47,2.77-8.53,3.14a4.3,4.3,0,0,0,0,1.1v.05h0a.83.83,0,0,0,.44.51,2.07,2.07,0,0,0,1.85.08l9.4-4.28a.63.63,0,0,0,.28-.3.4.4,0,0,0,0-.1A2,2,0,0,0,177.41,36.28Z"/><path class="cls-29" d="M165.73,40l9.4-4.28a2.07,2.07,0,0,1,1.85.08h0c.55.32.61.8.13,1.07l-9.4,4.28a2.07,2.07,0,0,1-1.85-.08C165.31,40.77,165.25,40.29,165.73,40Z"/><path class="cls-37" d="M164.72,67.8s1.71,1.16,1.58,2-2.65,6.17-4.2,6.93c-3.23,1.58-2.8-1.59-2.32-2.29s2.21-2.39,2-3.84C161.54,68.62,164.72,67.8,164.72,67.8Z"/><path class="cls-38" d="M166.31,68.55a31.89,31.89,0,0,0-2.63,4.86c-.69,1.89-1.57,2.72-2.29,2.77-1.15.09-2-.53-1.79-1.14l.18-.61s-2.58,3.41-2,5.29,5.41-1.36,6.08-2.45c.25-.42.53-3.27,1.11-4.15s1.66-.65,1.9-2.32S166.31,68.55,166.31,68.55Z"/><path class="cls-39" d="M165.09,72.72c-.58.87-1.11,3.9-1.37,4.32-.62,1-4.86,3.84-5.93,2.65v0c.6,1.89,5.41-1.36,6.08-2.45.25-.42.53-3.27,1.11-4.15s1.71-.67,1.85-2.05A10,10,0,0,0,165.09,72.72Z"/><path class="cls-39" d="M167.81,73.53s.82-.28.83.15,0,3.15,0,3.15a.41.41,0,0,0,.41.08c.21-.1.51-.62.51-.62s.23-2.66.18-3.33S167.81,73.53,167.81,73.53Z"/><path class="cls-40" d="M167.88,69.7a3.36,3.36,0,0,1,1.31,2.25c0,1.27-1.35,6.5-2.95,7.16S163,78.78,163.08,78s1.45-3.09,1.77-4.91S167.88,69.7,167.88,69.7Z"/><path class="cls-38" d="M164.81,72.38a33.71,33.71,0,0,0-1.6,3.94c-1,3.47-.9,5-.61,5.76s2.72,0,4.4-1.53c1.93-1.72,1-3.64,2.11-5.67a3.94,3.94,0,0,0,.64-2.68,2.09,2.09,0,0,0-1.21-1.79,3,3,0,0,1,.51,2.4,12,12,0,0,1-.43,1.51c-.64,1.41-.7,2.76-1.66,3.8s-3.72.52-3.67,0a23.23,23.23,0,0,1,1.23-3.76A5,5,0,0,0,164.81,72.38Z"/><path class="cls-39" d="M169,74.73c-1.14,2-.14,3.82-2.06,5.54-1.56,1.39-3.89,2.27-4.41,1.67l0,.13c.3.84,2.72,0,4.4-1.53,1.93-1.72,1-3.64,2.11-5.67a3,3,0,0,0,.62-1.69C169.54,73.64,169.21,74.41,169,74.73Z"/><path class="cls-41" d="M175.36,35.58S159.68,48.9,159.67,51s2,18.2,1.85,19.48,3.39.8,3.65-.43,1.52-13.6,1.52-13.6l18.46-14.29Z"/><path class="cls-42" d="M166.7,56.42s-1.26,12.37-1.52,13.6c-.1.51-.77.89-1.51,1.07a76.24,76.24,0,0,0-.74-7.6c-.5-3.47,1-7.52,1.05-8.83.19-3.1,8.26-6.53,8.26-6.53s.46,1.25,1.1,3.17Z"/><path class="cls-41" d="M168.86,71.21s2.9-11.78,2.4-12.83-.08-1.18-.08-1.18,1.36-.79,6.46-1.6c5-1.3,9.28-3.76,10.46-5.4,2.25-3.13,1.06-7.37.52-8.53s-8.8,0-10.32,1.53-14.22,7.42-13.86,11.74A148.63,148.63,0,0,1,165,71.79C166.79,74,168.86,71.21,168.86,71.21Z"/><path class="cls-43" d="M188.11,50.2c-1.18,1.65-5.48,4.1-10.46,5.4-5.1.8-6.46,1.59-6.46,1.59s-.43.14.07,1.18-2.4,12.83-2.4,12.83a4.84,4.84,0,0,1-.39.44c.37-2.43,2.11-13.24,2.07-15.28,11.78-2.12,16.86-5.92,17.65-10.11a9.4,9.4,0,0,0-.07-4.18,6.1,6.1,0,0,0-.25-.79,5.1,5.1,0,0,0-.75-1.38,18.15,18.15,0,0,1-1.29,1.29,12.84,12.84,0,0,1-2.67,1.93c-.29.14-.62.31-1,.5-2.12,1.11-5.11,2.82-5.11,2.82l-1.12-.55,4.34-2.54,0,0,1.05-1.44,3.63-5a30.33,30.33,0,0,0-1.56-4c-.93-1.92-1.43-6.8-1.43-6.8a7.88,7.88,0,0,1,4.48-.45c.06,3.22.21,7.23.63,8.56.74,2.3.87,5.57,1.31,7a1.12,1.12,0,0,1,0,.27.46.46,0,0,1,.24.21C189.16,42.83,190.35,47.07,188.11,50.2Z"/><path class="cls-44" d="M177.27,16.2s-2.69-1.33-3.84,2.66a139.49,139.49,0,0,0-1.95,14.77c.08.86,2.28.1,2.56-1.39S177.27,16.2,177.27,16.2Z"/><path class="cls-45" d="M177.53,16.2A3.77,3.77,0,0,0,174.31,19a44.44,44.44,0,0,1-1.67,5c-.67,1.31-.9,2.73-.45,5.34s.62,10.06.62,10.06,1,2.12,5.08,1.79,7.75-.88,8.08-1.81.65-8.48.86-10.24,4-6.17,3.72-6.82-4.32-3.4-4.66-3.56a33.94,33.94,0,0,0-4.5-2.29A6.47,6.47,0,0,0,177.53,16.2Z"/><path class="cls-18" d="M173.84,43.2A26.24,26.24,0,0,0,171,43a7.74,7.74,0,0,0-1.61,1c-.25.24-.74.65-.74.65l-.61.27s-.2.36-.11.4a.18.18,0,0,1,.1.14s-1.52,1.32-1.67,1.53-.21.33-.12.48a.27.27,0,0,0,.24.14s-.34.36-.34.62.32.39.32.39l.58-.17a.89.89,0,0,0,0,.31c0,.2.06.43.28.43a18.12,18.12,0,0,0,2-.9l.88-.45s-.79.6-1,.7-.61.33-.69.53,0,.34.46.28a23.53,23.53,0,0,0,2.77-1.23,22.72,22.72,0,0,0,2.38-1.22,6.16,6.16,0,0,0,1-.93l.57-2Z"/><path class="cls-44" d="M186.4,37.87a2.92,2.92,0,0,0-1.31.13c-.58.24-11,5.32-11,5.32a20.32,20.32,0,0,0,.84,2.83c.35.7,2.63-.19,2.63-.19s10.83-4.43,11.29-6.54S186.4,37.87,186.4,37.87Z"/><path class="cls-24" d="M170.18,45l-1.9,1.15c-.22.14-1.87,1.41-1.87,1.41v.12l2-1.4,1.67-1Z"/><path class="cls-24" d="M170.79,46.15l-2.22,1.21-2,1.2H167l1.57-1c.52-.35,1.44-.86,1.44-.86Z"/><polygon class="cls-24" points="170.94 43.37 169.9 44.2 168.06 45.43 167.96 45.29 168.92 44.7 169.93 43.98 170.94 43.37"/><path class="cls-24" d="M168.85,48.75s1.63-.83,1.81-1,1.19-.78,1.19-.78l-.77.22-1.83,1.11-1.08.51Z"/><path class="cls-44" d="M176.45,39.64s-2.5-6.64-2.54-7-2.33-.18-2.42.56a9.47,9.47,0,0,0,.64,4,39.24,39.24,0,0,0,1.75,3.59S176.46,40.41,176.45,39.64Z"/><path class="cls-18" d="M175,39.54s-1,.36-1,.85-.3.73-.3.94-.49,1.28-.47,1.49.45,1.59.45,1.59,1,.81,1.31,1,.47.16.47,0v-.25a11.78,11.78,0,0,0,1.23,1.42c.16,0,.56-.27.48-.49s.31.8.55.8.6-.16.57-.41a.77.77,0,0,0-.2-.42s.58.24.56-.42a12.46,12.46,0,0,0-1-2.65s-.37-1.11-.37-1.21v-.5l.23.36a1.87,1.87,0,0,0,.6,1.3c.55.36.7-.19.7-.19l-.29-.91a5.33,5.33,0,0,0-.13-1.13,6.2,6.2,0,0,0-1.28-.8c-.16,0-.48-.2-.48-.2l-.47-.28Z"/><path class="cls-44" d="M189,22.23a4.66,4.66,0,0,0-2.35,3c-.47,2.07-1.52,12.11-1.52,12.82s3.24,2.43,4.06,1.15,2.46-9.37,2.56-12-.47-4.14-1.15-4.88S189,22.23,189,22.23Z"/><path class="cls-24" d="M174,42.83a7,7,0,0,0,.36,1.21c.11.1,1.11,1.17,1.11,1.17l.09,0a14.91,14.91,0,0,1-1-1.22C174.46,43.9,174,42.83,174,42.83Z"/><path class="cls-24" d="M174.78,42.62s1.1,1.88,1.21,2,1.13,1.62,1.13,1.62v-.15l-1.52-2.4Z"/><path class="cls-24" d="M176,42.11l1.25,2.39,1,1.79V46L177,43.68Z"/><path class="cls-24" d="M177.13,40.4l.12.65-.12.45.2.74a6,6,0,0,0,.85.75c.18.07-.22-.35-.25-.47s-.39-1.3-.41-1.32-.29-.78-.29-.78Z"/><path class="cls-46" d="M182.65,16.73c.17,0,.59.64,1.33,1s.76.46-.13,1.27-4,4.43-6,4-1.9-2.38-1.83-3.16a5.92,5.92,0,0,1,1.66-2.73C178,17,182.65,16.73,182.65,16.73Z"/><path class="cls-47" d="M177.13,16.45a3.73,3.73,0,0,1,.28,1.57,12.33,12.33,0,0,1-.49,2s.46.88,2.29.68a3.66,3.66,0,0,0,2.47-1.17,8,8,0,0,0,2-1.94,2.52,2.52,0,0,1-1-3,10.15,10.15,0,0,1,1.44-3.3s.51-.91-.13-1S177.13,16.45,177.13,16.45Z"/><path class="cls-48" d="M181.4,15.41a11.6,11.6,0,0,0-1.89,2.19,6.64,6.64,0,0,1-1.84,1.74l-.25-1.64-.28-1.26Z"/><path class="cls-18" d="M176.7,6.35A4.11,4.11,0,0,0,175.6,8a10.14,10.14,0,0,0-.71,2.26,2.35,2.35,0,0,1-.06,1.41c-.26.79.55,4.76,1.41,5.16s4.84-.94,5.28-1.51a11.63,11.63,0,0,0,1.71-4.41c.14-1.54.59-3.35-1.64-4.28A8.87,8.87,0,0,0,176.7,6.35Z"/><path class="cls-20" d="M175.53,15.05a1,1,0,0,0,.62.35,2.17,2.17,0,0,0,1.24-.27l-1-.17-1-.42A2.19,2.19,0,0,0,175.53,15.05Z"/><path class="cls-23" d="M175.32,14.54l.5,0c.07,0,.12.08.19.08h.15a10.6,10.6,0,0,0,1.24.53,3.2,3.2,0,0,1-1.18-.16,1.25,1.25,0,0,0-.51-.14A1.87,1.87,0,0,1,175.32,14.54Z"/><path class="cls-49" d="M176.18,10.67c.08.44-1,2.23-1.1,2.62s1.07.37,1.07.37Z"/><path class="cls-50" d="M175.94,13.73a1.41,1.41,0,0,1-.85-.24.24.24,0,0,1-.06-.2,5.17,5.17,0,0,1,.46-1,4.87,4.87,0,0,0,.64-1.57l.12,0a4.48,4.48,0,0,1-.65,1.65,5.35,5.35,0,0,0-.45,1,.12.12,0,0,0,0,.11c.16.18.76.2,1,.2v.12Z"/><path class="cls-13" d="M179.45,11.09l-.49-.17a4.48,4.48,0,0,0-1.81-.14l0-.19a4.56,4.56,0,0,1,1.91.14l.5.17Z"/><path class="cls-13" d="M175.85,10.42A2.15,2.15,0,0,0,175,10l0-.19c.29-.06.92.36,1,.44Z"/><ellipse class="cls-25" cx="178.19" cy="11.61" rx="0.36" ry="0.42" transform="translate(117.13 179.41) rotate(-73.73)"/><ellipse class="cls-25" cx="175.58" cy="11.1" rx="0.29" ry="0.34" transform="translate(44.77 128.74) rotate(-45.58)"/><path class="cls-13" d="M183.8,11.49s-.36-.47-.64-.31-.78.37-.81.59-.22,1.38-.22,1.38a3.32,3.32,0,0,1-.41-1.72,4.83,4.83,0,0,0-.53-2.59c-.35-.53-.7-1.36-1.52-1.49s-2,0-2.63,0a1.69,1.69,0,0,1-.94-.29l-.6,1.22A3.39,3.39,0,0,1,175.91,7a5.12,5.12,0,0,1,6.91-1.63,4.57,4.57,0,0,1,2.18,5.6c-.43,1.13-1.76,2.13-1.89,2.48s-.5.83-.5,1.16.16-1.21.43-1.85A5.59,5.59,0,0,1,183.8,11.49Z"/><path class="cls-51" d="M182.78,11.74s1-1,1.34-.21-.43,1.65-.94,2.08-.88.54-1,.31.24-1.08.24-1.08Z"/><circle class="cls-52" cx="182.31" cy="13.87" r="0.2" transform="translate(160.56 195.41) rotate(-87.52)"/><path class="cls-53" d="M182.92,11.75s.63-.56.89-.13,0,1.2-.62,1.84c-.64.23-.73,0-.72-.12a3.34,3.34,0,0,0,.28-.75A7.17,7.17,0,0,1,182.92,11.75Z"/><path class="cls-3" d="M195.21,53c.32.24.65-.24.65-.52a3,3,0,0,0-.27-.94c-.18-.5-.37-1-.58-1.5a6.28,6.28,0,0,0-1.47-2.48c-.41-.33-1.15-.16-1.61-.06a16.94,16.94,0,0,0-2.69.86c-1.15.45-2.27,1-3.39,1.48l-1.59.77c-.14.07-.65.23-.71.36s.44.59.63.6.66-.27.93-.4q1-.5,2.08-1c1.24-.56,2.49-1.09,3.77-1.53a10.83,10.83,0,0,1,1.32-.39,1.29,1.29,0,0,1,.73,0c.26.12.47.6.59.83a14.5,14.5,0,0,1,.64,1.39c.22.52.42,1.06.6,1.59l.24.72A.41.41,0,0,0,195.21,53Z"/><path class="cls-34" d="M193.7,45.17l-1.22.38a1.8,1.8,0,0,0-1.06.17l-1.19.54c-3.53,1.13-8.47,2.77-8.53,3.14a4.3,4.3,0,0,0,0,1.1v.05h0a.83.83,0,0,0,.44.51,2.07,2.07,0,0,0,1.85.08l9.4-4.28a.63.63,0,0,0,.28-.3.39.39,0,0,0,0-.1A2,2,0,0,0,193.7,45.17Z"/><path class="cls-29" d="M182,48.91l9.4-4.28a2.07,2.07,0,0,1,1.85.08h0c.55.32.61.8.13,1.07L184,50.06a2.07,2.07,0,0,1-1.85-.08C181.6,49.67,181.54,49.18,182,48.91Z"/><path class="cls-54" d="M119,97.61a5,5,0,0,0-.66,1.84c-.06.85-.37,2.26-.31,2.51a6.3,6.3,0,0,0,3,.58c.68-.12,1.59-1.1,2.53-1.2a13,13,0,0,0,3-.48c1.1-.37,2.09-.79,2.24-1.37a.75.75,0,0,0-.35-.85l-2.59-.35a15.51,15.51,0,0,1-1.76-.77,9.43,9.43,0,0,1-.85-.81Z"/><path class="cls-54" d="M118.51,101.34a.92.92,0,0,0-.7.77,13,13,0,0,0-.1,1.55,5.76,5.76,0,0,0,2.69.37,5.7,5.7,0,0,0,2.17-1l.54-.79a5.29,5.29,0,0,1,1.18-.08,9.87,9.87,0,0,0,2-.41,7.15,7.15,0,0,0,2.44-1c.5-.54-.31-.71-.31-.71l-1.84-.4Z"/><path class="cls-55" d="M124.76,96.87a10.22,10.22,0,0,1-2.68,1.47c-1,.21-3.08.26-3.12-.15s-1.08-14.88-.52-16.38,5.7-4.13,6.42-3.3-.57,11.26-.63,12.61S124.76,96.87,124.76,96.87Z"/><path class="cls-56" d="M123.8,96.55c0-.09-.47-8.62.45-13.22.53-2.63.63-4.15.3-4.51a.3.3,0,0,0-.28-.08,80.36,80.36,0,0,0-7.39,3.89l-.13-.22a78.55,78.55,0,0,1,7.5-3.92.56.56,0,0,1,.49.16c.27.3.48,1.11-.24,4.73-.91,4.57-.45,13.07-.44,13.16Z"/><path class="cls-34" d="M103.38,100.36a.57.57,0,0,0-.57-.06h0l-.73.34.87,2.36.8-.36h0a.77.77,0,0,0,.36-.65A1.83,1.83,0,0,0,103.38,100.36Z"/><path class="cls-33" d="M102.65,100.7c-.46-.28-.88,0-.94.59a1.83,1.83,0,0,0,.72,1.62c.46.28.88,0,.94-.59A1.83,1.83,0,0,0,102.65,100.7Z"/><path class="cls-34" d="M125.38,114.06a2.09,2.09,0,0,0-.95-1.64.67.67,0,0,0-.68-.07h0l-.86.55,1.4,2.28.81-.52h0A.66.66,0,0,0,125.38,114.06Z"/><path class="cls-33" d="M124.54,114.59c0,.6-.43.84-.95.54a2.09,2.09,0,0,1-1-1.64c0-.6.43-.84,1-.54A2.09,2.09,0,0,1,124.54,114.59Z"/><path class="cls-34" d="M96.86,110.82a1.09,1.09,0,0,0-2.19-.07h0v.67h.18a1.1,1.1,0,0,0,1.83,0h.18Z"/><circle class="cls-57" cx="95.76" cy="111.43" r="1.1"/><path class="cls-33" d="M122.18,101.29h0a.67.67,0,0,0-.67.07,2.09,2.09,0,0,0-1,1.64.67.67,0,0,0,.25.59h0l.77.54,1.34-2.32Z"/><path class="cls-34" d="M123.21,102.43a2.09,2.09,0,0,1-1,1.64c-.52.3-.95.06-.95-.54a2.09,2.09,0,0,1,.95-1.64C122.78,101.58,123.21,101.82,123.21,102.43Z"/><path class="cls-58" d="M107.24,116.74h0s-.07,0-.11.15a6.78,6.78,0,0,0-.2,1.69c0,.42,0,.65.11.64h0l1.23.14.21-2.49Z"/><path class="cls-34" d="M108.37,117a6.79,6.79,0,0,0-.2,1.69c0,.6.09.82.2.49a6.78,6.78,0,0,0,.2-1.69C108.57,116.91,108.48,116.69,108.37,117Z"/><path class="cls-59" d="M113,106a4.55,4.55,0,0,1-4.12,0,1.25,1.25,0,0,1,0-2.38,4.55,4.55,0,0,1,4.12,0A1.25,1.25,0,0,1,113,106Z"/><path class="cls-5" d="M109.9,103.9l-1.9,6.26,0,.11v0l-.66,6.36a.44.44,0,0,0,.37.48h0a.44.44,0,0,0,.5-.34l1.35-6.25,0,.15,2.57-6Z"/><path class="cls-5" d="M110.85,103.19l-10.55,2-.14,0-.08.07-4.6,4a.67.67,0,0,0-.07.95h0a.17.17,0,0,0,.24,0l5-4.28-.22.1,10.72-.59Z"/><path class="cls-59" d="M95.51,110.21h0a.18.18,0,0,0,.11,0l4.87-4.18,8.91-.49.48-1.59,1.08.39h0l-.59-1-2.28.43a11,11,0,0,1,1,1.34l-8.61.61-4.73,4.08A1.94,1.94,0,0,1,95.51,110.21Z"/><polygon class="cls-3" points="111.66 103.55 105.42 98.67 105.19 98.49 104.97 98.59 102.15 99.81 102.49 100.58 105.3 99.36 104.85 99.29 110.3 105.04 111.66 103.55"/><path class="cls-5" d="M111.71,105.55l7.15-5.32-.38,0,3.38,1.51a.33.33,0,0,0,.44-.17h0a.51.51,0,0,0-.26-.67l-3.22-1.43-.17-.07-.22.09L110.26,103Z"/><path class="cls-59" d="M122.29,101.58a.5.5,0,0,0,0-.21.51.51,0,0,0-.07-.25c-.1.21-.29.38-.4.38s-3-1.47-3-1.47l-.28.2,0,0-5.1,3.64.2.22h0l5.08-3.78,3.16,1.41A.34.34,0,0,0,122.29,101.58Z"/><path class="cls-5" d="M110.55,105.49l9.5,2.58-.18-.13,4.25,5.18a.28.28,0,0,0,.4,0h0a.56.56,0,0,0,.08-.79l-4.07-5-.06-.07-.12-.06-8.91-4.18Z"/><path class="cls-59" d="M108.07,116.93l0,.11a.43.43,0,0,0,.13-.23l1.32-6.13,2.09-4.9,8.35,2.26,4.17,5.08a.28.28,0,0,0,.4,0,.55.55,0,0,0,.2-.37c-.26.55-.58.16-.58.16L120,107.83l-7.95-2.38c-.14,0-.29.08-.4.16s-.11.09-.14.09l0,0c-.28.46-2,4.12-2.22,4.59S108.07,116.93,108.07,116.93Z"/><path class="cls-5" d="M113,105a4.55,4.55,0,0,1-4.12,0,1.25,1.25,0,0,1,0-2.38,4.55,4.55,0,0,1,4.12,0A1.25,1.25,0,0,1,113,105Z"/><path class="cls-28" d="M112.87,103.51h0v-3.2h-.43l-.13-.08a3,3,0,0,0-2.67,0l-.13.09h-.41v3.2h0a1,1,0,0,0,.56.77,3,3,0,0,0,2.67,0A.93.93,0,0,0,112.87,103.51Z"/><path class="cls-29" d="M112.32,101.09a3,3,0,0,1-2.67,0,.81.81,0,0,1,0-1.54,3,3,0,0,1,2.67,0A.81.81,0,0,1,112.32,101.09Z"/><path class="cls-3" d="M112.57,100.07h0V95.36h-.36l-.11-.07a2.49,2.49,0,0,0-2.25,0l-.11.07h-.35v4.71h0a.8.8,0,0,0,.47.65,2.49,2.49,0,0,0,2.25,0A.78.78,0,0,0,112.57,100.07Z"/><path class="cls-5" d="M112.11,96a2.49,2.49,0,0,1-2.25,0,.69.69,0,0,1,0-1.3,2.49,2.49,0,0,1,2.25,0A.69.69,0,0,1,112.11,96Z"/><path class="cls-33" d="M90.67,94.69l12.27,6.89,3,1.71s.67.63,2.95.35a57.33,57.33,0,0,0,8.32-2.51,24.76,24.76,0,0,0,2.5-1c.5-.28,4.77-2.46,5.06-2.7h0a1.9,1.9,0,0,0,.49-.62,2.56,2.56,0,0,0,.23-.74,15.31,15.31,0,0,0,0-3.11,1.32,1.32,0,0,0-.75-1.07l-.26-.15h0l-14.16-8.12a3.28,3.28,0,0,0-1.14-.37,4.84,4.84,0,0,0-1-.05l-.37,0a4.81,4.81,0,0,0-1.85.58l-13.8,7.7a1,1,0,0,0-.58.8h0a1.32,1.32,0,0,1-.47.7Z"/><path class="cls-30" d="M116.3,96.95a78.17,78.17,0,0,1-8,2.46l2.38,1.18a63.08,63.08,0,0,0,6.57.53,24.76,24.76,0,0,0,2.5-1c.5-.28,4.77-2.46,5.06-2.7h0a1.9,1.9,0,0,0,.49-.62,2.56,2.56,0,0,0,.23-.74,15.31,15.31,0,0,0,0-3.11,1.32,1.32,0,0,0-.75-1.07l-.26-.15h0l-14.16-8.12a3.28,3.28,0,0,0-1.14-.37,4.84,4.84,0,0,0-1-.05,7.62,7.62,0,0,1,2.7,1.06c2.27,1.35,13.23,7.51,13.68,7.91s.43.71-.2,1.09A59.36,59.36,0,0,1,116.3,96.95Z"/><path class="cls-34" d="M102.94,101.58l3,1.7s.67.63,3,.35a63.56,63.56,0,0,0,10.81-3.53c.5-.27,4.77-2.46,5.06-2.7h0a1.9,1.9,0,0,0,.49-.61,2.59,2.59,0,0,0,.23-.74,15.24,15.24,0,0,0,0-3.11c-.11.92-13.91,6.4-16.13,6.63s-4.18-3-4.18-3A7.91,7.91,0,0,0,102.94,101.58Z"/><path class="cls-3" d="M93.65,91.54c0-.28.78-6.94.84-8.31.22-.74,4.79-3,8.89-4.62l-.34-.84c-3.51,1.4-9.4,4-9.46,5.42s-.82,8.18-.83,8.24Z"/><path class="cls-34" d="M103.91,76l-1.26.39a1.86,1.86,0,0,0-1.09.17l-1.23.56c-3.64,1.16-8.74,2.85-8.79,3.24a4.44,4.44,0,0,0,0,1.13v.05h0A.86.86,0,0,0,92,82a2.13,2.13,0,0,0,1.91.08l9.7-4.41a.65.65,0,0,0,.29-.31.41.41,0,0,0,0-.1A2,2,0,0,0,103.91,76Z"/><path class="cls-29" d="M91.87,79.81l9.7-4.41a2.13,2.13,0,0,1,1.91.08h0c.56.33.63.82.14,1.1L93.91,81A2.13,2.13,0,0,1,92,80.92C91.44,80.59,91.38,80.09,91.87,79.81Z"/><path class="cls-55" d="M124.72,80.54s-6.35,3.13-9.21,3.8-4.07-5.49.31-7.63S122,74.44,123,74.49s2.45,2,2.29,3.77A5.65,5.65,0,0,1,124.72,80.54Z"/><path class="cls-55" d="M102.53,85.09s.23,4.1,1.37,5a8.68,8.68,0,0,0,5.65,2.32c2.86.08,2.73-3.64,1.06-5.44S102.53,85.09,102.53,85.09Z"/><path class="cls-54" d="M127.1,102.33a2.64,2.64,0,0,0-.58.91,13.57,13.57,0,0,0-.64,3.09c0,.35.56,1.1,2.28,1s2.13-1,3.27-1.24,3.93-1.08,4.39-2.38-.93-2-.93-2l-1.45-.27-2.13-.14C130.89,101.32,127.1,102.33,127.1,102.33Z"/><path class="cls-54" d="M126.36,105.48s-.91.25-1,.68-.14,1.66-.14,1.66,1.33,1.35,2.63,1a6.31,6.31,0,0,0,2.57-1.33,2.11,2.11,0,0,0,.24-.54,1.65,1.65,0,0,1,1.18-.46,6.64,6.64,0,0,0,2.75-.85,2.8,2.8,0,0,0,1.29-2c.12-.87-.12-1-.12-1l-.71-.37Z"/><path class="cls-55" d="M134,81.59a3,3,0,0,0-2.11-2.3c-.77-.21-1.64-.54-4.51.48s-8.76,2.05-10.15,2.48-10.87,5.27-10.82,6.4.9,3.53,2.24,4.38,7.25,2.37,11.09.64,14-8.79,14.34-9.57A5.26,5.26,0,0,0,134,81.59Z"/><path class="cls-55" d="M129.38,84.88a5.49,5.49,0,0,0-1.81,4.07c-.23,2.95-.85,13.08-.85,13.55s2,.9,3.64.44a3.26,3.26,0,0,0,2.11-1.57s1.87-17.06,1.71-18.29S129.38,84.88,129.38,84.88Z"/><path class="cls-56" d="M131.83,101.87l-.25,0c0-.12.13-1.21.32-2.88.5-4.43,1.43-12.67,1.43-13.29,0-.19,0-.36,0-.51,0-.47,0-.69-.32-1-.86.08-2.72,1.28-4.69,2.54a29.12,29.12,0,0,1-5.73,3.18,6.75,6.75,0,0,1-5.69-1.13l.16-.2a6.49,6.49,0,0,0,5.45,1.09,29,29,0,0,0,5.67-3.15c2.12-1.37,4-2.54,4.86-2.59h0l0,0a1.22,1.22,0,0,1,.45,1.25c0,.14,0,.3,0,.49,0,.63-.93,8.88-1.43,13.32C132,100.6,131.84,101.75,131.83,101.87Z"/><path class="cls-60" d="M119.61,83.82s0,.08,0,.21a6.22,6.22,0,0,1-.51,2.55,9.9,9.9,0,0,1-4.39,4.15,8.73,8.73,0,0,1-8.18,0c-2.32-1.24-3.25-2.36-3.53-3.16s-.64-1.64-.44-2.14,0,1.79,3.82,3.52a8.78,8.78,0,0,0,7.56.1,10.9,10.9,0,0,0,3.78-3.82C118.8,83.2,119.61,83.82,119.61,83.82Z"/><path class="cls-61" d="M183.88,62.62v1.69h0c-.05,4.4-2.3,8.8-6.78,12.61a32.66,32.66,0,0,1-4.81,3.37,46.77,46.77,0,0,1-11.12,4.53c-14.58,4-32.46,2.5-44.46-4.42C109,76,105.22,70.14,105.29,64.31h0V62.62h8.92c.83-.6,1.73-1.16,2.68-1.72,15.4-8.88,40.28-8.93,55.57-.1,1,.59,1.94,1.2,2.81,1.82Z"/><path class="cls-62" d="M105.28,63.8h0V62.11h8.91q1.25-.88,2.68-1.71c15.39-8.89,40.28-8.93,55.57-.1,1,.58,1.93,1.19,2.81,1.81h8.62V63.8h0c-.06,5.78-3.92,11.57-11.59,16-15.39,8.89-40.28,8.93-55.57.1C109,75.46,105.22,69.63,105.28,63.8Z"/><path class="cls-63" d="M183.37,65.57a4.27,4.27,0,0,1-.16.55c-1.13,3.56-3.76,7-7.87,10a34.67,34.67,0,0,1-3.07,2,47.58,47.58,0,0,1-12.84,5c-14.25,3.41-31.21,1.79-42.75-4.86-15.29-8.83-15.22-23.19.18-32.08s40.28-8.93,55.57-.1C181.65,51.33,185.29,58.65,183.37,65.57Z"/><path class="cls-64" d="M116.85,77.78c15.14,8.74,39.76,8.7,55-.1s15.31-23,.17-31.75-39.76-8.7-55,.1S101.71,69,116.85,77.78Z"/><polygon class="cls-65" points="151.51 59.95 139.76 53.16 155.97 43.8 167.73 50.59 151.51 59.95"/><polygon class="cls-65" points="124.64 61.82 122.34 52.34 145.12 50.58 147.43 60.06 124.64 61.82"/><polygon class="cls-65" points="164.5 68.18 152.94 74.99 136.46 65.66 148.02 58.85 164.5 68.18"/><path class="cls-17" d="M123.38,26a35.25,35.25,0,0,1,2.76,7.37c.47,1.9,1.84,7.51,1.84,7.51a18.48,18.48,0,0,0-2.7,1.11c-2-3.86-6.14-12.34-6.28-14.34S122.76,25.07,123.38,26Z"/><path class="cls-18" d="M125.25,41.61a6.48,6.48,0,0,1,.17,1.13,2,2,0,0,0,.3,1.1c.21.21,1,.78,1.09.88s.25.43.41.45a.51.51,0,0,0,.23,0,.55.55,0,0,0,.31-.55,1.06,1.06,0,0,0-.23-.53,18.2,18.2,0,0,1,1.65.8,8,8,0,0,0,2.1.81.89.89,0,0,0,.66-.1,5.19,5.19,0,0,0,.6.18.3.3,0,0,0,.3-.14.39.39,0,0,0,.06-.18c0-.19-.29-.56-.29-.56v-.09h0a1.06,1.06,0,0,0-.08-.27c-.05-.08-.53-.32-.7-.44s-1.58-1.4-1.7-1.48-1.62-1-1.89-1.11a1.37,1.37,0,0,1-.59-.79S125.17,41.28,125.25,41.61Z"/><path class="cls-17" d="M104.73,16.69c1.1.5,2.23,1.13,2.46,6.09s.85,11.86-1.53,11.49-2.79-1.4-3.4-3.2-.62-10-.31-12.07S103.33,16.05,104.73,16.69Z"/><path class="cls-18" d="M111.24,45.22c.18.45.38,1.23.74,1.44a19.88,19.88,0,0,1,2.11.92,6.07,6.07,0,0,0,1.23,1.06l1.22.56s.55-.09.64,0,.16.46.1.51a1.15,1.15,0,0,1,.38.58c0,.13-.16.28-.16.28s0,.12-.12.29-.62.1-.74,0a.39.39,0,0,1-.53.3,8.41,8.41,0,0,1-1.16-.47,2.13,2.13,0,0,1-.77.25,5.88,5.88,0,0,1-2-.35c-.37-.19-1.36-.69-1.83-1a3,3,0,0,1-1.19-1.35c-.17-.49,0-.35-.33-.85a11.26,11.26,0,0,1-.82-1.9C107.9,45.3,111.24,45.22,111.24,45.22Z"/><path class="cls-66" d="M111.46,8.36a24.18,24.18,0,0,1-1.33,3.73,3,3,0,0,0,1,2.85,4,4,0,0,0,2.8,1.39c.56-.08.73-.48.93-.73s.63-1.56.94-2.18-2.79-5.48-4-6.7C111.41,6.37,111.46,8.36,111.46,8.36Z"/><path class="cls-67" d="M116.06,14.13a7.69,7.69,0,0,1-.53,3.42,4.2,4.2,0,0,1-1.12-1.28l-.23-.26a11.66,11.66,0,0,0,1.18-1.2,3.46,3.46,0,0,0,.46-.76H116Z"/><path class="cls-18" d="M120.24,5.62a5.28,5.28,0,0,1,.17,2.24,3.75,3.75,0,0,1-.62,2,7.7,7.7,0,0,1-1.35,2.87c-.6.62-.58.73-.62.83a.76.76,0,0,1-.13.2s-.56,1-1.1,1.16-2.73-.92-4.09-2.21c-1.1-1,0-3.53-.42-5.42s4.7-3.5,5.65-3.09A25.32,25.32,0,0,1,120.24,5.62Z"/><path class="cls-68" d="M118.82,9.73c-.5,1.26.06,2.58,0,3s-1.27.15-1.55.08Z"/><path class="cls-69" d="M118.3,13.08a4.64,4.64,0,0,1-1.06-.16l0-.16a2.51,2.51,0,0,0,1.38.09.13.13,0,0,0,.06-.1,2.5,2.5,0,0,0-.07-.6,4.44,4.44,0,0,1,.07-2.44l.16.06a4.3,4.3,0,0,0-.06,2.35,2.48,2.48,0,0,1,.07.65.3.3,0,0,1-.14.21A.88.88,0,0,1,118.3,13.08Z"/><path class="cls-13" d="M120.32,8.9a.58.58,0,0,1-.21.34,2.53,2.53,0,0,1-.28.23,5.53,5.53,0,0,1-.61.36l-.12-.26a5.31,5.31,0,0,0,.62-.29,2.36,2.36,0,0,0,.28-.18.51.51,0,0,0,.19-.21Z"/><path class="cls-13" d="M118,10a1.51,1.51,0,0,1-.38-.11l-.32-.13a4.88,4.88,0,0,0-.63-.22c-.19,0-.46,0-.68-.08a5.31,5.31,0,0,0-.66-.07l0-.14a4.3,4.3,0,0,1,.72,0c.24,0,.43,0,.7,0a5,5,0,0,1,.68.19,4.72,4.72,0,0,0,.61.18Z"/><path class="cls-67" d="M110.71,10.44c-.13.18-1,.39-.65,1.24a9,9,0,0,0,2.64,3.51c1.31.93,1.48.83,1.48.83a1.15,1.15,0,0,1-.17.88,5.84,5.84,0,0,1-.89,1.33,15.29,15.29,0,0,1-3.21-3.15c-1.24-1.58-1.37-2.21-1.37-2.54a5.26,5.26,0,0,1,1-2,1.38,1.38,0,0,1,1-.46Z"/><path class="cls-67" d="M114.72,34.29h-.25a7.94,7.94,0,0,1,.44-1.71A14,14,0,0,0,115.8,26c-.24-1.41-.55-3-.85-4.52a43.32,43.32,0,0,1-.9-5.4h.25a44.41,44.41,0,0,0,.89,5.35c.3,1.53.62,3.12.85,4.53a14.21,14.21,0,0,1-.9,6.65A7.85,7.85,0,0,0,114.72,34.29Z"/><path class="cls-24" d="M113.65,47.69a12.13,12.13,0,0,1,1.45,1c.12.09,1.54.72,1.54.72l.54.15.28-.07s-.08.39-.19.34a3.75,3.75,0,0,1-.33-.19l-.67-.32L115,48.68S113.31,47.57,113.65,47.69Z"/><path class="cls-24" d="M114,48.55a14.16,14.16,0,0,1,1.66.94l1.48.72a.71.71,0,0,1,.34.35.87.87,0,0,0,.16.3,3.05,3.05,0,0,1-.36-.47c0-.12-.62-.36-.77-.43s-.75-.33-.93-.44-1.08-.7-1.18-.73A2.42,2.42,0,0,1,114,48.55Z"/><path class="cls-24" d="M113.4,49c.45.18,1.45.71,1.64.82a11,11,0,0,0,1.25.53,1.3,1.3,0,0,1,.5.35l.29.36-.06.44s-.4-.32-.39-.44a.46.46,0,0,0-.06-.38.67.67,0,0,0-.51-.32,11,11,0,0,1-1.46-.68Z"/><path class="cls-24" d="M112,49.26a10.9,10.9,0,0,0,1.25.69,3.45,3.45,0,0,0,1,.37c.24,0,.4,0,.48.18s.08.24-.07.36-.08.09-.08.09l0,.44s.51-.36.43-.5a2.14,2.14,0,0,1-.15-.45c0-.15-.38-.25-.65-.26a5.69,5.69,0,0,1-1.32-.56C112.73,49.56,112,49.26,112,49.26Z"/><path class="cls-24" d="M131.77,44.38a6,6,0,0,0,.83.5v-.09h0c-.24-.11-.63-.34-.72-.4s-1.31-1-1.6-1.2Z"/><path class="cls-24" d="M126.65,43.37s.56.51.69.6a.78.78,0,0,1,.29.52.67.67,0,0,1-.18.67.55.55,0,0,0,.31-.55,1.06,1.06,0,0,0-.23-.53,18.2,18.2,0,0,1,1.65.8,8,8,0,0,0,2.1.81.89.89,0,0,0,.66-.1,5.19,5.19,0,0,0,.6.18.3.3,0,0,0,.3-.14,1.15,1.15,0,0,1-.29,0c-.12,0-.45-.12-.49-.25a.67.67,0,0,0-.19-.26l-2.18-1.62,2,1.52.23.23a.94.94,0,0,1-.15.29c-.08.08-.3,0-.39-.12a1.86,1.86,0,0,1-.18-.36s-.53-.36-.64-.46-1.38-.91-1.62-1.06l1.81,1.29c.11.08.38.38.35.41s-.08.19-.33.11a7.22,7.22,0,0,1-1-.34c-.18-.11-1-.48-1.21-.62L127,43.52Z"/><path class="cls-13" d="M117.43,6.42c.33-.41,1.52.25,2,.19s.76-.31.8-.26.1.11.15.4a3,3,0,0,1,.05.35,2.05,2.05,0,0,0,.06-1.49c-.24-1-2.47-5.57-5.78-4.44-2.2.05-3.13,1-3.47,1.67a21.47,21.47,0,0,0-1.14,3.51,4.42,4.42,0,0,0,.18,2.93,2.44,2.44,0,0,1,.28,1.43l0,.48a20.11,20.11,0,0,0,.87-2.08c0-.27-.56-1.3-.26-1.54s.84.18.84.18a2.64,2.64,0,0,1,.42,1.07c0,.47-.08,1.29-.08,1.44s.19-.57.29-.79a1.52,1.52,0,0,1,1-1C114.26,8.24,116.8,7.21,117.43,6.42Z"/><path class="cls-13" d="M110.19,6.77a1,1,0,0,0-.23.54,18.63,18.63,0,0,1-1.66,5.45c-.3.63.43,1.22,1.5.67a3.31,3.31,0,0,0,2.07-3C112.06,8.48,111.31,7,110.19,6.77Z"/><path class="cls-17" d="M107.43,28.95c.38,1.9,3.94,16.24,4,16.41a3.55,3.55,0,0,1-3.67.76c-.58-.29-5.4-13.93-5.6-15.49S107.43,28.95,107.43,28.95Z"/><path class="cls-70" d="M112,8.33a1.18,1.18,0,0,0-1.18-1.18c-.72,0-.7,1.2-.48,1.71a3.09,3.09,0,0,0,1,1.2.37.37,0,0,0,.55-.17c.08-.19,0-.6,0-.78S112,8.53,112,8.33Z"/><path class="cls-71" d="M111.76,8.11c0-.22-.57-.8-1-.62s-.46.7-.38,1.07.48.55.71.79.49.17.42-.13a.9.9,0,0,1,.08-.61C111.63,8.53,111.82,8.54,111.76,8.11Z"/><path class="cls-34" d="M185.61,98.86a.57.57,0,0,1,.57-.06h0l.73.34L186,101.5l-.8-.36h0a.77.77,0,0,1-.36-.65A1.83,1.83,0,0,1,185.61,98.86Z"/><path class="cls-33" d="M186.34,99.2c.46-.28.88,0,.94.59a1.83,1.83,0,0,1-.72,1.62c-.46.28-.88,0-.94-.59A1.83,1.83,0,0,1,186.34,99.2Z"/><path class="cls-34" d="M163.61,112.56a2.09,2.09,0,0,1,1-1.64.67.67,0,0,1,.68-.07h0l.86.55-1.4,2.28-.81-.52h0A.66.66,0,0,1,163.61,112.56Z"/><path class="cls-33" d="M164.45,113.09c0,.6.43.84.95.54a2.09,2.09,0,0,0,1-1.64c0-.6-.43-.84-1-.54A2.09,2.09,0,0,0,164.45,113.09Z"/><path class="cls-34" d="M192.13,109.32a1.09,1.09,0,0,1,2.19-.07h0v.67h-.18a1.1,1.1,0,0,1-1.83,0h-.18Z"/><circle class="cls-57" cx="193.23" cy="109.93" r="1.1"/><path class="cls-33" d="M166.81,99.79h0a.67.67,0,0,1,.67.07,2.09,2.09,0,0,1,1,1.64.67.67,0,0,1-.25.59h0l-.77.54-1.34-2.32Z"/><path class="cls-34" d="M165.78,100.93a2.09,2.09,0,0,0,1,1.64c.52.3.95.06.95-.54a2.09,2.09,0,0,0-.95-1.64C166.2,100.08,165.78,100.32,165.78,100.93Z"/><path class="cls-58" d="M181.75,115.24h0s.07,0,.11.15a6.79,6.79,0,0,1,.2,1.69c0,.42,0,.65-.11.64h0l-1.23.14-.21-2.49Z"/><path class="cls-34" d="M180.61,115.53a6.79,6.79,0,0,1,.2,1.69c0,.6-.09.82-.2.49a6.79,6.79,0,0,1-.2-1.69C180.41,115.41,180.5,115.19,180.61,115.53Z"/><path class="cls-59" d="M175.94,104.51a4.55,4.55,0,0,0,4.12,0,1.25,1.25,0,0,0,0-2.38,4.55,4.55,0,0,0-4.12,0A1.25,1.25,0,0,0,175.94,104.51Z"/><path class="cls-5" d="M179.08,102.4l1.9,6.26,0,.11v0l.66,6.36a.44.44,0,0,1-.37.48h0a.44.44,0,0,1-.5-.34l-1.35-6.25,0,.15-2.57-6Z"/><path class="cls-5" d="M178.14,101.69l10.55,2,.14,0,.08.07,4.6,4a.67.67,0,0,1,.07.95h0a.17.17,0,0,1-.24,0l-5-4.28.22.1-10.72-.59Z"/><path class="cls-59" d="M193.47,108.71h0a.18.18,0,0,1-.11,0l-4.87-4.18-8.91-.49-.48-1.59-1.08.39h0l.59-1,2.28.43a11,11,0,0,0-1,1.34l8.61.61,4.73,4.08A1.94,1.94,0,0,0,193.47,108.71Z"/><polygon class="cls-3" points="177.32 102.04 183.57 97.17 183.79 96.99 184.02 97.09 186.83 98.31 186.5 99.08 183.69 97.86 184.14 97.79 178.69 103.54 177.32 102.04"/><path class="cls-5" d="M177.28,104l-7.15-5.32.38,0-3.38,1.51a.33.33,0,0,1-.44-.17h0a.51.51,0,0,1,.26-.67L170.17,98l.17-.07.22.09,8.18,3.54Z"/><path class="cls-59" d="M166.69,100.08a.5.5,0,0,1,0-.21.51.51,0,0,1,.07-.25c.1.21.29.38.4.38s3-1.47,3-1.47l.28.2,0,0,5.1,3.64-.2.22h0l-5.08-3.78-3.16,1.41A.34.34,0,0,1,166.69,100.08Z"/><path class="cls-5" d="M178.44,104l-9.5,2.58.18-.13-4.25,5.18a.28.28,0,0,1-.4,0h0a.56.56,0,0,1-.08-.79l4.07-5,.06-.07.12-.06,8.91-4.18Z"/><path class="cls-59" d="M180.92,115.43l0,.11a.43.43,0,0,1-.13-.23l-1.32-6.13-2.09-4.9L169,106.54l-4.17,5.08a.28.28,0,0,1-.4,0,.55.55,0,0,1-.2-.37c.26.55.58.16.58.16l4.12-5.11,7.95-2.38c.14,0,.29.08.4.16s.11.09.14.09l0,0c.28.46,2,4.12,2.22,4.58S180.92,115.43,180.92,115.43Z"/><path class="cls-5" d="M175.94,103.46a4.55,4.55,0,0,0,4.12,0,1.25,1.25,0,0,0,0-2.38,4.55,4.55,0,0,0-4.12,0A1.25,1.25,0,0,0,175.94,103.46Z"/><path class="cls-28" d="M176.12,102h0v-3.2h.43l.13-.08a3,3,0,0,1,2.67,0l.13.09h.41V102h0a1,1,0,0,1-.56.77,3,3,0,0,1-2.67,0A.93.93,0,0,1,176.12,102Z"/><path class="cls-29" d="M176.67,99.59a3,3,0,0,0,2.67,0,.81.81,0,0,0,0-1.54,3,3,0,0,0-2.67,0A.81.81,0,0,0,176.67,99.59Z"/><path class="cls-3" d="M176.41,98.56h0V93.86h.36l.11-.07a2.49,2.49,0,0,1,2.25,0l.11.07h.35v4.71h0a.8.8,0,0,1-.47.65,2.49,2.49,0,0,1-2.25,0A.78.78,0,0,1,176.41,98.56Z"/><path class="cls-5" d="M176.88,94.51a2.49,2.49,0,0,0,2.25,0,.69.69,0,0,0,0-1.3,2.49,2.49,0,0,0-2.25,0A.69.69,0,0,0,176.88,94.51Z"/><path class="cls-33" d="M198.32,93.19l-12.27,6.89-3,1.71s-.67.63-2.95.35a57.33,57.33,0,0,1-8.32-2.51,24.71,24.71,0,0,1-2.5-1c-.5-.28-4.77-2.46-5.06-2.7h0a1.9,1.9,0,0,1-.49-.62,2.56,2.56,0,0,1-.23-.74,15.31,15.31,0,0,1,0-3.11,1.32,1.32,0,0,1,.75-1.07l.26-.15h0l14.16-8.13a3.27,3.27,0,0,1,1.14-.37,4.84,4.84,0,0,1,1-.05l.37,0a4.81,4.81,0,0,1,1.85.58l13.8,7.7a1,1,0,0,1,.58.8h0a1.32,1.32,0,0,0,.47.7Z"/><path class="cls-30" d="M172.69,95.44a78.17,78.17,0,0,0,8,2.46l-2.38,1.18a63.08,63.08,0,0,1-6.57.53,24.71,24.71,0,0,1-2.5-1c-.5-.28-4.77-2.46-5.06-2.7h0a1.9,1.9,0,0,1-.49-.62,2.56,2.56,0,0,1-.23-.74,15.31,15.31,0,0,1,0-3.11,1.32,1.32,0,0,1,.75-1.07l.26-.15h0l14.16-8.13a3.27,3.27,0,0,1,1.14-.37,4.84,4.84,0,0,1,1-.05,7.62,7.62,0,0,0-2.7,1.06c-2.27,1.35-13.23,7.51-13.68,7.91s-.43.71.2,1.09A59.35,59.35,0,0,0,172.69,95.44Z"/><path class="cls-34" d="M186.05,100.08l-3,1.7s-.67.63-3,.35a63.56,63.56,0,0,1-10.81-3.53c-.5-.27-4.77-2.46-5.06-2.7h0a1.9,1.9,0,0,1-.49-.61,2.59,2.59,0,0,1-.23-.74,15.24,15.24,0,0,1,0-3.11c.11.92,13.91,6.4,16.13,6.63s4.18-3,4.18-3A7.91,7.91,0,0,1,186.05,100.08Z"/><path class="cls-3" d="M195.33,90c0-.28-.78-6.94-.84-8.31-.22-.74-4.79-3-8.89-4.62l.34-.84c3.51,1.4,9.4,4,9.46,5.42s.82,8.18.83,8.24Z"/><path class="cls-34" d="M185.07,74.46l1.26.39a1.86,1.86,0,0,1,1.09.17l1.23.56c3.64,1.16,8.74,2.85,8.79,3.24a4.44,4.44,0,0,1,0,1.13V80h0a.86.86,0,0,1-.45.53,2.13,2.13,0,0,1-1.91.08l-9.7-4.41a.65.65,0,0,1-.29-.31.4.4,0,0,1,0-.1A2,2,0,0,1,185.07,74.46Z"/><path class="cls-29" d="M197.12,78.31l-9.7-4.41a2.13,2.13,0,0,0-1.91.08h0c-.56.33-.63.82-.14,1.1l9.7,4.41a2.13,2.13,0,0,0,1.91-.08C197.55,79.09,197.61,78.59,197.12,78.31Z"/><path class="cls-34" d="M203.11,70.39l-5.86,14.49s2.19,6.6,1.64,7.66c-.45.87-11.48,6.91-14.47,8.52a2.66,2.66,0,0,1-1,.55h0a1.14,1.14,0,0,1-.68,0,.84.84,0,0,1-.19-.09,6.69,6.69,0,0,1-2.76-3,.7.7,0,0,1-.14-.39l0-5.4c0-2.28,4.95-14.44,4.95-14.44L184.36,73a3.91,3.91,0,0,1,.57-2.22,2.51,2.51,0,0,1,.85-.89l13.51-7.56a.93.93,0,0,1,.22-.09l.14-.06a1.88,1.88,0,0,1,.53-.07c1.54,0,3.46,1.58,3.46,1.58a3.76,3.76,0,0,1,1.23,2.12l0,.19Z"/><path class="cls-33" d="M204.91,66l-1.8,4.44c-4.45,3.61-12,6.15-13,4.27-1.11-2-3.43-3.26-5.18-3.93a2.51,2.51,0,0,1,.85-.89l13.51-7.56a.93.93,0,0,1,.22-.09l.14-.06a1.88,1.88,0,0,1,.53-.07c1.54,0,3.46,1.58,3.46,1.58a3.76,3.76,0,0,1,1.23,2.12Z"/><path class="cls-29" d="M204,64.32s.36.11.61.87a1.36,1.36,0,0,0-.87,0c-.21.06-13.29,7.17-13.29,7.17a6.62,6.62,0,0,0-1,.91c-.5-.31,0-.85,0-.85A2.55,2.55,0,0,1,190,72Z"/><path class="cls-72" d="M204.91,66,199.67,86.5s-.23,5-.78,6c-.45.87-11.48,6.91-14.47,8.52a2.71,2.71,0,0,1-1,.55h0a1.16,1.16,0,0,1-.68,0,32.86,32.86,0,0,1,0-6.53c.2-2,2.92-10,4.53-14.21s1.16-6,2.07-7.14,11.43-6.5,13.5-7.73c1.52-.9,1.94-.47,2.06-.19A.64.64,0,0,1,204.91,66Z"/><path class="cls-3" d="M178.17,98.84a.47.47,0,0,1-.25-.38c0-.19,0-.38-.06-.57l-.16-1.48c-.2-1.85-.46-3.72-.54-5.58-.07-.25-.39-.44-.58-.58a22.64,22.64,0,0,0-3.44-1.9q-1.18-.57-2.38-1.09l-1.25-.54c-.36-.15-.82-.23-.94-.66a1.21,1.21,0,0,1,0-.4c0-.08,0-.23.11-.26s.18.06.23.08l.48.2c1.28.53,2.56,1.07,3.81,1.67a26.68,26.68,0,0,1,3.39,1.84,6.33,6.33,0,0,1,1.08.86,1.26,1.26,0,0,1,.42.75c0,1,.17,2,.27,3s.21,2.05.33,3.08l.14,1.24c0,.22.15.51,0,.7A.48.48,0,0,1,178.17,98.84Z"/><path class="cls-34" d="M167.74,83.55l1.26.39a1.86,1.86,0,0,1,1.09.17l1.23.56c3.64,1.16,8.74,2.85,8.79,3.24a4.44,4.44,0,0,1,0,1.13v.05h0a.86.86,0,0,1-.45.53,2.13,2.13,0,0,1-1.91.08L168,85.29a.65.65,0,0,1-.29-.31.41.41,0,0,1,0-.1A2,2,0,0,1,167.74,83.55Z"/><path class="cls-33" d="M179.78,87.4,170.09,83a2.13,2.13,0,0,0-1.91.08h0c-.56.33-.63.82-.14,1.1l9.7,4.41a2.13,2.13,0,0,0,1.91-.08C180.21,88.18,180.27,87.68,179.78,87.4Z"/><path class="cls-9" d="M123.2,58.32s.34.85.52,1.47a7.11,7.11,0,0,1,.37,1.45c0,.23-7.78.43-7.74-.95s1.18-1.86,2.28-2S123.2,58.32,123.2,58.32Z"/><path class="cls-18" d="M122.79,58.57h1.06c.5,0,3.54.12,3.54.12l3.64.83s.35,0,.38.15l0,.11s.66,0,.68.15.06.31-.12.42a.53.53,0,0,1-.34.08,1,1,0,0,1-.52.24c-.25,0-2.67-.52-2.94-.58s-1.57,0-1.31.09a3.51,3.51,0,0,0,.66.16,5,5,0,0,1,1.22.12c.34.15.23.57-.11.73a3.17,3.17,0,0,1-1.3.17c-.46,0-.92-.14-1.22-.13a3,3,0,0,1-1.4-.28c-.43-.24-.46-.51-1.07-.56s-2.05,0-1.75-.55S122.79,58.57,122.79,58.57Z"/><path class="cls-15" d="M124,64.45c.62-2.37,1.18-3.07.75-3.51s-5.26-3-5.65-3.58a5.3,5.3,0,0,0-2.06-1.68,17.79,17.79,0,0,0-4.44-1.24c-.49,0-1.39.17-2,.17H108a3.13,3.13,0,0,0-2.55,3c-.18,2.09.13,5.67,0,7.76a49.24,49.24,0,0,1-1.16,8.82,27.57,27.57,0,0,0-1.81,8c-.08,3.12.36,4.15,1,5.24S109.16,91,113,89.19s5.73-3.69,6.32-4.85.44-3.15.44-4.82,2-6.78,2.81-9.31S124,64.45,124,64.45Z"/><path class="cls-9" d="M122.65,61.86a6,6,0,0,0-1.21,4.21,3.58,3.58,0,0,0,2.36,3.42c1.84.68,7.93,3.24,11,3.14s2-4.54.72-5.11-9.26-5.46-10.14-6.27S123.3,61,122.65,61.86Z"/><path class="cls-18" d="M135.43,65a5.22,5.22,0,0,1-1-1c-.15-.32-.53-1-.53-1a7.31,7.31,0,0,0-.39-1.25c-.26-.61.15-.93.46-.88s.68.68.72.92a1.09,1.09,0,0,0,.3.48l0-.27s-.15-.09-.15-.54.26-.43.3-.43,1,.32,1,.32a3.61,3.61,0,0,1,.65.05,9.71,9.71,0,0,1,1,.67,3.22,3.22,0,0,1,1,.59,2.17,2.17,0,0,1,.3,1.37,4.41,4.41,0,0,0-.22.94C138.87,65.29,135.43,65,135.43,65Z"/><path class="cls-9" d="M137.84,63.65a1.66,1.66,0,0,0-2.42.67,32.71,32.71,0,0,1-2.58,3.56c-.54.8,1.91,5.31,3.21,4.31a6.84,6.84,0,0,0,2.67-3.66A15.09,15.09,0,0,0,139.2,65,3.42,3.42,0,0,0,137.84,63.65Z"/><path class="cls-18" d="M112.67,54.09a4.23,4.23,0,0,0,0-3.12c-.62-2,1.39-6.91,4.75-7.2s5.49-.46,5.47,1.47a8.48,8.48,0,0,1-.3,3.09,2.63,2.63,0,0,0-.44,1.34,9.3,9.3,0,0,1-.75,2.91,7.48,7.48,0,0,1-1,1.69c-.18.24-1.24.05-1.35.17a6.08,6.08,0,0,0-.3,1.44c-.05.39-1.65-.46-2.63-.8S112.67,54.09,112.67,54.09Z"/><path class="cls-18" d="M120.14,51.27c-.11.21-.32.34-.41.07a3.29,3.29,0,0,1,.13-1.67c.22-.63.77-.92,1-.85s-.17.78-.29,1.06S120.14,51.27,120.14,51.27Z"/><path class="cls-9" d="M115.52,53.83s-1.63-.6-2.11-.72l-.85-.19s-.83,1.4-.86,1.53a11.07,11.07,0,0,0,2.84.91,11.6,11.6,0,0,1,3.34,1.21c.29.18,1.6,1.11,1.81,1.24s1,.76,1,.76a1.88,1.88,0,0,0,0-1.47A7.38,7.38,0,0,0,118.55,55,19.6,19.6,0,0,0,115.52,53.83Z"/><path class="cls-13" d="M121.15,50.78h-.36s.67-1.91-.1-1.91-1.68,1.39-2,2.19a2.39,2.39,0,0,1-2.33,1.62,7.13,7.13,0,0,1-3.27-.62,5.92,5.92,0,0,1-1.32-3.35c-.18-1.7-.34-6.94,3.56-7,1.26-1.32,3.87-1,5.52-.21a4.08,4.08,0,0,1,2.37,2.37,4.6,4.6,0,0,1,.1,1.29l-.44,1-.26,1.57-.72.75Z"/><path class="cls-34" d="M85.88,71.89l5.86,14.49S89.55,93,90.1,94c.45.87,11.48,6.91,14.47,8.52a2.66,2.66,0,0,0,1,.55h0a1.14,1.14,0,0,0,.68,0,.85.85,0,0,0,.19-.09,6.69,6.69,0,0,0,2.76-3,.7.7,0,0,0,.14-.39l0-5.4c0-2.28-4.95-14.44-4.95-14.44l.21-5.26a3.91,3.91,0,0,0-.57-2.22,2.51,2.51,0,0,0-.85-.89L89.7,63.79a.93.93,0,0,0-.22-.09l-.14-.06a1.88,1.88,0,0,0-.53-.07c-1.54,0-3.46,1.58-3.46,1.58a3.76,3.76,0,0,0-1.23,2.12l0,.19Z"/><path class="cls-33" d="M84.08,67.46l1.8,4.44c4.45,3.61,12,6.15,13,4.27,1.11-2,3.43-3.26,5.18-3.93a2.51,2.51,0,0,0-.85-.89L89.7,63.79a.93.93,0,0,0-.22-.09l-.14-.06a1.88,1.88,0,0,0-.53-.07c-1.54,0-3.46,1.58-3.46,1.58a3.76,3.76,0,0,0-1.23,2.12Z"/><path class="cls-29" d="M85,65.82s-.36.11-.61.87a1.36,1.36,0,0,1,.87,0c.21.06,13.29,7.17,13.29,7.17a6.62,6.62,0,0,1,1,.91c.5-.31,0-.85,0-.85a2.56,2.56,0,0,0-.59-.4Z"/><path class="cls-73" d="M84.08,67.46,89.32,88s.23,5,.78,6c.45.87,11.48,6.91,14.47,8.52a2.71,2.71,0,0,0,1,.55h0a1.16,1.16,0,0,0,.68,0,32.86,32.86,0,0,0,0-6.53c-.2-2-2.92-10-4.53-14.21s-1.16-6-2.07-7.14-11.43-6.5-13.5-7.73c-1.52-.9-1.94-.47-2.06-.19A.65.65,0,0,0,84.08,67.46Z"/><path class="cls-3" d="M110.82,100.34a.47.47,0,0,0,.25-.38c0-.19,0-.38.06-.57l.16-1.48c.2-1.85.46-3.72.54-5.58.07-.25.39-.44.58-.58a22.64,22.64,0,0,1,3.44-1.9q1.18-.57,2.38-1.09l1.25-.54c.36-.15.82-.23.94-.66a1.2,1.2,0,0,0,0-.4c0-.08,0-.23-.11-.26s-.18.06-.23.08l-.48.2c-1.28.53-2.56,1.07-3.81,1.67a26.68,26.68,0,0,0-3.39,1.84,6.33,6.33,0,0,0-1.08.86,1.26,1.26,0,0,0-.42.75c0,1-.17,2-.27,3s-.21,2.06-.33,3.08l-.14,1.24c0,.22-.15.51,0,.7A.48.48,0,0,0,110.82,100.34Z"/><path class="cls-34" d="M121.25,85l-1.26.39a1.86,1.86,0,0,0-1.09.17l-1.23.56c-3.64,1.16-8.74,2.85-8.79,3.24a4.44,4.44,0,0,0,0,1.13v.05h0a.86.86,0,0,0,.45.53,2.13,2.13,0,0,0,1.91.08l9.7-4.41a.65.65,0,0,0,.29-.31.41.41,0,0,0,0-.1A2,2,0,0,0,121.25,85Z"/><path class="cls-33" d="M109.2,88.9l9.7-4.41a2.13,2.13,0,0,1,1.91.08h0c.56.33.63.82.14,1.1l-9.7,4.41a2.13,2.13,0,0,1-1.91-.08C108.78,89.68,108.72,89.18,109.2,88.9Z"/><path class="cls-18" d="M166,135.2c.85,1.21,2.18,1.51,3.31,1.91s1.23,1,2.52,2.34a2.16,2.16,0,0,0,1.42.73,1.69,1.69,0,0,0,1.05-.28,1.29,1.29,0,0,0,.57-.78,2.3,2.3,0,0,0,0-.25c.06-.81-.39-1.53-.61-2.92s.76-5.35,1.49-9.05a16.68,16.68,0,0,0-.62-9.22c-1-3.23-1-3.9-.62-9.21L168.9,112s.16,1.07.39,2.65c.45,3,1.17,7.86,1.64,10.87.72,4.61.34,5.85.26,6.62a2.06,2.06,0,0,1-1,1.66c-.42.1-.53,0-1.75-.41a3.7,3.7,0,0,0-2.27-.1C166,133.39,165.12,134,166,135.2Z"/><path class="cls-18" d="M163.63,113.31c-.44,4.74-.55,5-.34,6s1.64,5,.52,8.83-2.15,6.58-2.13,8.81.57,2.15.65,3.22-.73,1.71-2.63,2-4.12,1.88-7.13,2-3.71-1.1-3.82-1.29,0-.46.3-1A7.25,7.25,0,0,1,151.5,140c.79-.33,3.72-.64,4.82-2.24s1.48-2.79,1.48-6.91-.21-15.44.26-16.62S163.63,113.31,163.63,113.31Z"/><path class="cls-74" d="M166,135.2c.85,1.21,2.18,1.51,3.31,1.91s1.23,1,2.52,2.34a2.16,2.16,0,0,0,1.42.73,4.65,4.65,0,0,0,1.05-.28,1.43,1.43,0,0,0,.51-.33c.28-.31.27-.53.09-.71-.48-.47-2.2-.56-2.79-.87-.81-.43-2.24-1.33-2.49-2.21s.58-1.18,1.13-1.73a6.09,6.09,0,0,0,.94-3.49c0-1.12-1-8.55-1.19-10.11s-.38-1.92.4-6.79l-1.58,1c.45,3,1.17,7.86,1.64,10.87.72,4.61.34,5.85.26,6.62a2.06,2.06,0,0,1-1,1.66c-.42.1-.53,0-1.75-.41a3.7,3.7,0,0,0-2.27-.1C166,133.39,165.12,134,166,135.2Z"/><path class="cls-12" d="M152.44,139.68c-.43.39-.94,1.56.56,1.78a22.45,22.45,0,0,0,3.65.27,10.27,10.27,0,0,0,4.83-1.19,1.49,1.49,0,0,0,.41-1.8,1.78,1.78,0,0,1,.42.86,3.89,3.89,0,0,1-.33,2.6c-.42.53-2.79.35-4.56.87s-3,1.38-5.85,1.14-3.07-1.51-3.06-1.72.1-.59.87-1.3A10.76,10.76,0,0,1,152.44,139.68Z"/><path class="cls-12" d="M169.22,133.3c-.72-.32-3.09-.6-3.59.19s-.18,1.5.74,2.38a5.56,5.56,0,0,0,2.29,1.19,7,7,0,0,1,2.23,1.65c.54.67,1.09,1.65,2.62,1.45S175,139,175,138.59a5.29,5.29,0,0,0-.47-1.41s0,.91-1.55.86-1.94-.2-2.78-1a15.35,15.35,0,0,1-2.49-2.74C167.46,133.68,167.28,133.28,169.22,133.3Z"/><path class="cls-12" d="M174.77,86.13c1.25,4.17,2.33,8.35,2.06,11.64s-2.19,13.87-1.68,17.85c-1.92,2.79-11.53,3.51-12.4,3.59s-6.39-.3-6.45-2.13.88-9.68,2-16.7,2.61-10.14,2.74-12.27S174.77,86.13,174.77,86.13Z"/><path class="cls-36" d="M159.07,118.81h-.25c0-.11.14-11.25,1.33-16.06a60.73,60.73,0,0,0,1.14-6.6,28.38,28.38,0,0,1,1.12-5.73l.23.09a28.19,28.19,0,0,0-1.11,5.68,60.86,60.86,0,0,1-1.15,6.62C159.21,107.59,159.07,118.7,159.07,118.81Z"/><path class="cls-15" d="M161.06,87.58a4.22,4.22,0,0,0,.23.85c.53,1.27,4.42,1.72,7.25,1.11s6.13-3,6.22-3.42a20.87,20.87,0,0,1,1.48-5.31,30.92,30.92,0,0,0,1.82-10.36c-.16-1.77-1.39-3.46-2.44-3.66a12.43,12.43,0,0,0-3.5,0c-.55.12-2.38.81-3.57,1.22a10.18,10.18,0,0,0-2.73,1.55c-.66.47-4.54,2.86-5,3.11s0,.57-.3,1.67l.18,6.29.1,3.48A19.7,19.7,0,0,0,161.06,87.58Z"/><path class="cls-75" d="M161.06,87.58a14.07,14.07,0,0,0,.58-1.67c.21-.86,1.23-1.84,1.68-2.81a36.76,36.76,0,0,0,1.75-6l-3.2,1.69-1.12,1.84.1,3.48A19.7,19.7,0,0,0,161.06,87.58Z"/><path class="cls-18" d="M138.05,74.18a10.25,10.25,0,0,0,1.52.94l.17.09h0l.08,0a1.81,1.81,0,0,0,.56.36l.18.08h0c.28.13.54.3.85.46h0a7.36,7.36,0,0,0,1.34.63c.63.21,2.4.51,2.66.61a20.34,20.34,0,0,1,1.81,1.49L148.93,77a6.93,6.93,0,0,1-1.49-1.27,1.65,1.65,0,0,0-.94-.55,4.15,4.15,0,0,0-1-.2,6.16,6.16,0,0,0-.88,0l-.45-.15-.89-.68s-.63-1-.71-1.11a1.56,1.56,0,0,0-.28-.22.86.86,0,0,0-.19-.35.55.55,0,0,0-.48-.06.14.14,0,0,0-.08.14,25.07,25.07,0,0,0,1.12,2.34l-.06,0,0,0-.9-.47s-.75-.68-.79-.88a2.06,2.06,0,0,0-.64-.91c-.17-.09-.53-.13-.52.12a.69.69,0,0,0,.13.33c.36.58.9,1.35.93,1.4l-.58-.37-.88-.45h0a2,2,0,0,0-.57-.51c-.22-.07-.59.07-.59.17a1,1,0,0,0,.16.45l.06,0S137.8,73.9,138.05,74.18Z"/><path class="cls-76" d="M166.68,68.23a8.08,8.08,0,0,0-.6-2.66,3.07,3.07,0,0,1-1.37-.25c-.54-.29-1.2-2.29-1-3.56s-.78-3.26,2.09-3.6,4,.42,4.83,2.16a13.51,13.51,0,0,1,.94,4.54,14.89,14.89,0,0,0,.58,2.21s-2.08.64-2.93.78S166.68,68.23,166.68,68.23Z"/><path class="cls-67" d="M165.67,68.29a2.65,2.65,0,0,1,1.18-.91c.27-.09,3.3-.62,3.93-.79A6.23,6.23,0,0,0,172,66.1s.56.3.66.65.61.74-1,1.36a14.83,14.83,0,0,1-3.69.92,5.42,5.42,0,0,0-2,.68c-.15.15-.17-.4-.17-.4Z"/><path class="cls-18" d="M164.71,65.32c-.42,0-.93-.49-1.2-.93a9.3,9.3,0,0,1-1.06-3.33,21.77,21.77,0,0,0-.2-2.37,7.58,7.58,0,0,1,.33-2.61c.18-.48,1.85-.95,3.5,0s-.71,4.83-.71,4.83-.06,2.73,0,3.47S164.71,65.32,164.71,65.32Z"/><path class="cls-77" d="M141.54,72.54a25.07,25.07,0,0,0,1.12,2.34l-.06,0a7,7,0,0,0,1,.26s-.67-.32-.79-.36a8.36,8.36,0,0,1-.78-1.38,3.59,3.59,0,0,1-.39-1A.14.14,0,0,0,141.54,72.54Z"/><path class="cls-77" d="M140.71,74.52c.12,0,1,.46,1,.46l-.78-.45s-1.16-1.54-1.23-1.77a.69.69,0,0,0,.13.33c.36.58.9,1.35.93,1.4l-.58-.37-.89-.46C139.38,73.71,140.59,74.48,140.71,74.52Z"/><path class="cls-77" d="M138.3,73.77l.06,0a3.91,3.91,0,0,1,1,.41l.93.46a.1.1,0,0,0,.06.12h.05c.14,0,.85.28.94.31l-.88-.46-1.66-.83a1.31,1.31,0,0,1-.63-.53A1,1,0,0,0,138.3,73.77Z"/><path class="cls-77" d="M142.38,76.26a16.23,16.23,0,0,1-1.81-.56c.28.13.54.3.85.46h0l.69.16.82.17.94.29A8,8,0,0,0,142.38,76.26Z"/><path class="cls-77" d="M139.74,75.21a.15.15,0,0,1,0-.12c.11-.34.55-.3.59-.3h0l-.06-.12a.74.74,0,0,0-.35.14c-.13.11-.3.22-.33.3Z"/><path class="cls-67" d="M162.14,89.12l-.25,0a16.6,16.6,0,0,1,1-4.63,11.41,11.41,0,0,0,1.17-5h.25a11.63,11.63,0,0,1-1.2,5.14A16,16,0,0,0,162.14,89.12Z"/><path class="cls-13" d="M164.22,62.87c-.26-.49-.66-1-.78-1.29a9.06,9.06,0,0,1-.23-1.57,4.36,4.36,0,0,0-.41-1.21,14.87,14.87,0,0,1-.33-2.32,3.7,3.7,0,0,1,1.37-2.23,6.28,6.28,0,0,1,4.41-1.33,4.59,4.59,0,0,1,4.32,2.63c.83,1.66,1.21,2.76.9,4.26a17.74,17.74,0,0,1-1.1,3.23,6.42,6.42,0,0,1-.48.79,6.82,6.82,0,0,1-.83,1,1.88,1.88,0,0,1-2.35-.2,14.07,14.07,0,0,1-1.88-1.75c-.64-.73-1.65-1.91-2-2s-.69,0-.78.34A6.46,6.46,0,0,0,164.22,62.87Z"/><path class="cls-13" d="M172,62.72c1,.91,2.54,4.47,2.86,9.12s1.2,8.58-2.07,10.54c-.92-3.3.83-9.41-1.51-18.64A8.25,8.25,0,0,0,172,62.72Z"/><path class="cls-67" d="M147,78.77c-.16-.21.37-1.06,1-1.49a1.72,1.72,0,0,1,.92-.42s6.83,4.47,8.69,5.76,2.22,4.82-.37,4.52-5.8-3.39-7.55-5.32S147,78.77,147,78.77Z"/><path class="cls-67" d="M156.9,86.68a4.37,4.37,0,0,1-.94-3.11,81.21,81.21,0,0,1,4.71-10.69c.49-.49,1.69-.56,3,.89s1.53,2,1.4,3.38-5.71,8.74-6.33,9.42S156.9,86.68,156.9,86.68Z"/><path class="cls-18" d="M161,85.4a2.16,2.16,0,0,0-1.09.49,9.81,9.81,0,0,1-1.69.6c-.3.11-.17.49-.11.55a2,2,0,0,0,.43.14l-.37.05s-.63.31-.78.42-.66.36-.66.36a5.12,5.12,0,0,0-.59.17c-.09.05-.11.3-.05.43s.51.15.51.15l.73-.16a1.34,1.34,0,0,0,.34.16,1.65,1.65,0,0,0,.53-.2l.05-.13a.66.66,0,0,0,.41-.12c.21-.14,1-.86,1.09-.92a1.09,1.09,0,0,1,.35-.08.31.31,0,0,1,.2.22,5.94,5.94,0,0,1,.09.64,1,1,0,0,0,.15.53c.1.14.24.38.49.22a.41.41,0,0,0,.13-.54,1.58,1.58,0,0,1-.1-.27l.47-1Z"/><path class="cls-77" d="M158.33,88.44h0c.07,0,1.3-1.05,1.3-1.05l-.11-.12-.88,0-.26,0,.18,0-.11,0a6.6,6.6,0,0,0,1.7-.07l.18-.12a.73.73,0,0,0,.17-.44c0-.33-.23-.35-.23-.35l-1.15.05h0a3.57,3.57,0,0,0,.81-.33A2.16,2.16,0,0,1,161,85.4l.41,1.36c-.1.1-.19.17-.25.17a.68.68,0,0,0-.63.44,3.49,3.49,0,0,0-.06.91c0,.16.12.46.26.53a.29.29,0,0,0,.37-.26c0-.22-.28-.48,0-.76a.29.29,0,0,1,.18-.08l-.2.42a1.58,1.58,0,0,0,.1.27.41.41,0,0,1-.13.54c-.25.16-.39-.08-.49-.22a1,1,0,0,1-.15-.53,6,6,0,0,0-.09-.64.31.31,0,0,0-.2-.22,1.09,1.09,0,0,0-.35.08c-.09.06-.88.78-1.09.92A.69.69,0,0,1,158.33,88.44Z"/><path class="cls-77" d="M157,88.7a.39.39,0,0,0,.12-.23l-.24-.11.33-.24.68-.6,0-.11.18-.09-.3.48-.15.12-.44.36s-.15.07.11.25a2.36,2.36,0,0,0,.35.22h0a1.34,1.34,0,0,1-.34-.16l-.39.09Z"/><path class="cls-77" d="M157.68,88l.75-.69-.67.75s-.08.14.12.29a.64.64,0,0,0,.38.13l-.05.12-.13.07a.4.4,0,0,0-.11-.08c-.12-.05-.33-.41-.33-.41Z"/><path class="cls-18" d="M165.07,63.33a.3.3,0,0,0,.43.16,4.41,4.41,0,0,0,.26-1.35,2.31,2.31,0,0,0-.6-1.35c-.24-.1-.52.19-.56.39a4.1,4.1,0,0,0,.19,1,6.9,6.9,0,0,0,.16,1A.84.84,0,0,1,165.07,63.33Z"/><path class="cls-44" d="M173.91,32.68s-1.46-3.36-1.61-2.71-.43,3.26-.43,3.26Z"/><path class="cls-20" d="M117.51,13.82a1.4,1.4,0,0,1-.66.31,1.08,1.08,0,0,1-.88-.31l.91-.12,1-.36A4.05,4.05,0,0,1,117.51,13.82Z"/><path class="cls-23" d="M117.92,13.34l-.39,0c-.06,0-.13.07-.19.07h-.12a12.75,12.75,0,0,1-1.24.46,2.74,2.74,0,0,0,1-.11,1.24,1.24,0,0,1,.48-.11A2.87,2.87,0,0,0,117.92,13.34Z"/><path class="cls-25" d="M116.55,10.61c0,.15.11.27.3.26a.43.43,0,0,0,.41-.29c0-.15-.11-.27-.3-.26A.43.43,0,0,0,116.55,10.61Z"/><path class="cls-25" d="M119.31,10.14a.26.26,0,0,0-.14.32.23.23,0,0,0,.33,0,.26.26,0,0,0,.14-.32A.23.23,0,0,0,119.31,10.14Z"/></g></g></svg>