<svg id="Layer_1" data-name="Layer 1" xmlns="http://www.w3.org/2000/svg" xmlns:xlink="http://www.w3.org/1999/xlink" viewBox="0 0 300 150"><defs><style>.cls-1{fill:#ff9f9f;}.cls-2{fill:none;}.cls-3{fill:#f7958d;}.cls-4{fill:#8fd5e5;}.cls-5{clip-path:url(#clip-path);}.cls-6{fill:#1958db;}.cls-7{fill:#29266b;}.cls-8{fill:#fca89e;}.cls-9{fill:#fff;}.cls-10{fill:#2b79e6;}.cls-11{clip-path:url(#clip-path-2);}.cls-12{fill:#112256;}.cls-13{fill:#b3e3ef;}.cls-14{fill:#ff645f;}.cls-15{clip-path:url(#clip-path-3);}.cls-16{fill:#823024;}.cls-17{fill:#4e687f;}.cls-18{fill:#bdf1ff;}.cls-19{fill:#da3f3a;}.cls-20{fill:#d2f7ff;}.cls-21{fill:#fcc4c0;}.cls-22{fill:#2eb3db;}</style><clipPath id="clip-path"><path class="cls-1" d="M212.52,84.19h-125A3.44,3.44,0,0,1,84,80.83V10.06A3.44,3.44,0,0,1,87.49,6.7h125a3.44,3.44,0,0,1,3.53,3.36V80.83A3.44,3.44,0,0,1,212.52,84.19Z"/></clipPath><clipPath id="clip-path-2"><path class="cls-2" d="M219.72,114.72H204.35l-1.92-22.77a3.5,3.5,0,0,1,3.49-3.79h12.24a3.5,3.5,0,0,1,3.49,3.79Z"/></clipPath><clipPath id="clip-path-3"><path class="cls-2" d="M80.28,114.72H95.65l1.92-22.77a3.5,3.5,0,0,0-3.49-3.79H81.85a3.5,3.5,0,0,0-3.49,3.79Z"/></clipPath></defs><title>parent-teacher-meeting</title><path class="cls-3" d="M169.35,108.43c-.17.44-.35,1.78.2,1.95s6.55.22,7.41.15,1-1-.76-1.48-3.94-1.44-3.94-1.44Z"/><path class="cls-3" d="M138.25,106.91c-.17.44-.66,3.3-.11,3.47s6.55.22,7.41.15,1-1-.76-1.48-3.94-1.44-3.94-1.44Z"/><rect class="cls-4" x="76.87" y="0.35" width="146.29" height="90.19" rx="3.91" ry="3.91"/><path class="cls-1" d="M212.52,84.19h-125A3.44,3.44,0,0,1,84,80.83V10.06A3.44,3.44,0,0,1,87.49,6.7h125a3.44,3.44,0,0,1,3.53,3.36V80.83A3.44,3.44,0,0,1,212.52,84.19Z"/><g class="cls-5"><rect class="cls-6" x="114.15" y="60.12" width="71.73" height="68.65" rx="19.77" ry="19.77"/></g><path class="cls-3" d="M159.36,61.54a8.92,8.92,0,0,1-8.52,4.62c-7.93-.3-9.63-5.76-9.63-5.76V48.92h17.6Z"/><path class="cls-7" d="M149.85,14c-1.74-.63-8.52-4.26-14.36-1.74s-6,5.68-6.16,9.47-4.73,6.15-6.79,11a15.28,15.28,0,0,0,3.63,16.26c4.58,4.42,3.79,9.31,3.79,13.26s10.34,8.13,11.24-1.93,2.33-19.69,2.64-22.21c.17-1.37,9.48-10,11-16.1C156.22,16.94,149.85,14,149.85,14Z"/><path class="cls-7" d="M149.85,14c1.74-.63,9-4.26,14.79-1.74s6,5.68,6.15,9.47,4.73,6.15,6.79,11A15.28,15.28,0,0,1,174,49.07c-4.58,4.42-3.79,9.31-3.79,13.26s-10.34,8.13-11.24-1.93-3.7-19.85-4-22.37S149.85,14,149.85,14Z"/><path class="cls-8" d="M143.62,53.89c8.24,6.59,13.74,1.94,19.4-7,6.72-10.59,6.76-21-1.48-27.64a19.11,19.11,0,0,0-26.86,3C128.08,30.49,135.39,47.29,143.62,53.89Z"/><path class="cls-7" d="M130.91,36.77c.49.71,6.55-2.13,11.52-7.1,6-6,6.94-10.57,7.58-10.57s2.46,5.26,5.52,9.31c4.42,5.84,13.73,8.84,13.73,8.84A13.17,13.17,0,0,0,168.63,27c-2.68-5.37-8.68-11.52-13.41-12.15a53.44,53.44,0,0,0-11-.32c-3.79.16-13.41,6.79-14.36,10.73S130.91,36.77,130.91,36.77Z"/><polygon class="cls-9" points="147.64 34.6 159.96 41.71 147.64 48.82 147.64 34.6"/><ellipse class="cls-10" cx="211.99" cy="101.55" rx="17.94" ry="21.91"/><path class="cls-10" d="M218,149.65c0-.15,0-.3,0-.45a6,6,0,1,0-11.94,0c0,.15,0,.3,0,.45Z"/><rect class="cls-10" x="211.17" y="110.84" width="1.04" height="38.81"/><rect class="cls-10" x="198.13" y="113.88" width="27.72" height="12.3" rx="3.23" ry="3.23"/><path class="cls-7" d="M199.12,114.78h20.6v4.95c0,2.68-1.68,3.88-4.36,3.88H199.61c-2.68,0-5.34-1.2-5.34-3.88v-.1A4.85,4.85,0,0,1,199.12,114.78Z"/><path class="cls-6" d="M219.72,114.72H204.35l-1.92-22.77a3.5,3.5,0,0,1,3.49-3.79h12.24a3.5,3.5,0,0,1,3.49,3.79Z"/><path class="cls-7" d="M194.49,119,192,146.84h3.73s5.23-16.73,5.82-22.7-3-6.59-3-6.59Z"/><path class="cls-7" d="M206.36,118.6l-2.54,28.24h3.73s5.49-18.13,6.08-24.1-3.25-5.19-3.25-5.19Z"/><polygon class="cls-6" points="202.78 90.25 197.26 100.69 204.72 100.1 202.78 90.25"/><path class="cls-6" d="M220.73,89.31l9.63,13.88c.44,1,.1,2.47-.9,2.8l-14.89,3.36-1.94-3.28,10.45-3.77-7.5-7.5Z"/><path class="cls-6" d="M192.11,146.84h3.66v2.8h-7.42c-.49,0-.66-1.1-.23-1.34Z"/><path class="cls-6" d="M203.82,146.84h3.66v2.8h-7.42c-.49,0-.66-1.1-.23-1.34Z"/><g class="cls-11"><polygon class="cls-12" points="212.35 106.22 212.25 105.92 221.55 102.73 221.66 103.04 212.35 106.22"/><polygon class="cls-12" points="212.74 109.28 212.71 108.96 223.95 107.76 223.97 108.08 212.74 109.28"/></g><rect class="cls-13" x="191.84" y="108.49" width="24" height="2.03"/><ellipse class="cls-6" cx="88.01" cy="101.55" rx="17.94" ry="21.91"/><path class="cls-6" d="M82,149.65c0-.15,0-.3,0-.45a6,6,0,1,1,11.94,0c0,.15,0,.3,0,.45Z"/><rect class="cls-6" x="87.78" y="110.84" width="1.04" height="38.81"/><rect class="cls-6" x="74.15" y="113.88" width="27.72" height="12.3" rx="3.23" ry="3.23"/><path class="cls-14" d="M100.88,114.78H80.28v4.95a4.85,4.85,0,0,0,4.85,4.84h15.76a4.85,4.85,0,0,0,4.85-4.84v-.1A4.85,4.85,0,0,0,100.88,114.78Z"/><path class="cls-7" d="M80.28,114.72H95.65l1.92-22.77a3.5,3.5,0,0,0-3.49-3.79H81.85a3.5,3.5,0,0,0-3.49,3.79Z"/><path class="cls-3" d="M87,89.58h2.39a1.44,1.44,0,0,0,1.34-1.51V85.12a1.44,1.44,0,0,0-1.34-1.51H87a1.44,1.44,0,0,0-1.34,1.51v2.94A1.44,1.44,0,0,0,87,89.58Z"/><path class="cls-8" d="M94,83.6c-1,3.25-3.67,2.75-6.92,1.79a6.13,6.13,0,0,1,3.47-11.75C93.83,74.6,95,80.35,94,83.6Z"/><path class="cls-14" d="M105.43,118.6,108,146.84h-3.73s-6-18.39-6.57-24.36,3.73-4.93,3.73-4.93Z"/><path class="cls-14" d="M93.64,118.6l2.54,28.24H92.45s-6-18.39-6.57-24.36,3.73-4.93,3.73-4.93Z"/><polygon class="cls-7" points="97.22 90.25 102.74 100.69 95.28 100.1 97.22 90.25"/><path class="cls-7" d="M79.27,89.31l-9.63,13.88c-.45,1-.1,2.47.89,2.8l14.89,3.36,1.94-3.28L76.92,102.3l7.5-7.5Z"/><path class="cls-7" d="M107.89,146.84h-3.66v2.8h7.42c.49,0,.66-1.1.23-1.34Z"/><path class="cls-7" d="M96.18,146.84H92.52v2.8h7.42c.49,0,.66-1.1.23-1.34Z"/><g class="cls-15"><polygon class="cls-14" points="87.64 106.22 78.34 103.04 78.45 102.73 87.75 105.92 87.64 106.22"/><rect class="cls-14" x="81.22" y="103" width="0.32" height="10.72" transform="translate(-33.38 180.45) rotate(-85.23)"/></g><rect class="cls-13" x="84.16" y="108.49" width="24" height="2.03"/><rect class="cls-16" x="85.39" y="110.45" width="129.24" height="1.64"/><rect class="cls-16" x="85.39" y="110.74" width="0.6" height="38.8"/><rect class="cls-16" x="214.03" y="110.74" width="0.6" height="38.8"/><path class="cls-3" d="M214.32,108.55h-6.12l-.45-2.69h4.62a1.77,1.77,0,0,1,1.75,1.48Z"/><polygon class="cls-13" points="211.13 108.58 191.86 108.58 189.22 96.65 208.48 96.65 211.13 108.58"/><circle class="cls-17" cx="199.79" cy="102.93" r="1.27"/><path class="cls-3" d="M211.35,89.19h2.39a1.44,1.44,0,0,0,1.34-1.51V84.74a1.43,1.43,0,0,0-1.34-1.51h-2.39A1.44,1.44,0,0,0,210,84.74v2.94A1.44,1.44,0,0,0,211.35,89.19Z"/><path class="cls-8" d="M207.29,83.22c1,3.25,3.67,2.75,6.92,1.79a6.13,6.13,0,0,0-3.47-11.75C207.49,74.21,206.33,80,207.29,83.22Z"/><circle class="cls-14" cx="209.23" cy="84.3" r="4.29"/><rect class="cls-8" x="207.7" y="81.6" width="3.13" height="1.63" rx="0.67" ry="0.67"/><path class="cls-3" d="M85.68,108.55h6.12l.45-2.69H87.62a1.77,1.77,0,0,0-1.75,1.48Z"/><polygon class="cls-13" points="88.87 108.58 108.14 108.58 110.78 96.65 91.52 96.65 88.87 108.58"/><circle class="cls-17" cx="100.21" cy="102.93" r="1.27"/><path class="cls-18" d="M146.75,74.33c-2.11-.08-7.83,13.3-8.42,15.31s-.83,18.09-.24,18.15,3.81.45,3.87-.32,1-15.33,1.12-16.22S151.48,74.5,146.75,74.33Z"/><path class="cls-19" d="M141,101.77l18.57,4.84-.13,40.07h-3.67s-2.94-21.82-4-33.22H148.9L146,146.68h-3.73s-1.63-35.49-1.57-38.35C140.64,107.87,141,101.77,141,101.77Z"/><path class="cls-20" d="M141,101.77l18.57,4.84,8.75-24.06c.73-2-.76-4.19-3.23-4.84l-14.78-3.86c-2.47-.65-4.87.57-5.18,2.64Z"/><path class="cls-8" d="M156.61,78a3.27,3.27,0,0,1-2.1-3.24l.95-3.64c.22-.82,1.43-.43,2.16-.24l2.35.61c.73.19,1.79,1.18,1.57,2l-.76,2.9A3.63,3.63,0,0,1,156.61,78Z"/><path class="cls-21" d="M158.06,74.14c-3.44.24-3.93-2.53-4.16-6a6.24,6.24,0,1,1,12.46-.85C166.59,70.76,161.5,73.91,158.06,74.14Z"/><path class="cls-12" d="M159.45,146.63h-3.73v2.86h7.56c.5,0,.67-1.12.23-1.36Z"/><path class="cls-12" d="M146,146.63h-3.73v2.86h7.56c.5,0,.67-1.12.23-1.36Z"/><path class="cls-14" d="M207.3,77.64c-.8.27-2.28-.57-1.66-2.45.79-2.37,2.84-2.21,3.39-2.84s.47-3.08,2.92-3.31,2.6,2,3.55,2.45,2.92-1.42,5,.71c1.81,1.88-.63,3.87,0,5s2.13,2.13,1.5,4.26a3.61,3.61,0,0,1-3.16,2.76c-.79,0-2-.47-2-.95s-1.58-3.23.32-5.52c1-1.22-.16-2.53-1.74-2.13-2.77.69-4.5-1.26-5.29-1.26S208.48,77.24,207.3,77.64Z"/><path class="cls-14" d="M83.18,82.37a7.6,7.6,0,0,1-.32-5.84,6.21,6.21,0,0,1,4.5-3.47c2-.55,3.47-.87,4-1.81s.16-2.21.39-2.21S95,71,94.3,74c-.39,1.63-.63,2.53-2.84,3.79-1.41.81-4.42.47-4.73,1.26s1,1.66,1.26,2.13a.82.82,0,0,1-.39,1c-.24.16-1.42-.87-2.6-.95A2.1,2.1,0,0,0,83.18,82.37Z"/><path class="cls-22" d="M156.48,62.8c-1.53,1.31-1.42,5.05-.95,6.63s.59,5.78,2.17,6c4.14.47,7.34.36,8.29-1.07s3.08-10.53-2.84-12.46C158.31,60.29,157.59,61.86,156.48,62.8Z"/><path class="cls-18" d="M167.11,78.94c1.79.47,2.43,4.5,2.66,8.29s-.36,8.52,0,9.11,3.55,10.93,3.67,11.52-3.91,1.42-4.26,1.07-4.58-10.22-4.81-11.17a62,62,0,0,1-1-12.72C163.61,81.31,164.86,78.35,167.11,78.94Z"/></svg>