<svg id="Layer_1" data-name="Layer 1" xmlns="http://www.w3.org/2000/svg" viewBox="0 0 300 150"><defs><style>.cls-1{fill:#e2cfc1;}.cls-2{fill:#7a92ce;}.cls-3{fill:#19164f;}.cls-4{fill:#282e76;}.cls-5{fill:#fe7a42;}.cls-6{fill:#ffc7ca;}.cls-7{fill:#e65895;}.cls-8{fill:#f7a66f;}.cls-9{fill:#2e3b57;}.cls-10{fill:#ffc554;}.cls-11{fill:#f8d646;}.cls-12{fill:#c2bfc5;}.cls-13{fill:#3572e7;}.cls-14{fill:#fff;}.cls-15{fill:#daf7f6;}.cls-16{fill:#ffc509;}</style></defs><title>personality-development</title><ellipse class="cls-1" cx="150" cy="144.31" rx="57.14" ry="4.33"/><polygon class="cls-2" points="161.3 140.8 162.55 141.2 162.32 143.19 162.57 144.16 165.43 147.83 159.57 144.3 161.3 140.8"/><polygon class="cls-2" points="160.46 138.77 159.16 138.88 158.93 140.88 158.46 141.75 154.86 144.69 161.36 142.58 160.46 138.77"/><polygon class="cls-3" points="170.29 85.17 171.13 115.49 162.66 143.1 160.12 141.91 164.53 117.35 156.73 91.78 170.29 85.17"/><polygon class="cls-4" points="158.63 90.85 158.63 116.17 161.65 140.72 158.63 140.72 152.67 115.79 147.25 85.17 158.63 90.85"/><path class="cls-5" d="M117.7,59s-3-2.72-3.87-2.47-3,2.18,3.09,3.9Z"/><path class="cls-6" d="M149.35,59.56,137.22,73.17,116.38,60.5l1-1.79,17.55,7.23,11.43-11.52s3.54-4.19,6.14-1.6A15.9,15.9,0,0,1,149.35,59.56Z"/><path class="cls-7" d="M159.53,51.21c3,.7,9.07,4.74,10,9S169,74.09,169,74.09l1.52,13s-12.07,10.27-23.31-1.27c0,0-.16-12.94-1-18.61-.52-3.3-2.58-12.44,1.74-14.43C154.23,49.83,156.52,50.5,159.53,51.21Z"/><path class="cls-8" d="M156.78,46.54l1.15,4.79s-6,4.08-5.35,1.71a55.12,55.12,0,0,0,1-6.58Z"/><path class="cls-8" d="M156.92,41c.36,1,1.09,2.9.5,4.17s-1.47,3.54-2.95,4.06a2,2,0,0,1-2.53-1.41c-.36-1-.53-6.28,1.86-7.51C155.61,39.42,156.64,40.3,156.92,41Z"/><path class="cls-9" d="M146.16,42s7.69.34,9.33,0,1.39,1.24,1.39,1.43-.35,2.47.22,2.52,1.4-2.8.62-4.74S147.19,39.63,146.16,42Z"/><path class="cls-9" d="M156.7,46.78s-1.7,1.55-3.39,1.3c-1.08-.16-1.58-2.06-1.57-2.46s-.61,3.56,1.76,3.76S156.7,46.78,156.7,46.78Z"/><path class="cls-10" d="M103.74,40.81a19.51,19.51,0,1,1,39,0c0,6.39-5.16,10.31-7.81,15.62-.89,1.78,0,7.94,0,7.94H111.29s.9-6.31,0-8.14C108.73,51,103.74,47.08,103.74,40.81Z"/><path class="cls-11" d="M108.85,42.28c0-9.07,6.45-16.43,14.4-16.43s14.4,7.36,14.4,16.43c0,5.38-3.81,8.68-5.77,13.15-.66,1.49,0,6.68,0,6.68H114.42s.66-5.32,0-6.86C112.53,50.85,108.85,47.55,108.85,42.28Z"/><rect class="cls-12" x="111.29" y="61.27" width="23.89" height="18.64"/><path class="cls-13" d="M108.2,64.36a3.09,3.09,0,0,0,3.09,3.09h23.89a3.09,3.09,0,0,0,3.09-3.09h0a3.09,3.09,0,0,0-3.09-3.09H111.29a3.09,3.09,0,0,0-3.09,3.09Z"/><path class="cls-13" d="M108.2,76.81a3.09,3.09,0,0,0,3.09,3.09h23.89a3.09,3.09,0,0,0,3.09-3.09h0a3.09,3.09,0,0,0-3.09-3.09H111.29a3.09,3.09,0,0,0-3.09,3.09Z"/><rect class="cls-14" x="125.54" y="45.38" width="1.17" height="15.89"/><rect class="cls-14" x="118.81" y="45.38" width="1.17" height="15.89"/><path class="cls-8" d="M139.34,77.12s-3.84-1.23-4.55-.63-1.84,3.24,4.44,2.26Z"/><path class="cls-6" d="M168.32,64.39,163,81.82,138.74,79l.16-2,19-.74L163.44,61s2.45-6.73,4.91-4C169.6,58.34,169.36,60.79,168.32,64.39Z"/><path class="cls-15" d="M149.91,10.6l-9.39,10.85Z"/><path class="cls-16" d="M151,11.67l-9.39,10.85c-1.28,1.48-3.42-.67-2.14-2.14l9.39-10.85c1.28-1.48,3.42.67,2.14,2.14Z"/><path class="cls-15" d="M94.35,12.34l9.39,10.85Z"/><path class="cls-16" d="M95.42,11.27l9.39,10.85c1.27,1.47-.86,3.62-2.14,2.14L93.27,13.42c-1.27-1.47.86-3.62,2.14-2.14Z"/><path class="cls-15" d="M123.51,3.43,123,17.77Z"/><path class="cls-16" d="M125,3.43q-.28,7.17-.55,14.33c-.08,1.95-3.11,2-3,0q.28-7.17.55-14.33c.08-1.95,3.11-2,3,0Z"/></svg>