<svg xmlns="http://www.w3.org/2000/svg" viewBox="0 0 56 56"><title>quote-up</title><path d="M.73,44.3c-.1-3.62-.14-6.27-.14-8,0-3.36.1-6.22.3-8.67a39.87,39.87,0,0,1,1.31-7.39A16.88,16.88,0,0,1,5,14.12a13.52,13.52,0,0,1,4.85-3.86,15,15,0,0,1,5.38-1.37,2.91,2.91,0,0,1,2.82,1.62l2.69,5.36a2.94,2.94,0,0,1-2,4.19,8.61,8.61,0,0,0-4.46,2.2A9,9,0,0,0,12,27.1a3,3,0,0,0,2.89,3.5h4.82a2.94,2.94,0,0,1,2.94,2.94V44.18a2.94,2.94,0,0,1-2.94,2.94H.86M33.46,44.3q-.13-5.42-.13-8c0-3.36.1-6.22.31-8.67A39.85,39.85,0,0,1,35,20.27a16.89,16.89,0,0,1,2.82-6.14,13.64,13.64,0,0,1,4.86-3.86A14.9,14.9,0,0,1,48,8.89a2.93,2.93,0,0,1,2.85,1.62l2.69,5.35a2.94,2.94,0,0,1-2,4.19A8.55,8.55,0,0,0,47,22.25a8.92,8.92,0,0,0-2.24,4.86,3,3,0,0,0,2.89,3.49h4.78a2.94,2.94,0,0,1,2.94,2.94V44.18a2.94,2.94,0,0,1-2.94,2.94H33.58" style="fill:#383838"/></svg>