<svg xmlns="http://www.w3.org/2000/svg" viewBox="0 0 56 56"><title>quote-down</title><path d="M55.27,11.7c.1,3.62.14,6.27.14,8,0,3.36-.1,6.22-.3,8.67a39.87,39.87,0,0,1-1.31,7.39A16.88,16.88,0,0,1,51,41.88a13.52,13.52,0,0,1-4.85,3.86,15,15,0,0,1-5.38,1.37,2.91,2.91,0,0,1-2.82-1.62l-2.69-5.36a2.94,2.94,0,0,1,2-4.19,8.61,8.61,0,0,0,4.46-2.2A9,9,0,0,0,44,28.9a3,3,0,0,0-2.89-3.5H36.25a2.94,2.94,0,0,1-2.94-2.94V11.82a2.94,2.94,0,0,1,2.94-2.94H55.14M22.54,11.7q.13,5.42.13,8c0,3.36-.1,6.22-.31,8.67A39.85,39.85,0,0,1,21,35.73a16.89,16.89,0,0,1-2.82,6.14,13.64,13.64,0,0,1-4.86,3.86A14.9,14.9,0,0,1,8,47.11,2.93,2.93,0,0,1,5.2,45.49L2.51,40.13a2.94,2.94,0,0,1,2-4.19A8.55,8.55,0,0,0,9,33.75a8.92,8.92,0,0,0,2.24-4.86A3,3,0,0,0,8.32,25.4H3.53A2.94,2.94,0,0,1,.59,22.46V11.82A2.94,2.94,0,0,1,3.53,8.88H22.42" style="fill:#383838"/></svg>