<svg id="Layer_1" data-name="Layer 1" xmlns="http://www.w3.org/2000/svg" viewBox="0 0 300 150"><defs><style>.cls-1{fill:#e2e7e8;}.cls-2{fill:#1e0c07;}.cls-3{fill:#f1b287;}.cls-4{fill:#22303a;}.cls-5{fill:#3b5060;}.cls-6{fill:#2b3c4b;}.cls-7{fill:#ea9315;}.cls-8{fill:#ed8001;}.cls-9{fill:#fca922;}.cls-10{fill:#465e6d;}.cls-11{fill:#e8a476;}.cls-12{fill:#db9669;}.cls-13{fill:#2b0d04;}.cls-14{isolation:isolate;}.cls-15{fill:#e6dab0;}.cls-16{fill:#aeb6bc;}.cls-17{fill:#beaf84;}.cls-18{fill:#6b4125;}.cls-19{fill:#885937;}.cls-20{fill:#aa814f;}.cls-21{opacity:0.1;}.cls-22{fill:#dfe5f3;}.cls-23{fill:#9fb0bc;}.cls-24{fill:#388852;}.cls-25{fill:#2c7741;}.cls-26{fill:#c0c5d1;}.cls-27{fill:#e2e6ed;}.cls-28{fill:#a5aab4;}.cls-29{fill:#323a3b;}.cls-30{fill:#232829;}.cls-31{fill:#1d1f1f;}.cls-32{fill:#141515;}.cls-33{fill:#202222;}.cls-34{fill:#303637;}.cls-35{fill:#454e4f;}.cls-36{fill:#4d5758;}.cls-37{fill:#384141;}.cls-38{fill:#efb185;}.cls-39{fill:#e51c25;}.cls-40{fill:#242626;}.cls-41{fill:#3b3f3f;}.cls-42{fill:#111114;}.cls-43{fill:#29383d;}.cls-44{fill:#243135;}.cls-45{fill:#184c9f;}.cls-46{fill:#0b357c;}.cls-47{fill:#354751;}.cls-48{fill:#304047;}.cls-49{fill:#cc111e;}.cls-50{fill:#f72b3a;}.cls-51{fill:#dd9569;}.cls-52{fill:#e6a376;}.cls-53{fill:#221101;}.cls-54{fill:#341c09;}.cls-55{fill:#1a4789;}.cls-56{fill:#aac6c3;}.cls-57{fill:#5a5c5d;}.cls-58{fill:#6d6f70;}.cls-59{fill:#d1d1d1;}.cls-60{fill:#eb452e;}.cls-61{fill:#f36648;}.cls-62{fill:#a4066c;}.cls-63{fill:#f59678;}.cls-64{fill:#419e3e;}.cls-65{fill:#f5b8a0;}.cls-66{fill:#a93c7b;}.cls-67{fill:#b15d8c;}.cls-68{fill:#98bb8b;}.cls-69{fill:#b982a4;}.cls-70{fill:#b8cbb2;}.cls-71{fill:#73ab67;}.cls-72{fill:#a9b5c4;}.cls-73{fill:#c3c5c5;}.cls-74{fill:#e6e7ec;}.cls-75,.cls-79{fill:#939599;}.cls-75{opacity:0.5;}.cls-76{fill:#d5dfe6;}.cls-77{fill:#c8d2db;}.cls-78{fill:#e1eaef;}.cls-80{fill:#6876a5;}.cls-81{fill:#17cfbf;}.cls-82{fill:#f9739c;}.cls-83{fill:#ef567f;}.cls-84{fill:#5b7f2a;}.cls-85{fill:#4b6e21;}.cls-86{fill:#2f6680;}.cls-87{fill:#4eaad5;}.cls-88{fill:#770f13;}.cls-89{fill:#c51820;}.cls-90{fill:#e8486a;}.cls-91{fill:#873f1b;}.cls-92{fill:#743617;}.cls-93{fill:#82a31a;}.cls-94{fill:#94af20;}.cls-95{fill:#758c15;}.cls-96{fill:#f0403d;}.cls-97{fill:#fff518;}</style></defs><title>review-writing</title><path class="cls-1" d="M132.39,105.88c17.28,10,17.38,26.17.2,36.15s-45.11,10-62.4,0-17.37-26.17-.2-36.13S115.1,95.9,132.39,105.88Z"/><path class="cls-2" d="M79.44,15.31c-8.07-3.64-12,13.71-5.76,21.2,1,1.15,6.46-.66,6.87-2,1.67-5.5-5.11-8.21-.73-13,0,0-1.32-3.28-1-3.62C79.51,17.08,81.37,16.42,79.44,15.31Z"/><path class="cls-3" d="M103.83,51.34s4.88-.71,7.46-2.65,2.44-3.46,2.32-3.9-4.28,1.89-4.83,1.62.09-2.12.18-2.49-1.63.1-2.32,1.28a38,38,0,0,1-3.49,4.1S102.3,51.12,103.83,51.34Z"/><path class="cls-4" d="M89,31.55c4.25.27,7.38,13.29,9.23,18.66a32.84,32.84,0,0,1,6.12-2.34c-.52,1.93,1.64,3.3,1.64,3.3a47.36,47.36,0,0,1-7.74,5.77,3.09,3.09,0,0,1-2.58.35c-2.08-.13-5.08-8.2-8.29-16.86C84,31.39,89,31.55,89,31.55Z"/><path class="cls-5" d="M98.23,50.21a32.84,32.84,0,0,1,6.12-2.34,2.28,2.28,0,0,0,0,1.1c-2.08,1.6-6.53,5.13-6.92,2.94s-6.48-16.14-8.32-20.35C93.3,32,96.4,44.87,98.23,50.21Z"/><path d="M88.51,116.83a8.81,8.81,0,0,0,1.41,3.94c1.15,1.37,6.38,4.49,6,5.92s-4.07,1.59-6.43-.73-3-2.68-4-2.88-2.43-1.43-1.43-3.63C84.09,119.45,87.25,118.51,88.51,116.83Z"/><path class="cls-4" d="M89.8,58.56s4.29,21.1,1.94,32.8c0,0-1.09,9.22-1.6,11.76s-.44,16.33-.44,16.33-3.88,1.66-5.83-.15c0,0-2.51-14.2.24-23.25,0,0-3.23-17.29-3.31-22.92A90.51,90.51,0,0,0,80,62.64Z"/><path class="cls-6" d="M91.74,91.36s-1.09,9.22-1.6,11.76-.44,16.33-.44,16.33a10.57,10.57,0,0,1-1.54.47c-.29-4.11-.8-11.28-1-12.9-.32-2.31,2.28-14.93,2.49-19.62s-5-22.27-5-22.27l1.44-5,3.71-1.55S94.09,79.66,91.74,91.36Z"/><path d="M76.73,122.1a8.78,8.78,0,0,0,1.31,4c1.11,1.4,6.26,4.66,5.86,6.07s-4.11,1.49-6.41-.89-2.92-2.76-3.93-3-2.39-1.5-1.32-3.66C72.24,124.6,75.42,123.75,76.73,122.1Z"/><path class="cls-6" d="M72.25,65.5s-4.17,5.95-2.16,18.11L71,98.12s-2.76,4.65-.78,18.76l1.9,8.49s2.35,1.72,4.95-1.79c0,0-.19-20.88.79-24.09.71-2.35,4-12.16,5.27-21.64.47-3.46,5.82-9.18,5.54-12.17Z"/><path class="cls-4" d="M72.11,125.37l-1.9-8.49c-2-14.11.78-18.76.78-18.76l-.9-14.52c-2-12.16,2.16-18.11,2.16-18.11h.48l4.55,2.94s-4.51,23-4.18,28.83-1.33,12.66-1.1,16.3c.14,2.34,1.19,8.25,1.91,12.19A2.73,2.73,0,0,1,72.11,125.37Z"/><path class="cls-7" d="M69.47,40s3.69-6.94,18.78-8.67c0,0,2.39-1,2.16,6.76,0,1.12,1.13,3,1.92,4s2.87,4.9-1.7,9.55c0,0-1.77,6.92.34,11.39,1.88,4-8,7.9-16.38,7.08-1-.1-3.89-1.09-3-4.7s3.6-9.59,1.92-16.23S68.34,43.42,69.47,40Z"/><path class="cls-8" d="M69.47,39.8c-1.13,3.38,2.36,2.59,4.05,9.23s-1,12.87-1.92,16.47,1.3,4.46,2.34,4.56a27.9,27.9,0,0,0,4.46.2c-2.95-6.44,1.23-18.42,1.42-24.87.2-6.84-6-9.52-6-9.52A13.46,13.46,0,0,0,69.47,39.8Z"/><path class="cls-9" d="M91,63.12c-2.11-4.47-.34-11.39-.34-11.39,4.57-4.65,2.48-8.54,1.7-9.55s-2-2.93-1.92-4c.09-3.05-.23-4.75-.64-5.68-.87,1-2.62.64-2,4.21.34,2.12-.36,5.26-3.64,5.27s-1.44,5.28-1.24,6.74c1.33,10.18-4.1,14.95-2.34,21.38C86.94,69.2,92.42,66.19,91,63.12Z"/><path class="cls-5" d="M82.06,73S70.54,74.22,70.6,68c0,0,4.17-15,2.43-19.15s-8.78-8.37.79-13a11.32,11.32,0,0,1,6.48,5C82.52,44.86,85,61.77,82.06,73Z"/><path class="cls-5" d="M89.7,31.33s.81,3.48,1.3,7.5c.12,1,.44,1.22,2,3.76,0,0,2.92,4.48-2.1,9.38,0,0-1.12,12.76,2.17,15.5,0,0-1.57,1.83-2.34,2.6s-4.07-24.3-3.63-25.57S89.7,31.33,89.7,31.33Z"/><path class="cls-10" d="M86.82,31.33S84,60,90.75,70.06c0,0-4.18-23.66-1.05-38.73Z"/><path class="cls-11" d="M87.13,29.91s-2.43,2.84-1.31,5.9c.3.84,1.06,4.29-4.16,2.86,0,0-6-3-4.38-4.67,1.09-1.09,2.74-2.39,1.17-8Z"/><path class="cls-12" d="M77.14,34.14c-.17.18-.14.49-.06.88,5,1,8.94-2.7,8.94-2.7l-6.45-5.75h0s-.33.22-.82.58C79.86,31.83,78.15,33.13,77.14,34.14Z"/><path class="cls-3" d="M86.86,17.81s1.61.56,1.65,5.33c0,.53.85,1.23,1.07,2.54s.49,6.65-2.6,7.2a9.5,9.5,0,0,1-9.57-6.39C75.58,21.14,80.18,14.25,86.86,17.81Z"/><path class="cls-13" d="M86.16,15.76c-2-1.89-4.61-1.63-7.13-1-2.19.59-4.39,2.76-4.56,4.87-.24,2.92.46,6.23,3.84,8.14,1.25.71.26-1.52,2-1.59.54,0-.2-1.39.19-1.53.28.15,2.49-.91,4.86-1.59.17-.05.46-1.45.63-1.5s.33,1.22.54,1.16a9.45,9.45,0,0,0,2.12-.92C89.23,19.72,87.59,17.11,86.16,15.76Z"/><path class="cls-3" d="M79.45,25.67c.84.84,1.11,1.93.6,2.42s-1.59.23-2.43-.61-1.1-1.93-.6-2.43S78.61,24.83,79.45,25.67Z"/><path class="cls-10" d="M76.53,34.11S87.12,41.46,84.65,60c0,0-.63,8.82-2.59,13,0,0,4-30-9-36.68Z"/><path class="cls-4" d="M73,48.87C74.78,53,70.6,68,70.6,68c0,2.19,1.41,3.44,3.26,4.15.68-3.48,2.39-8.84,3.15-15.82,1.9-17.34-4.42-19.7-4.49-19.77C65,40.93,71.39,45,73,48.87Z"/><path class="cls-3" d="M59.51,59.71s-4.93,0-7.77-1.48-2.94-3-2.89-3.5,4.52,1.22,5,.86-.41-2.08-.56-2.44,1.62-.15,2.48.91a37.87,37.87,0,0,0,4.08,3.51S61,59.26,59.51,59.71Z"/><path class="cls-5" d="M71.14,37.89c-4.16.91-5.27,14.26-6.28,19.85a33,33,0,0,0-6.41-1.38c.81,1.83-1.12,3.51-1.12,3.51a47.22,47.22,0,0,0,8.53,4.52,3.08,3.08,0,0,0,2.6,0c2-.44,3.77-8.88,5.62-17.93C76,37,71.14,37.89,71.14,37.89Z"/><path class="cls-10" d="M64.87,57.74a33,33,0,0,0-6.41-1.38,2.27,2.27,0,0,1,.19,1.08c2.3,1.26,7.24,4.07,7.29,1.85s4.19-17,5.37-21.42C66.68,38.41,65.87,52.18,64.87,57.74Z"/><polygon class="cls-1" points="251.17 110.87 220.72 93.17 241.37 81.25 198.74 56.48 158.24 79.86 158.24 79.86 112.71 106.15 107.47 109.18 150.09 133.95 175.19 119.46 205.64 137.15 251.17 110.87"/><g class="cls-14"><polygon class="cls-15" points="222.32 86.12 224.39 84.92 224.52 36.93 222.46 38.13 222.32 86.12"/><polygon class="cls-16" points="222.46 38.13 224.52 36.93 196.63 20.82 194.56 22.02 222.46 38.13"/><polygon class="cls-17" points="194.56 22.02 194.43 70.01 222.32 86.12 222.46 38.13 194.56 22.02"/></g><g class="cls-14"><polygon class="cls-15" points="152.85 126.96 154.92 125.76 155.06 77.77 152.99 78.97 152.85 126.96"/><polygon class="cls-16" points="152.99 78.97 155.06 77.77 127.16 61.66 125.09 62.86 152.99 78.97"/><polygon class="cls-17" points="125.09 62.86 124.95 110.85 152.85 126.96 152.99 78.97 125.09 62.86"/></g><g class="cls-14"><polygon class="cls-18" points="112.6 66.11 112.6 69.17 148.57 90.06 148.56 87.01 112.6 66.11"/><polygon class="cls-19" points="148.56 87.01 148.57 90.06 230.45 42.79 230.44 39.74 148.56 87.01"/><polygon class="cls-20" points="112.6 66.11 148.56 87.01 230.44 39.74 194.47 18.84 112.6 66.11"/></g><g class="cls-21"><path d="M126.57,64.32c1.84,1.06,1.85,2.78,0,3.84a7.29,7.29,0,0,1-6.62,0c-1.84-1.06-1.85-2.78,0-3.83A7.29,7.29,0,0,1,126.57,64.32Z"/></g><path class="cls-22" d="M125.77,63.94c1.39.81,1.4,2.11,0,2.92a5.55,5.55,0,0,1-5,0c-1.39-.8-1.4-2.11,0-2.91A5.54,5.54,0,0,1,125.77,63.94Z"/><polygon class="cls-22" points="118.58 59.78 119.71 65.59 126.81 65.59 127.95 59.64 118.58 59.78"/><path class="cls-23" d="M126.57,57.72c1.84,1.06,1.85,2.78,0,3.84a7.3,7.3,0,0,1-6.62,0c-1.84-1.06-1.85-2.78,0-3.83A7.3,7.3,0,0,1,126.57,57.72Z"/><path class="cls-24" d="M125.55,58.23c1.35.78,1.35,2,0,2.81a5.34,5.34,0,0,1-4.84,0c-1.34-.78-1.35-2,0-2.81A5.35,5.35,0,0,1,125.55,58.23Z"/><path class="cls-24" d="M119.77,60s-3.45-4.37-.06-12.23c0,0,3,3.76,1.27,13.41A2.72,2.72,0,0,1,119.77,60Z"/><path class="cls-25" d="M119.75,47.82c.07,3,.24,8.28.65,13a2.1,2.1,0,0,0,.58.39C122.57,52.18,120.09,48.31,119.75,47.82Z"/><path class="cls-24" d="M121.47,59.46s-2.77-4.83,1.76-12.1c0,0,2.39,4.17-.73,13.45A2.73,2.73,0,0,1,121.47,59.46Z"/><path class="cls-25" d="M123,47.35c-.38,3-1,8.22-1.28,12.92a2.06,2.06,0,0,0,.52.47C125.14,52.08,123.26,47.88,123,47.35Z"/><path class="cls-24" d="M121.64,61.37s-4.14-1.46-5.18-8.14c0,0,3.58,1.26,6.49,8.42A2.14,2.14,0,0,1,121.64,61.37Z"/><path class="cls-25" d="M116.52,53.25c1.31,2,3.64,5.43,5.88,8.38a1.63,1.63,0,0,0,.55,0C120.23,55,117,53.43,116.52,53.25Z"/><path class="cls-24" d="M123.48,60.72s-2.22-2.54-.4-7.38c0,0,1.92,2.18,1.17,8.06A1.64,1.64,0,0,1,123.48,60.72Z"/><path class="cls-25" d="M123.11,53.37c.13,1.82.39,5,.78,7.81a1.27,1.27,0,0,0,.36.22C124.94,55.92,123.33,53.66,123.11,53.37Z"/><path class="cls-24" d="M124.47,59.1s-2.12-3.85,1.54-9.52c0,0,1.83,3.32-.75,10.6A2.13,2.13,0,0,1,124.47,59.1Z"/><path class="cls-25" d="M126,49.63c-.34,2.36-.89,6.47-1.17,10.17a1.56,1.56,0,0,0,.4.38C127.67,53.38,126.24,50,126,49.63Z"/><path class="cls-24" d="M125,59.82s-.5-3.24,3.52-6.29c0,0,.44,2.8-3.24,7.24A1.59,1.59,0,0,1,125,59.82Z"/><path class="cls-25" d="M128.54,53.57c-.85,1.57-2.28,4.31-3.43,6.83a1.13,1.13,0,0,0,.18.37C128.72,56.63,128.57,53.92,128.54,53.57Z"/><polygon class="cls-26" points="194.39 39.96 207.21 47.41 217.15 41.67 204.33 34.23 194.39 39.96"/><polygon class="cls-27" points="198.12 40.45 198.43 40.63 201.44 38.89 201.13 38.71 198.12 40.45"/><polygon class="cls-27" points="199.33 41.15 199.64 41.33 204.11 38.75 203.8 38.57 199.33 41.15"/><polygon class="cls-27" points="198.72 40.8 199.03 40.98 202.95 38.72 202.64 38.54 198.72 40.8"/><polygon class="cls-27" points="202.47 37.24 205.06 38.74 207.37 37.41 204.78 35.9 202.47 37.24"/><polygon class="cls-27" points="200.54 41.86 200.85 42.04 204.76 39.78 204.45 39.6 200.54 41.86"/><polygon class="cls-27" points="199.93 41.51 200.24 41.69 203.26 39.95 202.95 39.77 199.93 41.51"/><polygon class="cls-27" points="197.51 40.1 197.82 40.28 202.3 37.7 201.99 37.52 197.51 40.1"/><polygon class="cls-27" points="204.05 43.92 204.36 44.1 207.37 42.35 207.06 42.18 204.05 43.92"/><polygon class="cls-27" points="205.26 44.62 205.56 44.8 210.04 42.22 209.73 42.04 205.26 44.62"/><polygon class="cls-27" points="204.65 44.27 204.96 44.45 208.88 42.19 208.57 42.01 204.65 44.27"/><polygon class="cls-27" points="206.46 45.33 206.78 45.51 210.69 43.24 210.38 43.06 206.46 45.33"/><polygon class="cls-27" points="205.86 44.97 206.17 45.15 209.18 43.41 208.88 43.23 205.86 44.97"/><polygon class="cls-27" points="203.44 43.57 203.75 43.75 208.23 41.16 207.92 40.98 203.44 43.57"/><polygon class="cls-27" points="203.07 38.93 215.88 46.38 225.82 40.63 213.01 33.19 203.07 38.93"/><polygon class="cls-28" points="206.46 39.24 206.77 39.42 209.78 37.68 209.48 37.5 206.46 39.24"/><polygon class="cls-28" points="207.67 39.95 207.98 40.13 212.46 37.54 212.15 37.36 207.67 39.95"/><polygon class="cls-28" points="207.07 39.6 207.38 39.77 211.29 37.51 210.98 37.34 207.07 39.6"/><polygon class="cls-28" points="210.81 36.03 213.4 37.53 215.71 36.2 213.13 34.7 210.81 36.03"/><polygon class="cls-28" points="208.88 40.65 209.19 40.83 213.11 38.57 212.8 38.39 208.88 40.65"/><polygon class="cls-28" points="208.28 40.3 208.59 40.48 211.6 38.74 211.29 38.56 208.28 40.3"/><polygon class="cls-28" points="205.85 38.89 206.17 39.07 210.64 36.49 210.33 36.31 205.85 38.89"/><g class="cls-14"><polygon class="cls-29" points="186.06 47.48 186.06 48.6 189.61 50.67 189.61 49.55 186.06 47.48"/><polygon class="cls-30" points="181.69 50 181.69 51.12 186.06 48.6 186.06 47.48 181.69 50"/><polygon class="cls-31" points="181.69 50 181.69 51.12 185.25 53.19 185.24 52.07 181.69 50"/><polygon class="cls-32" points="185.24 52.07 185.25 53.19 189.61 50.67 189.61 49.55 185.24 52.07"/><polygon class="cls-29" points="197.02 53.86 197.02 54.97 198.19 55.65 198.19 54.54 197.02 53.86"/><polygon class="cls-30" points="192.65 56.38 192.66 57.49 197.02 54.97 197.02 53.86 192.65 56.38"/><polygon class="cls-33" points="192.65 56.38 193.82 57.06 198.19 54.54 197.02 53.86 192.65 56.38"/><polygon class="cls-32" points="193.82 57.06 193.82 58.17 198.19 55.65 198.19 54.54 193.82 57.06"/><polygon class="cls-31" points="192.65 56.38 192.66 57.49 193.82 58.17 193.82 57.06 192.65 56.38"/><polygon class="cls-29" points="180.66 50.6 180.66 51.72 193.08 58.93 193.07 57.81 180.66 50.6"/><polygon class="cls-30" points="164.22 60.09 164.23 61.2 180.66 51.72 180.66 50.6 164.22 60.09"/><polygon class="cls-34" points="176.64 67.3 176.64 68.42 193.08 58.93 193.07 57.81 176.64 67.3"/><polygon class="cls-35" points="164.22 60.09 164.23 61.2 176.64 68.42 176.64 67.3 164.22 60.09"/><polygon class="cls-36" points="164.22 60.09 176.64 67.3 193.07 57.81 180.66 50.6 164.22 60.09"/><path class="cls-37" d="M200.4,54.86,176.59,68.61l-14.36-8.34L186,46.52ZM176.64,67.3l16.44-9.49L180.66,50.6l-16.44,9.49,12.41,7.21Zm8.61-15.23,4.37-2.52-3.55-2.07L181.69,50l3.55,2.07Zm8.58,5,4.37-2.52L197,53.86l-4.37,2.52,1.17.68Z"/><polygon class="cls-33" points="181.69 50 185.24 52.07 189.61 49.55 186.06 47.48 181.69 50"/><polygon class="cls-29" points="162.23 60.27 162.23 61.38 176.59 69.72 176.59 68.61 162.23 60.27"/><polygon class="cls-30" points="176.59 68.61 176.59 69.72 200.4 55.97 200.4 54.86 176.59 68.61"/></g><path class="cls-38" d="M221.39,47.59c-3-.74-5.56,8.42-10.5,15.15L199.7,55.2c-3.06,1.41-1.94,2.08-1.94,2.08a30.16,30.16,0,0,0,12.36,11.44h0a4.41,4.41,0,0,0,2.32.36c5.64-2.81,8.81-8.59,11.33-15.71C225.57,48.27,221.39,47.59,221.39,47.59Z"/><path class="cls-39" d="M221.73,45.75s10,2.35,0,17c0,0-6.87,1-8.44-5.44C213.3,57.36,216.66,45.16,221.73,45.75Z"/><path class="cls-38" d="M199.74,55.11s-4-5-8.6-4.47c0,0-.15,1.37,1.77,2.12a3.81,3.81,0,0,1,2.42,2.9c0,.28-1.62.25-2.32.2s-1.67,1,0,1.31,4.48,1.43,6.17,1.2C199.19,58.37,201.07,56.49,199.74,55.11Z"/><path class="cls-40" d="M214.72,113.83a1.05,1.05,0,0,1-.62.87l-19.82,11.44a2.83,2.83,0,0,1-.69.26h0a3.58,3.58,0,0,1-.76.09h0a3.33,3.33,0,0,1-.73-.09l-.08,0a2.81,2.81,0,0,1-.65-.25,1.71,1.71,0,0,1-.23-.17l0,0a1,1,0,0,1-.18-.2h0a1.24,1.24,0,0,1-.11-.21v0a.94.94,0,0,1,0-.21v1.48a.5.5,0,0,0,0,.12.6.6,0,0,0,0,.08v0s0,0,0,0a.57.57,0,0,0,.06.12l0,0,0,0,0,0,.13.14h0l.15.11.11.08h0a2.36,2.36,0,0,0,.47.21l.19.05H192l.13,0,.27,0h.66l.2,0,.21,0,.21-.05.26-.09a2.22,2.22,0,0,0,.3-.15l19.82-11.44a1.05,1.05,0,0,0,.62-.87Z"/><path class="cls-40" d="M215.87,124.76a.11.11,0,0,1,0,0,1.09,1.09,0,0,1-.09.19l0,0a1,1,0,0,1-.17.19l-.15.11-.12.09a2.55,2.55,0,0,1-.64.25l-.11,0a3.32,3.32,0,0,1-.71.08h-.05a3.23,3.23,0,0,1-.74-.09H213a2.61,2.61,0,0,1-.68-.26L192.5,114a1.06,1.06,0,0,1-.63-.87v1.47a1.07,1.07,0,0,0,.62.87l19.82,11.44.31.15.26.09.13,0h0l.07,0,.21,0,.21,0h.43l.23,0,.27,0,.12,0,.09,0,.19,0a2.61,2.61,0,0,0,.46-.2h0l.11-.08.14-.11h0a1,1,0,0,0,.13-.14l0,0,0,0,0-.06a.86.86,0,0,0,.06-.13v0l0-.08a.69.69,0,0,0,0-.12v-1.49A.66.66,0,0,1,215.87,124.76Z"/><path class="cls-41" d="M215.29,123.68a.92.92,0,0,1,0,1.73,3.28,3.28,0,0,1-3,0L192.5,114c-.83-.48-.84-1.25,0-1.73a3.29,3.29,0,0,1,3,0Z"/><path class="cls-42" d="M181.33,104.69s-2.52.84-1.64,2.23,4.26,3.15,4.82,4,3.57,3.84,4.3,3.38,2.85-.32,2-4.13S184.76,103.94,181.33,104.69Z"/><path class="cls-43" d="M180.45,78.09s-4.06,1.67.68,22.14L183.62,111s2.62,4,8.15,0L189,88.52Z"/><path class="cls-42" d="M184.72,115.19s1.67,3.59-1.41,4.8-2.34-.87-9,1.6-7.88-1-7.8-1.81,4.52-2.72,6-3.28,5.41-2.14,5.41-2.14l7-.31Z"/><path class="cls-43" d="M173.4,83.37s-3,1.41,1.61,21.32c2.49,10.77,2.49,10.77,2.49,10.77s2.63,4,8.15,0L182.93,93Z"/><path class="cls-44" d="M183.39,96.76l-2.6-1.33,2.36,21.41a10.29,10.29,0,0,0,2.51-1.37Z"/><path class="cls-44" d="M190.57,101.12l-3.38-3.21,2.7,14.21a11.09,11.09,0,0,0,1.88-1.11Z"/><path class="cls-41" d="M191.31,124.41a.91.91,0,0,0,0,1.73,3.27,3.27,0,0,0,3,0L214.1,114.7a.91.91,0,0,0,0-1.73,3.3,3.3,0,0,0-3,0Z"/><path class="cls-42" d="M206.44,103.76h0a1.26,1.26,0,0,0-.74-1,4,4,0,0,0-3.64,0,1.2,1.2,0,0,0-.73,1.25.89.89,0,0,1,0-.18v0l0,14.7a1.06,1.06,0,0,0,0,.15l0,.09v.05a.5.5,0,0,0,.07.15l0,.07,0,.05,0,0a1.12,1.12,0,0,0,.16.17h0a1.7,1.7,0,0,0,.21.15l.11.08,0,0a3.06,3.06,0,0,0,.56.24l.22.06.12,0,.13,0,.33,0,.28,0H204l.25,0,.25,0,.26,0,.09,0h0l.16,0,.32-.11a2.73,2.73,0,0,0,.37-.18,1.27,1.27,0,0,0,.75-1.06Zm-4.51,1h0l.12.09Zm-.58-.68a.91.91,0,0,0,.1.19.91.91,0,0,1-.1-.19Zm.15.29a1.14,1.14,0,0,0,.13.14l-.13-.14Z"/><path class="cls-45" d="M200.94,107a1.38,1.38,0,0,0-.17-.27v0a3.45,3.45,0,0,0-.24-.29l-.22-.23-.15-.15c-.19-.19-.42-.4-.67-.62l-.16-.13-.76-.62-.14-.11-1-.76-.28-.2-1-.71-.2-.14-1.26-.84-.39-.26-1.22-.79-.21-.13-1.47-.91-.42-.25-1.59-.94c-.79-.46-1.57-.9-2.32-1.3l-.13-.07q-1.06-.58-2-1.08l-.18-.09c-.64-.32-1.23-.61-1.8-.88l-.17-.08q-.85-.4-1.59-.7l-.12,0-1-.37-.19-.06c-.28-.1-.55-.19-.78-.25l-.15,0-.36-.08-.2,0H178a.5.5,0,0,0-.19.06h0L199.49,81h0l.05,0h.57l.07,0,.4.09.08,0h0c.24.06.51.15.8.26l.16.06,1,.38h0l.05,0q.74.31,1.59.71l.22.1c.54.25,1.12.53,1.72.84l.29.14,1.91,1,.25.14q1.11.6,2.29,1.28l1.58.94.42.25,1.46.9.23.15,1.21.77.4.26,1.25.84.23.16,1,.68.31.22,1,.74.19.15.7.57.2.17c.24.21.46.4.64.59l0,0,.16.17.17.17,0,0h0l.16.18.06.07s0,0,0,0h0l.07.1,0,0,0,.05,0,0,0,0,0,0,0,0a.09.09,0,0,0,0,0,.29.29,0,0,1,0,0,.28.28,0,0,1,0,0,.08.08,0,0,1,0,0,.22.22,0,0,1-.11.2l-21.64,12.57a.22.22,0,0,0,.11-.19.54.54,0,0,0-.06-.23Z"/><path class="cls-46" d="M189.37,98.62c-6.43-3.71-11.63-5.88-11.63-4.84s5.19,4.88,11.62,8.59S201,108.25,201,107.21,195.8,102.33,189.37,98.62Z"/><path class="cls-43" d="M220.58,89.2s-.73,10.28-12,7.2-19-6.1-19-6.1-14.37-9.9-8.7-12.44C180.86,77.87,186.08,72.63,220.58,89.2Z"/><path class="cls-43" d="M220.58,89.2s-.73,10.28-12,7.2-19-6.1-19-6.1-14.37-9.9-8.7-12.44C180.86,77.87,186.08,72.63,220.58,89.2Z"/><path class="cls-43" d="M214.47,93.67s-.72,10.29-12,7.2-24.09-9.64-24.09-9.64-9.31-6.36-3.64-8.89C174.75,82.34,180,77.1,214.47,93.67Z"/><path class="cls-47" d="M174.75,82.34c-1.38.62-1.87,1.47-1.82,2.39,8.82.07,28.37,6.77,28.37,6.77l.16-3.65C178.61,78.5,174.75,82.34,174.75,82.34Z"/><path class="cls-48" d="M181.25,77.37c-1.39.62-1.87,1.46-1.82,2.39,8.82.07,28.37,6.77,28.37,6.77l.16-3.65C185.11,73.53,181.25,77.37,181.25,77.37Z"/><path class="cls-39" d="M222.15,45.77s4.78,2.5,1.88,10.65-4.93,13.41-4.83,16.47,1,13.37,1.62,15.47c0,0,.67,6.76-14.84,10.48,0,0-12.73,1-10.47-7.28s3.33-21.8,3.08-25-2.06-9.69,6.06-13.87S217,45.35,222.15,45.77Z"/><path class="cls-49" d="M198.58,66.53c.26,3.22-.82,16.71-3.08,25-1.56,5.77,4.07,7,7.68,7.28,1.23-3.71-.59-10.4,2.25-18.5,3.51-10,3.18-16.66,1.51-22.06-1.08-3.5-3.17-3.63-4.65-4.15C196.9,58.23,198.35,63.66,198.58,66.53Z"/><path class="cls-50" d="M220.82,88.36c-.6-2.1-1.52-12.42-1.62-15.47s2-8.3,4.83-16.47c2.67-7.72-.23-9.81-1.88-10.65-.93,4-14.89,5.43-14.61,8.13.32,3,4,5.87,4.1,11.23a79.1,79.1,0,0,1-1.76,17.22c-.89,3.43-.64,11.77.06,15.37C221.38,93.92,220.82,88.36,220.82,88.36Z"/><path class="cls-38" d="M216.52,41.6s-.6,4.27.82,7c1.29,2.46-8.85,4.48-9,2.22a9.66,9.66,0,0,0-.36-8.31C206.71,40.18,216.52,41.6,216.52,41.6Z"/><path class="cls-51" d="M217.29,48.73a12.66,12.66,0,0,1-.89-6.24L209,46v0c.27.07,5.22,1.43,6.22,5C216.71,50.47,217.75,49.63,217.29,48.73Z"/><path class="cls-38" d="M206.12,30a18.31,18.31,0,0,0-1.4,7.21c.27,3.61-.29,4.33-.09,5.93a3.83,3.83,0,0,0,.77,2.38c1.09,1.09,3.38,1.54,6.51.46,3.78-1.3,7.85-6.39,6.33-11.07S211.85,26.34,206.12,30Z"/><path class="cls-52" d="M218,40c-1.42-4.21-5.06-9.3-5-9.56a11.84,11.84,0,0,0-2.6-1.82A8.4,8.4,0,0,0,206.12,30a20.56,20.56,0,0,0-.83,2.49c.88,1,2.68,2.19,2.93,3a10.87,10.87,0,0,1-.44,6.37c-.62,1.33,1.76,3.34,1.22,4.52a.3.3,0,0,0,0,.16A10.54,10.54,0,0,0,211.9,46,10.9,10.9,0,0,0,218,40Z"/><path class="cls-53" d="M205,28.4a4.8,4.8,0,0,0,2.65,5c1.95,1,1.71,4.18,1.6,4.77s-.74,3.26-.5,3.61c.45.67,2-1.36,2.76-1.21,1.86.4,1.1,2.13-.64,3.92s2.9,2.79,5.12,1.24c1.19-.83,1.63-1.33,3.21-4.35,2.32-4.4,2.54-9.74-2.66-12.69S208.28,29.75,205,28.4Z"/><path class="cls-54" d="M216,45.72c1.19-.83,1.63-1.33,3.21-4.35,2.32-4.4,2.54-9.74-2.66-12.69s-8.31,1.07-11.55-.28a4.79,4.79,0,0,0,0,1.34c1.66.3,6.2,1.29,7.34,3.27,1.4,2.44,3,1.7,2.84,4.69s.5,6.68-4.39,8.22C212.61,47.26,215.17,46.33,216,45.72Z"/><path class="cls-38" d="M203.34,56.09c-3-.74-5.57,8.42-10.5,15.15l-11.2-7.53c-3.06,1.4-1.94,2.08-1.94,2.08a30.2,30.2,0,0,0,12.36,11.45h0a4.4,4.4,0,0,0,2.32.36c5.64-2.81,8.81-8.59,11.33-15.71C207.52,56.78,203.34,56.09,203.34,56.09Z"/><path class="cls-39" d="M203.68,54.25s10,2.35,0,17c0,0-6.87,1-8.44-5.43C195.24,65.86,198.6,53.66,203.68,54.25Z"/><path class="cls-38" d="M180,66.24s-5.66-2.21-7.1-6.66c0,0,1-.57,2.43,1a3.59,3.59,0,0,0,3.32,1.36c.2-.13-.45-1.59-.78-2.24s.12-1.87,1.06-.4,3,3.75,3.47,5.41C182.43,64.69,181.68,67,180,66.24Z"/><path class="cls-46" d="M206.79,77.86c-.67-.69-2.49,5.42-4.07,13.63s-2.34,15.42-1.68,16.11,2.49-5.42,4.08-13.63S207.46,78.55,206.79,77.86Z"/><path class="cls-55" d="M228.62,63.27a1.47,1.47,0,0,0,0-.23.58.58,0,0,0,0-.12.22.22,0,0,1,0-.06.15.15,0,0,0,0-.06.12.12,0,0,0,0,0l0,0v-.11l0,0v0h0l0,0h-.16l0,0h0l-21.63,15.3h0a.22.22,0,0,1,.12,0h0a.17.17,0,0,1,.11.05h0V78s0,0,0,0l0,0v0a.16.16,0,0,1,0,0v.05a.4.4,0,0,0,0,.06l0,.12c0,.07,0,.15,0,.23.22,2.12-.53,8.4-1.88,15.4-1.43,7.39-3,13.08-3.84,13.64L222.7,95.09c.79-.56,2.61-9,4-16.42C228.1,71.67,228.85,65.4,228.62,63.27Z"/><polygon class="cls-56" points="186.64 56.42 189.27 56.43 188.73 56.38 186.64 56.42"/><polygon class="cls-37" points="186.64 56.42 188.73 56.38 188.46 54.92 186.64 56.42"/><polygon class="cls-30" points="197.25 53.38 188.73 56.38 189.27 56.43 197.79 53.43 197.25 53.38"/><polygon class="cls-37" points="196.84 52.63 188.32 55.62 188.73 56.38 197.25 53.38 196.84 52.63"/><polygon class="cls-36" points="196.98 51.92 188.46 54.92 188.32 55.62 196.84 52.63 196.98 51.92"/><polygon class="cls-37" points="196.84 52.63 197.25 53.38 197.79 53.43 197.92 52.72 197.51 51.97 196.98 51.92 196.84 52.63"/><polygon class="cls-30" points="197.19 52.69 197.37 53.02 197.6 53.05 197.66 52.73 197.48 52.4 197.25 52.38 197.19 52.69"/><polygon class="cls-36" points="186.64 56.42 188.32 55.62 188.46 54.92 186.64 56.42"/><polygon class="cls-57" points="186.99 56.26 186.64 56.42 187.01 56.12 186.99 56.26"/><polygon class="cls-58" points="186.99 56.26 187.07 56.43 186.64 56.42 186.99 56.26"/><g class="cls-14"><polygon class="cls-59" points="139.24 65.52 138.53 67.14 138.81 67.19 144.02 67.95 145.23 68.13 145.79 68.21 147.88 63.47 145.37 63.1 146.78 63.31 144.68 68.05 139.92 67.35 142.02 62.61 140.62 62.41 139.24 65.52"/><polygon class="cls-60" points="142.02 62.61 139.92 67.35 144.68 68.05 146.78 63.31 145.37 63.1 142.02 62.61"/><polygon class="cls-61" points="147.88 63.47 145.79 68.21 150.44 68.89 150.55 68.91 152.64 64.17 147.88 63.47"/><polygon class="cls-62" points="138.81 67.19 138.6 67.33 142.46 69.09 144.02 67.95 138.81 67.19"/><polygon class="cls-59" points="153.75 64.33 152.64 64.17 150.55 68.91 151.65 69.07 153.75 64.33"/><polygon class="cls-63" points="153.78 64.34 151.66 69.07 156.42 69.77 158.51 65.03 153.78 64.34"/><polygon class="cls-64" points="137.1 67.31 138.99 69.94 142.46 69.09 138.05 67.08 137.1 67.31"/><polygon class="cls-65" points="159.62 65.19 157.53 69.93 158.07 70.01 158.11 70.02 162.28 70.63 164.38 65.89 162.45 65.61 159.62 65.19"/><polygon class="cls-59" points="159.62 65.19 158.51 65.03 156.42 69.77 156.86 69.83 157.53 69.93 159.62 65.19"/><polygon class="cls-59" points="139.24 65.52 138.5 66.06 137.47 66.81 138.05 67.08 142.46 69.09 143.48 69.56 147.88 71.58 148.91 72.04 150 72.54 157.65 76.04 162.89 72.2 158.11 70.02 161.93 71.76 156.69 75.6 152.85 73.84 158.07 70.01 157.53 69.93 156.86 69.83 151.95 73.43 148.1 71.67 151.65 69.07 150.55 68.91 150.44 68.89 147.2 71.26 143.35 69.5 145.23 68.13 144.02 67.95 142.46 69.09 138.6 67.33 138.81 67.19 138.53 67.14 139.24 65.52"/><polygon class="cls-59" points="138.05 67.08 137.47 66.81 138.5 66.06 136.54 66.54 139.42 70.55 143.48 69.56 142.46 69.09 138.99 69.94 137.1 67.31 138.05 67.08"/><polygon class="cls-59" points="162.45 65.61 164.38 65.89 162.28 70.63 163.47 70.8 165.56 66.06 162.45 65.61"/><polygon class="cls-66" points="145.23 68.13 143.35 69.5 147.2 71.26 150.44 68.89 145.79 68.21 145.23 68.13"/><polygon class="cls-67" points="151.66 69.07 148.1 71.67 151.95 73.43 156.86 69.83 156.42 69.77 151.66 69.07"/><polygon class="cls-68" points="141.75 73.78 142.98 75.5 143.63 76.41 151.42 74.52 150 72.54 148.91 72.04 141.75 73.78"/><polygon class="cls-59" points="142.98 75.5 141.75 73.78 148.91 72.04 147.88 71.58 141.31 73.17 139.81 71.08 142.98 75.5"/><polygon class="cls-69" points="158.07 70.01 152.85 73.84 156.69 75.6 161.93 71.76 158.11 70.02 158.07 70.01"/><polygon class="cls-70" points="144.07 77.02 145.95 79.64 153.74 77.75 152.32 75.78 151.86 75.13 144.07 77.02"/><polygon class="cls-59" points="143.63 76.41 146.43 80.3 154.21 78.41 152.32 75.78 153.74 77.75 145.95 79.64 144.07 77.02 151.86 75.13 150 72.54 151.42 74.52 143.63 76.41"/></g><polygon class="cls-71" points="139.42 70.55 139.81 71.08 141.31 73.17 147.88 71.58 143.48 69.56 139.42 70.55"/><g class="cls-21"><polygon points="166.13 43.61 175.6 49.12 198.03 36.16 188.56 30.66 166.13 43.61"/></g><g class="cls-14"><polygon class="cls-72" points="170.75 41.49 170.76 42.83 177.32 46.65 177.32 45.3 170.75 41.49"/><polygon class="cls-73" points="177.32 45.3 177.32 46.65 192.87 37.67 192.87 36.33 177.32 45.3"/><polygon class="cls-74" points="170.75 41.49 177.32 45.3 192.87 36.33 186.3 32.51 170.75 41.49"/><polygon class="cls-75" points="170.75 41.49 192.87 36.33 192.87 36.33 186.3 32.51 170.75 41.49"/></g><g class="cls-14"><polygon class="cls-72" points="176.81 42.79 175.65 42.12 175.62 29.98 176.78 30.66 176.81 42.79"/><polygon class="cls-26" points="176.78 30.66 175.62 29.98 186.18 23.88 187.34 24.56 176.78 30.66"/><polygon class="cls-76" points="187.34 24.56 187.38 36.7 176.81 42.79 176.78 30.66 187.34 24.56"/></g><polygon class="cls-77" points="166.18 42.71 165.06 42.39 160.23 18.6 161.35 18.91 166.18 42.71"/><polygon class="cls-78" points="161.35 18.91 160.23 18.6 191.61 0.48 192.73 0.8 161.35 18.91"/><polygon class="cls-76" points="192.73 0.8 197.56 24.59 166.18 42.71 161.35 18.91 192.73 0.8"/><polygon class="cls-79" points="191.89 2.69 196.18 24.13 167.13 40.93 162.67 19.23 191.89 2.69"/><polygon class="cls-80" points="188.16 9.7 190.95 23.65 172.04 34.6 169.13 20.46 188.16 9.7"/><polygon class="cls-81" points="188.18 14.33 188.3 14.95 177.71 21.35 177.59 20.75 188.18 14.33"/><polygon class="cls-81" points="187.92 12.66 188.04 13.28 177.44 19.68 177.33 19.08 187.92 12.66"/><polygon class="cls-81" points="188.98 18.1 189.1 18.72 178.5 25.12 178.38 24.51 188.98 18.1"/><polygon class="cls-81" points="188.72 16.43 188.84 17.05 178.24 23.45 178.13 22.84 188.72 16.43"/><polygon class="cls-81" points="165.5 18.91 165.73 20.1 164.13 21.02 163.88 19.83 165.5 18.91"/><polygon class="cls-81" points="166.22 21.97 166.46 23.15 164.86 24.08 164.61 22.88 166.22 21.97"/><polygon class="cls-81" points="166.87 25.26 167.11 26.44 165.5 27.37 165.26 26.17 166.87 25.26"/><polygon class="cls-81" points="167.4 28.26 167.63 29.44 166.03 30.37 165.78 29.17 167.4 28.26"/><path class="cls-81" d="M170.79,21.05l5-2.61L177,24.82l-5,2.61Zm1.34,5.42,4.44-2.33a1.93,1.93,0,0,0-1.76-1.48,1.81,1.81,0,0,0,0-.72c-.14-.71-.72-1.05-1.29-.75a1.78,1.78,0,0,0-.78,1.84,1.19,1.19,0,0,0,.27.57,4.12,4.12,0,0,0-.9,2.88Z"/><path class="cls-81" d="M173.54,21.18c.57-.3,1.15,0,1.29.75a1.81,1.81,0,0,1,0,.72,1.93,1.93,0,0,1,1.76,1.48l-4.44,2.33a4.12,4.12,0,0,1,.9-2.88,1.19,1.19,0,0,1-.27-.57A1.78,1.78,0,0,1,173.54,21.18Z"/><g class="cls-21"><polygon points="133.08 62.56 142.54 68.07 164.98 55.11 155.51 49.61 133.08 62.56"/></g><g class="cls-14"><polygon class="cls-72" points="137.7 60.44 137.7 61.79 144.27 65.6 144.27 64.25 137.7 60.44"/><polygon class="cls-73" points="144.27 64.25 144.27 65.6 159.82 56.62 159.81 55.27 144.27 64.25"/><polygon class="cls-74" points="137.7 60.44 144.27 64.25 159.81 55.27 153.25 51.46 137.7 60.44"/><polygon class="cls-75" points="137.7 60.44 159.81 55.27 159.81 55.27 153.25 51.46 137.7 60.44"/></g><g class="cls-14"><polygon class="cls-72" points="143.77 61.74 142.6 61.06 142.57 48.93 143.73 49.61 143.77 61.74"/><polygon class="cls-26" points="143.73 49.61 142.57 48.93 153.13 42.83 154.29 43.51 143.73 49.61"/><polygon class="cls-76" points="154.29 43.51 154.33 55.64 143.77 61.74 143.73 49.61 154.29 43.51"/></g><polygon class="cls-77" points="133.13 61.65 132 61.34 127.18 37.55 128.3 37.86 133.13 61.65"/><polygon class="cls-78" points="128.3 37.86 127.18 37.55 158.56 19.43 159.68 19.74 128.3 37.86"/><polygon class="cls-76" points="159.68 19.74 164.51 43.54 133.13 61.65 128.3 37.86 159.68 19.74"/><polygon class="cls-79" points="158.84 21.64 163.13 43.07 134.07 59.88 129.62 38.17 158.84 21.64"/><polygon class="cls-80" points="155.11 28.65 157.9 42.6 138.99 53.55 136.08 39.41 155.11 28.65"/><polygon class="cls-81" points="155.13 33.28 155.25 33.9 144.65 40.3 144.54 39.7 155.13 33.28"/><polygon class="cls-81" points="154.87 31.61 154.99 32.23 144.39 38.63 144.28 38.02 154.87 31.61"/><polygon class="cls-81" points="155.93 37.04 156.05 37.67 145.45 44.07 145.34 43.46 155.93 37.04"/><polygon class="cls-81" points="155.67 35.37 155.79 36 145.19 42.4 145.08 41.79 155.67 35.37"/><polygon class="cls-81" points="132.44 37.86 132.68 39.04 131.08 39.97 130.83 38.77 132.44 37.86"/><polygon class="cls-81" points="133.17 40.91 133.41 42.1 131.8 43.03 131.56 41.83 133.17 40.91"/><polygon class="cls-81" points="133.82 44.21 134.06 45.39 132.45 46.32 132.21 45.12 133.82 44.21"/><polygon class="cls-81" points="134.35 47.21 134.59 48.39 132.98 49.32 132.74 48.12 134.35 47.21"/><path class="cls-81" d="M137.74,40l5-2.61,1.24,6.38-5,2.61Zm1.34,5.42,4.44-2.34a1.93,1.93,0,0,0-1.76-1.48,1.79,1.79,0,0,0,0-.72c-.14-.71-.72-1.05-1.28-.75A1.78,1.78,0,0,0,139.7,42a1.23,1.23,0,0,0,.27.57,4.12,4.12,0,0,0-.9,2.88Z"/><path class="cls-81" d="M140.49,40.13c.57-.3,1.14,0,1.28.75a1.79,1.79,0,0,1,0,.72,1.93,1.93,0,0,1,1.76,1.48l-4.44,2.34a4.12,4.12,0,0,1,.9-2.88,1.23,1.23,0,0,1-.27-.57A1.78,1.78,0,0,1,140.49,40.13Z"/><path class="cls-82" d="M202.46,22.05c1.59.91,1.59,2.4,0,3.31a6.3,6.3,0,0,1-5.72,0c-1.58-.91-1.59-2.4,0-3.31A6.31,6.31,0,0,1,202.46,22.05Z"/><path class="cls-83" d="M202.46,22.05a6.31,6.31,0,0,0-5.72,0c-1.57.92-1.57,2.4,0,3.31a6.3,6.3,0,0,0,5.72,0C204.05,24.45,204,23,202.46,22.05Zm-.5,3a5.17,5.17,0,0,1-4.69,0c-1.3-.75-1.31-2,0-2.72a5.18,5.18,0,0,1,4.69,0C203.24,23.1,203.25,24.32,202,25.07Z"/><path class="cls-84" d="M197.26,17.78h0v0h0l0,0,0,0,0,0L197,18h0l-.15,0h-.17l-.15,0a.21.21,0,0,1-.15-.16l1.55,11.8a.22.22,0,0,0,.15.16l.07,0h.46l.09-.06h0l0,0,0,0h0l0,0h0v0h0v0h0l-1.55-11.8A.16.16,0,0,1,197.26,17.78Z"/><path class="cls-85" d="M197.1,17.58c.19.08.21.24.05.36a.69.69,0,0,1-.62.08.19.19,0,0,1,0-.36A.68.68,0,0,1,197.1,17.58Z"/><path class="cls-84" d="M204,18.48h0l0,0h0l0,0h-.23l-.15,0h0l-.15-.07h0l-.12-.1a.22.22,0,0,1-.07-.21l-3.64,11.34a.23.23,0,0,0,.07.21l.05,0,0,0h0l0,0h0l0,0h.45l0,0h0l0,0h0v0h0L204,18.44Z"/><path class="cls-85" d="M203.94,18.23c.13.15.09.3-.11.34a.68.68,0,0,1-.59-.19c-.14-.15-.09-.3.11-.34A.68.68,0,0,1,203.94,18.23Z"/><path class="cls-86" d="M200.65,16.83h0l0,0h0l0,0,0,0,0,0-.14.05h0l-.15,0h0l-.16,0h0l-.14-.05a.23.23,0,0,1-.13-.18l0,11.91a.22.22,0,0,0,.13.18l.06,0,.05,0h.41l.1,0h0l0,0h0l0,0h0v0h0v0a.07.07,0,0,0,0,0l0-11.91h0A.17.17,0,0,1,200.65,16.83Z"/><path class="cls-87" d="M200.53,16.61a.19.19,0,0,1,0,.36.69.69,0,0,1-.62,0,.19.19,0,0,1,0-.36A.69.69,0,0,1,200.53,16.61Z"/><path class="cls-88" d="M202.2,16.9h0l0,0h0l0,0,0,0h0l-.14,0h-.18l-.16,0h0l-.14-.07a.22.22,0,0,1-.11-.19L200.2,28.62a.23.23,0,0,0,.11.19l.06,0,.05,0h.41l.1,0h0l0,0h0l0,0h0v0h0v0l1.14-11.85h0Z"/><path class="cls-89" d="M202.1,16.66a.19.19,0,0,1,0,.36.68.68,0,0,1-.62-.06c-.16-.12-.15-.28,0-.36A.69.69,0,0,1,202.1,16.66Z"/><path class="cls-88" d="M198.49,18.69h0l0,0h0l0,0,0,0,0,0-.11.05h0l-.13,0H198l-.13,0a.19.19,0,0,1-.12-.15l.41,10.17a.19.19,0,0,0,.12.15l.05,0h.4l.08,0h0l0,0h0l0,0h0v0h0a.12.12,0,0,0,0,0l-.41-10.17h0A.09.09,0,0,1,198.49,18.69Z"/><path class="cls-89" d="M198.38,18.5a.16.16,0,0,1,0,.31.59.59,0,0,1-.53,0,.16.16,0,0,1,0-.31A.59.59,0,0,1,198.38,18.5Z"/><path class="cls-8" d="M200.11,18.53h0l0,0h0l0,0,0,0h0l-.14,0h-.18l-.15,0h0l-.13-.07a.22.22,0,0,1-.1-.2l-1.77,11.77a.23.23,0,0,0,.1.2l.06,0,0,0h.41l.1,0h0l0,0h0l0,0h0l0,0h0v0h0l1.77-11.77Z"/><path class="cls-9" d="M200,18.29a.19.19,0,0,1-.05.36.69.69,0,0,1-.62-.09.19.19,0,0,1,0-.36A.69.69,0,0,1,200,18.29Z"/><path class="cls-83" d="M196.76,25.37a6.3,6.3,0,0,0,5.72,0c1.09-.63,1.42-1.54,1-2.33h-.77c.45.69.2,1.49-.75,2a5.17,5.17,0,0,1-4.69,0c-1-.55-1.21-1.35-.77-2h-.76C195.32,23.83,195.66,24.73,196.76,25.37Z"/><path class="cls-90" d="M203.64,23.84s0,.08,0,.13l0,.1,0,.12,0,.1-.06.13-.06.09-.09.14-.1.13,0,0L203,25l-.13.1-.11.09-.15.1-.15.1-.38.19-.11,0-.32.12-.12,0-.21.06-.16,0-.22,0-.16,0-.46.06h-.14l-.27,0h-1l-.2,0-.18,0-.21,0-.17,0-.25-.06-.14,0-.43-.15-.21-.09-.1,0-.3-.16a2,2,0,0,1-1.19-1.67l0,7.94a2,2,0,0,0,1.2,1.67l.3.16.11,0,.18.08h0l.43.15h0l.1,0,.26.06.06,0,.1,0,.22,0h.18l.21,0h1l.28,0h.14l.46-.06h0l.13,0,.23,0,.16,0,.21-.06h0l.07,0,.32-.12.11,0,.38-.19.05,0,.1-.07.15-.1.11-.09.12-.1,0,0,.14-.15,0,0,.08-.09,0,0,.09-.14,0-.06v0l.06-.12,0-.08v0a1.17,1.17,0,0,0,0-.12l0-.09v0s0-.08,0-.12,0-.06,0-.09a.34.34,0,0,0,0,0l0-7.94S203.65,23.8,203.64,23.84Z"/><path class="cls-91" d="M112.76,119.06c-3.35,1.93-3.37,5.06,0,7a13.32,13.32,0,0,0,12.08,0c3.35-1.94,3.37-5.07,0-7A13.29,13.29,0,0,0,112.76,119.06Z"/><polygon class="cls-91" points="129.13 108.55 127.32 122.56 110.26 123.13 108.43 108.55 129.13 108.55"/><path class="cls-92" d="M111.48,104.32c-4,2.34-4.07,6.13,0,8.47a16.12,16.12,0,0,0,14.63,0c4.06-2.34,4.08-6.14,0-8.48A16.11,16.11,0,0,0,111.48,104.32Z"/><path class="cls-93" d="M112.53,104.93c-3.47,2-3.49,5.25,0,7.25a13.81,13.81,0,0,0,12.53,0c3.48-2,3.5-5.26,0-7.26A13.78,13.78,0,0,0,112.53,104.93Z"/><path class="cls-93" d="M129,94.27s-7.3,5.25-5.72,16.63C123.3,110.9,116.53,98.87,129,94.27Z"/><path class="cls-94" d="M127,90.57s-9.27,10.11-7.68,21.49C119.36,112.06,116.89,95.51,127,90.57Z"/><path class="cls-94" d="M101.07,98.4s13,4.34,17.15,15.05C118.22,113.46,112.33,97.79,101.07,98.4Z"/><path class="cls-94" d="M111.77,91.48S121,101.6,119.44,113C119.44,113,121.92,96.43,111.77,91.48Z"/><path class="cls-95" d="M105.55,104.07s7.33,1.41,10.34,6.9C115.89,111,111.59,102.94,105.55,104.07Z"/><path class="cls-95" d="M104.5,101.72S112.71,105,115,112.06C115,112.06,111.78,101.75,104.5,101.72Z"/><path class="cls-95" d="M135.89,100.86s-9.35.93-12.82,9.14C123.06,110,125.72,99,135.89,100.86Z"/><path class="cls-95" d="M112.08,97.83s8.34,4.33,8.53,13.25C120.6,111.07,122.23,99.82,112.08,97.83Z"/><path class="cls-96" d="M120.59,97.82a1.19,1.19,0,0,1,1.2-1.19,1.13,1.13,0,0,1,.34.06,1.07,1.07,0,0,1,.86-.45,1.08,1.08,0,0,1,1.08,1.08h.08a1.16,1.16,0,0,1,0,2.31,1.14,1.14,0,0,1-.37-.07,1.16,1.16,0,0,1-1,.61A1.18,1.18,0,0,1,121.59,99v0A1.18,1.18,0,0,1,120.59,97.82Z"/><circle class="cls-97" cx="122.87" cy="98.25" r="0.43"/><path class="cls-96" d="M124.42,102.72a1.19,1.19,0,0,1,1.19-1.19,1.16,1.16,0,0,1,.34.07,1,1,0,0,1,.85-.45,1.08,1.08,0,0,1,1.08,1.08v0l.08,0a1.16,1.16,0,1,1,0,2.31,1.14,1.14,0,0,1-.37-.07,1.16,1.16,0,0,1-1,.61,1.17,1.17,0,0,1-1.17-1.17v0A1.17,1.17,0,0,1,124.42,102.72Z"/><circle class="cls-97" cx="126.69" cy="103.15" r="0.43"/><path class="cls-96" d="M120.59,107.5a1.2,1.2,0,0,1,1.2-1.2,1.16,1.16,0,0,1,.34.07,1.07,1.07,0,0,1,.86-.46,1.08,1.08,0,0,1,1.08,1.08h.08a1.16,1.16,0,1,1-.37,2.24,1.16,1.16,0,0,1-2.19-.56v0A1.18,1.18,0,0,1,120.59,107.5Z"/><circle class="cls-97" cx="122.87" cy="107.93" r="0.43"/><path class="cls-96" d="M112.69,99.79a1.19,1.19,0,0,1,1.19-1.2,1.15,1.15,0,0,1,.34.07,1.07,1.07,0,0,1,.86-.46,1.08,1.08,0,0,1,1.08,1.08v0l.09,0a1.16,1.16,0,0,1,0,2.31,1.06,1.06,0,0,1-.37-.08,1.17,1.17,0,0,1-2.19-.56s0,0,0,0A1.17,1.17,0,0,1,112.69,99.79Z"/><circle class="cls-97" cx="114.96" cy="100.22" r="0.42"/><path class="cls-96" d="M114.54,104.69a1.19,1.19,0,0,1,1.19-1.19,1.16,1.16,0,0,1,.35.07,1,1,0,0,1,.85-.46,1.08,1.08,0,0,1,1.08,1.08v0l.08,0a1.16,1.16,0,0,1,0,2.32,1.14,1.14,0,0,1-.37-.08,1.16,1.16,0,0,1-1,.62,1.18,1.18,0,0,1-1.18-1.18v0A1.18,1.18,0,0,1,114.54,104.69Z"/><path class="cls-97" d="M116.39,105.12a.42.42,0,1,0,.42-.43A.43.43,0,0,0,116.39,105.12Z"/><path class="cls-96" d="M116.43,101.37a1.2,1.2,0,0,1,1.2-1.19,1.22,1.22,0,0,1,.34.07,1,1,0,0,1,.85-.46,1.08,1.08,0,0,1,1.08,1.08v0l.08,0a1.16,1.16,0,0,1,0,2.32,1.1,1.1,0,0,1-.37-.08,1.16,1.16,0,0,1-1,.61,1.18,1.18,0,0,1-1.18-1.17v0A1.17,1.17,0,0,1,116.43,101.37Z"/><circle class="cls-97" cx="118.7" cy="101.8" r="0.43"/><path class="cls-96" d="M113,102.34a1.2,1.2,0,0,1,1.19-1.2,1.29,1.29,0,0,1,.35.07,1,1,0,0,1,.85-.45,1.08,1.08,0,0,1,1.08,1.08v0l.09,0a1.16,1.16,0,0,1,0,2.31,1.1,1.1,0,0,1-.37-.07,1.16,1.16,0,0,1-2.19-.56v0A1.18,1.18,0,0,1,113,102.34Z"/><circle class="cls-97" cx="115.31" cy="102.77" r="0.43"/><path class="cls-96" d="M124.76,97.44a1.2,1.2,0,0,1,1.2-1.2,1,1,0,0,1,.34.07,1.06,1.06,0,0,1,.86-.46,1.08,1.08,0,0,1,1.08,1.08v0l.09,0a1.16,1.16,0,0,1,0,2.31,1.09,1.09,0,0,1-.37-.07,1.16,1.16,0,0,1-1,.62,1.17,1.17,0,0,1-1.17-1.17v0A1.18,1.18,0,0,1,124.76,97.44Z"/><circle class="cls-97" cx="127.04" cy="97.87" r="0.42"/><path class="cls-96" d="M108.43,106.2a1.2,1.2,0,0,1,1.2-1.2,1.17,1.17,0,0,1,.34.07,1.06,1.06,0,0,1,.86-.46,1.08,1.08,0,0,1,1.08,1.08v0l.08,0a1.16,1.16,0,1,1,0,2.32,1.13,1.13,0,0,1-.38-.08,1.14,1.14,0,0,1-1,.61,1.17,1.17,0,0,1-1.17-1.17v0A1.19,1.19,0,0,1,108.43,106.2Z"/><circle class="cls-97" cx="110.71" cy="106.63" r="0.42"/><path class="cls-96" d="M106.93,100.75a1.15,1.15,0,0,1,1.54-1.13,1.06,1.06,0,0,1,.86-.45,1.08,1.08,0,0,1,1.08,1.08v0l.08,0a1.16,1.16,0,1,1,0,2.31,1.05,1.05,0,0,1-.36-.07,1.16,1.16,0,0,1-2.19-.56v0A1.18,1.18,0,0,1,106.93,100.75Z"/><circle class="cls-97" cx="109.21" cy="101.18" r="0.42"/><path class="cls-96" d="M110.18,110.9a1.19,1.19,0,0,1,1.19-1.2,1.14,1.14,0,0,1,.34.07,1,1,0,0,1,.86-.46,1.08,1.08,0,0,1,1.08,1.08v0l.08,0a1.16,1.16,0,0,1,0,2.31,1.08,1.08,0,0,1-.37-.07,1.16,1.16,0,0,1-2.19-.56v0A1.18,1.18,0,0,1,110.18,110.9Z"/><path class="cls-97" d="M112,111.33a.43.43,0,0,0,.44.43.42.42,0,0,0,0-.85A.43.43,0,0,0,112,111.33Z"/><path class="cls-96" d="M114.54,95.85a1.19,1.19,0,0,1,1.19-1.2,1.43,1.43,0,0,1,.35.06,1,1,0,0,1,.85-.45A1.08,1.08,0,0,1,118,95.35v0l.08,0a1.16,1.16,0,0,1,0,2.32,1.17,1.17,0,0,1-.37-.08,1.16,1.16,0,0,1-1,.61A1.18,1.18,0,0,1,115.53,97s0,0,0,0A1.17,1.17,0,0,1,114.54,95.85Z"/><path class="cls-97" d="M116.39,96.28a.42.42,0,1,0,.42-.43A.42.42,0,0,0,116.39,96.28Z"/><path class="cls-95" d="M125.65,103.7s-6.61,2.62-7.43,9.32C118.22,113,117.86,104.42,125.65,103.7Z"/></svg>