<svg>
    <defs>
        <g class="sprite" id="facebook-blue"><path d="M85.68,144V81.05h21.13L110,56.52H85.68V40.85c0-7.1,2-11.94,12.16-11.94h13V7A173.79,173.79,0,0,0,91.9,6C73.17,6,60.35,17.43,60.35,38.43V56.52H39.17V81.05H60.35V144Z" style="fill:#002147" width="50" height="80"/></g>
        <g class="sprite" id="linkedin-blue"><path d="M8.61,52H37.1V143.5H8.61ZM22.86,6.5A16.49,16.49,0,1,1,6.34,23,16.49,16.49,0,0,1,22.86,6.5" style="fill:#002147"/><path d="M54.95,52H82.24V64.5h.37c3.81-7.2,13.08-14.78,26.94-14.78,28.8,0,34.11,18.94,34.11,43.59v50.2H115.23V99c0-10.62-.21-24.27-14.79-24.27-14.81,0-17.07,11.56-17.07,23.49V143.5H54.95Z" style="fill:#002147"/></g>
        <g class="sprite" id="youtube-blue"><path d="M147.5,56.07a31.82,31.82,0,0,0-31.82-31.82H34.32A31.82,31.82,0,0,0,2.5,56.07V93.93a31.82,31.82,0,0,0,31.82,31.82h81.36A31.82,31.82,0,0,0,147.5,93.93ZM99.65,77.84,63.17,95.89c-1.43.77-6.29-.26-6.29-1.89V56.95c0-1.65,4.9-2.68,6.33-1.87l34.92,19C99.6,74.92,101.13,77,99.65,77.84Z" style="fill:#002147"/></g>
        <g class="sprite" id="insta-blue"><path d="M102.21,142.77H47.8A43.84,43.84,0,0,1,4,99V51A43.84,43.84,0,0,1,47.8,7.23h54.41A43.84,43.84,0,0,1,146,51V99A43.84,43.84,0,0,1,102.21,142.77ZM47.8,17A34.1,34.1,0,0,0,13.73,51V99A34.1,34.1,0,0,0,47.8,133h54.41A34.1,34.1,0,0,0,136.27,99V51A34.1,34.1,0,0,0,102.21,17Z" style="fill:#002147"/><path d="M75,114a39,39,0,1,1,39-39A39,39,0,0,1,75,114Zm0-68.23A29.25,29.25,0,1,0,104.25,75,29.28,29.28,0,0,0,75,45.75Z" style="fill:#002147"/><circle cx="113.39" cy="37.22" r="8.09" style="fill:#002147"/></g>
        <g class="sprite" id="whats-blue"><path d="M75,143.5a68.2,68.2,0,0,1-34.16-9.2l-26.69,9.2,5.48-28.26A67.71,67.71,0,0,1,6.5,75,68.5,68.5,0,1,1,75,143.5ZM42.07,123.1l2.06,1.29a58.39,58.39,0,1,0-15.05-13.55l1.43,1.83-3,15.44Z" style="fill:#002147"/><path d="M40.42,48.68s4-7,7.29-7.43,7.5-.4,8.63,1.74,6.22,14.59,6.22,14.59a4.89,4.89,0,0,1-.47,4.21,41.66,41.66,0,0,1-4.35,5.09,3.72,3.72,0,0,0,0,4.42,80.56,80.56,0,0,0,9.64,11.82C72.75,88.48,83,92.31,83,92.31a3.14,3.14,0,0,0,2.41-.74c.94-.94,6-7.29,6-7.29a3.57,3.57,0,0,1,4.35-.87c2.71,1.24,14.45,7.09,14.45,7.09a2.54,2.54,0,0,1,1.37,2.57c0,2.07-.84,7.15-2.56,8.87s-6.73,7-14.27,7-25.5-6.14-35.06-15.7S41.69,74,39.68,65.14,37.94,52.32,40.42,48.68Z" style="fill:#002147"/></g>
        <g class="sprite" id="circle"><ellipse cy="50" cx="50" ry="45" rx="45" stroke-width="5" stroke="#00ff00" fill="#00ff00" fill-opacity="0.75" /></g>
        <g class="sprite" id="square"><rect y="5" x="5" width="90" height="90" stroke-width="5" stroke="#ff0000" fill="#ff0000" fill-opacity="0.75" /></g>
        <g class="sprite" id="triangle"><path d="M20,7 L92,50 L6,93 z" stroke-width="5" stroke="#0000ff" fill="#0000ff" fill-opacity="0.75" /></g>
    </defs>
</svg>