<svg xmlns="http://www.w3.org/2000/svg" viewBox="0 0 72 72"><title>study-material</title><path d="M31.5,31a9.64,9.64,0,0,0,1.1.16,22.5,22.5,0,0,1,2.53-.67,38.53,38.53,0,0,1,4.12,1.64c.16.11-.07.34-.07.34l-7.9.09Z" style="fill:#e3a080"/><rect x="33.57" y="26.83" width="0.42" height="4.53" transform="translate(-10.02 20.79) rotate(-30)" style="fill:#4e9bde"/><polygon points="7.71 47.13 3.78 66.17 2.91 66.17 6.25 47.09 7.71 47.13" style="fill:#696969"/><polygon points="12.01 47.13 8.07 66.17 7.21 66.17 10.54 47.09 12.01 47.13" style="fill:#696969"/><polygon points="18.96 47.13 22.89 66.17 23.76 66.17 20.42 47.09 18.96 47.13" style="fill:#696969"/><path d="M17.68,19s1.15,1.63,1.86,2.87L21.32,25a5.24,5.24,0,0,0,2.1,1.53c.52.22,9.19,4.5,9.3,4.49a13.83,13.83,0,0,1-.93,1.71s-11.93-3.42-12.46-3.91a41.23,41.23,0,0,1-2.78-3.64c-.62-.88-1.57-2.31-2.08-2.93s-1.75-3.06-.24-4.24C16.15,16.47,17.22,18.3,17.68,19Z" style="fill:#e3a080"/><path d="M39.25,61.25s1.87.59,2.69.78,3.74-.38,4.09-.18.44,1.09,0,1.29a23.86,23.86,0,0,1-5.13,1.33c-1.23,0-3.32,1-3.84.92s-.82-2.74-.77-3.37S39.25,61.25,39.25,61.25Z" style="fill:#353a3d"/><path d="M38.66,60.26l.59,1s-2.23,1-3,.77l-.14-1.14Z" style="fill:#81807e"/><path d="M31.41,61.76s1.68,1,2.45,1.37,3.73.48,4,.76.18,1.16-.31,1.25a23.86,23.86,0,0,1-5.3.13c-1.2-.28-3.45.19-3.95,0s-.17-2.85,0-3.46S31.41,61.76,31.41,61.76Z" style="fill:#353a3d"/><path d="M31.46,60.81l0,1s-2.39.42-3.07.07l.11-1Z" style="fill:#81807e"/><path d="M19.66,36.39s7.09,1.62,8.76,2.1a35.08,35.08,0,0,1,5.1,1.79c.4.33.83.3.26,2.77s-1,9.68-1.09,10.45c-.17,1.14-.64,7.74-.64,7.74H27.83s-.28-12.73,0-14.16A2.1,2.1,0,0,0,27,44.72c-.54-.39-2.28,0-12.05-1.67-1-.17-3.66-.46-4.26-1.59-1.08-2-1.19-4.9.94-6.64S19.66,36.39,19.66,36.39Z" style="fill:#191b2b"/><path d="M22.68,47.28h-17s-1.18,0-2-3.53c-.89-3.94-2.69-17.09-2.69-17.09S1.53,25.44,9,25.6L22.35,42.93A24.14,24.14,0,0,1,22.68,47.28Z" style="fill:#e2d2ca"/><path d="M30.26,31a9.64,9.64,0,0,0,1.1.16,22.49,22.49,0,0,1,2.53-.67A38.54,38.54,0,0,1,38,32.17c.16.11-.07.34-.07.34l-7.9.09Z" style="fill:#eea886"/><path d="M11.36,42.33c.72,1.1,2.48,1.11,3.5,1.19,10.17.81,13,.16,13.62.51s2.06.37,2.64,4.15a46.76,46.76,0,0,0,1.59,5.33c.22.64.44,1.3.67,1.94,1.07,3.06,2.1,5.87,2.1,5.87L40,60.17s-1.66-5-1.94-5.73c-.45-1.24-2.43-9.18-3.3-12-.77-2.49-1.4-2.85-1.82-3.09-.79-.45-3.72-1-5.42-1.51s-8.41-1.71-8.41-1.71-8-2.55-9.37-.06C9.4,36.73,10.06,40.35,11.36,42.33Z" style="fill:#292c47"/><rect x="33.51" y="32.79" width="1.58" height="33.38" style="fill:#e3e5ff"/><rect x="32.6" y="65.6" width="3.42" height="0.57" style="fill:#e3e5ff"/><rect x="69.48" y="32.79" width="1.58" height="33.38" style="fill:#e3e5ff"/><rect x="68.56" y="65.6" width="3.42" height="0.57" style="fill:#e3e5ff"/><rect x="29.17" y="32.23" width="43.78" height="1.12" style="fill:#d6985e"/><path d="M19.84,36.26,9.5,38.36s0-3,.08-6.51,1.05-6.3,1.3-8.28a9.65,9.65,0,0,1,6.75-8.24l2,1.55a21.51,21.51,0,0,1,1.09,5,25.37,25.37,0,0,1-.91,4.67l-.49,1.87c-.21.82-.38,1.47-.41,1.76A15.69,15.69,0,0,0,19.84,36.26Z" style="fill:#d44040"/><path d="M21.18,15.62l-.19.44-.16.38-.14.33A10.55,10.55,0,0,0,20,18.82c-.09.82-2.39-3.49-2.39-3.49A39.78,39.78,0,0,0,19.47,10C20.23,7.13,21.18,15.62,21.18,15.62Z" style="fill:#eea886"/><path d="M21.18,15.62l-.19.44-.16.38c-1.54-1.14-1.75-2.26-1.59-2.38A6.31,6.31,0,0,0,21.18,15.62Z" style="fill:#a77860"/><path d="M18.25,17.42s3,6,5.24,8.27c.71.72,7.38,5.15,7.65,5.44s-1,1.1-1,1.1S22,28.7,21.44,28.35s-6.78-7.91-7.08-9a2,2,0,0,1,1-2.61A2.76,2.76,0,0,1,18.25,17.42Z" style="fill:#eea886"/><path d="M25.42,8.34A15.78,15.78,0,0,1,25.61,11a10.06,10.06,0,0,0-.39,1.32,19.68,19.68,0,0,1-.07,2.13c-.17.36-.92-.05-1.2.54s-1.18,1.62-1.48,1.56c-.76-.14-3.3-2.08-3.32-2.73s-.15-4.26-.3-5S25,6.07,25.2,7.2Z" style="fill:#eea886"/><path d="M17.85,8.58a2.56,2.56,0,0,1,1.92-2.22s1.62-1.1,4.53-.13,1.41,4.71,1.41,4.71a11.37,11.37,0,0,0-2.91-.88,4.86,4.86,0,0,0-.24,1.09l-1-.57s.14-.3-.38-.51S19.58,13,18.4,13.4a1,1,0,0,0,0-.48h0a13.14,13.14,0,0,1-.34-1.82A10.88,10.88,0,0,1,17.85,8.58Z" style="fill:#353a3d"/><path d="M21.8,10.63a.88.88,0,0,0-1.29-.77c-.86.33-.63,2.41.06,2.59S21.83,11.68,21.8,10.63Z" style="fill:#eea886"/><path d="M19.81,26.55l-.49,1.87c-1.15-1.36-3.17-6.37-3.2-6.44C16.43,22.49,19.63,26.34,19.81,26.55Z" style="fill:#9c2f2f"/><path d="M19.73,20s-1.15-4.84-4.44-3.38.66,5.74.66,5.74Z" style="fill:#d44040"/><path d="M41.92,25.68v-.22H40.48v.22h.09v5a.63.63,0,0,0,1.26,0v-5Z" style="fill:#edebe7"/><path d="M43.63,25.68v-.22H42.2v.22h.09v5a.63.63,0,0,0,1.26,0v-5Z" style="fill:#edebe7"/><path d="M45.34,25.68v-.22H43.91v.22H44v5a.63.63,0,0,0,1.26,0v-5Z" style="fill:#edebe7"/><path d="M40.76,27.16V30.6a.44.44,0,1,0,.87,0V27.16Z" style="fill:#4e9bde"/><path d="M42.48,27.74v2.92s0,.37.44.37.44-.37.44-.37V27.74Z" style="fill:#de4e74"/><path d="M44.19,26.74v3.81s0,.48.44.48.44-.48.44-.48V26.74Z" style="fill:#d2de4e"/><rect x="40.48" y="26.01" width="7.17" height="0.34" style="fill:#9e9e9c"/><rect x="46.89" y="24.01" width="0.41" height="7.8" style="fill:#9e9e9c"/><rect x="46.19" y="31.8" width="1.82" height="0.43" style="fill:#9e9e9c"/><rect x="49.67" y="25.67" width="1.24" height="1.36" transform="translate(22.27 -23.03) rotate(32.78)" style="fill:#9e9e9c"/><rect x="53.27" y="20.08" width="1.24" height="1.36" transform="translate(19.82 -25.87) rotate(32.78)" style="fill:#9e9e9c"/><rect x="53.72" y="19.67" width="0.88" height="1.36" transform="translate(19.64 -26.08) rotate(32.78)" style="fill:#9e9e9c"/><rect x="51.36" y="19.92" width="1.61" height="7.07" transform="matrix(0.84, 0.54, -0.54, 0.84, 21, -24.51)" style="fill:#ebebeb"/><circle cx="52.16" cy="23.39" r="0.52" style="fill:#9e9e9c"/><path d="M51.09,30.23l-.28-.64C52.12,29,52.87,28.3,53,27.46a3.18,3.18,0,0,0-.9-2.47l.38-.6a4.09,4.09,0,0,1,1.2,3.19C53.5,28.67,52.62,29.56,51.09,30.23Z" style="fill:#ebebeb"/><rect x="49.45" y="29.26" width="1.84" height="0.87" transform="translate(19.52 -19.98) rotate(27.64)" style="fill:#ebebeb"/><rect x="48.84" y="28.7" width="1.84" height="0.19" transform="translate(19.04 -19.8) rotate(27.64)" style="fill:#9e9e9c"/><rect x="49.46" y="31.25" width="5.25" height="0.97" style="fill:#9e9e9c"/><polygon points="52.8 31.25 50.72 31.25 51.33 29.41 52.8 29.17 52.8 31.25" style="fill:#ebebeb"/><circle cx="51.96" cy="30.03" r="0.52" style="fill:#9e9e9c"/></svg>