<svg id="Layer_1" data-name="Layer 1" xmlns="http://www.w3.org/2000/svg" xmlns:xlink="http://www.w3.org/1999/xlink" viewBox="0 0 300 150"><defs><style>.cls-1{fill:#ffc1c1;}.cls-2{fill:none;}.cls-3{fill:#ccc;}.cls-4{fill:#231f20;}.cls-5{fill:#fff;}.cls-6{clip-path:url(#clip-path);}.cls-7{fill:#8ea8dd;}.cls-8{clip-path:url(#clip-path-2);}.cls-9{fill:#425ac2;}.cls-10{fill:#0e24a5;}.cls-11{fill:#ffad97;}.cls-12{clip-path:url(#clip-path-3);}.cls-13{fill:#a4b8ea;}.cls-14{fill:#fe958e;}.cls-15{fill:#ff9283;}.cls-16{clip-path:url(#clip-path-4);}.cls-17{fill:#03053f;}</style><clipPath id="clip-path"><polygon class="cls-1" points="184.92 121.85 184.89 121.85 174.64 121.85 179.15 148.93 184.14 148.93 185.67 148.93 190.66 148.93 195.17 121.85 184.92 121.85"/></clipPath><clipPath id="clip-path-2"><path class="cls-1" d="M109,123.52h15.79c.84,0,1.53.91,1.53,2v3.19c0,1.13-.68,2-1.53,2H109c-.84,0-1.53-.91-1.53-2v-3.19C107.43,124.43,108.11,123.52,109,123.52Z"/></clipPath><clipPath id="clip-path-3"><path class="cls-2" d="M196.21,55.2l-15.89,9.08s-15.24-2.91-20.3-2.52H140c-5.06-.39-20.3,2.52-20.3,2.52L103.79,55.2l-2.16,4.64S115.43,70,116.48,70.56s2.67.89,12.2.13l6.34-.5c1.6,4.62,4.4,13.28,4.49,17.35.08,3.52-2.26,9.86-2.26,9.86h26.6s-2.34-4.49-2.29-8c.07-4.18,3-14,4.59-19.07l5.15.4c9.53.76,11.15.45,12.2-.13s14.86-10.72,14.86-10.72Z"/></clipPath><clipPath id="clip-path-4"><path class="cls-2" d="M147.69,59c3.45,2.76,6,.2,8.76-3.25s3.07-8.78-.38-11.55-9.36-1.91-12.13,1.54S144.24,56.24,147.69,59Z"/></clipPath></defs><title>9</title><path class="cls-3" d="M120.35,130.62c.89-.18,3.28-2,5.23-7.18,1.11-2.94,4.26-18.09,0-19.15s-3.46,6.56-3.46,13.56C122.13,122.12,120.35,130.62,120.35,130.62Z"/><path class="cls-3" d="M118.4,131.33c2.24-.15,1.77-22.78,2-28.1s1.24-25.18-1.77-28.37-6.12-.35-6.38,3.77c-.13,2,.53,16.18.89,20.26s.8,13.3,1.15,19.15S115.74,131.51,118.4,131.33Z"/><path class="cls-3" d="M114,135.51s-5-9.8-6.21-17.38c-2.22-13.56-2.66-26.77.35-26.6s3.23,13.48,3.37,19.15c.35,14.72,3.81,23.94,3.81,23.94Z"/><path class="cls-4" d="M117.93,129.82h-.3c0-3-.53-11.87-.53-12l.3,0C117.41,117.93,117.93,126.79,117.93,129.82Z"/><path class="cls-4" d="M121.25,130.54l-.28-.12a78.16,78.16,0,0,0,2.92-8.62,28.19,28.19,0,0,0,.79-7.93l.3,0a28.52,28.52,0,0,1-.8,8A78.5,78.5,0,0,1,121.25,130.54Z"/><circle class="cls-5" cx="117.12" cy="118.03" r="0.66"/><circle class="cls-5" cx="124.83" cy="113.95" r="0.66"/><circle class="cls-5" cx="109.18" cy="108.01" r="0.66"/><path class="cls-3" d="M180,103.57c-.07,7.78-3,27.89-3,27.89s-3.15-20.16-3.08-27.94,3.58-29.93,3.58-29.93S180.1,95.79,180,103.57Z"/><rect class="cls-4" x="176.88" y="96.21" width="0.32" height="29.44"/><circle class="cls-5" cx="177.04" cy="96.49" r="0.7"/><path class="cls-3" d="M188.21,103.57c-.07,7.78-3,27.89-3,27.89s-3.15-20.16-3.08-27.94,3.58-29.93,3.58-29.93S188.27,95.79,188.21,103.57Z"/><rect class="cls-4" x="185.06" y="96.21" width="0.32" height="29.44"/><circle class="cls-5" cx="185.22" cy="96.49" r="0.7"/><path class="cls-3" d="M196.38,103.57c-.07,7.78-3,27.89-3,27.89s-3.15-20.16-3.08-27.94,3.58-29.93,3.58-29.93S196.45,95.79,196.38,103.57Z"/><rect class="cls-4" x="193.23" y="96.21" width="0.32" height="29.44"/><circle class="cls-5" cx="193.39" cy="96.49" r="0.7"/><polygon class="cls-1" points="184.92 121.85 184.89 121.85 174.64 121.85 179.15 148.93 184.14 148.93 185.67 148.93 190.66 148.93 195.17 121.85 184.92 121.85"/><g class="cls-6"><rect class="cls-7" x="171.86" y="124.81" width="27.83" height="0.32"/></g><circle class="cls-1" cx="116.85" cy="136.97" r="12.38"/><path class="cls-3" d="M109,123.52h15.79c.84,0,1.53.91,1.53,2v3.19c0,1.13-.68,2-1.53,2H109c-.84,0-1.53-.91-1.53-2v-3.19C107.43,124.43,108.11,123.52,109,123.52Z"/><path class="cls-1" d="M109,123.52h15.79c.84,0,1.53.91,1.53,2v3.19c0,1.13-.68,2-1.53,2H109c-.84,0-1.53-.91-1.53-2v-3.19C107.43,124.43,108.11,123.52,109,123.52Z"/><g class="cls-8"><rect class="cls-9" x="104.21" y="128" width="23.12" height="0.3"/></g><path class="cls-10" d="M163.86,97.4h-26.6s2.34-6.34,2.26-9.86c-.14-5.71-5.58-20.42-5.58-20.42-.3-2.88,2.49-5.36,6-5.36h21.18c3.54,0,6.33,2.47,6,5.36,0,0-5.51,16.48-5.61,22.23C161.52,92.91,163.86,97.4,163.86,97.4Z"/><path class="cls-11" d="M101.62,59.84l2.16-4.64s-4.07-1.57-5.62.7C96.23,58.75,101.62,59.84,101.62,59.84Z"/><path class="cls-10" d="M145.17,67.82c-1.13,1.86-6.95,2.1-16.48,2.87s-11.15.45-12.2-.13-14.86-10.72-14.86-10.72l2.16-4.64,15.89,9.08s15.24-2.91,20.3-2.52C141.73,61.9,145.17,67.82,145.17,67.82Z"/><path class="cls-11" d="M198.38,59.84l-2.16-4.64s4.07-1.57,5.62.7C203.77,58.75,198.38,59.84,198.38,59.84Z"/><path class="cls-10" d="M154.83,67.82c1.13,1.86,6.95,2.1,16.48,2.87s11.15.45,12.2-.13,14.86-10.72,14.86-10.72l-2.16-4.64-15.89,9.08s-15.24-2.91-20.3-2.52C158.27,61.9,154.83,67.82,154.83,67.82Z"/><path class="cls-9" d="M137.26,97.4h26.6s7.08,13.54.44,15.44c-7.27,2.08-19.07,1.95-26.08.26C130,111.12,137.26,97.4,137.26,97.4Z"/><g class="cls-12"><rect class="cls-9" x="104.99" y="44.51" width="1.58" height="10.62" transform="translate(-4.25 89.39) rotate(-45)"/><rect class="cls-9" x="100.43" y="55.45" width="10.62" height="1.58" transform="translate(-8.8 91.25) rotate(-45)"/><rect class="cls-9" x="104.99" y="57.37" width="1.58" height="10.62" transform="translate(-13.34 93.16) rotate(-45)"/><rect class="cls-9" x="100.43" y="68.31" width="10.62" height="1.58" transform="translate(-17.89 95.01) rotate(-45)"/><rect class="cls-9" x="104.99" y="70.25" width="1.58" height="10.62" transform="translate(-22.45 96.93) rotate(-45)"/><rect class="cls-9" x="100.43" y="81.19" width="10.62" height="1.58" transform="translate(-27 98.78) rotate(-45)"/><rect class="cls-9" x="104.99" y="83.11" width="1.58" height="10.62" transform="translate(-31.54 100.7) rotate(-45)"/><rect class="cls-9" x="100.43" y="94.05" width="10.62" height="1.58" transform="translate(-36.09 102.55) rotate(-45)"/><rect class="cls-9" x="110.46" y="44.51" width="1.58" height="10.62" transform="translate(-2.65 93.26) rotate(-45)"/><rect class="cls-9" x="105.91" y="55.45" width="10.62" height="1.58" transform="translate(-7.19 95.12) rotate(-45)"/><rect class="cls-9" x="110.46" y="57.37" width="1.58" height="10.62" transform="translate(-11.74 97.03) rotate(-45)"/><rect class="cls-9" x="105.91" y="68.31" width="10.62" height="1.58" transform="translate(-16.29 98.88) rotate(-45)"/><rect class="cls-9" x="110.46" y="70.25" width="1.58" height="10.62" transform="translate(-20.85 100.8) rotate(-45)"/><rect class="cls-9" x="105.91" y="81.19" width="10.62" height="1.58" transform="translate(-25.4 102.65) rotate(-45)"/><rect class="cls-9" x="110.46" y="83.11" width="1.58" height="10.62" transform="translate(-29.94 104.57) rotate(-45)"/><rect class="cls-9" x="105.91" y="94.05" width="10.62" height="1.58" transform="translate(-34.49 106.42) rotate(-45)"/><rect class="cls-9" x="115.93" y="44.51" width="1.58" height="10.62" transform="translate(-1.04 97.13) rotate(-45)"/><rect class="cls-9" x="111.38" y="55.45" width="10.62" height="1.58" transform="translate(-5.59 98.99) rotate(-45)"/><rect class="cls-9" x="115.93" y="57.37" width="1.58" height="10.62" transform="translate(-10.14 100.9) rotate(-45)"/><rect class="cls-9" x="111.38" y="68.31" width="10.62" height="1.58" transform="translate(-14.68 102.75) rotate(-45)"/><rect class="cls-9" x="115.93" y="70.25" width="1.58" height="10.62" transform="translate(-19.24 104.67) rotate(-45)"/><rect class="cls-9" x="111.38" y="81.19" width="10.62" height="1.58" transform="translate(-23.79 106.52) rotate(-45)"/><rect class="cls-9" x="115.93" y="83.11" width="1.58" height="10.62" transform="translate(-28.34 108.43) rotate(-45)"/><rect class="cls-9" x="111.38" y="94.05" width="10.62" height="1.58" transform="translate(-32.88 110.29) rotate(-45)"/><rect class="cls-9" x="121.4" y="44.51" width="1.58" height="10.62" transform="translate(0.56 101) rotate(-45)"/><rect class="cls-9" x="116.85" y="55.45" width="10.62" height="1.58" transform="translate(-3.99 102.85) rotate(-45)"/><rect class="cls-9" x="121.4" y="57.37" width="1.58" height="10.62" transform="translate(-8.53 104.77) rotate(-45)"/><rect class="cls-9" x="116.85" y="68.31" width="10.62" height="1.58" transform="translate(-13.08 106.62) rotate(-45)"/><rect class="cls-9" x="121.4" y="70.25" width="1.58" height="10.62" transform="translate(-17.64 108.54) rotate(-45)"/><rect class="cls-9" x="116.85" y="81.19" width="10.62" height="1.58" transform="translate(-22.19 110.39) rotate(-45)"/><rect class="cls-9" x="121.4" y="83.11" width="1.58" height="10.62" transform="translate(-26.73 112.3) rotate(-45)"/><rect class="cls-9" x="116.85" y="94.05" width="10.62" height="1.58" transform="translate(-31.28 114.16) rotate(-45)"/><rect class="cls-9" x="126.88" y="44.51" width="1.58" height="10.62" transform="translate(2.16 104.87) rotate(-45)"/><rect class="cls-9" x="122.32" y="55.45" width="10.62" height="1.58" transform="translate(-2.39 106.72) rotate(-45)"/><rect class="cls-9" x="126.88" y="57.37" width="1.58" height="10.62" transform="translate(-6.93 108.63) rotate(-45)"/><rect class="cls-9" x="122.32" y="68.31" width="10.62" height="1.58" transform="translate(-11.48 110.49) rotate(-45)"/><rect class="cls-9" x="126.88" y="70.25" width="1.58" height="10.62" transform="translate(-16.04 112.41) rotate(-45)"/><rect class="cls-9" x="122.32" y="81.19" width="10.62" height="1.58" transform="translate(-20.59 114.26) rotate(-45)"/><rect class="cls-9" x="126.88" y="83.11" width="1.58" height="10.62" transform="translate(-25.13 116.17) rotate(-45)"/><rect class="cls-9" x="122.32" y="94.05" width="10.62" height="1.58" transform="translate(-29.68 118.03) rotate(-45)"/><rect class="cls-9" x="132.35" y="44.51" width="1.58" height="10.62" transform="translate(3.76 108.74) rotate(-45)"/><rect class="cls-9" x="127.79" y="55.45" width="10.62" height="1.58" transform="translate(-0.78 110.59) rotate(-45)"/><rect class="cls-9" x="132.35" y="57.37" width="1.58" height="10.62" transform="translate(-5.33 112.5) rotate(-45)"/><rect class="cls-9" x="127.79" y="68.31" width="10.62" height="1.58" transform="translate(-9.88 114.36) rotate(-45)"/><rect class="cls-9" x="132.35" y="70.25" width="1.58" height="10.62" transform="translate(-14.44 116.28) rotate(-45)"/><rect class="cls-9" x="127.79" y="81.19" width="10.62" height="1.58" transform="translate(-18.98 118.13) rotate(-45)"/><rect class="cls-9" x="132.35" y="83.11" width="1.58" height="10.62" transform="translate(-23.53 120.04) rotate(-45)"/><rect class="cls-9" x="127.79" y="94.05" width="10.62" height="1.58" transform="translate(-28.08 121.9) rotate(-45)"/><rect class="cls-9" x="137.82" y="44.51" width="1.58" height="10.62" transform="translate(5.37 112.61) rotate(-45)"/><rect class="cls-9" x="133.27" y="55.45" width="10.62" height="1.58" transform="translate(0.82 114.46) rotate(-45)"/><rect class="cls-9" x="137.82" y="57.37" width="1.58" height="10.62" transform="translate(-3.73 116.37) rotate(-45)"/><rect class="cls-9" x="133.27" y="68.31" width="10.62" height="1.58" transform="translate(-8.27 118.23) rotate(-45)"/><rect class="cls-9" x="137.82" y="70.25" width="1.58" height="10.62" transform="translate(-12.83 120.15) rotate(-45)"/><rect class="cls-9" x="133.27" y="81.19" width="10.62" height="1.58" transform="translate(-17.38 122) rotate(-45)"/><rect class="cls-9" x="137.82" y="83.11" width="1.58" height="10.62" transform="translate(-21.93 123.91) rotate(-45)"/><rect class="cls-9" x="133.27" y="94.05" width="10.62" height="1.58" transform="translate(-26.47 125.77) rotate(-45)"/><rect class="cls-9" x="143.29" y="44.51" width="1.58" height="10.62" transform="translate(6.97 116.48) rotate(-45)"/><rect class="cls-9" x="138.74" y="55.45" width="10.62" height="1.58" transform="translate(2.42 118.33) rotate(-45)"/><rect class="cls-9" x="143.29" y="57.37" width="1.58" height="10.62" transform="translate(-2.12 120.24) rotate(-45)"/><rect class="cls-9" x="138.74" y="68.31" width="10.62" height="1.58" transform="translate(-6.67 122.1) rotate(-45)"/><rect class="cls-9" x="143.29" y="70.25" width="1.58" height="10.62" transform="translate(-11.23 124.01) rotate(-45)"/><rect class="cls-9" x="138.74" y="81.19" width="10.62" height="1.58" transform="translate(-15.78 125.87) rotate(-45)"/><rect class="cls-9" x="143.29" y="83.11" width="1.58" height="10.62" transform="translate(-20.32 127.78) rotate(-45)"/><rect class="cls-9" x="138.74" y="94.05" width="10.62" height="1.58" transform="translate(-24.87 129.64) rotate(-45)"/><rect class="cls-9" x="148.76" y="44.51" width="1.58" height="10.62" transform="translate(8.57 120.34) rotate(-45)"/><rect class="cls-9" x="144.21" y="55.45" width="10.62" height="1.58" transform="translate(4.02 122.2) rotate(-45)"/><rect class="cls-9" x="148.76" y="57.37" width="1.58" height="10.62" transform="translate(-0.52 124.11) rotate(-45)"/><rect class="cls-9" x="144.21" y="68.31" width="10.62" height="1.58" transform="translate(-5.07 125.97) rotate(-45)"/><rect class="cls-9" x="148.76" y="70.25" width="1.58" height="10.62" transform="translate(-9.63 127.88) rotate(-45)"/><rect class="cls-9" x="144.21" y="81.19" width="10.62" height="1.58" transform="translate(-14.18 129.74) rotate(-45)"/><rect class="cls-9" x="148.76" y="83.11" width="1.58" height="10.62" transform="translate(-18.72 131.65) rotate(-45)"/><rect class="cls-9" x="144.21" y="94.05" width="10.62" height="1.58" transform="translate(-23.27 133.5) rotate(-45)"/><rect class="cls-9" x="154.44" y="44.51" width="1.58" height="10.62" transform="translate(10.23 124.36) rotate(-45)"/><rect class="cls-9" x="149.89" y="55.45" width="10.62" height="1.58" transform="translate(5.69 126.22) rotate(-45)"/><rect class="cls-9" x="154.44" y="57.37" width="1.58" height="10.62" transform="translate(1.14 128.13) rotate(-45)"/><rect class="cls-9" x="149.89" y="68.31" width="10.62" height="1.58" transform="translate(-3.4 129.98) rotate(-45)"/><rect class="cls-9" x="154.44" y="70.25" width="1.58" height="10.62" transform="translate(-7.96 131.9) rotate(-45)"/><rect class="cls-9" x="149.89" y="81.19" width="10.62" height="1.58" transform="translate(-12.51 133.75) rotate(-45)"/><rect class="cls-9" x="154.44" y="83.11" width="1.58" height="10.62" transform="translate(-17.06 135.67) rotate(-45)"/><rect class="cls-9" x="149.89" y="94.05" width="10.62" height="1.58" transform="translate(-21.6 137.52) rotate(-45)"/><rect class="cls-9" x="159.91" y="44.51" width="1.58" height="10.62" transform="translate(11.84 128.23) rotate(-45)"/><rect class="cls-9" x="155.36" y="55.45" width="10.62" height="1.58" transform="translate(7.29 130.09) rotate(-45)"/><rect class="cls-9" x="159.91" y="57.37" width="1.58" height="10.62" transform="translate(2.75 132) rotate(-45)"/><rect class="cls-9" x="155.36" y="68.31" width="10.62" height="1.58" transform="translate(-1.8 133.85) rotate(-45)"/><rect class="cls-9" x="159.91" y="70.25" width="1.58" height="10.62" transform="translate(-6.36 135.77) rotate(-45)"/><rect class="cls-9" x="155.36" y="81.19" width="10.62" height="1.58" transform="translate(-10.91 137.62) rotate(-45)"/><rect class="cls-9" x="159.91" y="83.11" width="1.58" height="10.62" transform="translate(-15.45 139.53) rotate(-45)"/><rect class="cls-9" x="155.36" y="94.05" width="10.62" height="1.58" transform="translate(-20 141.39) rotate(-45)"/><rect class="cls-9" x="165.39" y="44.51" width="1.58" height="10.62" transform="translate(13.44 132.1) rotate(-45)"/><rect class="cls-9" x="160.83" y="55.45" width="10.62" height="1.58" transform="translate(8.89 133.95) rotate(-45)"/><rect class="cls-9" x="165.39" y="57.37" width="1.58" height="10.62" transform="translate(4.35 135.87) rotate(-45)"/><rect class="cls-9" x="160.83" y="68.31" width="10.62" height="1.58" transform="translate(-0.2 137.72) rotate(-45)"/><rect class="cls-9" x="165.39" y="70.25" width="1.58" height="10.62" transform="translate(-4.76 139.64) rotate(-45)"/><rect class="cls-9" x="160.83" y="81.19" width="10.62" height="1.58" transform="translate(-9.31 141.49) rotate(-45)"/><rect class="cls-9" x="165.39" y="83.11" width="1.58" height="10.62" transform="translate(-13.85 143.4) rotate(-45)"/><rect class="cls-9" x="160.83" y="94.05" width="10.62" height="1.58" transform="translate(-18.4 145.26) rotate(-45)"/><rect class="cls-9" x="170.86" y="44.51" width="1.58" height="10.62" transform="translate(15.04 135.97) rotate(-45)"/><rect class="cls-9" x="166.3" y="55.45" width="10.62" height="1.58" transform="translate(10.5 137.82) rotate(-45)"/><rect class="cls-9" x="170.86" y="57.37" width="1.58" height="10.62" transform="translate(5.95 139.73) rotate(-45)"/><rect class="cls-9" x="166.3" y="68.31" width="10.62" height="1.58" transform="translate(1.4 141.59) rotate(-45)"/><rect class="cls-9" x="170.86" y="70.25" width="1.58" height="10.62" transform="translate(-3.16 143.51) rotate(-45)"/><rect class="cls-9" x="166.3" y="81.19" width="10.62" height="1.58" transform="translate(-7.7 145.36) rotate(-45)"/><rect class="cls-9" x="170.86" y="83.11" width="1.58" height="10.62" transform="translate(-12.25 147.27) rotate(-45)"/><rect class="cls-9" x="166.3" y="94.05" width="10.62" height="1.58" transform="translate(-16.8 149.13) rotate(-45)"/><rect class="cls-9" x="176.33" y="44.51" width="1.58" height="10.62" transform="translate(16.65 139.84) rotate(-45)"/><rect class="cls-9" x="171.78" y="55.45" width="10.62" height="1.58" transform="translate(12.1 141.69) rotate(-45)"/><rect class="cls-9" x="176.33" y="57.37" width="1.58" height="10.62" transform="translate(7.55 143.61) rotate(-45)"/><rect class="cls-9" x="171.78" y="68.31" width="10.62" height="1.58" transform="translate(3.01 145.46) rotate(-45)"/><rect class="cls-9" x="176.33" y="70.25" width="1.58" height="10.62" transform="translate(-1.55 147.38) rotate(-45)"/><rect class="cls-9" x="171.78" y="81.19" width="10.62" height="1.58" transform="translate(-6.1 149.23) rotate(-45)"/><rect class="cls-9" x="176.33" y="83.11" width="1.58" height="10.62" transform="translate(-10.65 151.14) rotate(-45)"/><rect class="cls-9" x="171.78" y="94.05" width="10.62" height="1.58" transform="translate(-15.19 153) rotate(-45)"/><rect class="cls-9" x="181.8" y="44.51" width="1.58" height="10.62" transform="translate(18.25 143.71) rotate(-45)"/><rect class="cls-9" x="177.25" y="55.45" width="10.62" height="1.58" transform="translate(13.7 145.56) rotate(-45)"/><rect class="cls-9" x="181.8" y="57.37" width="1.58" height="10.62" transform="translate(9.16 147.47) rotate(-45)"/><rect class="cls-9" x="177.25" y="68.31" width="10.62" height="1.58" transform="translate(4.61 149.33) rotate(-45)"/><rect class="cls-9" x="181.8" y="70.25" width="1.58" height="10.62" transform="translate(0.05 151.25) rotate(-45)"/><rect class="cls-9" x="177.25" y="81.19" width="10.62" height="1.58" transform="translate(-4.5 153.1) rotate(-45)"/><rect class="cls-9" x="181.8" y="83.11" width="1.58" height="10.62" transform="translate(-9.04 155.01) rotate(-45)"/><rect class="cls-9" x="177.25" y="94.05" width="10.62" height="1.58" transform="translate(-13.59 156.87) rotate(-45)"/><rect class="cls-9" x="187.27" y="44.51" width="1.58" height="10.62" transform="translate(19.85 147.58) rotate(-45)"/><rect class="cls-9" x="182.72" y="55.45" width="10.62" height="1.58" transform="translate(15.3 149.43) rotate(-45)"/><rect class="cls-9" x="187.27" y="57.37" width="1.58" height="10.62" transform="translate(10.76 151.34) rotate(-45)"/><rect class="cls-9" x="182.72" y="68.31" width="10.62" height="1.58" transform="translate(6.21 153.2) rotate(-45)"/><rect class="cls-9" x="187.27" y="70.25" width="1.58" height="10.62" transform="translate(1.65 155.11) rotate(-45)"/><rect class="cls-9" x="182.72" y="81.19" width="10.62" height="1.58" transform="translate(-2.9 156.97) rotate(-45)"/><rect class="cls-9" x="187.27" y="83.11" width="1.58" height="10.62" transform="translate(-7.44 158.88) rotate(-45)"/><rect class="cls-9" x="182.72" y="94.05" width="10.62" height="1.58" transform="translate(-11.99 160.74) rotate(-45)"/><rect class="cls-9" x="192.75" y="44.51" width="1.58" height="10.62" transform="translate(21.45 151.44) rotate(-45)"/><rect class="cls-9" x="188.19" y="55.45" width="10.62" height="1.58" transform="translate(16.91 153.3) rotate(-45)"/><rect class="cls-9" x="192.75" y="57.37" width="1.58" height="10.62" transform="translate(12.36 155.21) rotate(-45)"/><rect class="cls-9" x="188.19" y="68.31" width="10.62" height="1.58" transform="translate(7.81 157.07) rotate(-45)"/><rect class="cls-9" x="192.75" y="70.25" width="1.58" height="10.62" transform="translate(3.25 158.98) rotate(-45)"/><rect class="cls-9" x="188.19" y="81.19" width="10.62" height="1.58" transform="translate(-1.29 160.84) rotate(-45)"/><rect class="cls-9" x="192.75" y="83.11" width="1.58" height="10.62" transform="translate(-5.84 162.75) rotate(-45)"/><rect class="cls-9" x="188.19" y="94.05" width="10.62" height="1.58" transform="translate(-10.39 164.6) rotate(-45)"/><rect class="cls-9" x="198.22" y="44.51" width="1.58" height="10.62" transform="translate(23.06 155.31) rotate(-45)"/><rect class="cls-9" x="193.66" y="55.45" width="10.62" height="1.58" transform="translate(18.51 157.17) rotate(-45)"/><rect class="cls-9" x="198.22" y="57.37" width="1.58" height="10.62" transform="translate(13.96 159.08) rotate(-45)"/><rect class="cls-9" x="193.66" y="68.31" width="10.62" height="1.58" transform="translate(9.42 160.94) rotate(-45)"/><rect class="cls-9" x="198.22" y="70.25" width="1.58" height="10.62" transform="translate(4.86 162.85) rotate(-45)"/><rect class="cls-9" x="193.66" y="81.19" width="10.62" height="1.58" transform="translate(0.31 164.71) rotate(-45)"/><rect class="cls-9" x="198.22" y="83.11" width="1.58" height="10.62" transform="translate(-4.24 166.62) rotate(-45)"/><rect class="cls-9" x="193.66" y="94.05" width="10.62" height="1.58" transform="translate(-8.78 168.47) rotate(-45)"/></g><path class="cls-7" d="M117.73,98.11c-.28-4.12,7.59-5.45,11.68-3.5s18.88,12.84,22.77,15.76,12.07,10.31,12.07,10.31l-5.06,6.62s-19.27-11.68-28.41-15.76S118.12,103.75,117.73,98.11Z"/><path class="cls-13" d="M184.27,98.11c.28-4.12-7.59-5.45-11.68-3.5s-18.88,12.84-22.77,15.76-12.07,10.31-12.07,10.31l5.06,6.62s19.27-11.68,28.41-15.76S183.88,103.75,184.27,98.11Z"/><path class="cls-14" d="M137.76,120.68l5.06,6.62s-1.35,9.41-3.95,9.92-3.24-8.82-3.76-11.94S137.76,120.68,137.76,120.68Z"/><path class="cls-14" d="M164.15,120.68l-5.06,6.62s1.35,9.41,3.95,9.92,3.24-8.82,3.76-11.94S164.15,120.68,164.15,120.68Z"/><path class="cls-15" d="M150.44,65.51c4.71,0,4.68-3.2,4.68-4V56.32c0-1.18-1.76-1.08-2.81-1.08h-3.37c-1,0-2.81,1-2.81,2.14v4.16A4,4,0,0,0,150.44,65.51Z"/><path class="cls-11" d="M147.69,59c3.45,2.76,6,.2,8.76-3.25a8,8,0,0,0-12.51-10C141.17,49.2,144.24,56.24,147.69,59Z"/><g class="cls-16"><path class="cls-17" d="M142.7,55s1.91-7.33,4.12-8.63,2.94,1.19,3.79,1.26,1.46-1.86,2.92-1.46c4.28,1.17,5.12,11.55,5.12,11.55s5.06-15.44-5.32-17.51-12.2,5.19-12.07,6.88S142.7,55,142.7,55Z"/></g><path class="cls-17" d="M150.23,43.91c-1.26-.68-4.18-5-2.24-7.4,1.46-1.83,5.78-1.45,6.13,1.36C154.51,41,152.66,44,152,44.4S150.23,43.91,150.23,43.91Z"/><circle class="cls-10" cx="150" cy="11.76" r="11.36"/><circle class="cls-9" cx="150" cy="11.76" r="9.44"/><circle class="cls-1" cx="150" cy="3.55" r="0.35"/><circle class="cls-1" cx="145.89" cy="4.65" r="0.35" transform="translate(17.22 73.56) rotate(-30)"/><circle class="cls-1" cx="142.88" cy="7.66" r="0.35" transform="translate(64.8 127.56) rotate(-60)"/><circle class="cls-1" cx="141.78" cy="11.76" r="0.35"/><circle class="cls-1" cx="142.88" cy="15.87" r="0.35" transform="translate(11.21 73.58) rotate(-30)"/><circle class="cls-1" cx="145.89" cy="18.88" r="0.35" transform="translate(56.6 135.79) rotate(-60)"/><circle class="cls-1" cx="150" cy="19.98" r="0.35"/><circle class="cls-1" cx="154.11" cy="18.88" r="0.35" transform="translate(11.2 79.58) rotate(-30)"/><circle class="cls-1" cx="157.12" cy="15.87" r="0.35" transform="translate(64.82 144.01) rotate(-60)"/><circle class="cls-1" cx="158.22" cy="11.76" r="0.35"/><circle class="cls-1" cx="157.12" cy="7.66" r="0.35" transform="translate(17.22 79.58) rotate(-30)"/><circle class="cls-1" cx="154.11" cy="4.65" r="0.35" transform="translate(73.04 135.79) rotate(-60)"/><rect class="cls-13" x="147.6" y="8.27" width="0.73" height="4.35" transform="translate(64.72 133.21) rotate(-59.9)"/><rect class="cls-13" x="149.71" y="9.75" width="6.54" height="0.54" transform="translate(14.17 75.09) rotate(-28.86)"/><circle class="cls-14" cx="150" cy="11.76" r="1.66"/><circle class="cls-1" cx="112.63" cy="35.56" r="11.36" transform="translate(36.4 125.78) rotate(-67.32)"/><circle class="cls-14" cx="112.63" cy="35.56" r="9.44" transform="translate(36.4 125.78) rotate(-67.32)"/><circle class="cls-1" cx="105.05" cy="32.39" r="0.35" transform="translate(34.67 116.84) rotate(-67.33)"/><circle class="cls-1" cx="104.48" cy="36.6" r="0.35" transform="translate(-3.81 13.61) rotate(-7.32)"/><circle class="cls-1" cx="106.1" cy="40.54" r="0.35" transform="translate(-2.85 72.64) rotate(-37.33)"/><circle class="cls-1" cx="109.47" cy="43.14" r="0.35" transform="translate(27.47 127.53) rotate(-67.33)"/><circle class="cls-1" cx="113.68" cy="43.71" r="0.35" transform="translate(-4.64 14.85) rotate(-7.33)"/><circle class="cls-1" cx="117.62" cy="42.09" r="0.35" transform="translate(-1.44 79.93) rotate(-37.32)"/><circle class="cls-1" cx="120.22" cy="38.72" r="0.35" transform="translate(38.15 134.73) rotate(-67.33)"/><circle class="cls-1" cx="120.79" cy="34.51" r="0.35" transform="translate(-3.41 15.68) rotate(-7.32)"/><circle class="cls-1" cx="119.17" cy="30.57" r="0.35" transform="translate(5.87 78.51) rotate(-37.32)"/><circle class="cls-1" cx="115.8" cy="27.97" r="0.35" transform="translate(45.35 124.04) rotate(-67.32)"/><circle class="cls-1" cx="111.59" cy="27.4" r="0.35" transform="translate(-2.58 14.44) rotate(-7.32)"/><circle class="cls-1" cx="107.65" cy="29.02" r="0.35" transform="translate(4.45 71.21) rotate(-37.32)"/><rect class="cls-13" x="108.45" y="36.57" width="4.35" height="0.73" transform="translate(0.2 74.44) rotate(-37.22)"/><rect class="cls-13" x="111.9" y="28.86" width="0.54" height="6.54" transform="translate(-2.81 12.3) rotate(-6.2)"/><circle class="cls-1" cx="112.63" cy="35.56" r="1.66" transform="translate(36.4 125.77) rotate(-67.32)"/><circle class="cls-13" cx="187.37" cy="36.63" r="11.36" transform="translate(-3.17 24.68) rotate(-7.47)"/><circle class="cls-10" cx="187.37" cy="36.63" r="9.44" transform="translate(-3.17 24.68) rotate(-7.47)"/><circle class="cls-1" cx="186.3" cy="28.48" r="0.35" transform="matrix(0.99, -0.13, 0.13, 0.99, -2.12, 24.5)"/><circle class="cls-1" cx="182.37" cy="30.11" r="0.35" transform="translate(19.32 117.18) rotate(-37.48)"/><circle class="cls-1" cx="179.78" cy="33.48" r="0.35" transform="translate(79.97 186.72) rotate(-67.47)"/><circle class="cls-1" cx="179.22" cy="37.7" r="0.35" transform="translate(-3.38 23.62) rotate(-7.47)"/><circle class="cls-1" cx="180.85" cy="41.63" r="0.35" transform="translate(11.98 118.6) rotate(-37.47)"/><circle class="cls-1" cx="184.22" cy="44.22" r="0.35" transform="translate(72.8 197.45) rotate(-67.48)"/><circle class="cls-1" cx="188.44" cy="44.78" r="0.35" transform="translate(-4.22 24.88) rotate(-7.47)"/><circle class="cls-1" cx="192.37" cy="43.15" r="0.35" transform="translate(13.45 125.95) rotate(-37.48)"/><circle class="cls-1" cx="194.96" cy="39.78" r="0.35" transform="translate(83.5 204.61) rotate(-67.46)"/><circle class="cls-1" cx="195.52" cy="35.56" r="0.35" transform="translate(-2.96 25.72) rotate(-7.47)"/><circle class="cls-1" cx="193.89" cy="31.63" r="0.35" transform="translate(20.76 124.48) rotate(-37.47)"/><circle class="cls-1" cx="190.52" cy="29.04" r="0.35" transform="translate(90.7 193.9) rotate(-67.47)"/><rect class="cls-13" x="184.81" y="33.41" width="0.73" height="4.35" transform="translate(81.06 192.8) rotate(-67.37)"/><rect class="cls-13" x="186.83" y="34.24" width="6.54" height="0.54" transform="translate(16.53 119.37) rotate(-36.34)"/><circle class="cls-9" cx="187.37" cy="36.63" r="1.66" transform="matrix(0.99, -0.13, 0.13, 0.99, -3.17, 24.69)"/><path class="cls-3" d="M167.51,146.48a3.11,3.11,0,0,1-3.11,3.11H135.6a3.11,3.11,0,0,1-3.11-3.11h0a3.11,3.11,0,0,1,3.11-3.11h28.8a3.11,3.11,0,0,1,3.11,3.11Z"/></svg>