<svg xmlns="http://www.w3.org/2000/svg" viewBox="0 0 72 72"><title>video</title><path d="M71.22,59.43a1.17,1.17,0,0,1-1.09,1.27H2A1.26,1.26,0,0,1,.78,59.43V13A1.21,1.21,0,0,1,2,11.75H70.13A1.12,1.12,0,0,1,71.22,13Z" style="fill:#444058"/><path d="M71.22,16.44V12.5a1.12,1.12,0,0,0-1.09-1.21H2A1.21,1.21,0,0,0,.78,12.5v3.94Z" style="fill:#444058"/><path d="M70.19,58.3a1.16,1.16,0,0,1-1.06,1.25H3A1.25,1.25,0,0,1,1.81,58.3V13.57A1.19,1.19,0,0,1,3,12.38H69.13a1.1,1.1,0,0,1,1.06,1.19Z" style="fill:#ff4c41"/><polygon points="2.99 59.56 70.19 59.24 70.19 12.38 2.99 59.56" style="opacity:0.05"/><circle cx="35.97" cy="33.38" r="9.1" style="fill:#fff;opacity:0.8"/><polygon points="33.56 28.55 33.56 38.2 40.85 33.38 33.56 28.55" style="fill:#fff"/><rect x="1.66" y="52.67" width="68.58" height="7.77" style="fill:#444058"/><rect x="3.88" y="53.9" width="63.83" height="0.36" style="fill:#d8e2e8"/><rect x="3.88" y="53.9" width="26.07" height="0.36" style="fill:#ff4c41"/><polygon points="16.11 55.88 16.11 58.26 17.8 57.07 16.11 55.88" style="fill:#fff"/><rect x="18.09" y="55.88" width="0.4" height="2.38" style="fill:#fff"/><polygon points="11.31 55.88 11.31 58.26 13 57.07 11.31 55.88" style="fill:#fff"/><polygon points="8.21 55.88 8.21 58.26 6.52 57.07 8.21 55.88" style="fill:#fff"/><rect x="5.83" y="55.88" width="0.4" height="2.38" transform="translate(12.05 114.14) rotate(180)" style="fill:#fff"/><path d="M55.69,56.63l-.08-.19a3.33,3.33,0,0,0,.17-.42l-.24-.23a3.3,3.3,0,0,0-.43.17l-.19-.08a3.32,3.32,0,0,0-.19-.41H54.4a3.16,3.16,0,0,0-.18.42L54,56a3.51,3.51,0,0,0-.43-.16l-.24.23a3.16,3.16,0,0,0,.17.42l-.08.18a3.54,3.54,0,0,0-.42.19v.33a3.28,3.28,0,0,0,.42.17l.08.18a3.36,3.36,0,0,0-.17.42l.24.23A3.38,3.38,0,0,0,54,58l.19.08a3.3,3.3,0,0,0,.19.41h.34a3.17,3.17,0,0,0,.18-.42l.19-.08a3.54,3.54,0,0,0,.43.16l.24-.23a3.16,3.16,0,0,0-.17-.42l.08-.18a3.5,3.5,0,0,0,.42-.19v-.33A3.31,3.31,0,0,0,55.69,56.63Zm-.62.35a.5.5,0,1,1-.5-.48A.49.49,0,0,1,55.07,57Z" style="fill:#fff"/><path d="M61.83,58.12H58.3V55.8h3.52Zm-3.26-.26h3v-1.8h-3Z" style="fill:#fff"/><polygon points="65.62 55.81 66.51 55.81 66.51 56.71 66.77 56.71 66.77 55.56 65.62 55.56 65.62 55.81" style="fill:#fff"/><polygon points="64.22 56.71 64.22 55.81 65.11 55.81 65.11 55.56 63.96 55.56 63.96 56.71 64.22 56.71" style="fill:#fff"/><polygon points="66.51 57.21 66.51 58.1 65.62 58.1 65.62 58.36 66.77 58.36 66.77 57.21 66.51 57.21" style="fill:#fff"/><polygon points="65.11 58.1 64.22 58.1 64.22 57.21 63.96 57.21 63.96 58.36 65.11 58.36 65.11 58.1" style="fill:#fff"/><circle cx="29.98" cy="54.07" r="0.61" style="fill:#ff4c41"/></svg>