<svg xmlns="http://www.w3.org/2000/svg" xmlns:xlink="http://www.w3.org/1999/xlink" viewBox="0 0 300 150"><defs><style>.cls-1{isolation:isolate;}.cls-2{fill:#07008f;}.cls-3{fill:#406985;}.cls-130,.cls-138,.cls-139,.cls-3,.cls-31,.cls-7{opacity:0.4;}.cls-130,.cls-137,.cls-138,.cls-139,.cls-141,.cls-3,.cls-31,.cls-32,.cls-35,.cls-37,.cls-39,.cls-5,.cls-7{mix-blend-mode:multiply;}.cls-4,.cls-5{fill:#9f1c3b;}.cls-137,.cls-39,.cls-42,.cls-5{opacity:0.2;}.cls-6{fill:#111b34;}.cls-7{fill:#10203d;}.cls-8{fill:#223760;}.cls-9{fill:#34344c;}.cls-10{fill:#8b9bb1;}.cls-11{fill:#464b4c;}.cls-12{fill:#9191bc;}.cls-13{fill:#b3b2da;}.cls-14{fill:#c5c5ea;}.cls-15{fill:#75759e;}.cls-16{fill:#61777d;}.cls-17{fill:#576a70;}.cls-18{fill:#ff3d60;}.cls-19{fill:#b21b47;}.cls-20{fill:#bc7800;}.cls-21{fill:#eee;}.cls-22{fill:#ff2957;}.cls-23{fill:#00008e;}.cls-24{fill:#0400a4;}.cls-25{fill:#00c;}.cls-26{fill:#114c63;}.cls-27{fill:#c6c6c6;}.cls-28{fill:url(#linear-gradient);}.cls-29{fill:#0c1528;}.cls-30,.cls-42,.cls-45{fill:#bdbdd1;}.cls-31{fill:url(#linear-gradient-2);}.cls-32{opacity:0.8;fill:url(#linear-gradient-3);}.cls-33{fill:#474763;}.cls-34,.cls-35{fill:#292942;}.cls-141,.cls-35,.cls-37,.cls-45{opacity:0.3;}.cls-36{fill:#a3112a;}.cls-37{fill:#af1b2d;}.cls-38{fill:url(#linear-gradient-4);}.cls-39{fill:url(#linear-gradient-5);}.cls-40{fill:#00000f;}.cls-41{fill:url(#linear-gradient-6);}.cls-42,.cls-45{mix-blend-mode:screen;}.cls-43{fill:#dadae8;}.cls-44{fill:url(#linear-gradient-7);}.cls-46{fill:#efefef;}.cls-47{fill:url(#linear-gradient-8);}.cls-48{fill:url(#linear-gradient-9);}.cls-49{fill:url(#linear-gradient-10);}.cls-50{fill:url(#linear-gradient-11);}.cls-51{fill:url(#linear-gradient-12);}.cls-52{fill:url(#linear-gradient-13);}.cls-53{fill:url(#linear-gradient-14);}.cls-54{fill:url(#linear-gradient-15);}.cls-55{fill:url(#linear-gradient-16);}.cls-56{fill:url(#linear-gradient-17);}.cls-57{fill:url(#linear-gradient-18);}.cls-58{fill:url(#linear-gradient-19);}.cls-59{fill:url(#linear-gradient-20);}.cls-60{fill:url(#linear-gradient-21);}.cls-61{fill:url(#linear-gradient-22);}.cls-62{fill:url(#linear-gradient-23);}.cls-63{fill:url(#linear-gradient-24);}.cls-64{fill:url(#linear-gradient-25);}.cls-65{fill:url(#linear-gradient-26);}.cls-66{fill:url(#linear-gradient-27);}.cls-67{fill:url(#linear-gradient-28);}.cls-68{fill:url(#linear-gradient-29);}.cls-69{fill:url(#linear-gradient-30);}.cls-70{fill:url(#linear-gradient-31);}.cls-71{fill:url(#linear-gradient-32);}.cls-72{fill:url(#linear-gradient-33);}.cls-73{fill:url(#linear-gradient-34);}.cls-74{fill:url(#linear-gradient-35);}.cls-75{fill:url(#linear-gradient-36);}.cls-76{fill:url(#linear-gradient-37);}.cls-77{fill:url(#linear-gradient-38);}.cls-78{fill:url(#linear-gradient-39);}.cls-79{fill:url(#linear-gradient-40);}.cls-80{fill:url(#linear-gradient-41);}.cls-81{fill:url(#linear-gradient-42);}.cls-82{fill:url(#linear-gradient-43);}.cls-83{fill:url(#linear-gradient-44);}.cls-84{fill:url(#linear-gradient-45);}.cls-85{fill:url(#linear-gradient-46);}.cls-86{fill:url(#linear-gradient-47);}.cls-87{fill:url(#linear-gradient-48);}.cls-88{fill:url(#linear-gradient-49);}.cls-89{fill:url(#linear-gradient-50);}.cls-90{fill:url(#linear-gradient-51);}.cls-91{fill:url(#linear-gradient-52);}.cls-92{fill:url(#linear-gradient-53);}.cls-93{fill:url(#linear-gradient-54);}.cls-94{fill:url(#linear-gradient-55);}.cls-95{fill:url(#linear-gradient-56);}.cls-96{fill:url(#linear-gradient-57);}.cls-97{fill:url(#linear-gradient-58);}.cls-98{fill:url(#linear-gradient-59);}.cls-99{fill:url(#linear-gradient-60);}.cls-100{fill:url(#linear-gradient-61);}.cls-101{fill:url(#linear-gradient-62);}.cls-102{fill:url(#linear-gradient-63);}.cls-103{fill:url(#linear-gradient-64);}.cls-104{fill:url(#linear-gradient-65);}.cls-105{fill:url(#linear-gradient-66);}.cls-106{fill:url(#linear-gradient-67);}.cls-107{fill:url(#linear-gradient-68);}.cls-108{fill:url(#linear-gradient-69);}.cls-109{fill:url(#linear-gradient-70);}.cls-110{fill:url(#linear-gradient-71);}.cls-111{fill:url(#linear-gradient-72);}.cls-112{fill:url(#linear-gradient-73);}.cls-113{fill:url(#linear-gradient-74);}.cls-114{fill:url(#linear-gradient-75);}.cls-115{fill:url(#linear-gradient-76);}.cls-116{fill:url(#linear-gradient-77);}.cls-117{fill:url(#linear-gradient-78);}.cls-118{fill:url(#linear-gradient-79);}.cls-119{fill:url(#linear-gradient-80);}.cls-120{fill:url(#linear-gradient-81);}.cls-121{fill:url(#linear-gradient-82);}.cls-122{fill:url(#linear-gradient-83);}.cls-123{fill:url(#linear-gradient-84);}.cls-124{fill:url(#linear-gradient-85);}.cls-125{fill:url(#linear-gradient-86);}.cls-126{fill:url(#linear-gradient-87);}.cls-127{fill:#61758e;}.cls-128{fill:#0c0cc6;}.cls-129{fill:url(#linear-gradient-88);}.cls-130{fill:url(#linear-gradient-89);}.cls-131{fill:url(#linear-gradient-90);}.cls-132{fill:#e04b00;}.cls-133{fill:#e82a53;}.cls-134{fill:#fff;}.cls-135{fill:url(#linear-gradient-91);}.cls-136,.cls-137{fill:#260e2e;}.cls-138{fill:url(#linear-gradient-92);}.cls-139{fill:url(#linear-gradient-93);}.cls-140,.cls-141{fill:#9b9b9b;}.cls-142{fill:url(#linear-gradient-94);}.cls-143{fill:url(#linear-gradient-95);}.cls-144{fill:url(#linear-gradient-96);}.cls-145{fill:#d6d6d8;}.cls-146{fill:url(#linear-gradient-97);}.cls-147{fill:#9797a5;}.cls-148{fill:#1313e2;}.cls-149{fill:#b9b9ba;}</style><linearGradient id="linear-gradient" x1="180.7" y1="52.1" x2="191.4" y2="66.13" gradientTransform="matrix(-1, 0, 0, 1, 347.86, 0)" gradientUnits="userSpaceOnUse"><stop offset="0" stop-color="#1b2944"/><stop offset="1" stop-color="#111b34"/></linearGradient><linearGradient id="linear-gradient-2" x1="183.24" y1="55.08" x2="178.37" y2="49.4" gradientTransform="matrix(-1, 0, 0, 1, 347.86, 0)" gradientUnits="userSpaceOnUse"><stop offset="0" stop-color="#dadae8"/><stop offset="0.54" stop-color="#bdbdd1"/><stop offset="1" stop-color="#84849b"/></linearGradient><linearGradient id="linear-gradient-3" x1="178.48" y1="56.63" x2="174.7" y2="52.22" xlink:href="#linear-gradient-2"/><linearGradient id="linear-gradient-4" x1="176.01" y1="44.63" x2="175.34" y2="41.44" gradientTransform="matrix(-1, 0, 0, 1, 347.86, 0)" gradientUnits="userSpaceOnUse"><stop offset="0.01" stop-color="#dba292"/><stop offset="0.99" stop-color="#df807a"/></linearGradient><linearGradient id="linear-gradient-5" x1="175.94" y1="42.46" x2="175.61" y2="40.87" xlink:href="#linear-gradient-4"/><linearGradient id="linear-gradient-6" x1="177.36" y1="41.48" x2="173.9" y2="34.06" xlink:href="#linear-gradient-4"/><linearGradient id="linear-gradient-7" x1="182.68" y1="69.57" x2="206.68" y2="69.57" gradientTransform="matrix(-1, 0, 0, 1, 347.86, 0)" gradientUnits="userSpaceOnUse"><stop offset="0" stop-color="#84849b"/><stop offset="1" stop-color="#bdbdd1"/></linearGradient><linearGradient id="linear-gradient-8" x1="183.15" y1="69.56" x2="185.38" y2="69.56" gradientTransform="matrix(-1, 0, 0, 1, 347.47, -0.4)" gradientUnits="userSpaceOnUse"><stop offset="0" stop-color="#aeb0b3"/><stop offset="1" stop-color="#c4c4c4"/></linearGradient><linearGradient id="linear-gradient-9" x1="200.99" y1="62.39" x2="203.69" y2="62.39" xlink:href="#linear-gradient-8"/><linearGradient id="linear-gradient-10" x1="184.29" y1="70.44" x2="185.86" y2="70.44" xlink:href="#linear-gradient-8"/><linearGradient id="linear-gradient-11" x1="201.97" y1="63.88" x2="204.92" y2="63.88" xlink:href="#linear-gradient-8"/><linearGradient id="linear-gradient-12" x1="186.66" y1="71.53" x2="189.1" y2="71.53" xlink:href="#linear-gradient-8"/><linearGradient id="linear-gradient-13" x1="187.86" y1="72.38" x2="189.8" y2="72.38" xlink:href="#linear-gradient-8"/><linearGradient id="linear-gradient-14" x1="199.85" y1="66.82" x2="201.72" y2="66.82" xlink:href="#linear-gradient-8"/><linearGradient id="linear-gradient-15" x1="194.07" y1="68.95" x2="200.2" y2="68.95" xlink:href="#linear-gradient-8"/><linearGradient id="linear-gradient-16" x1="184.96" y1="68.71" x2="186.53" y2="68.71" xlink:href="#linear-gradient-8"/><linearGradient id="linear-gradient-17" x1="186.1" y1="68.05" x2="187.67" y2="68.05" xlink:href="#linear-gradient-8"/><linearGradient id="linear-gradient-18" x1="187.24" y1="67.38" x2="188.82" y2="67.38" xlink:href="#linear-gradient-8"/><linearGradient id="linear-gradient-19" x1="188.38" y1="66.72" x2="189.96" y2="66.72" xlink:href="#linear-gradient-8"/><linearGradient id="linear-gradient-20" x1="189.53" y1="66.06" x2="191.1" y2="66.06" xlink:href="#linear-gradient-8"/><linearGradient id="linear-gradient-21" x1="190.67" y1="65.39" x2="192.24" y2="65.39" xlink:href="#linear-gradient-8"/><linearGradient id="linear-gradient-22" x1="191.81" y1="64.73" x2="193.38" y2="64.73" xlink:href="#linear-gradient-8"/><linearGradient id="linear-gradient-23" x1="192.95" y1="64.06" x2="194.52" y2="64.06" xlink:href="#linear-gradient-8"/><linearGradient id="linear-gradient-24" x1="194.09" y1="63.4" x2="195.67" y2="63.4" xlink:href="#linear-gradient-8"/><linearGradient id="linear-gradient-25" x1="195.24" y1="62.74" x2="196.81" y2="62.74" xlink:href="#linear-gradient-8"/><linearGradient id="linear-gradient-26" x1="196.38" y1="62.07" x2="197.95" y2="62.07" xlink:href="#linear-gradient-8"/><linearGradient id="linear-gradient-27" x1="197.52" y1="61.41" x2="199.1" y2="61.41" xlink:href="#linear-gradient-8"/><linearGradient id="linear-gradient-28" x1="198.63" y1="60.76" x2="200.21" y2="60.76" xlink:href="#linear-gradient-8"/><linearGradient id="linear-gradient-29" x1="198.01" y1="62.47" x2="199.58" y2="62.47" xlink:href="#linear-gradient-8"/><linearGradient id="linear-gradient-30" x1="196.86" y1="63.13" x2="198.44" y2="63.13" xlink:href="#linear-gradient-8"/><linearGradient id="linear-gradient-31" x1="195.72" y1="63.79" x2="197.3" y2="63.79" xlink:href="#linear-gradient-8"/><linearGradient id="linear-gradient-32" x1="194.58" y1="64.46" x2="196.15" y2="64.46" xlink:href="#linear-gradient-8"/><linearGradient id="linear-gradient-33" x1="193.44" y1="65.12" x2="195.01" y2="65.12" xlink:href="#linear-gradient-8"/><linearGradient id="linear-gradient-34" x1="192.29" y1="65.78" x2="193.87" y2="65.78" xlink:href="#linear-gradient-8"/><linearGradient id="linear-gradient-35" x1="191.15" y1="66.45" x2="192.73" y2="66.45" xlink:href="#linear-gradient-8"/><linearGradient id="linear-gradient-36" x1="190.01" y1="67.11" x2="191.58" y2="67.11" xlink:href="#linear-gradient-8"/><linearGradient id="linear-gradient-37" x1="188.87" y1="67.78" x2="190.44" y2="67.78" xlink:href="#linear-gradient-8"/><linearGradient id="linear-gradient-38" x1="187.73" y1="68.44" x2="189.3" y2="68.44" xlink:href="#linear-gradient-8"/><linearGradient id="linear-gradient-39" x1="186.58" y1="69.1" x2="188.16" y2="69.1" xlink:href="#linear-gradient-8"/><linearGradient id="linear-gradient-40" x1="185.44" y1="69.77" x2="187.02" y2="69.77" xlink:href="#linear-gradient-8"/><linearGradient id="linear-gradient-41" x1="184.29" y1="70.44" x2="185.86" y2="70.44" xlink:href="#linear-gradient-8"/><linearGradient id="linear-gradient-42" x1="199.86" y1="62.77" x2="201.44" y2="62.77" xlink:href="#linear-gradient-8"/><linearGradient id="linear-gradient-43" x1="198.72" y1="63.43" x2="200.29" y2="63.43" xlink:href="#linear-gradient-8"/><linearGradient id="linear-gradient-44" x1="197.58" y1="64.1" x2="199.15" y2="64.1" xlink:href="#linear-gradient-8"/><linearGradient id="linear-gradient-45" x1="196.43" y1="64.76" x2="198.01" y2="64.76" xlink:href="#linear-gradient-8"/><linearGradient id="linear-gradient-46" x1="195.29" y1="65.42" x2="196.86" y2="65.42" xlink:href="#linear-gradient-8"/><linearGradient id="linear-gradient-47" x1="194.15" y1="66.09" x2="195.72" y2="66.09" xlink:href="#linear-gradient-8"/><linearGradient id="linear-gradient-48" x1="193.01" y1="66.75" x2="194.58" y2="66.75" xlink:href="#linear-gradient-8"/><linearGradient id="linear-gradient-49" x1="191.86" y1="67.41" x2="193.44" y2="67.41" xlink:href="#linear-gradient-8"/><linearGradient id="linear-gradient-50" x1="190.72" y1="68.08" x2="192.3" y2="68.08" xlink:href="#linear-gradient-8"/><linearGradient id="linear-gradient-51" x1="189.58" y1="68.74" x2="191.15" y2="68.74" xlink:href="#linear-gradient-8"/><linearGradient id="linear-gradient-52" x1="188.44" y1="69.41" x2="190.01" y2="69.41" xlink:href="#linear-gradient-8"/><linearGradient id="linear-gradient-53" x1="187.28" y1="70.08" x2="188.86" y2="70.08" xlink:href="#linear-gradient-8"/><linearGradient id="linear-gradient-54" x1="201.24" y1="63.3" x2="202.81" y2="63.3" xlink:href="#linear-gradient-8"/><linearGradient id="linear-gradient-55" x1="200.1" y1="63.96" x2="201.67" y2="63.96" xlink:href="#linear-gradient-8"/><linearGradient id="linear-gradient-56" x1="198.96" y1="64.63" x2="200.53" y2="64.63" xlink:href="#linear-gradient-8"/><linearGradient id="linear-gradient-57" x1="197.82" y1="65.29" x2="199.39" y2="65.29" xlink:href="#linear-gradient-8"/><linearGradient id="linear-gradient-58" x1="196.67" y1="65.96" x2="198.25" y2="65.96" xlink:href="#linear-gradient-8"/><linearGradient id="linear-gradient-59" x1="195.53" y1="66.62" x2="197.11" y2="66.62" xlink:href="#linear-gradient-8"/><linearGradient id="linear-gradient-60" x1="194.39" y1="67.28" x2="195.96" y2="67.28" xlink:href="#linear-gradient-8"/><linearGradient id="linear-gradient-61" x1="193.25" y1="67.95" x2="194.82" y2="67.95" xlink:href="#linear-gradient-8"/><linearGradient id="linear-gradient-62" x1="192.1" y1="68.61" x2="193.68" y2="68.61" xlink:href="#linear-gradient-8"/><linearGradient id="linear-gradient-63" x1="190.96" y1="69.28" x2="192.54" y2="69.28" xlink:href="#linear-gradient-8"/><linearGradient id="linear-gradient-64" x1="189.82" y1="69.94" x2="191.39" y2="69.94" xlink:href="#linear-gradient-8"/><linearGradient id="linear-gradient-65" x1="188.67" y1="70.61" x2="190.24" y2="70.61" xlink:href="#linear-gradient-8"/><linearGradient id="linear-gradient-66" x1="201.99" y1="64.27" x2="203.56" y2="64.27" xlink:href="#linear-gradient-8"/><linearGradient id="linear-gradient-67" x1="200.85" y1="64.93" x2="202.42" y2="64.93" xlink:href="#linear-gradient-8"/><linearGradient id="linear-gradient-68" x1="199.7" y1="65.6" x2="201.28" y2="65.6" xlink:href="#linear-gradient-8"/><linearGradient id="linear-gradient-69" x1="198.56" y1="66.26" x2="200.14" y2="66.26" xlink:href="#linear-gradient-8"/><linearGradient id="linear-gradient-70" x1="197.42" y1="66.93" x2="198.99" y2="66.93" xlink:href="#linear-gradient-8"/><linearGradient id="linear-gradient-71" x1="196.28" y1="67.59" x2="197.85" y2="67.59" xlink:href="#linear-gradient-8"/><linearGradient id="linear-gradient-72" x1="195.14" y1="68.25" x2="196.71" y2="68.25" xlink:href="#linear-gradient-8"/><linearGradient id="linear-gradient-73" x1="193.99" y1="68.92" x2="195.57" y2="68.92" xlink:href="#linear-gradient-8"/><linearGradient id="linear-gradient-74" x1="192.85" y1="69.58" x2="194.42" y2="69.58" xlink:href="#linear-gradient-8"/><linearGradient id="linear-gradient-75" x1="191.71" y1="70.25" x2="193.28" y2="70.25" xlink:href="#linear-gradient-8"/><linearGradient id="linear-gradient-76" x1="190.57" y1="70.91" x2="192.14" y2="70.91" xlink:href="#linear-gradient-8"/><linearGradient id="linear-gradient-77" x1="189.41" y1="71.58" x2="190.99" y2="71.58" xlink:href="#linear-gradient-8"/><linearGradient id="linear-gradient-78" x1="189.05" y1="73.19" x2="190.63" y2="73.19" xlink:href="#linear-gradient-8"/><linearGradient id="linear-gradient-79" x1="190.26" y1="72.48" x2="191.84" y2="72.48" xlink:href="#linear-gradient-8"/><linearGradient id="linear-gradient-80" x1="191.4" y1="71.82" x2="192.97" y2="71.82" xlink:href="#linear-gradient-8"/><linearGradient id="linear-gradient-81" x1="202.36" y1="65.46" x2="203.93" y2="65.46" xlink:href="#linear-gradient-8"/><linearGradient id="linear-gradient-82" x1="201.25" y1="66.1" x2="202.83" y2="66.1" xlink:href="#linear-gradient-8"/><linearGradient id="linear-gradient-83" x1="203.45" y1="64.82" x2="205.03" y2="64.82" xlink:href="#linear-gradient-8"/><linearGradient id="linear-gradient-84" x1="204.55" y1="64.18" x2="206.12" y2="64.18" xlink:href="#linear-gradient-8"/><linearGradient id="linear-gradient-85" x1="185.5" y1="70.92" x2="187.73" y2="70.92" xlink:href="#linear-gradient-8"/><linearGradient id="linear-gradient-86" x1="192.54" y1="71.05" x2="194.47" y2="71.05" xlink:href="#linear-gradient-8"/><linearGradient id="linear-gradient-87" x1="199.12" y1="61.63" x2="201.34" y2="61.63" xlink:href="#linear-gradient-8"/><linearGradient id="linear-gradient-88" x1="230.3" y1="56.64" x2="227.24" y2="50.88" xlink:href="#linear-gradient-4"/><linearGradient id="linear-gradient-89" x1="225.37" y1="54.85" x2="227.93" y2="52.72" xlink:href="#linear-gradient-4"/><linearGradient id="linear-gradient-90" x1="212.24" y1="79.81" x2="167.03" y2="74.99" xlink:href="#linear-gradient-4"/><linearGradient id="linear-gradient-91" x1="218.3" y1="55.09" x2="233.81" y2="33.02" xlink:href="#linear-gradient-4"/><linearGradient id="linear-gradient-92" x1="226.82" y1="50.92" x2="230.48" y2="47.87" xlink:href="#linear-gradient-4"/><linearGradient id="linear-gradient-93" x1="192.87" y1="82.62" x2="199.86" y2="76.78" xlink:href="#linear-gradient-4"/><linearGradient id="linear-gradient-94" x1="204.85" y1="59.35" x2="208.56" y2="61.91" gradientTransform="matrix(-1, 0, 0, 1, 347.86, 0)" gradientUnits="userSpaceOnUse"><stop offset="0" stop-color="#c8c8db"/><stop offset="0.97" stop-color="#b0b0c6"/></linearGradient><linearGradient id="linear-gradient-95" x1="205.53" y1="58.45" x2="210.11" y2="61.18" gradientTransform="matrix(-1, 0, 0, 1, 347.86, 0)" gradientUnits="userSpaceOnUse"><stop offset="0.02" stop-color="#ebebf2"/><stop offset="0.51" stop-color="#e2e2ed"/><stop offset="1" stop-color="#c8c8db"/></linearGradient><linearGradient id="linear-gradient-96" x1="166.67" y1="80.69" x2="173.6" y2="80.69" xlink:href="#linear-gradient"/><linearGradient id="linear-gradient-97" x1="169.49" y1="79.78" x2="170.78" y2="79.78" xlink:href="#linear-gradient"/></defs><title>video-tutorials</title><g class="cls-1"><g id="Layer_1" data-name="Layer 1"><path class="cls-2" d="M147,132a1.8,1.8,0,0,0,1.75,1.2c.85,0,4.65-2.14,7.42-3.73s2.77-2.75,2.51-3.39a1.09,1.09,0,0,0-.13-.22c-.54-.68-2.13-.68-4.09-.2-2.15.54-5.93,1.24-6.93,2C146.85,128.23,146.37,130.57,147,132Z"/><path class="cls-3" d="M147,132a1.8,1.8,0,0,0,1.75,1.2c.85,0,4.65-2.14,7.42-3.73s2.77-2.75,2.51-3.39a1.09,1.09,0,0,0-.13-.22c-.64,1.13-2.23,2.29-4.21,3.4-2.3,1.28-4.81,3-6,3A4.12,4.12,0,0,1,147,132Z"/><path class="cls-4" d="M100.39,71.81s.57,2.68,3.07,2.09a4.83,4.83,0,0,0,1.27-.5,97.51,97.51,0,0,1,.76-13.33c.51-4.29.75-6.69.86-8,.11-1.14.11-1.45.11-1.45C104.44,51.68,99.06,61.93,100.39,71.81Z"/><path class="cls-5" d="M103.33,68.06a24.33,24.33,0,0,1,.13,5.85,4.83,4.83,0,0,0,1.27-.5,97.51,97.51,0,0,1,.76-13.33c.51-4.29.75-6.69.86-8l-.68-.77C101.22,57,102.9,63.56,103.33,68.06Z"/><path class="cls-2" d="M134.22,124.34a1.74,1.74,0,0,0,2.12,1.18c.8-.16,3.61-2,6.25-3.39s2.66-2.4,2.47-3a1,1,0,0,1,0-.09c-.32-.84-1.92-1-4-.5s-5.59,1-6.55,1.71C133.92,120.68,133.61,122.91,134.22,124.34Z"/><path class="cls-3" d="M134.22,124.34a1.74,1.74,0,0,0,2.12,1.18c.8-.16,3.61-2,6.25-3.39s2.66-2.4,2.47-3c-1,1.19-3.27,2.16-4.78,2.82C138.55,122.7,136.6,125.4,134.22,124.34Z"/><path class="cls-6" d="M133.18,121.11a3.63,3.63,0,0,0,1.62,1.45,6.66,6.66,0,0,0,2.94.54s.07-2.44.14-3.64,1.9-33.26,2-34.35c0,0-4.61-1.1-8.68,6.84a13.77,13.77,0,0,0-1,2.46C127.58,103.68,131.8,118.71,133.18,121.11Z"/><path class="cls-7" d="M133.18,121.11a3.63,3.63,0,0,0,1.62,1.45,40.1,40.1,0,0,1-2.1-10.23c-.5-4.69-.72-14.34.83-19.92l-3.26,2C127.58,103.68,131.8,118.71,133.18,121.11Z"/><path class="cls-6" d="M141.76,133.32a4.53,4.53,0,0,0-2.05,3.55,1.44,1.44,0,0,0,.6,1.33l-2.19-1.27a1.44,1.44,0,0,1-.6-1.33,4.54,4.54,0,0,1,2.05-3.55,1.44,1.44,0,0,1,1.45-.14l2.19,1.26A1.44,1.44,0,0,0,141.76,133.32Z"/><path class="cls-8" d="M143.21,133.17a1.45,1.45,0,0,1,.6,1.33,4.54,4.54,0,0,1-2.05,3.55,1.45,1.45,0,0,1-1.45.14h0a1.44,1.44,0,0,1-.6-1.33,4.53,4.53,0,0,1,2.05-3.55,1.44,1.44,0,0,1,1.45-.15Z"/><path class="cls-9" d="M140.62,135a3.83,3.83,0,0,0-.55,1.84.9.9,0,0,0,1.51.87,4.19,4.19,0,0,0,1.87-3.24.9.9,0,0,0-1.51-.87A3.78,3.78,0,0,0,140.62,135Z"/><path class="cls-6" d="M121.94,144.32a4.53,4.53,0,0,0-2.05,3.55,1.45,1.45,0,0,0,.6,1.33l-2.19-1.27a1.44,1.44,0,0,1-.6-1.33,4.53,4.53,0,0,1,2-3.55,1.43,1.43,0,0,1,1.45-.14l2.2,1.26A1.44,1.44,0,0,0,121.94,144.32Z"/><path class="cls-8" d="M123.39,144.18a1.44,1.44,0,0,1,.6,1.33,4.53,4.53,0,0,1-2.05,3.55,1.44,1.44,0,0,1-1.45.15h0a1.45,1.45,0,0,1-.6-1.33,4.53,4.53,0,0,1,2.05-3.55,1.44,1.44,0,0,1,1.45-.14Z"/><path class="cls-9" d="M120.8,146a3.82,3.82,0,0,0-.55,1.84.9.9,0,0,0,1.51.87,4.18,4.18,0,0,0,1.87-3.24.9.9,0,0,0-1.51-.87A3.8,3.8,0,0,0,120.8,146Z"/><path class="cls-6" d="M93,136.59a4.54,4.54,0,0,0-2,3.56,1.44,1.44,0,0,0,.6,1.32l-2.19-1.27a1.43,1.43,0,0,1-.6-1.32,4.54,4.54,0,0,1,2.05-3.55,1.44,1.44,0,0,1,1.45-.14l2.19,1.27A1.44,1.44,0,0,0,93,136.59Z"/><path class="cls-8" d="M94.44,136.45a1.44,1.44,0,0,1,.6,1.33A4.54,4.54,0,0,1,93,141.33a1.44,1.44,0,0,1-1.45.14h0a1.44,1.44,0,0,1-.6-1.32,4.54,4.54,0,0,1,2-3.56,1.44,1.44,0,0,1,1.45-.14Z"/><path class="cls-9" d="M91.86,138.31a3.77,3.77,0,0,0-.55,1.84.9.9,0,0,0,1.51.87,4.15,4.15,0,0,0,1.86-3.24.9.9,0,0,0-1.51-.87A3.79,3.79,0,0,0,91.86,138.31Z"/><path class="cls-6" d="M98.7,120.58a4.54,4.54,0,0,0-2.05,3.55,1.43,1.43,0,0,0,.6,1.32l-2.19-1.26a1.45,1.45,0,0,1-.6-1.33,4.53,4.53,0,0,1,2-3.55,1.45,1.45,0,0,1,1.45-.15l2.19,1.27A1.44,1.44,0,0,0,98.7,120.58Z"/><path class="cls-8" d="M100.15,120.43a1.45,1.45,0,0,1,.6,1.33,4.54,4.54,0,0,1-2,3.55,1.44,1.44,0,0,1-1.45.14h0a1.43,1.43,0,0,1-.6-1.32,4.54,4.54,0,0,1,2.05-3.55,1.44,1.44,0,0,1,1.45-.14Z"/><path class="cls-9" d="M97.56,122.29a3.76,3.76,0,0,0-.55,1.84,1.12,1.12,0,0,0,.42,1,1.1,1.1,0,0,0,1.09-.15,4.16,4.16,0,0,0,1.87-3.24.9.9,0,0,0-1.51-.87A3.75,3.75,0,0,0,97.56,122.29Z"/><path class="cls-6" d="M127.87,116.49a4.53,4.53,0,0,0-2.05,3.55,1.43,1.43,0,0,0,.6,1.33l-2.19-1.27a1.43,1.43,0,0,1-.6-1.33,4.53,4.53,0,0,1,2-3.55,1.43,1.43,0,0,1,1.45-.14l2.19,1.27A1.44,1.44,0,0,0,127.87,116.49Z"/><path class="cls-8" d="M129.32,116.35a1.43,1.43,0,0,1,.6,1.32,4.53,4.53,0,0,1-2,3.55,1.44,1.44,0,0,1-1.45.14h0a1.43,1.43,0,0,1-.6-1.33,4.53,4.53,0,0,1,2.05-3.55,1.44,1.44,0,0,1,1.45-.14Z"/><path class="cls-9" d="M126.73,118.2a3.79,3.79,0,0,0-.55,1.84.9.9,0,0,0,1.51.87,4.19,4.19,0,0,0,1.87-3.24.9.9,0,0,0-1.51-.87A3.82,3.82,0,0,0,126.73,118.2Z"/><g class="cls-1"><polygon class="cls-10" points="116.83 127.23 116.83 128.98 128.14 115.78 128.13 114.03 116.83 127.23"/><polygon class="cls-10" points="97.06 117.69 97.07 119.44 113.92 129.23 113.91 127.48 97.06 117.69"/><polygon class="cls-11" points="116.49 128.46 116.5 130.21 116.73 130.08 116.73 128.33 116.49 128.46"/><polygon class="cls-10" points="116.73 128.33 116.73 130.08 141.06 133.13 141.05 131.38 116.73 128.33"/><polygon class="cls-12" points="141.05 131.38 141.06 133.13 141.46 132.07 141.46 130.32 141.05 131.38"/><polygon class="cls-10" points="91.89 134.76 91.89 136.51 114.69 130.13 114.68 128.38 91.89 134.76"/><polygon class="cls-12" points="91.11 133.86 91.12 135.61 91.89 136.51 91.89 134.76 91.11 133.86"/><polygon class="cls-12" points="119.99 142.77 119.99 144.52 121.7 144.31 121.69 142.56 119.99 142.77"/><polygon class="cls-10" points="114.68 128.38 114.69 130.13 119.99 144.52 119.99 142.77 114.68 128.38"/><polygon class="cls-13" points="97.06 117.69 113.91 127.48 91.11 133.86 91.89 134.76 114.68 128.38 119.99 142.77 121.69 142.56 116.49 128.46 116.73 128.33 141.05 131.38 141.46 130.32 116.83 127.23 128.13 114.03 126.45 113.55 115.19 126.69 98.39 116.93 97.06 117.69"/></g><path class="cls-10" d="M114.36,106.09a.58.58,0,0,1,.34-.47,1.82,1.82,0,0,1,1.64,0,.57.57,0,0,1,.34.47v21.08a.58.58,0,0,1-.34.47,1.83,1.83,0,0,1-1.64,0,.59.59,0,0,1-.34-.47Z"/><path class="cls-13" d="M93.08,105.83h0a1.18,1.18,0,0,0,.26,0l.29,0h0l.33-.1h0l.37-.16,0,0,.45-.24.46-.28.18-.12.4-.27,2.3-1.6.07,0h0l1.05-.71.15-.1,1.11-.74.06,0,1.1-.72.15-.1,1.14-.73.12-.07.09-.06L105,98.61l.15-.09L107,97.37h0l.82-.48c.73-.42,1.48-.84,2.24-1.25l.28-.16.33-.18.66-.34.87-.46.69-.35.37-.19.59-.29.5-.24,1.39-.65.11,0h0l1.44-.62.43-.18.49-.2.78-.3.19-.08,1.1-.4.51-.18H121l0,0,23.29,13.53-.1,0h0a.28.28,0,0,0-.12,0c-.53.18-1.07.37-1.61.58l-.18.07-1.28.51-.41.18-1.46.63-.1.05-1.4.64-.49.24-1,.48-.68.34-.88.46-.65.35-.61.33c-.75.41-1.5.83-2.24,1.25l-.84.49-1.91,1.15-.16.1-1.71,1.07-.22.14-1.12.72-.19.12-1.06.7-.09.06-1.09.73-.17.11-1,.71-.11.07-2.27,1.58-.15.1-.25.16-.18.12,0,0-.35.21-.07,0-.2.11-.22.11h0l0,0-.13.06-.16.07-.08,0h-.06l-.13,0-.11,0h-.11l-.1,0h-.44l-.08,0-.14-.07L92.86,105.74A.82.82,0,0,0,93.08,105.83Z"/><g class="cls-1"><polygon class="cls-13" points="209.17 116.09 207.53 115.14 176.82 132.87 178.45 133.82 209.17 116.09"/><polygon class="cls-14" points="209.04 69.77 207.4 68.81 207.53 115.14 209.17 116.09 209.04 69.77"/><path class="cls-15" d="M177.27,86.81l.14,48.91,32.81-18.94-.14-48.9Zm1.05.69L209,69.77l.13,46.32-30.72,17.73Z"/><polygon class="cls-16" points="210.09 67.87 208.45 66.92 175.63 85.86 177.27 86.81 210.09 67.87"/><polygon class="cls-14" points="177.27 86.81 175.63 85.86 175.77 134.76 177.41 135.72 177.27 86.81"/></g><g class="cls-1"><polygon class="cls-13" points="145.06 79.25 143.42 78.29 112.7 96.03 114.34 96.98 145.06 79.25"/><polygon class="cls-14" points="144.93 32.93 143.29 31.98 143.42 78.29 145.06 79.25 144.93 32.93"/><path class="cls-15" d="M113.16,50l.14,48.91,32.81-18.95L146,31Zm1.05.69,30.71-17.73.13,46.32L114.34,97Z"/><polygon class="cls-16" points="145.97 31.03 144.34 30.08 111.52 49.02 113.16 49.97 145.97 31.03"/><polygon class="cls-17" points="113.16 49.97 111.52 49.02 111.66 97.93 113.3 98.88 113.16 49.97"/></g><g class="cls-1"><polygon class="cls-14" points="110.24 49 110.23 53.8 177.17 92.45 177.19 87.65 110.24 49"/><polygon class="cls-12" points="177.17 92.45 211.9 72.27 211.91 67.47 177.19 87.65 177.17 92.45"/><polygon class="cls-13" points="177.19 87.65 211.91 67.47 144.97 28.82 110.24 49 177.19 87.65"/></g><g class="cls-1"><polygon class="cls-18" points="140.02 48.71 155.26 39.98 155.24 37.22 140 45.96 140.02 48.71"/><polygon class="cls-4" points="155.24 37.22 144.72 31.03 129.48 39.77 140 45.96 155.24 37.22"/><polygon class="cls-19" points="140.02 48.71 140 45.96 129.47 39.77 129.48 40.14 129.7 40.26 129.71 42.44 129.49 42.33 129.49 42.63 140.02 48.71"/><polygon class="cls-20" points="139.78 48.28 139.77 47.83 139.76 46.1 129.7 40.26 129.71 42.44 139.78 48.28"/><polygon class="cls-21" points="139.78 48.27 139.76 46.09 129.7 40.25 129.71 42.43 139.78 48.27"/></g><polygon class="cls-22" points="141.39 47.84 141.37 45.31 140.41 45.86 140.42 48.4 141.39 47.84"/><polygon class="cls-22" points="143.05 46.88 143.04 44.35 142.07 44.9 142.09 47.44 143.05 46.88"/><polygon class="cls-22" points="144.72 45.92 144.7 43.39 143.73 43.95 143.75 46.48 144.72 45.92"/><polygon class="cls-22" points="146.38 44.96 146.37 42.43 145.4 42.98 145.41 45.52 146.38 44.96"/><polygon class="cls-22" points="148.05 44 148.03 41.47 147.06 42.02 147.08 44.56 148.05 44"/><polygon class="cls-22" points="149.71 43.04 149.69 40.5 148.72 41.06 148.75 43.6 149.71 43.04"/><g class="cls-1"><polygon class="cls-23" points="140.54 45.15 154.06 37.39 154.06 35.41 140.54 43.16 140.54 45.15"/><polygon class="cls-24" points="154.06 35.41 144.51 30.01 131.06 37.78 140.54 43.16 154.06 35.41"/><polygon class="cls-25" points="140.54 43.16 131.06 37.78 131.06 38.01 131.28 38.14 131.28 39.62 131.06 39.51 131.06 39.76 140.54 45.15 140.54 43.16"/><polygon class="cls-26" points="140.32 44.77 140.32 44.43 140.32 43.29 131.28 38.14 131.28 39.62 140.32 44.77"/><polygon class="cls-21" points="140.32 44.77 140.32 43.29 131.28 38.14 131.28 39.62 140.32 44.77"/></g><polygon class="cls-24" points="153.29 37.33 153.29 36.31 141.81 42.94 141.81 43.96 153.29 37.33"/><polygon class="cls-26" points="131.06 39.51 131.28 39.37 131.28 39.62 131.06 39.51"/><polygon class="cls-25" points="151.69 35.82 149.45 37.13 141.92 32.77 144.21 31.45 151.69 35.82"/><path class="cls-25" d="M140.44,40.67,135.86,38a.06.06,0,0,1,0-.06.07.07,0,0,1,0-.06l6.81-4h.06l4.6,2.66a.06.06,0,0,1,0,.05.06.06,0,0,1,0,.06l-6.83,4h-.06Zm2.27-6.6L136,38l4.45,2.59,6.71-3.89Z"/><path class="cls-27" d="M156.18,62.14l8.18,4.75a.11.11,0,0,1,0-.1.36.36,0,0,1,.16-.29L172,62.16a7.24,7.24,0,0,0,1-.65,3.68,3.68,0,0,0,.44-.43,1.77,1.77,0,0,0,.33-.54,1.57,1.57,0,0,0,.08-.53,2.74,2.74,0,0,0,0-.46,2.3,2.3,0,0,0-.11-.4,19.28,19.28,0,0,0-1.25-2.57c-.86-1.56-2-3.37-2.86-4.79-.45-.71-.84-1.32-1.12-1.76l-.33-.51-.12-.18-8.18-4.76.12.18.33.51L161.37,47c.89,1.42,2,3.24,2.86,4.79a19.09,19.09,0,0,1,1.24,2.57,2.42,2.42,0,0,1,.11.41,2.61,2.61,0,0,1,0,.46,1.55,1.55,0,0,1-.08.53,1.69,1.69,0,0,1-.33.54,3.21,3.21,0,0,1-.44.43,7.29,7.29,0,0,1-1,.65l-7.53,4.34a.37.37,0,0,0-.16.29A.11.11,0,0,0,156.18,62.14Z"/><path class="cls-28" d="M156.3,61.75l8.18,4.75h0l1.19-.69.24-.14.14-.08,1-.58.34-.2.08,0,.29-.17,1-.58.17-.09.82-.47.08,0,.28-.16,1.91-1.1.07,0,.27-.16.22-.14.17-.13.14-.11a3.29,3.29,0,0,0,.58-.57,1.94,1.94,0,0,0,.22-.38,1.44,1.44,0,0,0,.11-.35h0v0a2.33,2.33,0,0,0-.09-.91l-.06-.18,0-.11s0-.08,0-.13v0c-.08-.2-.18-.42-.3-.67-.23-.48-.52-1-.85-1.64-.86-1.56-2-3.37-2.86-4.79l-.4-.64L168.43,50l-.33-.51-.12-.18-8.18-4.75.12.18.33.51.71,1.12.41.64c.89,1.42,2,3.24,2.86,4.79.33.6.62,1.16.85,1.64.13.27.24.52.32.73l.08.2a2.47,2.47,0,0,1,.15,1,.18.18,0,0,1,0,0,.11.11,0,0,0,0,0h0a2,2,0,0,1-.69,1.11l-.1.09,0,0s-.05,0-.06.07l.05,0-.07,0-.15.11-.17.12-.22.14-.27.16-.07,0-1.94,1.12-.71.41-3.72,2.15Z"/><path class="cls-9" d="M156.13,62h0v0h.09l8.18,4.75h-.09v0h0l0,0-8.18-4.75,0,0h0Z"/><path class="cls-29" d="M164.31,66.79c0,.1.07.14.16.09L172,62.54a12.34,12.34,0,0,0,1.47-1.12c.29-.25.17-.17.34-.43a2.3,2.3,0,0,0,.24-.52c0-.06,0-.13,0-.19a2,2,0,0,0,0-.45,3.11,3.11,0,0,0,0-.52,2.62,2.62,0,0,0-.12-.45c-.06-.17-.14-.36-.23-.57-.18-.42-.42-.9-.7-1.43-.56-1.06-1.28-2.28-2-3.45-1.41-2.33-2.78-4.42-2.78-4.42s-.09,0-.14,0L168,49a.28.28,0,0,0-.06.3l.12.18.33.51,1.12,1.76c.89,1.42,2,3.24,2.86,4.79a18.85,18.85,0,0,1,1.25,2.57,2.57,2.57,0,0,1,.11.4,2.72,2.72,0,0,1,0,.46h0a1.52,1.52,0,0,1-.08.52,1.71,1.71,0,0,1-.33.54,3.68,3.68,0,0,1-.44.43,7.41,7.41,0,0,1-1,.65l-7.53,4.35A.35.35,0,0,0,164.31,66.79Z"/><path class="cls-30" d="M159.78,44.48h0v0h.23l8.18,4.76h-.05l-.06,0,0,0h0l0,0,0,0h0l0,0h0l0,0h0a.27.27,0,0,0,0,.08h0a.12.12,0,0,0,0,0h0a.09.09,0,0,0,0,0h0v0l-8.18-4.75h0Z"/><path class="cls-31" d="M159.8,44.57l.12.18.33.51.71,1.12.41.64c.89,1.42,2,3.24,2.86,4.79.33.6.62,1.16.85,1.64.13.27.24.52.32.73l.08.2a2.47,2.47,0,0,1,.15,1,.18.18,0,0,1,0,0,.11.11,0,0,0,0,0c2.26,1.42,6.16,3.87,8.07,5.12a1.44,1.44,0,0,0,.11-.35h0v0a2.33,2.33,0,0,0-.09-.91l-.06-.18,0-.11s0-.08,0-.13v0c-.08-.2-.18-.42-.3-.67-.23-.48-.52-1-.85-1.64-.86-1.56-2-3.37-2.86-4.79l-.4-.64L168.43,50l-.33-.51-.12-.18Z"/><path class="cls-32" d="M168,49.32l.12.18.33.51,1.12,1.76c.89,1.42,2,3.24,2.86,4.79a18.85,18.85,0,0,1,1.25,2.57,2.57,2.57,0,0,1,.11.4,2.72,2.72,0,0,1,0,.46h0l.22.27.07,0a2,2,0,0,0,0-.45,3.11,3.11,0,0,0,0-.52,2.62,2.62,0,0,0-.12-.45c-.06-.17-.14-.36-.23-.57-.18-.42-.42-.9-.7-1.43-.56-1.06-1.28-2.28-2-3.45-1.41-2.33-2.78-4.42-2.78-4.42s-.09,0-.14,0L168,49A.28.28,0,0,0,168,49.32Z"/><path class="cls-33" d="M153.52,19.49l.06,0H154l.07,0h0l.12.06,2.63,1.52,17,9.82,10.75,6.21.8-.47-10.56-6.1-17.16-9.91L155,19.09l-.12-.06h0l-.07,0h-.39l0,0Z"/><path class="cls-6" d="M153.17,45.21a2,2,0,0,0,.92,1.6l4.86,2.8,11.33,6.54,14.2,8.2c.51.3.93.06.93-.53V61.16l.06-22.46a2,2,0,0,0-.93-1.6L161.34,23.69l-7.17-4.14a.92.92,0,0,0-.23-.1c-.4-.12-.7.13-.71.63l-.06,22.46Z"/><path class="cls-34" d="M184.56,37.1l.15.1,0,0,.13.12,0,0,.06.07,0,0,0,0,0,.05,0,0,0,.07,0,0,.06.1h0l0,.09,0,0,0,.09h0l0,.11v0l0,.08v0a.5.5,0,0,1,0,.07v.09s0,.05,0,.07,0,0,0,0a1.32,1.32,0,0,1,0,.16l0,9.75,0,15.38a.64.64,0,0,1-.27.59l.6-.35.2-.11a.65.65,0,0,0,.27-.6l0-16,0-9.12c0-.06,0-.11,0-.17v0s0,0,0-.07a.15.15,0,0,0,0,0v-.2l0,0v0l0-.08h0l0-.06V37.4l0-.07v0h0l0-.08h0l0,0,0,0,0,0,0,0,0,0,0,0,0,0,0,0,0,0-.06-.06,0,0h0l-.13-.11,0,0-.15-.09Z"/><path class="cls-35" d="M185.14,64.42l.6-.35.2-.11a.65.65,0,0,0,.27-.6l0-16-.81,1.09,0,15.38A.64.64,0,0,1,185.14,64.42Z"/><path class="cls-9" d="M153.18,42.54l32.24,18.62.06-22.46a2,2,0,0,0-.93-1.6L154.17,19.55c-.51-.29-.93-.06-.93.53Z"/><polygon class="cls-21" points="154.14 20.74 154.14 41.82 165.47 48.37 166.75 49.11 167.29 49.43 167.6 49.61 174.41 53.54 175.05 53.92 175.57 54.22 175.63 54.25 177.17 55.14 177.51 55.34 184.56 59.42 184.56 38.35 154.14 20.74"/><path class="cls-36" d="M165.47,48.37l1.28.74.53.31.31-1.15h0l.33-1.23.45-1.73,1-3.16.55-1.69v0a2.52,2.52,0,0,0-.84-.11,1.71,1.71,0,0,0-1.76,1.21C167.05,42.73,165.8,47.21,165.47,48.37Z"/><path class="cls-37" d="M166.75,49.11l.53.31.31-1.15h0l.33-1.23v-.62l-.33.73h0C167.33,47.74,167,48.55,166.75,49.11Z"/><path class="cls-4" d="M167.59,47.16c0,.31,0,.72,0,1.11h0c0,.53,0,1,0,1.33l6.81,3.93.64.38c0-.77,0-5,.32-4.77s.22,4.82.21,5.07h0l.05,0h0l1.55.88.33.2v0l0-.13,0-.12c0-.05,0-.12,0-.19.05-.29.12-.69.19-1.16s.1-.69.14-1.08l0-.39c0-.39.08-.79.1-1.21,0-.17,0-.35,0-.53s0-.32,0-.48,0-.43,0-.64c0-3-.69-4.83-1.4-5.21l-.12-.07-.53-.29-1.93-1.06-.13-.07L173,42h0l-.85-.53-.66-.42a5,5,0,0,0-.92-.47l-.23-.08a2.06,2.06,0,0,0-.37-.08,1.69,1.69,0,0,0-.91.09c-1.23.5-1.6,2.47-2,3.55-.56,1.59.56,1.9.53,2.58,0,.12,0,.28,0,.47Z"/><path class="cls-38" d="M171.42,43.62c1.62.78,2.59-.91,2.74-.85a1.76,1.76,0,0,0-.58-.84l0,0c-.32-.3-.19-.72.09-1.24a2.31,2.31,0,0,1-1.76.88,1.76,1.76,0,0,1-1.14-.53l0,.13C170.52,41.65,170.19,43,171.42,43.62Z"/><path class="cls-39" d="M170.69,41.13c.16.45.29.72,1.3.92a2.79,2.79,0,0,0,1.56-.15c-.32-.3-.19-.72.09-1.24a2.31,2.31,0,0,1-1.76.88,1.76,1.76,0,0,1-1.14-.53Z"/><path class="cls-40" d="M170.73,41a.85.85,0,0,1,0,.82c-.15.33-.67,1-1.41.25s-.22-1.7.42-3.17a3.08,3.08,0,0,0,.45,1.06A5.22,5.22,0,0,1,170.73,41Z"/><path class="cls-41" d="M169.74,37.82a6.69,6.69,0,0,1,.45-1.9,1.94,1.94,0,0,0,1.34.76,4,4,0,0,0,2.33,0c.3-.17.85,1.47.65,2.35l-.09.25c-.26.5-.57,1-.79,1.36a2.33,2.33,0,0,1-1.76.89,1.76,1.76,0,0,1-1.14-.53A3.73,3.73,0,0,1,169.74,37.82Z"/><path class="cls-40" d="M173.24,33.49c2.47.42,3,2.47,2.89,5s.65,2.58.62,4.9-3,1.33-2.68.57a1.75,1.75,0,0,0,.08-1.18,1.69,1.69,0,0,0-.57-.84c-.37-.31-.24-.74.05-1.28h0c.22-.4.53-.86.79-1.36h0a1,1,0,0,0,.08-.24c.2-.88-.35-2.53-.65-2.35a4,4,0,0,1-2.33,0,1.94,1.94,0,0,1-1.34-.76,1.66,1.66,0,0,1-.17-.29C169.76,35,170.77,33.07,173.24,33.49Z"/><path class="cls-37" d="M174.7,50.44a14.17,14.17,0,0,0-.29,3.1l.64.38c0-.77,0-5,.32-4.77s.22,4.82.21,5.07h0l.05,0h0a18.51,18.51,0,0,0-.11-5.11c-.15-.63-.76-.19-1.08.65s-1.46.78-1.46.78A1.64,1.64,0,0,0,174.7,50.44Z"/><path class="cls-37" d="M176.09,44.32a3.25,3.25,0,0,0,.31.11c.15.08.36.26.68.83.56,1,.66,3.65.59,5.63a33.4,33.4,0,0,1-.5,4.25l.33.2v0s0-.08,0-.13l0-.12c0-.05,0-.12,0-.19.05-.29.12-.69.19-1.16s.13-.94.19-1.48c0-.39.08-.79.1-1.21,0-.17,0-.35,0-.53s0-.32,0-.48,0-.43,0-.64c0-3-.69-4.83-1.4-5.21l-.12-.07-.53-.29A.37.37,0,0,0,176.09,44.32Z"/><path class="cls-42" d="M153.95,19.46l5,30.16,11.33,6.54-8.95-32.47-7.17-4.14A.92.92,0,0,0,153.95,19.46Z"/><path class="cls-43" d="M141.33,64.69l5,2.86,4.65,2.68,6.61,3.82a.89.89,0,0,0,.8,0L165,70.18c.23-.13.24-.34,0-.47L152.6,62.54l-3.79-2.19a.8.8,0,0,0-.56-.06.61.61,0,0,0-.24.09l-6.64,3.86C141.14,64.36,141.13,64.57,141.33,64.69Z"/><path class="cls-44" d="M141.19,64.48a.25.25,0,0,0,.15.21l16.22,9.36.08,0h0l.09,0h.39l.06,0,.06,0h0l.08,0L165,70.18l.07-.05h0l.05-.05h0l0-.06h0a.25.25,0,0,0,0-.06c0,.17,0,.35,0,.53h0s0,0,0,0v0h0v0h0l0,0h0l-.07,0h0l-6.64,3.86-.08,0h-.08l-.06,0h-.5l-.07,0-16.22-9.36a.26.26,0,0,1-.15-.21C141.19,64.83,141.19,64.65,141.19,64.48Z"/><path class="cls-45" d="M146.29,67.55l4.65,2.68,1.66-7.7-3.79-2.19a.8.8,0,0,0-.56-.06Z"/><g class="cls-1"><path class="cls-46" d="M162.44,69.19a.14.14,0,0,0,0,.27l1.13.65a.49.49,0,0,0,.46,0l.44-.26a.14.14,0,0,0,0-.27l-1.13-.65a.51.51,0,0,0-.46,0Z"/><path class="cls-47" d="M162.34,69.32a.12.12,0,0,0,0,0h0l0,0h0l0,0h0l0,0,1.13.65.06,0H164l0,0,.44-.26,0,0a.13.13,0,0,0,.05-.1h0c0,.06,0,.11,0,.17a.16.16,0,0,1-.1.14l-.44.25,0,0h-.35l-.06,0-1.13-.65h0l0,0h0v0h0v0h0c0-.06,0-.11,0-.16h0Z"/></g><g class="cls-1"><path class="cls-46" d="M144.1,62.67a.14.14,0,0,0,0,.27l.22.12a.51.51,0,0,0,.46,0l.22-.13,0,0,.65-.38h0a.42.42,0,0,0,.39,0l.51-.3c.11-.06.11-.16,0-.23l-.51-.29a.43.43,0,0,0-.39,0l-1.41.82Z"/><path class="cls-48" d="M144,62.84h0l0,0h0l0,0,0,0h0l.22.12.06,0h.35l.05,0,.22-.13,0,0,.65-.38h0l.06,0h.3l0,0,.51-.3a.14.14,0,0,0,.08-.12v.18a.14.14,0,0,1-.08.12l-.51.29,0,0h-.3l-.05,0,0,0-.65.38,0,0-.22.13,0,0h-.35l-.06,0-.22-.13h0l0,0h0l0,0h0v0h0v-.2h0A.13.13,0,0,0,144,62.84Z"/></g><g class="cls-1"><path class="cls-46" d="M161.95,70.27a.12.12,0,0,0,0,.23l.51.29a.43.43,0,0,0,.39,0l.51-.3a.12.12,0,0,0,0-.22l-.51-.29a.43.43,0,0,0-.39,0Z"/><path class="cls-49" d="M161.87,70.42h0v0h0l0,0,0,0h0l.51.29.06,0h.3l0,0,.51-.3a.14.14,0,0,0,.08-.11v.17a.14.14,0,0,1-.08.12l-.51.3,0,0h-.3l-.06,0-.51-.29h0l0,0h0l0,0h0v0h0v0h0v-.18A.06.06,0,0,0,161.87,70.42Z"/></g><g class="cls-1"><path class="cls-50" d="M142.79,63.53h0v0h0l0,0h0l.24.14.26.15.87.5.39.23.12.06.05,0h.3l0,0,.51-.3a.13.13,0,0,0,.08-.11v.18a.14.14,0,0,1-.08.12l-.51.29,0,0h-.3l-.05,0-.11-.07-.39-.23-.87-.5-.26-.15-.24-.14h0l0,0h0v0h0v-.2h0Z"/><path class="cls-46" d="M142.86,63.39a.12.12,0,0,0,0,.23l.24.14.26.15.87.5.39.23.12.06a.44.44,0,0,0,.39,0l.51-.3a.12.12,0,0,0,0-.22l-.12-.07-.39-.22-.87-.5-.26-.15-.24-.14a.42.42,0,0,0-.39,0Z"/></g><g class="cls-1"><path class="cls-46" d="M158.73,71.1a.14.14,0,0,0,0,.27l1.35.77a.52.52,0,0,0,.46,0l.44-.26a.14.14,0,0,0,0-.27l-1.35-.77a.49.49,0,0,0-.46,0Z"/><path class="cls-51" d="M158.63,71.23a.17.17,0,0,0,0,0h0l0,0h0l0,0,0,0,0,0,1.35.77.06,0h.35l.05,0,.44-.26a.17.17,0,0,0,.1-.14v.18a.17.17,0,0,1-.09.14l-.44.26,0,0h-.35l-.06,0-1.34-.78h0l0,0h0l0,0h0v0h0v-.18Z"/></g><g class="cls-1"><path class="cls-46" d="M158,72.1c-.12.07-.11.19,0,.26l.83.48a.5.5,0,0,0,.45,0l.47-.27c.12-.07.11-.18,0-.26l-.83-.48a.5.5,0,0,0-.45,0Z"/><path class="cls-52" d="M157.94,72.23v0h0l0,0h0l0,0,0,0h0l.83.48.07,0h.28l0,0h0l0,0,.47-.27a.15.15,0,0,0,.09-.12v.18a.14.14,0,0,1-.09.12l-.47.28,0,0h-.34l-.07,0-.83-.48h0l0,0h0l0,0h0v0h0v-.16h0Z"/></g><g class="cls-1"><path class="cls-46" d="M146.09,66.6c-.13.07-.13.19,0,.26l.78.45a.51.51,0,0,0,.46,0l.44-.26c.13-.08.13-.2,0-.27l-.78-.45a.53.53,0,0,0-.46,0Z"/><path class="cls-53" d="M146,66.74a.07.07,0,0,0,0,0h0l0,0h0l0,0h0l0,0,.78.45.06,0h.34l.05,0,.44-.26a.17.17,0,0,0,.1-.13v.17a.16.16,0,0,1-.09.14l-.44.26,0,0h-.35l-.07,0-.77-.44h0l0,0h0l0,0h0v0h0a0,0,0,0,1,0,0h0Z"/></g><g class="cls-1"><path class="cls-46" d="M147.62,67.48a.14.14,0,0,0,0,.27l5,2.9a.51.51,0,0,0,.46,0l.44-.26a.14.14,0,0,0,0-.27l-5-2.91a.51.51,0,0,0-.46,0Z"/><path class="cls-54" d="M147.52,67.62a.06.06,0,0,0,0,0h0l0,0h0l0,0,0,0,0,0,5,2.9.07,0h.34l.05,0,.44-.26a.16.16,0,0,0,.1-.14v.18a.17.17,0,0,1-.1.14l-.44.26,0,0h-.35l-.06,0-5-2.91h0l0,0h0v0h0Z"/></g><g class="cls-1"><path class="cls-46" d="M161.27,68.55c-.11.06-.11.16,0,.22l.51.29a.43.43,0,0,0,.39,0l.51-.3c.11-.06.11-.17,0-.23l-.51-.29a.43.43,0,0,0-.39,0Z"/><path class="cls-55" d="M161.19,68.69h0v0h0l0,0,0,0h0l.51.3.05,0h.3l0,0,.51-.3a.14.14,0,0,0,.08-.12v.18a.13.13,0,0,1-.08.12l-.51.3,0,0h-.3l-.05,0-.51-.29h0l0,0h0l0,0h0v0h0v-.15Z"/></g><g class="cls-1"><path class="cls-46" d="M160.13,67.89a.12.12,0,0,0,0,.23l.51.29a.45.45,0,0,0,.39,0l.51-.3a.12.12,0,0,0,0-.23l-.51-.29a.44.44,0,0,0-.39,0Z"/><path class="cls-56" d="M160.05,68h0v0h0l0,0,0,0h0l.51.29.05,0h.3l0,0,.51-.3a.13.13,0,0,0,.08-.12v.18a.14.14,0,0,1-.08.12l-.51.3,0,0h-.3l-.06,0-.51-.29h0l0,0h0l0,0h0v0h0V68Z"/></g><g class="cls-1"><path class="cls-46" d="M159,67.23c-.11.06-.11.17,0,.22l.51.29a.43.43,0,0,0,.39,0l.51-.3a.12.12,0,0,0,0-.23l-.51-.3a.43.43,0,0,0-.39,0Z"/><path class="cls-57" d="M158.9,67.37h0v0h0l0,0h0l.51.29.05,0h.3l0,0,.51-.3a.14.14,0,0,0,.08-.12v.18a.14.14,0,0,1-.08.12l-.51.3,0,0h-.3l-.05,0-.51-.29h0l0,0h0l0,0h0a.07.07,0,0,1,0,0h0v-.15Z"/></g><g class="cls-1"><path class="cls-46" d="M157.84,66.57a.12.12,0,0,0,0,.23l.51.29a.44.44,0,0,0,.4,0l.51-.3a.12.12,0,0,0,0-.23l-.51-.29a.41.41,0,0,0-.39,0Z"/><path class="cls-58" d="M157.76,66.71h0l0,0h0l0,0,0,0h0l.51.29.06,0h.3l0,0,.51-.3a.14.14,0,0,0,.08-.12v.18a.14.14,0,0,1-.08.11l-.51.3,0,0h-.3l-.05,0-.51-.29h0l0,0h0v0h0a.07.07,0,0,1,0,0h0v-.17A.05.05,0,0,0,157.76,66.71Z"/></g><g class="cls-1"><path class="cls-46" d="M156.69,65.91c-.11.06-.11.17,0,.23l.51.29a.42.42,0,0,0,.39,0l.51-.3a.12.12,0,0,0,0-.23l-.51-.29a.44.44,0,0,0-.39,0Z"/><path class="cls-59" d="M156.62,66.06h0v0h0l0,0h0l.51.29.06,0h.29l0,0,.51-.3a.14.14,0,0,0,.08-.11v.18a.14.14,0,0,1-.08.11l-.51.3,0,0h-.3l-.06,0-.51-.29h0l0,0h0v-.15Z"/></g><g class="cls-1"><path class="cls-46" d="M155.55,65.25a.12.12,0,0,0,0,.23l.51.29a.43.43,0,0,0,.39,0l.51-.3a.12.12,0,0,0,0-.23l-.51-.29a.42.42,0,0,0-.39,0Z"/><path class="cls-60" d="M155.47,65.4h0v0h0l0,0h0l.51.29.06,0h.29l0,0,.51-.3a.15.15,0,0,0,.08-.12v.18a.14.14,0,0,1-.08.12l-.51.3,0,0h-.3l-.06,0-.51-.29h0l0,0h0l0,0h0v0h0v0h0V65.4Z"/></g><g class="cls-1"><path class="cls-46" d="M154.4,64.59a.12.12,0,0,0,0,.23l.51.29a.42.42,0,0,0,.39,0l.51-.3c.11-.06.11-.16,0-.23l-.51-.29a.45.45,0,0,0-.4,0Z"/><path class="cls-61" d="M154.33,64.74h0l0,0h0l0,0h0l0,0,.51.29.05,0h.3l0,0,.51-.3a.13.13,0,0,0,.08-.11v.18a.14.14,0,0,1-.08.12l-.51.29,0,0H155l-.05,0L154.4,65h0l0,0h0v-.18A0,0,0,0,0,154.33,64.74Z"/></g><g class="cls-1"><path class="cls-46" d="M153.26,63.93c-.11.06-.11.16,0,.23l.51.29a.42.42,0,0,0,.39,0l.51-.3a.12.12,0,0,0,0-.23l-.51-.29a.42.42,0,0,0-.39,0Z"/><path class="cls-62" d="M153.18,64.08h0v0h0l0,0h0l0,0,.51.29.05,0h.3l0,0,.51-.3a.14.14,0,0,0,.08-.12v.18a.15.15,0,0,1-.08.12l-.51.3,0,0h-.3l-.05,0-.51-.29h0l0,0h0l0,0h0v0h0v0h0v-.15Z"/></g><g class="cls-1"><path class="cls-46" d="M152.11,63.27c-.11.06-.11.16,0,.23l.51.29a.44.44,0,0,0,.39,0l.51-.29c.11-.06.11-.17,0-.23L153,63a.43.43,0,0,0-.39,0Z"/><path class="cls-63" d="M152,63.42h0l0,0h0l0,0,0,0,0,0,.51.29.06,0H153l0,0,.51-.29a.14.14,0,0,0,.08-.12v.18a.14.14,0,0,1-.08.12L153,64l0,0h-.3l-.06,0-.5-.29h0l0,0h0l0,0h0v0h0v-.18A.11.11,0,0,0,152,63.42Z"/></g><g class="cls-1"><path class="cls-46" d="M151,62.61c-.11.06-.11.16,0,.23l.51.29a.43.43,0,0,0,.39,0l.51-.29c.11-.07.11-.17,0-.23l-.51-.29a.43.43,0,0,0-.39,0Z"/><path class="cls-64" d="M150.89,62.76h0v0h0l0,0,0,0h0l.51.29.06,0h.3l0,0,.51-.29a.14.14,0,0,0,.08-.12v.18a.14.14,0,0,1-.08.11l-.51.3,0,0h-.3l-.06,0L151,63h0l0,0h0l0,0h0v0h0v-.15Z"/></g><g class="cls-1"><path class="cls-46" d="M149.83,62a.12.12,0,0,0,0,.23l.51.29a.45.45,0,0,0,.39,0l.51-.3a.12.12,0,0,0,0-.23l-.5-.29a.41.41,0,0,0-.39,0Z"/><path class="cls-65" d="M149.75,62.1h0v0h0l0,0h0l0,0,.51.29.06,0h.3l0,0,.51-.3a.13.13,0,0,0,.08-.12v.18a.14.14,0,0,1-.08.12l-.51.3,0,0h-.3l-.06,0-.51-.29h0l0,0h0l0,0h0s0,0,0,0h0v-.18A.05.05,0,0,0,149.75,62.1Z"/></g><g class="cls-1"><path class="cls-46" d="M148.68,61.29a.12.12,0,0,0,0,.23l.51.29a.44.44,0,0,0,.39,0l.51-.3a.12.12,0,0,0,0-.23l-.51-.29a.44.44,0,0,0-.39,0Z"/><path class="cls-66" d="M148.6,61.44h0v0h0l0,0h0l0,0,.51.29.05,0h.3l0,0,.51-.3a.13.13,0,0,0,.08-.11v.18a.14.14,0,0,1-.08.11l-.51.3,0,0h-.3l-.05,0-.51-.29h0l0,0h0l0,0h0a.07.07,0,0,1,0,0h0v-.18A.06.06,0,0,0,148.6,61.44Z"/></g><g class="cls-1"><path class="cls-46" d="M147.57,60.65c-.11.06-.11.16,0,.23l.51.29a.44.44,0,0,0,.4,0l.51-.3a.12.12,0,0,0,0-.23l-.51-.29a.43.43,0,0,0-.39,0Z"/><path class="cls-67" d="M147.49,60.8h0v0h0l0,0,0,0h0l.51.29.05,0h.3l0,0,.51-.3a.14.14,0,0,0,.08-.12v.18a.14.14,0,0,1-.08.12l-.51.3,0,0h-.3l-.05,0-.51-.29h0l0,0h0v0h0v0h0V60.8Z"/></g><g class="cls-1"><path class="cls-46" d="M148.2,62.35c-.11.06-.11.16,0,.23l.51.29a.44.44,0,0,0,.39,0l.51-.3a.12.12,0,0,0,0-.23l-.51-.29a.43.43,0,0,0-.39,0Z"/><path class="cls-68" d="M148.12,62.5h0v0h0l0,0,0,0,0,0,.51.29.05,0h.3l0,0,.51-.3a.14.14,0,0,0,.08-.12v.18a.14.14,0,0,1-.08.12l-.51.3,0,0h-.3l-.06,0-.51-.29h0l0,0h0v0h0v0h0v-.18A.15.15,0,0,0,148.12,62.5Z"/></g><g class="cls-1"><path class="cls-46" d="M149.34,63c-.11.06-.11.17,0,.23l.51.29a.42.42,0,0,0,.39,0l.51-.29c.11-.07.11-.17,0-.23l-.51-.29a.43.43,0,0,0-.39,0Z"/><path class="cls-69" d="M149.27,63.15h0l0,0h0l0,0h0l.51.29.05,0h.3l0,0,.51-.29a.15.15,0,0,0,.08-.12v.18a.14.14,0,0,1-.08.12l-.51.29,0,0h-.3l-.06,0-.51-.29h0l0,0h0l0,0h0v0h0v-.15Z"/></g><g class="cls-1"><path class="cls-46" d="M150.49,63.67a.12.12,0,0,0,0,.23l.51.29a.44.44,0,0,0,.39,0l.51-.3c.11-.06.11-.17,0-.23l-.51-.29a.44.44,0,0,0-.39,0Z"/><path class="cls-70" d="M150.41,63.82h0v0h0l0,0,0,0h0l.51.29.06,0h.3l0,0,.51-.3a.14.14,0,0,0,.08-.11V64a.13.13,0,0,1-.08.11l-.51.3,0,0h-.3l-.06,0-.51-.29h0l0,0h0l0,0h0v0h0a0,0,0,0,1,0,0h0v-.18A.09.09,0,0,0,150.41,63.82Z"/></g><g class="cls-1"><path class="cls-46" d="M151.63,64.33c-.11.07-.11.17,0,.23l.51.29a.44.44,0,0,0,.4,0l.51-.3a.12.12,0,0,0,0-.23l-.51-.29a.43.43,0,0,0-.39,0Z"/><path class="cls-71" d="M151.56,64.48h0l0,0h0l0,0h0l.51.29.06,0h.29l0,0,.51-.3a.14.14,0,0,0,.08-.11v.17a.14.14,0,0,1-.08.12l-.51.29,0,0h-.3l-.06,0-.51-.29h0l0,0h0v-.18A.06.06,0,0,0,151.56,64.48Z"/></g><g class="cls-1"><path class="cls-46" d="M152.78,65c-.11.07-.11.17,0,.23l.51.29a.44.44,0,0,0,.39,0l.51-.3a.12.12,0,0,0,0-.23l-.51-.29a.44.44,0,0,0-.39,0Z"/><path class="cls-72" d="M152.7,65.13h0v0h0l0,0h0l.51.29.06,0h.29l0,0,.51-.3a.14.14,0,0,0,.08-.11v.17a.14.14,0,0,1-.08.12l-.51.3,0,0h-.3l-.06,0-.51-.29h0l0,0h0v0h0v-.17A0,0,0,0,0,152.7,65.13Z"/></g><g class="cls-1"><path class="cls-46" d="M153.92,65.65c-.11.06-.11.16,0,.23l.51.29a.42.42,0,0,0,.39,0l.51-.3a.12.12,0,0,0,0-.23l-.51-.29a.44.44,0,0,0-.4,0Z"/><path class="cls-73" d="M153.84,65.8h0v0h0l0,0,0,0,0,0,.51.29.05,0h.25l0,0h0l0,0,.51-.3a.14.14,0,0,0,.08-.12v.18a.14.14,0,0,1-.08.11l-.51.3,0,0h-.3l-.05,0-.51-.29h0l0,0h0l0,0h0v0h0V65.8Z"/></g><g class="cls-1"><path class="cls-46" d="M155.07,66.31c-.11.06-.11.16,0,.23l.51.29a.43.43,0,0,0,.39,0l.51-.3a.12.12,0,0,0,0-.23L156,66a.43.43,0,0,0-.39,0Z"/><path class="cls-74" d="M155,66.46h0v0h0l0,0h0l0,0,.51.29.05,0h.3l0,0,.51-.3a.14.14,0,0,0,.08-.11v.18a.15.15,0,0,1-.08.11L156,67l0,0h-.3l-.06,0-.51-.29h0l0,0h0v0h0v0h0v-.18A.07.07,0,0,0,155,66.46Z"/></g><g class="cls-1"><path class="cls-46" d="M156.21,67c-.11.07-.11.17,0,.23l.51.29a.44.44,0,0,0,.39,0l.51-.3c.11-.06.11-.16,0-.23l-.51-.29a.44.44,0,0,0-.39,0Z"/><path class="cls-75" d="M156.13,67.11h0v0h0l0,0h0l.51.29.05,0h.29l0,0,.51-.3a.14.14,0,0,0,.08-.12v.18a.14.14,0,0,1-.08.11l-.51.3,0,0h-.3l-.06,0-.51-.29h0l0,0h0l0,0h0v0h0v-.17A.09.09,0,0,0,156.13,67.11Z"/></g><g class="cls-1"><path class="cls-46" d="M157.35,67.63a.12.12,0,0,0,0,.23l.51.29a.44.44,0,0,0,.4,0l.51-.3c.11-.06.11-.16,0-.23l-.51-.29a.42.42,0,0,0-.39,0Z"/><path class="cls-76" d="M157.28,67.77h0l0,0h0l0,0h0l.51.29.06,0h.29l0,0,.51-.3a.14.14,0,0,0,.08-.11v.17a.14.14,0,0,1-.08.12l-.51.29,0,0h-.3l-.06,0-.51-.29h0l0,0h0l0,0h0v0h0v-.18A.07.07,0,0,0,157.28,67.77Z"/></g><g class="cls-1"><path class="cls-46" d="M158.5,68.29c-.11.06-.11.16,0,.23l.51.29a.43.43,0,0,0,.39,0l.51-.3a.12.12,0,0,0,0-.23L159.4,68a.44.44,0,0,0-.39,0Z"/><path class="cls-77" d="M158.42,68.43h0v0h0l0,0h0l.51.29.06,0h.3l0,0,.51-.3a.13.13,0,0,0,.08-.11v.18a.14.14,0,0,1-.08.12l-.51.29,0,0h-.3L159,69l-.51-.29h0l0,0h0l0,0h0v0h0V68.4A.15.15,0,0,0,158.42,68.43Z"/></g><g class="cls-1"><path class="cls-46" d="M159.65,68.95c-.11.07-.11.17,0,.23l.51.29a.43.43,0,0,0,.39,0l.51-.3c.11-.06.11-.17,0-.23l-.51-.29a.45.45,0,0,0-.4,0Z"/><path class="cls-78" d="M159.57,69.09h0v0h0l0,0,0,0h0l.51.29.06,0h.29l0,0,.51-.3a.14.14,0,0,0,.08-.11v.18a.14.14,0,0,1-.08.11l-.51.3,0,0h-.3l-.06,0-.51-.29h0l0,0h0l0,0h0v0h0v0h0v-.18A.05.05,0,0,0,159.57,69.09Z"/></g><g class="cls-1"><path class="cls-46" d="M160.79,69.61c-.11.07-.11.17,0,.23l.51.3a.44.44,0,0,0,.39,0l.51-.3c.11-.06.11-.16,0-.22l-.5-.29a.43.43,0,0,0-.39,0Z"/><path class="cls-79" d="M160.71,69.75h0v0h0l0,0h0l.51.3.05,0h.3l0,0,.51-.3a.13.13,0,0,0,.08-.11v.18a.14.14,0,0,1-.08.12l-.51.29,0,0h-.3l-.06,0-.51-.29h0l0,0h0l0,0h0v0h0v0h0v-.18A.08.08,0,0,0,160.71,69.75Z"/></g><g class="cls-1"><path class="cls-46" d="M161.95,70.27a.12.12,0,0,0,0,.23l.51.29a.43.43,0,0,0,.39,0l.51-.3a.12.12,0,0,0,0-.22l-.51-.29a.43.43,0,0,0-.39,0Z"/><path class="cls-80" d="M161.87,70.42h0v0h0l0,0,0,0h0l.51.29.06,0h.3l0,0,.51-.3a.14.14,0,0,0,.08-.11v.17a.14.14,0,0,1-.08.12l-.51.3,0,0h-.3l-.06,0-.51-.29h0l0,0h0l0,0h0v0h0v-.18A.06.06,0,0,0,161.87,70.42Z"/></g><g class="cls-1"><path class="cls-46" d="M146.35,62.66c-.11.07-.11.17,0,.23l.51.29a.43.43,0,0,0,.39,0l.51-.3c.11-.06.11-.17,0-.23l-.51-.29a.43.43,0,0,0-.39,0Z"/><path class="cls-81" d="M146.27,62.81h0v0h0l0,0h0l.51.29.05,0h.3l0,0,.51-.3a.14.14,0,0,0,.08-.11v.17a.14.14,0,0,1-.08.12l-.51.3,0,0h-.3l-.05,0-.51-.3h0l0,0h0l0,0h0v0h0v-.18A.07.07,0,0,0,146.27,62.81Z"/></g><g class="cls-1"><path class="cls-46" d="M147.49,63.32c-.11.07-.11.17,0,.23l.51.29a.45.45,0,0,0,.39,0l.51-.3c.11-.06.11-.16,0-.23L148.4,63a.44.44,0,0,0-.4,0Z"/><path class="cls-82" d="M147.41,63.46h0v0h0l0,0h0l.51.29.05,0h.3l0,0,.51-.3a.15.15,0,0,0,.08-.12v.18a.14.14,0,0,1-.08.12l-.51.3,0,0h-.3L148,64l-.51-.29h0l0,0h0v0h0v-.18A.14.14,0,0,0,147.41,63.46Z"/></g><g class="cls-1"><path class="cls-46" d="M148.64,64a.12.12,0,0,0,0,.23l.51.29a.42.42,0,0,0,.39,0l.51-.29a.12.12,0,0,0,0-.23l-.51-.29a.43.43,0,0,0-.39,0Z"/><path class="cls-83" d="M148.56,64.12h0l0,0h0l0,0h0l0,0,.51.29.05,0h.3l0,0,.51-.29a.13.13,0,0,0,.08-.12v.18a.14.14,0,0,1-.08.12l-.51.3,0,0h-.3l-.06,0-.51-.29h0l0,0h0l0,0h0v0h0v0h0v-.17A.13.13,0,0,0,148.56,64.12Z"/></g><g class="cls-1"><path class="cls-46" d="M149.78,64.64c-.11.06-.11.16,0,.23l.51.29a.43.43,0,0,0,.39,0l.51-.3c.11-.07.11-.16,0-.23l-.51-.29a.43.43,0,0,0-.39,0Z"/><path class="cls-84" d="M149.7,64.78h0v0h0l0,0,0,0h0l.51.29.06,0h.3l0,0,.51-.3a.14.14,0,0,0,.08-.11v.18a.13.13,0,0,1-.08.11l-.51.3,0,0h-.3l-.06,0-.51-.29h0l0,0h0l0,0h0v0h0v0h0v-.15Z"/></g><g class="cls-1"><path class="cls-46" d="M150.93,65.3c-.11.06-.11.16,0,.23l.51.29a.45.45,0,0,0,.39,0l.51-.3c.11-.06.11-.16,0-.23l-.51-.29a.44.44,0,0,0-.39,0Z"/><path class="cls-85" d="M150.85,65.44h0v0h0l0,0,0,0h0l.51.29.06,0h.29l0,0,.51-.3a.14.14,0,0,0,.08-.11v.17a.14.14,0,0,1-.08.12l-.51.3,0,0h-.3l-.06,0-.51-.29h0l0,0h0l0,0h0v-.17A.05.05,0,0,0,150.85,65.44Z"/></g><g class="cls-1"><path class="cls-46" d="M152.07,66a.12.12,0,0,0,0,.23l.51.29a.42.42,0,0,0,.39,0l.51-.3a.12.12,0,0,0,0-.23l-.51-.29a.43.43,0,0,0-.39,0Z"/><path class="cls-86" d="M152,66.1h0v0h0l0,0h0l0,0,.51.29.05,0h.3l0,0,.51-.3a.14.14,0,0,0,.08-.12v.18a.15.15,0,0,1-.08.12l-.51.3,0,0h-.3l-.05,0-.51-.29h0l0,0h0v0h0v0h0v-.17A.08.08,0,0,0,152,66.1Z"/></g><g class="cls-1"><path class="cls-46" d="M153.22,66.62c-.11.06-.11.17,0,.23l.51.29a.44.44,0,0,0,.39,0l.51-.3a.12.12,0,0,0,0-.23l-.51-.29a.43.43,0,0,0-.39,0Z"/><path class="cls-87" d="M153.14,66.76h0l0,0h0l0,0h0l0,0,.51.29.05,0H154l0,0h0l0,0,.51-.3a.14.14,0,0,0,.08-.12v.18a.14.14,0,0,1-.08.12l-.51.3,0,0h-.3l-.05,0-.51-.29h0l0,0h0v0h0a0,0,0,0,1,0,0h0v-.18A.08.08,0,0,0,153.14,66.76Z"/></g><g class="cls-1"><path class="cls-46" d="M154.36,67.28a.12.12,0,0,0,0,.23l.51.29a.42.42,0,0,0,.39,0l.51-.29c.11-.07.11-.17,0-.23l-.51-.29a.44.44,0,0,0-.39,0Z"/><path class="cls-88" d="M154.28,67.42h0v0h0l0,0h0l.51.29.05,0h.29l0,0,.51-.29a.15.15,0,0,0,.08-.12v.18a.13.13,0,0,1-.08.12l-.51.3,0,0h-.29l-.06,0-.51-.29h0l0,0h0l0,0h0v0h0v-.18A.15.15,0,0,0,154.28,67.42Z"/></g><g class="cls-1"><path class="cls-46" d="M155.5,67.94c-.11.07-.11.17,0,.23l.51.29a.42.42,0,0,0,.39,0l.51-.3c.11-.07.11-.17,0-.23l-.51-.3a.45.45,0,0,0-.39,0Z"/><path class="cls-89" d="M155.43,68.08h0v0h0l0,0,0,0h0l.51.29.05,0h.3l0,0,.51-.3A.14.14,0,0,0,157,68v.17a.13.13,0,0,1-.08.11l-.51.3,0,0h-.3l-.05,0-.51-.29h0l0,0h0v-.15Z"/></g><g class="cls-1"><path class="cls-46" d="M156.65,68.6c-.11.07-.11.17,0,.23l.51.29a.46.46,0,0,0,.4,0l.51-.3c.11-.06.11-.16,0-.23l-.51-.29a.41.41,0,0,0-.39,0Z"/><path class="cls-90" d="M156.57,68.74h0v0h0l0,0,0,0h0l.51.29.05,0h.3l0,0,.51-.3a.13.13,0,0,0,.08-.12v.18a.14.14,0,0,1-.08.12l-.51.29,0,0h-.3l-.06,0-.51-.29h0l0,0h0l0,0h0v0h0v0h0v-.15Z"/></g><g class="cls-1"><path class="cls-46" d="M157.79,69.26a.12.12,0,0,0,0,.23l.51.29a.42.42,0,0,0,.39,0l.51-.3a.12.12,0,0,0,0-.23L158.7,69a.44.44,0,0,0-.39,0Z"/><path class="cls-91" d="M157.72,69.4h0v0h0l0,0h0l.51.29.06,0h.3l0,0,.51-.3a.14.14,0,0,0,.08-.11v.17a.14.14,0,0,1-.08.12l-.51.3,0,0h-.29l-.06,0-.51-.3h0l0,0h0l0,0h0v0h0v0h0v-.18A.08.08,0,0,0,157.72,69.4Z"/></g><g class="cls-1"><path class="cls-46" d="M159,69.92c-.11.06-.11.16,0,.23l.51.29a.43.43,0,0,0,.39,0l.51-.3a.12.12,0,0,0,0-.23l-.51-.29a.43.43,0,0,0-.39,0Z"/><path class="cls-92" d="M158.87,70.07h0l0,0h0l0,0,0,0h0l.51.29.06,0h.29l0,0,.51-.3a.14.14,0,0,0,.08-.12v.18a.14.14,0,0,1-.08.11l-.51.3,0,0h-.3l-.06,0-.51-.29h0l0,0h0l0,0h0v0h0v-.15Z"/></g><g class="cls-1"><path class="cls-46" d="M145,63.2c-.11.07-.11.16,0,.23l.51.29a.43.43,0,0,0,.39,0l.51-.3a.12.12,0,0,0,0-.23l-.51-.29a.44.44,0,0,0-.39,0Z"/><path class="cls-93" d="M144.89,63.34h0v0h0l0,0h0l.51.29.05,0h.3l0,0,.51-.3a.13.13,0,0,0,.08-.11v.18a.15.15,0,0,1-.08.12l-.51.29,0,0h-.3l-.05,0L145,63.6h0l0,0h0l0,0h0v-.18A.07.07,0,0,0,144.89,63.34Z"/></g><g class="cls-1"><path class="cls-46" d="M146.11,63.86c-.11.07-.11.17,0,.23l.51.29a.43.43,0,0,0,.39,0l.51-.29c.11-.07.11-.17,0-.23l-.51-.29a.43.43,0,0,0-.39,0Z"/><path class="cls-94" d="M146,64h0v0h0l0,0h0l0,0,.51.29.05,0H147l0,0,.51-.29a.15.15,0,0,0,.08-.12v.18a.14.14,0,0,1-.08.11l-.51.3,0,0h-.3l-.05,0-.51-.29h0l0,0h0v0h0a.12.12,0,0,1,0,0h0V64A.07.07,0,0,0,146,64Z"/></g><g class="cls-1"><path class="cls-46" d="M147.26,64.52a.12.12,0,0,0,0,.23l.51.29a.45.45,0,0,0,.39,0l.51-.3c.11-.06.11-.16,0-.23l-.51-.29a.44.44,0,0,0-.39,0Z"/><path class="cls-95" d="M147.18,64.66h0v0h0l0,0h0l.51.29.05,0h.3l0,0,.51-.3a.14.14,0,0,0,.08-.11v.18a.14.14,0,0,1-.08.12l-.51.29,0,0h-.3l-.06,0-.51-.29h0l0,0h0l0,0h0v0h0v-.18A.07.07,0,0,0,147.18,64.66Z"/></g><g class="cls-1"><path class="cls-46" d="M148.4,65.18c-.11.06-.11.16,0,.23l.51.29a.43.43,0,0,0,.39,0l.51-.3c.11-.06.11-.17,0-.23l-.51-.29a.45.45,0,0,0-.39,0Z"/><path class="cls-96" d="M148.32,65.32h0v0h0l0,0h0l.51.29.05,0h.3l0,0,.51-.3a.14.14,0,0,0,.08-.11v.18a.14.14,0,0,1-.08.12l-.51.29,0,0H149l-.05,0-.51-.29h0l0,0h0l0,0h0v0h0v-.15Z"/></g><g class="cls-1"><path class="cls-46" d="M149.54,65.84a.12.12,0,0,0,0,.23l.51.29a.43.43,0,0,0,.39,0l.51-.29c.11-.07.11-.17,0-.23l-.51-.29a.44.44,0,0,0-.39,0Z"/><path class="cls-97" d="M149.47,66h0l0,0h0l0,0h0l.51.29.05,0h.3l0,0,.51-.29c.05,0,.08-.07.08-.12v.18a.14.14,0,0,1-.08.11l-.51.3,0,0h-.3l-.05,0-.51-.29h0l0,0h0v0h0v0h0V66Z"/></g><g class="cls-1"><path class="cls-46" d="M150.69,66.5c-.11.07-.11.17,0,.23l.51.29a.44.44,0,0,0,.39,0l.51-.3c.11-.06.11-.16,0-.22l-.51-.29a.41.41,0,0,0-.39,0Z"/><path class="cls-98" d="M150.61,66.64h0v0h0l0,0h0l0,0,.51.29.06,0h.3l0,0,.51-.3a.14.14,0,0,0,.08-.11v.18a.13.13,0,0,1-.08.11l-.51.3,0,0h-.3l-.05,0-.51-.29h0l0,0h0l0,0h0v0h0v-.18A.07.07,0,0,0,150.61,66.64Z"/></g><g class="cls-1"><path class="cls-46" d="M151.83,67.16a.12.12,0,0,0,0,.23l.51.29a.42.42,0,0,0,.39,0l.51-.3a.12.12,0,0,0,0-.23l-.51-.29a.44.44,0,0,0-.39,0Z"/><path class="cls-99" d="M151.76,67.3h0v0h0l0,0h0l0,0,.51.29.06,0h.29l0,0,.51-.3a.13.13,0,0,0,.08-.12v.17a.14.14,0,0,1-.08.12l-.51.3,0,0h-.3l-.06,0-.51-.29h0l0,0h0l0,0h0v0h0v0h0V67.3Z"/></g><g class="cls-1"><path class="cls-46" d="M153,67.81c-.11.07-.11.17,0,.23l.5.29a.43.43,0,0,0,.39,0l.51-.29c.11-.07.11-.17,0-.23l-.51-.29a.43.43,0,0,0-.39,0Z"/><path class="cls-100" d="M152.9,68h0v0h0l0,0h0l.5.29.05,0h.3l0,0,.51-.29a.15.15,0,0,0,.08-.12v.18a.15.15,0,0,1-.08.11l-.51.3,0,0h-.3l-.06,0-.51-.29h0l0,0h0l0,0h0v0h0a0,0,0,0,1,0,0h0v-.18A.07.07,0,0,0,152.9,68Z"/></g><g class="cls-1"><path class="cls-46" d="M154.12,68.48a.12.12,0,0,0,0,.22l.51.29a.42.42,0,0,0,.39,0l.51-.29c.11-.07.11-.17,0-.23l-.51-.29a.44.44,0,0,0-.4,0Z"/><path class="cls-101" d="M154,68.62h0l0,0h0l0,0h0l.51.29.05,0h.3l0,0,.51-.29a.14.14,0,0,0,.08-.12v.18a.15.15,0,0,1-.08.12l-.51.29,0,0h-.3l-.05,0-.51-.29h0l0,0h0v0h0v0h0v0h0v-.15Z"/></g><g class="cls-1"><path class="cls-46" d="M155.27,69.14a.12.12,0,0,0,0,.22l.51.29a.44.44,0,0,0,.39,0l.51-.29c.11-.07.11-.17,0-.23l-.51-.29a.42.42,0,0,0-.39,0Z"/><path class="cls-102" d="M155.19,69.28h0v0h0l0,0h0l.51.3.05,0h.3l0,0,.51-.29a.15.15,0,0,0,.08-.12v.18a.14.14,0,0,1-.08.11l-.51.3,0,0h-.3l-.06,0-.51-.29h0l0,0h0l0,0h0v0h0a0,0,0,0,1,0,0h0v-.18A0,0,0,0,0,155.19,69.28Z"/></g><g class="cls-1"><path class="cls-46" d="M156.41,69.79c-.11.07-.11.17,0,.23l.51.29a.44.44,0,0,0,.39,0l.51-.3c.11-.06.11-.16,0-.23l-.51-.29a.44.44,0,0,0-.4,0Z"/><path class="cls-103" d="M156.34,69.94h0v0h0l0,0h0l0,0,.51.29.05,0h.29l0,0,.51-.3a.13.13,0,0,0,.08-.11v.18a.14.14,0,0,1-.08.12l-.51.29,0,0H157l-.05,0-.51-.29h0l0,0h0l0,0h0v-.18A.08.08,0,0,0,156.34,69.94Z"/></g><g class="cls-1"><path class="cls-46" d="M157.57,70.46c-.11.06-.11.16,0,.23l.51.29a.43.43,0,0,0,.39,0l.51-.3a.12.12,0,0,0,0-.22l-.51-.29a.43.43,0,0,0-.39,0Z"/><path class="cls-104" d="M157.49,70.61h0l0,0h0l0,0h0l.51.29.05,0h.29l0,0,.51-.3a.13.13,0,0,0,.08-.11v.17a.14.14,0,0,1-.08.12l-.51.29,0,0h-.3l-.05,0-.51-.29h0l0,0h0l0,0h0v0h0v-.15Z"/></g><g class="cls-1"><path class="cls-46" d="M144.22,64.17c-.11.06-.11.16,0,.22l.51.29a.43.43,0,0,0,.39,0l.51-.3c.11-.07.11-.17,0-.23l-.51-.29a.45.45,0,0,0-.39,0Z"/><path class="cls-105" d="M144.15,64.32h0v0h0l0,0h0l.51.29.05,0h.3l0,0,.51-.3a.14.14,0,0,0,.08-.12v.18a.14.14,0,0,1-.08.12l-.51.3,0,0h-.3l-.06,0-.51-.29h0l0,0h0l0,0h0v-.18A.1.1,0,0,0,144.15,64.32Z"/></g><g class="cls-1"><path class="cls-46" d="M145.37,64.83c-.11.06-.11.16,0,.23l.51.29a.43.43,0,0,0,.4,0l.51-.3c.11-.06.11-.16,0-.23l-.51-.29a.43.43,0,0,0-.4,0Z"/><path class="cls-106" d="M145.29,65h0v0h0l0,0h0l0,0,.51.29.06,0h.29l0,0,.51-.3a.14.14,0,0,0,.08-.11v.18a.13.13,0,0,1-.08.11l-.51.3,0,0h-.3l-.06,0-.51-.29h0l0,0h0l0,0h0v0h0v0h0v-.18A.09.09,0,0,0,145.29,65Z"/></g><g class="cls-1"><path class="cls-46" d="M146.51,65.49c-.11.06-.11.17,0,.23L147,66a.43.43,0,0,0,.39,0l.51-.3a.12.12,0,0,0,0-.23l-.51-.29a.45.45,0,0,0-.39,0Z"/><path class="cls-107" d="M146.44,65.63h0v0h0l0,0h0L147,66l.05,0h.3l0,0,.51-.3a.14.14,0,0,0,.08-.12v.18a.14.14,0,0,1-.08.12l-.51.3,0,0h-.3l-.05,0-.51-.29h0l0,0h0l0,0h0v0h0V65.6A.06.06,0,0,0,146.44,65.63Z"/></g><g class="cls-1"><path class="cls-46" d="M147.66,66.15c-.11.06-.11.17,0,.23l.51.29a.44.44,0,0,0,.39,0l.51-.29a.12.12,0,0,0,0-.23l-.51-.29a.45.45,0,0,0-.39,0Z"/><path class="cls-108" d="M147.58,66.29h0v0h0l0,0h0l.51.29.05,0h.25l0,0h0l0,0,.51-.29a.14.14,0,0,0,.08-.12v.18a.14.14,0,0,1-.08.12l-.51.3,0,0h-.3l-.05,0-.51-.29h0l0,0h0l0,0h0v0h0v-.18A.09.09,0,0,0,147.58,66.29Z"/></g><g class="cls-1"><path class="cls-46" d="M148.8,66.81c-.11.07-.11.17,0,.23l.51.29a.44.44,0,0,0,.39,0l.51-.29c.11-.07.11-.17,0-.23l-.51-.29a.43.43,0,0,0-.39,0Z"/><path class="cls-109" d="M148.73,67h0v0h0l0,0,0,0h0l.51.29.06,0h.3l0,0,.51-.29a.15.15,0,0,0,.08-.12v.17a.13.13,0,0,1-.08.12l-.51.3,0,0h-.3l-.05,0-.51-.29h0l0,0h0l0,0h0v0h0a.07.07,0,0,1,0,0h0V67Z"/></g><g class="cls-1"><path class="cls-46" d="M149.95,67.47c-.11.06-.11.16,0,.23l.51.29a.43.43,0,0,0,.39,0l.51-.3c.11-.06.11-.16,0-.22l-.51-.29a.43.43,0,0,0-.39,0Z"/><path class="cls-110" d="M149.87,67.61h0v0h0l0,0,0,0h0l.51.29.06,0h.3l0,0,.51-.3a.13.13,0,0,0,.08-.11v.18a.15.15,0,0,1-.08.12l-.51.29,0,0h-.3l-.06,0-.51-.29h0l0,0h0l0,0h0v0h0v0h0v-.18A.1.1,0,0,0,149.87,67.61Z"/></g><g class="cls-1"><path class="cls-46" d="M151.09,68.13c-.11.06-.11.17,0,.23l.51.29a.44.44,0,0,0,.39,0l.51-.3a.12.12,0,0,0,0-.23l-.5-.29a.43.43,0,0,0-.39,0Z"/><path class="cls-111" d="M151,68.27h0v0h0l0,0,0,0h0l.51.29.05,0h.3l0,0,.51-.3a.14.14,0,0,0,.08-.12v.18a.13.13,0,0,1-.08.11l-.51.3,0,0h-.3l-.06,0-.51-.29h0l0,0h0l0,0h0v0h0v0h0v-.18A.06.06,0,0,0,151,68.27Z"/></g><g class="cls-1"><path class="cls-46" d="M152.24,68.79c-.11.06-.11.17,0,.23l.51.29a.43.43,0,0,0,.39,0l.51-.3a.12.12,0,0,0,0-.23l-.51-.29a.44.44,0,0,0-.39,0Z"/><path class="cls-112" d="M152.16,68.93h0v0h0l0,0h0l.51.29.06,0h.29l0,0,.51-.3a.15.15,0,0,0,.08-.12v.18a.14.14,0,0,1-.08.12l-.51.3,0,0h-.3l-.06,0-.51-.29h0l0,0h0l0,0h0v0h0v0h0V68.9A.08.08,0,0,0,152.16,68.93Z"/></g><g class="cls-1"><path class="cls-46" d="M153.38,69.45a.12.12,0,0,0,0,.23l.51.29a.45.45,0,0,0,.39,0l.51-.3c.11-.07.11-.17,0-.23l-.51-.29a.45.45,0,0,0-.39,0Z"/><path class="cls-113" d="M153.3,69.59h0v0h0l0,0,0,0h0l.51.29.06,0h.25l0,0h0l0,0,.51-.3a.15.15,0,0,0,.08-.12v.18a.13.13,0,0,1-.08.11l-.51.3,0,0h-.3l-.06,0-.51-.29h0l0,0h0l0,0h0v-.18A.07.07,0,0,0,153.3,69.59Z"/></g><g class="cls-1"><path class="cls-46" d="M154.53,70.11c-.11.06-.11.16,0,.22l.51.29a.45.45,0,0,0,.39,0l.51-.3c.11-.07.11-.17,0-.23l-.51-.29a.46.46,0,0,0-.39,0Z"/><path class="cls-114" d="M154.45,70.25h0v0h0l0,0h0l.51.29.05,0h.29l0,0,.51-.3a.14.14,0,0,0,.08-.12v.18a.14.14,0,0,1-.08.11l-.51.3,0,0h-.3l-.05,0-.51-.29h0l0,0h0l0,0h0v0h0v-.18A.1.1,0,0,0,154.45,70.25Z"/></g><g class="cls-1"><path class="cls-46" d="M155.67,70.77c-.11.07-.11.17,0,.23l.51.29a.43.43,0,0,0,.39,0l.51-.3c.11-.06.11-.17,0-.23l-.51-.29a.42.42,0,0,0-.39,0Z"/><path class="cls-115" d="M155.59,70.91h0v0h0l0,0h0l.51.29.05,0h.25l0,0h0l0,0,.51-.3a.14.14,0,0,0,.08-.11v.17a.14.14,0,0,1-.08.11l-.51.3,0,0h-.3l-.05,0-.51-.29h0l0,0h0l0,0h0v0h0a0,0,0,0,1,0,0h0v-.18A.05.05,0,0,0,155.59,70.91Z"/></g><g class="cls-1"><path class="cls-46" d="M156.83,71.43a.12.12,0,0,0,0,.23l.51.29a.43.43,0,0,0,.39,0l.51-.3a.12.12,0,0,0,0-.23l-.51-.29a.43.43,0,0,0-.4,0Z"/><path class="cls-116" d="M156.75,71.58h0v0h0l0,0h0l0,0,.51.29.05,0h.29l0,0,.51-.3a.14.14,0,0,0,.08-.12v.18a.14.14,0,0,1-.08.11l-.51.3,0,0h-.3l-.06,0-.51-.29h0l0,0h0l0,0h0v-.17A.06.06,0,0,0,156.75,71.58Z"/></g><g class="cls-1"><path class="cls-46" d="M157.19,73c-.11.06-.11.17,0,.23l.51.29a.43.43,0,0,0,.4,0l.51-.3a.12.12,0,0,0,0-.23l-.51-.29a.42.42,0,0,0-.39,0Z"/><path class="cls-117" d="M157.11,73.19h0v0h0l0,0h0l.51.29.06,0h.3l0,0,.51-.3a.14.14,0,0,0,.08-.11v.18a.14.14,0,0,1-.08.12l-.51.29,0,0h-.3l-.06,0-.51-.29h0l0,0h0l0,0h0v0h0v0h0v-.18A.16.16,0,0,0,157.11,73.19Z"/></g><g class="cls-1"><path class="cls-46" d="M156,72.34a.12.12,0,0,0,0,.23l.51.29a.42.42,0,0,0,.39,0l.51-.3c.11-.06.11-.16,0-.22l-.51-.29a.43.43,0,0,0-.39,0Z"/><path class="cls-118" d="M155.9,72.49h0v0h0l0,0,0,0h0l.51.29.06,0h.29l0,0,.51-.3a.14.14,0,0,0,.08-.11v.17a.14.14,0,0,1-.08.12l-.51.3,0,0h-.3l-.06,0-.51-.29h0l0,0h0l0,0h0v0h0v-.15Z"/></g><g class="cls-1"><path class="cls-46" d="M154.84,71.69a.12.12,0,0,0,0,.22l.51.29a.43.43,0,0,0,.39,0l.51-.3a.12.12,0,0,0,0-.23l-.51-.29a.43.43,0,0,0-.39,0Z"/><path class="cls-119" d="M154.77,71.83h0v0h0l0,0h0l.51.29.05,0h.3l0,0,.51-.3a.14.14,0,0,0,.08-.12V72a.15.15,0,0,1-.08.12l-.51.3,0,0h-.3l-.05,0-.51-.29h0l0,0h0l0,0h0v0h0V71.8A.06.06,0,0,0,154.77,71.83Z"/></g><g class="cls-1"><path class="cls-46" d="M143.86,65.36c-.11.06-.11.17,0,.23l.51.29a.43.43,0,0,0,.4,0l.51-.3a.12.12,0,0,0,0-.23l-.51-.29a.44.44,0,0,0-.39,0Z"/><path class="cls-120" d="M143.78,65.5h0v0h0l0,0,0,0h0l.51.29.05,0h.3l0,0,.51-.3a.13.13,0,0,0,.08-.11v.17a.14.14,0,0,1-.08.12l-.51.3,0,0h-.3l-.06,0-.51-.29h0l0,0h0v0h0V65.5Z"/></g><g class="cls-1"><path class="cls-46" d="M145,66c-.11.06-.11.16,0,.22l.51.29a.43.43,0,0,0,.39,0l.51-.3c.11-.06.11-.17,0-.23l-.51-.29a.44.44,0,0,0-.39,0Z"/><path class="cls-121" d="M144.89,66.14h0v0h0l0,0h0l.51.29.05,0h.29l0,0,.51-.3a.14.14,0,0,0,.08-.12v.18a.14.14,0,0,1-.08.12l-.51.3,0,0h-.3l-.06,0L145,66.4h0l0,0h0l0,0h0v0h0v0h0v-.18S144.89,66.13,144.89,66.14Z"/></g><g class="cls-1"><path class="cls-46" d="M142.76,64.72c-.11.06-.11.17,0,.23l.51.29a.45.45,0,0,0,.39,0l.51-.3c.11-.06.11-.17,0-.23l-.51-.29a.43.43,0,0,0-.39,0Z"/><path class="cls-122" d="M142.69,64.87h0l0,0h0l0,0h0l.51.29.06,0h.29l0,0,.51-.3a.13.13,0,0,0,.08-.11V65a.14.14,0,0,1-.08.11l-.51.3,0,0h-.3l-.06,0-.51-.29h0l0,0h0l0,0h0v0h0v0h0v-.18A.08.08,0,0,0,142.69,64.87Z"/></g><g class="cls-1"><path class="cls-46" d="M141.66,64.09a.12.12,0,0,0,0,.23l.51.29a.43.43,0,0,0,.39,0l.51-.3c.11-.06.11-.17,0-.23l-.51-.29a.43.43,0,0,0-.39,0Z"/><path class="cls-123" d="M141.58,64.23h0l0,0h0l0,0,0,0h0l.51.29.06,0h.29l0,0,.51-.3a.14.14,0,0,0,.08-.12v.18a.14.14,0,0,1-.08.12l-.51.3,0,0h-.3l-.06,0-.51-.29h0l0,0h0l0,0h0v0h0v0h0v-.15Z"/></g><g class="cls-1"><path class="cls-46" d="M160.1,70.55c-.13.07-.13.19,0,.27l1.13.65a.51.51,0,0,0,.46,0l.44-.26c.13-.07.13-.19,0-.27L161,70.3a.51.51,0,0,0-.46,0Z"/><path class="cls-124" d="M160,70.68a.07.07,0,0,0,0,0h0l0,0h0l0,0,0,0h0l1.13.65.06,0h.35l.05,0,.44-.26,0,0a.13.13,0,0,0,.05-.11h0c0,.06,0,.12,0,.18a.16.16,0,0,1-.1.14l-.44.26,0,0h-.35l-.07,0L160.1,71h0l0,0h0l0,0h0v0h0v0h0c0-.06,0-.11,0-.17h0Z"/></g><g class="cls-1"><path class="cls-46" d="M153.34,70.8c-.12.07-.11.19,0,.26l.83.48a.49.49,0,0,0,.45,0l.47-.27c.12-.07.12-.18,0-.26l-.83-.48a.48.48,0,0,0-.44,0Z"/><path class="cls-125" d="M153.26,70.92a.13.13,0,0,0,0,0h0l0,0h0l0,0,0,0h0l.83.48.07,0h.28l0,0h0l0,0,.47-.27a.15.15,0,0,0,.08-.12v.18a.15.15,0,0,1-.09.12l-.47.27,0,0h-.34l-.07,0-.83-.48h0l0,0h0l0,0h0v0h0v0h0v-.16h0Z"/></g><g class="cls-1"><path class="cls-46" d="M146.45,61.31a.14.14,0,0,0,0,.27l1.13.65a.49.49,0,0,0,.46,0l.44-.26a.14.14,0,0,0,0-.27l-1.13-.65a.5.5,0,0,0-.46,0Z"/><path class="cls-126" d="M146.35,61.44a.1.1,0,0,0,0,0h0l0,0h0l0,0,0,0h0l1.13.65.06,0H148l.05,0,.44-.26,0,0a.14.14,0,0,0,.05-.1h0c0,.06,0,.12,0,.18a.17.17,0,0,1-.1.14l-.44.26,0,0h-.35l-.07,0-1.13-.65h0l0,0h0l0,0h0v0h0v0h0v-.17Z"/></g><path class="cls-10" d="M138.8,1.14c-.5-.29-.91-.05-.91.52l0,6.7a2,2,0,0,0,.9,1.57L150,16.4l1.74,3.05V9.66a2,2,0,0,0-.9-1.57Z"/><path class="cls-127" d="M138.6,1.05l-.15,0h0a.41.41,0,0,0-.15,0h0l-.13.05h0l0,0,.57-.33h0l0,0,0,0h.23l.08,0h.11l.13.06,12,7,.17.12.05,0,.08.07,0,0,0,0,0,0,.07.09,0,0v0l0,0,.05.08,0,.08h0l0,.06,0,.08,0,.07h0l0,.08,0,.08V8.9l0,.1s0,0,0,.06v.06a1.21,1.21,0,0,1,0,.18l0,6.44V19.1l-.6.35V9.66a1.62,1.62,0,0,0,0-.21v0a1.75,1.75,0,0,0,0-.2v0A1.59,1.59,0,0,0,151.6,9h0l-.11-.21h0l-.13-.2h0l-.13-.16,0,0-.12-.11-.05,0-.17-.11-12-7-.16-.07Z"/><path class="cls-24" d="M188.74,39.45c-.43-.25-.78,0-.78.45v8.34l1.49-.89L199,52.87c.42.25.77.05.78-.44l0-5.71a1.71,1.71,0,0,0-.77-1.34Z"/><path class="cls-128" d="M188.57,39.37l-.13,0h-.14a.26.26,0,0,0-.11,0l.46-.27.14-.09,0,0h.37l0,0,.11.05L199.61,45a1.47,1.47,0,0,1,.23.18l0,0,0,0,0,0,0,0,.06.08,0,0v0l0,0,0,.07,0,.06h0l0,.06,0,.07,0,.06h0l0,.07,0,.08v0h0v0l0,.09v.08a.12.12,0,0,1,0,0,1,1,0,0,1,0,.15l0,5.71a.54.54,0,0,1-.23.5l-.6.35a.54.54,0,0,0,.23-.5l0-5.71a1,1,0,0,0,0-.18.12.12,0,0,0,0,0,1,1,0,0,0,0-.17v0l-.07-.18h0l-.09-.18h0l-.11-.17h0l-.11-.14,0,0-.06-.05a1.28,1.28,0,0,0-.23-.18l-10.26-5.93-.15-.07Z"/><path class="cls-18" d="M177.45,9c-.43-.25-.78,0-.79.45l0,9.2-1.11,4.67,2.88-.9,13.53,7.82c.43.25.79,0,.79-.45l0-11a1.73,1.73,0,0,0-.78-1.36Z"/><path class="cls-4" d="M177.27,8.95l-.13,0H177l-.11,0,.45-.27.07,0,0,0h.24l.07,0h.09l.11.05,14.53,8.39.15.1,0,0,.07.06,0,0,0,0,0,0,.06.08,0,0v0l0,0,0,.07,0,.07h0l0,.06,0,.07,0,.06h0l0,.07,0,.07v0h0v0l0,.09v.06a.17.17,0,0,1,0,0v0a1.56,1.56,0,0,1,0,.16l0,11.05a.55.55,0,0,1-.23.5l-.52.3a.56.56,0,0,0,.23-.51l0-11a1,1,0,0,0,0-.18s0,0,0,0,0-.11,0-.17h0a1.46,1.46,0,0,0-.07-.19h0a1.59,1.59,0,0,0-.09-.18h0l-.11-.17v0l-.11-.14,0,0-.1-.09,0,0-.15-.1L177.45,9,177.3,9Z"/><path class="cls-6" d="M108.59,104.47c9.75,5.45,17.56,6.31,22.64,3.25,3.15-1.9,7.92-4.59,11.09-6.37-2.88,11.36,2.59,25.76,4.3,27.93a3.31,3.31,0,0,0,.43.46c1.76,1.56,4.17.28,4.17.28s1-30.71.59-37.64a5.87,5.87,0,0,0-.16-1.29c-1.56-2.65-6.27-3.09-13,.13a90.57,90.57,0,0,0-9.88,5.57c0,2-.05,3.3-.05,3.3s0,2.2-3,2.79a13.79,13.79,0,0,1-5.89-.45,26,26,0,0,1-3.76-1.27c-7.58-3.14-14.58-9.32-14.58-9.32a1.44,1.44,0,0,1-.08-.75h0C101,92.11,99.18,99.22,108.59,104.47ZM144.71,100l.59-.33h0Z"/><path class="cls-129" d="M116.62,53.24l4.91,2.59s0-.18,0-.45c.05-.59.16-1.64.3-2.34a2.22,2.22,0,0,1-.49-.19l-.07,0c-1-.54-1.87-1.31-3.82-2.65Z"/><path class="cls-7" d="M146.63,129.29a3.31,3.31,0,0,0,.43.46A67,67,0,0,1,144.49,119c-.92-6.16-.48-14.6.82-19.33l-3,1.66C139.44,112.72,144.91,127.11,146.63,129.29Z"/><path class="cls-6" d="M128.21,95.59s15.17-7.89,11-11.68-8.14-.77-11.58,1.22S119,90.29,119,90.29Z"/><path class="cls-7" d="M108.59,104.47c9.75,5.45,17.56,6.31,22.64,3.25,3.15-1.9,7.92-4.59,11.09-6.37l3-1.66a35.88,35.88,0,0,0-7.79,2.38c-3.94,1.75-8.7,4.87-12.83,4.94-3.52,0-7.23-2.9-8.65-5.84-7.58-3.14-14.58-9.32-14.58-9.32a1.44,1.44,0,0,1-.08-.75h0C101,92.11,99.18,99.22,108.59,104.47Z"/><path class="cls-4" d="M101.37,91.11c.16-2.07,2.35-7.07,3.08-11,.86-4.5-.33-16.09-.65-20.68s1.18-10,5.31-9.5,7.2,3.17,12.61,5.6,10.16,5.65,10.45,7.65a17.78,17.78,0,0,1-.61,7.76c-1.32,4.54-3.79,8.25-3.31,13.47.42,4.68.49,9.35.47,12.36,0,2-.05,3.29-.05,3.29s0,2.2-3,2.79a13.79,13.79,0,0,1-5.89-.45c-8.84-2.2-18.34-10.59-18.34-10.59A1.47,1.47,0,0,1,101.37,91.11Z"/><path class="cls-10" d="M91.66,93c0-.14,0-.26,0-.39,0-.4,0-.79.06-1.17,0,0,0,0,0-.07,0-.4,0-.8,0-1.19,0-.11,0-.22,0-.33s0-.47,0-.71,0-.21,0-.31c0-.33,0-.65,0-1,0-.1,0-.19,0-.29s0-.48,0-.7,0-.17,0-.25,0-.45,0-.67,0-.14,0-.21c0-.27,0-.53,0-.78,0,0,0,0,0-.07,0-.23,0-.46,0-.68s0-.15,0-.23,0-.31,0-.46,0-.16,0-.24l0-.41c0-.08,0-.16,0-.25s0-.27-.05-.4,0-.13,0-.2-.06-.38-.09-.56-.06-.37-.1-.54l0-.15-.08-.35c0-.07,0-.13,0-.19l-.08-.3,0-.16-.08-.3,0-.14c-.05-.18-.1-.35-.16-.51s-.15-.4-.22-.6a.81.81,0,0,0,0-.11c-.07-.18-.15-.35-.23-.51l-.09-.16-.18-.33L89.85,77l-.14-.21-.21-.3-.13-.16L89.15,76,89,75.89c-.08-.08-.16-.15-.25-.22l-.11-.09a3.78,3.78,0,0,0-.36-.24l23.29,13.54a3.22,3.22,0,0,1,.36.24l.11.09.25.22.13.13.22.25.13.16.21.3.08.12.06.1.09.15c.07.11.13.22.19.34l.08.16,0,.08.2.44,0,.09.12.3.11.31c.05.16.11.33.16.5a.31.31,0,0,1,0,.07l0,.1.07.26,0,.19c0,.1,0,.2.07.3a1.18,1.18,0,0,1,0,.13.21.21,0,0,1,0,0l.08.35c0,.05,0,.1,0,.16s.07.35.1.54h0v0c0,.17.06.36.09.54s0,.12,0,.18,0,.29.06.43,0,0,0,.07v.12l0,.46c0,.08,0,.15,0,.23s0,.31,0,.46,0,.1,0,.16a.5.5,0,0,1,0,.07c0,.22,0,.44,0,.67,0,0,0,0,0,.07,0,.25,0,.51,0,.78,0,0,0,0,0,.06s0,.1,0,.15c0,.21,0,.44,0,.66s0,.16,0,.24c0,.23,0,.47,0,.71,0,.06,0,.11,0,.17v.12c0,.31,0,.64,0,1,0,.09,0,.18,0,.27s0,.48,0,.73c0,.07,0,.12,0,.19s0,.09,0,.14c0,.39,0,.78,0,1.19,0,0,0,0,0,.07,0,.38,0,.77-.07,1.17,0,.06,0,.12,0,.18s0,.14,0,.21c0,.26,0,.52-.05.78s0,.23,0,.35c0,.39-.06.79-.1,1.19s-.06.69-.09,1c0,.12,0,.23,0,.35s0,.41,0,.6,0,.3,0,.45,0,.31,0,.46,0,.31,0,.46,0,.31,0,.46,0,.18,0,.27,0,.48,0,.71c0,.05,0,.1,0,.15s0,.39,0,.57,0,.13,0,.19,0,.31,0,.46,0,.17,0,.25,0,.44,0,.65,0,.2,0,.29,0,.13,0,.19,0,.15,0,.23,0,.14,0,.2,0,.08,0,.12,0,.37,0,.53,0,0,0,.06,0,.3,0,.44,0,.08,0,.12,0,.17,0,.25l0,.12,0,.23,0,.12c0,.17.09.33.14.49a.05.05,0,0,1,0,0,2.81,2.81,0,0,0,.17.36l0,.08a2.07,2.07,0,0,0,.16.22l.08.1a1.35,1.35,0,0,0,.27.23l0,0L92.23,106.82l0,0a1.38,1.38,0,0,1-.27-.23l-.07-.1a1.53,1.53,0,0,1-.12-.15l0-.07,0-.08-.05-.1a2.11,2.11,0,0,1-.11-.25h0v0l-.07-.22c0-.08,0-.17-.07-.26v-.12c0-.08,0-.15,0-.23v-.12l0-.26v-.07s0,0,0,0,0-.29,0-.44v0s0,0,0,0c0-.17,0-.35,0-.53a.32.32,0,0,0,0-.07v-.06c0-.07,0-.14,0-.2s0-.14,0-.22,0-.13,0-.19,0-.15,0-.22v-.07c0-.21,0-.43,0-.65s0-.16,0-.24,0-.24,0-.36,0-.08,0-.12,0-.12,0-.18,0-.4,0-.6c0,0,0-.08,0-.12,0-.24,0-.49,0-.74v-.46c0-.09,0-.19,0-.29s0-.25,0-.38,0-.39,0-.58,0-.21,0-.32,0-.5.06-.76c0-.07,0-.14,0-.21,0-.34.06-.68.09-1s.07-.79.1-1.18c0-.13,0-.26,0-.4S91.64,93.22,91.66,93Z"/><path class="cls-13" d="M88.09,75h0v0a.12.12,0,0,0,0,0v0a0,0,0,0,1,0,0v0h0v-.07a0,0,0,0,0,0,0,.06.06,0,0,0,0,0v-.14l0,0v0h0l0-.07,0,0,0,0,0,0v0l0,0h0l0,0,0,0,0,0,0,0,0,0h.36l.1.06L112.22,87.8l-.11-.06a.2.2,0,0,0-.14,0h0a.44.44,0,0,0-.16.06.84.84,0,0,0-.17.14h0a1.46,1.46,0,0,0-.15.2.89.89,0,0,0-.12.42h0a.42.42,0,0,0,0,.16h0a.25.25,0,0,0,.09.11L88.21,75.29l-.08-.08,0,0h0v-.07a.07.07,0,0,1,0,0V75h0Z"/><path class="cls-130" d="M120.2,53a20.7,20.7,0,0,1,1.36,2.34c.05-.59.16-1.64.3-2.34a2.22,2.22,0,0,1-.49-.19l-.07,0Z"/><path class="cls-12" d="M111.81,87.78a.88.88,0,0,0-.32.34c-.17.29-.16.62,0,.71A5.94,5.94,0,0,1,114,92.36a29.25,29.25,0,0,1,1.13,9c0,2.14-.1,4.6-.35,7.45s-.41,5.3-.4,7.07a13.09,13.09,0,0,0,.25,2.91,2.34,2.34,0,0,0,.85,1.51,1.45,1.45,0,0,0,1,.19,4.74,4.74,0,0,0,1.71-.67c.35-.2.73-.45,1.14-.73,3-2.13,7.22-5,11.88-7.68a74.12,74.12,0,0,1,12.79-6,1,1,0,0,0,.52-.69c0-.3-.1-.48-.34-.4a75.5,75.5,0,0,0-13,6.11c-4.71,2.72-8.93,5.61-12,7.74-.38.26-.73.49-1,.67a3.47,3.47,0,0,1-1.51.56.92.92,0,0,1-.87-.49,3.2,3.2,0,0,1-.36-1,13.76,13.76,0,0,1-.18-2.47c0-1.71.14-4,.4-7s.36-5.38.36-7.56a30.16,30.16,0,0,0-1.17-9.31,6.39,6.39,0,0,0-2.71-3.82A.3.3,0,0,0,111.81,87.78Z"/><path class="cls-131" d="M140.89,79.77l1.44,5.56.14.54c3.55-1.19,14.43-8.16,15.63-9.57a13,13,0,0,0,2.83-2.42.71.71,0,0,0,.17-.44c0-.33-1.14.8-1.3.47s1.71-1.62,1.44-2.14c-.14-.29-1.95,1.46-2,1.26s1.92-2.39,1.46-2.66-2,2.17-2.15,1.9,1.11-1.69.74-1.77c-.62-.14-2.42,2.72-2.52,2.58s.29-1.85-.11-1.6a24.57,24.57,0,0,0-1.3,2.81A73.86,73.86,0,0,1,140.89,79.77Z"/><polygon class="cls-132" points="196.7 72.89 205.66 67.69 199.59 64.18 190.63 69.39 196.7 72.89"/><polygon class="cls-4" points="196.94 73.24 205.89 68.03 205.9 65.07 196.94 70.28 196.94 73.24"/><g class="cls-1"><path class="cls-21" d="M190.82,69.3l5.9,3.42V70.31l-5.9-3.42a3.77,3.77,0,0,1,.16,1.28A2.47,2.47,0,0,1,190.82,69.3Z"/></g><polygon class="cls-133" points="190.64 66.64 190.64 66.87 196.71 70.37 196.7 72.89 190.63 69.39 190.63 69.61 196.94 73.24 196.94 70.28 190.64 66.64"/><polygon class="cls-18" points="196.94 70.28 205.9 65.07 199.6 61.43 190.64 66.64 196.94 70.28"/><polygon class="cls-4" points="205.29 65.07 199.6 61.79 191.25 66.64 196.94 69.92 205.29 65.07"/><polygon class="cls-18" points="204.47 65.07 199.6 62.26 192.07 66.64 196.94 69.45 204.47 65.07"/><path class="cls-134" d="M188.17,23.85c.71.41,1.29.08,1.29-.74a2.84,2.84,0,0,0-1.29-2.23c-.71-.41-1.29-.08-1.29.74A2.84,2.84,0,0,0,188.17,23.85Z"/><path class="cls-134" d="M184.19,21.61c.71.41,1.29.08,1.29-.74a2.85,2.85,0,0,0-1.29-2.23c-.71-.41-1.29-.08-1.29.74A2.85,2.85,0,0,0,184.19,21.61Z"/><path class="cls-134" d="M180.29,19.41c.71.41,1.29.08,1.29-.74a2.85,2.85,0,0,0-1.29-2.23c-.71-.41-1.29-.08-1.29.75A2.84,2.84,0,0,0,180.29,19.41Z"/><path class="cls-134" d="M147,11.69c.45.26.8,0,.8-.46a1.77,1.77,0,0,0-.8-1.39c-.45-.26-.81,0-.81.46A1.77,1.77,0,0,0,147,11.69Z"/><path class="cls-134" d="M144.54,10.29c.44.26.81,0,.81-.46a1.78,1.78,0,0,0-.81-1.4c-.44-.26-.8,0-.8.47A1.78,1.78,0,0,0,144.54,10.29Z"/><path class="cls-134" d="M142.11,8.91c.44.26.8.05.8-.46a1.78,1.78,0,0,0-.8-1.39c-.45-.26-.81,0-.81.46A1.77,1.77,0,0,0,142.11,8.91Z"/><path class="cls-134" d="M196.52,48.73c.44.25.8,0,.8-.47a1.78,1.78,0,0,0-.8-1.39c-.45-.25-.8,0-.8.46A1.77,1.77,0,0,0,196.52,48.73Z"/><path class="cls-134" d="M194,47.33c.44.26.8,0,.8-.46a1.78,1.78,0,0,0-.8-1.39c-.44-.26-.8,0-.8.47A1.77,1.77,0,0,0,194,47.33Z"/><path class="cls-134" d="M191.59,46c.44.26.8,0,.8-.46a1.78,1.78,0,0,0-.8-1.39c-.44-.25-.81,0-.81.47A1.77,1.77,0,0,0,191.59,46Z"/><polygon class="cls-24" points="156.1 31.19 166.17 37.01 166.17 30.87 156.1 25.05 156.1 31.19"/><path class="cls-5" d="M125.69,102.9c3-.6,3-2.79,3-2.79a142.74,142.74,0,0,0-.42-15.65c-.48-5.22,2-8.93,3.31-13.47l-.39-.87a19.71,19.71,0,0,0-4.05,8.82c-.68,4.85-.51,8.38-.67,15A49,49,0,0,1,125.69,102.9Z"/><path class="cls-4" d="M128.89,72.32c1.65,3.25,7.72,17.84,13.58,13.54,0,0,0-.24-.06-.63A20.2,20.2,0,0,0,141.17,80c-1.1-2.64-6.35-16.38-10.27-18.72a2,2,0,0,0-3.2.95C126.71,64.32,127,68.57,128.89,72.32Z"/><path class="cls-5" d="M128.89,72.32c1.65,3.25,7.72,17.84,13.58,13.54,0,0,0-.24-.06-.63-1.12.56-2.86.34-4.65-1-1.94-1.5-7-9.27-8.88-15.17a23.25,23.25,0,0,1-1.18-6.84C126.71,64.32,127,68.57,128.89,72.32Z"/><path class="cls-135" d="M116.94,49.76a11.56,11.56,0,0,0,.89,1.21A11,11,0,0,0,119,52.15a9.41,9.41,0,0,0,1.74,1.21,2.86,2.86,0,0,0,.5.19c1.3.39,3.71.31,4.85-.94s3.29-9.3,1.42-13.11a2.88,2.88,0,0,1-2.11.4c-2.93-.26-4,3.69-3.66,6.36,0,0-.26-1.83-1.51-1.41a1.76,1.76,0,0,0-.93,1.66,2.76,2.76,0,0,0,.93,2.43A3.06,3.06,0,0,1,116.94,49.76Z"/><path class="cls-136" d="M116.13,49.29l0,0,.29.2a2.86,2.86,0,0,0,.49.25,3.06,3.06,0,0,0,3.28-.83c-1.24-.82-1.24-3.68,0-4.09s1.52,1.41,1.52,1.41a8.75,8.75,0,0,1,.2-3.05c.45-1.87,1.56-3.47,3.46-3.3a2.87,2.87,0,0,0,2.1-.4c1.1-.9.16-2.91-.57-3.56-3.88-3.45-11.24-2.06-13,3.82v0a9.31,9.31,0,0,0-.24,1.21C113.21,44.36,114.44,47.94,116.13,49.29Z"/><path class="cls-137" d="M116.13,49.29l0,0,.29.2a2.86,2.86,0,0,0,.49.25,3.06,3.06,0,0,0,3.28-.83c-1.24-.82-1.24-3.68,0-4.09s1.52,1.41,1.52,1.41a8.75,8.75,0,0,1,.2-3.05c-1.16-.53-3.3-.15-5.31-.15a3.84,3.84,0,0,1-2.94-2C113.21,44.36,114.44,47.94,116.13,49.29Z"/><path class="cls-138" d="M116.94,49.76a11.56,11.56,0,0,0,.89,1.21A11,11,0,0,0,119,52.15a4.26,4.26,0,0,1,.43-2c.59-.94,2.28-.85,2.28-.85-1.39-.21-2.09-1.51-2.4-2.8a2.76,2.76,0,0,0,.93,2.43A3.06,3.06,0,0,1,116.94,49.76Z"/><path class="cls-139" d="M142.34,85.33l.14.54c3.55-1.19,14.43-8.16,15.63-9.57a13,13,0,0,0,2.83-2.42c-.86.64-2.46,1.76-3.24,2.41a72.29,72.29,0,0,1-8.55,5.52c-3,1.56-5.51,2.88-6.74,3.42Z"/><g class="cls-1"><path class="cls-140" d="M139.32,61.86l.3-.17,3.4-2h0s-.52-.22-1.87.51A5.05,5.05,0,0,0,139.32,61.86Z"/></g><path class="cls-141" d="M139.32,61.86l.3-.17a10.88,10.88,0,0,1,1.63-1.24,11.07,11.07,0,0,1,1.77-.72h0s-.52-.22-1.87.51A5.05,5.05,0,0,0,139.32,61.86Z"/><path class="cls-142" d="M139.8,61.28a7.42,7.42,0,0,1,.95-.76l.62-.36a5.25,5.25,0,0,1,1.58-.53c.12,0,.18,0,.2-.08l0,.13a.34.34,0,0,1-.17.06,4.4,4.4,0,0,0-1.18.35,7.42,7.42,0,0,0-1.24.7,5.52,5.52,0,0,0-1,.92.8.8,0,0,1-.35.25l-.1-.05C139.29,61.9,139.58,61.52,139.8,61.28Z"/><path class="cls-143" d="M137.46,60.08a5.46,5.46,0,0,1,1.89-1.42,3,3,0,0,1,1.72-.41s.07,0,.42.19l1.51.87c.14.08.16.18.14.23s-.08.07-.2.08a5.25,5.25,0,0,0-1.58.53l-.62.36a7.42,7.42,0,0,0-.95.76c-.22.24-.51.62-.68.62h0c-.15-.09-1.43-.8-1.57-.9S137.08,60.57,137.46,60.08Z"/><path class="cls-144" d="M175.28,79.28c-1.35.78-1.35,2,0,2.83a5.44,5.44,0,0,0,4.9,0c1.35-.78,1.35-2,0-2.83A5.42,5.42,0,0,0,175.28,79.28Z"/><path class="cls-145" d="M175.42,79.18c-1.28.74-1.28,1.93,0,2.66a5.11,5.11,0,0,0,4.61,0c1.27-.74,1.27-1.93,0-2.66A5.1,5.1,0,0,0,175.42,79.18Z"/><rect class="cls-145" x="174.47" y="79.63" width="6.52" height="0.77" transform="translate(355.45 160.03) rotate(180)"/><path class="cls-21" d="M175.42,78.22c-1.28.74-1.28,1.93,0,2.66a5.11,5.11,0,0,0,4.61,0c1.27-.74,1.27-1.93,0-2.66A5.11,5.11,0,0,0,175.42,78.22Z"/><path class="cls-146" d="M177.27,79.67a1,1,0,0,0,.91,0,.32.32,0,0,0,.19-.26v.37a.32.32,0,0,1-.19.26,1,1,0,0,1-.91,0,.32.32,0,0,1-.19-.26v-.37A.32.32,0,0,0,177.27,79.67Z"/><path class="cls-147" d="M177.08,79.41a.31.31,0,0,1,.19-.26,1,1,0,0,1,.91,0,.31.31,0,0,1,.19.26h0a.32.32,0,0,1-.19.26,1,1,0,0,1-.91,0,.32.32,0,0,1-.19-.26h0Z"/><path class="cls-23" d="M170,59.12h0c.67-.9,3.21-1.78,3.21-1.78s1.91-1.1,2.48,1.43a7.67,7.67,0,0,1,.13,3.4,1.17,1.17,0,0,1-.08.27l0,.07h0a1.61,1.61,0,0,1-1.55.75A5.19,5.19,0,0,1,170,60.9,1.57,1.57,0,0,1,170,59.12Z"/><path class="cls-25" d="M173.16,57.34h0l0-.06,1.05-1.83,2.48,1.43-1.1,1.9h0A.74.74,0,0,1,175,59a2.24,2.24,0,0,1-1.75-1A.73.73,0,0,1,173.16,57.34Z"/><path class="cls-148" d="M174.9,55.14c-.64,0-.91.46-.58,1a2.23,2.23,0,0,0,1.75,1c.64,0,.91-.45.58-1A2.25,2.25,0,0,0,174.9,55.14Z"/><path class="cls-23" d="M183.59,68a.62.62,0,0,0-.28-.49.19.19,0,0,0-.2,0l.2-.12a.19.19,0,0,1,.2,0,.62.62,0,0,1,.28.48.19.19,0,0,1-.08.18l-.2.12A.2.2,0,0,0,183.59,68Z"/><path class="cls-148" d="M183.51,68.21a.2.2,0,0,1-.2,0,.63.63,0,0,1-.28-.49.2.2,0,0,1,.08-.18h0a.19.19,0,0,1,.2,0,.62.62,0,0,1,.28.49.2.2,0,0,1-.08.18Z"/><path class="cls-23" d="M178.42,73.31a.62.62,0,0,0-.28-.49.2.2,0,0,0-.2,0l.2-.11a.19.19,0,0,1,.2,0,.61.61,0,0,1,.28.48.19.19,0,0,1-.08.18l-.2.11A.2.2,0,0,0,178.42,73.31Z"/><path class="cls-148" d="M178.34,73.49a.21.21,0,0,1-.2,0,.62.62,0,0,1-.28-.49.2.2,0,0,1,.08-.18h0a.2.2,0,0,1,.2,0,.62.62,0,0,1,.28.49.2.2,0,0,1-.08.18Z"/><path class="cls-23" d="M176.77,57.74a.63.63,0,0,0-.28-.48.2.2,0,0,0-.2,0l.2-.11a.19.19,0,0,1,.2,0,.62.62,0,0,1,.28.49.19.19,0,0,1-.08.18l-.2.11A.2.2,0,0,0,176.77,57.74Z"/><path class="cls-148" d="M176.69,57.92a.2.2,0,0,1-.2,0,.62.62,0,0,1-.28-.48.2.2,0,0,1,.08-.18h0a.2.2,0,0,1,.2,0,.63.63,0,0,1,.28.48.2.2,0,0,1-.08.18Z"/><path class="cls-149" d="M177.69,79.46l0-6,.4-.23,0,6a.14.14,0,0,1-.06.13l-.4.23A.14.14,0,0,0,177.69,79.46Z"/><polygon class="cls-149" points="182.98 68.43 183.38 68.2 178.1 73.26 177.71 73.5 182.98 68.43"/><path class="cls-21" d="M175.83,57.57h-.07l.4-.23h.15l.07.05h0l0,0,0,0v0h0l6.91,10.37h0V68h0v0a.05.05,0,0,1,0,0h0a.3.3,0,0,1,0,.06v0a.18.18,0,0,1,0,.06l-.4.23a.12.12,0,0,0,0-.06s0,0,0,0,0,0,0-.06a.39.39,0,0,0,0-.09h0a.47.47,0,0,0,0-.1L176,57.73l-.06-.07-.06-.05Z"/><path class="cls-145" d="M175.91,57.6a.14.14,0,0,0-.16,0c-.07.06-.05.21,0,.34l6.76,10.14-5.2,5a.15.15,0,0,0,0,.12l0,6a.45.45,0,0,0,.2.35c.11.06.2,0,.2-.12l0-6L183,68.43c.07-.06.05-.21,0-.34L176,57.73A.38.38,0,0,0,175.91,57.6Z"/><path class="cls-23" d="M182.86,68.48a.62.62,0,0,0-.28-.49.19.19,0,0,0-.2,0l.2-.12a.19.19,0,0,1,.2,0,.62.62,0,0,1,.28.48.2.2,0,0,1-.08.18l-.2.12A.21.21,0,0,0,182.86,68.48Z"/><path class="cls-148" d="M182.78,68.66a.2.2,0,0,1-.2,0,.62.62,0,0,1-.28-.48.19.19,0,0,1,.08-.18h0a.19.19,0,0,1,.2,0,.62.62,0,0,1,.28.49.21.21,0,0,1-.08.18Z"/><path class="cls-23" d="M177.68,73.76a.62.62,0,0,0-.28-.49.2.2,0,0,0-.2,0l.2-.11a.2.2,0,0,1,.2,0,.62.62,0,0,1,.28.48.2.2,0,0,1-.08.18l-.2.11A.2.2,0,0,0,177.68,73.76Z"/><path class="cls-148" d="M177.6,73.94a.2.2,0,0,1-.2,0,.62.62,0,0,1-.28-.48.2.2,0,0,1,.08-.19h0a.2.2,0,0,1,.2,0,.62.62,0,0,1,.28.49.2.2,0,0,1-.08.18Z"/><path class="cls-23" d="M176.1,58.13a.62.62,0,0,0-.28-.48.19.19,0,0,0-.2,0l.2-.12a.2.2,0,0,1,.2,0,.62.62,0,0,1,.28.49.2.2,0,0,1-.08.18l-.2.11A.2.2,0,0,0,176.1,58.13Z"/><path class="cls-148" d="M176,58.31a.19.19,0,0,1-.2,0,.62.62,0,0,1-.28-.49.19.19,0,0,1,.08-.18h0a.19.19,0,0,1,.2,0,.62.62,0,0,1,.28.48.2.2,0,0,1-.08.18h0Z"/><path class="cls-23" d="M175.93,54.94a.58.58,0,0,0,.46.26.19.19,0,0,0,.17-.08l-.69,1.19h0a.18.18,0,0,1-.17.08.58.58,0,0,1-.46-.27.18.18,0,0,1,0-.19h0l.69-1.19A.19.19,0,0,0,175.93,54.94Z"/><path class="cls-148" d="M175.91,54.75a.18.18,0,0,1,.17-.08.59.59,0,0,1,.46.27.18.18,0,0,1,0,.19h0a.19.19,0,0,1-.17.08.58.58,0,0,1-.46-.26.19.19,0,0,1,0-.19h0Z"/><path class="cls-13" d="M141.92,102.9l2.44,1.43s0-.1-.93.23-1.93.73-1.93.73Z"/></g></g></svg>