<svg id="Layer_1" data-name="Layer 1" xmlns="http://www.w3.org/2000/svg" viewBox="0 0 60 60"><defs><style>.cls-1{fill:#002147;}.cls-2{fill:#fafafa;}.cls-3{fill:#fdc800;}</style></defs><title>video-icon</title><path class="cls-1" d="M50,12.12,38,11.07a92.12,92.12,0,0,0-16,0L10,12.12a7.92,7.92,0,0,0-7.28,7.93V41.67A7.92,7.92,0,0,0,10,49.61l12,1c2.65.23,5.32.35,8,.35s5.34-.11,8-.35l12-1a7.92,7.92,0,0,0,7.27-7.93V20.06A7.92,7.92,0,0,0,50,12.12Z"/><path class="cls-2" d="M40.86,29.91,24.93,19.67a1.14,1.14,0,0,0-1.75,1V41.1a1.14,1.14,0,0,0,1.75,1L40.86,31.82a1.14,1.14,0,0,0,0-1.91Z"/><path class="cls-3" d="M30,51c-2.67,0-5.33-.12-8-.35l-12-1a7.92,7.92,0,0,1-7.28-7.93V20.05A7.92,7.92,0,0,1,10,12.12l12-1.06a92.07,92.07,0,0,1,16,0l12,1a7.92,7.92,0,0,1,7.27,7.94V41.67A7.92,7.92,0,0,1,50,49.61h0l-12,1C35.34,50.89,32.67,51,30,51Zm0-38q-3.9,0-7.78.34l-12.06,1A5.66,5.66,0,0,0,5,20.06V41.67a5.66,5.66,0,0,0,5.19,5.66l12,1a90.19,90.19,0,0,0,15.57,0l12.06-1A5.66,5.66,0,0,0,55,41.67V20.05a5.66,5.66,0,0,0-5.19-5.66l-12-1Q33.91,13,30,13ZM49.93,48.47"/><path class="cls-3" d="M24.31,42.24a1.14,1.14,0,0,1-1.14-1.14V20.62a1.14,1.14,0,0,1,1.75-1L40.86,29.91a1.14,1.14,0,0,1,0,1.92L24.93,42.06A1.14,1.14,0,0,1,24.31,42.24Zm1.14-19.53V39l12.69-8.16Z"/></svg>